#VRML V2.0 utf8
Shape {
 appearance Appearance { material Material { diffuseColor 0.050 0.140 0.380 specularColor 0.3 0.3 0.3 shininess 0.3 } }
 geometry IndexedFaceSet { solid FALSE creaseAngle 0.5
  coord Coordinate { point [ -7.4803 2.3622 0.1181, 7.4803 2.3622 0.1181, -7.4803 -2.3622 0.1181, 7.4803 -2.3622 0.1181, -7.4803 2.3622 0.5118, 7.4803 2.3622 0.5118, -7.4803 -2.3622 0.5118, 7.4803 -2.3622 0.5118 ] }
  coordIndex [ 0 2 3 1 -1, 4 5 7 6 -1, 0 1 5 4 -1, 2 6 7 3 -1, 0 4 6 2 -1, 1 3 7 5 -1 ] }
}
Shape {
 appearance Appearance { material Material { diffuseColor 0.020 0.020 0.030 specularColor 0.3 0.3 0.3 shininess 0.9 } }
 geometry IndexedFaceSet { solid FALSE creaseAngle 0.5
  coord Coordinate { point [ -4.7244 2.2638 0.5118, 7.0866 2.2638 0.5118, -4.7244 -2.2638 0.5118, 7.0866 -2.2638 0.5118, -4.7244 2.2638 0.9843, 7.0866 2.2638 0.9843, -4.7244 -2.2638 0.9843, 7.0866 -2.2638 0.9843 ] }
  coordIndex [ 0 2 3 1 -1, 4 5 7 6 -1, 0 1 5 4 -1, 2 6 7 3 -1, 0 4 6 2 -1, 1 3 7 5 -1 ] }
}
Shape {
 appearance Appearance { material Material { diffuseColor 0.050 0.070 0.100 specularColor 0.3 0.3 0.3 shininess 0.9 } }
 geometry IndexedFaceSet { solid FALSE creaseAngle 0.5
  coord Coordinate { point [ -3.3465 1.1417 0.9843, 5.7087 1.1417 0.9843, -3.3465 -1.1417 0.9843, 5.7087 -1.1417 0.9843, -3.3465 1.1417 0.9882, 5.7087 1.1417 0.9882, -3.3465 -1.1417 0.9882, 5.7087 -1.1417 0.9882 ] }
  coordIndex [ 0 2 3 1 -1, 4 5 7 6 -1, 0 1 5 4 -1, 2 6 7 3 -1, 0 4 6 2 -1, 1 3 7 5 -1 ] }
}
Shape {
 appearance Appearance { material Material { diffuseColor 0.830 0.680 0.300 specularColor 0.3 0.3 0.3 shininess 0.6 } }
 geometry IndexedFaceSet { solid FALSE creaseAngle 0.5
  coord Coordinate { point [ -6.9764 1.6260 -1.2205, -6.7244 1.6260 -1.2205, -6.9764 1.3740 -1.2205, -6.7244 1.3740 -1.2205, -6.9764 1.6260 0.7480, -6.7244 1.6260 0.7480, -6.9764 1.3740 0.7480, -6.7244 1.3740 0.7480, -6.9764 0.6260 -1.2205, -6.7244 0.6260 -1.2205, -6.9764 0.3740 -1.2205, -6.7244 0.3740 -1.2205, -6.9764 0.6260 0.7480, -6.7244 0.6260 0.7480, -6.9764 0.3740 0.7480, -6.7244 0.3740 0.7480, -6.9764 -0.3740 -1.2205, -6.7244 -0.3740 -1.2205, -6.9764 -0.6260 -1.2205, -6.7244 -0.6260 -1.2205, -6.9764 -0.3740 0.7480, -6.7244 -0.3740 0.7480, -6.9764 -0.6260 0.7480, -6.7244 -0.6260 0.7480, -6.9764 -1.3740 -1.2205, -6.7244 -1.3740 -1.2205, -6.9764 -1.6260 -1.2205, -6.7244 -1.6260 -1.2205, -6.9764 -1.3740 0.7480, -6.7244 -1.3740 0.7480, -6.9764 -1.6260 0.7480, -6.7244 -1.6260 0.7480 ] }
  coordIndex [ 0 2 3 1 -1, 4 5 7 6 -1, 0 1 5 4 -1, 2 6 7 3 -1, 0 4 6 2 -1, 1 3 7 5 -1, 8 10 11 9 -1, 12 13 15 14 -1, 8 9 13 12 -1, 10 14 15 11 -1, 8 12 14 10 -1, 9 11 15 13 -1, 16 18 19 17 -1, 20 21 23 22 -1, 16 17 21 20 -1, 18 22 23 19 -1, 16 20 22 18 -1, 17 19 23 21 -1, 24 26 27 25 -1, 28 29 31 30 -1, 24 25 29 28 -1, 26 30 31 27 -1, 24 28 30 26 -1, 25 27 31 29 -1 ] }
}
