0
SECTION
2
HEADER
9
$INSUNITS
70
4
0
ENDSEC
0
SECTION
2
ENTITIES
0
POLYLINE
8
CUT
66
1
70
1
0
VERTEX
8
CUT
10
170.0345
20
-38.4843
0
VERTEX
8
CUT
10
170.3601
20
-38.4522
0
VERTEX
8
CUT
10
170.6830
20
-38.3989
0
VERTEX
8
CUT
10
171.0016
20
-38.3246
0
VERTEX
8
CUT
10
171.3147
20
-38.2297
0
VERTEX
8
CUT
10
171.6209
20
-38.1144
0
VERTEX
8
CUT
10
171.9189
20
-37.9794
0
VERTEX
8
CUT
10
172.2075
20
-37.8251
0
VERTEX
8
CUT
10
172.4854
20
-37.6523
0
VERTEX
8
CUT
10
172.7513
20
-37.4618
0
VERTEX
8
CUT
10
173.0042
20
-37.2542
0
VERTEX
8
CUT
10
173.2430
20
-37.0305
0
VERTEX
8
CUT
10
173.4667
20
-36.7917
0
VERTEX
8
CUT
10
173.6743
20
-36.5388
0
VERTEX
8
CUT
10
173.8648
20
-36.2729
0
VERTEX
8
CUT
10
174.0376
20
-35.9950
0
VERTEX
8
CUT
10
174.1919
20
-35.7064
0
VERTEX
8
CUT
10
174.3269
20
-35.4084
0
VERTEX
8
CUT
10
174.4422
20
-35.1022
0
VERTEX
8
CUT
10
174.5371
20
-34.7891
0
VERTEX
8
CUT
10
174.6114
20
-34.4705
0
VERTEX
8
CUT
10
174.6647
20
-34.1476
0
VERTEX
8
CUT
10
174.6968
20
-33.8220
0
VERTEX
8
CUT
10
174.7075
20
-33.4950
0
VERTEX
8
CUT
10
174.7075
20
5.3950
0
VERTEX
8
CUT
10
174.6968
20
5.7220
0
VERTEX
8
CUT
10
174.6647
20
6.0476
0
VERTEX
8
CUT
10
174.6114
20
6.3705
0
VERTEX
8
CUT
10
174.5371
20
6.6891
0
VERTEX
8
CUT
10
174.4422
20
7.0022
0
VERTEX
8
CUT
10
174.3269
20
7.3084
0
VERTEX
8
CUT
10
174.1919
20
7.6064
0
VERTEX
8
CUT
10
174.0376
20
7.8950
0
VERTEX
8
CUT
10
173.8648
20
8.1729
0
VERTEX
8
CUT
10
173.6743
20
8.4388
0
VERTEX
8
CUT
10
173.4667
20
8.6917
0
VERTEX
8
CUT
10
173.2430
20
8.9305
0
VERTEX
8
CUT
10
173.0042
20
9.1542
0
VERTEX
8
CUT
10
172.7513
20
9.3618
0
VERTEX
8
CUT
10
172.4854
20
9.5523
0
VERTEX
8
CUT
10
172.2075
20
9.7251
0
VERTEX
8
CUT
10
171.9189
20
9.8794
0
VERTEX
8
CUT
10
171.6209
20
10.0144
0
VERTEX
8
CUT
10
171.3147
20
10.1297
0
VERTEX
8
CUT
10
171.0016
20
10.2246
0
VERTEX
8
CUT
10
170.6830
20
10.2989
0
VERTEX
8
CUT
10
170.3601
20
10.3522
0
VERTEX
8
CUT
10
170.0345
20
10.3843
0
VERTEX
8
CUT
10
169.7075
20
10.3950
0
VERTEX
8
CUT
10
156.8175
20
10.3950
0
VERTEX
8
CUT
10
156.4905
20
10.3843
0
VERTEX
8
CUT
10
156.1649
20
10.3522
0
VERTEX
8
CUT
10
155.8420
20
10.2989
0
VERTEX
8
CUT
10
155.5234
20
10.2246
0
VERTEX
8
CUT
10
155.2103
20
10.1297
0
VERTEX
8
CUT
10
154.9041
20
10.0144
0
VERTEX
8
CUT
10
154.6061
20
9.8794
0
VERTEX
8
CUT
10
154.3175
20
9.7251
0
VERTEX
8
CUT
10
154.0396
20
9.5523
0
VERTEX
8
CUT
10
153.7737
20
9.3618
0
VERTEX
8
CUT
10
153.5208
20
9.1542
0
VERTEX
8
CUT
10
153.2820
20
8.9305
0
VERTEX
8
CUT
10
153.0583
20
8.6917
0
VERTEX
8
CUT
10
152.8507
20
8.4388
0
VERTEX
8
CUT
10
152.6602
20
8.1729
0
VERTEX
8
CUT
10
152.4874
20
7.8950
0
VERTEX
8
CUT
10
152.3331
20
7.6064
0
VERTEX
8
CUT
10
152.1981
20
7.3084
0
VERTEX
8
CUT
10
152.0828
20
7.0022
0
VERTEX
8
CUT
10
151.9879
20
6.6891
0
VERTEX
8
CUT
10
151.9136
20
6.3705
0
VERTEX
8
CUT
10
151.8603
20
6.0476
0
VERTEX
8
CUT
10
151.8282
20
5.7220
0
VERTEX
8
CUT
10
151.8175
20
5.3950
0
VERTEX
8
CUT
10
151.8175
20
-33.4950
0
VERTEX
8
CUT
10
151.8282
20
-33.8220
0
VERTEX
8
CUT
10
151.8603
20
-34.1476
0
VERTEX
8
CUT
10
151.9136
20
-34.4705
0
VERTEX
8
CUT
10
151.9879
20
-34.7891
0
VERTEX
8
CUT
10
152.0828
20
-35.1022
0
VERTEX
8
CUT
10
152.1981
20
-35.4084
0
VERTEX
8
CUT
10
152.3331
20
-35.7064
0
VERTEX
8
CUT
10
152.4874
20
-35.9950
0
VERTEX
8
CUT
10
152.6602
20
-36.2729
0
VERTEX
8
CUT
10
152.8507
20
-36.5388
0
VERTEX
8
CUT
10
153.0583
20
-36.7917
0
VERTEX
8
CUT
10
153.2820
20
-37.0305
0
VERTEX
8
CUT
10
153.5208
20
-37.2542
0
VERTEX
8
CUT
10
153.7737
20
-37.4618
0
VERTEX
8
CUT
10
154.0396
20
-37.6523
0
VERTEX
8
CUT
10
154.3175
20
-37.8251
0
VERTEX
8
CUT
10
154.6061
20
-37.9794
0
VERTEX
8
CUT
10
154.9041
20
-38.1144
0
VERTEX
8
CUT
10
155.2103
20
-38.2297
0
VERTEX
8
CUT
10
155.5234
20
-38.3246
0
VERTEX
8
CUT
10
155.8420
20
-38.3989
0
VERTEX
8
CUT
10
156.1649
20
-38.4522
0
VERTEX
8
CUT
10
156.4905
20
-38.4843
0
VERTEX
8
CUT
10
156.8175
20
-38.4950
0
VERTEX
8
CUT
10
169.7075
20
-38.4950
0
SEQEND
0
ENDSEC
0
EOF
