0
SECTION
2
HEADER
9
$INSUNITS
70
4
0
ENDSEC
0
SECTION
2
ENTITIES
0
POLYLINE
8
CUT
66
1
70
1
0
VERTEX
8
CUT
10
171.4279
20
-41.4929
0
VERTEX
8
CUT
10
171.4930
20
-41.4864
0
VERTEX
8
CUT
10
171.5576
20
-41.4758
0
VERTEX
8
CUT
10
171.6213
20
-41.4609
0
VERTEX
8
CUT
10
171.6839
20
-41.4419
0
VERTEX
8
CUT
10
171.7452
20
-41.4189
0
VERTEX
8
CUT
10
171.8048
20
-41.3919
0
VERTEX
8
CUT
10
171.8625
20
-41.3610
0
VERTEX
8
CUT
10
171.9181
20
-41.3265
0
VERTEX
8
CUT
10
171.9713
20
-41.2884
0
VERTEX
8
CUT
10
172.0218
20
-41.2468
0
VERTEX
8
CUT
10
172.0696
20
-41.2021
0
VERTEX
8
CUT
10
172.1143
20
-41.1543
0
VERTEX
8
CUT
10
172.1559
20
-41.1038
0
VERTEX
8
CUT
10
172.1940
20
-41.0506
0
VERTEX
8
CUT
10
172.2285
20
-40.9950
0
VERTEX
8
CUT
10
172.2594
20
-40.9373
0
VERTEX
8
CUT
10
172.2864
20
-40.8777
0
VERTEX
8
CUT
10
172.3094
20
-40.8164
0
VERTEX
8
CUT
10
172.3284
20
-40.7538
0
VERTEX
8
CUT
10
172.3433
20
-40.6901
0
VERTEX
8
CUT
10
172.3539
20
-40.6255
0
VERTEX
8
CUT
10
172.3604
20
-40.5604
0
VERTEX
8
CUT
10
172.3625
20
-40.4950
0
VERTEX
8
CUT
10
172.3625
20
-1.0327
0
VERTEX
8
CUT
10
172.3620
20
-1.0000
0
VERTEX
8
CUT
10
172.3384
20
-0.2806
0
VERTEX
8
CUT
10
172.3341
20
-0.2153
0
VERTEX
8
CUT
10
172.3341
20
-0.2153
0
VERTEX
8
CUT
10
172.2668
20
0.4684
0
VERTEX
8
CUT
10
172.2583
20
0.5333
0
VERTEX
8
CUT
10
172.1463
20
1.2111
0
VERTEX
8
CUT
10
172.1336
20
1.2753
0
VERTEX
8
CUT
10
171.9776
20
1.9444
0
VERTEX
8
CUT
10
171.9606
20
2.0076
0
VERTEX
8
CUT
10
171.9606
20
2.0076
0
VERTEX
8
CUT
10
171.7612
20
2.6651
0
VERTEX
8
CUT
10
171.7402
20
2.7270
0
VERTEX
8
CUT
10
171.7325
20
2.7472
0
VERTEX
8
CUT
10
171.7075
20
2.8077
0
VERTEX
8
CUT
10
171.6786
20
2.8664
0
VERTEX
8
CUT
10
171.6458
20
2.9231
0
VERTEX
8
CUT
10
171.6095
20
2.9775
0
VERTEX
8
CUT
10
171.5696
20
3.0294
0
VERTEX
8
CUT
10
171.5265
20
3.0786
0
VERTEX
8
CUT
10
171.4802
20
3.1249
0
VERTEX
8
CUT
10
171.4310
20
3.1680
0
VERTEX
8
CUT
10
171.3791
20
3.2078
0
VERTEX
8
CUT
10
171.3247
20
3.2442
0
VERTEX
8
CUT
10
171.2680
20
3.2769
0
VERTEX
8
CUT
10
171.2093
20
3.3059
0
VERTEX
8
CUT
10
171.1489
20
3.3309
0
VERTEX
8
CUT
10
171.0869
20
3.3519
0
VERTEX
8
CUT
10
171.0237
20
3.3689
0
VERTEX
8
CUT
10
170.9595
20
3.3816
0
VERTEX
8
CUT
10
170.8947
20
3.3902
0
VERTEX
8
CUT
10
170.8294
20
3.3945
0
VERTEX
8
CUT
10
170.7966
20
3.3950
0
VERTEX
8
CUT
10
150.1175
20
3.3950
0
VERTEX
8
CUT
10
150.0521
20
3.3929
0
VERTEX
8
CUT
10
149.9870
20
3.3864
0
VERTEX
8
CUT
10
149.9224
20
3.3758
0
VERTEX
8
CUT
10
149.8587
20
3.3609
0
VERTEX
8
CUT
10
149.7961
20
3.3419
0
VERTEX
8
CUT
10
149.7348
20
3.3189
0
VERTEX
8
CUT
10
149.6752
20
3.2919
0
VERTEX
8
CUT
10
149.6175
20
3.2610
0
VERTEX
8
CUT
10
149.5619
20
3.2265
0
VERTEX
8
CUT
10
149.5087
20
3.1884
0
VERTEX
8
CUT
10
149.4582
20
3.1468
0
VERTEX
8
CUT
10
149.4104
20
3.1021
0
VERTEX
8
CUT
10
149.3657
20
3.0543
0
VERTEX
8
CUT
10
149.3241
20
3.0038
0
VERTEX
8
CUT
10
149.2860
20
2.9506
0
VERTEX
8
CUT
10
149.2515
20
2.8950
0
VERTEX
8
CUT
10
149.2206
20
2.8373
0
VERTEX
8
CUT
10
149.1936
20
2.7777
0
VERTEX
8
CUT
10
149.1706
20
2.7164
0
VERTEX
8
CUT
10
149.1516
20
2.6538
0
VERTEX
8
CUT
10
149.1367
20
2.5901
0
VERTEX
8
CUT
10
149.1261
20
2.5255
0
VERTEX
8
CUT
10
149.1196
20
2.4604
0
VERTEX
8
CUT
10
149.1175
20
2.3950
0
VERTEX
8
CUT
10
149.1175
20
-0.1250
0
VERTEX
8
CUT
10
149.1196
20
-0.1904
0
VERTEX
8
CUT
10
149.1261
20
-0.2555
0
VERTEX
8
CUT
10
149.1367
20
-0.3201
0
VERTEX
8
CUT
10
149.1516
20
-0.3838
0
VERTEX
8
CUT
10
149.1706
20
-0.4464
0
VERTEX
8
CUT
10
149.1936
20
-0.5077
0
VERTEX
8
CUT
10
149.2206
20
-0.5673
0
VERTEX
8
CUT
10
149.2515
20
-0.6250
0
VERTEX
8
CUT
10
149.2860
20
-0.6806
0
VERTEX
8
CUT
10
149.3241
20
-0.7338
0
VERTEX
8
CUT
10
149.3657
20
-0.7843
0
VERTEX
8
CUT
10
149.4104
20
-0.8321
0
VERTEX
8
CUT
10
149.4582
20
-0.8768
0
VERTEX
8
CUT
10
149.5087
20
-0.9184
0
VERTEX
8
CUT
10
149.5619
20
-0.9565
0
VERTEX
8
CUT
10
149.6175
20
-0.9910
0
VERTEX
8
CUT
10
149.6752
20
-1.0219
0
VERTEX
8
CUT
10
149.7348
20
-1.0489
0
VERTEX
8
CUT
10
149.7961
20
-1.0719
0
VERTEX
8
CUT
10
149.8587
20
-1.0909
0
VERTEX
8
CUT
10
149.9224
20
-1.1058
0
VERTEX
8
CUT
10
149.9870
20
-1.1164
0
VERTEX
8
CUT
10
150.0521
20
-1.1229
0
VERTEX
8
CUT
10
150.1175
20
-1.1250
0
VERTEX
8
CUT
10
151.2586
20
-1.1250
0
VERTEX
8
CUT
10
151.2745
20
-1.1255
0
VERTEX
8
CUT
10
151.2750
20
-1.1414
0
VERTEX
8
CUT
10
151.2750
20
-17.9086
0
VERTEX
8
CUT
10
151.2745
20
-17.9245
0
VERTEX
8
CUT
10
151.2586
20
-17.9250
0
VERTEX
8
CUT
10
150.1175
20
-17.9250
0
VERTEX
8
CUT
10
150.0521
20
-17.9271
0
VERTEX
8
CUT
10
149.9870
20
-17.9336
0
VERTEX
8
CUT
10
149.9224
20
-17.9442
0
VERTEX
8
CUT
10
149.8587
20
-17.9591
0
VERTEX
8
CUT
10
149.7961
20
-17.9781
0
VERTEX
8
CUT
10
149.7348
20
-18.0011
0
VERTEX
8
CUT
10
149.6752
20
-18.0281
0
VERTEX
8
CUT
10
149.6175
20
-18.0590
0
VERTEX
8
CUT
10
149.5619
20
-18.0935
0
VERTEX
8
CUT
10
149.5087
20
-18.1316
0
VERTEX
8
CUT
10
149.4582
20
-18.1732
0
VERTEX
8
CUT
10
149.4104
20
-18.2179
0
VERTEX
8
CUT
10
149.3657
20
-18.2657
0
VERTEX
8
CUT
10
149.3241
20
-18.3162
0
VERTEX
8
CUT
10
149.2860
20
-18.3694
0
VERTEX
8
CUT
10
149.2515
20
-18.4250
0
VERTEX
8
CUT
10
149.2206
20
-18.4827
0
VERTEX
8
CUT
10
149.1936
20
-18.5423
0
VERTEX
8
CUT
10
149.1706
20
-18.6036
0
VERTEX
8
CUT
10
149.1516
20
-18.6662
0
VERTEX
8
CUT
10
149.1367
20
-18.7299
0
VERTEX
8
CUT
10
149.1261
20
-18.7945
0
VERTEX
8
CUT
10
149.1196
20
-18.8596
0
VERTEX
8
CUT
10
149.1175
20
-18.9250
0
VERTEX
8
CUT
10
149.1175
20
-19.1750
0
VERTEX
8
CUT
10
149.1196
20
-19.2404
0
VERTEX
8
CUT
10
149.1261
20
-19.3055
0
VERTEX
8
CUT
10
149.1367
20
-19.3701
0
VERTEX
8
CUT
10
149.1516
20
-19.4338
0
VERTEX
8
CUT
10
149.1706
20
-19.4964
0
VERTEX
8
CUT
10
149.1936
20
-19.5577
0
VERTEX
8
CUT
10
149.2206
20
-19.6173
0
VERTEX
8
CUT
10
149.2515
20
-19.6750
0
VERTEX
8
CUT
10
149.2860
20
-19.7306
0
VERTEX
8
CUT
10
149.3241
20
-19.7838
0
VERTEX
8
CUT
10
149.3657
20
-19.8343
0
VERTEX
8
CUT
10
149.4104
20
-19.8821
0
VERTEX
8
CUT
10
149.4582
20
-19.9268
0
VERTEX
8
CUT
10
149.5087
20
-19.9684
0
VERTEX
8
CUT
10
149.5619
20
-20.0065
0
VERTEX
8
CUT
10
149.6175
20
-20.0410
0
VERTEX
8
CUT
10
149.6752
20
-20.0719
0
VERTEX
8
CUT
10
149.7348
20
-20.0989
0
VERTEX
8
CUT
10
149.7961
20
-20.1219
0
VERTEX
8
CUT
10
149.8587
20
-20.1409
0
VERTEX
8
CUT
10
149.9224
20
-20.1558
0
VERTEX
8
CUT
10
149.9870
20
-20.1664
0
VERTEX
8
CUT
10
150.0521
20
-20.1729
0
VERTEX
8
CUT
10
150.1175
20
-20.1750
0
VERTEX
8
CUT
10
151.2586
20
-20.1750
0
VERTEX
8
CUT
10
151.2745
20
-20.1755
0
VERTEX
8
CUT
10
151.2750
20
-20.1914
0
VERTEX
8
CUT
10
151.2750
20
-36.9586
0
VERTEX
8
CUT
10
151.2745
20
-36.9745
0
VERTEX
8
CUT
10
151.2586
20
-36.9750
0
VERTEX
8
CUT
10
150.1175
20
-36.9750
0
VERTEX
8
CUT
10
150.0521
20
-36.9771
0
VERTEX
8
CUT
10
149.9870
20
-36.9836
0
VERTEX
8
CUT
10
149.9224
20
-36.9942
0
VERTEX
8
CUT
10
149.8587
20
-37.0091
0
VERTEX
8
CUT
10
149.7961
20
-37.0281
0
VERTEX
8
CUT
10
149.7348
20
-37.0511
0
VERTEX
8
CUT
10
149.6752
20
-37.0781
0
VERTEX
8
CUT
10
149.6175
20
-37.1090
0
VERTEX
8
CUT
10
149.5619
20
-37.1435
0
VERTEX
8
CUT
10
149.5087
20
-37.1816
0
VERTEX
8
CUT
10
149.4582
20
-37.2232
0
VERTEX
8
CUT
10
149.4104
20
-37.2679
0
VERTEX
8
CUT
10
149.3657
20
-37.3157
0
VERTEX
8
CUT
10
149.3241
20
-37.3662
0
VERTEX
8
CUT
10
149.2860
20
-37.4194
0
VERTEX
8
CUT
10
149.2515
20
-37.4750
0
VERTEX
8
CUT
10
149.2206
20
-37.5327
0
VERTEX
8
CUT
10
149.1936
20
-37.5923
0
VERTEX
8
CUT
10
149.1706
20
-37.6536
0
VERTEX
8
CUT
10
149.1516
20
-37.7162
0
VERTEX
8
CUT
10
149.1367
20
-37.7799
0
VERTEX
8
CUT
10
149.1261
20
-37.8445
0
VERTEX
8
CUT
10
149.1196
20
-37.9096
0
VERTEX
8
CUT
10
149.1175
20
-37.9750
0
VERTEX
8
CUT
10
149.1175
20
-40.4950
0
VERTEX
8
CUT
10
149.1196
20
-40.5604
0
VERTEX
8
CUT
10
149.1261
20
-40.6255
0
VERTEX
8
CUT
10
149.1367
20
-40.6901
0
VERTEX
8
CUT
10
149.1516
20
-40.7538
0
VERTEX
8
CUT
10
149.1706
20
-40.8164
0
VERTEX
8
CUT
10
149.1936
20
-40.8777
0
VERTEX
8
CUT
10
149.2206
20
-40.9373
0
VERTEX
8
CUT
10
149.2515
20
-40.9950
0
VERTEX
8
CUT
10
149.2860
20
-41.0506
0
VERTEX
8
CUT
10
149.3241
20
-41.1038
0
VERTEX
8
CUT
10
149.3657
20
-41.1543
0
VERTEX
8
CUT
10
149.4104
20
-41.2021
0
VERTEX
8
CUT
10
149.4582
20
-41.2468
0
VERTEX
8
CUT
10
149.5087
20
-41.2884
0
VERTEX
8
CUT
10
149.5619
20
-41.3265
0
VERTEX
8
CUT
10
149.6175
20
-41.3610
0
VERTEX
8
CUT
10
149.6752
20
-41.3919
0
VERTEX
8
CUT
10
149.7348
20
-41.4189
0
VERTEX
8
CUT
10
149.7961
20
-41.4419
0
VERTEX
8
CUT
10
149.8587
20
-41.4609
0
VERTEX
8
CUT
10
149.9224
20
-41.4758
0
VERTEX
8
CUT
10
149.9870
20
-41.4864
0
VERTEX
8
CUT
10
150.0521
20
-41.4929
0
VERTEX
8
CUT
10
150.1175
20
-41.4950
0
VERTEX
8
CUT
10
171.3625
20
-41.4950
0
SEQEND
0
POLYLINE
8
CUT
66
1
70
1
0
VERTEX
8
CUT
10
169.2906
20
-3.7026
0
VERTEX
8
CUT
10
169.2189
20
-3.6956
0
VERTEX
8
CUT
10
169.1479
20
-3.6839
0
VERTEX
8
CUT
10
169.0778
20
-3.6675
0
VERTEX
8
CUT
10
169.0089
20
-3.6466
0
VERTEX
8
CUT
10
168.9415
20
-3.6213
0
VERTEX
8
CUT
10
168.8760
20
-3.5916
0
VERTEX
8
CUT
10
168.8125
20
-3.5576
0
VERTEX
8
CUT
10
168.7514
20
-3.5196
0
VERTEX
8
CUT
10
168.6929
20
-3.4777
0
VERTEX
8
CUT
10
168.6372
20
-3.4320
0
VERTEX
8
CUT
10
168.5847
20
-3.3828
0
VERTEX
8
CUT
10
168.5355
20
-3.3303
0
VERTEX
8
CUT
10
168.4898
20
-3.2746
0
VERTEX
8
CUT
10
168.4479
20
-3.2161
0
VERTEX
8
CUT
10
168.4099
20
-3.1550
0
VERTEX
8
CUT
10
168.3759
20
-3.0915
0
VERTEX
8
CUT
10
168.3462
20
-3.0260
0
VERTEX
8
CUT
10
168.3209
20
-2.9586
0
VERTEX
8
CUT
10
168.3000
20
-2.8897
0
VERTEX
8
CUT
10
168.2836
20
-2.8196
0
VERTEX
8
CUT
10
168.2719
20
-2.7486
0
VERTEX
8
CUT
10
168.2649
20
-2.6769
0
VERTEX
8
CUT
10
168.2625
20
-2.6050
0
VERTEX
8
CUT
10
168.2649
20
-2.5331
0
VERTEX
8
CUT
10
168.2719
20
-2.4614
0
VERTEX
8
CUT
10
168.2836
20
-2.3904
0
VERTEX
8
CUT
10
168.3000
20
-2.3203
0
VERTEX
8
CUT
10
168.3209
20
-2.2514
0
VERTEX
8
CUT
10
168.3462
20
-2.1840
0
VERTEX
8
CUT
10
168.3759
20
-2.1185
0
VERTEX
8
CUT
10
168.4099
20
-2.0550
0
VERTEX
8
CUT
10
168.4479
20
-1.9939
0
VERTEX
8
CUT
10
168.4898
20
-1.9354
0
VERTEX
8
CUT
10
168.5355
20
-1.8797
0
VERTEX
8
CUT
10
168.5847
20
-1.8272
0
VERTEX
8
CUT
10
168.6372
20
-1.7780
0
VERTEX
8
CUT
10
168.6929
20
-1.7323
0
VERTEX
8
CUT
10
168.7514
20
-1.6904
0
VERTEX
8
CUT
10
168.8125
20
-1.6524
0
VERTEX
8
CUT
10
168.8760
20
-1.6184
0
VERTEX
8
CUT
10
168.9415
20
-1.5887
0
VERTEX
8
CUT
10
169.0089
20
-1.5634
0
VERTEX
8
CUT
10
169.0778
20
-1.5425
0
VERTEX
8
CUT
10
169.1479
20
-1.5261
0
VERTEX
8
CUT
10
169.2189
20
-1.5144
0
VERTEX
8
CUT
10
169.2906
20
-1.5074
0
VERTEX
8
CUT
10
169.3625
20
-1.5050
0
VERTEX
8
CUT
10
169.4344
20
-1.5074
0
VERTEX
8
CUT
10
169.5061
20
-1.5144
0
VERTEX
8
CUT
10
169.5771
20
-1.5261
0
VERTEX
8
CUT
10
169.6472
20
-1.5425
0
VERTEX
8
CUT
10
169.7161
20
-1.5634
0
VERTEX
8
CUT
10
169.7835
20
-1.5887
0
VERTEX
8
CUT
10
169.8490
20
-1.6184
0
VERTEX
8
CUT
10
169.9125
20
-1.6524
0
VERTEX
8
CUT
10
169.9736
20
-1.6904
0
VERTEX
8
CUT
10
170.0321
20
-1.7323
0
VERTEX
8
CUT
10
170.0878
20
-1.7780
0
VERTEX
8
CUT
10
170.1403
20
-1.8272
0
VERTEX
8
CUT
10
170.1895
20
-1.8797
0
VERTEX
8
CUT
10
170.2352
20
-1.9354
0
VERTEX
8
CUT
10
170.2771
20
-1.9939
0
VERTEX
8
CUT
10
170.3151
20
-2.0550
0
VERTEX
8
CUT
10
170.3491
20
-2.1185
0
VERTEX
8
CUT
10
170.3788
20
-2.1840
0
VERTEX
8
CUT
10
170.4041
20
-2.2514
0
VERTEX
8
CUT
10
170.4250
20
-2.3203
0
VERTEX
8
CUT
10
170.4414
20
-2.3904
0
VERTEX
8
CUT
10
170.4531
20
-2.4614
0
VERTEX
8
CUT
10
170.4601
20
-2.5331
0
VERTEX
8
CUT
10
170.4625
20
-2.6050
0
VERTEX
8
CUT
10
170.4601
20
-2.6769
0
VERTEX
8
CUT
10
170.4531
20
-2.7486
0
VERTEX
8
CUT
10
170.4414
20
-2.8196
0
VERTEX
8
CUT
10
170.4250
20
-2.8897
0
VERTEX
8
CUT
10
170.4041
20
-2.9586
0
VERTEX
8
CUT
10
170.3788
20
-3.0260
0
VERTEX
8
CUT
10
170.3491
20
-3.0915
0
VERTEX
8
CUT
10
170.3151
20
-3.1550
0
VERTEX
8
CUT
10
170.2771
20
-3.2161
0
VERTEX
8
CUT
10
170.2352
20
-3.2746
0
VERTEX
8
CUT
10
170.1895
20
-3.3303
0
VERTEX
8
CUT
10
170.1403
20
-3.3828
0
VERTEX
8
CUT
10
170.0878
20
-3.4320
0
VERTEX
8
CUT
10
170.0321
20
-3.4777
0
VERTEX
8
CUT
10
169.9736
20
-3.5196
0
VERTEX
8
CUT
10
169.9125
20
-3.5576
0
VERTEX
8
CUT
10
169.8490
20
-3.5916
0
VERTEX
8
CUT
10
169.7835
20
-3.6213
0
VERTEX
8
CUT
10
169.7161
20
-3.6466
0
VERTEX
8
CUT
10
169.6472
20
-3.6675
0
VERTEX
8
CUT
10
169.5771
20
-3.6839
0
VERTEX
8
CUT
10
169.5061
20
-3.6956
0
VERTEX
8
CUT
10
169.4344
20
-3.7026
0
VERTEX
8
CUT
10
169.3625
20
-3.7050
0
SEQEND
0
POLYLINE
8
CUT
66
1
70
1
0
VERTEX
8
CUT
10
169.2906
20
-36.2026
0
VERTEX
8
CUT
10
169.2189
20
-36.1956
0
VERTEX
8
CUT
10
169.1479
20
-36.1839
0
VERTEX
8
CUT
10
169.0778
20
-36.1675
0
VERTEX
8
CUT
10
169.0089
20
-36.1466
0
VERTEX
8
CUT
10
168.9415
20
-36.1213
0
VERTEX
8
CUT
10
168.8760
20
-36.0916
0
VERTEX
8
CUT
10
168.8125
20
-36.0576
0
VERTEX
8
CUT
10
168.7514
20
-36.0196
0
VERTEX
8
CUT
10
168.6929
20
-35.9777
0
VERTEX
8
CUT
10
168.6372
20
-35.9320
0
VERTEX
8
CUT
10
168.5847
20
-35.8828
0
VERTEX
8
CUT
10
168.5355
20
-35.8303
0
VERTEX
8
CUT
10
168.4898
20
-35.7746
0
VERTEX
8
CUT
10
168.4479
20
-35.7161
0
VERTEX
8
CUT
10
168.4099
20
-35.6550
0
VERTEX
8
CUT
10
168.3759
20
-35.5915
0
VERTEX
8
CUT
10
168.3462
20
-35.5260
0
VERTEX
8
CUT
10
168.3209
20
-35.4586
0
VERTEX
8
CUT
10
168.3000
20
-35.3897
0
VERTEX
8
CUT
10
168.2836
20
-35.3196
0
VERTEX
8
CUT
10
168.2719
20
-35.2486
0
VERTEX
8
CUT
10
168.2649
20
-35.1769
0
VERTEX
8
CUT
10
168.2625
20
-35.1050
0
VERTEX
8
CUT
10
168.2649
20
-35.0331
0
VERTEX
8
CUT
10
168.2719
20
-34.9614
0
VERTEX
8
CUT
10
168.2836
20
-34.8904
0
VERTEX
8
CUT
10
168.3000
20
-34.8203
0
VERTEX
8
CUT
10
168.3209
20
-34.7514
0
VERTEX
8
CUT
10
168.3462
20
-34.6840
0
VERTEX
8
CUT
10
168.3759
20
-34.6185
0
VERTEX
8
CUT
10
168.4099
20
-34.5550
0
VERTEX
8
CUT
10
168.4479
20
-34.4939
0
VERTEX
8
CUT
10
168.4898
20
-34.4354
0
VERTEX
8
CUT
10
168.5355
20
-34.3797
0
VERTEX
8
CUT
10
168.5847
20
-34.3272
0
VERTEX
8
CUT
10
168.6372
20
-34.2780
0
VERTEX
8
CUT
10
168.6929
20
-34.2323
0
VERTEX
8
CUT
10
168.7514
20
-34.1904
0
VERTEX
8
CUT
10
168.8125
20
-34.1524
0
VERTEX
8
CUT
10
168.8760
20
-34.1184
0
VERTEX
8
CUT
10
168.9415
20
-34.0887
0
VERTEX
8
CUT
10
169.0089
20
-34.0634
0
VERTEX
8
CUT
10
169.0778
20
-34.0425
0
VERTEX
8
CUT
10
169.1479
20
-34.0261
0
VERTEX
8
CUT
10
169.2189
20
-34.0144
0
VERTEX
8
CUT
10
169.2906
20
-34.0074
0
VERTEX
8
CUT
10
169.3625
20
-34.0050
0
VERTEX
8
CUT
10
169.4344
20
-34.0074
0
VERTEX
8
CUT
10
169.5061
20
-34.0144
0
VERTEX
8
CUT
10
169.5771
20
-34.0261
0
VERTEX
8
CUT
10
169.6472
20
-34.0425
0
VERTEX
8
CUT
10
169.7161
20
-34.0634
0
VERTEX
8
CUT
10
169.7835
20
-34.0887
0
VERTEX
8
CUT
10
169.8490
20
-34.1184
0
VERTEX
8
CUT
10
169.9125
20
-34.1524
0
VERTEX
8
CUT
10
169.9736
20
-34.1904
0
VERTEX
8
CUT
10
170.0321
20
-34.2323
0
VERTEX
8
CUT
10
170.0878
20
-34.2780
0
VERTEX
8
CUT
10
170.1403
20
-34.3272
0
VERTEX
8
CUT
10
170.1895
20
-34.3797
0
VERTEX
8
CUT
10
170.2352
20
-34.4354
0
VERTEX
8
CUT
10
170.2771
20
-34.4939
0
VERTEX
8
CUT
10
170.3151
20
-34.5550
0
VERTEX
8
CUT
10
170.3491
20
-34.6185
0
VERTEX
8
CUT
10
170.3788
20
-34.6840
0
VERTEX
8
CUT
10
170.4041
20
-34.7514
0
VERTEX
8
CUT
10
170.4250
20
-34.8203
0
VERTEX
8
CUT
10
170.4414
20
-34.8904
0
VERTEX
8
CUT
10
170.4531
20
-34.9614
0
VERTEX
8
CUT
10
170.4601
20
-35.0331
0
VERTEX
8
CUT
10
170.4625
20
-35.1050
0
VERTEX
8
CUT
10
170.4601
20
-35.1769
0
VERTEX
8
CUT
10
170.4531
20
-35.2486
0
VERTEX
8
CUT
10
170.4414
20
-35.3196
0
VERTEX
8
CUT
10
170.4250
20
-35.3897
0
VERTEX
8
CUT
10
170.4041
20
-35.4586
0
VERTEX
8
CUT
10
170.3788
20
-35.5260
0
VERTEX
8
CUT
10
170.3491
20
-35.5915
0
VERTEX
8
CUT
10
170.3151
20
-35.6550
0
VERTEX
8
CUT
10
170.2771
20
-35.7161
0
VERTEX
8
CUT
10
170.2352
20
-35.7746
0
VERTEX
8
CUT
10
170.1895
20
-35.8303
0
VERTEX
8
CUT
10
170.1403
20
-35.8828
0
VERTEX
8
CUT
10
170.0878
20
-35.9320
0
VERTEX
8
CUT
10
170.0321
20
-35.9777
0
VERTEX
8
CUT
10
169.9736
20
-36.0196
0
VERTEX
8
CUT
10
169.9125
20
-36.0576
0
VERTEX
8
CUT
10
169.8490
20
-36.0916
0
VERTEX
8
CUT
10
169.7835
20
-36.1213
0
VERTEX
8
CUT
10
169.7161
20
-36.1466
0
VERTEX
8
CUT
10
169.6472
20
-36.1675
0
VERTEX
8
CUT
10
169.5771
20
-36.1839
0
VERTEX
8
CUT
10
169.5061
20
-36.1956
0
VERTEX
8
CUT
10
169.4344
20
-36.2026
0
VERTEX
8
CUT
10
169.3625
20
-36.2050
0
SEQEND
0
ENDSEC
0
EOF
