0
SECTION
2
HEADER
9
$INSUNITS
70
4
0
ENDSEC
0
SECTION
2
ENTITIES
0
POLYLINE
8
CUT
66
1
70
1
0
VERTEX
8
CUT
10
156.9800
20
-125.7732
0
VERTEX
8
CUT
10
157.7941
20
-125.6931
0
VERTEX
8
CUT
10
158.6011
20
-125.5598
0
VERTEX
8
CUT
10
159.3977
20
-125.3741
0
VERTEX
8
CUT
10
160.1805
20
-125.1366
0
VERTEX
8
CUT
10
160.9460
20
-124.8485
0
VERTEX
8
CUT
10
161.6911
20
-124.5109
0
VERTEX
8
CUT
10
162.4125
20
-124.1253
0
VERTEX
8
CUT
10
163.1071
20
-123.6934
0
VERTEX
8
CUT
10
163.7720
20
-123.2169
0
VERTEX
8
CUT
10
164.4043
20
-122.6980
0
VERTEX
8
CUT
10
165.0013
20
-122.1388
0
VERTEX
8
CUT
10
165.5605
20
-121.5418
0
VERTEX
8
CUT
10
166.0794
20
-120.9095
0
VERTEX
8
CUT
10
166.5559
20
-120.2446
0
VERTEX
8
CUT
10
166.9878
20
-119.5500
0
VERTEX
8
CUT
10
167.3734
20
-118.8286
0
VERTEX
8
CUT
10
167.7110
20
-118.0835
0
VERTEX
8
CUT
10
167.9991
20
-117.3180
0
VERTEX
8
CUT
10
168.2366
20
-116.5352
0
VERTEX
8
CUT
10
168.4223
20
-115.7386
0
VERTEX
8
CUT
10
168.5556
20
-114.9316
0
VERTEX
8
CUT
10
168.6357
20
-114.1175
0
VERTEX
8
CUT
10
168.6625
20
-113.3000
0
VERTEX
8
CUT
10
168.6625
20
-50.0450
0
VERTEX
8
CUT
10
160.6625
20
-50.0450
0
VERTEX
8
CUT
10
160.6625
20
-113.3000
0
VERTEX
8
CUT
10
160.6529
20
-113.5943
0
VERTEX
8
CUT
10
160.6240
20
-113.8874
0
VERTEX
8
CUT
10
160.5760
20
-114.1779
0
VERTEX
8
CUT
10
160.5092
20
-114.4647
0
VERTEX
8
CUT
10
160.4237
20
-114.7465
0
VERTEX
8
CUT
10
160.3200
20
-115.0221
0
VERTEX
8
CUT
10
160.1984
20
-115.2903
0
VERTEX
8
CUT
10
160.0596
20
-115.5500
0
VERTEX
8
CUT
10
159.9041
20
-115.8001
0
VERTEX
8
CUT
10
159.7326
20
-116.0394
0
VERTEX
8
CUT
10
159.5458
20
-116.2671
0
VERTEX
8
CUT
10
159.3445
20
-116.4820
0
VERTEX
8
CUT
10
159.1296
20
-116.6833
0
VERTEX
8
CUT
10
158.9019
20
-116.8701
0
VERTEX
8
CUT
10
158.6626
20
-117.0416
0
VERTEX
8
CUT
10
158.4125
20
-117.1971
0
VERTEX
8
CUT
10
158.1528
20
-117.3359
0
VERTEX
8
CUT
10
157.8846
20
-117.4575
0
VERTEX
8
CUT
10
157.6090
20
-117.5612
0
VERTEX
8
CUT
10
157.3272
20
-117.6467
0
VERTEX
8
CUT
10
157.0404
20
-117.7135
0
VERTEX
8
CUT
10
156.7499
20
-117.7615
0
VERTEX
8
CUT
10
156.4568
20
-117.7904
0
VERTEX
8
CUT
10
156.1625
20
-117.8000
0
VERTEX
8
CUT
10
1.0000
20
-117.8000
0
VERTEX
8
CUT
10
0.7057
20
-117.7904
0
VERTEX
8
CUT
10
0.4126
20
-117.7615
0
VERTEX
8
CUT
10
0.1221
20
-117.7135
0
VERTEX
8
CUT
10
-0.1647
20
-117.6467
0
VERTEX
8
CUT
10
-0.4465
20
-117.5612
0
VERTEX
8
CUT
10
-0.7221
20
-117.4575
0
VERTEX
8
CUT
10
-0.9903
20
-117.3359
0
VERTEX
8
CUT
10
-1.2500
20
-117.1971
0
VERTEX
8
CUT
10
-1.5001
20
-117.0416
0
VERTEX
8
CUT
10
-1.7394
20
-116.8701
0
VERTEX
8
CUT
10
-1.9671
20
-116.6833
0
VERTEX
8
CUT
10
-2.1820
20
-116.4820
0
VERTEX
8
CUT
10
-2.3833
20
-116.2671
0
VERTEX
8
CUT
10
-2.5701
20
-116.0394
0
VERTEX
8
CUT
10
-2.7416
20
-115.8001
0
VERTEX
8
CUT
10
-2.8971
20
-115.5500
0
VERTEX
8
CUT
10
-3.0359
20
-115.2903
0
VERTEX
8
CUT
10
-3.1575
20
-115.0221
0
VERTEX
8
CUT
10
-3.2612
20
-114.7465
0
VERTEX
8
CUT
10
-3.3467
20
-114.4647
0
VERTEX
8
CUT
10
-3.4135
20
-114.1779
0
VERTEX
8
CUT
10
-3.4615
20
-113.8874
0
VERTEX
8
CUT
10
-3.4904
20
-113.5943
0
VERTEX
8
CUT
10
-3.5000
20
-113.3000
0
VERTEX
8
CUT
10
-3.5000
20
-1.0000
0
VERTEX
8
CUT
10
-3.4904
20
-0.7057
0
VERTEX
8
CUT
10
-3.4615
20
-0.4126
0
VERTEX
8
CUT
10
-3.4135
20
-0.1221
0
VERTEX
8
CUT
10
-3.3467
20
0.1647
0
VERTEX
8
CUT
10
-3.2612
20
0.4465
0
VERTEX
8
CUT
10
-3.1575
20
0.7221
0
VERTEX
8
CUT
10
-3.0359
20
0.9903
0
VERTEX
8
CUT
10
-2.8971
20
1.2500
0
VERTEX
8
CUT
10
-2.7416
20
1.5001
0
VERTEX
8
CUT
10
-2.5701
20
1.7394
0
VERTEX
8
CUT
10
-2.3833
20
1.9671
0
VERTEX
8
CUT
10
-2.1820
20
2.1820
0
VERTEX
8
CUT
10
-1.9671
20
2.3833
0
VERTEX
8
CUT
10
-1.7394
20
2.5701
0
VERTEX
8
CUT
10
-1.5001
20
2.7416
0
VERTEX
8
CUT
10
-1.2500
20
2.8971
0
VERTEX
8
CUT
10
-0.9903
20
3.0359
0
VERTEX
8
CUT
10
-0.7221
20
3.1575
0
VERTEX
8
CUT
10
-0.4465
20
3.2612
0
VERTEX
8
CUT
10
-0.1647
20
3.3467
0
VERTEX
8
CUT
10
0.1221
20
3.4135
0
VERTEX
8
CUT
10
0.4126
20
3.4615
0
VERTEX
8
CUT
10
0.7057
20
3.4904
0
VERTEX
8
CUT
10
1.0000
20
3.5000
0
VERTEX
8
CUT
10
156.1625
20
3.5000
0
VERTEX
8
CUT
10
156.4568
20
3.4904
0
VERTEX
8
CUT
10
156.7499
20
3.4615
0
VERTEX
8
CUT
10
157.0404
20
3.4135
0
VERTEX
8
CUT
10
157.3272
20
3.3467
0
VERTEX
8
CUT
10
157.6090
20
3.2612
0
VERTEX
8
CUT
10
157.8846
20
3.1575
0
VERTEX
8
CUT
10
158.1528
20
3.0359
0
VERTEX
8
CUT
10
158.4125
20
2.8971
0
VERTEX
8
CUT
10
158.6626
20
2.7416
0
VERTEX
8
CUT
10
158.9019
20
2.5701
0
VERTEX
8
CUT
10
159.1296
20
2.3833
0
VERTEX
8
CUT
10
159.3445
20
2.1820
0
VERTEX
8
CUT
10
159.5458
20
1.9671
0
VERTEX
8
CUT
10
159.7326
20
1.7394
0
VERTEX
8
CUT
10
159.9041
20
1.5001
0
VERTEX
8
CUT
10
160.0596
20
1.2500
0
VERTEX
8
CUT
10
160.1984
20
0.9903
0
VERTEX
8
CUT
10
160.3200
20
0.7221
0
VERTEX
8
CUT
10
160.4237
20
0.4465
0
VERTEX
8
CUT
10
160.5092
20
0.1647
0
VERTEX
8
CUT
10
160.5760
20
-0.1221
0
VERTEX
8
CUT
10
160.6240
20
-0.4126
0
VERTEX
8
CUT
10
160.6529
20
-0.7057
0
VERTEX
8
CUT
10
160.6625
20
-1.0000
0
VERTEX
8
CUT
10
160.6625
20
-12.7500
0
VERTEX
8
CUT
10
168.6625
20
-12.7500
0
VERTEX
8
CUT
10
168.6625
20
-1.0000
0
VERTEX
8
CUT
10
168.6357
20
-0.1825
0
VERTEX
8
CUT
10
168.5556
20
0.6316
0
VERTEX
8
CUT
10
168.4223
20
1.4386
0
VERTEX
8
CUT
10
168.2366
20
2.2352
0
VERTEX
8
CUT
10
167.9991
20
3.0180
0
VERTEX
8
CUT
10
167.7110
20
3.7835
0
VERTEX
8
CUT
10
167.3734
20
4.5286
0
VERTEX
8
CUT
10
166.9878
20
5.2500
0
VERTEX
8
CUT
10
166.5559
20
5.9446
0
VERTEX
8
CUT
10
166.0794
20
6.6095
0
VERTEX
8
CUT
10
165.5605
20
7.2418
0
VERTEX
8
CUT
10
165.0013
20
7.8388
0
VERTEX
8
CUT
10
164.4043
20
8.3980
0
VERTEX
8
CUT
10
163.7720
20
8.9169
0
VERTEX
8
CUT
10
163.1071
20
9.3934
0
VERTEX
8
CUT
10
162.4125
20
9.8253
0
VERTEX
8
CUT
10
161.6911
20
10.2109
0
VERTEX
8
CUT
10
160.9460
20
10.5485
0
VERTEX
8
CUT
10
160.1805
20
10.8366
0
VERTEX
8
CUT
10
159.3977
20
11.0741
0
VERTEX
8
CUT
10
158.6011
20
11.2598
0
VERTEX
8
CUT
10
157.7941
20
11.3931
0
VERTEX
8
CUT
10
156.9800
20
11.4732
0
VERTEX
8
CUT
10
156.1625
20
11.5000
0
VERTEX
8
CUT
10
1.0000
20
11.5000
0
VERTEX
8
CUT
10
0.1825
20
11.4732
0
VERTEX
8
CUT
10
-0.6316
20
11.3931
0
VERTEX
8
CUT
10
-1.4386
20
11.2598
0
VERTEX
8
CUT
10
-2.2352
20
11.0741
0
VERTEX
8
CUT
10
-3.0180
20
10.8366
0
VERTEX
8
CUT
10
-3.7835
20
10.5485
0
VERTEX
8
CUT
10
-4.5286
20
10.2109
0
VERTEX
8
CUT
10
-5.2500
20
9.8253
0
VERTEX
8
CUT
10
-5.9446
20
9.3934
0
VERTEX
8
CUT
10
-6.6095
20
8.9169
0
VERTEX
8
CUT
10
-7.2418
20
8.3980
0
VERTEX
8
CUT
10
-7.8388
20
7.8388
0
VERTEX
8
CUT
10
-8.3980
20
7.2418
0
VERTEX
8
CUT
10
-8.9169
20
6.6095
0
VERTEX
8
CUT
10
-9.3934
20
5.9446
0
VERTEX
8
CUT
10
-9.8253
20
5.2500
0
VERTEX
8
CUT
10
-10.2109
20
4.5286
0
VERTEX
8
CUT
10
-10.5485
20
3.7835
0
VERTEX
8
CUT
10
-10.8366
20
3.0180
0
VERTEX
8
CUT
10
-11.0741
20
2.2352
0
VERTEX
8
CUT
10
-11.2598
20
1.4386
0
VERTEX
8
CUT
10
-11.3931
20
0.6316
0
VERTEX
8
CUT
10
-11.4732
20
-0.1825
0
VERTEX
8
CUT
10
-11.5000
20
-1.0000
0
VERTEX
8
CUT
10
-11.5000
20
-113.3000
0
VERTEX
8
CUT
10
-11.4732
20
-114.1175
0
VERTEX
8
CUT
10
-11.3931
20
-114.9316
0
VERTEX
8
CUT
10
-11.2598
20
-115.7386
0
VERTEX
8
CUT
10
-11.0741
20
-116.5352
0
VERTEX
8
CUT
10
-10.8366
20
-117.3180
0
VERTEX
8
CUT
10
-10.5485
20
-118.0835
0
VERTEX
8
CUT
10
-10.2109
20
-118.8286
0
VERTEX
8
CUT
10
-9.8253
20
-119.5500
0
VERTEX
8
CUT
10
-9.3934
20
-120.2446
0
VERTEX
8
CUT
10
-8.9169
20
-120.9095
0
VERTEX
8
CUT
10
-8.3980
20
-121.5418
0
VERTEX
8
CUT
10
-7.8388
20
-122.1388
0
VERTEX
8
CUT
10
-7.2418
20
-122.6980
0
VERTEX
8
CUT
10
-6.6095
20
-123.2169
0
VERTEX
8
CUT
10
-5.9446
20
-123.6934
0
VERTEX
8
CUT
10
-5.2500
20
-124.1253
0
VERTEX
8
CUT
10
-4.5286
20
-124.5109
0
VERTEX
8
CUT
10
-3.7835
20
-124.8485
0
VERTEX
8
CUT
10
-3.0180
20
-125.1366
0
VERTEX
8
CUT
10
-2.2352
20
-125.3741
0
VERTEX
8
CUT
10
-1.4386
20
-125.5598
0
VERTEX
8
CUT
10
-0.6316
20
-125.6931
0
VERTEX
8
CUT
10
0.1825
20
-125.7732
0
VERTEX
8
CUT
10
1.0000
20
-125.8000
0
VERTEX
8
CUT
10
156.1625
20
-125.8000
0
SEQEND
0
POLYLINE
8
CUT
66
1
70
1
0
VERTEX
8
CUT
10
49.8156
20
6.4024
0
VERTEX
8
CUT
10
49.7439
20
6.4094
0
VERTEX
8
CUT
10
49.6729
20
6.4211
0
VERTEX
8
CUT
10
49.6028
20
6.4375
0
VERTEX
8
CUT
10
49.5339
20
6.4584
0
VERTEX
8
CUT
10
49.4665
20
6.4837
0
VERTEX
8
CUT
10
49.4010
20
6.5134
0
VERTEX
8
CUT
10
49.3375
20
6.5474
0
VERTEX
8
CUT
10
49.2764
20
6.5854
0
VERTEX
8
CUT
10
49.2179
20
6.6273
0
VERTEX
8
CUT
10
49.1622
20
6.6730
0
VERTEX
8
CUT
10
49.1097
20
6.7222
0
VERTEX
8
CUT
10
49.0605
20
6.7747
0
VERTEX
8
CUT
10
49.0148
20
6.8304
0
VERTEX
8
CUT
10
48.9729
20
6.8889
0
VERTEX
8
CUT
10
48.9349
20
6.9500
0
VERTEX
8
CUT
10
48.9009
20
7.0135
0
VERTEX
8
CUT
10
48.8712
20
7.0790
0
VERTEX
8
CUT
10
48.8459
20
7.1464
0
VERTEX
8
CUT
10
48.8250
20
7.2153
0
VERTEX
8
CUT
10
48.8086
20
7.2854
0
VERTEX
8
CUT
10
48.7969
20
7.3564
0
VERTEX
8
CUT
10
48.7899
20
7.4281
0
VERTEX
8
CUT
10
48.7875
20
7.5000
0
VERTEX
8
CUT
10
48.7899
20
7.5719
0
VERTEX
8
CUT
10
48.7969
20
7.6436
0
VERTEX
8
CUT
10
48.8086
20
7.7146
0
VERTEX
8
CUT
10
48.8250
20
7.7847
0
VERTEX
8
CUT
10
48.8459
20
7.8536
0
VERTEX
8
CUT
10
48.8712
20
7.9210
0
VERTEX
8
CUT
10
48.9009
20
7.9865
0
VERTEX
8
CUT
10
48.9349
20
8.0500
0
VERTEX
8
CUT
10
48.9729
20
8.1111
0
VERTEX
8
CUT
10
49.0148
20
8.1696
0
VERTEX
8
CUT
10
49.0605
20
8.2253
0
VERTEX
8
CUT
10
49.1097
20
8.2778
0
VERTEX
8
CUT
10
49.1622
20
8.3270
0
VERTEX
8
CUT
10
49.2179
20
8.3727
0
VERTEX
8
CUT
10
49.2764
20
8.4146
0
VERTEX
8
CUT
10
49.3375
20
8.4526
0
VERTEX
8
CUT
10
49.4010
20
8.4866
0
VERTEX
8
CUT
10
49.4665
20
8.5163
0
VERTEX
8
CUT
10
49.5339
20
8.5416
0
VERTEX
8
CUT
10
49.6028
20
8.5625
0
VERTEX
8
CUT
10
49.6729
20
8.5789
0
VERTEX
8
CUT
10
49.7439
20
8.5906
0
VERTEX
8
CUT
10
49.8156
20
8.5976
0
VERTEX
8
CUT
10
49.8875
20
8.6000
0
VERTEX
8
CUT
10
49.9594
20
8.5976
0
VERTEX
8
CUT
10
50.0311
20
8.5906
0
VERTEX
8
CUT
10
50.1021
20
8.5789
0
VERTEX
8
CUT
10
50.1722
20
8.5625
0
VERTEX
8
CUT
10
50.2411
20
8.5416
0
VERTEX
8
CUT
10
50.3085
20
8.5163
0
VERTEX
8
CUT
10
50.3740
20
8.4866
0
VERTEX
8
CUT
10
50.4375
20
8.4526
0
VERTEX
8
CUT
10
50.4986
20
8.4146
0
VERTEX
8
CUT
10
50.5571
20
8.3727
0
VERTEX
8
CUT
10
50.6128
20
8.3270
0
VERTEX
8
CUT
10
50.6653
20
8.2778
0
VERTEX
8
CUT
10
50.7145
20
8.2253
0
VERTEX
8
CUT
10
50.7602
20
8.1696
0
VERTEX
8
CUT
10
50.8021
20
8.1111
0
VERTEX
8
CUT
10
50.8401
20
8.0500
0
VERTEX
8
CUT
10
50.8741
20
7.9865
0
VERTEX
8
CUT
10
50.9038
20
7.9210
0
VERTEX
8
CUT
10
50.9291
20
7.8536
0
VERTEX
8
CUT
10
50.9500
20
7.7847
0
VERTEX
8
CUT
10
50.9664
20
7.7146
0
VERTEX
8
CUT
10
50.9781
20
7.6436
0
VERTEX
8
CUT
10
50.9851
20
7.5719
0
VERTEX
8
CUT
10
50.9875
20
7.5000
0
VERTEX
8
CUT
10
50.9851
20
7.4281
0
VERTEX
8
CUT
10
50.9781
20
7.3564
0
VERTEX
8
CUT
10
50.9664
20
7.2854
0
VERTEX
8
CUT
10
50.9500
20
7.2153
0
VERTEX
8
CUT
10
50.9291
20
7.1464
0
VERTEX
8
CUT
10
50.9038
20
7.0790
0
VERTEX
8
CUT
10
50.8741
20
7.0135
0
VERTEX
8
CUT
10
50.8401
20
6.9500
0
VERTEX
8
CUT
10
50.8021
20
6.8889
0
VERTEX
8
CUT
10
50.7602
20
6.8304
0
VERTEX
8
CUT
10
50.7145
20
6.7747
0
VERTEX
8
CUT
10
50.6653
20
6.7222
0
VERTEX
8
CUT
10
50.6128
20
6.6730
0
VERTEX
8
CUT
10
50.5571
20
6.6273
0
VERTEX
8
CUT
10
50.4986
20
6.5854
0
VERTEX
8
CUT
10
50.4375
20
6.5474
0
VERTEX
8
CUT
10
50.3740
20
6.5134
0
VERTEX
8
CUT
10
50.3085
20
6.4837
0
VERTEX
8
CUT
10
50.2411
20
6.4584
0
VERTEX
8
CUT
10
50.1722
20
6.4375
0
VERTEX
8
CUT
10
50.1021
20
6.4211
0
VERTEX
8
CUT
10
50.0311
20
6.4094
0
VERTEX
8
CUT
10
49.9594
20
6.4024
0
VERTEX
8
CUT
10
49.8875
20
6.4000
0
SEQEND
0
POLYLINE
8
CUT
66
1
70
1
0
VERTEX
8
CUT
10
107.2031
20
6.4024
0
VERTEX
8
CUT
10
107.1314
20
6.4094
0
VERTEX
8
CUT
10
107.0604
20
6.4211
0
VERTEX
8
CUT
10
106.9903
20
6.4375
0
VERTEX
8
CUT
10
106.9214
20
6.4584
0
VERTEX
8
CUT
10
106.8540
20
6.4837
0
VERTEX
8
CUT
10
106.7885
20
6.5134
0
VERTEX
8
CUT
10
106.7250
20
6.5474
0
VERTEX
8
CUT
10
106.6639
20
6.5854
0
VERTEX
8
CUT
10
106.6054
20
6.6273
0
VERTEX
8
CUT
10
106.5497
20
6.6730
0
VERTEX
8
CUT
10
106.4972
20
6.7222
0
VERTEX
8
CUT
10
106.4480
20
6.7747
0
VERTEX
8
CUT
10
106.4023
20
6.8304
0
VERTEX
8
CUT
10
106.3604
20
6.8889
0
VERTEX
8
CUT
10
106.3224
20
6.9500
0
VERTEX
8
CUT
10
106.2884
20
7.0135
0
VERTEX
8
CUT
10
106.2587
20
7.0790
0
VERTEX
8
CUT
10
106.2334
20
7.1464
0
VERTEX
8
CUT
10
106.2125
20
7.2153
0
VERTEX
8
CUT
10
106.1961
20
7.2854
0
VERTEX
8
CUT
10
106.1844
20
7.3564
0
VERTEX
8
CUT
10
106.1774
20
7.4281
0
VERTEX
8
CUT
10
106.1750
20
7.5000
0
VERTEX
8
CUT
10
106.1774
20
7.5719
0
VERTEX
8
CUT
10
106.1844
20
7.6436
0
VERTEX
8
CUT
10
106.1961
20
7.7146
0
VERTEX
8
CUT
10
106.2125
20
7.7847
0
VERTEX
8
CUT
10
106.2334
20
7.8536
0
VERTEX
8
CUT
10
106.2587
20
7.9210
0
VERTEX
8
CUT
10
106.2884
20
7.9865
0
VERTEX
8
CUT
10
106.3224
20
8.0500
0
VERTEX
8
CUT
10
106.3604
20
8.1111
0
VERTEX
8
CUT
10
106.4023
20
8.1696
0
VERTEX
8
CUT
10
106.4480
20
8.2253
0
VERTEX
8
CUT
10
106.4972
20
8.2778
0
VERTEX
8
CUT
10
106.5497
20
8.3270
0
VERTEX
8
CUT
10
106.6054
20
8.3727
0
VERTEX
8
CUT
10
106.6639
20
8.4146
0
VERTEX
8
CUT
10
106.7250
20
8.4526
0
VERTEX
8
CUT
10
106.7885
20
8.4866
0
VERTEX
8
CUT
10
106.8540
20
8.5163
0
VERTEX
8
CUT
10
106.9214
20
8.5416
0
VERTEX
8
CUT
10
106.9903
20
8.5625
0
VERTEX
8
CUT
10
107.0604
20
8.5789
0
VERTEX
8
CUT
10
107.1314
20
8.5906
0
VERTEX
8
CUT
10
107.2031
20
8.5976
0
VERTEX
8
CUT
10
107.2750
20
8.6000
0
VERTEX
8
CUT
10
107.3469
20
8.5976
0
VERTEX
8
CUT
10
107.4186
20
8.5906
0
VERTEX
8
CUT
10
107.4896
20
8.5789
0
VERTEX
8
CUT
10
107.5597
20
8.5625
0
VERTEX
8
CUT
10
107.6286
20
8.5416
0
VERTEX
8
CUT
10
107.6960
20
8.5163
0
VERTEX
8
CUT
10
107.7615
20
8.4866
0
VERTEX
8
CUT
10
107.8250
20
8.4526
0
VERTEX
8
CUT
10
107.8861
20
8.4146
0
VERTEX
8
CUT
10
107.9446
20
8.3727
0
VERTEX
8
CUT
10
108.0003
20
8.3270
0
VERTEX
8
CUT
10
108.0528
20
8.2778
0
VERTEX
8
CUT
10
108.1020
20
8.2253
0
VERTEX
8
CUT
10
108.1477
20
8.1696
0
VERTEX
8
CUT
10
108.1896
20
8.1111
0
VERTEX
8
CUT
10
108.2276
20
8.0500
0
VERTEX
8
CUT
10
108.2616
20
7.9865
0
VERTEX
8
CUT
10
108.2913
20
7.9210
0
VERTEX
8
CUT
10
108.3166
20
7.8536
0
VERTEX
8
CUT
10
108.3375
20
7.7847
0
VERTEX
8
CUT
10
108.3539
20
7.7146
0
VERTEX
8
CUT
10
108.3656
20
7.6436
0
VERTEX
8
CUT
10
108.3726
20
7.5719
0
VERTEX
8
CUT
10
108.3750
20
7.5000
0
VERTEX
8
CUT
10
108.3726
20
7.4281
0
VERTEX
8
CUT
10
108.3656
20
7.3564
0
VERTEX
8
CUT
10
108.3539
20
7.2854
0
VERTEX
8
CUT
10
108.3375
20
7.2153
0
VERTEX
8
CUT
10
108.3166
20
7.1464
0
VERTEX
8
CUT
10
108.2913
20
7.0790
0
VERTEX
8
CUT
10
108.2616
20
7.0135
0
VERTEX
8
CUT
10
108.2276
20
6.9500
0
VERTEX
8
CUT
10
108.1896
20
6.8889
0
VERTEX
8
CUT
10
108.1477
20
6.8304
0
VERTEX
8
CUT
10
108.1020
20
6.7747
0
VERTEX
8
CUT
10
108.0528
20
6.7222
0
VERTEX
8
CUT
10
108.0003
20
6.6730
0
VERTEX
8
CUT
10
107.9446
20
6.6273
0
VERTEX
8
CUT
10
107.8861
20
6.5854
0
VERTEX
8
CUT
10
107.8250
20
6.5474
0
VERTEX
8
CUT
10
107.7615
20
6.5134
0
VERTEX
8
CUT
10
107.6960
20
6.4837
0
VERTEX
8
CUT
10
107.6286
20
6.4584
0
VERTEX
8
CUT
10
107.5597
20
6.4375
0
VERTEX
8
CUT
10
107.4896
20
6.4211
0
VERTEX
8
CUT
10
107.4186
20
6.4094
0
VERTEX
8
CUT
10
107.3469
20
6.4024
0
VERTEX
8
CUT
10
107.2750
20
6.4000
0
SEQEND
0
POLYLINE
8
CUT
66
1
70
1
0
VERTEX
8
CUT
10
-5.0824
20
3.9128
0
VERTEX
8
CUT
10
-5.1540
20
3.9198
0
VERTEX
8
CUT
10
-5.2250
20
3.9315
0
VERTEX
8
CUT
10
-5.2951
20
3.9479
0
VERTEX
8
CUT
10
-5.3640
20
3.9688
0
VERTEX
8
CUT
10
-5.4314
20
3.9941
0
VERTEX
8
CUT
10
-5.4969
20
4.0238
0
VERTEX
8
CUT
10
-5.5604
20
4.0578
0
VERTEX
8
CUT
10
-5.6215
20
4.0958
0
VERTEX
8
CUT
10
-5.6800
20
4.1377
0
VERTEX
8
CUT
10
-5.7357
20
4.1834
0
VERTEX
8
CUT
10
-5.7882
20
4.2326
0
VERTEX
8
CUT
10
-5.8374
20
4.2851
0
VERTEX
8
CUT
10
-5.8831
20
4.3408
0
VERTEX
8
CUT
10
-5.9250
20
4.3993
0
VERTEX
8
CUT
10
-5.9630
20
4.4604
0
VERTEX
8
CUT
10
-5.9970
20
4.5239
0
VERTEX
8
CUT
10
-6.0267
20
4.5895
0
VERTEX
8
CUT
10
-6.0520
20
4.6568
0
VERTEX
8
CUT
10
-6.0729
20
4.7257
0
VERTEX
8
CUT
10
-6.0893
20
4.7958
0
VERTEX
8
CUT
10
-6.1010
20
4.8668
0
VERTEX
8
CUT
10
-6.1081
20
4.9385
0
VERTEX
8
CUT
10
-6.1104
20
5.0104
0
VERTEX
8
CUT
10
-6.1081
20
5.0824
0
VERTEX
8
CUT
10
-6.1010
20
5.1540
0
VERTEX
8
CUT
10
-6.0893
20
5.2250
0
VERTEX
8
CUT
10
-6.0729
20
5.2951
0
VERTEX
8
CUT
10
-6.0520
20
5.3640
0
VERTEX
8
CUT
10
-6.0267
20
5.4314
0
VERTEX
8
CUT
10
-5.9970
20
5.4969
0
VERTEX
8
CUT
10
-5.9630
20
5.5604
0
VERTEX
8
CUT
10
-5.9250
20
5.6215
0
VERTEX
8
CUT
10
-5.8831
20
5.6800
0
VERTEX
8
CUT
10
-5.8374
20
5.7357
0
VERTEX
8
CUT
10
-5.7882
20
5.7882
0
VERTEX
8
CUT
10
-5.7357
20
5.8374
0
VERTEX
8
CUT
10
-5.6800
20
5.8831
0
VERTEX
8
CUT
10
-5.6215
20
5.9250
0
VERTEX
8
CUT
10
-5.5604
20
5.9630
0
VERTEX
8
CUT
10
-5.4969
20
5.9970
0
VERTEX
8
CUT
10
-5.4314
20
6.0267
0
VERTEX
8
CUT
10
-5.3640
20
6.0520
0
VERTEX
8
CUT
10
-5.2951
20
6.0729
0
VERTEX
8
CUT
10
-5.2250
20
6.0893
0
VERTEX
8
CUT
10
-5.1540
20
6.1010
0
VERTEX
8
CUT
10
-5.0824
20
6.1081
0
VERTEX
8
CUT
10
-5.0104
20
6.1104
0
VERTEX
8
CUT
10
-4.9385
20
6.1081
0
VERTEX
8
CUT
10
-4.8668
20
6.1010
0
VERTEX
8
CUT
10
-4.7958
20
6.0893
0
VERTEX
8
CUT
10
-4.7257
20
6.0729
0
VERTEX
8
CUT
10
-4.6568
20
6.0520
0
VERTEX
8
CUT
10
-4.5895
20
6.0267
0
VERTEX
8
CUT
10
-4.5239
20
5.9970
0
VERTEX
8
CUT
10
-4.4604
20
5.9630
0
VERTEX
8
CUT
10
-4.3993
20
5.9250
0
VERTEX
8
CUT
10
-4.3408
20
5.8831
0
VERTEX
8
CUT
10
-4.2851
20
5.8374
0
VERTEX
8
CUT
10
-4.2326
20
5.7882
0
VERTEX
8
CUT
10
-4.1834
20
5.7357
0
VERTEX
8
CUT
10
-4.1377
20
5.6800
0
VERTEX
8
CUT
10
-4.0958
20
5.6215
0
VERTEX
8
CUT
10
-4.0578
20
5.5604
0
VERTEX
8
CUT
10
-4.0238
20
5.4969
0
VERTEX
8
CUT
10
-3.9941
20
5.4314
0
VERTEX
8
CUT
10
-3.9688
20
5.3640
0
VERTEX
8
CUT
10
-3.9479
20
5.2951
0
VERTEX
8
CUT
10
-3.9315
20
5.2250
0
VERTEX
8
CUT
10
-3.9198
20
5.1540
0
VERTEX
8
CUT
10
-3.9128
20
5.0824
0
VERTEX
8
CUT
10
-3.9104
20
5.0104
0
VERTEX
8
CUT
10
-3.9128
20
4.9385
0
VERTEX
8
CUT
10
-3.9198
20
4.8668
0
VERTEX
8
CUT
10
-3.9315
20
4.7958
0
VERTEX
8
CUT
10
-3.9479
20
4.7257
0
VERTEX
8
CUT
10
-3.9688
20
4.6568
0
VERTEX
8
CUT
10
-3.9941
20
4.5895
0
VERTEX
8
CUT
10
-4.0238
20
4.5239
0
VERTEX
8
CUT
10
-4.0578
20
4.4604
0
VERTEX
8
CUT
10
-4.0958
20
4.3993
0
VERTEX
8
CUT
10
-4.1377
20
4.3408
0
VERTEX
8
CUT
10
-4.1834
20
4.2851
0
VERTEX
8
CUT
10
-4.2326
20
4.2326
0
VERTEX
8
CUT
10
-4.2851
20
4.1834
0
VERTEX
8
CUT
10
-4.3408
20
4.1377
0
VERTEX
8
CUT
10
-4.3993
20
4.0958
0
VERTEX
8
CUT
10
-4.4604
20
4.0578
0
VERTEX
8
CUT
10
-4.5239
20
4.0238
0
VERTEX
8
CUT
10
-4.5895
20
3.9941
0
VERTEX
8
CUT
10
-4.6568
20
3.9688
0
VERTEX
8
CUT
10
-4.7257
20
3.9479
0
VERTEX
8
CUT
10
-4.7958
20
3.9315
0
VERTEX
8
CUT
10
-4.8668
20
3.9198
0
VERTEX
8
CUT
10
-4.9385
20
3.9128
0
VERTEX
8
CUT
10
-5.0104
20
3.9104
0
SEQEND
0
POLYLINE
8
CUT
66
1
70
1
0
VERTEX
8
CUT
10
162.1010
20
3.9128
0
VERTEX
8
CUT
10
162.0293
20
3.9198
0
VERTEX
8
CUT
10
161.9583
20
3.9315
0
VERTEX
8
CUT
10
161.8882
20
3.9479
0
VERTEX
8
CUT
10
161.8193
20
3.9688
0
VERTEX
8
CUT
10
161.7520
20
3.9941
0
VERTEX
8
CUT
10
161.6864
20
4.0238
0
VERTEX
8
CUT
10
161.6229
20
4.0578
0
VERTEX
8
CUT
10
161.5618
20
4.0958
0
VERTEX
8
CUT
10
161.5033
20
4.1377
0
VERTEX
8
CUT
10
161.4476
20
4.1834
0
VERTEX
8
CUT
10
161.3951
20
4.2326
0
VERTEX
8
CUT
10
161.3459
20
4.2851
0
VERTEX
8
CUT
10
161.3002
20
4.3408
0
VERTEX
8
CUT
10
161.2583
20
4.3993
0
VERTEX
8
CUT
10
161.2203
20
4.4604
0
VERTEX
8
CUT
10
161.1863
20
4.5239
0
VERTEX
8
CUT
10
161.1566
20
4.5895
0
VERTEX
8
CUT
10
161.1313
20
4.6568
0
VERTEX
8
CUT
10
161.1104
20
4.7257
0
VERTEX
8
CUT
10
161.0940
20
4.7958
0
VERTEX
8
CUT
10
161.0823
20
4.8668
0
VERTEX
8
CUT
10
161.0753
20
4.9385
0
VERTEX
8
CUT
10
161.0729
20
5.0104
0
VERTEX
8
CUT
10
161.0753
20
5.0824
0
VERTEX
8
CUT
10
161.0823
20
5.1540
0
VERTEX
8
CUT
10
161.0940
20
5.2250
0
VERTEX
8
CUT
10
161.1104
20
5.2951
0
VERTEX
8
CUT
10
161.1313
20
5.3640
0
VERTEX
8
CUT
10
161.1566
20
5.4314
0
VERTEX
8
CUT
10
161.1863
20
5.4969
0
VERTEX
8
CUT
10
161.2203
20
5.5604
0
VERTEX
8
CUT
10
161.2583
20
5.6215
0
VERTEX
8
CUT
10
161.3002
20
5.6800
0
VERTEX
8
CUT
10
161.3459
20
5.7357
0
VERTEX
8
CUT
10
161.3951
20
5.7882
0
VERTEX
8
CUT
10
161.4476
20
5.8374
0
VERTEX
8
CUT
10
161.5033
20
5.8831
0
VERTEX
8
CUT
10
161.5618
20
5.9250
0
VERTEX
8
CUT
10
161.6229
20
5.9630
0
VERTEX
8
CUT
10
161.6864
20
5.9970
0
VERTEX
8
CUT
10
161.7520
20
6.0267
0
VERTEX
8
CUT
10
161.8193
20
6.0520
0
VERTEX
8
CUT
10
161.8882
20
6.0729
0
VERTEX
8
CUT
10
161.9583
20
6.0893
0
VERTEX
8
CUT
10
162.0293
20
6.1010
0
VERTEX
8
CUT
10
162.1010
20
6.1081
0
VERTEX
8
CUT
10
162.1729
20
6.1104
0
VERTEX
8
CUT
10
162.2449
20
6.1081
0
VERTEX
8
CUT
10
162.3165
20
6.1010
0
VERTEX
8
CUT
10
162.3875
20
6.0893
0
VERTEX
8
CUT
10
162.4576
20
6.0729
0
VERTEX
8
CUT
10
162.5265
20
6.0520
0
VERTEX
8
CUT
10
162.5939
20
6.0267
0
VERTEX
8
CUT
10
162.6594
20
5.9970
0
VERTEX
8
CUT
10
162.7229
20
5.9630
0
VERTEX
8
CUT
10
162.7840
20
5.9250
0
VERTEX
8
CUT
10
162.8425
20
5.8831
0
VERTEX
8
CUT
10
162.8982
20
5.8374
0
VERTEX
8
CUT
10
162.9507
20
5.7882
0
VERTEX
8
CUT
10
162.9999
20
5.7357
0
VERTEX
8
CUT
10
163.0456
20
5.6800
0
VERTEX
8
CUT
10
163.0875
20
5.6215
0
VERTEX
8
CUT
10
163.1255
20
5.5604
0
VERTEX
8
CUT
10
163.1595
20
5.4969
0
VERTEX
8
CUT
10
163.1892
20
5.4314
0
VERTEX
8
CUT
10
163.2145
20
5.3640
0
VERTEX
8
CUT
10
163.2354
20
5.2951
0
VERTEX
8
CUT
10
163.2518
20
5.2250
0
VERTEX
8
CUT
10
163.2635
20
5.1540
0
VERTEX
8
CUT
10
163.2706
20
5.0824
0
VERTEX
8
CUT
10
163.2729
20
5.0104
0
VERTEX
8
CUT
10
163.2706
20
4.9385
0
VERTEX
8
CUT
10
163.2635
20
4.8668
0
VERTEX
8
CUT
10
163.2518
20
4.7958
0
VERTEX
8
CUT
10
163.2354
20
4.7257
0
VERTEX
8
CUT
10
163.2145
20
4.6568
0
VERTEX
8
CUT
10
163.1892
20
4.5895
0
VERTEX
8
CUT
10
163.1595
20
4.5239
0
VERTEX
8
CUT
10
163.1255
20
4.4604
0
VERTEX
8
CUT
10
163.0875
20
4.3993
0
VERTEX
8
CUT
10
163.0456
20
4.3408
0
VERTEX
8
CUT
10
162.9999
20
4.2851
0
VERTEX
8
CUT
10
162.9507
20
4.2326
0
VERTEX
8
CUT
10
162.8982
20
4.1834
0
VERTEX
8
CUT
10
162.8425
20
4.1377
0
VERTEX
8
CUT
10
162.7840
20
4.0958
0
VERTEX
8
CUT
10
162.7229
20
4.0578
0
VERTEX
8
CUT
10
162.6594
20
4.0238
0
VERTEX
8
CUT
10
162.5939
20
3.9941
0
VERTEX
8
CUT
10
162.5265
20
3.9688
0
VERTEX
8
CUT
10
162.4576
20
3.9479
0
VERTEX
8
CUT
10
162.3875
20
3.9315
0
VERTEX
8
CUT
10
162.3165
20
3.9198
0
VERTEX
8
CUT
10
162.2449
20
3.9128
0
VERTEX
8
CUT
10
162.1729
20
3.9104
0
SEQEND
0
POLYLINE
8
CUT
66
1
70
1
0
VERTEX
8
CUT
10
164.5906
20
-7.9726
0
VERTEX
8
CUT
10
164.5189
20
-7.9656
0
VERTEX
8
CUT
10
164.4479
20
-7.9539
0
VERTEX
8
CUT
10
164.3778
20
-7.9375
0
VERTEX
8
CUT
10
164.3089
20
-7.9166
0
VERTEX
8
CUT
10
164.2415
20
-7.8913
0
VERTEX
8
CUT
10
164.1760
20
-7.8616
0
VERTEX
8
CUT
10
164.1125
20
-7.8276
0
VERTEX
8
CUT
10
164.0514
20
-7.7896
0
VERTEX
8
CUT
10
163.9929
20
-7.7477
0
VERTEX
8
CUT
10
163.9372
20
-7.7020
0
VERTEX
8
CUT
10
163.8847
20
-7.6528
0
VERTEX
8
CUT
10
163.8355
20
-7.6003
0
VERTEX
8
CUT
10
163.7898
20
-7.5446
0
VERTEX
8
CUT
10
163.7479
20
-7.4861
0
VERTEX
8
CUT
10
163.7099
20
-7.4250
0
VERTEX
8
CUT
10
163.6759
20
-7.3615
0
VERTEX
8
CUT
10
163.6462
20
-7.2960
0
VERTEX
8
CUT
10
163.6209
20
-7.2286
0
VERTEX
8
CUT
10
163.6000
20
-7.1597
0
VERTEX
8
CUT
10
163.5836
20
-7.0896
0
VERTEX
8
CUT
10
163.5719
20
-7.0186
0
VERTEX
8
CUT
10
163.5649
20
-6.9469
0
VERTEX
8
CUT
10
163.5625
20
-6.8750
0
VERTEX
8
CUT
10
163.5649
20
-6.8031
0
VERTEX
8
CUT
10
163.5719
20
-6.7314
0
VERTEX
8
CUT
10
163.5836
20
-6.6604
0
VERTEX
8
CUT
10
163.6000
20
-6.5903
0
VERTEX
8
CUT
10
163.6209
20
-6.5214
0
VERTEX
8
CUT
10
163.6462
20
-6.4540
0
VERTEX
8
CUT
10
163.6759
20
-6.3885
0
VERTEX
8
CUT
10
163.7099
20
-6.3250
0
VERTEX
8
CUT
10
163.7479
20
-6.2639
0
VERTEX
8
CUT
10
163.7898
20
-6.2054
0
VERTEX
8
CUT
10
163.8355
20
-6.1497
0
VERTEX
8
CUT
10
163.8847
20
-6.0972
0
VERTEX
8
CUT
10
163.9372
20
-6.0480
0
VERTEX
8
CUT
10
163.9929
20
-6.0023
0
VERTEX
8
CUT
10
164.0514
20
-5.9604
0
VERTEX
8
CUT
10
164.1125
20
-5.9224
0
VERTEX
8
CUT
10
164.1760
20
-5.8884
0
VERTEX
8
CUT
10
164.2415
20
-5.8587
0
VERTEX
8
CUT
10
164.3089
20
-5.8334
0
VERTEX
8
CUT
10
164.3778
20
-5.8125
0
VERTEX
8
CUT
10
164.4479
20
-5.7961
0
VERTEX
8
CUT
10
164.5189
20
-5.7844
0
VERTEX
8
CUT
10
164.5906
20
-5.7774
0
VERTEX
8
CUT
10
164.6625
20
-5.7750
0
VERTEX
8
CUT
10
164.7344
20
-5.7774
0
VERTEX
8
CUT
10
164.8061
20
-5.7844
0
VERTEX
8
CUT
10
164.8771
20
-5.7961
0
VERTEX
8
CUT
10
164.9472
20
-5.8125
0
VERTEX
8
CUT
10
165.0161
20
-5.8334
0
VERTEX
8
CUT
10
165.0835
20
-5.8587
0
VERTEX
8
CUT
10
165.1490
20
-5.8884
0
VERTEX
8
CUT
10
165.2125
20
-5.9224
0
VERTEX
8
CUT
10
165.2736
20
-5.9604
0
VERTEX
8
CUT
10
165.3321
20
-6.0023
0
VERTEX
8
CUT
10
165.3878
20
-6.0480
0
VERTEX
8
CUT
10
165.4403
20
-6.0972
0
VERTEX
8
CUT
10
165.4895
20
-6.1497
0
VERTEX
8
CUT
10
165.5352
20
-6.2054
0
VERTEX
8
CUT
10
165.5771
20
-6.2639
0
VERTEX
8
CUT
10
165.6151
20
-6.3250
0
VERTEX
8
CUT
10
165.6491
20
-6.3885
0
VERTEX
8
CUT
10
165.6788
20
-6.4540
0
VERTEX
8
CUT
10
165.7041
20
-6.5214
0
VERTEX
8
CUT
10
165.7250
20
-6.5903
0
VERTEX
8
CUT
10
165.7414
20
-6.6604
0
VERTEX
8
CUT
10
165.7531
20
-6.7314
0
VERTEX
8
CUT
10
165.7601
20
-6.8031
0
VERTEX
8
CUT
10
165.7625
20
-6.8750
0
VERTEX
8
CUT
10
165.7601
20
-6.9469
0
VERTEX
8
CUT
10
165.7531
20
-7.0186
0
VERTEX
8
CUT
10
165.7414
20
-7.0896
0
VERTEX
8
CUT
10
165.7250
20
-7.1597
0
VERTEX
8
CUT
10
165.7041
20
-7.2286
0
VERTEX
8
CUT
10
165.6788
20
-7.2960
0
VERTEX
8
CUT
10
165.6491
20
-7.3615
0
VERTEX
8
CUT
10
165.6151
20
-7.4250
0
VERTEX
8
CUT
10
165.5771
20
-7.4861
0
VERTEX
8
CUT
10
165.5352
20
-7.5446
0
VERTEX
8
CUT
10
165.4895
20
-7.6003
0
VERTEX
8
CUT
10
165.4403
20
-7.6528
0
VERTEX
8
CUT
10
165.3878
20
-7.7020
0
VERTEX
8
CUT
10
165.3321
20
-7.7477
0
VERTEX
8
CUT
10
165.2736
20
-7.7896
0
VERTEX
8
CUT
10
165.2125
20
-7.8276
0
VERTEX
8
CUT
10
165.1490
20
-7.8616
0
VERTEX
8
CUT
10
165.0835
20
-7.8913
0
VERTEX
8
CUT
10
165.0161
20
-7.9166
0
VERTEX
8
CUT
10
164.9472
20
-7.9375
0
VERTEX
8
CUT
10
164.8771
20
-7.9539
0
VERTEX
8
CUT
10
164.8061
20
-7.9656
0
VERTEX
8
CUT
10
164.7344
20
-7.9726
0
VERTEX
8
CUT
10
164.6625
20
-7.9750
0
SEQEND
0
POLYLINE
8
CUT
66
1
70
1
0
VERTEX
8
CUT
10
168.6625
20
-25.2500
0
VERTEX
8
CUT
10
160.6625
20
-25.2500
0
VERTEX
8
CUT
10
160.6625
20
-38.9550
0
VERTEX
8
CUT
10
168.6625
20
-38.9550
0
SEQEND
0
POLYLINE
8
CUT
66
1
70
1
0
VERTEX
8
CUT
10
164.5906
20
-33.2001
0
VERTEX
8
CUT
10
164.5189
20
-33.1931
0
VERTEX
8
CUT
10
164.4479
20
-33.1814
0
VERTEX
8
CUT
10
164.3778
20
-33.1650
0
VERTEX
8
CUT
10
164.3089
20
-33.1441
0
VERTEX
8
CUT
10
164.2415
20
-33.1188
0
VERTEX
8
CUT
10
164.1760
20
-33.0891
0
VERTEX
8
CUT
10
164.1125
20
-33.0551
0
VERTEX
8
CUT
10
164.0514
20
-33.0171
0
VERTEX
8
CUT
10
163.9929
20
-32.9752
0
VERTEX
8
CUT
10
163.9372
20
-32.9295
0
VERTEX
8
CUT
10
163.8847
20
-32.8803
0
VERTEX
8
CUT
10
163.8355
20
-32.8278
0
VERTEX
8
CUT
10
163.7898
20
-32.7721
0
VERTEX
8
CUT
10
163.7479
20
-32.7136
0
VERTEX
8
CUT
10
163.7099
20
-32.6525
0
VERTEX
8
CUT
10
163.6759
20
-32.5890
0
VERTEX
8
CUT
10
163.6462
20
-32.5235
0
VERTEX
8
CUT
10
163.6209
20
-32.4561
0
VERTEX
8
CUT
10
163.6000
20
-32.3872
0
VERTEX
8
CUT
10
163.5836
20
-32.3171
0
VERTEX
8
CUT
10
163.5719
20
-32.2461
0
VERTEX
8
CUT
10
163.5649
20
-32.1744
0
VERTEX
8
CUT
10
163.5625
20
-32.1025
0
VERTEX
8
CUT
10
163.5649
20
-32.0306
0
VERTEX
8
CUT
10
163.5719
20
-31.9589
0
VERTEX
8
CUT
10
163.5836
20
-31.8879
0
VERTEX
8
CUT
10
163.6000
20
-31.8178
0
VERTEX
8
CUT
10
163.6209
20
-31.7489
0
VERTEX
8
CUT
10
163.6462
20
-31.6815
0
VERTEX
8
CUT
10
163.6759
20
-31.6160
0
VERTEX
8
CUT
10
163.7099
20
-31.5525
0
VERTEX
8
CUT
10
163.7479
20
-31.4914
0
VERTEX
8
CUT
10
163.7898
20
-31.4329
0
VERTEX
8
CUT
10
163.8355
20
-31.3772
0
VERTEX
8
CUT
10
163.8847
20
-31.3247
0
VERTEX
8
CUT
10
163.9372
20
-31.2755
0
VERTEX
8
CUT
10
163.9929
20
-31.2298
0
VERTEX
8
CUT
10
164.0514
20
-31.1879
0
VERTEX
8
CUT
10
164.1125
20
-31.1499
0
VERTEX
8
CUT
10
164.1760
20
-31.1159
0
VERTEX
8
CUT
10
164.2415
20
-31.0862
0
VERTEX
8
CUT
10
164.3089
20
-31.0609
0
VERTEX
8
CUT
10
164.3778
20
-31.0400
0
VERTEX
8
CUT
10
164.4479
20
-31.0236
0
VERTEX
8
CUT
10
164.5189
20
-31.0119
0
VERTEX
8
CUT
10
164.5906
20
-31.0049
0
VERTEX
8
CUT
10
164.6625
20
-31.0025
0
VERTEX
8
CUT
10
164.7344
20
-31.0049
0
VERTEX
8
CUT
10
164.8061
20
-31.0119
0
VERTEX
8
CUT
10
164.8771
20
-31.0236
0
VERTEX
8
CUT
10
164.9472
20
-31.0400
0
VERTEX
8
CUT
10
165.0161
20
-31.0609
0
VERTEX
8
CUT
10
165.0835
20
-31.0862
0
VERTEX
8
CUT
10
165.1490
20
-31.1159
0
VERTEX
8
CUT
10
165.2125
20
-31.1499
0
VERTEX
8
CUT
10
165.2736
20
-31.1879
0
VERTEX
8
CUT
10
165.3321
20
-31.2298
0
VERTEX
8
CUT
10
165.3878
20
-31.2755
0
VERTEX
8
CUT
10
165.4403
20
-31.3247
0
VERTEX
8
CUT
10
165.4895
20
-31.3772
0
VERTEX
8
CUT
10
165.5352
20
-31.4329
0
VERTEX
8
CUT
10
165.5771
20
-31.4914
0
VERTEX
8
CUT
10
165.6151
20
-31.5525
0
VERTEX
8
CUT
10
165.6491
20
-31.6160
0
VERTEX
8
CUT
10
165.6788
20
-31.6815
0
VERTEX
8
CUT
10
165.7041
20
-31.7489
0
VERTEX
8
CUT
10
165.7250
20
-31.8178
0
VERTEX
8
CUT
10
165.7414
20
-31.8879
0
VERTEX
8
CUT
10
165.7531
20
-31.9589
0
VERTEX
8
CUT
10
165.7601
20
-32.0306
0
VERTEX
8
CUT
10
165.7625
20
-32.1025
0
VERTEX
8
CUT
10
165.7601
20
-32.1744
0
VERTEX
8
CUT
10
165.7531
20
-32.2461
0
VERTEX
8
CUT
10
165.7414
20
-32.3171
0
VERTEX
8
CUT
10
165.7250
20
-32.3872
0
VERTEX
8
CUT
10
165.7041
20
-32.4561
0
VERTEX
8
CUT
10
165.6788
20
-32.5235
0
VERTEX
8
CUT
10
165.6491
20
-32.5890
0
VERTEX
8
CUT
10
165.6151
20
-32.6525
0
VERTEX
8
CUT
10
165.5771
20
-32.7136
0
VERTEX
8
CUT
10
165.5352
20
-32.7721
0
VERTEX
8
CUT
10
165.4895
20
-32.8278
0
VERTEX
8
CUT
10
165.4403
20
-32.8803
0
VERTEX
8
CUT
10
165.3878
20
-32.9295
0
VERTEX
8
CUT
10
165.3321
20
-32.9752
0
VERTEX
8
CUT
10
165.2736
20
-33.0171
0
VERTEX
8
CUT
10
165.2125
20
-33.0551
0
VERTEX
8
CUT
10
165.1490
20
-33.0891
0
VERTEX
8
CUT
10
165.0835
20
-33.1188
0
VERTEX
8
CUT
10
165.0161
20
-33.1441
0
VERTEX
8
CUT
10
164.9472
20
-33.1650
0
VERTEX
8
CUT
10
164.8771
20
-33.1814
0
VERTEX
8
CUT
10
164.8061
20
-33.1931
0
VERTEX
8
CUT
10
164.7344
20
-33.2001
0
VERTEX
8
CUT
10
164.6625
20
-33.2025
0
SEQEND
0
POLYLINE
8
CUT
66
1
70
1
0
VERTEX
8
CUT
10
-7.5719
20
-58.2476
0
VERTEX
8
CUT
10
-7.6436
20
-58.2406
0
VERTEX
8
CUT
10
-7.7146
20
-58.2289
0
VERTEX
8
CUT
10
-7.7847
20
-58.2125
0
VERTEX
8
CUT
10
-7.8536
20
-58.1916
0
VERTEX
8
CUT
10
-7.9210
20
-58.1663
0
VERTEX
8
CUT
10
-7.9865
20
-58.1366
0
VERTEX
8
CUT
10
-8.0500
20
-58.1026
0
VERTEX
8
CUT
10
-8.1111
20
-58.0646
0
VERTEX
8
CUT
10
-8.1696
20
-58.0227
0
VERTEX
8
CUT
10
-8.2253
20
-57.9770
0
VERTEX
8
CUT
10
-8.2778
20
-57.9278
0
VERTEX
8
CUT
10
-8.3270
20
-57.8753
0
VERTEX
8
CUT
10
-8.3727
20
-57.8196
0
VERTEX
8
CUT
10
-8.4146
20
-57.7611
0
VERTEX
8
CUT
10
-8.4526
20
-57.7000
0
VERTEX
8
CUT
10
-8.4866
20
-57.6365
0
VERTEX
8
CUT
10
-8.5163
20
-57.5710
0
VERTEX
8
CUT
10
-8.5416
20
-57.5036
0
VERTEX
8
CUT
10
-8.5625
20
-57.4347
0
VERTEX
8
CUT
10
-8.5789
20
-57.3646
0
VERTEX
8
CUT
10
-8.5906
20
-57.2936
0
VERTEX
8
CUT
10
-8.5976
20
-57.2219
0
VERTEX
8
CUT
10
-8.6000
20
-57.1500
0
VERTEX
8
CUT
10
-8.5976
20
-57.0781
0
VERTEX
8
CUT
10
-8.5906
20
-57.0064
0
VERTEX
8
CUT
10
-8.5789
20
-56.9354
0
VERTEX
8
CUT
10
-8.5625
20
-56.8653
0
VERTEX
8
CUT
10
-8.5416
20
-56.7964
0
VERTEX
8
CUT
10
-8.5163
20
-56.7290
0
VERTEX
8
CUT
10
-8.4866
20
-56.6635
0
VERTEX
8
CUT
10
-8.4526
20
-56.6000
0
VERTEX
8
CUT
10
-8.4146
20
-56.5389
0
VERTEX
8
CUT
10
-8.3727
20
-56.4804
0
VERTEX
8
CUT
10
-8.3270
20
-56.4247
0
VERTEX
8
CUT
10
-8.2778
20
-56.3722
0
VERTEX
8
CUT
10
-8.2253
20
-56.3230
0
VERTEX
8
CUT
10
-8.1696
20
-56.2773
0
VERTEX
8
CUT
10
-8.1111
20
-56.2354
0
VERTEX
8
CUT
10
-8.0500
20
-56.1974
0
VERTEX
8
CUT
10
-7.9865
20
-56.1634
0
VERTEX
8
CUT
10
-7.9210
20
-56.1337
0
VERTEX
8
CUT
10
-7.8536
20
-56.1084
0
VERTEX
8
CUT
10
-7.7847
20
-56.0875
0
VERTEX
8
CUT
10
-7.7146
20
-56.0711
0
VERTEX
8
CUT
10
-7.6436
20
-56.0594
0
VERTEX
8
CUT
10
-7.5719
20
-56.0524
0
VERTEX
8
CUT
10
-7.5000
20
-56.0500
0
VERTEX
8
CUT
10
-7.4281
20
-56.0524
0
VERTEX
8
CUT
10
-7.3564
20
-56.0594
0
VERTEX
8
CUT
10
-7.2854
20
-56.0711
0
VERTEX
8
CUT
10
-7.2153
20
-56.0875
0
VERTEX
8
CUT
10
-7.1464
20
-56.1084
0
VERTEX
8
CUT
10
-7.0790
20
-56.1337
0
VERTEX
8
CUT
10
-7.0135
20
-56.1634
0
VERTEX
8
CUT
10
-6.9500
20
-56.1974
0
VERTEX
8
CUT
10
-6.8889
20
-56.2354
0
VERTEX
8
CUT
10
-6.8304
20
-56.2773
0
VERTEX
8
CUT
10
-6.7747
20
-56.3230
0
VERTEX
8
CUT
10
-6.7222
20
-56.3722
0
VERTEX
8
CUT
10
-6.6730
20
-56.4247
0
VERTEX
8
CUT
10
-6.6273
20
-56.4804
0
VERTEX
8
CUT
10
-6.5854
20
-56.5389
0
VERTEX
8
CUT
10
-6.5474
20
-56.6000
0
VERTEX
8
CUT
10
-6.5134
20
-56.6635
0
VERTEX
8
CUT
10
-6.4837
20
-56.7290
0
VERTEX
8
CUT
10
-6.4584
20
-56.7964
0
VERTEX
8
CUT
10
-6.4375
20
-56.8653
0
VERTEX
8
CUT
10
-6.4211
20
-56.9354
0
VERTEX
8
CUT
10
-6.4094
20
-57.0064
0
VERTEX
8
CUT
10
-6.4024
20
-57.0781
0
VERTEX
8
CUT
10
-6.4000
20
-57.1500
0
VERTEX
8
CUT
10
-6.4024
20
-57.2219
0
VERTEX
8
CUT
10
-6.4094
20
-57.2936
0
VERTEX
8
CUT
10
-6.4211
20
-57.3646
0
VERTEX
8
CUT
10
-6.4375
20
-57.4347
0
VERTEX
8
CUT
10
-6.4584
20
-57.5036
0
VERTEX
8
CUT
10
-6.4837
20
-57.5710
0
VERTEX
8
CUT
10
-6.5134
20
-57.6365
0
VERTEX
8
CUT
10
-6.5474
20
-57.7000
0
VERTEX
8
CUT
10
-6.5854
20
-57.7611
0
VERTEX
8
CUT
10
-6.6273
20
-57.8196
0
VERTEX
8
CUT
10
-6.6730
20
-57.8753
0
VERTEX
8
CUT
10
-6.7222
20
-57.9278
0
VERTEX
8
CUT
10
-6.7747
20
-57.9770
0
VERTEX
8
CUT
10
-6.8304
20
-58.0227
0
VERTEX
8
CUT
10
-6.8889
20
-58.0646
0
VERTEX
8
CUT
10
-6.9500
20
-58.1026
0
VERTEX
8
CUT
10
-7.0135
20
-58.1366
0
VERTEX
8
CUT
10
-7.0790
20
-58.1663
0
VERTEX
8
CUT
10
-7.1464
20
-58.1916
0
VERTEX
8
CUT
10
-7.2153
20
-58.2125
0
VERTEX
8
CUT
10
-7.2854
20
-58.2289
0
VERTEX
8
CUT
10
-7.3564
20
-58.2406
0
VERTEX
8
CUT
10
-7.4281
20
-58.2476
0
VERTEX
8
CUT
10
-7.5000
20
-58.2500
0
SEQEND
0
POLYLINE
8
CUT
66
1
70
1
0
VERTEX
8
CUT
10
164.5906
20
-82.7701
0
VERTEX
8
CUT
10
164.5189
20
-82.7631
0
VERTEX
8
CUT
10
164.4479
20
-82.7514
0
VERTEX
8
CUT
10
164.3778
20
-82.7350
0
VERTEX
8
CUT
10
164.3089
20
-82.7141
0
VERTEX
8
CUT
10
164.2415
20
-82.6888
0
VERTEX
8
CUT
10
164.1760
20
-82.6591
0
VERTEX
8
CUT
10
164.1125
20
-82.6251
0
VERTEX
8
CUT
10
164.0514
20
-82.5871
0
VERTEX
8
CUT
10
163.9929
20
-82.5452
0
VERTEX
8
CUT
10
163.9372
20
-82.4995
0
VERTEX
8
CUT
10
163.8847
20
-82.4503
0
VERTEX
8
CUT
10
163.8355
20
-82.3978
0
VERTEX
8
CUT
10
163.7898
20
-82.3421
0
VERTEX
8
CUT
10
163.7479
20
-82.2836
0
VERTEX
8
CUT
10
163.7099
20
-82.2225
0
VERTEX
8
CUT
10
163.6759
20
-82.1590
0
VERTEX
8
CUT
10
163.6462
20
-82.0935
0
VERTEX
8
CUT
10
163.6209
20
-82.0261
0
VERTEX
8
CUT
10
163.6000
20
-81.9572
0
VERTEX
8
CUT
10
163.5836
20
-81.8871
0
VERTEX
8
CUT
10
163.5719
20
-81.8161
0
VERTEX
8
CUT
10
163.5649
20
-81.7444
0
VERTEX
8
CUT
10
163.5625
20
-81.6725
0
VERTEX
8
CUT
10
163.5649
20
-81.6006
0
VERTEX
8
CUT
10
163.5719
20
-81.5289
0
VERTEX
8
CUT
10
163.5836
20
-81.4579
0
VERTEX
8
CUT
10
163.6000
20
-81.3878
0
VERTEX
8
CUT
10
163.6209
20
-81.3189
0
VERTEX
8
CUT
10
163.6462
20
-81.2515
0
VERTEX
8
CUT
10
163.6759
20
-81.1860
0
VERTEX
8
CUT
10
163.7099
20
-81.1225
0
VERTEX
8
CUT
10
163.7479
20
-81.0614
0
VERTEX
8
CUT
10
163.7898
20
-81.0029
0
VERTEX
8
CUT
10
163.8355
20
-80.9472
0
VERTEX
8
CUT
10
163.8847
20
-80.8947
0
VERTEX
8
CUT
10
163.9372
20
-80.8455
0
VERTEX
8
CUT
10
163.9929
20
-80.7998
0
VERTEX
8
CUT
10
164.0514
20
-80.7579
0
VERTEX
8
CUT
10
164.1125
20
-80.7199
0
VERTEX
8
CUT
10
164.1760
20
-80.6859
0
VERTEX
8
CUT
10
164.2415
20
-80.6562
0
VERTEX
8
CUT
10
164.3089
20
-80.6309
0
VERTEX
8
CUT
10
164.3778
20
-80.6100
0
VERTEX
8
CUT
10
164.4479
20
-80.5936
0
VERTEX
8
CUT
10
164.5189
20
-80.5819
0
VERTEX
8
CUT
10
164.5906
20
-80.5749
0
VERTEX
8
CUT
10
164.6625
20
-80.5725
0
VERTEX
8
CUT
10
164.7344
20
-80.5749
0
VERTEX
8
CUT
10
164.8061
20
-80.5819
0
VERTEX
8
CUT
10
164.8771
20
-80.5936
0
VERTEX
8
CUT
10
164.9472
20
-80.6100
0
VERTEX
8
CUT
10
165.0161
20
-80.6309
0
VERTEX
8
CUT
10
165.0835
20
-80.6562
0
VERTEX
8
CUT
10
165.1490
20
-80.6859
0
VERTEX
8
CUT
10
165.2125
20
-80.7199
0
VERTEX
8
CUT
10
165.2736
20
-80.7579
0
VERTEX
8
CUT
10
165.3321
20
-80.7998
0
VERTEX
8
CUT
10
165.3878
20
-80.8455
0
VERTEX
8
CUT
10
165.4403
20
-80.8947
0
VERTEX
8
CUT
10
165.4895
20
-80.9472
0
VERTEX
8
CUT
10
165.5352
20
-81.0029
0
VERTEX
8
CUT
10
165.5771
20
-81.0614
0
VERTEX
8
CUT
10
165.6151
20
-81.1225
0
VERTEX
8
CUT
10
165.6491
20
-81.1860
0
VERTEX
8
CUT
10
165.6788
20
-81.2515
0
VERTEX
8
CUT
10
165.7041
20
-81.3189
0
VERTEX
8
CUT
10
165.7250
20
-81.3878
0
VERTEX
8
CUT
10
165.7414
20
-81.4579
0
VERTEX
8
CUT
10
165.7531
20
-81.5289
0
VERTEX
8
CUT
10
165.7601
20
-81.6006
0
VERTEX
8
CUT
10
165.7625
20
-81.6725
0
VERTEX
8
CUT
10
165.7601
20
-81.7444
0
VERTEX
8
CUT
10
165.7531
20
-81.8161
0
VERTEX
8
CUT
10
165.7414
20
-81.8871
0
VERTEX
8
CUT
10
165.7250
20
-81.9572
0
VERTEX
8
CUT
10
165.7041
20
-82.0261
0
VERTEX
8
CUT
10
165.6788
20
-82.0935
0
VERTEX
8
CUT
10
165.6491
20
-82.1590
0
VERTEX
8
CUT
10
165.6151
20
-82.2225
0
VERTEX
8
CUT
10
165.5771
20
-82.2836
0
VERTEX
8
CUT
10
165.5352
20
-82.3421
0
VERTEX
8
CUT
10
165.4895
20
-82.3978
0
VERTEX
8
CUT
10
165.4403
20
-82.4503
0
VERTEX
8
CUT
10
165.3878
20
-82.4995
0
VERTEX
8
CUT
10
165.3321
20
-82.5452
0
VERTEX
8
CUT
10
165.2736
20
-82.5871
0
VERTEX
8
CUT
10
165.2125
20
-82.6251
0
VERTEX
8
CUT
10
165.1490
20
-82.6591
0
VERTEX
8
CUT
10
165.0835
20
-82.6888
0
VERTEX
8
CUT
10
165.0161
20
-82.7141
0
VERTEX
8
CUT
10
164.9472
20
-82.7350
0
VERTEX
8
CUT
10
164.8771
20
-82.7514
0
VERTEX
8
CUT
10
164.8061
20
-82.7631
0
VERTEX
8
CUT
10
164.7344
20
-82.7701
0
VERTEX
8
CUT
10
164.6625
20
-82.7725
0
SEQEND
0
POLYLINE
8
CUT
66
1
70
1
0
VERTEX
8
CUT
10
-5.0824
20
-120.4081
0
VERTEX
8
CUT
10
-5.1540
20
-120.4010
0
VERTEX
8
CUT
10
-5.2250
20
-120.3893
0
VERTEX
8
CUT
10
-5.2951
20
-120.3729
0
VERTEX
8
CUT
10
-5.3640
20
-120.3520
0
VERTEX
8
CUT
10
-5.4314
20
-120.3267
0
VERTEX
8
CUT
10
-5.4969
20
-120.2970
0
VERTEX
8
CUT
10
-5.5604
20
-120.2630
0
VERTEX
8
CUT
10
-5.6215
20
-120.2250
0
VERTEX
8
CUT
10
-5.6800
20
-120.1831
0
VERTEX
8
CUT
10
-5.7357
20
-120.1374
0
VERTEX
8
CUT
10
-5.7882
20
-120.0882
0
VERTEX
8
CUT
10
-5.8374
20
-120.0357
0
VERTEX
8
CUT
10
-5.8831
20
-119.9800
0
VERTEX
8
CUT
10
-5.9250
20
-119.9215
0
VERTEX
8
CUT
10
-5.9630
20
-119.8604
0
VERTEX
8
CUT
10
-5.9970
20
-119.7969
0
VERTEX
8
CUT
10
-6.0267
20
-119.7314
0
VERTEX
8
CUT
10
-6.0520
20
-119.6640
0
VERTEX
8
CUT
10
-6.0729
20
-119.5951
0
VERTEX
8
CUT
10
-6.0893
20
-119.5250
0
VERTEX
8
CUT
10
-6.1010
20
-119.4540
0
VERTEX
8
CUT
10
-6.1081
20
-119.3824
0
VERTEX
8
CUT
10
-6.1104
20
-119.3104
0
VERTEX
8
CUT
10
-6.1081
20
-119.2385
0
VERTEX
8
CUT
10
-6.1010
20
-119.1668
0
VERTEX
8
CUT
10
-6.0893
20
-119.0958
0
VERTEX
8
CUT
10
-6.0729
20
-119.0257
0
VERTEX
8
CUT
10
-6.0520
20
-118.9568
0
VERTEX
8
CUT
10
-6.0267
20
-118.8895
0
VERTEX
8
CUT
10
-5.9970
20
-118.8239
0
VERTEX
8
CUT
10
-5.9630
20
-118.7604
0
VERTEX
8
CUT
10
-5.9250
20
-118.6993
0
VERTEX
8
CUT
10
-5.8831
20
-118.6408
0
VERTEX
8
CUT
10
-5.8374
20
-118.5851
0
VERTEX
8
CUT
10
-5.7882
20
-118.5326
0
VERTEX
8
CUT
10
-5.7357
20
-118.4834
0
VERTEX
8
CUT
10
-5.6800
20
-118.4377
0
VERTEX
8
CUT
10
-5.6215
20
-118.3958
0
VERTEX
8
CUT
10
-5.5604
20
-118.3578
0
VERTEX
8
CUT
10
-5.4969
20
-118.3238
0
VERTEX
8
CUT
10
-5.4314
20
-118.2941
0
VERTEX
8
CUT
10
-5.3640
20
-118.2688
0
VERTEX
8
CUT
10
-5.2951
20
-118.2479
0
VERTEX
8
CUT
10
-5.2250
20
-118.2315
0
VERTEX
8
CUT
10
-5.1540
20
-118.2198
0
VERTEX
8
CUT
10
-5.0824
20
-118.2128
0
VERTEX
8
CUT
10
-5.0104
20
-118.2104
0
VERTEX
8
CUT
10
-4.9385
20
-118.2128
0
VERTEX
8
CUT
10
-4.8668
20
-118.2198
0
VERTEX
8
CUT
10
-4.7958
20
-118.2315
0
VERTEX
8
CUT
10
-4.7257
20
-118.2479
0
VERTEX
8
CUT
10
-4.6568
20
-118.2688
0
VERTEX
8
CUT
10
-4.5895
20
-118.2941
0
VERTEX
8
CUT
10
-4.5239
20
-118.3238
0
VERTEX
8
CUT
10
-4.4604
20
-118.3578
0
VERTEX
8
CUT
10
-4.3993
20
-118.3958
0
VERTEX
8
CUT
10
-4.3408
20
-118.4377
0
VERTEX
8
CUT
10
-4.2851
20
-118.4834
0
VERTEX
8
CUT
10
-4.2326
20
-118.5326
0
VERTEX
8
CUT
10
-4.1834
20
-118.5851
0
VERTEX
8
CUT
10
-4.1377
20
-118.6408
0
VERTEX
8
CUT
10
-4.0958
20
-118.6993
0
VERTEX
8
CUT
10
-4.0578
20
-118.7604
0
VERTEX
8
CUT
10
-4.0238
20
-118.8239
0
VERTEX
8
CUT
10
-3.9941
20
-118.8895
0
VERTEX
8
CUT
10
-3.9688
20
-118.9568
0
VERTEX
8
CUT
10
-3.9479
20
-119.0257
0
VERTEX
8
CUT
10
-3.9315
20
-119.0958
0
VERTEX
8
CUT
10
-3.9198
20
-119.1668
0
VERTEX
8
CUT
10
-3.9128
20
-119.2385
0
VERTEX
8
CUT
10
-3.9104
20
-119.3104
0
VERTEX
8
CUT
10
-3.9128
20
-119.3824
0
VERTEX
8
CUT
10
-3.9198
20
-119.4540
0
VERTEX
8
CUT
10
-3.9315
20
-119.5250
0
VERTEX
8
CUT
10
-3.9479
20
-119.5951
0
VERTEX
8
CUT
10
-3.9688
20
-119.6640
0
VERTEX
8
CUT
10
-3.9941
20
-119.7314
0
VERTEX
8
CUT
10
-4.0238
20
-119.7969
0
VERTEX
8
CUT
10
-4.0578
20
-119.8604
0
VERTEX
8
CUT
10
-4.0958
20
-119.9215
0
VERTEX
8
CUT
10
-4.1377
20
-119.9800
0
VERTEX
8
CUT
10
-4.1834
20
-120.0357
0
VERTEX
8
CUT
10
-4.2326
20
-120.0882
0
VERTEX
8
CUT
10
-4.2851
20
-120.1374
0
VERTEX
8
CUT
10
-4.3408
20
-120.1831
0
VERTEX
8
CUT
10
-4.3993
20
-120.2250
0
VERTEX
8
CUT
10
-4.4604
20
-120.2630
0
VERTEX
8
CUT
10
-4.5239
20
-120.2970
0
VERTEX
8
CUT
10
-4.5895
20
-120.3267
0
VERTEX
8
CUT
10
-4.6568
20
-120.3520
0
VERTEX
8
CUT
10
-4.7257
20
-120.3729
0
VERTEX
8
CUT
10
-4.7958
20
-120.3893
0
VERTEX
8
CUT
10
-4.8668
20
-120.4010
0
VERTEX
8
CUT
10
-4.9385
20
-120.4081
0
VERTEX
8
CUT
10
-5.0104
20
-120.4104
0
SEQEND
0
POLYLINE
8
CUT
66
1
70
1
0
VERTEX
8
CUT
10
162.1010
20
-120.4081
0
VERTEX
8
CUT
10
162.0293
20
-120.4010
0
VERTEX
8
CUT
10
161.9583
20
-120.3893
0
VERTEX
8
CUT
10
161.8882
20
-120.3729
0
VERTEX
8
CUT
10
161.8193
20
-120.3520
0
VERTEX
8
CUT
10
161.7520
20
-120.3267
0
VERTEX
8
CUT
10
161.6864
20
-120.2970
0
VERTEX
8
CUT
10
161.6229
20
-120.2630
0
VERTEX
8
CUT
10
161.5618
20
-120.2250
0
VERTEX
8
CUT
10
161.5033
20
-120.1831
0
VERTEX
8
CUT
10
161.4476
20
-120.1374
0
VERTEX
8
CUT
10
161.3951
20
-120.0882
0
VERTEX
8
CUT
10
161.3459
20
-120.0357
0
VERTEX
8
CUT
10
161.3002
20
-119.9800
0
VERTEX
8
CUT
10
161.2583
20
-119.9215
0
VERTEX
8
CUT
10
161.2203
20
-119.8604
0
VERTEX
8
CUT
10
161.1863
20
-119.7969
0
VERTEX
8
CUT
10
161.1566
20
-119.7314
0
VERTEX
8
CUT
10
161.1313
20
-119.6640
0
VERTEX
8
CUT
10
161.1104
20
-119.5951
0
VERTEX
8
CUT
10
161.0940
20
-119.5250
0
VERTEX
8
CUT
10
161.0823
20
-119.4540
0
VERTEX
8
CUT
10
161.0753
20
-119.3824
0
VERTEX
8
CUT
10
161.0729
20
-119.3104
0
VERTEX
8
CUT
10
161.0753
20
-119.2385
0
VERTEX
8
CUT
10
161.0823
20
-119.1668
0
VERTEX
8
CUT
10
161.0940
20
-119.0958
0
VERTEX
8
CUT
10
161.1104
20
-119.0257
0
VERTEX
8
CUT
10
161.1313
20
-118.9568
0
VERTEX
8
CUT
10
161.1566
20
-118.8895
0
VERTEX
8
CUT
10
161.1863
20
-118.8239
0
VERTEX
8
CUT
10
161.2203
20
-118.7604
0
VERTEX
8
CUT
10
161.2583
20
-118.6993
0
VERTEX
8
CUT
10
161.3002
20
-118.6408
0
VERTEX
8
CUT
10
161.3459
20
-118.5851
0
VERTEX
8
CUT
10
161.3951
20
-118.5326
0
VERTEX
8
CUT
10
161.4476
20
-118.4834
0
VERTEX
8
CUT
10
161.5033
20
-118.4377
0
VERTEX
8
CUT
10
161.5618
20
-118.3958
0
VERTEX
8
CUT
10
161.6229
20
-118.3578
0
VERTEX
8
CUT
10
161.6864
20
-118.3238
0
VERTEX
8
CUT
10
161.7520
20
-118.2941
0
VERTEX
8
CUT
10
161.8193
20
-118.2688
0
VERTEX
8
CUT
10
161.8882
20
-118.2479
0
VERTEX
8
CUT
10
161.9583
20
-118.2315
0
VERTEX
8
CUT
10
162.0293
20
-118.2198
0
VERTEX
8
CUT
10
162.1010
20
-118.2128
0
VERTEX
8
CUT
10
162.1729
20
-118.2104
0
VERTEX
8
CUT
10
162.2449
20
-118.2128
0
VERTEX
8
CUT
10
162.3165
20
-118.2198
0
VERTEX
8
CUT
10
162.3875
20
-118.2315
0
VERTEX
8
CUT
10
162.4576
20
-118.2479
0
VERTEX
8
CUT
10
162.5265
20
-118.2688
0
VERTEX
8
CUT
10
162.5939
20
-118.2941
0
VERTEX
8
CUT
10
162.6594
20
-118.3238
0
VERTEX
8
CUT
10
162.7229
20
-118.3578
0
VERTEX
8
CUT
10
162.7840
20
-118.3958
0
VERTEX
8
CUT
10
162.8425
20
-118.4377
0
VERTEX
8
CUT
10
162.8982
20
-118.4834
0
VERTEX
8
CUT
10
162.9507
20
-118.5326
0
VERTEX
8
CUT
10
162.9999
20
-118.5851
0
VERTEX
8
CUT
10
163.0456
20
-118.6408
0
VERTEX
8
CUT
10
163.0875
20
-118.6993
0
VERTEX
8
CUT
10
163.1255
20
-118.7604
0
VERTEX
8
CUT
10
163.1595
20
-118.8239
0
VERTEX
8
CUT
10
163.1892
20
-118.8895
0
VERTEX
8
CUT
10
163.2145
20
-118.9568
0
VERTEX
8
CUT
10
163.2354
20
-119.0257
0
VERTEX
8
CUT
10
163.2518
20
-119.0958
0
VERTEX
8
CUT
10
163.2635
20
-119.1668
0
VERTEX
8
CUT
10
163.2706
20
-119.2385
0
VERTEX
8
CUT
10
163.2729
20
-119.3104
0
VERTEX
8
CUT
10
163.2706
20
-119.3824
0
VERTEX
8
CUT
10
163.2635
20
-119.4540
0
VERTEX
8
CUT
10
163.2518
20
-119.5250
0
VERTEX
8
CUT
10
163.2354
20
-119.5951
0
VERTEX
8
CUT
10
163.2145
20
-119.6640
0
VERTEX
8
CUT
10
163.1892
20
-119.7314
0
VERTEX
8
CUT
10
163.1595
20
-119.7969
0
VERTEX
8
CUT
10
163.1255
20
-119.8604
0
VERTEX
8
CUT
10
163.0875
20
-119.9215
0
VERTEX
8
CUT
10
163.0456
20
-119.9800
0
VERTEX
8
CUT
10
162.9999
20
-120.0357
0
VERTEX
8
CUT
10
162.9507
20
-120.0882
0
VERTEX
8
CUT
10
162.8982
20
-120.1374
0
VERTEX
8
CUT
10
162.8425
20
-120.1831
0
VERTEX
8
CUT
10
162.7840
20
-120.2250
0
VERTEX
8
CUT
10
162.7229
20
-120.2630
0
VERTEX
8
CUT
10
162.6594
20
-120.2970
0
VERTEX
8
CUT
10
162.5939
20
-120.3267
0
VERTEX
8
CUT
10
162.5265
20
-120.3520
0
VERTEX
8
CUT
10
162.4576
20
-120.3729
0
VERTEX
8
CUT
10
162.3875
20
-120.3893
0
VERTEX
8
CUT
10
162.3165
20
-120.4010
0
VERTEX
8
CUT
10
162.2449
20
-120.4081
0
VERTEX
8
CUT
10
162.1729
20
-120.4104
0
SEQEND
0
POLYLINE
8
CUT
66
1
70
1
0
VERTEX
8
CUT
10
49.8156
20
-122.8976
0
VERTEX
8
CUT
10
49.7439
20
-122.8906
0
VERTEX
8
CUT
10
49.6729
20
-122.8789
0
VERTEX
8
CUT
10
49.6028
20
-122.8625
0
VERTEX
8
CUT
10
49.5339
20
-122.8416
0
VERTEX
8
CUT
10
49.4665
20
-122.8163
0
VERTEX
8
CUT
10
49.4010
20
-122.7866
0
VERTEX
8
CUT
10
49.3375
20
-122.7526
0
VERTEX
8
CUT
10
49.2764
20
-122.7146
0
VERTEX
8
CUT
10
49.2179
20
-122.6727
0
VERTEX
8
CUT
10
49.1622
20
-122.6270
0
VERTEX
8
CUT
10
49.1097
20
-122.5778
0
VERTEX
8
CUT
10
49.0605
20
-122.5253
0
VERTEX
8
CUT
10
49.0148
20
-122.4696
0
VERTEX
8
CUT
10
48.9729
20
-122.4111
0
VERTEX
8
CUT
10
48.9349
20
-122.3500
0
VERTEX
8
CUT
10
48.9009
20
-122.2865
0
VERTEX
8
CUT
10
48.8712
20
-122.2210
0
VERTEX
8
CUT
10
48.8459
20
-122.1536
0
VERTEX
8
CUT
10
48.8250
20
-122.0847
0
VERTEX
8
CUT
10
48.8086
20
-122.0146
0
VERTEX
8
CUT
10
48.7969
20
-121.9436
0
VERTEX
8
CUT
10
48.7899
20
-121.8719
0
VERTEX
8
CUT
10
48.7875
20
-121.8000
0
VERTEX
8
CUT
10
48.7899
20
-121.7281
0
VERTEX
8
CUT
10
48.7969
20
-121.6564
0
VERTEX
8
CUT
10
48.8086
20
-121.5854
0
VERTEX
8
CUT
10
48.8250
20
-121.5153
0
VERTEX
8
CUT
10
48.8459
20
-121.4464
0
VERTEX
8
CUT
10
48.8712
20
-121.3790
0
VERTEX
8
CUT
10
48.9009
20
-121.3135
0
VERTEX
8
CUT
10
48.9349
20
-121.2500
0
VERTEX
8
CUT
10
48.9729
20
-121.1889
0
VERTEX
8
CUT
10
49.0148
20
-121.1304
0
VERTEX
8
CUT
10
49.0605
20
-121.0747
0
VERTEX
8
CUT
10
49.1097
20
-121.0222
0
VERTEX
8
CUT
10
49.1622
20
-120.9730
0
VERTEX
8
CUT
10
49.2179
20
-120.9273
0
VERTEX
8
CUT
10
49.2764
20
-120.8854
0
VERTEX
8
CUT
10
49.3375
20
-120.8474
0
VERTEX
8
CUT
10
49.4010
20
-120.8134
0
VERTEX
8
CUT
10
49.4665
20
-120.7837
0
VERTEX
8
CUT
10
49.5339
20
-120.7584
0
VERTEX
8
CUT
10
49.6028
20
-120.7375
0
VERTEX
8
CUT
10
49.6729
20
-120.7211
0
VERTEX
8
CUT
10
49.7439
20
-120.7094
0
VERTEX
8
CUT
10
49.8156
20
-120.7024
0
VERTEX
8
CUT
10
49.8875
20
-120.7000
0
VERTEX
8
CUT
10
49.9594
20
-120.7024
0
VERTEX
8
CUT
10
50.0311
20
-120.7094
0
VERTEX
8
CUT
10
50.1021
20
-120.7211
0
VERTEX
8
CUT
10
50.1722
20
-120.7375
0
VERTEX
8
CUT
10
50.2411
20
-120.7584
0
VERTEX
8
CUT
10
50.3085
20
-120.7837
0
VERTEX
8
CUT
10
50.3740
20
-120.8134
0
VERTEX
8
CUT
10
50.4375
20
-120.8474
0
VERTEX
8
CUT
10
50.4986
20
-120.8854
0
VERTEX
8
CUT
10
50.5571
20
-120.9273
0
VERTEX
8
CUT
10
50.6128
20
-120.9730
0
VERTEX
8
CUT
10
50.6653
20
-121.0222
0
VERTEX
8
CUT
10
50.7145
20
-121.0747
0
VERTEX
8
CUT
10
50.7602
20
-121.1304
0
VERTEX
8
CUT
10
50.8021
20
-121.1889
0
VERTEX
8
CUT
10
50.8401
20
-121.2500
0
VERTEX
8
CUT
10
50.8741
20
-121.3135
0
VERTEX
8
CUT
10
50.9038
20
-121.3790
0
VERTEX
8
CUT
10
50.9291
20
-121.4464
0
VERTEX
8
CUT
10
50.9500
20
-121.5153
0
VERTEX
8
CUT
10
50.9664
20
-121.5854
0
VERTEX
8
CUT
10
50.9781
20
-121.6564
0
VERTEX
8
CUT
10
50.9851
20
-121.7281
0
VERTEX
8
CUT
10
50.9875
20
-121.8000
0
VERTEX
8
CUT
10
50.9851
20
-121.8719
0
VERTEX
8
CUT
10
50.9781
20
-121.9436
0
VERTEX
8
CUT
10
50.9664
20
-122.0146
0
VERTEX
8
CUT
10
50.9500
20
-122.0847
0
VERTEX
8
CUT
10
50.9291
20
-122.1536
0
VERTEX
8
CUT
10
50.9038
20
-122.2210
0
VERTEX
8
CUT
10
50.8741
20
-122.2865
0
VERTEX
8
CUT
10
50.8401
20
-122.3500
0
VERTEX
8
CUT
10
50.8021
20
-122.4111
0
VERTEX
8
CUT
10
50.7602
20
-122.4696
0
VERTEX
8
CUT
10
50.7145
20
-122.5253
0
VERTEX
8
CUT
10
50.6653
20
-122.5778
0
VERTEX
8
CUT
10
50.6128
20
-122.6270
0
VERTEX
8
CUT
10
50.5571
20
-122.6727
0
VERTEX
8
CUT
10
50.4986
20
-122.7146
0
VERTEX
8
CUT
10
50.4375
20
-122.7526
0
VERTEX
8
CUT
10
50.3740
20
-122.7866
0
VERTEX
8
CUT
10
50.3085
20
-122.8163
0
VERTEX
8
CUT
10
50.2411
20
-122.8416
0
VERTEX
8
CUT
10
50.1722
20
-122.8625
0
VERTEX
8
CUT
10
50.1021
20
-122.8789
0
VERTEX
8
CUT
10
50.0311
20
-122.8906
0
VERTEX
8
CUT
10
49.9594
20
-122.8976
0
VERTEX
8
CUT
10
49.8875
20
-122.9000
0
SEQEND
0
POLYLINE
8
CUT
66
1
70
1
0
VERTEX
8
CUT
10
107.2031
20
-122.8976
0
VERTEX
8
CUT
10
107.1314
20
-122.8906
0
VERTEX
8
CUT
10
107.0604
20
-122.8789
0
VERTEX
8
CUT
10
106.9903
20
-122.8625
0
VERTEX
8
CUT
10
106.9214
20
-122.8416
0
VERTEX
8
CUT
10
106.8540
20
-122.8163
0
VERTEX
8
CUT
10
106.7885
20
-122.7866
0
VERTEX
8
CUT
10
106.7250
20
-122.7526
0
VERTEX
8
CUT
10
106.6639
20
-122.7146
0
VERTEX
8
CUT
10
106.6054
20
-122.6727
0
VERTEX
8
CUT
10
106.5497
20
-122.6270
0
VERTEX
8
CUT
10
106.4972
20
-122.5778
0
VERTEX
8
CUT
10
106.4480
20
-122.5253
0
VERTEX
8
CUT
10
106.4023
20
-122.4696
0
VERTEX
8
CUT
10
106.3604
20
-122.4111
0
VERTEX
8
CUT
10
106.3224
20
-122.3500
0
VERTEX
8
CUT
10
106.2884
20
-122.2865
0
VERTEX
8
CUT
10
106.2587
20
-122.2210
0
VERTEX
8
CUT
10
106.2334
20
-122.1536
0
VERTEX
8
CUT
10
106.2125
20
-122.0847
0
VERTEX
8
CUT
10
106.1961
20
-122.0146
0
VERTEX
8
CUT
10
106.1844
20
-121.9436
0
VERTEX
8
CUT
10
106.1774
20
-121.8719
0
VERTEX
8
CUT
10
106.1750
20
-121.8000
0
VERTEX
8
CUT
10
106.1774
20
-121.7281
0
VERTEX
8
CUT
10
106.1844
20
-121.6564
0
VERTEX
8
CUT
10
106.1961
20
-121.5854
0
VERTEX
8
CUT
10
106.2125
20
-121.5153
0
VERTEX
8
CUT
10
106.2334
20
-121.4464
0
VERTEX
8
CUT
10
106.2587
20
-121.3790
0
VERTEX
8
CUT
10
106.2884
20
-121.3135
0
VERTEX
8
CUT
10
106.3224
20
-121.2500
0
VERTEX
8
CUT
10
106.3604
20
-121.1889
0
VERTEX
8
CUT
10
106.4023
20
-121.1304
0
VERTEX
8
CUT
10
106.4480
20
-121.0747
0
VERTEX
8
CUT
10
106.4972
20
-121.0222
0
VERTEX
8
CUT
10
106.5497
20
-120.9730
0
VERTEX
8
CUT
10
106.6054
20
-120.9273
0
VERTEX
8
CUT
10
106.6639
20
-120.8854
0
VERTEX
8
CUT
10
106.7250
20
-120.8474
0
VERTEX
8
CUT
10
106.7885
20
-120.8134
0
VERTEX
8
CUT
10
106.8540
20
-120.7837
0
VERTEX
8
CUT
10
106.9214
20
-120.7584
0
VERTEX
8
CUT
10
106.9903
20
-120.7375
0
VERTEX
8
CUT
10
107.0604
20
-120.7211
0
VERTEX
8
CUT
10
107.1314
20
-120.7094
0
VERTEX
8
CUT
10
107.2031
20
-120.7024
0
VERTEX
8
CUT
10
107.2750
20
-120.7000
0
VERTEX
8
CUT
10
107.3469
20
-120.7024
0
VERTEX
8
CUT
10
107.4186
20
-120.7094
0
VERTEX
8
CUT
10
107.4896
20
-120.7211
0
VERTEX
8
CUT
10
107.5597
20
-120.7375
0
VERTEX
8
CUT
10
107.6286
20
-120.7584
0
VERTEX
8
CUT
10
107.6960
20
-120.7837
0
VERTEX
8
CUT
10
107.7615
20
-120.8134
0
VERTEX
8
CUT
10
107.8250
20
-120.8474
0
VERTEX
8
CUT
10
107.8861
20
-120.8854
0
VERTEX
8
CUT
10
107.9446
20
-120.9273
0
VERTEX
8
CUT
10
108.0003
20
-120.9730
0
VERTEX
8
CUT
10
108.0528
20
-121.0222
0
VERTEX
8
CUT
10
108.1020
20
-121.0747
0
VERTEX
8
CUT
10
108.1477
20
-121.1304
0
VERTEX
8
CUT
10
108.1896
20
-121.1889
0
VERTEX
8
CUT
10
108.2276
20
-121.2500
0
VERTEX
8
CUT
10
108.2616
20
-121.3135
0
VERTEX
8
CUT
10
108.2913
20
-121.3790
0
VERTEX
8
CUT
10
108.3166
20
-121.4464
0
VERTEX
8
CUT
10
108.3375
20
-121.5153
0
VERTEX
8
CUT
10
108.3539
20
-121.5854
0
VERTEX
8
CUT
10
108.3656
20
-121.6564
0
VERTEX
8
CUT
10
108.3726
20
-121.7281
0
VERTEX
8
CUT
10
108.3750
20
-121.8000
0
VERTEX
8
CUT
10
108.3726
20
-121.8719
0
VERTEX
8
CUT
10
108.3656
20
-121.9436
0
VERTEX
8
CUT
10
108.3539
20
-122.0146
0
VERTEX
8
CUT
10
108.3375
20
-122.0847
0
VERTEX
8
CUT
10
108.3166
20
-122.1536
0
VERTEX
8
CUT
10
108.2913
20
-122.2210
0
VERTEX
8
CUT
10
108.2616
20
-122.2865
0
VERTEX
8
CUT
10
108.2276
20
-122.3500
0
VERTEX
8
CUT
10
108.1896
20
-122.4111
0
VERTEX
8
CUT
10
108.1477
20
-122.4696
0
VERTEX
8
CUT
10
108.1020
20
-122.5253
0
VERTEX
8
CUT
10
108.0528
20
-122.5778
0
VERTEX
8
CUT
10
108.0003
20
-122.6270
0
VERTEX
8
CUT
10
107.9446
20
-122.6727
0
VERTEX
8
CUT
10
107.8861
20
-122.7146
0
VERTEX
8
CUT
10
107.8250
20
-122.7526
0
VERTEX
8
CUT
10
107.7615
20
-122.7866
0
VERTEX
8
CUT
10
107.6960
20
-122.8163
0
VERTEX
8
CUT
10
107.6286
20
-122.8416
0
VERTEX
8
CUT
10
107.5597
20
-122.8625
0
VERTEX
8
CUT
10
107.4896
20
-122.8789
0
VERTEX
8
CUT
10
107.4186
20
-122.8906
0
VERTEX
8
CUT
10
107.3469
20
-122.8976
0
VERTEX
8
CUT
10
107.2750
20
-122.9000
0
SEQEND
0
ENDSEC
0
EOF
