0
SECTION
2
HEADER
9
$INSUNITS
70
4
0
ENDSEC
0
SECTION
2
ENTITIES
0
POLYLINE
8
CUT
66
1
70
1
0
VERTEX
8
CUT
10
161.6800
20
-125.7732
0
VERTEX
8
CUT
10
162.4941
20
-125.6931
0
VERTEX
8
CUT
10
163.3011
20
-125.5598
0
VERTEX
8
CUT
10
164.0977
20
-125.3741
0
VERTEX
8
CUT
10
164.8805
20
-125.1366
0
VERTEX
8
CUT
10
165.6460
20
-124.8485
0
VERTEX
8
CUT
10
166.3911
20
-124.5109
0
VERTEX
8
CUT
10
167.1125
20
-124.1253
0
VERTEX
8
CUT
10
167.8071
20
-123.6934
0
VERTEX
8
CUT
10
168.4720
20
-123.2169
0
VERTEX
8
CUT
10
169.1043
20
-122.6980
0
VERTEX
8
CUT
10
169.7013
20
-122.1388
0
VERTEX
8
CUT
10
170.2605
20
-121.5418
0
VERTEX
8
CUT
10
170.7794
20
-120.9095
0
VERTEX
8
CUT
10
171.2559
20
-120.2446
0
VERTEX
8
CUT
10
171.6878
20
-119.5500
0
VERTEX
8
CUT
10
172.0734
20
-118.8286
0
VERTEX
8
CUT
10
172.4110
20
-118.0835
0
VERTEX
8
CUT
10
172.6991
20
-117.3180
0
VERTEX
8
CUT
10
172.9366
20
-116.5352
0
VERTEX
8
CUT
10
173.1223
20
-115.7386
0
VERTEX
8
CUT
10
173.2556
20
-114.9316
0
VERTEX
8
CUT
10
173.3357
20
-114.1175
0
VERTEX
8
CUT
10
173.3625
20
-113.3000
0
VERTEX
8
CUT
10
173.3625
20
-1.0000
0
VERTEX
8
CUT
10
173.3357
20
-0.1825
0
VERTEX
8
CUT
10
173.2556
20
0.6316
0
VERTEX
8
CUT
10
173.1223
20
1.4386
0
VERTEX
8
CUT
10
172.9366
20
2.2352
0
VERTEX
8
CUT
10
172.6991
20
3.0180
0
VERTEX
8
CUT
10
172.4110
20
3.7835
0
VERTEX
8
CUT
10
172.0734
20
4.5286
0
VERTEX
8
CUT
10
171.6878
20
5.2500
0
VERTEX
8
CUT
10
171.2559
20
5.9446
0
VERTEX
8
CUT
10
170.7794
20
6.6095
0
VERTEX
8
CUT
10
170.2605
20
7.2418
0
VERTEX
8
CUT
10
169.7013
20
7.8388
0
VERTEX
8
CUT
10
169.1043
20
8.3980
0
VERTEX
8
CUT
10
168.4720
20
8.9169
0
VERTEX
8
CUT
10
167.8071
20
9.3934
0
VERTEX
8
CUT
10
167.1125
20
9.8253
0
VERTEX
8
CUT
10
166.3911
20
10.2109
0
VERTEX
8
CUT
10
165.6460
20
10.5485
0
VERTEX
8
CUT
10
164.8805
20
10.8366
0
VERTEX
8
CUT
10
164.0977
20
11.0741
0
VERTEX
8
CUT
10
163.3011
20
11.2598
0
VERTEX
8
CUT
10
162.4941
20
11.3931
0
VERTEX
8
CUT
10
161.6800
20
11.4732
0
VERTEX
8
CUT
10
160.8625
20
11.5000
0
VERTEX
8
CUT
10
1.0000
20
11.5000
0
VERTEX
8
CUT
10
0.1825
20
11.4732
0
VERTEX
8
CUT
10
-0.6316
20
11.3931
0
VERTEX
8
CUT
10
-1.4386
20
11.2598
0
VERTEX
8
CUT
10
-2.2352
20
11.0741
0
VERTEX
8
CUT
10
-3.0180
20
10.8366
0
VERTEX
8
CUT
10
-3.7835
20
10.5485
0
VERTEX
8
CUT
10
-4.5286
20
10.2109
0
VERTEX
8
CUT
10
-5.2500
20
9.8253
0
VERTEX
8
CUT
10
-5.9446
20
9.3934
0
VERTEX
8
CUT
10
-6.6095
20
8.9169
0
VERTEX
8
CUT
10
-7.2418
20
8.3980
0
VERTEX
8
CUT
10
-7.8388
20
7.8388
0
VERTEX
8
CUT
10
-8.3980
20
7.2418
0
VERTEX
8
CUT
10
-8.9169
20
6.6095
0
VERTEX
8
CUT
10
-9.3934
20
5.9446
0
VERTEX
8
CUT
10
-9.8253
20
5.2500
0
VERTEX
8
CUT
10
-10.2109
20
4.5286
0
VERTEX
8
CUT
10
-10.5485
20
3.7835
0
VERTEX
8
CUT
10
-10.8366
20
3.0180
0
VERTEX
8
CUT
10
-11.0741
20
2.2352
0
VERTEX
8
CUT
10
-11.2598
20
1.4386
0
VERTEX
8
CUT
10
-11.3931
20
0.6316
0
VERTEX
8
CUT
10
-11.4732
20
-0.1825
0
VERTEX
8
CUT
10
-11.5000
20
-1.0000
0
VERTEX
8
CUT
10
-11.5000
20
-113.3000
0
VERTEX
8
CUT
10
-11.4732
20
-114.1175
0
VERTEX
8
CUT
10
-11.3931
20
-114.9316
0
VERTEX
8
CUT
10
-11.2598
20
-115.7386
0
VERTEX
8
CUT
10
-11.0741
20
-116.5352
0
VERTEX
8
CUT
10
-10.8366
20
-117.3180
0
VERTEX
8
CUT
10
-10.5485
20
-118.0835
0
VERTEX
8
CUT
10
-10.2109
20
-118.8286
0
VERTEX
8
CUT
10
-9.8253
20
-119.5500
0
VERTEX
8
CUT
10
-9.3934
20
-120.2446
0
VERTEX
8
CUT
10
-8.9169
20
-120.9095
0
VERTEX
8
CUT
10
-8.3980
20
-121.5418
0
VERTEX
8
CUT
10
-7.8388
20
-122.1388
0
VERTEX
8
CUT
10
-7.2418
20
-122.6980
0
VERTEX
8
CUT
10
-6.6095
20
-123.2169
0
VERTEX
8
CUT
10
-5.9446
20
-123.6934
0
VERTEX
8
CUT
10
-5.2500
20
-124.1253
0
VERTEX
8
CUT
10
-4.5286
20
-124.5109
0
VERTEX
8
CUT
10
-3.7835
20
-124.8485
0
VERTEX
8
CUT
10
-3.0180
20
-125.1366
0
VERTEX
8
CUT
10
-2.2352
20
-125.3741
0
VERTEX
8
CUT
10
-1.4386
20
-125.5598
0
VERTEX
8
CUT
10
-0.6316
20
-125.6931
0
VERTEX
8
CUT
10
0.1825
20
-125.7732
0
VERTEX
8
CUT
10
1.0000
20
-125.8000
0
VERTEX
8
CUT
10
160.8625
20
-125.8000
0
SEQEND
0
POLYLINE
8
CUT
66
1
70
1
0
VERTEX
8
CUT
10
16.9810
20
6.4024
0
VERTEX
8
CUT
10
16.9093
20
6.4094
0
VERTEX
8
CUT
10
16.8383
20
6.4211
0
VERTEX
8
CUT
10
16.7682
20
6.4375
0
VERTEX
8
CUT
10
16.6993
20
6.4584
0
VERTEX
8
CUT
10
16.6320
20
6.4837
0
VERTEX
8
CUT
10
16.5664
20
6.5134
0
VERTEX
8
CUT
10
16.5029
20
6.5474
0
VERTEX
8
CUT
10
16.4418
20
6.5854
0
VERTEX
8
CUT
10
16.3833
20
6.6273
0
VERTEX
8
CUT
10
16.3276
20
6.6730
0
VERTEX
8
CUT
10
16.2751
20
6.7222
0
VERTEX
8
CUT
10
16.2259
20
6.7747
0
VERTEX
8
CUT
10
16.1802
20
6.8304
0
VERTEX
8
CUT
10
16.1383
20
6.8889
0
VERTEX
8
CUT
10
16.1003
20
6.9500
0
VERTEX
8
CUT
10
16.0663
20
7.0135
0
VERTEX
8
CUT
10
16.0366
20
7.0790
0
VERTEX
8
CUT
10
16.0113
20
7.1464
0
VERTEX
8
CUT
10
15.9904
20
7.2153
0
VERTEX
8
CUT
10
15.9740
20
7.2854
0
VERTEX
8
CUT
10
15.9623
20
7.3564
0
VERTEX
8
CUT
10
15.9553
20
7.4281
0
VERTEX
8
CUT
10
15.9529
20
7.5000
0
VERTEX
8
CUT
10
15.9553
20
7.5719
0
VERTEX
8
CUT
10
15.9623
20
7.6436
0
VERTEX
8
CUT
10
15.9740
20
7.7146
0
VERTEX
8
CUT
10
15.9904
20
7.7847
0
VERTEX
8
CUT
10
16.0113
20
7.8536
0
VERTEX
8
CUT
10
16.0366
20
7.9210
0
VERTEX
8
CUT
10
16.0663
20
7.9865
0
VERTEX
8
CUT
10
16.1003
20
8.0500
0
VERTEX
8
CUT
10
16.1383
20
8.1111
0
VERTEX
8
CUT
10
16.1802
20
8.1696
0
VERTEX
8
CUT
10
16.2259
20
8.2253
0
VERTEX
8
CUT
10
16.2751
20
8.2778
0
VERTEX
8
CUT
10
16.3276
20
8.3270
0
VERTEX
8
CUT
10
16.3833
20
8.3727
0
VERTEX
8
CUT
10
16.4418
20
8.4146
0
VERTEX
8
CUT
10
16.5029
20
8.4526
0
VERTEX
8
CUT
10
16.5664
20
8.4866
0
VERTEX
8
CUT
10
16.6320
20
8.5163
0
VERTEX
8
CUT
10
16.6993
20
8.5416
0
VERTEX
8
CUT
10
16.7682
20
8.5625
0
VERTEX
8
CUT
10
16.8383
20
8.5789
0
VERTEX
8
CUT
10
16.9093
20
8.5906
0
VERTEX
8
CUT
10
16.9810
20
8.5976
0
VERTEX
8
CUT
10
17.0529
20
8.6000
0
VERTEX
8
CUT
10
17.1249
20
8.5976
0
VERTEX
8
CUT
10
17.1965
20
8.5906
0
VERTEX
8
CUT
10
17.2675
20
8.5789
0
VERTEX
8
CUT
10
17.3376
20
8.5625
0
VERTEX
8
CUT
10
17.4065
20
8.5416
0
VERTEX
8
CUT
10
17.4739
20
8.5163
0
VERTEX
8
CUT
10
17.5394
20
8.4866
0
VERTEX
8
CUT
10
17.6029
20
8.4526
0
VERTEX
8
CUT
10
17.6640
20
8.4146
0
VERTEX
8
CUT
10
17.7225
20
8.3727
0
VERTEX
8
CUT
10
17.7782
20
8.3270
0
VERTEX
8
CUT
10
17.8307
20
8.2778
0
VERTEX
8
CUT
10
17.8799
20
8.2253
0
VERTEX
8
CUT
10
17.9256
20
8.1696
0
VERTEX
8
CUT
10
17.9675
20
8.1111
0
VERTEX
8
CUT
10
18.0055
20
8.0500
0
VERTEX
8
CUT
10
18.0395
20
7.9865
0
VERTEX
8
CUT
10
18.0692
20
7.9210
0
VERTEX
8
CUT
10
18.0945
20
7.8536
0
VERTEX
8
CUT
10
18.1154
20
7.7847
0
VERTEX
8
CUT
10
18.1318
20
7.7146
0
VERTEX
8
CUT
10
18.1435
20
7.6436
0
VERTEX
8
CUT
10
18.1506
20
7.5719
0
VERTEX
8
CUT
10
18.1529
20
7.5000
0
VERTEX
8
CUT
10
18.1506
20
7.4281
0
VERTEX
8
CUT
10
18.1435
20
7.3564
0
VERTEX
8
CUT
10
18.1318
20
7.2854
0
VERTEX
8
CUT
10
18.1154
20
7.2153
0
VERTEX
8
CUT
10
18.0945
20
7.1464
0
VERTEX
8
CUT
10
18.0692
20
7.0790
0
VERTEX
8
CUT
10
18.0395
20
7.0135
0
VERTEX
8
CUT
10
18.0055
20
6.9500
0
VERTEX
8
CUT
10
17.9675
20
6.8889
0
VERTEX
8
CUT
10
17.9256
20
6.8304
0
VERTEX
8
CUT
10
17.8799
20
6.7747
0
VERTEX
8
CUT
10
17.8307
20
6.7222
0
VERTEX
8
CUT
10
17.7782
20
6.6730
0
VERTEX
8
CUT
10
17.7225
20
6.6273
0
VERTEX
8
CUT
10
17.6640
20
6.5854
0
VERTEX
8
CUT
10
17.6029
20
6.5474
0
VERTEX
8
CUT
10
17.5394
20
6.5134
0
VERTEX
8
CUT
10
17.4739
20
6.4837
0
VERTEX
8
CUT
10
17.4065
20
6.4584
0
VERTEX
8
CUT
10
17.3376
20
6.4375
0
VERTEX
8
CUT
10
17.2675
20
6.4211
0
VERTEX
8
CUT
10
17.1965
20
6.4094
0
VERTEX
8
CUT
10
17.1249
20
6.4024
0
VERTEX
8
CUT
10
17.0529
20
6.4000
0
SEQEND
0
POLYLINE
8
CUT
66
1
70
1
0
VERTEX
8
CUT
10
51.3822
20
6.4024
0
VERTEX
8
CUT
10
51.3106
20
6.4094
0
VERTEX
8
CUT
10
51.2396
20
6.4211
0
VERTEX
8
CUT
10
51.1695
20
6.4375
0
VERTEX
8
CUT
10
51.1006
20
6.4584
0
VERTEX
8
CUT
10
51.0332
20
6.4837
0
VERTEX
8
CUT
10
50.9676
20
6.5134
0
VERTEX
8
CUT
10
50.9042
20
6.5474
0
VERTEX
8
CUT
10
50.8430
20
6.5854
0
VERTEX
8
CUT
10
50.7845
20
6.6273
0
VERTEX
8
CUT
10
50.7289
20
6.6730
0
VERTEX
8
CUT
10
50.6763
20
6.7222
0
VERTEX
8
CUT
10
50.6271
20
6.7747
0
VERTEX
8
CUT
10
50.5815
20
6.8304
0
VERTEX
8
CUT
10
50.5396
20
6.8889
0
VERTEX
8
CUT
10
50.5015
20
6.9500
0
VERTEX
8
CUT
10
50.4676
20
7.0135
0
VERTEX
8
CUT
10
50.4379
20
7.0790
0
VERTEX
8
CUT
10
50.4125
20
7.1464
0
VERTEX
8
CUT
10
50.3916
20
7.2153
0
VERTEX
8
CUT
10
50.3753
20
7.2854
0
VERTEX
8
CUT
10
50.3636
20
7.3564
0
VERTEX
8
CUT
10
50.3565
20
7.4281
0
VERTEX
8
CUT
10
50.3542
20
7.5000
0
VERTEX
8
CUT
10
50.3565
20
7.5719
0
VERTEX
8
CUT
10
50.3636
20
7.6436
0
VERTEX
8
CUT
10
50.3753
20
7.7146
0
VERTEX
8
CUT
10
50.3916
20
7.7847
0
VERTEX
8
CUT
10
50.4125
20
7.8536
0
VERTEX
8
CUT
10
50.4379
20
7.9210
0
VERTEX
8
CUT
10
50.4676
20
7.9865
0
VERTEX
8
CUT
10
50.5015
20
8.0500
0
VERTEX
8
CUT
10
50.5396
20
8.1111
0
VERTEX
8
CUT
10
50.5815
20
8.1696
0
VERTEX
8
CUT
10
50.6271
20
8.2253
0
VERTEX
8
CUT
10
50.6763
20
8.2778
0
VERTEX
8
CUT
10
50.7289
20
8.3270
0
VERTEX
8
CUT
10
50.7845
20
8.3727
0
VERTEX
8
CUT
10
50.8430
20
8.4146
0
VERTEX
8
CUT
10
50.9042
20
8.4526
0
VERTEX
8
CUT
10
50.9676
20
8.4866
0
VERTEX
8
CUT
10
51.0332
20
8.5163
0
VERTEX
8
CUT
10
51.1006
20
8.5416
0
VERTEX
8
CUT
10
51.1695
20
8.5625
0
VERTEX
8
CUT
10
51.2396
20
8.5789
0
VERTEX
8
CUT
10
51.3106
20
8.5906
0
VERTEX
8
CUT
10
51.3822
20
8.5976
0
VERTEX
8
CUT
10
51.4542
20
8.6000
0
VERTEX
8
CUT
10
51.5261
20
8.5976
0
VERTEX
8
CUT
10
51.5977
20
8.5906
0
VERTEX
8
CUT
10
51.6688
20
8.5789
0
VERTEX
8
CUT
10
51.7389
20
8.5625
0
VERTEX
8
CUT
10
51.8078
20
8.5416
0
VERTEX
8
CUT
10
51.8751
20
8.5163
0
VERTEX
8
CUT
10
51.9407
20
8.4866
0
VERTEX
8
CUT
10
52.0042
20
8.4526
0
VERTEX
8
CUT
10
52.0653
20
8.4146
0
VERTEX
8
CUT
10
52.1238
20
8.3727
0
VERTEX
8
CUT
10
52.1794
20
8.3270
0
VERTEX
8
CUT
10
52.2320
20
8.2778
0
VERTEX
8
CUT
10
52.2812
20
8.2253
0
VERTEX
8
CUT
10
52.3269
20
8.1696
0
VERTEX
8
CUT
10
52.3688
20
8.1111
0
VERTEX
8
CUT
10
52.4068
20
8.0500
0
VERTEX
8
CUT
10
52.4407
20
7.9865
0
VERTEX
8
CUT
10
52.4704
20
7.9210
0
VERTEX
8
CUT
10
52.4958
20
7.8536
0
VERTEX
8
CUT
10
52.5167
20
7.7847
0
VERTEX
8
CUT
10
52.5330
20
7.7146
0
VERTEX
8
CUT
10
52.5448
20
7.6436
0
VERTEX
8
CUT
10
52.5518
20
7.5719
0
VERTEX
8
CUT
10
52.5542
20
7.5000
0
VERTEX
8
CUT
10
52.5518
20
7.4281
0
VERTEX
8
CUT
10
52.5448
20
7.3564
0
VERTEX
8
CUT
10
52.5330
20
7.2854
0
VERTEX
8
CUT
10
52.5167
20
7.2153
0
VERTEX
8
CUT
10
52.4958
20
7.1464
0
VERTEX
8
CUT
10
52.4704
20
7.0790
0
VERTEX
8
CUT
10
52.4407
20
7.0135
0
VERTEX
8
CUT
10
52.4068
20
6.9500
0
VERTEX
8
CUT
10
52.3688
20
6.8889
0
VERTEX
8
CUT
10
52.3269
20
6.8304
0
VERTEX
8
CUT
10
52.2812
20
6.7747
0
VERTEX
8
CUT
10
52.2320
20
6.7222
0
VERTEX
8
CUT
10
52.1794
20
6.6730
0
VERTEX
8
CUT
10
52.1238
20
6.6273
0
VERTEX
8
CUT
10
52.0653
20
6.5854
0
VERTEX
8
CUT
10
52.0042
20
6.5474
0
VERTEX
8
CUT
10
51.9407
20
6.5134
0
VERTEX
8
CUT
10
51.8751
20
6.4837
0
VERTEX
8
CUT
10
51.8078
20
6.4584
0
VERTEX
8
CUT
10
51.7389
20
6.4375
0
VERTEX
8
CUT
10
51.6688
20
6.4211
0
VERTEX
8
CUT
10
51.5977
20
6.4094
0
VERTEX
8
CUT
10
51.5261
20
6.4024
0
VERTEX
8
CUT
10
51.4542
20
6.4000
0
SEQEND
0
POLYLINE
8
CUT
66
1
70
1
0
VERTEX
8
CUT
10
110.3364
20
6.4024
0
VERTEX
8
CUT
10
110.2648
20
6.4094
0
VERTEX
8
CUT
10
110.1937
20
6.4211
0
VERTEX
8
CUT
10
110.1236
20
6.4375
0
VERTEX
8
CUT
10
110.0547
20
6.4584
0
VERTEX
8
CUT
10
109.9874
20
6.4837
0
VERTEX
8
CUT
10
109.9218
20
6.5134
0
VERTEX
8
CUT
10
109.8583
20
6.5474
0
VERTEX
8
CUT
10
109.7972
20
6.5854
0
VERTEX
8
CUT
10
109.7387
20
6.6273
0
VERTEX
8
CUT
10
109.6831
20
6.6730
0
VERTEX
8
CUT
10
109.6305
20
6.7222
0
VERTEX
8
CUT
10
109.5813
20
6.7747
0
VERTEX
8
CUT
10
109.5356
20
6.8304
0
VERTEX
8
CUT
10
109.4937
20
6.8889
0
VERTEX
8
CUT
10
109.4557
20
6.9500
0
VERTEX
8
CUT
10
109.4218
20
7.0135
0
VERTEX
8
CUT
10
109.3921
20
7.0790
0
VERTEX
8
CUT
10
109.3667
20
7.1464
0
VERTEX
8
CUT
10
109.3458
20
7.2153
0
VERTEX
8
CUT
10
109.3295
20
7.2854
0
VERTEX
8
CUT
10
109.3177
20
7.3564
0
VERTEX
8
CUT
10
109.3107
20
7.4281
0
VERTEX
8
CUT
10
109.3083
20
7.5000
0
VERTEX
8
CUT
10
109.3107
20
7.5719
0
VERTEX
8
CUT
10
109.3177
20
7.6436
0
VERTEX
8
CUT
10
109.3295
20
7.7146
0
VERTEX
8
CUT
10
109.3458
20
7.7847
0
VERTEX
8
CUT
10
109.3667
20
7.8536
0
VERTEX
8
CUT
10
109.3921
20
7.9210
0
VERTEX
8
CUT
10
109.4218
20
7.9865
0
VERTEX
8
CUT
10
109.4557
20
8.0500
0
VERTEX
8
CUT
10
109.4937
20
8.1111
0
VERTEX
8
CUT
10
109.5356
20
8.1696
0
VERTEX
8
CUT
10
109.5813
20
8.2253
0
VERTEX
8
CUT
10
109.6305
20
8.2778
0
VERTEX
8
CUT
10
109.6831
20
8.3270
0
VERTEX
8
CUT
10
109.7387
20
8.3727
0
VERTEX
8
CUT
10
109.7972
20
8.4146
0
VERTEX
8
CUT
10
109.8583
20
8.4526
0
VERTEX
8
CUT
10
109.9218
20
8.4866
0
VERTEX
8
CUT
10
109.9874
20
8.5163
0
VERTEX
8
CUT
10
110.0547
20
8.5416
0
VERTEX
8
CUT
10
110.1236
20
8.5625
0
VERTEX
8
CUT
10
110.1937
20
8.5789
0
VERTEX
8
CUT
10
110.2648
20
8.5906
0
VERTEX
8
CUT
10
110.3364
20
8.5976
0
VERTEX
8
CUT
10
110.4083
20
8.6000
0
VERTEX
8
CUT
10
110.4803
20
8.5976
0
VERTEX
8
CUT
10
110.5519
20
8.5906
0
VERTEX
8
CUT
10
110.6229
20
8.5789
0
VERTEX
8
CUT
10
110.6930
20
8.5625
0
VERTEX
8
CUT
10
110.7619
20
8.5416
0
VERTEX
8
CUT
10
110.8293
20
8.5163
0
VERTEX
8
CUT
10
110.8949
20
8.4866
0
VERTEX
8
CUT
10
110.9583
20
8.4526
0
VERTEX
8
CUT
10
111.0195
20
8.4146
0
VERTEX
8
CUT
10
111.0780
20
8.3727
0
VERTEX
8
CUT
10
111.1336
20
8.3270
0
VERTEX
8
CUT
10
111.1862
20
8.2778
0
VERTEX
8
CUT
10
111.2354
20
8.2253
0
VERTEX
8
CUT
10
111.2810
20
8.1696
0
VERTEX
8
CUT
10
111.3229
20
8.1111
0
VERTEX
8
CUT
10
111.3610
20
8.0500
0
VERTEX
8
CUT
10
111.3949
20
7.9865
0
VERTEX
8
CUT
10
111.4246
20
7.9210
0
VERTEX
8
CUT
10
111.4500
20
7.8536
0
VERTEX
8
CUT
10
111.4709
20
7.7847
0
VERTEX
8
CUT
10
111.4872
20
7.7146
0
VERTEX
8
CUT
10
111.4989
20
7.6436
0
VERTEX
8
CUT
10
111.5060
20
7.5719
0
VERTEX
8
CUT
10
111.5083
20
7.5000
0
VERTEX
8
CUT
10
111.5060
20
7.4281
0
VERTEX
8
CUT
10
111.4989
20
7.3564
0
VERTEX
8
CUT
10
111.4872
20
7.2854
0
VERTEX
8
CUT
10
111.4709
20
7.2153
0
VERTEX
8
CUT
10
111.4500
20
7.1464
0
VERTEX
8
CUT
10
111.4246
20
7.0790
0
VERTEX
8
CUT
10
111.3949
20
7.0135
0
VERTEX
8
CUT
10
111.3610
20
6.9500
0
VERTEX
8
CUT
10
111.3229
20
6.8889
0
VERTEX
8
CUT
10
111.2810
20
6.8304
0
VERTEX
8
CUT
10
111.2354
20
6.7747
0
VERTEX
8
CUT
10
111.1862
20
6.7222
0
VERTEX
8
CUT
10
111.1336
20
6.6730
0
VERTEX
8
CUT
10
111.0780
20
6.6273
0
VERTEX
8
CUT
10
111.0195
20
6.5854
0
VERTEX
8
CUT
10
110.9583
20
6.5474
0
VERTEX
8
CUT
10
110.8949
20
6.5134
0
VERTEX
8
CUT
10
110.8293
20
6.4837
0
VERTEX
8
CUT
10
110.7619
20
6.4584
0
VERTEX
8
CUT
10
110.6930
20
6.4375
0
VERTEX
8
CUT
10
110.6229
20
6.4211
0
VERTEX
8
CUT
10
110.5519
20
6.4094
0
VERTEX
8
CUT
10
110.4803
20
6.4024
0
VERTEX
8
CUT
10
110.4083
20
6.4000
0
SEQEND
0
POLYLINE
8
CUT
66
1
70
1
0
VERTEX
8
CUT
10
152.1175
20
0.3950
0
VERTEX
8
CUT
10
165.0075
20
0.3950
0
VERTEX
8
CUT
10
165.0075
20
-38.4950
0
VERTEX
8
CUT
10
152.1175
20
-38.4950
0
SEQEND
0
POLYLINE
8
CUT
66
1
70
1
0
VERTEX
8
CUT
10
169.2906
20
-3.7026
0
VERTEX
8
CUT
10
169.2189
20
-3.6956
0
VERTEX
8
CUT
10
169.1479
20
-3.6839
0
VERTEX
8
CUT
10
169.0778
20
-3.6675
0
VERTEX
8
CUT
10
169.0089
20
-3.6466
0
VERTEX
8
CUT
10
168.9415
20
-3.6213
0
VERTEX
8
CUT
10
168.8760
20
-3.5916
0
VERTEX
8
CUT
10
168.8125
20
-3.5576
0
VERTEX
8
CUT
10
168.7514
20
-3.5196
0
VERTEX
8
CUT
10
168.6929
20
-3.4777
0
VERTEX
8
CUT
10
168.6372
20
-3.4320
0
VERTEX
8
CUT
10
168.5847
20
-3.3828
0
VERTEX
8
CUT
10
168.5355
20
-3.3303
0
VERTEX
8
CUT
10
168.4898
20
-3.2746
0
VERTEX
8
CUT
10
168.4479
20
-3.2161
0
VERTEX
8
CUT
10
168.4099
20
-3.1550
0
VERTEX
8
CUT
10
168.3759
20
-3.0915
0
VERTEX
8
CUT
10
168.3462
20
-3.0260
0
VERTEX
8
CUT
10
168.3209
20
-2.9586
0
VERTEX
8
CUT
10
168.3000
20
-2.8897
0
VERTEX
8
CUT
10
168.2836
20
-2.8196
0
VERTEX
8
CUT
10
168.2719
20
-2.7486
0
VERTEX
8
CUT
10
168.2649
20
-2.6769
0
VERTEX
8
CUT
10
168.2625
20
-2.6050
0
VERTEX
8
CUT
10
168.2649
20
-2.5331
0
VERTEX
8
CUT
10
168.2719
20
-2.4614
0
VERTEX
8
CUT
10
168.2836
20
-2.3904
0
VERTEX
8
CUT
10
168.3000
20
-2.3203
0
VERTEX
8
CUT
10
168.3209
20
-2.2514
0
VERTEX
8
CUT
10
168.3462
20
-2.1840
0
VERTEX
8
CUT
10
168.3759
20
-2.1185
0
VERTEX
8
CUT
10
168.4099
20
-2.0550
0
VERTEX
8
CUT
10
168.4479
20
-1.9939
0
VERTEX
8
CUT
10
168.4898
20
-1.9354
0
VERTEX
8
CUT
10
168.5355
20
-1.8797
0
VERTEX
8
CUT
10
168.5847
20
-1.8272
0
VERTEX
8
CUT
10
168.6372
20
-1.7780
0
VERTEX
8
CUT
10
168.6929
20
-1.7323
0
VERTEX
8
CUT
10
168.7514
20
-1.6904
0
VERTEX
8
CUT
10
168.8125
20
-1.6524
0
VERTEX
8
CUT
10
168.8760
20
-1.6184
0
VERTEX
8
CUT
10
168.9415
20
-1.5887
0
VERTEX
8
CUT
10
169.0089
20
-1.5634
0
VERTEX
8
CUT
10
169.0778
20
-1.5425
0
VERTEX
8
CUT
10
169.1479
20
-1.5261
0
VERTEX
8
CUT
10
169.2189
20
-1.5144
0
VERTEX
8
CUT
10
169.2906
20
-1.5074
0
VERTEX
8
CUT
10
169.3625
20
-1.5050
0
VERTEX
8
CUT
10
169.4344
20
-1.5074
0
VERTEX
8
CUT
10
169.5061
20
-1.5144
0
VERTEX
8
CUT
10
169.5771
20
-1.5261
0
VERTEX
8
CUT
10
169.6472
20
-1.5425
0
VERTEX
8
CUT
10
169.7161
20
-1.5634
0
VERTEX
8
CUT
10
169.7835
20
-1.5887
0
VERTEX
8
CUT
10
169.8490
20
-1.6184
0
VERTEX
8
CUT
10
169.9125
20
-1.6524
0
VERTEX
8
CUT
10
169.9736
20
-1.6904
0
VERTEX
8
CUT
10
170.0321
20
-1.7323
0
VERTEX
8
CUT
10
170.0878
20
-1.7780
0
VERTEX
8
CUT
10
170.1403
20
-1.8272
0
VERTEX
8
CUT
10
170.1895
20
-1.8797
0
VERTEX
8
CUT
10
170.2352
20
-1.9354
0
VERTEX
8
CUT
10
170.2771
20
-1.9939
0
VERTEX
8
CUT
10
170.3151
20
-2.0550
0
VERTEX
8
CUT
10
170.3491
20
-2.1185
0
VERTEX
8
CUT
10
170.3788
20
-2.1840
0
VERTEX
8
CUT
10
170.4041
20
-2.2514
0
VERTEX
8
CUT
10
170.4250
20
-2.3203
0
VERTEX
8
CUT
10
170.4414
20
-2.3904
0
VERTEX
8
CUT
10
170.4531
20
-2.4614
0
VERTEX
8
CUT
10
170.4601
20
-2.5331
0
VERTEX
8
CUT
10
170.4625
20
-2.6050
0
VERTEX
8
CUT
10
170.4601
20
-2.6769
0
VERTEX
8
CUT
10
170.4531
20
-2.7486
0
VERTEX
8
CUT
10
170.4414
20
-2.8196
0
VERTEX
8
CUT
10
170.4250
20
-2.8897
0
VERTEX
8
CUT
10
170.4041
20
-2.9586
0
VERTEX
8
CUT
10
170.3788
20
-3.0260
0
VERTEX
8
CUT
10
170.3491
20
-3.0915
0
VERTEX
8
CUT
10
170.3151
20
-3.1550
0
VERTEX
8
CUT
10
170.2771
20
-3.2161
0
VERTEX
8
CUT
10
170.2352
20
-3.2746
0
VERTEX
8
CUT
10
170.1895
20
-3.3303
0
VERTEX
8
CUT
10
170.1403
20
-3.3828
0
VERTEX
8
CUT
10
170.0878
20
-3.4320
0
VERTEX
8
CUT
10
170.0321
20
-3.4777
0
VERTEX
8
CUT
10
169.9736
20
-3.5196
0
VERTEX
8
CUT
10
169.9125
20
-3.5576
0
VERTEX
8
CUT
10
169.8490
20
-3.5916
0
VERTEX
8
CUT
10
169.7835
20
-3.6213
0
VERTEX
8
CUT
10
169.7161
20
-3.6466
0
VERTEX
8
CUT
10
169.6472
20
-3.6675
0
VERTEX
8
CUT
10
169.5771
20
-3.6839
0
VERTEX
8
CUT
10
169.5061
20
-3.6956
0
VERTEX
8
CUT
10
169.4344
20
-3.7026
0
VERTEX
8
CUT
10
169.3625
20
-3.7050
0
SEQEND
0
POLYLINE
8
CUT
66
1
70
1
0
VERTEX
8
CUT
10
2.5250
20
-2.5250
0
VERTEX
8
CUT
10
16.5250
20
-2.5250
0
VERTEX
8
CUT
10
16.5250
20
-16.5250
0
VERTEX
8
CUT
10
2.5250
20
-16.5250
0
SEQEND
0
POLYLINE
8
CUT
66
1
70
1
0
VERTEX
8
CUT
10
21.5750
20
-2.5250
0
VERTEX
8
CUT
10
35.5750
20
-2.5250
0
VERTEX
8
CUT
10
35.5750
20
-16.5250
0
VERTEX
8
CUT
10
21.5750
20
-16.5250
0
SEQEND
0
POLYLINE
8
CUT
66
1
70
1
0
VERTEX
8
CUT
10
40.6250
20
-2.5250
0
VERTEX
8
CUT
10
54.6250
20
-2.5250
0
VERTEX
8
CUT
10
54.6250
20
-16.5250
0
VERTEX
8
CUT
10
40.6250
20
-16.5250
0
SEQEND
0
POLYLINE
8
CUT
66
1
70
1
0
VERTEX
8
CUT
10
59.6750
20
-2.5250
0
VERTEX
8
CUT
10
73.6750
20
-2.5250
0
VERTEX
8
CUT
10
73.6750
20
-16.5250
0
VERTEX
8
CUT
10
59.6750
20
-16.5250
0
SEQEND
0
POLYLINE
8
CUT
66
1
70
1
0
VERTEX
8
CUT
10
78.7250
20
-2.5250
0
VERTEX
8
CUT
10
92.7250
20
-2.5250
0
VERTEX
8
CUT
10
92.7250
20
-16.5250
0
VERTEX
8
CUT
10
78.7250
20
-16.5250
0
SEQEND
0
POLYLINE
8
CUT
66
1
70
1
0
VERTEX
8
CUT
10
97.7750
20
-2.5250
0
VERTEX
8
CUT
10
111.7750
20
-2.5250
0
VERTEX
8
CUT
10
111.7750
20
-16.5250
0
VERTEX
8
CUT
10
97.7750
20
-16.5250
0
SEQEND
0
POLYLINE
8
CUT
66
1
70
1
0
VERTEX
8
CUT
10
116.8250
20
-2.5250
0
VERTEX
8
CUT
10
130.8250
20
-2.5250
0
VERTEX
8
CUT
10
130.8250
20
-16.5250
0
VERTEX
8
CUT
10
116.8250
20
-16.5250
0
SEQEND
0
POLYLINE
8
CUT
66
1
70
1
0
VERTEX
8
CUT
10
135.8750
20
-2.5250
0
VERTEX
8
CUT
10
149.8750
20
-2.5250
0
VERTEX
8
CUT
10
149.8750
20
-16.5250
0
VERTEX
8
CUT
10
135.8750
20
-16.5250
0
SEQEND
0
POLYLINE
8
CUT
66
1
70
1
0
VERTEX
8
CUT
10
-7.5719
20
-18.1506
0
VERTEX
8
CUT
10
-7.6436
20
-18.1435
0
VERTEX
8
CUT
10
-7.7146
20
-18.1318
0
VERTEX
8
CUT
10
-7.7847
20
-18.1154
0
VERTEX
8
CUT
10
-7.8536
20
-18.0945
0
VERTEX
8
CUT
10
-7.9210
20
-18.0692
0
VERTEX
8
CUT
10
-7.9865
20
-18.0395
0
VERTEX
8
CUT
10
-8.0500
20
-18.0055
0
VERTEX
8
CUT
10
-8.1111
20
-17.9675
0
VERTEX
8
CUT
10
-8.1696
20
-17.9256
0
VERTEX
8
CUT
10
-8.2253
20
-17.8799
0
VERTEX
8
CUT
10
-8.2778
20
-17.8307
0
VERTEX
8
CUT
10
-8.3270
20
-17.7782
0
VERTEX
8
CUT
10
-8.3727
20
-17.7225
0
VERTEX
8
CUT
10
-8.4146
20
-17.6640
0
VERTEX
8
CUT
10
-8.4526
20
-17.6029
0
VERTEX
8
CUT
10
-8.4866
20
-17.5394
0
VERTEX
8
CUT
10
-8.5163
20
-17.4739
0
VERTEX
8
CUT
10
-8.5416
20
-17.4065
0
VERTEX
8
CUT
10
-8.5625
20
-17.3376
0
VERTEX
8
CUT
10
-8.5789
20
-17.2675
0
VERTEX
8
CUT
10
-8.5906
20
-17.1965
0
VERTEX
8
CUT
10
-8.5976
20
-17.1249
0
VERTEX
8
CUT
10
-8.6000
20
-17.0529
0
VERTEX
8
CUT
10
-8.5976
20
-16.9810
0
VERTEX
8
CUT
10
-8.5906
20
-16.9093
0
VERTEX
8
CUT
10
-8.5789
20
-16.8383
0
VERTEX
8
CUT
10
-8.5625
20
-16.7682
0
VERTEX
8
CUT
10
-8.5416
20
-16.6993
0
VERTEX
8
CUT
10
-8.5163
20
-16.6320
0
VERTEX
8
CUT
10
-8.4866
20
-16.5664
0
VERTEX
8
CUT
10
-8.4526
20
-16.5029
0
VERTEX
8
CUT
10
-8.4146
20
-16.4418
0
VERTEX
8
CUT
10
-8.3727
20
-16.3833
0
VERTEX
8
CUT
10
-8.3270
20
-16.3276
0
VERTEX
8
CUT
10
-8.2778
20
-16.2751
0
VERTEX
8
CUT
10
-8.2253
20
-16.2259
0
VERTEX
8
CUT
10
-8.1696
20
-16.1802
0
VERTEX
8
CUT
10
-8.1111
20
-16.1383
0
VERTEX
8
CUT
10
-8.0500
20
-16.1003
0
VERTEX
8
CUT
10
-7.9865
20
-16.0663
0
VERTEX
8
CUT
10
-7.9210
20
-16.0366
0
VERTEX
8
CUT
10
-7.8536
20
-16.0113
0
VERTEX
8
CUT
10
-7.7847
20
-15.9904
0
VERTEX
8
CUT
10
-7.7146
20
-15.9740
0
VERTEX
8
CUT
10
-7.6436
20
-15.9623
0
VERTEX
8
CUT
10
-7.5719
20
-15.9553
0
VERTEX
8
CUT
10
-7.5000
20
-15.9529
0
VERTEX
8
CUT
10
-7.4281
20
-15.9553
0
VERTEX
8
CUT
10
-7.3564
20
-15.9623
0
VERTEX
8
CUT
10
-7.2854
20
-15.9740
0
VERTEX
8
CUT
10
-7.2153
20
-15.9904
0
VERTEX
8
CUT
10
-7.1464
20
-16.0113
0
VERTEX
8
CUT
10
-7.0790
20
-16.0366
0
VERTEX
8
CUT
10
-7.0135
20
-16.0663
0
VERTEX
8
CUT
10
-6.9500
20
-16.1003
0
VERTEX
8
CUT
10
-6.8889
20
-16.1383
0
VERTEX
8
CUT
10
-6.8304
20
-16.1802
0
VERTEX
8
CUT
10
-6.7747
20
-16.2259
0
VERTEX
8
CUT
10
-6.7222
20
-16.2751
0
VERTEX
8
CUT
10
-6.6730
20
-16.3276
0
VERTEX
8
CUT
10
-6.6273
20
-16.3833
0
VERTEX
8
CUT
10
-6.5854
20
-16.4418
0
VERTEX
8
CUT
10
-6.5474
20
-16.5029
0
VERTEX
8
CUT
10
-6.5134
20
-16.5664
0
VERTEX
8
CUT
10
-6.4837
20
-16.6320
0
VERTEX
8
CUT
10
-6.4584
20
-16.6993
0
VERTEX
8
CUT
10
-6.4375
20
-16.7682
0
VERTEX
8
CUT
10
-6.4211
20
-16.8383
0
VERTEX
8
CUT
10
-6.4094
20
-16.9093
0
VERTEX
8
CUT
10
-6.4024
20
-16.9810
0
VERTEX
8
CUT
10
-6.4000
20
-17.0529
0
VERTEX
8
CUT
10
-6.4024
20
-17.1249
0
VERTEX
8
CUT
10
-6.4094
20
-17.1965
0
VERTEX
8
CUT
10
-6.4211
20
-17.2675
0
VERTEX
8
CUT
10
-6.4375
20
-17.3376
0
VERTEX
8
CUT
10
-6.4584
20
-17.4065
0
VERTEX
8
CUT
10
-6.4837
20
-17.4739
0
VERTEX
8
CUT
10
-6.5134
20
-17.5394
0
VERTEX
8
CUT
10
-6.5474
20
-17.6029
0
VERTEX
8
CUT
10
-6.5854
20
-17.6640
0
VERTEX
8
CUT
10
-6.6273
20
-17.7225
0
VERTEX
8
CUT
10
-6.6730
20
-17.7782
0
VERTEX
8
CUT
10
-6.7222
20
-17.8307
0
VERTEX
8
CUT
10
-6.7747
20
-17.8799
0
VERTEX
8
CUT
10
-6.8304
20
-17.9256
0
VERTEX
8
CUT
10
-6.8889
20
-17.9675
0
VERTEX
8
CUT
10
-6.9500
20
-18.0055
0
VERTEX
8
CUT
10
-7.0135
20
-18.0395
0
VERTEX
8
CUT
10
-7.0790
20
-18.0692
0
VERTEX
8
CUT
10
-7.1464
20
-18.0945
0
VERTEX
8
CUT
10
-7.2153
20
-18.1154
0
VERTEX
8
CUT
10
-7.2854
20
-18.1318
0
VERTEX
8
CUT
10
-7.3564
20
-18.1435
0
VERTEX
8
CUT
10
-7.4281
20
-18.1506
0
VERTEX
8
CUT
10
-7.5000
20
-18.1529
0
SEQEND
0
POLYLINE
8
CUT
66
1
70
1
0
VERTEX
8
CUT
10
2.5250
20
-21.5750
0
VERTEX
8
CUT
10
16.5250
20
-21.5750
0
VERTEX
8
CUT
10
16.5250
20
-35.5750
0
VERTEX
8
CUT
10
2.5250
20
-35.5750
0
SEQEND
0
POLYLINE
8
CUT
66
1
70
1
0
VERTEX
8
CUT
10
21.5750
20
-21.5750
0
VERTEX
8
CUT
10
35.5750
20
-21.5750
0
VERTEX
8
CUT
10
35.5750
20
-35.5750
0
VERTEX
8
CUT
10
21.5750
20
-35.5750
0
SEQEND
0
POLYLINE
8
CUT
66
1
70
1
0
VERTEX
8
CUT
10
40.6250
20
-21.5750
0
VERTEX
8
CUT
10
54.6250
20
-21.5750
0
VERTEX
8
CUT
10
54.6250
20
-35.5750
0
VERTEX
8
CUT
10
40.6250
20
-35.5750
0
SEQEND
0
POLYLINE
8
CUT
66
1
70
1
0
VERTEX
8
CUT
10
59.6750
20
-21.5750
0
VERTEX
8
CUT
10
73.6750
20
-21.5750
0
VERTEX
8
CUT
10
73.6750
20
-35.5750
0
VERTEX
8
CUT
10
59.6750
20
-35.5750
0
SEQEND
0
POLYLINE
8
CUT
66
1
70
1
0
VERTEX
8
CUT
10
78.7250
20
-21.5750
0
VERTEX
8
CUT
10
92.7250
20
-21.5750
0
VERTEX
8
CUT
10
92.7250
20
-35.5750
0
VERTEX
8
CUT
10
78.7250
20
-35.5750
0
SEQEND
0
POLYLINE
8
CUT
66
1
70
1
0
VERTEX
8
CUT
10
97.7750
20
-21.5750
0
VERTEX
8
CUT
10
111.7750
20
-21.5750
0
VERTEX
8
CUT
10
111.7750
20
-35.5750
0
VERTEX
8
CUT
10
97.7750
20
-35.5750
0
SEQEND
0
POLYLINE
8
CUT
66
1
70
1
0
VERTEX
8
CUT
10
116.8250
20
-21.5750
0
VERTEX
8
CUT
10
130.8250
20
-21.5750
0
VERTEX
8
CUT
10
130.8250
20
-35.5750
0
VERTEX
8
CUT
10
116.8250
20
-35.5750
0
SEQEND
0
POLYLINE
8
CUT
66
1
70
1
0
VERTEX
8
CUT
10
135.8750
20
-21.5750
0
VERTEX
8
CUT
10
149.8750
20
-21.5750
0
VERTEX
8
CUT
10
149.8750
20
-35.5750
0
VERTEX
8
CUT
10
135.8750
20
-35.5750
0
SEQEND
0
POLYLINE
8
CUT
66
1
70
1
0
VERTEX
8
CUT
10
169.2906
20
-36.2026
0
VERTEX
8
CUT
10
169.2189
20
-36.1956
0
VERTEX
8
CUT
10
169.1479
20
-36.1839
0
VERTEX
8
CUT
10
169.0778
20
-36.1675
0
VERTEX
8
CUT
10
169.0089
20
-36.1466
0
VERTEX
8
CUT
10
168.9415
20
-36.1213
0
VERTEX
8
CUT
10
168.8760
20
-36.0916
0
VERTEX
8
CUT
10
168.8125
20
-36.0576
0
VERTEX
8
CUT
10
168.7514
20
-36.0196
0
VERTEX
8
CUT
10
168.6929
20
-35.9777
0
VERTEX
8
CUT
10
168.6372
20
-35.9320
0
VERTEX
8
CUT
10
168.5847
20
-35.8828
0
VERTEX
8
CUT
10
168.5355
20
-35.8303
0
VERTEX
8
CUT
10
168.4898
20
-35.7746
0
VERTEX
8
CUT
10
168.4479
20
-35.7161
0
VERTEX
8
CUT
10
168.4099
20
-35.6550
0
VERTEX
8
CUT
10
168.3759
20
-35.5915
0
VERTEX
8
CUT
10
168.3462
20
-35.5260
0
VERTEX
8
CUT
10
168.3209
20
-35.4586
0
VERTEX
8
CUT
10
168.3000
20
-35.3897
0
VERTEX
8
CUT
10
168.2836
20
-35.3196
0
VERTEX
8
CUT
10
168.2719
20
-35.2486
0
VERTEX
8
CUT
10
168.2649
20
-35.1769
0
VERTEX
8
CUT
10
168.2625
20
-35.1050
0
VERTEX
8
CUT
10
168.2649
20
-35.0331
0
VERTEX
8
CUT
10
168.2719
20
-34.9614
0
VERTEX
8
CUT
10
168.2836
20
-34.8904
0
VERTEX
8
CUT
10
168.3000
20
-34.8203
0
VERTEX
8
CUT
10
168.3209
20
-34.7514
0
VERTEX
8
CUT
10
168.3462
20
-34.6840
0
VERTEX
8
CUT
10
168.3759
20
-34.6185
0
VERTEX
8
CUT
10
168.4099
20
-34.5550
0
VERTEX
8
CUT
10
168.4479
20
-34.4939
0
VERTEX
8
CUT
10
168.4898
20
-34.4354
0
VERTEX
8
CUT
10
168.5355
20
-34.3797
0
VERTEX
8
CUT
10
168.5847
20
-34.3272
0
VERTEX
8
CUT
10
168.6372
20
-34.2780
0
VERTEX
8
CUT
10
168.6929
20
-34.2323
0
VERTEX
8
CUT
10
168.7514
20
-34.1904
0
VERTEX
8
CUT
10
168.8125
20
-34.1524
0
VERTEX
8
CUT
10
168.8760
20
-34.1184
0
VERTEX
8
CUT
10
168.9415
20
-34.0887
0
VERTEX
8
CUT
10
169.0089
20
-34.0634
0
VERTEX
8
CUT
10
169.0778
20
-34.0425
0
VERTEX
8
CUT
10
169.1479
20
-34.0261
0
VERTEX
8
CUT
10
169.2189
20
-34.0144
0
VERTEX
8
CUT
10
169.2906
20
-34.0074
0
VERTEX
8
CUT
10
169.3625
20
-34.0050
0
VERTEX
8
CUT
10
169.4344
20
-34.0074
0
VERTEX
8
CUT
10
169.5061
20
-34.0144
0
VERTEX
8
CUT
10
169.5771
20
-34.0261
0
VERTEX
8
CUT
10
169.6472
20
-34.0425
0
VERTEX
8
CUT
10
169.7161
20
-34.0634
0
VERTEX
8
CUT
10
169.7835
20
-34.0887
0
VERTEX
8
CUT
10
169.8490
20
-34.1184
0
VERTEX
8
CUT
10
169.9125
20
-34.1524
0
VERTEX
8
CUT
10
169.9736
20
-34.1904
0
VERTEX
8
CUT
10
170.0321
20
-34.2323
0
VERTEX
8
CUT
10
170.0878
20
-34.2780
0
VERTEX
8
CUT
10
170.1403
20
-34.3272
0
VERTEX
8
CUT
10
170.1895
20
-34.3797
0
VERTEX
8
CUT
10
170.2352
20
-34.4354
0
VERTEX
8
CUT
10
170.2771
20
-34.4939
0
VERTEX
8
CUT
10
170.3151
20
-34.5550
0
VERTEX
8
CUT
10
170.3491
20
-34.6185
0
VERTEX
8
CUT
10
170.3788
20
-34.6840
0
VERTEX
8
CUT
10
170.4041
20
-34.7514
0
VERTEX
8
CUT
10
170.4250
20
-34.8203
0
VERTEX
8
CUT
10
170.4414
20
-34.8904
0
VERTEX
8
CUT
10
170.4531
20
-34.9614
0
VERTEX
8
CUT
10
170.4601
20
-35.0331
0
VERTEX
8
CUT
10
170.4625
20
-35.1050
0
VERTEX
8
CUT
10
170.4601
20
-35.1769
0
VERTEX
8
CUT
10
170.4531
20
-35.2486
0
VERTEX
8
CUT
10
170.4414
20
-35.3196
0
VERTEX
8
CUT
10
170.4250
20
-35.3897
0
VERTEX
8
CUT
10
170.4041
20
-35.4586
0
VERTEX
8
CUT
10
170.3788
20
-35.5260
0
VERTEX
8
CUT
10
170.3491
20
-35.5915
0
VERTEX
8
CUT
10
170.3151
20
-35.6550
0
VERTEX
8
CUT
10
170.2771
20
-35.7161
0
VERTEX
8
CUT
10
170.2352
20
-35.7746
0
VERTEX
8
CUT
10
170.1895
20
-35.8303
0
VERTEX
8
CUT
10
170.1403
20
-35.8828
0
VERTEX
8
CUT
10
170.0878
20
-35.9320
0
VERTEX
8
CUT
10
170.0321
20
-35.9777
0
VERTEX
8
CUT
10
169.9736
20
-36.0196
0
VERTEX
8
CUT
10
169.9125
20
-36.0576
0
VERTEX
8
CUT
10
169.8490
20
-36.0916
0
VERTEX
8
CUT
10
169.7835
20
-36.1213
0
VERTEX
8
CUT
10
169.7161
20
-36.1466
0
VERTEX
8
CUT
10
169.6472
20
-36.1675
0
VERTEX
8
CUT
10
169.5771
20
-36.1839
0
VERTEX
8
CUT
10
169.5061
20
-36.1956
0
VERTEX
8
CUT
10
169.4344
20
-36.2026
0
VERTEX
8
CUT
10
169.3625
20
-36.2050
0
SEQEND
0
POLYLINE
8
CUT
66
1
70
1
0
VERTEX
8
CUT
10
7.2880
20
-40.6250
0
VERTEX
8
CUT
10
21.2880
20
-40.6250
0
VERTEX
8
CUT
10
21.2880
20
-54.6250
0
VERTEX
8
CUT
10
7.2880
20
-54.6250
0
SEQEND
0
POLYLINE
8
CUT
66
1
70
1
0
VERTEX
8
CUT
10
31.1000
20
-40.6250
0
VERTEX
8
CUT
10
45.1000
20
-40.6250
0
VERTEX
8
CUT
10
45.1000
20
-54.6250
0
VERTEX
8
CUT
10
31.1000
20
-54.6250
0
SEQEND
0
POLYLINE
8
CUT
66
1
70
1
0
VERTEX
8
CUT
10
50.1500
20
-40.6250
0
VERTEX
8
CUT
10
64.1500
20
-40.6250
0
VERTEX
8
CUT
10
64.1500
20
-54.6250
0
VERTEX
8
CUT
10
50.1500
20
-54.6250
0
SEQEND
0
POLYLINE
8
CUT
66
1
70
1
0
VERTEX
8
CUT
10
69.2000
20
-40.6250
0
VERTEX
8
CUT
10
83.2000
20
-40.6250
0
VERTEX
8
CUT
10
83.2000
20
-54.6250
0
VERTEX
8
CUT
10
69.2000
20
-54.6250
0
SEQEND
0
POLYLINE
8
CUT
66
1
70
1
0
VERTEX
8
CUT
10
88.2500
20
-40.6250
0
VERTEX
8
CUT
10
102.2500
20
-40.6250
0
VERTEX
8
CUT
10
102.2500
20
-54.6250
0
VERTEX
8
CUT
10
88.2500
20
-54.6250
0
SEQEND
0
POLYLINE
8
CUT
66
1
70
1
0
VERTEX
8
CUT
10
107.3000
20
-40.6250
0
VERTEX
8
CUT
10
121.3000
20
-40.6250
0
VERTEX
8
CUT
10
121.3000
20
-54.6250
0
VERTEX
8
CUT
10
107.3000
20
-54.6250
0
SEQEND
0
POLYLINE
8
CUT
66
1
70
1
0
VERTEX
8
CUT
10
126.3500
20
-40.6250
0
VERTEX
8
CUT
10
140.3500
20
-40.6250
0
VERTEX
8
CUT
10
140.3500
20
-54.6250
0
VERTEX
8
CUT
10
126.3500
20
-54.6250
0
SEQEND
0
POLYLINE
8
CUT
66
1
70
1
0
VERTEX
8
CUT
10
-7.5719
20
-58.2476
0
VERTEX
8
CUT
10
-7.6436
20
-58.2406
0
VERTEX
8
CUT
10
-7.7146
20
-58.2289
0
VERTEX
8
CUT
10
-7.7847
20
-58.2125
0
VERTEX
8
CUT
10
-7.8536
20
-58.1916
0
VERTEX
8
CUT
10
-7.9210
20
-58.1663
0
VERTEX
8
CUT
10
-7.9865
20
-58.1366
0
VERTEX
8
CUT
10
-8.0500
20
-58.1026
0
VERTEX
8
CUT
10
-8.1111
20
-58.0646
0
VERTEX
8
CUT
10
-8.1696
20
-58.0227
0
VERTEX
8
CUT
10
-8.2253
20
-57.9770
0
VERTEX
8
CUT
10
-8.2778
20
-57.9278
0
VERTEX
8
CUT
10
-8.3270
20
-57.8753
0
VERTEX
8
CUT
10
-8.3727
20
-57.8196
0
VERTEX
8
CUT
10
-8.4146
20
-57.7611
0
VERTEX
8
CUT
10
-8.4526
20
-57.7000
0
VERTEX
8
CUT
10
-8.4866
20
-57.6365
0
VERTEX
8
CUT
10
-8.5163
20
-57.5710
0
VERTEX
8
CUT
10
-8.5416
20
-57.5036
0
VERTEX
8
CUT
10
-8.5625
20
-57.4347
0
VERTEX
8
CUT
10
-8.5789
20
-57.3646
0
VERTEX
8
CUT
10
-8.5906
20
-57.2936
0
VERTEX
8
CUT
10
-8.5976
20
-57.2219
0
VERTEX
8
CUT
10
-8.6000
20
-57.1500
0
VERTEX
8
CUT
10
-8.5976
20
-57.0781
0
VERTEX
8
CUT
10
-8.5906
20
-57.0064
0
VERTEX
8
CUT
10
-8.5789
20
-56.9354
0
VERTEX
8
CUT
10
-8.5625
20
-56.8653
0
VERTEX
8
CUT
10
-8.5416
20
-56.7964
0
VERTEX
8
CUT
10
-8.5163
20
-56.7290
0
VERTEX
8
CUT
10
-8.4866
20
-56.6635
0
VERTEX
8
CUT
10
-8.4526
20
-56.6000
0
VERTEX
8
CUT
10
-8.4146
20
-56.5389
0
VERTEX
8
CUT
10
-8.3727
20
-56.4804
0
VERTEX
8
CUT
10
-8.3270
20
-56.4247
0
VERTEX
8
CUT
10
-8.2778
20
-56.3722
0
VERTEX
8
CUT
10
-8.2253
20
-56.3230
0
VERTEX
8
CUT
10
-8.1696
20
-56.2773
0
VERTEX
8
CUT
10
-8.1111
20
-56.2354
0
VERTEX
8
CUT
10
-8.0500
20
-56.1974
0
VERTEX
8
CUT
10
-7.9865
20
-56.1634
0
VERTEX
8
CUT
10
-7.9210
20
-56.1337
0
VERTEX
8
CUT
10
-7.8536
20
-56.1084
0
VERTEX
8
CUT
10
-7.7847
20
-56.0875
0
VERTEX
8
CUT
10
-7.7146
20
-56.0711
0
VERTEX
8
CUT
10
-7.6436
20
-56.0594
0
VERTEX
8
CUT
10
-7.5719
20
-56.0524
0
VERTEX
8
CUT
10
-7.5000
20
-56.0500
0
VERTEX
8
CUT
10
-7.4281
20
-56.0524
0
VERTEX
8
CUT
10
-7.3564
20
-56.0594
0
VERTEX
8
CUT
10
-7.2854
20
-56.0711
0
VERTEX
8
CUT
10
-7.2153
20
-56.0875
0
VERTEX
8
CUT
10
-7.1464
20
-56.1084
0
VERTEX
8
CUT
10
-7.0790
20
-56.1337
0
VERTEX
8
CUT
10
-7.0135
20
-56.1634
0
VERTEX
8
CUT
10
-6.9500
20
-56.1974
0
VERTEX
8
CUT
10
-6.8889
20
-56.2354
0
VERTEX
8
CUT
10
-6.8304
20
-56.2773
0
VERTEX
8
CUT
10
-6.7747
20
-56.3230
0
VERTEX
8
CUT
10
-6.7222
20
-56.3722
0
VERTEX
8
CUT
10
-6.6730
20
-56.4247
0
VERTEX
8
CUT
10
-6.6273
20
-56.4804
0
VERTEX
8
CUT
10
-6.5854
20
-56.5389
0
VERTEX
8
CUT
10
-6.5474
20
-56.6000
0
VERTEX
8
CUT
10
-6.5134
20
-56.6635
0
VERTEX
8
CUT
10
-6.4837
20
-56.7290
0
VERTEX
8
CUT
10
-6.4584
20
-56.7964
0
VERTEX
8
CUT
10
-6.4375
20
-56.8653
0
VERTEX
8
CUT
10
-6.4211
20
-56.9354
0
VERTEX
8
CUT
10
-6.4094
20
-57.0064
0
VERTEX
8
CUT
10
-6.4024
20
-57.0781
0
VERTEX
8
CUT
10
-6.4000
20
-57.1500
0
VERTEX
8
CUT
10
-6.4024
20
-57.2219
0
VERTEX
8
CUT
10
-6.4094
20
-57.2936
0
VERTEX
8
CUT
10
-6.4211
20
-57.3646
0
VERTEX
8
CUT
10
-6.4375
20
-57.4347
0
VERTEX
8
CUT
10
-6.4584
20
-57.5036
0
VERTEX
8
CUT
10
-6.4837
20
-57.5710
0
VERTEX
8
CUT
10
-6.5134
20
-57.6365
0
VERTEX
8
CUT
10
-6.5474
20
-57.7000
0
VERTEX
8
CUT
10
-6.5854
20
-57.7611
0
VERTEX
8
CUT
10
-6.6273
20
-57.8196
0
VERTEX
8
CUT
10
-6.6730
20
-57.8753
0
VERTEX
8
CUT
10
-6.7222
20
-57.9278
0
VERTEX
8
CUT
10
-6.7747
20
-57.9770
0
VERTEX
8
CUT
10
-6.8304
20
-58.0227
0
VERTEX
8
CUT
10
-6.8889
20
-58.0646
0
VERTEX
8
CUT
10
-6.9500
20
-58.1026
0
VERTEX
8
CUT
10
-7.0135
20
-58.1366
0
VERTEX
8
CUT
10
-7.0790
20
-58.1663
0
VERTEX
8
CUT
10
-7.1464
20
-58.1916
0
VERTEX
8
CUT
10
-7.2153
20
-58.2125
0
VERTEX
8
CUT
10
-7.2854
20
-58.2289
0
VERTEX
8
CUT
10
-7.3564
20
-58.2406
0
VERTEX
8
CUT
10
-7.4281
20
-58.2476
0
VERTEX
8
CUT
10
-7.5000
20
-58.2500
0
SEQEND
0
POLYLINE
8
CUT
66
1
70
1
0
VERTEX
8
CUT
10
9.6690
20
-59.6750
0
VERTEX
8
CUT
10
23.6690
20
-59.6750
0
VERTEX
8
CUT
10
23.6690
20
-73.6750
0
VERTEX
8
CUT
10
9.6690
20
-73.6750
0
SEQEND
0
POLYLINE
8
CUT
66
1
70
1
0
VERTEX
8
CUT
10
35.8630
20
-59.6750
0
VERTEX
8
CUT
10
49.8630
20
-59.6750
0
VERTEX
8
CUT
10
49.8630
20
-73.6750
0
VERTEX
8
CUT
10
35.8630
20
-73.6750
0
SEQEND
0
POLYLINE
8
CUT
66
1
70
1
0
VERTEX
8
CUT
10
54.9130
20
-59.6750
0
VERTEX
8
CUT
10
68.9130
20
-59.6750
0
VERTEX
8
CUT
10
68.9130
20
-73.6750
0
VERTEX
8
CUT
10
54.9130
20
-73.6750
0
SEQEND
0
POLYLINE
8
CUT
66
1
70
1
0
VERTEX
8
CUT
10
73.9630
20
-59.6750
0
VERTEX
8
CUT
10
87.9630
20
-59.6750
0
VERTEX
8
CUT
10
87.9630
20
-73.6750
0
VERTEX
8
CUT
10
73.9630
20
-73.6750
0
SEQEND
0
POLYLINE
8
CUT
66
1
70
1
0
VERTEX
8
CUT
10
93.0130
20
-59.6750
0
VERTEX
8
CUT
10
107.0130
20
-59.6750
0
VERTEX
8
CUT
10
107.0130
20
-73.6750
0
VERTEX
8
CUT
10
93.0130
20
-73.6750
0
SEQEND
0
POLYLINE
8
CUT
66
1
70
1
0
VERTEX
8
CUT
10
112.0620
20
-59.6750
0
VERTEX
8
CUT
10
126.0620
20
-59.6750
0
VERTEX
8
CUT
10
126.0620
20
-73.6750
0
VERTEX
8
CUT
10
112.0620
20
-73.6750
0
SEQEND
0
POLYLINE
8
CUT
66
1
70
1
0
VERTEX
8
CUT
10
131.1130
20
-59.6750
0
VERTEX
8
CUT
10
145.1130
20
-59.6750
0
VERTEX
8
CUT
10
145.1130
20
-73.6750
0
VERTEX
8
CUT
10
131.1130
20
-73.6750
0
SEQEND
0
POLYLINE
8
CUT
66
1
70
1
0
VERTEX
8
CUT
10
169.2906
20
-67.1001
0
VERTEX
8
CUT
10
169.2189
20
-67.0931
0
VERTEX
8
CUT
10
169.1479
20
-67.0814
0
VERTEX
8
CUT
10
169.0778
20
-67.0650
0
VERTEX
8
CUT
10
169.0089
20
-67.0441
0
VERTEX
8
CUT
10
168.9415
20
-67.0188
0
VERTEX
8
CUT
10
168.8760
20
-66.9891
0
VERTEX
8
CUT
10
168.8125
20
-66.9551
0
VERTEX
8
CUT
10
168.7514
20
-66.9171
0
VERTEX
8
CUT
10
168.6929
20
-66.8752
0
VERTEX
8
CUT
10
168.6372
20
-66.8295
0
VERTEX
8
CUT
10
168.5847
20
-66.7803
0
VERTEX
8
CUT
10
168.5355
20
-66.7278
0
VERTEX
8
CUT
10
168.4898
20
-66.6721
0
VERTEX
8
CUT
10
168.4479
20
-66.6136
0
VERTEX
8
CUT
10
168.4099
20
-66.5525
0
VERTEX
8
CUT
10
168.3759
20
-66.4890
0
VERTEX
8
CUT
10
168.3462
20
-66.4235
0
VERTEX
8
CUT
10
168.3209
20
-66.3561
0
VERTEX
8
CUT
10
168.3000
20
-66.2872
0
VERTEX
8
CUT
10
168.2836
20
-66.2171
0
VERTEX
8
CUT
10
168.2719
20
-66.1461
0
VERTEX
8
CUT
10
168.2649
20
-66.0744
0
VERTEX
8
CUT
10
168.2625
20
-66.0025
0
VERTEX
8
CUT
10
168.2649
20
-65.9306
0
VERTEX
8
CUT
10
168.2719
20
-65.8589
0
VERTEX
8
CUT
10
168.2836
20
-65.7879
0
VERTEX
8
CUT
10
168.3000
20
-65.7178
0
VERTEX
8
CUT
10
168.3209
20
-65.6489
0
VERTEX
8
CUT
10
168.3462
20
-65.5815
0
VERTEX
8
CUT
10
168.3759
20
-65.5160
0
VERTEX
8
CUT
10
168.4099
20
-65.4525
0
VERTEX
8
CUT
10
168.4479
20
-65.3914
0
VERTEX
8
CUT
10
168.4898
20
-65.3329
0
VERTEX
8
CUT
10
168.5355
20
-65.2772
0
VERTEX
8
CUT
10
168.5847
20
-65.2247
0
VERTEX
8
CUT
10
168.6372
20
-65.1755
0
VERTEX
8
CUT
10
168.6929
20
-65.1298
0
VERTEX
8
CUT
10
168.7514
20
-65.0879
0
VERTEX
8
CUT
10
168.8125
20
-65.0499
0
VERTEX
8
CUT
10
168.8760
20
-65.0159
0
VERTEX
8
CUT
10
168.9415
20
-64.9862
0
VERTEX
8
CUT
10
169.0089
20
-64.9609
0
VERTEX
8
CUT
10
169.0778
20
-64.9400
0
VERTEX
8
CUT
10
169.1479
20
-64.9236
0
VERTEX
8
CUT
10
169.2189
20
-64.9119
0
VERTEX
8
CUT
10
169.2906
20
-64.9049
0
VERTEX
8
CUT
10
169.3625
20
-64.9025
0
VERTEX
8
CUT
10
169.4344
20
-64.9049
0
VERTEX
8
CUT
10
169.5061
20
-64.9119
0
VERTEX
8
CUT
10
169.5771
20
-64.9236
0
VERTEX
8
CUT
10
169.6472
20
-64.9400
0
VERTEX
8
CUT
10
169.7161
20
-64.9609
0
VERTEX
8
CUT
10
169.7835
20
-64.9862
0
VERTEX
8
CUT
10
169.8490
20
-65.0159
0
VERTEX
8
CUT
10
169.9125
20
-65.0499
0
VERTEX
8
CUT
10
169.9736
20
-65.0879
0
VERTEX
8
CUT
10
170.0321
20
-65.1298
0
VERTEX
8
CUT
10
170.0878
20
-65.1755
0
VERTEX
8
CUT
10
170.1403
20
-65.2247
0
VERTEX
8
CUT
10
170.1895
20
-65.2772
0
VERTEX
8
CUT
10
170.2352
20
-65.3329
0
VERTEX
8
CUT
10
170.2771
20
-65.3914
0
VERTEX
8
CUT
10
170.3151
20
-65.4525
0
VERTEX
8
CUT
10
170.3491
20
-65.5160
0
VERTEX
8
CUT
10
170.3788
20
-65.5815
0
VERTEX
8
CUT
10
170.4041
20
-65.6489
0
VERTEX
8
CUT
10
170.4250
20
-65.7178
0
VERTEX
8
CUT
10
170.4414
20
-65.7879
0
VERTEX
8
CUT
10
170.4531
20
-65.8589
0
VERTEX
8
CUT
10
170.4601
20
-65.9306
0
VERTEX
8
CUT
10
170.4625
20
-66.0025
0
VERTEX
8
CUT
10
170.4601
20
-66.0744
0
VERTEX
8
CUT
10
170.4531
20
-66.1461
0
VERTEX
8
CUT
10
170.4414
20
-66.2171
0
VERTEX
8
CUT
10
170.4250
20
-66.2872
0
VERTEX
8
CUT
10
170.4041
20
-66.3561
0
VERTEX
8
CUT
10
170.3788
20
-66.4235
0
VERTEX
8
CUT
10
170.3491
20
-66.4890
0
VERTEX
8
CUT
10
170.3151
20
-66.5525
0
VERTEX
8
CUT
10
170.2771
20
-66.6136
0
VERTEX
8
CUT
10
170.2352
20
-66.6721
0
VERTEX
8
CUT
10
170.1895
20
-66.7278
0
VERTEX
8
CUT
10
170.1403
20
-66.7803
0
VERTEX
8
CUT
10
170.0878
20
-66.8295
0
VERTEX
8
CUT
10
170.0321
20
-66.8752
0
VERTEX
8
CUT
10
169.9736
20
-66.9171
0
VERTEX
8
CUT
10
169.9125
20
-66.9551
0
VERTEX
8
CUT
10
169.8490
20
-66.9891
0
VERTEX
8
CUT
10
169.7835
20
-67.0188
0
VERTEX
8
CUT
10
169.7161
20
-67.0441
0
VERTEX
8
CUT
10
169.6472
20
-67.0650
0
VERTEX
8
CUT
10
169.5771
20
-67.0814
0
VERTEX
8
CUT
10
169.5061
20
-67.0931
0
VERTEX
8
CUT
10
169.4344
20
-67.1001
0
VERTEX
8
CUT
10
169.3625
20
-67.1025
0
SEQEND
0
POLYLINE
8
CUT
66
1
70
1
0
VERTEX
8
CUT
10
5.9930
20
-78.5250
0
VERTEX
8
CUT
10
12.9930
20
-78.5250
0
VERTEX
8
CUT
10
12.9930
20
-93.9250
0
VERTEX
8
CUT
10
5.9930
20
-93.9250
0
SEQEND
0
POLYLINE
8
CUT
66
1
70
1
0
VERTEX
8
CUT
10
29.8690
20
-78.5250
0
VERTEX
8
CUT
10
36.8690
20
-78.5250
0
VERTEX
8
CUT
10
36.8690
20
-93.9250
0
VERTEX
8
CUT
10
29.8690
20
-93.9250
0
SEQEND
0
POLYLINE
8
CUT
66
1
70
1
0
VERTEX
8
CUT
10
14.4310
20
-78.7250
0
VERTEX
8
CUT
10
28.4310
20
-78.7250
0
VERTEX
8
CUT
10
28.4310
20
-92.7250
0
VERTEX
8
CUT
10
14.4310
20
-92.7250
0
SEQEND
0
POLYLINE
8
CUT
66
1
70
1
0
VERTEX
8
CUT
10
45.3880
20
-78.7250
0
VERTEX
8
CUT
10
59.3880
20
-78.7250
0
VERTEX
8
CUT
10
59.3880
20
-92.7250
0
VERTEX
8
CUT
10
45.3880
20
-92.7250
0
SEQEND
0
POLYLINE
8
CUT
66
1
70
1
0
VERTEX
8
CUT
10
64.4380
20
-78.7250
0
VERTEX
8
CUT
10
78.4380
20
-78.7250
0
VERTEX
8
CUT
10
78.4380
20
-92.7250
0
VERTEX
8
CUT
10
64.4380
20
-92.7250
0
SEQEND
0
POLYLINE
8
CUT
66
1
70
1
0
VERTEX
8
CUT
10
83.4870
20
-78.7250
0
VERTEX
8
CUT
10
97.4870
20
-78.7250
0
VERTEX
8
CUT
10
97.4870
20
-92.7250
0
VERTEX
8
CUT
10
83.4870
20
-92.7250
0
SEQEND
0
POLYLINE
8
CUT
66
1
70
1
0
VERTEX
8
CUT
10
102.5380
20
-78.7250
0
VERTEX
8
CUT
10
116.5380
20
-78.7250
0
VERTEX
8
CUT
10
116.5380
20
-92.7250
0
VERTEX
8
CUT
10
102.5380
20
-92.7250
0
SEQEND
0
POLYLINE
8
CUT
66
1
70
1
0
VERTEX
8
CUT
10
121.5880
20
-78.7250
0
VERTEX
8
CUT
10
135.5880
20
-78.7250
0
VERTEX
8
CUT
10
135.5880
20
-92.7250
0
VERTEX
8
CUT
10
121.5880
20
-92.7250
0
SEQEND
0
POLYLINE
8
CUT
66
1
70
1
0
VERTEX
8
CUT
10
140.6380
20
-78.7250
0
VERTEX
8
CUT
10
154.6380
20
-78.7250
0
VERTEX
8
CUT
10
154.6380
20
-92.7250
0
VERTEX
8
CUT
10
140.6380
20
-92.7250
0
SEQEND
0
POLYLINE
8
CUT
66
1
70
1
0
VERTEX
8
CUT
10
14.4310
20
-97.7750
0
VERTEX
8
CUT
10
28.4310
20
-97.7750
0
VERTEX
8
CUT
10
28.4310
20
-111.7750
0
VERTEX
8
CUT
10
14.4310
20
-111.7750
0
SEQEND
0
POLYLINE
8
CUT
66
1
70
1
0
VERTEX
8
CUT
10
38.2440
20
-97.7750
0
VERTEX
8
CUT
10
52.2440
20
-97.7750
0
VERTEX
8
CUT
10
52.2440
20
-111.7750
0
VERTEX
8
CUT
10
38.2440
20
-111.7750
0
SEQEND
0
POLYLINE
8
CUT
66
1
70
1
0
VERTEX
8
CUT
10
62.0560
20
-97.7750
0
VERTEX
8
CUT
10
76.0560
20
-97.7750
0
VERTEX
8
CUT
10
76.0560
20
-111.7750
0
VERTEX
8
CUT
10
62.0560
20
-111.7750
0
SEQEND
0
POLYLINE
8
CUT
66
1
70
1
0
VERTEX
8
CUT
10
83.4870
20
-97.7750
0
VERTEX
8
CUT
10
97.4870
20
-97.7750
0
VERTEX
8
CUT
10
97.4870
20
-111.7750
0
VERTEX
8
CUT
10
83.4870
20
-111.7750
0
SEQEND
0
POLYLINE
8
CUT
66
1
70
1
0
VERTEX
8
CUT
10
102.5380
20
-97.7750
0
VERTEX
8
CUT
10
116.5380
20
-97.7750
0
VERTEX
8
CUT
10
116.5380
20
-111.7750
0
VERTEX
8
CUT
10
102.5380
20
-111.7750
0
SEQEND
0
POLYLINE
8
CUT
66
1
70
1
0
VERTEX
8
CUT
10
121.5880
20
-97.7750
0
VERTEX
8
CUT
10
135.5880
20
-97.7750
0
VERTEX
8
CUT
10
135.5880
20
-111.7750
0
VERTEX
8
CUT
10
121.5880
20
-111.7750
0
SEQEND
0
POLYLINE
8
CUT
66
1
70
1
0
VERTEX
8
CUT
10
140.6380
20
-97.7750
0
VERTEX
8
CUT
10
154.6380
20
-97.7750
0
VERTEX
8
CUT
10
154.6380
20
-111.7750
0
VERTEX
8
CUT
10
140.6380
20
-111.7750
0
SEQEND
0
POLYLINE
8
CUT
66
1
70
1
0
VERTEX
8
CUT
10
-5.0824
20
-120.4081
0
VERTEX
8
CUT
10
-5.1540
20
-120.4010
0
VERTEX
8
CUT
10
-5.2250
20
-120.3893
0
VERTEX
8
CUT
10
-5.2951
20
-120.3729
0
VERTEX
8
CUT
10
-5.3640
20
-120.3520
0
VERTEX
8
CUT
10
-5.4314
20
-120.3267
0
VERTEX
8
CUT
10
-5.4969
20
-120.2970
0
VERTEX
8
CUT
10
-5.5604
20
-120.2630
0
VERTEX
8
CUT
10
-5.6215
20
-120.2250
0
VERTEX
8
CUT
10
-5.6800
20
-120.1831
0
VERTEX
8
CUT
10
-5.7357
20
-120.1374
0
VERTEX
8
CUT
10
-5.7882
20
-120.0882
0
VERTEX
8
CUT
10
-5.8374
20
-120.0357
0
VERTEX
8
CUT
10
-5.8831
20
-119.9800
0
VERTEX
8
CUT
10
-5.9250
20
-119.9215
0
VERTEX
8
CUT
10
-5.9630
20
-119.8604
0
VERTEX
8
CUT
10
-5.9970
20
-119.7969
0
VERTEX
8
CUT
10
-6.0267
20
-119.7314
0
VERTEX
8
CUT
10
-6.0520
20
-119.6640
0
VERTEX
8
CUT
10
-6.0729
20
-119.5951
0
VERTEX
8
CUT
10
-6.0893
20
-119.5250
0
VERTEX
8
CUT
10
-6.1010
20
-119.4540
0
VERTEX
8
CUT
10
-6.1081
20
-119.3824
0
VERTEX
8
CUT
10
-6.1104
20
-119.3104
0
VERTEX
8
CUT
10
-6.1081
20
-119.2385
0
VERTEX
8
CUT
10
-6.1010
20
-119.1668
0
VERTEX
8
CUT
10
-6.0893
20
-119.0958
0
VERTEX
8
CUT
10
-6.0729
20
-119.0257
0
VERTEX
8
CUT
10
-6.0520
20
-118.9568
0
VERTEX
8
CUT
10
-6.0267
20
-118.8895
0
VERTEX
8
CUT
10
-5.9970
20
-118.8239
0
VERTEX
8
CUT
10
-5.9630
20
-118.7604
0
VERTEX
8
CUT
10
-5.9250
20
-118.6993
0
VERTEX
8
CUT
10
-5.8831
20
-118.6408
0
VERTEX
8
CUT
10
-5.8374
20
-118.5851
0
VERTEX
8
CUT
10
-5.7882
20
-118.5326
0
VERTEX
8
CUT
10
-5.7357
20
-118.4834
0
VERTEX
8
CUT
10
-5.6800
20
-118.4377
0
VERTEX
8
CUT
10
-5.6215
20
-118.3958
0
VERTEX
8
CUT
10
-5.5604
20
-118.3578
0
VERTEX
8
CUT
10
-5.4969
20
-118.3238
0
VERTEX
8
CUT
10
-5.4314
20
-118.2941
0
VERTEX
8
CUT
10
-5.3640
20
-118.2688
0
VERTEX
8
CUT
10
-5.2951
20
-118.2479
0
VERTEX
8
CUT
10
-5.2250
20
-118.2315
0
VERTEX
8
CUT
10
-5.1540
20
-118.2198
0
VERTEX
8
CUT
10
-5.0824
20
-118.2128
0
VERTEX
8
CUT
10
-5.0104
20
-118.2104
0
VERTEX
8
CUT
10
-4.9385
20
-118.2128
0
VERTEX
8
CUT
10
-4.8668
20
-118.2198
0
VERTEX
8
CUT
10
-4.7958
20
-118.2315
0
VERTEX
8
CUT
10
-4.7257
20
-118.2479
0
VERTEX
8
CUT
10
-4.6568
20
-118.2688
0
VERTEX
8
CUT
10
-4.5895
20
-118.2941
0
VERTEX
8
CUT
10
-4.5239
20
-118.3238
0
VERTEX
8
CUT
10
-4.4604
20
-118.3578
0
VERTEX
8
CUT
10
-4.3993
20
-118.3958
0
VERTEX
8
CUT
10
-4.3408
20
-118.4377
0
VERTEX
8
CUT
10
-4.2851
20
-118.4834
0
VERTEX
8
CUT
10
-4.2326
20
-118.5326
0
VERTEX
8
CUT
10
-4.1834
20
-118.5851
0
VERTEX
8
CUT
10
-4.1377
20
-118.6408
0
VERTEX
8
CUT
10
-4.0958
20
-118.6993
0
VERTEX
8
CUT
10
-4.0578
20
-118.7604
0
VERTEX
8
CUT
10
-4.0238
20
-118.8239
0
VERTEX
8
CUT
10
-3.9941
20
-118.8895
0
VERTEX
8
CUT
10
-3.9688
20
-118.9568
0
VERTEX
8
CUT
10
-3.9479
20
-119.0257
0
VERTEX
8
CUT
10
-3.9315
20
-119.0958
0
VERTEX
8
CUT
10
-3.9198
20
-119.1668
0
VERTEX
8
CUT
10
-3.9128
20
-119.2385
0
VERTEX
8
CUT
10
-3.9104
20
-119.3104
0
VERTEX
8
CUT
10
-3.9128
20
-119.3824
0
VERTEX
8
CUT
10
-3.9198
20
-119.4540
0
VERTEX
8
CUT
10
-3.9315
20
-119.5250
0
VERTEX
8
CUT
10
-3.9479
20
-119.5951
0
VERTEX
8
CUT
10
-3.9688
20
-119.6640
0
VERTEX
8
CUT
10
-3.9941
20
-119.7314
0
VERTEX
8
CUT
10
-4.0238
20
-119.7969
0
VERTEX
8
CUT
10
-4.0578
20
-119.8604
0
VERTEX
8
CUT
10
-4.0958
20
-119.9215
0
VERTEX
8
CUT
10
-4.1377
20
-119.9800
0
VERTEX
8
CUT
10
-4.1834
20
-120.0357
0
VERTEX
8
CUT
10
-4.2326
20
-120.0882
0
VERTEX
8
CUT
10
-4.2851
20
-120.1374
0
VERTEX
8
CUT
10
-4.3408
20
-120.1831
0
VERTEX
8
CUT
10
-4.3993
20
-120.2250
0
VERTEX
8
CUT
10
-4.4604
20
-120.2630
0
VERTEX
8
CUT
10
-4.5239
20
-120.2970
0
VERTEX
8
CUT
10
-4.5895
20
-120.3267
0
VERTEX
8
CUT
10
-4.6568
20
-120.3520
0
VERTEX
8
CUT
10
-4.7257
20
-120.3729
0
VERTEX
8
CUT
10
-4.7958
20
-120.3893
0
VERTEX
8
CUT
10
-4.8668
20
-120.4010
0
VERTEX
8
CUT
10
-4.9385
20
-120.4081
0
VERTEX
8
CUT
10
-5.0104
20
-120.4104
0
SEQEND
0
POLYLINE
8
CUT
66
1
70
1
0
VERTEX
8
CUT
10
166.8010
20
-120.4081
0
VERTEX
8
CUT
10
166.7293
20
-120.4010
0
VERTEX
8
CUT
10
166.6583
20
-120.3893
0
VERTEX
8
CUT
10
166.5882
20
-120.3729
0
VERTEX
8
CUT
10
166.5193
20
-120.3520
0
VERTEX
8
CUT
10
166.4520
20
-120.3267
0
VERTEX
8
CUT
10
166.3864
20
-120.2970
0
VERTEX
8
CUT
10
166.3229
20
-120.2630
0
VERTEX
8
CUT
10
166.2618
20
-120.2250
0
VERTEX
8
CUT
10
166.2033
20
-120.1831
0
VERTEX
8
CUT
10
166.1476
20
-120.1374
0
VERTEX
8
CUT
10
166.0951
20
-120.0882
0
VERTEX
8
CUT
10
166.0459
20
-120.0357
0
VERTEX
8
CUT
10
166.0002
20
-119.9800
0
VERTEX
8
CUT
10
165.9583
20
-119.9215
0
VERTEX
8
CUT
10
165.9203
20
-119.8604
0
VERTEX
8
CUT
10
165.8863
20
-119.7969
0
VERTEX
8
CUT
10
165.8566
20
-119.7314
0
VERTEX
8
CUT
10
165.8313
20
-119.6640
0
VERTEX
8
CUT
10
165.8104
20
-119.5951
0
VERTEX
8
CUT
10
165.7940
20
-119.5250
0
VERTEX
8
CUT
10
165.7823
20
-119.4540
0
VERTEX
8
CUT
10
165.7753
20
-119.3824
0
VERTEX
8
CUT
10
165.7729
20
-119.3104
0
VERTEX
8
CUT
10
165.7753
20
-119.2385
0
VERTEX
8
CUT
10
165.7823
20
-119.1668
0
VERTEX
8
CUT
10
165.7940
20
-119.0958
0
VERTEX
8
CUT
10
165.8104
20
-119.0257
0
VERTEX
8
CUT
10
165.8313
20
-118.9568
0
VERTEX
8
CUT
10
165.8566
20
-118.8895
0
VERTEX
8
CUT
10
165.8863
20
-118.8239
0
VERTEX
8
CUT
10
165.9203
20
-118.7604
0
VERTEX
8
CUT
10
165.9583
20
-118.6993
0
VERTEX
8
CUT
10
166.0002
20
-118.6408
0
VERTEX
8
CUT
10
166.0459
20
-118.5851
0
VERTEX
8
CUT
10
166.0951
20
-118.5326
0
VERTEX
8
CUT
10
166.1476
20
-118.4834
0
VERTEX
8
CUT
10
166.2033
20
-118.4377
0
VERTEX
8
CUT
10
166.2618
20
-118.3958
0
VERTEX
8
CUT
10
166.3229
20
-118.3578
0
VERTEX
8
CUT
10
166.3864
20
-118.3238
0
VERTEX
8
CUT
10
166.4520
20
-118.2941
0
VERTEX
8
CUT
10
166.5193
20
-118.2688
0
VERTEX
8
CUT
10
166.5882
20
-118.2479
0
VERTEX
8
CUT
10
166.6583
20
-118.2315
0
VERTEX
8
CUT
10
166.7293
20
-118.2198
0
VERTEX
8
CUT
10
166.8010
20
-118.2128
0
VERTEX
8
CUT
10
166.8729
20
-118.2104
0
VERTEX
8
CUT
10
166.9449
20
-118.2128
0
VERTEX
8
CUT
10
167.0165
20
-118.2198
0
VERTEX
8
CUT
10
167.0875
20
-118.2315
0
VERTEX
8
CUT
10
167.1576
20
-118.2479
0
VERTEX
8
CUT
10
167.2265
20
-118.2688
0
VERTEX
8
CUT
10
167.2939
20
-118.2941
0
VERTEX
8
CUT
10
167.3594
20
-118.3238
0
VERTEX
8
CUT
10
167.4229
20
-118.3578
0
VERTEX
8
CUT
10
167.4840
20
-118.3958
0
VERTEX
8
CUT
10
167.5425
20
-118.4377
0
VERTEX
8
CUT
10
167.5982
20
-118.4834
0
VERTEX
8
CUT
10
167.6507
20
-118.5326
0
VERTEX
8
CUT
10
167.6999
20
-118.5851
0
VERTEX
8
CUT
10
167.7456
20
-118.6408
0
VERTEX
8
CUT
10
167.7875
20
-118.6993
0
VERTEX
8
CUT
10
167.8255
20
-118.7604
0
VERTEX
8
CUT
10
167.8595
20
-118.8239
0
VERTEX
8
CUT
10
167.8892
20
-118.8895
0
VERTEX
8
CUT
10
167.9145
20
-118.9568
0
VERTEX
8
CUT
10
167.9354
20
-119.0257
0
VERTEX
8
CUT
10
167.9518
20
-119.0958
0
VERTEX
8
CUT
10
167.9635
20
-119.1668
0
VERTEX
8
CUT
10
167.9706
20
-119.2385
0
VERTEX
8
CUT
10
167.9729
20
-119.3104
0
VERTEX
8
CUT
10
167.9706
20
-119.3824
0
VERTEX
8
CUT
10
167.9635
20
-119.4540
0
VERTEX
8
CUT
10
167.9518
20
-119.5250
0
VERTEX
8
CUT
10
167.9354
20
-119.5951
0
VERTEX
8
CUT
10
167.9145
20
-119.6640
0
VERTEX
8
CUT
10
167.8892
20
-119.7314
0
VERTEX
8
CUT
10
167.8595
20
-119.7969
0
VERTEX
8
CUT
10
167.8255
20
-119.8604
0
VERTEX
8
CUT
10
167.7875
20
-119.9215
0
VERTEX
8
CUT
10
167.7456
20
-119.9800
0
VERTEX
8
CUT
10
167.6999
20
-120.0357
0
VERTEX
8
CUT
10
167.6507
20
-120.0882
0
VERTEX
8
CUT
10
167.5982
20
-120.1374
0
VERTEX
8
CUT
10
167.5425
20
-120.1831
0
VERTEX
8
CUT
10
167.4840
20
-120.2250
0
VERTEX
8
CUT
10
167.4229
20
-120.2630
0
VERTEX
8
CUT
10
167.3594
20
-120.2970
0
VERTEX
8
CUT
10
167.2939
20
-120.3267
0
VERTEX
8
CUT
10
167.2265
20
-120.3520
0
VERTEX
8
CUT
10
167.1576
20
-120.3729
0
VERTEX
8
CUT
10
167.0875
20
-120.3893
0
VERTEX
8
CUT
10
167.0165
20
-120.4010
0
VERTEX
8
CUT
10
166.9449
20
-120.4081
0
VERTEX
8
CUT
10
166.8729
20
-120.4104
0
SEQEND
0
POLYLINE
8
CUT
66
1
70
1
0
VERTEX
8
CUT
10
51.3822
20
-122.8976
0
VERTEX
8
CUT
10
51.3106
20
-122.8906
0
VERTEX
8
CUT
10
51.2396
20
-122.8789
0
VERTEX
8
CUT
10
51.1695
20
-122.8625
0
VERTEX
8
CUT
10
51.1006
20
-122.8416
0
VERTEX
8
CUT
10
51.0332
20
-122.8163
0
VERTEX
8
CUT
10
50.9676
20
-122.7866
0
VERTEX
8
CUT
10
50.9042
20
-122.7526
0
VERTEX
8
CUT
10
50.8430
20
-122.7146
0
VERTEX
8
CUT
10
50.7845
20
-122.6727
0
VERTEX
8
CUT
10
50.7289
20
-122.6270
0
VERTEX
8
CUT
10
50.6763
20
-122.5778
0
VERTEX
8
CUT
10
50.6271
20
-122.5253
0
VERTEX
8
CUT
10
50.5815
20
-122.4696
0
VERTEX
8
CUT
10
50.5396
20
-122.4111
0
VERTEX
8
CUT
10
50.5015
20
-122.3500
0
VERTEX
8
CUT
10
50.4676
20
-122.2865
0
VERTEX
8
CUT
10
50.4379
20
-122.2210
0
VERTEX
8
CUT
10
50.4125
20
-122.1536
0
VERTEX
8
CUT
10
50.3916
20
-122.0847
0
VERTEX
8
CUT
10
50.3753
20
-122.0146
0
VERTEX
8
CUT
10
50.3636
20
-121.9436
0
VERTEX
8
CUT
10
50.3565
20
-121.8719
0
VERTEX
8
CUT
10
50.3542
20
-121.8000
0
VERTEX
8
CUT
10
50.3565
20
-121.7281
0
VERTEX
8
CUT
10
50.3636
20
-121.6564
0
VERTEX
8
CUT
10
50.3753
20
-121.5854
0
VERTEX
8
CUT
10
50.3916
20
-121.5153
0
VERTEX
8
CUT
10
50.4125
20
-121.4464
0
VERTEX
8
CUT
10
50.4379
20
-121.3790
0
VERTEX
8
CUT
10
50.4676
20
-121.3135
0
VERTEX
8
CUT
10
50.5015
20
-121.2500
0
VERTEX
8
CUT
10
50.5396
20
-121.1889
0
VERTEX
8
CUT
10
50.5815
20
-121.1304
0
VERTEX
8
CUT
10
50.6271
20
-121.0747
0
VERTEX
8
CUT
10
50.6763
20
-121.0222
0
VERTEX
8
CUT
10
50.7289
20
-120.9730
0
VERTEX
8
CUT
10
50.7845
20
-120.9273
0
VERTEX
8
CUT
10
50.8430
20
-120.8854
0
VERTEX
8
CUT
10
50.9042
20
-120.8474
0
VERTEX
8
CUT
10
50.9676
20
-120.8134
0
VERTEX
8
CUT
10
51.0332
20
-120.7837
0
VERTEX
8
CUT
10
51.1006
20
-120.7584
0
VERTEX
8
CUT
10
51.1695
20
-120.7375
0
VERTEX
8
CUT
10
51.2396
20
-120.7211
0
VERTEX
8
CUT
10
51.3106
20
-120.7094
0
VERTEX
8
CUT
10
51.3822
20
-120.7024
0
VERTEX
8
CUT
10
51.4542
20
-120.7000
0
VERTEX
8
CUT
10
51.5261
20
-120.7024
0
VERTEX
8
CUT
10
51.5977
20
-120.7094
0
VERTEX
8
CUT
10
51.6688
20
-120.7211
0
VERTEX
8
CUT
10
51.7389
20
-120.7375
0
VERTEX
8
CUT
10
51.8078
20
-120.7584
0
VERTEX
8
CUT
10
51.8751
20
-120.7837
0
VERTEX
8
CUT
10
51.9407
20
-120.8134
0
VERTEX
8
CUT
10
52.0042
20
-120.8474
0
VERTEX
8
CUT
10
52.0653
20
-120.8854
0
VERTEX
8
CUT
10
52.1238
20
-120.9273
0
VERTEX
8
CUT
10
52.1794
20
-120.9730
0
VERTEX
8
CUT
10
52.2320
20
-121.0222
0
VERTEX
8
CUT
10
52.2812
20
-121.0747
0
VERTEX
8
CUT
10
52.3269
20
-121.1304
0
VERTEX
8
CUT
10
52.3688
20
-121.1889
0
VERTEX
8
CUT
10
52.4068
20
-121.2500
0
VERTEX
8
CUT
10
52.4407
20
-121.3135
0
VERTEX
8
CUT
10
52.4704
20
-121.3790
0
VERTEX
8
CUT
10
52.4958
20
-121.4464
0
VERTEX
8
CUT
10
52.5167
20
-121.5153
0
VERTEX
8
CUT
10
52.5330
20
-121.5854
0
VERTEX
8
CUT
10
52.5448
20
-121.6564
0
VERTEX
8
CUT
10
52.5518
20
-121.7281
0
VERTEX
8
CUT
10
52.5542
20
-121.8000
0
VERTEX
8
CUT
10
52.5518
20
-121.8719
0
VERTEX
8
CUT
10
52.5448
20
-121.9436
0
VERTEX
8
CUT
10
52.5330
20
-122.0146
0
VERTEX
8
CUT
10
52.5167
20
-122.0847
0
VERTEX
8
CUT
10
52.4958
20
-122.1536
0
VERTEX
8
CUT
10
52.4704
20
-122.2210
0
VERTEX
8
CUT
10
52.4407
20
-122.2865
0
VERTEX
8
CUT
10
52.4068
20
-122.3500
0
VERTEX
8
CUT
10
52.3688
20
-122.4111
0
VERTEX
8
CUT
10
52.3269
20
-122.4696
0
VERTEX
8
CUT
10
52.2812
20
-122.5253
0
VERTEX
8
CUT
10
52.2320
20
-122.5778
0
VERTEX
8
CUT
10
52.1794
20
-122.6270
0
VERTEX
8
CUT
10
52.1238
20
-122.6727
0
VERTEX
8
CUT
10
52.0653
20
-122.7146
0
VERTEX
8
CUT
10
52.0042
20
-122.7526
0
VERTEX
8
CUT
10
51.9407
20
-122.7866
0
VERTEX
8
CUT
10
51.8751
20
-122.8163
0
VERTEX
8
CUT
10
51.8078
20
-122.8416
0
VERTEX
8
CUT
10
51.7389
20
-122.8625
0
VERTEX
8
CUT
10
51.6688
20
-122.8789
0
VERTEX
8
CUT
10
51.5977
20
-122.8906
0
VERTEX
8
CUT
10
51.5261
20
-122.8976
0
VERTEX
8
CUT
10
51.4542
20
-122.9000
0
SEQEND
0
POLYLINE
8
CUT
66
1
70
1
0
VERTEX
8
CUT
10
110.3364
20
-122.8976
0
VERTEX
8
CUT
10
110.2648
20
-122.8906
0
VERTEX
8
CUT
10
110.1937
20
-122.8789
0
VERTEX
8
CUT
10
110.1236
20
-122.8625
0
VERTEX
8
CUT
10
110.0547
20
-122.8416
0
VERTEX
8
CUT
10
109.9874
20
-122.8163
0
VERTEX
8
CUT
10
109.9218
20
-122.7866
0
VERTEX
8
CUT
10
109.8583
20
-122.7526
0
VERTEX
8
CUT
10
109.7972
20
-122.7146
0
VERTEX
8
CUT
10
109.7387
20
-122.6727
0
VERTEX
8
CUT
10
109.6831
20
-122.6270
0
VERTEX
8
CUT
10
109.6305
20
-122.5778
0
VERTEX
8
CUT
10
109.5813
20
-122.5253
0
VERTEX
8
CUT
10
109.5356
20
-122.4696
0
VERTEX
8
CUT
10
109.4937
20
-122.4111
0
VERTEX
8
CUT
10
109.4557
20
-122.3500
0
VERTEX
8
CUT
10
109.4218
20
-122.2865
0
VERTEX
8
CUT
10
109.3921
20
-122.2210
0
VERTEX
8
CUT
10
109.3667
20
-122.1536
0
VERTEX
8
CUT
10
109.3458
20
-122.0847
0
VERTEX
8
CUT
10
109.3295
20
-122.0146
0
VERTEX
8
CUT
10
109.3177
20
-121.9436
0
VERTEX
8
CUT
10
109.3107
20
-121.8719
0
VERTEX
8
CUT
10
109.3083
20
-121.8000
0
VERTEX
8
CUT
10
109.3107
20
-121.7281
0
VERTEX
8
CUT
10
109.3177
20
-121.6564
0
VERTEX
8
CUT
10
109.3295
20
-121.5854
0
VERTEX
8
CUT
10
109.3458
20
-121.5153
0
VERTEX
8
CUT
10
109.3667
20
-121.4464
0
VERTEX
8
CUT
10
109.3921
20
-121.3790
0
VERTEX
8
CUT
10
109.4218
20
-121.3135
0
VERTEX
8
CUT
10
109.4557
20
-121.2500
0
VERTEX
8
CUT
10
109.4937
20
-121.1889
0
VERTEX
8
CUT
10
109.5356
20
-121.1304
0
VERTEX
8
CUT
10
109.5813
20
-121.0747
0
VERTEX
8
CUT
10
109.6305
20
-121.0222
0
VERTEX
8
CUT
10
109.6831
20
-120.9730
0
VERTEX
8
CUT
10
109.7387
20
-120.9273
0
VERTEX
8
CUT
10
109.7972
20
-120.8854
0
VERTEX
8
CUT
10
109.8583
20
-120.8474
0
VERTEX
8
CUT
10
109.9218
20
-120.8134
0
VERTEX
8
CUT
10
109.9874
20
-120.7837
0
VERTEX
8
CUT
10
110.0547
20
-120.7584
0
VERTEX
8
CUT
10
110.1236
20
-120.7375
0
VERTEX
8
CUT
10
110.1937
20
-120.7211
0
VERTEX
8
CUT
10
110.2648
20
-120.7094
0
VERTEX
8
CUT
10
110.3364
20
-120.7024
0
VERTEX
8
CUT
10
110.4083
20
-120.7000
0
VERTEX
8
CUT
10
110.4803
20
-120.7024
0
VERTEX
8
CUT
10
110.5519
20
-120.7094
0
VERTEX
8
CUT
10
110.6229
20
-120.7211
0
VERTEX
8
CUT
10
110.6930
20
-120.7375
0
VERTEX
8
CUT
10
110.7619
20
-120.7584
0
VERTEX
8
CUT
10
110.8293
20
-120.7837
0
VERTEX
8
CUT
10
110.8949
20
-120.8134
0
VERTEX
8
CUT
10
110.9583
20
-120.8474
0
VERTEX
8
CUT
10
111.0195
20
-120.8854
0
VERTEX
8
CUT
10
111.0780
20
-120.9273
0
VERTEX
8
CUT
10
111.1336
20
-120.9730
0
VERTEX
8
CUT
10
111.1862
20
-121.0222
0
VERTEX
8
CUT
10
111.2354
20
-121.0747
0
VERTEX
8
CUT
10
111.2810
20
-121.1304
0
VERTEX
8
CUT
10
111.3229
20
-121.1889
0
VERTEX
8
CUT
10
111.3610
20
-121.2500
0
VERTEX
8
CUT
10
111.3949
20
-121.3135
0
VERTEX
8
CUT
10
111.4246
20
-121.3790
0
VERTEX
8
CUT
10
111.4500
20
-121.4464
0
VERTEX
8
CUT
10
111.4709
20
-121.5153
0
VERTEX
8
CUT
10
111.4872
20
-121.5854
0
VERTEX
8
CUT
10
111.4989
20
-121.6564
0
VERTEX
8
CUT
10
111.5060
20
-121.7281
0
VERTEX
8
CUT
10
111.5083
20
-121.8000
0
VERTEX
8
CUT
10
111.5060
20
-121.8719
0
VERTEX
8
CUT
10
111.4989
20
-121.9436
0
VERTEX
8
CUT
10
111.4872
20
-122.0146
0
VERTEX
8
CUT
10
111.4709
20
-122.0847
0
VERTEX
8
CUT
10
111.4500
20
-122.1536
0
VERTEX
8
CUT
10
111.4246
20
-122.2210
0
VERTEX
8
CUT
10
111.3949
20
-122.2865
0
VERTEX
8
CUT
10
111.3610
20
-122.3500
0
VERTEX
8
CUT
10
111.3229
20
-122.4111
0
VERTEX
8
CUT
10
111.2810
20
-122.4696
0
VERTEX
8
CUT
10
111.2354
20
-122.5253
0
VERTEX
8
CUT
10
111.1862
20
-122.5778
0
VERTEX
8
CUT
10
111.1336
20
-122.6270
0
VERTEX
8
CUT
10
111.0780
20
-122.6727
0
VERTEX
8
CUT
10
111.0195
20
-122.7146
0
VERTEX
8
CUT
10
110.9583
20
-122.7526
0
VERTEX
8
CUT
10
110.8949
20
-122.7866
0
VERTEX
8
CUT
10
110.8293
20
-122.8163
0
VERTEX
8
CUT
10
110.7619
20
-122.8416
0
VERTEX
8
CUT
10
110.6930
20
-122.8625
0
VERTEX
8
CUT
10
110.6229
20
-122.8789
0
VERTEX
8
CUT
10
110.5519
20
-122.8906
0
VERTEX
8
CUT
10
110.4803
20
-122.8976
0
VERTEX
8
CUT
10
110.4083
20
-122.9000
0
SEQEND
0
ENDSEC
0
EOF
