0
SECTION
2
HEADER
9
$INSUNITS
70
4
0
ENDSEC
0
SECTION
2
ENTITIES
0
POLYLINE
8
CUT
66
1
70
1
0
VERTEX
8
CUT
10
168.6625
20
-1.0000
0
VERTEX
8
CUT
10
168.6357
20
-0.1825
0
VERTEX
8
CUT
10
168.5556
20
0.6316
0
VERTEX
8
CUT
10
168.4223
20
1.4386
0
VERTEX
8
CUT
10
168.2366
20
2.2352
0
VERTEX
8
CUT
10
167.9991
20
3.0180
0
VERTEX
8
CUT
10
167.7110
20
3.7835
0
VERTEX
8
CUT
10
167.3734
20
4.5286
0
VERTEX
8
CUT
10
166.9878
20
5.2500
0
VERTEX
8
CUT
10
166.5559
20
5.9446
0
VERTEX
8
CUT
10
166.0794
20
6.6095
0
VERTEX
8
CUT
10
165.5605
20
7.2418
0
VERTEX
8
CUT
10
165.0013
20
7.8388
0
VERTEX
8
CUT
10
164.4043
20
8.3980
0
VERTEX
8
CUT
10
163.7720
20
8.9169
0
VERTEX
8
CUT
10
163.1071
20
9.3934
0
VERTEX
8
CUT
10
162.4125
20
9.8253
0
VERTEX
8
CUT
10
161.6911
20
10.2109
0
VERTEX
8
CUT
10
160.9460
20
10.5485
0
VERTEX
8
CUT
10
160.1805
20
10.8366
0
VERTEX
8
CUT
10
159.3977
20
11.0741
0
VERTEX
8
CUT
10
158.6011
20
11.2598
0
VERTEX
8
CUT
10
157.7941
20
11.3931
0
VERTEX
8
CUT
10
156.9800
20
11.4732
0
VERTEX
8
CUT
10
156.1625
20
11.5000
0
VERTEX
8
CUT
10
8.9706
20
11.5000
0
VERTEX
8
CUT
10
9.6000
20
11.1636
0
VERTEX
8
CUT
10
10.4447
20
10.6383
0
VERTEX
8
CUT
10
11.2532
20
10.0590
0
VERTEX
8
CUT
10
12.0221
20
9.4280
0
VERTEX
8
CUT
10
12.7480
20
8.7480
0
VERTEX
8
CUT
10
13.4280
20
8.0221
0
VERTEX
8
CUT
10
14.0590
20
7.2532
0
VERTEX
8
CUT
10
14.6383
20
6.4447
0
VERTEX
8
CUT
10
15.1636
20
5.6000
0
VERTEX
8
CUT
10
15.6325
20
4.7228
0
VERTEX
8
CUT
10
16.0430
20
3.8168
0
VERTEX
8
CUT
10
16.1622
20
3.5000
0
VERTEX
8
CUT
10
156.1625
20
3.5000
0
VERTEX
8
CUT
10
156.4568
20
3.4904
0
VERTEX
8
CUT
10
156.7499
20
3.4615
0
VERTEX
8
CUT
10
157.0404
20
3.4135
0
VERTEX
8
CUT
10
157.3272
20
3.3467
0
VERTEX
8
CUT
10
157.6090
20
3.2612
0
VERTEX
8
CUT
10
157.8846
20
3.1575
0
VERTEX
8
CUT
10
158.1528
20
3.0359
0
VERTEX
8
CUT
10
158.4125
20
2.8971
0
VERTEX
8
CUT
10
158.6626
20
2.7416
0
VERTEX
8
CUT
10
158.9019
20
2.5701
0
VERTEX
8
CUT
10
159.1296
20
2.3833
0
VERTEX
8
CUT
10
159.3445
20
2.1820
0
VERTEX
8
CUT
10
159.5458
20
1.9671
0
VERTEX
8
CUT
10
159.7326
20
1.7394
0
VERTEX
8
CUT
10
159.9041
20
1.5001
0
VERTEX
8
CUT
10
160.0596
20
1.2500
0
VERTEX
8
CUT
10
160.1984
20
0.9903
0
VERTEX
8
CUT
10
160.3200
20
0.7221
0
VERTEX
8
CUT
10
160.4237
20
0.4465
0
VERTEX
8
CUT
10
160.5092
20
0.1647
0
VERTEX
8
CUT
10
160.5760
20
-0.1221
0
VERTEX
8
CUT
10
160.6240
20
-0.4126
0
VERTEX
8
CUT
10
160.6529
20
-0.7057
0
VERTEX
8
CUT
10
160.6625
20
-1.0000
0
VERTEX
8
CUT
10
160.6625
20
-12.7500
0
VERTEX
8
CUT
10
168.6625
20
-12.7500
0
SEQEND
0
POLYLINE
8
CUT
66
1
70
1
0
VERTEX
8
CUT
10
16.9810
20
6.4024
0
VERTEX
8
CUT
10
16.9093
20
6.4094
0
VERTEX
8
CUT
10
16.8383
20
6.4211
0
VERTEX
8
CUT
10
16.7682
20
6.4375
0
VERTEX
8
CUT
10
16.6993
20
6.4584
0
VERTEX
8
CUT
10
16.6320
20
6.4837
0
VERTEX
8
CUT
10
16.5664
20
6.5134
0
VERTEX
8
CUT
10
16.5029
20
6.5474
0
VERTEX
8
CUT
10
16.4418
20
6.5854
0
VERTEX
8
CUT
10
16.3833
20
6.6273
0
VERTEX
8
CUT
10
16.3276
20
6.6730
0
VERTEX
8
CUT
10
16.2751
20
6.7222
0
VERTEX
8
CUT
10
16.2259
20
6.7747
0
VERTEX
8
CUT
10
16.1802
20
6.8304
0
VERTEX
8
CUT
10
16.1383
20
6.8889
0
VERTEX
8
CUT
10
16.1003
20
6.9500
0
VERTEX
8
CUT
10
16.0663
20
7.0135
0
VERTEX
8
CUT
10
16.0366
20
7.0790
0
VERTEX
8
CUT
10
16.0113
20
7.1464
0
VERTEX
8
CUT
10
15.9904
20
7.2153
0
VERTEX
8
CUT
10
15.9740
20
7.2854
0
VERTEX
8
CUT
10
15.9623
20
7.3564
0
VERTEX
8
CUT
10
15.9553
20
7.4281
0
VERTEX
8
CUT
10
15.9529
20
7.5000
0
VERTEX
8
CUT
10
15.9553
20
7.5719
0
VERTEX
8
CUT
10
15.9623
20
7.6436
0
VERTEX
8
CUT
10
15.9740
20
7.7146
0
VERTEX
8
CUT
10
15.9904
20
7.7847
0
VERTEX
8
CUT
10
16.0113
20
7.8536
0
VERTEX
8
CUT
10
16.0366
20
7.9210
0
VERTEX
8
CUT
10
16.0663
20
7.9865
0
VERTEX
8
CUT
10
16.1003
20
8.0500
0
VERTEX
8
CUT
10
16.1383
20
8.1111
0
VERTEX
8
CUT
10
16.1802
20
8.1696
0
VERTEX
8
CUT
10
16.2259
20
8.2253
0
VERTEX
8
CUT
10
16.2751
20
8.2778
0
VERTEX
8
CUT
10
16.3276
20
8.3270
0
VERTEX
8
CUT
10
16.3833
20
8.3727
0
VERTEX
8
CUT
10
16.4418
20
8.4146
0
VERTEX
8
CUT
10
16.5029
20
8.4526
0
VERTEX
8
CUT
10
16.5664
20
8.4866
0
VERTEX
8
CUT
10
16.6320
20
8.5163
0
VERTEX
8
CUT
10
16.6993
20
8.5416
0
VERTEX
8
CUT
10
16.7682
20
8.5625
0
VERTEX
8
CUT
10
16.8383
20
8.5789
0
VERTEX
8
CUT
10
16.9093
20
8.5906
0
VERTEX
8
CUT
10
16.9810
20
8.5976
0
VERTEX
8
CUT
10
17.0529
20
8.6000
0
VERTEX
8
CUT
10
17.1249
20
8.5976
0
VERTEX
8
CUT
10
17.1965
20
8.5906
0
VERTEX
8
CUT
10
17.2675
20
8.5789
0
VERTEX
8
CUT
10
17.3376
20
8.5625
0
VERTEX
8
CUT
10
17.4065
20
8.5416
0
VERTEX
8
CUT
10
17.4739
20
8.5163
0
VERTEX
8
CUT
10
17.5394
20
8.4866
0
VERTEX
8
CUT
10
17.6029
20
8.4526
0
VERTEX
8
CUT
10
17.6640
20
8.4146
0
VERTEX
8
CUT
10
17.7225
20
8.3727
0
VERTEX
8
CUT
10
17.7782
20
8.3270
0
VERTEX
8
CUT
10
17.8307
20
8.2778
0
VERTEX
8
CUT
10
17.8799
20
8.2253
0
VERTEX
8
CUT
10
17.9256
20
8.1696
0
VERTEX
8
CUT
10
17.9675
20
8.1111
0
VERTEX
8
CUT
10
18.0055
20
8.0500
0
VERTEX
8
CUT
10
18.0395
20
7.9865
0
VERTEX
8
CUT
10
18.0692
20
7.9210
0
VERTEX
8
CUT
10
18.0945
20
7.8536
0
VERTEX
8
CUT
10
18.1154
20
7.7847
0
VERTEX
8
CUT
10
18.1318
20
7.7146
0
VERTEX
8
CUT
10
18.1435
20
7.6436
0
VERTEX
8
CUT
10
18.1506
20
7.5719
0
VERTEX
8
CUT
10
18.1529
20
7.5000
0
VERTEX
8
CUT
10
18.1506
20
7.4281
0
VERTEX
8
CUT
10
18.1435
20
7.3564
0
VERTEX
8
CUT
10
18.1318
20
7.2854
0
VERTEX
8
CUT
10
18.1154
20
7.2153
0
VERTEX
8
CUT
10
18.0945
20
7.1464
0
VERTEX
8
CUT
10
18.0692
20
7.0790
0
VERTEX
8
CUT
10
18.0395
20
7.0135
0
VERTEX
8
CUT
10
18.0055
20
6.9500
0
VERTEX
8
CUT
10
17.9675
20
6.8889
0
VERTEX
8
CUT
10
17.9256
20
6.8304
0
VERTEX
8
CUT
10
17.8799
20
6.7747
0
VERTEX
8
CUT
10
17.8307
20
6.7222
0
VERTEX
8
CUT
10
17.7782
20
6.6730
0
VERTEX
8
CUT
10
17.7225
20
6.6273
0
VERTEX
8
CUT
10
17.6640
20
6.5854
0
VERTEX
8
CUT
10
17.6029
20
6.5474
0
VERTEX
8
CUT
10
17.5394
20
6.5134
0
VERTEX
8
CUT
10
17.4739
20
6.4837
0
VERTEX
8
CUT
10
17.4065
20
6.4584
0
VERTEX
8
CUT
10
17.3376
20
6.4375
0
VERTEX
8
CUT
10
17.2675
20
6.4211
0
VERTEX
8
CUT
10
17.1965
20
6.4094
0
VERTEX
8
CUT
10
17.1249
20
6.4024
0
VERTEX
8
CUT
10
17.0529
20
6.4000
0
SEQEND
0
POLYLINE
8
CUT
66
1
70
1
0
VERTEX
8
CUT
10
49.8156
20
6.4024
0
VERTEX
8
CUT
10
49.7439
20
6.4094
0
VERTEX
8
CUT
10
49.6729
20
6.4211
0
VERTEX
8
CUT
10
49.6028
20
6.4375
0
VERTEX
8
CUT
10
49.5339
20
6.4584
0
VERTEX
8
CUT
10
49.4665
20
6.4837
0
VERTEX
8
CUT
10
49.4010
20
6.5134
0
VERTEX
8
CUT
10
49.3375
20
6.5474
0
VERTEX
8
CUT
10
49.2764
20
6.5854
0
VERTEX
8
CUT
10
49.2179
20
6.6273
0
VERTEX
8
CUT
10
49.1622
20
6.6730
0
VERTEX
8
CUT
10
49.1097
20
6.7222
0
VERTEX
8
CUT
10
49.0605
20
6.7747
0
VERTEX
8
CUT
10
49.0148
20
6.8304
0
VERTEX
8
CUT
10
48.9729
20
6.8889
0
VERTEX
8
CUT
10
48.9349
20
6.9500
0
VERTEX
8
CUT
10
48.9009
20
7.0135
0
VERTEX
8
CUT
10
48.8712
20
7.0790
0
VERTEX
8
CUT
10
48.8459
20
7.1464
0
VERTEX
8
CUT
10
48.8250
20
7.2153
0
VERTEX
8
CUT
10
48.8086
20
7.2854
0
VERTEX
8
CUT
10
48.7969
20
7.3564
0
VERTEX
8
CUT
10
48.7899
20
7.4281
0
VERTEX
8
CUT
10
48.7875
20
7.5000
0
VERTEX
8
CUT
10
48.7899
20
7.5719
0
VERTEX
8
CUT
10
48.7969
20
7.6436
0
VERTEX
8
CUT
10
48.8086
20
7.7146
0
VERTEX
8
CUT
10
48.8250
20
7.7847
0
VERTEX
8
CUT
10
48.8459
20
7.8536
0
VERTEX
8
CUT
10
48.8712
20
7.9210
0
VERTEX
8
CUT
10
48.9009
20
7.9865
0
VERTEX
8
CUT
10
48.9349
20
8.0500
0
VERTEX
8
CUT
10
48.9729
20
8.1111
0
VERTEX
8
CUT
10
49.0148
20
8.1696
0
VERTEX
8
CUT
10
49.0605
20
8.2253
0
VERTEX
8
CUT
10
49.1097
20
8.2778
0
VERTEX
8
CUT
10
49.1622
20
8.3270
0
VERTEX
8
CUT
10
49.2179
20
8.3727
0
VERTEX
8
CUT
10
49.2764
20
8.4146
0
VERTEX
8
CUT
10
49.3375
20
8.4526
0
VERTEX
8
CUT
10
49.4010
20
8.4866
0
VERTEX
8
CUT
10
49.4665
20
8.5163
0
VERTEX
8
CUT
10
49.5339
20
8.5416
0
VERTEX
8
CUT
10
49.6028
20
8.5625
0
VERTEX
8
CUT
10
49.6729
20
8.5789
0
VERTEX
8
CUT
10
49.7439
20
8.5906
0
VERTEX
8
CUT
10
49.8156
20
8.5976
0
VERTEX
8
CUT
10
49.8875
20
8.6000
0
VERTEX
8
CUT
10
49.9594
20
8.5976
0
VERTEX
8
CUT
10
50.0311
20
8.5906
0
VERTEX
8
CUT
10
50.1021
20
8.5789
0
VERTEX
8
CUT
10
50.1722
20
8.5625
0
VERTEX
8
CUT
10
50.2411
20
8.5416
0
VERTEX
8
CUT
10
50.3085
20
8.5163
0
VERTEX
8
CUT
10
50.3740
20
8.4866
0
VERTEX
8
CUT
10
50.4375
20
8.4526
0
VERTEX
8
CUT
10
50.4986
20
8.4146
0
VERTEX
8
CUT
10
50.5571
20
8.3727
0
VERTEX
8
CUT
10
50.6128
20
8.3270
0
VERTEX
8
CUT
10
50.6653
20
8.2778
0
VERTEX
8
CUT
10
50.7145
20
8.2253
0
VERTEX
8
CUT
10
50.7602
20
8.1696
0
VERTEX
8
CUT
10
50.8021
20
8.1111
0
VERTEX
8
CUT
10
50.8401
20
8.0500
0
VERTEX
8
CUT
10
50.8741
20
7.9865
0
VERTEX
8
CUT
10
50.9038
20
7.9210
0
VERTEX
8
CUT
10
50.9291
20
7.8536
0
VERTEX
8
CUT
10
50.9500
20
7.7847
0
VERTEX
8
CUT
10
50.9664
20
7.7146
0
VERTEX
8
CUT
10
50.9781
20
7.6436
0
VERTEX
8
CUT
10
50.9851
20
7.5719
0
VERTEX
8
CUT
10
50.9875
20
7.5000
0
VERTEX
8
CUT
10
50.9851
20
7.4281
0
VERTEX
8
CUT
10
50.9781
20
7.3564
0
VERTEX
8
CUT
10
50.9664
20
7.2854
0
VERTEX
8
CUT
10
50.9500
20
7.2153
0
VERTEX
8
CUT
10
50.9291
20
7.1464
0
VERTEX
8
CUT
10
50.9038
20
7.0790
0
VERTEX
8
CUT
10
50.8741
20
7.0135
0
VERTEX
8
CUT
10
50.8401
20
6.9500
0
VERTEX
8
CUT
10
50.8021
20
6.8889
0
VERTEX
8
CUT
10
50.7602
20
6.8304
0
VERTEX
8
CUT
10
50.7145
20
6.7747
0
VERTEX
8
CUT
10
50.6653
20
6.7222
0
VERTEX
8
CUT
10
50.6128
20
6.6730
0
VERTEX
8
CUT
10
50.5571
20
6.6273
0
VERTEX
8
CUT
10
50.4986
20
6.5854
0
VERTEX
8
CUT
10
50.4375
20
6.5474
0
VERTEX
8
CUT
10
50.3740
20
6.5134
0
VERTEX
8
CUT
10
50.3085
20
6.4837
0
VERTEX
8
CUT
10
50.2411
20
6.4584
0
VERTEX
8
CUT
10
50.1722
20
6.4375
0
VERTEX
8
CUT
10
50.1021
20
6.4211
0
VERTEX
8
CUT
10
50.0311
20
6.4094
0
VERTEX
8
CUT
10
49.9594
20
6.4024
0
VERTEX
8
CUT
10
49.8875
20
6.4000
0
SEQEND
0
POLYLINE
8
CUT
66
1
70
1
0
VERTEX
8
CUT
10
107.2031
20
6.4024
0
VERTEX
8
CUT
10
107.1314
20
6.4094
0
VERTEX
8
CUT
10
107.0604
20
6.4211
0
VERTEX
8
CUT
10
106.9903
20
6.4375
0
VERTEX
8
CUT
10
106.9214
20
6.4584
0
VERTEX
8
CUT
10
106.8540
20
6.4837
0
VERTEX
8
CUT
10
106.7885
20
6.5134
0
VERTEX
8
CUT
10
106.7250
20
6.5474
0
VERTEX
8
CUT
10
106.6639
20
6.5854
0
VERTEX
8
CUT
10
106.6054
20
6.6273
0
VERTEX
8
CUT
10
106.5497
20
6.6730
0
VERTEX
8
CUT
10
106.4972
20
6.7222
0
VERTEX
8
CUT
10
106.4480
20
6.7747
0
VERTEX
8
CUT
10
106.4023
20
6.8304
0
VERTEX
8
CUT
10
106.3604
20
6.8889
0
VERTEX
8
CUT
10
106.3224
20
6.9500
0
VERTEX
8
CUT
10
106.2884
20
7.0135
0
VERTEX
8
CUT
10
106.2587
20
7.0790
0
VERTEX
8
CUT
10
106.2334
20
7.1464
0
VERTEX
8
CUT
10
106.2125
20
7.2153
0
VERTEX
8
CUT
10
106.1961
20
7.2854
0
VERTEX
8
CUT
10
106.1844
20
7.3564
0
VERTEX
8
CUT
10
106.1774
20
7.4281
0
VERTEX
8
CUT
10
106.1750
20
7.5000
0
VERTEX
8
CUT
10
106.1774
20
7.5719
0
VERTEX
8
CUT
10
106.1844
20
7.6436
0
VERTEX
8
CUT
10
106.1961
20
7.7146
0
VERTEX
8
CUT
10
106.2125
20
7.7847
0
VERTEX
8
CUT
10
106.2334
20
7.8536
0
VERTEX
8
CUT
10
106.2587
20
7.9210
0
VERTEX
8
CUT
10
106.2884
20
7.9865
0
VERTEX
8
CUT
10
106.3224
20
8.0500
0
VERTEX
8
CUT
10
106.3604
20
8.1111
0
VERTEX
8
CUT
10
106.4023
20
8.1696
0
VERTEX
8
CUT
10
106.4480
20
8.2253
0
VERTEX
8
CUT
10
106.4972
20
8.2778
0
VERTEX
8
CUT
10
106.5497
20
8.3270
0
VERTEX
8
CUT
10
106.6054
20
8.3727
0
VERTEX
8
CUT
10
106.6639
20
8.4146
0
VERTEX
8
CUT
10
106.7250
20
8.4526
0
VERTEX
8
CUT
10
106.7885
20
8.4866
0
VERTEX
8
CUT
10
106.8540
20
8.5163
0
VERTEX
8
CUT
10
106.9214
20
8.5416
0
VERTEX
8
CUT
10
106.9903
20
8.5625
0
VERTEX
8
CUT
10
107.0604
20
8.5789
0
VERTEX
8
CUT
10
107.1314
20
8.5906
0
VERTEX
8
CUT
10
107.2031
20
8.5976
0
VERTEX
8
CUT
10
107.2750
20
8.6000
0
VERTEX
8
CUT
10
107.3469
20
8.5976
0
VERTEX
8
CUT
10
107.4186
20
8.5906
0
VERTEX
8
CUT
10
107.4896
20
8.5789
0
VERTEX
8
CUT
10
107.5597
20
8.5625
0
VERTEX
8
CUT
10
107.6286
20
8.5416
0
VERTEX
8
CUT
10
107.6960
20
8.5163
0
VERTEX
8
CUT
10
107.7615
20
8.4866
0
VERTEX
8
CUT
10
107.8250
20
8.4526
0
VERTEX
8
CUT
10
107.8861
20
8.4146
0
VERTEX
8
CUT
10
107.9446
20
8.3727
0
VERTEX
8
CUT
10
108.0003
20
8.3270
0
VERTEX
8
CUT
10
108.0528
20
8.2778
0
VERTEX
8
CUT
10
108.1020
20
8.2253
0
VERTEX
8
CUT
10
108.1477
20
8.1696
0
VERTEX
8
CUT
10
108.1896
20
8.1111
0
VERTEX
8
CUT
10
108.2276
20
8.0500
0
VERTEX
8
CUT
10
108.2616
20
7.9865
0
VERTEX
8
CUT
10
108.2913
20
7.9210
0
VERTEX
8
CUT
10
108.3166
20
7.8536
0
VERTEX
8
CUT
10
108.3375
20
7.7847
0
VERTEX
8
CUT
10
108.3539
20
7.7146
0
VERTEX
8
CUT
10
108.3656
20
7.6436
0
VERTEX
8
CUT
10
108.3726
20
7.5719
0
VERTEX
8
CUT
10
108.3750
20
7.5000
0
VERTEX
8
CUT
10
108.3726
20
7.4281
0
VERTEX
8
CUT
10
108.3656
20
7.3564
0
VERTEX
8
CUT
10
108.3539
20
7.2854
0
VERTEX
8
CUT
10
108.3375
20
7.2153
0
VERTEX
8
CUT
10
108.3166
20
7.1464
0
VERTEX
8
CUT
10
108.2913
20
7.0790
0
VERTEX
8
CUT
10
108.2616
20
7.0135
0
VERTEX
8
CUT
10
108.2276
20
6.9500
0
VERTEX
8
CUT
10
108.1896
20
6.8889
0
VERTEX
8
CUT
10
108.1477
20
6.8304
0
VERTEX
8
CUT
10
108.1020
20
6.7747
0
VERTEX
8
CUT
10
108.0528
20
6.7222
0
VERTEX
8
CUT
10
108.0003
20
6.6730
0
VERTEX
8
CUT
10
107.9446
20
6.6273
0
VERTEX
8
CUT
10
107.8861
20
6.5854
0
VERTEX
8
CUT
10
107.8250
20
6.5474
0
VERTEX
8
CUT
10
107.7615
20
6.5134
0
VERTEX
8
CUT
10
107.6960
20
6.4837
0
VERTEX
8
CUT
10
107.6286
20
6.4584
0
VERTEX
8
CUT
10
107.5597
20
6.4375
0
VERTEX
8
CUT
10
107.4896
20
6.4211
0
VERTEX
8
CUT
10
107.4186
20
6.4094
0
VERTEX
8
CUT
10
107.3469
20
6.4024
0
VERTEX
8
CUT
10
107.2750
20
6.4000
0
SEQEND
0
POLYLINE
8
CUT
66
1
70
1
0
VERTEX
8
CUT
10
162.1010
20
3.9128
0
VERTEX
8
CUT
10
162.0293
20
3.9198
0
VERTEX
8
CUT
10
161.9583
20
3.9315
0
VERTEX
8
CUT
10
161.8882
20
3.9479
0
VERTEX
8
CUT
10
161.8193
20
3.9688
0
VERTEX
8
CUT
10
161.7520
20
3.9941
0
VERTEX
8
CUT
10
161.6864
20
4.0238
0
VERTEX
8
CUT
10
161.6229
20
4.0578
0
VERTEX
8
CUT
10
161.5618
20
4.0958
0
VERTEX
8
CUT
10
161.5033
20
4.1377
0
VERTEX
8
CUT
10
161.4476
20
4.1834
0
VERTEX
8
CUT
10
161.3951
20
4.2326
0
VERTEX
8
CUT
10
161.3459
20
4.2851
0
VERTEX
8
CUT
10
161.3002
20
4.3408
0
VERTEX
8
CUT
10
161.2583
20
4.3993
0
VERTEX
8
CUT
10
161.2203
20
4.4604
0
VERTEX
8
CUT
10
161.1863
20
4.5239
0
VERTEX
8
CUT
10
161.1566
20
4.5895
0
VERTEX
8
CUT
10
161.1313
20
4.6568
0
VERTEX
8
CUT
10
161.1104
20
4.7257
0
VERTEX
8
CUT
10
161.0940
20
4.7958
0
VERTEX
8
CUT
10
161.0823
20
4.8668
0
VERTEX
8
CUT
10
161.0753
20
4.9385
0
VERTEX
8
CUT
10
161.0729
20
5.0104
0
VERTEX
8
CUT
10
161.0753
20
5.0824
0
VERTEX
8
CUT
10
161.0823
20
5.1540
0
VERTEX
8
CUT
10
161.0940
20
5.2250
0
VERTEX
8
CUT
10
161.1104
20
5.2951
0
VERTEX
8
CUT
10
161.1313
20
5.3640
0
VERTEX
8
CUT
10
161.1566
20
5.4314
0
VERTEX
8
CUT
10
161.1863
20
5.4969
0
VERTEX
8
CUT
10
161.2203
20
5.5604
0
VERTEX
8
CUT
10
161.2583
20
5.6215
0
VERTEX
8
CUT
10
161.3002
20
5.6800
0
VERTEX
8
CUT
10
161.3459
20
5.7357
0
VERTEX
8
CUT
10
161.3951
20
5.7882
0
VERTEX
8
CUT
10
161.4476
20
5.8374
0
VERTEX
8
CUT
10
161.5033
20
5.8831
0
VERTEX
8
CUT
10
161.5618
20
5.9250
0
VERTEX
8
CUT
10
161.6229
20
5.9630
0
VERTEX
8
CUT
10
161.6864
20
5.9970
0
VERTEX
8
CUT
10
161.7520
20
6.0267
0
VERTEX
8
CUT
10
161.8193
20
6.0520
0
VERTEX
8
CUT
10
161.8882
20
6.0729
0
VERTEX
8
CUT
10
161.9583
20
6.0893
0
VERTEX
8
CUT
10
162.0293
20
6.1010
0
VERTEX
8
CUT
10
162.1010
20
6.1081
0
VERTEX
8
CUT
10
162.1729
20
6.1104
0
VERTEX
8
CUT
10
162.2449
20
6.1081
0
VERTEX
8
CUT
10
162.3165
20
6.1010
0
VERTEX
8
CUT
10
162.3875
20
6.0893
0
VERTEX
8
CUT
10
162.4576
20
6.0729
0
VERTEX
8
CUT
10
162.5265
20
6.0520
0
VERTEX
8
CUT
10
162.5939
20
6.0267
0
VERTEX
8
CUT
10
162.6594
20
5.9970
0
VERTEX
8
CUT
10
162.7229
20
5.9630
0
VERTEX
8
CUT
10
162.7840
20
5.9250
0
VERTEX
8
CUT
10
162.8425
20
5.8831
0
VERTEX
8
CUT
10
162.8982
20
5.8374
0
VERTEX
8
CUT
10
162.9507
20
5.7882
0
VERTEX
8
CUT
10
162.9999
20
5.7357
0
VERTEX
8
CUT
10
163.0456
20
5.6800
0
VERTEX
8
CUT
10
163.0875
20
5.6215
0
VERTEX
8
CUT
10
163.1255
20
5.5604
0
VERTEX
8
CUT
10
163.1595
20
5.4969
0
VERTEX
8
CUT
10
163.1892
20
5.4314
0
VERTEX
8
CUT
10
163.2145
20
5.3640
0
VERTEX
8
CUT
10
163.2354
20
5.2951
0
VERTEX
8
CUT
10
163.2518
20
5.2250
0
VERTEX
8
CUT
10
163.2635
20
5.1540
0
VERTEX
8
CUT
10
163.2706
20
5.0824
0
VERTEX
8
CUT
10
163.2729
20
5.0104
0
VERTEX
8
CUT
10
163.2706
20
4.9385
0
VERTEX
8
CUT
10
163.2635
20
4.8668
0
VERTEX
8
CUT
10
163.2518
20
4.7958
0
VERTEX
8
CUT
10
163.2354
20
4.7257
0
VERTEX
8
CUT
10
163.2145
20
4.6568
0
VERTEX
8
CUT
10
163.1892
20
4.5895
0
VERTEX
8
CUT
10
163.1595
20
4.5239
0
VERTEX
8
CUT
10
163.1255
20
4.4604
0
VERTEX
8
CUT
10
163.0875
20
4.3993
0
VERTEX
8
CUT
10
163.0456
20
4.3408
0
VERTEX
8
CUT
10
162.9999
20
4.2851
0
VERTEX
8
CUT
10
162.9507
20
4.2326
0
VERTEX
8
CUT
10
162.8982
20
4.1834
0
VERTEX
8
CUT
10
162.8425
20
4.1377
0
VERTEX
8
CUT
10
162.7840
20
4.0958
0
VERTEX
8
CUT
10
162.7229
20
4.0578
0
VERTEX
8
CUT
10
162.6594
20
4.0238
0
VERTEX
8
CUT
10
162.5939
20
3.9941
0
VERTEX
8
CUT
10
162.5265
20
3.9688
0
VERTEX
8
CUT
10
162.4576
20
3.9479
0
VERTEX
8
CUT
10
162.3875
20
3.9315
0
VERTEX
8
CUT
10
162.3165
20
3.9198
0
VERTEX
8
CUT
10
162.2449
20
3.9128
0
VERTEX
8
CUT
10
162.1729
20
3.9104
0
SEQEND
0
POLYLINE
8
CUT
66
1
70
1
0
VERTEX
8
CUT
10
164.5906
20
-7.9726
0
VERTEX
8
CUT
10
164.5189
20
-7.9656
0
VERTEX
8
CUT
10
164.4479
20
-7.9539
0
VERTEX
8
CUT
10
164.3778
20
-7.9375
0
VERTEX
8
CUT
10
164.3089
20
-7.9166
0
VERTEX
8
CUT
10
164.2415
20
-7.8913
0
VERTEX
8
CUT
10
164.1760
20
-7.8616
0
VERTEX
8
CUT
10
164.1125
20
-7.8276
0
VERTEX
8
CUT
10
164.0514
20
-7.7896
0
VERTEX
8
CUT
10
163.9929
20
-7.7477
0
VERTEX
8
CUT
10
163.9372
20
-7.7020
0
VERTEX
8
CUT
10
163.8847
20
-7.6528
0
VERTEX
8
CUT
10
163.8355
20
-7.6003
0
VERTEX
8
CUT
10
163.7898
20
-7.5446
0
VERTEX
8
CUT
10
163.7479
20
-7.4861
0
VERTEX
8
CUT
10
163.7099
20
-7.4250
0
VERTEX
8
CUT
10
163.6759
20
-7.3615
0
VERTEX
8
CUT
10
163.6462
20
-7.2960
0
VERTEX
8
CUT
10
163.6209
20
-7.2286
0
VERTEX
8
CUT
10
163.6000
20
-7.1597
0
VERTEX
8
CUT
10
163.5836
20
-7.0896
0
VERTEX
8
CUT
10
163.5719
20
-7.0186
0
VERTEX
8
CUT
10
163.5649
20
-6.9469
0
VERTEX
8
CUT
10
163.5625
20
-6.8750
0
VERTEX
8
CUT
10
163.5649
20
-6.8031
0
VERTEX
8
CUT
10
163.5719
20
-6.7314
0
VERTEX
8
CUT
10
163.5836
20
-6.6604
0
VERTEX
8
CUT
10
163.6000
20
-6.5903
0
VERTEX
8
CUT
10
163.6209
20
-6.5214
0
VERTEX
8
CUT
10
163.6462
20
-6.4540
0
VERTEX
8
CUT
10
163.6759
20
-6.3885
0
VERTEX
8
CUT
10
163.7099
20
-6.3250
0
VERTEX
8
CUT
10
163.7479
20
-6.2639
0
VERTEX
8
CUT
10
163.7898
20
-6.2054
0
VERTEX
8
CUT
10
163.8355
20
-6.1497
0
VERTEX
8
CUT
10
163.8847
20
-6.0972
0
VERTEX
8
CUT
10
163.9372
20
-6.0480
0
VERTEX
8
CUT
10
163.9929
20
-6.0023
0
VERTEX
8
CUT
10
164.0514
20
-5.9604
0
VERTEX
8
CUT
10
164.1125
20
-5.9224
0
VERTEX
8
CUT
10
164.1760
20
-5.8884
0
VERTEX
8
CUT
10
164.2415
20
-5.8587
0
VERTEX
8
CUT
10
164.3089
20
-5.8334
0
VERTEX
8
CUT
10
164.3778
20
-5.8125
0
VERTEX
8
CUT
10
164.4479
20
-5.7961
0
VERTEX
8
CUT
10
164.5189
20
-5.7844
0
VERTEX
8
CUT
10
164.5906
20
-5.7774
0
VERTEX
8
CUT
10
164.6625
20
-5.7750
0
VERTEX
8
CUT
10
164.7344
20
-5.7774
0
VERTEX
8
CUT
10
164.8061
20
-5.7844
0
VERTEX
8
CUT
10
164.8771
20
-5.7961
0
VERTEX
8
CUT
10
164.9472
20
-5.8125
0
VERTEX
8
CUT
10
165.0161
20
-5.8334
0
VERTEX
8
CUT
10
165.0835
20
-5.8587
0
VERTEX
8
CUT
10
165.1490
20
-5.8884
0
VERTEX
8
CUT
10
165.2125
20
-5.9224
0
VERTEX
8
CUT
10
165.2736
20
-5.9604
0
VERTEX
8
CUT
10
165.3321
20
-6.0023
0
VERTEX
8
CUT
10
165.3878
20
-6.0480
0
VERTEX
8
CUT
10
165.4403
20
-6.0972
0
VERTEX
8
CUT
10
165.4895
20
-6.1497
0
VERTEX
8
CUT
10
165.5352
20
-6.2054
0
VERTEX
8
CUT
10
165.5771
20
-6.2639
0
VERTEX
8
CUT
10
165.6151
20
-6.3250
0
VERTEX
8
CUT
10
165.6491
20
-6.3885
0
VERTEX
8
CUT
10
165.6788
20
-6.4540
0
VERTEX
8
CUT
10
165.7041
20
-6.5214
0
VERTEX
8
CUT
10
165.7250
20
-6.5903
0
VERTEX
8
CUT
10
165.7414
20
-6.6604
0
VERTEX
8
CUT
10
165.7531
20
-6.7314
0
VERTEX
8
CUT
10
165.7601
20
-6.8031
0
VERTEX
8
CUT
10
165.7625
20
-6.8750
0
VERTEX
8
CUT
10
165.7601
20
-6.9469
0
VERTEX
8
CUT
10
165.7531
20
-7.0186
0
VERTEX
8
CUT
10
165.7414
20
-7.0896
0
VERTEX
8
CUT
10
165.7250
20
-7.1597
0
VERTEX
8
CUT
10
165.7041
20
-7.2286
0
VERTEX
8
CUT
10
165.6788
20
-7.2960
0
VERTEX
8
CUT
10
165.6491
20
-7.3615
0
VERTEX
8
CUT
10
165.6151
20
-7.4250
0
VERTEX
8
CUT
10
165.5771
20
-7.4861
0
VERTEX
8
CUT
10
165.5352
20
-7.5446
0
VERTEX
8
CUT
10
165.4895
20
-7.6003
0
VERTEX
8
CUT
10
165.4403
20
-7.6528
0
VERTEX
8
CUT
10
165.3878
20
-7.7020
0
VERTEX
8
CUT
10
165.3321
20
-7.7477
0
VERTEX
8
CUT
10
165.2736
20
-7.7896
0
VERTEX
8
CUT
10
165.2125
20
-7.8276
0
VERTEX
8
CUT
10
165.1490
20
-7.8616
0
VERTEX
8
CUT
10
165.0835
20
-7.8913
0
VERTEX
8
CUT
10
165.0161
20
-7.9166
0
VERTEX
8
CUT
10
164.9472
20
-7.9375
0
VERTEX
8
CUT
10
164.8771
20
-7.9539
0
VERTEX
8
CUT
10
164.8061
20
-7.9656
0
VERTEX
8
CUT
10
164.7344
20
-7.9726
0
VERTEX
8
CUT
10
164.6625
20
-7.9750
0
SEQEND
0
POLYLINE
8
CUT
66
1
70
1
0
VERTEX
8
CUT
10
156.9800
20
-125.7732
0
VERTEX
8
CUT
10
157.7941
20
-125.6931
0
VERTEX
8
CUT
10
158.6011
20
-125.5598
0
VERTEX
8
CUT
10
159.3977
20
-125.3741
0
VERTEX
8
CUT
10
160.1805
20
-125.1366
0
VERTEX
8
CUT
10
160.9460
20
-124.8485
0
VERTEX
8
CUT
10
161.6911
20
-124.5109
0
VERTEX
8
CUT
10
162.4125
20
-124.1253
0
VERTEX
8
CUT
10
163.1071
20
-123.6934
0
VERTEX
8
CUT
10
163.7720
20
-123.2169
0
VERTEX
8
CUT
10
164.4043
20
-122.6980
0
VERTEX
8
CUT
10
165.0013
20
-122.1388
0
VERTEX
8
CUT
10
165.5605
20
-121.5418
0
VERTEX
8
CUT
10
166.0794
20
-120.9095
0
VERTEX
8
CUT
10
166.5559
20
-120.2446
0
VERTEX
8
CUT
10
166.9878
20
-119.5500
0
VERTEX
8
CUT
10
167.3734
20
-118.8286
0
VERTEX
8
CUT
10
167.7110
20
-118.0835
0
VERTEX
8
CUT
10
167.8008
20
-117.8450
0
VERTEX
8
CUT
10
160.1625
20
-117.8450
0
VERTEX
8
CUT
10
160.1625
20
-115.3575
0
VERTEX
8
CUT
10
160.0596
20
-115.5500
0
VERTEX
8
CUT
10
159.9041
20
-115.8001
0
VERTEX
8
CUT
10
159.7326
20
-116.0394
0
VERTEX
8
CUT
10
159.5458
20
-116.2671
0
VERTEX
8
CUT
10
159.3445
20
-116.4820
0
VERTEX
8
CUT
10
159.1296
20
-116.6833
0
VERTEX
8
CUT
10
158.9019
20
-116.8701
0
VERTEX
8
CUT
10
158.6626
20
-117.0416
0
VERTEX
8
CUT
10
158.4125
20
-117.1971
0
VERTEX
8
CUT
10
158.1528
20
-117.3359
0
VERTEX
8
CUT
10
157.8846
20
-117.4575
0
VERTEX
8
CUT
10
157.6090
20
-117.5612
0
VERTEX
8
CUT
10
157.3272
20
-117.6467
0
VERTEX
8
CUT
10
157.0404
20
-117.7135
0
VERTEX
8
CUT
10
156.7499
20
-117.7615
0
VERTEX
8
CUT
10
156.4568
20
-117.7904
0
VERTEX
8
CUT
10
156.1625
20
-117.8000
0
VERTEX
8
CUT
10
1.0000
20
-117.8000
0
VERTEX
8
CUT
10
0.7057
20
-117.7904
0
VERTEX
8
CUT
10
0.4126
20
-117.7615
0
VERTEX
8
CUT
10
0.1221
20
-117.7135
0
VERTEX
8
CUT
10
-0.1647
20
-117.6467
0
VERTEX
8
CUT
10
-0.4465
20
-117.5612
0
VERTEX
8
CUT
10
-0.7221
20
-117.4575
0
VERTEX
8
CUT
10
-0.9903
20
-117.3359
0
VERTEX
8
CUT
10
-1.2500
20
-117.1971
0
VERTEX
8
CUT
10
-1.5001
20
-117.0416
0
VERTEX
8
CUT
10
-1.7394
20
-116.8701
0
VERTEX
8
CUT
10
-1.9671
20
-116.6833
0
VERTEX
8
CUT
10
-2.1820
20
-116.4820
0
VERTEX
8
CUT
10
-2.3833
20
-116.2671
0
VERTEX
8
CUT
10
-2.5701
20
-116.0394
0
VERTEX
8
CUT
10
-2.7416
20
-115.8001
0
VERTEX
8
CUT
10
-2.8971
20
-115.5500
0
VERTEX
8
CUT
10
-3.0359
20
-115.2903
0
VERTEX
8
CUT
10
-3.1575
20
-115.0221
0
VERTEX
8
CUT
10
-3.2612
20
-114.7465
0
VERTEX
8
CUT
10
-3.3467
20
-114.4647
0
VERTEX
8
CUT
10
-3.4135
20
-114.1779
0
VERTEX
8
CUT
10
-3.4615
20
-113.8874
0
VERTEX
8
CUT
10
-3.4904
20
-113.5943
0
VERTEX
8
CUT
10
-3.5000
20
-113.3000
0
VERTEX
8
CUT
10
-3.5000
20
-16.1622
0
VERTEX
8
CUT
10
-3.8168
20
-16.0430
0
VERTEX
8
CUT
10
-4.7228
20
-15.6325
0
VERTEX
8
CUT
10
-5.6000
20
-15.1636
0
VERTEX
8
CUT
10
-6.4447
20
-14.6383
0
VERTEX
8
CUT
10
-7.2532
20
-14.0590
0
VERTEX
8
CUT
10
-8.0221
20
-13.4280
0
VERTEX
8
CUT
10
-8.7480
20
-12.7480
0
VERTEX
8
CUT
10
-9.4280
20
-12.0221
0
VERTEX
8
CUT
10
-10.0590
20
-11.2532
0
VERTEX
8
CUT
10
-10.6383
20
-10.4447
0
VERTEX
8
CUT
10
-11.1636
20
-9.6000
0
VERTEX
8
CUT
10
-11.5000
20
-8.9706
0
VERTEX
8
CUT
10
-11.5000
20
-113.3000
0
VERTEX
8
CUT
10
-11.4732
20
-114.1175
0
VERTEX
8
CUT
10
-11.3931
20
-114.9316
0
VERTEX
8
CUT
10
-11.2598
20
-115.7386
0
VERTEX
8
CUT
10
-11.0741
20
-116.5352
0
VERTEX
8
CUT
10
-10.8366
20
-117.3180
0
VERTEX
8
CUT
10
-10.5485
20
-118.0835
0
VERTEX
8
CUT
10
-10.2109
20
-118.8286
0
VERTEX
8
CUT
10
-9.8253
20
-119.5500
0
VERTEX
8
CUT
10
-9.3934
20
-120.2446
0
VERTEX
8
CUT
10
-8.9169
20
-120.9095
0
VERTEX
8
CUT
10
-8.3980
20
-121.5418
0
VERTEX
8
CUT
10
-7.8388
20
-122.1388
0
VERTEX
8
CUT
10
-7.2418
20
-122.6980
0
VERTEX
8
CUT
10
-6.6095
20
-123.2169
0
VERTEX
8
CUT
10
-5.9446
20
-123.6934
0
VERTEX
8
CUT
10
-5.2500
20
-124.1253
0
VERTEX
8
CUT
10
-4.5286
20
-124.5109
0
VERTEX
8
CUT
10
-3.7835
20
-124.8485
0
VERTEX
8
CUT
10
-3.0180
20
-125.1366
0
VERTEX
8
CUT
10
-2.2352
20
-125.3741
0
VERTEX
8
CUT
10
-1.4386
20
-125.5598
0
VERTEX
8
CUT
10
-0.6316
20
-125.6931
0
VERTEX
8
CUT
10
0.1825
20
-125.7732
0
VERTEX
8
CUT
10
1.0000
20
-125.8000
0
VERTEX
8
CUT
10
156.1625
20
-125.8000
0
SEQEND
0
POLYLINE
8
CUT
66
1
70
1
0
VERTEX
8
CUT
10
-7.5719
20
-18.1506
0
VERTEX
8
CUT
10
-7.6436
20
-18.1435
0
VERTEX
8
CUT
10
-7.7146
20
-18.1318
0
VERTEX
8
CUT
10
-7.7847
20
-18.1154
0
VERTEX
8
CUT
10
-7.8536
20
-18.0945
0
VERTEX
8
CUT
10
-7.9210
20
-18.0692
0
VERTEX
8
CUT
10
-7.9865
20
-18.0395
0
VERTEX
8
CUT
10
-8.0500
20
-18.0055
0
VERTEX
8
CUT
10
-8.1111
20
-17.9675
0
VERTEX
8
CUT
10
-8.1696
20
-17.9256
0
VERTEX
8
CUT
10
-8.2253
20
-17.8799
0
VERTEX
8
CUT
10
-8.2778
20
-17.8307
0
VERTEX
8
CUT
10
-8.3270
20
-17.7782
0
VERTEX
8
CUT
10
-8.3727
20
-17.7225
0
VERTEX
8
CUT
10
-8.4146
20
-17.6640
0
VERTEX
8
CUT
10
-8.4526
20
-17.6029
0
VERTEX
8
CUT
10
-8.4866
20
-17.5394
0
VERTEX
8
CUT
10
-8.5163
20
-17.4739
0
VERTEX
8
CUT
10
-8.5416
20
-17.4065
0
VERTEX
8
CUT
10
-8.5625
20
-17.3376
0
VERTEX
8
CUT
10
-8.5789
20
-17.2675
0
VERTEX
8
CUT
10
-8.5906
20
-17.1965
0
VERTEX
8
CUT
10
-8.5976
20
-17.1249
0
VERTEX
8
CUT
10
-8.6000
20
-17.0529
0
VERTEX
8
CUT
10
-8.5976
20
-16.9810
0
VERTEX
8
CUT
10
-8.5906
20
-16.9093
0
VERTEX
8
CUT
10
-8.5789
20
-16.8383
0
VERTEX
8
CUT
10
-8.5625
20
-16.7682
0
VERTEX
8
CUT
10
-8.5416
20
-16.6993
0
VERTEX
8
CUT
10
-8.5163
20
-16.6320
0
VERTEX
8
CUT
10
-8.4866
20
-16.5664
0
VERTEX
8
CUT
10
-8.4526
20
-16.5029
0
VERTEX
8
CUT
10
-8.4146
20
-16.4418
0
VERTEX
8
CUT
10
-8.3727
20
-16.3833
0
VERTEX
8
CUT
10
-8.3270
20
-16.3276
0
VERTEX
8
CUT
10
-8.2778
20
-16.2751
0
VERTEX
8
CUT
10
-8.2253
20
-16.2259
0
VERTEX
8
CUT
10
-8.1696
20
-16.1802
0
VERTEX
8
CUT
10
-8.1111
20
-16.1383
0
VERTEX
8
CUT
10
-8.0500
20
-16.1003
0
VERTEX
8
CUT
10
-7.9865
20
-16.0663
0
VERTEX
8
CUT
10
-7.9210
20
-16.0366
0
VERTEX
8
CUT
10
-7.8536
20
-16.0113
0
VERTEX
8
CUT
10
-7.7847
20
-15.9904
0
VERTEX
8
CUT
10
-7.7146
20
-15.9740
0
VERTEX
8
CUT
10
-7.6436
20
-15.9623
0
VERTEX
8
CUT
10
-7.5719
20
-15.9553
0
VERTEX
8
CUT
10
-7.5000
20
-15.9529
0
VERTEX
8
CUT
10
-7.4281
20
-15.9553
0
VERTEX
8
CUT
10
-7.3564
20
-15.9623
0
VERTEX
8
CUT
10
-7.2854
20
-15.9740
0
VERTEX
8
CUT
10
-7.2153
20
-15.9904
0
VERTEX
8
CUT
10
-7.1464
20
-16.0113
0
VERTEX
8
CUT
10
-7.0790
20
-16.0366
0
VERTEX
8
CUT
10
-7.0135
20
-16.0663
0
VERTEX
8
CUT
10
-6.9500
20
-16.1003
0
VERTEX
8
CUT
10
-6.8889
20
-16.1383
0
VERTEX
8
CUT
10
-6.8304
20
-16.1802
0
VERTEX
8
CUT
10
-6.7747
20
-16.2259
0
VERTEX
8
CUT
10
-6.7222
20
-16.2751
0
VERTEX
8
CUT
10
-6.6730
20
-16.3276
0
VERTEX
8
CUT
10
-6.6273
20
-16.3833
0
VERTEX
8
CUT
10
-6.5854
20
-16.4418
0
VERTEX
8
CUT
10
-6.5474
20
-16.5029
0
VERTEX
8
CUT
10
-6.5134
20
-16.5664
0
VERTEX
8
CUT
10
-6.4837
20
-16.6320
0
VERTEX
8
CUT
10
-6.4584
20
-16.6993
0
VERTEX
8
CUT
10
-6.4375
20
-16.7682
0
VERTEX
8
CUT
10
-6.4211
20
-16.8383
0
VERTEX
8
CUT
10
-6.4094
20
-16.9093
0
VERTEX
8
CUT
10
-6.4024
20
-16.9810
0
VERTEX
8
CUT
10
-6.4000
20
-17.0529
0
VERTEX
8
CUT
10
-6.4024
20
-17.1249
0
VERTEX
8
CUT
10
-6.4094
20
-17.1965
0
VERTEX
8
CUT
10
-6.4211
20
-17.2675
0
VERTEX
8
CUT
10
-6.4375
20
-17.3376
0
VERTEX
8
CUT
10
-6.4584
20
-17.4065
0
VERTEX
8
CUT
10
-6.4837
20
-17.4739
0
VERTEX
8
CUT
10
-6.5134
20
-17.5394
0
VERTEX
8
CUT
10
-6.5474
20
-17.6029
0
VERTEX
8
CUT
10
-6.5854
20
-17.6640
0
VERTEX
8
CUT
10
-6.6273
20
-17.7225
0
VERTEX
8
CUT
10
-6.6730
20
-17.7782
0
VERTEX
8
CUT
10
-6.7222
20
-17.8307
0
VERTEX
8
CUT
10
-6.7747
20
-17.8799
0
VERTEX
8
CUT
10
-6.8304
20
-17.9256
0
VERTEX
8
CUT
10
-6.8889
20
-17.9675
0
VERTEX
8
CUT
10
-6.9500
20
-18.0055
0
VERTEX
8
CUT
10
-7.0135
20
-18.0395
0
VERTEX
8
CUT
10
-7.0790
20
-18.0692
0
VERTEX
8
CUT
10
-7.1464
20
-18.0945
0
VERTEX
8
CUT
10
-7.2153
20
-18.1154
0
VERTEX
8
CUT
10
-7.2854
20
-18.1318
0
VERTEX
8
CUT
10
-7.3564
20
-18.1435
0
VERTEX
8
CUT
10
-7.4281
20
-18.1506
0
VERTEX
8
CUT
10
-7.5000
20
-18.1529
0
SEQEND
0
POLYLINE
8
CUT
66
1
70
1
0
VERTEX
8
CUT
10
168.6625
20
-25.2500
0
VERTEX
8
CUT
10
160.6625
20
-25.2500
0
VERTEX
8
CUT
10
160.6625
20
-106.7550
0
VERTEX
8
CUT
10
168.6625
20
-106.7550
0
SEQEND
0
POLYLINE
8
CUT
66
1
70
1
0
VERTEX
8
CUT
10
164.5906
20
-41.8026
0
VERTEX
8
CUT
10
164.5189
20
-41.7956
0
VERTEX
8
CUT
10
164.4479
20
-41.7839
0
VERTEX
8
CUT
10
164.3778
20
-41.7675
0
VERTEX
8
CUT
10
164.3089
20
-41.7466
0
VERTEX
8
CUT
10
164.2415
20
-41.7213
0
VERTEX
8
CUT
10
164.1760
20
-41.6916
0
VERTEX
8
CUT
10
164.1125
20
-41.6576
0
VERTEX
8
CUT
10
164.0514
20
-41.6196
0
VERTEX
8
CUT
10
163.9929
20
-41.5777
0
VERTEX
8
CUT
10
163.9372
20
-41.5320
0
VERTEX
8
CUT
10
163.8847
20
-41.4828
0
VERTEX
8
CUT
10
163.8355
20
-41.4303
0
VERTEX
8
CUT
10
163.7898
20
-41.3746
0
VERTEX
8
CUT
10
163.7479
20
-41.3161
0
VERTEX
8
CUT
10
163.7099
20
-41.2550
0
VERTEX
8
CUT
10
163.6759
20
-41.1915
0
VERTEX
8
CUT
10
163.6462
20
-41.1260
0
VERTEX
8
CUT
10
163.6209
20
-41.0586
0
VERTEX
8
CUT
10
163.6000
20
-40.9897
0
VERTEX
8
CUT
10
163.5836
20
-40.9196
0
VERTEX
8
CUT
10
163.5719
20
-40.8486
0
VERTEX
8
CUT
10
163.5649
20
-40.7769
0
VERTEX
8
CUT
10
163.5625
20
-40.7050
0
VERTEX
8
CUT
10
163.5649
20
-40.6331
0
VERTEX
8
CUT
10
163.5719
20
-40.5614
0
VERTEX
8
CUT
10
163.5836
20
-40.4904
0
VERTEX
8
CUT
10
163.6000
20
-40.4203
0
VERTEX
8
CUT
10
163.6209
20
-40.3514
0
VERTEX
8
CUT
10
163.6462
20
-40.2840
0
VERTEX
8
CUT
10
163.6759
20
-40.2185
0
VERTEX
8
CUT
10
163.7099
20
-40.1550
0
VERTEX
8
CUT
10
163.7479
20
-40.0939
0
VERTEX
8
CUT
10
163.7898
20
-40.0354
0
VERTEX
8
CUT
10
163.8355
20
-39.9797
0
VERTEX
8
CUT
10
163.8847
20
-39.9272
0
VERTEX
8
CUT
10
163.9372
20
-39.8780
0
VERTEX
8
CUT
10
163.9929
20
-39.8323
0
VERTEX
8
CUT
10
164.0514
20
-39.7904
0
VERTEX
8
CUT
10
164.1125
20
-39.7524
0
VERTEX
8
CUT
10
164.1760
20
-39.7184
0
VERTEX
8
CUT
10
164.2415
20
-39.6887
0
VERTEX
8
CUT
10
164.3089
20
-39.6634
0
VERTEX
8
CUT
10
164.3778
20
-39.6425
0
VERTEX
8
CUT
10
164.4479
20
-39.6261
0
VERTEX
8
CUT
10
164.5189
20
-39.6144
0
VERTEX
8
CUT
10
164.5906
20
-39.6074
0
VERTEX
8
CUT
10
164.6625
20
-39.6050
0
VERTEX
8
CUT
10
164.7344
20
-39.6074
0
VERTEX
8
CUT
10
164.8061
20
-39.6144
0
VERTEX
8
CUT
10
164.8771
20
-39.6261
0
VERTEX
8
CUT
10
164.9472
20
-39.6425
0
VERTEX
8
CUT
10
165.0161
20
-39.6634
0
VERTEX
8
CUT
10
165.0835
20
-39.6887
0
VERTEX
8
CUT
10
165.1490
20
-39.7184
0
VERTEX
8
CUT
10
165.2125
20
-39.7524
0
VERTEX
8
CUT
10
165.2736
20
-39.7904
0
VERTEX
8
CUT
10
165.3321
20
-39.8323
0
VERTEX
8
CUT
10
165.3878
20
-39.8780
0
VERTEX
8
CUT
10
165.4403
20
-39.9272
0
VERTEX
8
CUT
10
165.4895
20
-39.9797
0
VERTEX
8
CUT
10
165.5352
20
-40.0354
0
VERTEX
8
CUT
10
165.5771
20
-40.0939
0
VERTEX
8
CUT
10
165.6151
20
-40.1550
0
VERTEX
8
CUT
10
165.6491
20
-40.2185
0
VERTEX
8
CUT
10
165.6788
20
-40.2840
0
VERTEX
8
CUT
10
165.7041
20
-40.3514
0
VERTEX
8
CUT
10
165.7250
20
-40.4203
0
VERTEX
8
CUT
10
165.7414
20
-40.4904
0
VERTEX
8
CUT
10
165.7531
20
-40.5614
0
VERTEX
8
CUT
10
165.7601
20
-40.6331
0
VERTEX
8
CUT
10
165.7625
20
-40.7050
0
VERTEX
8
CUT
10
165.7601
20
-40.7769
0
VERTEX
8
CUT
10
165.7531
20
-40.8486
0
VERTEX
8
CUT
10
165.7414
20
-40.9196
0
VERTEX
8
CUT
10
165.7250
20
-40.9897
0
VERTEX
8
CUT
10
165.7041
20
-41.0586
0
VERTEX
8
CUT
10
165.6788
20
-41.1260
0
VERTEX
8
CUT
10
165.6491
20
-41.1915
0
VERTEX
8
CUT
10
165.6151
20
-41.2550
0
VERTEX
8
CUT
10
165.5771
20
-41.3161
0
VERTEX
8
CUT
10
165.5352
20
-41.3746
0
VERTEX
8
CUT
10
165.4895
20
-41.4303
0
VERTEX
8
CUT
10
165.4403
20
-41.4828
0
VERTEX
8
CUT
10
165.3878
20
-41.5320
0
VERTEX
8
CUT
10
165.3321
20
-41.5777
0
VERTEX
8
CUT
10
165.2736
20
-41.6196
0
VERTEX
8
CUT
10
165.2125
20
-41.6576
0
VERTEX
8
CUT
10
165.1490
20
-41.6916
0
VERTEX
8
CUT
10
165.0835
20
-41.7213
0
VERTEX
8
CUT
10
165.0161
20
-41.7466
0
VERTEX
8
CUT
10
164.9472
20
-41.7675
0
VERTEX
8
CUT
10
164.8771
20
-41.7839
0
VERTEX
8
CUT
10
164.8061
20
-41.7956
0
VERTEX
8
CUT
10
164.7344
20
-41.8026
0
VERTEX
8
CUT
10
164.6625
20
-41.8050
0
SEQEND
0
POLYLINE
8
CUT
66
1
70
1
0
VERTEX
8
CUT
10
-7.5719
20
-58.2476
0
VERTEX
8
CUT
10
-7.6436
20
-58.2406
0
VERTEX
8
CUT
10
-7.7146
20
-58.2289
0
VERTEX
8
CUT
10
-7.7847
20
-58.2125
0
VERTEX
8
CUT
10
-7.8536
20
-58.1916
0
VERTEX
8
CUT
10
-7.9210
20
-58.1663
0
VERTEX
8
CUT
10
-7.9865
20
-58.1366
0
VERTEX
8
CUT
10
-8.0500
20
-58.1026
0
VERTEX
8
CUT
10
-8.1111
20
-58.0646
0
VERTEX
8
CUT
10
-8.1696
20
-58.0227
0
VERTEX
8
CUT
10
-8.2253
20
-57.9770
0
VERTEX
8
CUT
10
-8.2778
20
-57.9278
0
VERTEX
8
CUT
10
-8.3270
20
-57.8753
0
VERTEX
8
CUT
10
-8.3727
20
-57.8196
0
VERTEX
8
CUT
10
-8.4146
20
-57.7611
0
VERTEX
8
CUT
10
-8.4526
20
-57.7000
0
VERTEX
8
CUT
10
-8.4866
20
-57.6365
0
VERTEX
8
CUT
10
-8.5163
20
-57.5710
0
VERTEX
8
CUT
10
-8.5416
20
-57.5036
0
VERTEX
8
CUT
10
-8.5625
20
-57.4347
0
VERTEX
8
CUT
10
-8.5789
20
-57.3646
0
VERTEX
8
CUT
10
-8.5906
20
-57.2936
0
VERTEX
8
CUT
10
-8.5976
20
-57.2219
0
VERTEX
8
CUT
10
-8.6000
20
-57.1500
0
VERTEX
8
CUT
10
-8.5976
20
-57.0781
0
VERTEX
8
CUT
10
-8.5906
20
-57.0064
0
VERTEX
8
CUT
10
-8.5789
20
-56.9354
0
VERTEX
8
CUT
10
-8.5625
20
-56.8653
0
VERTEX
8
CUT
10
-8.5416
20
-56.7964
0
VERTEX
8
CUT
10
-8.5163
20
-56.7290
0
VERTEX
8
CUT
10
-8.4866
20
-56.6635
0
VERTEX
8
CUT
10
-8.4526
20
-56.6000
0
VERTEX
8
CUT
10
-8.4146
20
-56.5389
0
VERTEX
8
CUT
10
-8.3727
20
-56.4804
0
VERTEX
8
CUT
10
-8.3270
20
-56.4247
0
VERTEX
8
CUT
10
-8.2778
20
-56.3722
0
VERTEX
8
CUT
10
-8.2253
20
-56.3230
0
VERTEX
8
CUT
10
-8.1696
20
-56.2773
0
VERTEX
8
CUT
10
-8.1111
20
-56.2354
0
VERTEX
8
CUT
10
-8.0500
20
-56.1974
0
VERTEX
8
CUT
10
-7.9865
20
-56.1634
0
VERTEX
8
CUT
10
-7.9210
20
-56.1337
0
VERTEX
8
CUT
10
-7.8536
20
-56.1084
0
VERTEX
8
CUT
10
-7.7847
20
-56.0875
0
VERTEX
8
CUT
10
-7.7146
20
-56.0711
0
VERTEX
8
CUT
10
-7.6436
20
-56.0594
0
VERTEX
8
CUT
10
-7.5719
20
-56.0524
0
VERTEX
8
CUT
10
-7.5000
20
-56.0500
0
VERTEX
8
CUT
10
-7.4281
20
-56.0524
0
VERTEX
8
CUT
10
-7.3564
20
-56.0594
0
VERTEX
8
CUT
10
-7.2854
20
-56.0711
0
VERTEX
8
CUT
10
-7.2153
20
-56.0875
0
VERTEX
8
CUT
10
-7.1464
20
-56.1084
0
VERTEX
8
CUT
10
-7.0790
20
-56.1337
0
VERTEX
8
CUT
10
-7.0135
20
-56.1634
0
VERTEX
8
CUT
10
-6.9500
20
-56.1974
0
VERTEX
8
CUT
10
-6.8889
20
-56.2354
0
VERTEX
8
CUT
10
-6.8304
20
-56.2773
0
VERTEX
8
CUT
10
-6.7747
20
-56.3230
0
VERTEX
8
CUT
10
-6.7222
20
-56.3722
0
VERTEX
8
CUT
10
-6.6730
20
-56.4247
0
VERTEX
8
CUT
10
-6.6273
20
-56.4804
0
VERTEX
8
CUT
10
-6.5854
20
-56.5389
0
VERTEX
8
CUT
10
-6.5474
20
-56.6000
0
VERTEX
8
CUT
10
-6.5134
20
-56.6635
0
VERTEX
8
CUT
10
-6.4837
20
-56.7290
0
VERTEX
8
CUT
10
-6.4584
20
-56.7964
0
VERTEX
8
CUT
10
-6.4375
20
-56.8653
0
VERTEX
8
CUT
10
-6.4211
20
-56.9354
0
VERTEX
8
CUT
10
-6.4094
20
-57.0064
0
VERTEX
8
CUT
10
-6.4024
20
-57.0781
0
VERTEX
8
CUT
10
-6.4000
20
-57.1500
0
VERTEX
8
CUT
10
-6.4024
20
-57.2219
0
VERTEX
8
CUT
10
-6.4094
20
-57.2936
0
VERTEX
8
CUT
10
-6.4211
20
-57.3646
0
VERTEX
8
CUT
10
-6.4375
20
-57.4347
0
VERTEX
8
CUT
10
-6.4584
20
-57.5036
0
VERTEX
8
CUT
10
-6.4837
20
-57.5710
0
VERTEX
8
CUT
10
-6.5134
20
-57.6365
0
VERTEX
8
CUT
10
-6.5474
20
-57.7000
0
VERTEX
8
CUT
10
-6.5854
20
-57.7611
0
VERTEX
8
CUT
10
-6.6273
20
-57.8196
0
VERTEX
8
CUT
10
-6.6730
20
-57.8753
0
VERTEX
8
CUT
10
-6.7222
20
-57.9278
0
VERTEX
8
CUT
10
-6.7747
20
-57.9770
0
VERTEX
8
CUT
10
-6.8304
20
-58.0227
0
VERTEX
8
CUT
10
-6.8889
20
-58.0646
0
VERTEX
8
CUT
10
-6.9500
20
-58.1026
0
VERTEX
8
CUT
10
-7.0135
20
-58.1366
0
VERTEX
8
CUT
10
-7.0790
20
-58.1663
0
VERTEX
8
CUT
10
-7.1464
20
-58.1916
0
VERTEX
8
CUT
10
-7.2153
20
-58.2125
0
VERTEX
8
CUT
10
-7.2854
20
-58.2289
0
VERTEX
8
CUT
10
-7.3564
20
-58.2406
0
VERTEX
8
CUT
10
-7.4281
20
-58.2476
0
VERTEX
8
CUT
10
-7.5000
20
-58.2500
0
SEQEND
0
POLYLINE
8
CUT
66
1
70
1
0
VERTEX
8
CUT
10
164.5906
20
-74.3026
0
VERTEX
8
CUT
10
164.5189
20
-74.2956
0
VERTEX
8
CUT
10
164.4479
20
-74.2839
0
VERTEX
8
CUT
10
164.3778
20
-74.2675
0
VERTEX
8
CUT
10
164.3089
20
-74.2466
0
VERTEX
8
CUT
10
164.2415
20
-74.2213
0
VERTEX
8
CUT
10
164.1760
20
-74.1916
0
VERTEX
8
CUT
10
164.1125
20
-74.1576
0
VERTEX
8
CUT
10
164.0514
20
-74.1196
0
VERTEX
8
CUT
10
163.9929
20
-74.0777
0
VERTEX
8
CUT
10
163.9372
20
-74.0320
0
VERTEX
8
CUT
10
163.8847
20
-73.9828
0
VERTEX
8
CUT
10
163.8355
20
-73.9303
0
VERTEX
8
CUT
10
163.7898
20
-73.8746
0
VERTEX
8
CUT
10
163.7479
20
-73.8161
0
VERTEX
8
CUT
10
163.7099
20
-73.7550
0
VERTEX
8
CUT
10
163.6759
20
-73.6915
0
VERTEX
8
CUT
10
163.6462
20
-73.6260
0
VERTEX
8
CUT
10
163.6209
20
-73.5586
0
VERTEX
8
CUT
10
163.6000
20
-73.4897
0
VERTEX
8
CUT
10
163.5836
20
-73.4196
0
VERTEX
8
CUT
10
163.5719
20
-73.3486
0
VERTEX
8
CUT
10
163.5649
20
-73.2769
0
VERTEX
8
CUT
10
163.5625
20
-73.2050
0
VERTEX
8
CUT
10
163.5649
20
-73.1331
0
VERTEX
8
CUT
10
163.5719
20
-73.0614
0
VERTEX
8
CUT
10
163.5836
20
-72.9904
0
VERTEX
8
CUT
10
163.6000
20
-72.9203
0
VERTEX
8
CUT
10
163.6209
20
-72.8514
0
VERTEX
8
CUT
10
163.6462
20
-72.7840
0
VERTEX
8
CUT
10
163.6759
20
-72.7185
0
VERTEX
8
CUT
10
163.7099
20
-72.6550
0
VERTEX
8
CUT
10
163.7479
20
-72.5939
0
VERTEX
8
CUT
10
163.7898
20
-72.5354
0
VERTEX
8
CUT
10
163.8355
20
-72.4797
0
VERTEX
8
CUT
10
163.8847
20
-72.4272
0
VERTEX
8
CUT
10
163.9372
20
-72.3780
0
VERTEX
8
CUT
10
163.9929
20
-72.3323
0
VERTEX
8
CUT
10
164.0514
20
-72.2904
0
VERTEX
8
CUT
10
164.1125
20
-72.2524
0
VERTEX
8
CUT
10
164.1760
20
-72.2184
0
VERTEX
8
CUT
10
164.2415
20
-72.1887
0
VERTEX
8
CUT
10
164.3089
20
-72.1634
0
VERTEX
8
CUT
10
164.3778
20
-72.1425
0
VERTEX
8
CUT
10
164.4479
20
-72.1261
0
VERTEX
8
CUT
10
164.5189
20
-72.1144
0
VERTEX
8
CUT
10
164.5906
20
-72.1074
0
VERTEX
8
CUT
10
164.6625
20
-72.1050
0
VERTEX
8
CUT
10
164.7344
20
-72.1074
0
VERTEX
8
CUT
10
164.8061
20
-72.1144
0
VERTEX
8
CUT
10
164.8771
20
-72.1261
0
VERTEX
8
CUT
10
164.9472
20
-72.1425
0
VERTEX
8
CUT
10
165.0161
20
-72.1634
0
VERTEX
8
CUT
10
165.0835
20
-72.1887
0
VERTEX
8
CUT
10
165.1490
20
-72.2184
0
VERTEX
8
CUT
10
165.2125
20
-72.2524
0
VERTEX
8
CUT
10
165.2736
20
-72.2904
0
VERTEX
8
CUT
10
165.3321
20
-72.3323
0
VERTEX
8
CUT
10
165.3878
20
-72.3780
0
VERTEX
8
CUT
10
165.4403
20
-72.4272
0
VERTEX
8
CUT
10
165.4895
20
-72.4797
0
VERTEX
8
CUT
10
165.5352
20
-72.5354
0
VERTEX
8
CUT
10
165.5771
20
-72.5939
0
VERTEX
8
CUT
10
165.6151
20
-72.6550
0
VERTEX
8
CUT
10
165.6491
20
-72.7185
0
VERTEX
8
CUT
10
165.6788
20
-72.7840
0
VERTEX
8
CUT
10
165.7041
20
-72.8514
0
VERTEX
8
CUT
10
165.7250
20
-72.9203
0
VERTEX
8
CUT
10
165.7414
20
-72.9904
0
VERTEX
8
CUT
10
165.7531
20
-73.0614
0
VERTEX
8
CUT
10
165.7601
20
-73.1331
0
VERTEX
8
CUT
10
165.7625
20
-73.2050
0
VERTEX
8
CUT
10
165.7601
20
-73.2769
0
VERTEX
8
CUT
10
165.7531
20
-73.3486
0
VERTEX
8
CUT
10
165.7414
20
-73.4196
0
VERTEX
8
CUT
10
165.7250
20
-73.4897
0
VERTEX
8
CUT
10
165.7041
20
-73.5586
0
VERTEX
8
CUT
10
165.6788
20
-73.6260
0
VERTEX
8
CUT
10
165.6491
20
-73.6915
0
VERTEX
8
CUT
10
165.6151
20
-73.7550
0
VERTEX
8
CUT
10
165.5771
20
-73.8161
0
VERTEX
8
CUT
10
165.5352
20
-73.8746
0
VERTEX
8
CUT
10
165.4895
20
-73.9303
0
VERTEX
8
CUT
10
165.4403
20
-73.9828
0
VERTEX
8
CUT
10
165.3878
20
-74.0320
0
VERTEX
8
CUT
10
165.3321
20
-74.0777
0
VERTEX
8
CUT
10
165.2736
20
-74.1196
0
VERTEX
8
CUT
10
165.2125
20
-74.1576
0
VERTEX
8
CUT
10
165.1490
20
-74.1916
0
VERTEX
8
CUT
10
165.0835
20
-74.2213
0
VERTEX
8
CUT
10
165.0161
20
-74.2466
0
VERTEX
8
CUT
10
164.9472
20
-74.2675
0
VERTEX
8
CUT
10
164.8771
20
-74.2839
0
VERTEX
8
CUT
10
164.8061
20
-74.2956
0
VERTEX
8
CUT
10
164.7344
20
-74.3026
0
VERTEX
8
CUT
10
164.6625
20
-74.3050
0
SEQEND
0
POLYLINE
8
CUT
66
1
70
1
0
VERTEX
8
CUT
10
-5.0824
20
-120.4081
0
VERTEX
8
CUT
10
-5.1540
20
-120.4010
0
VERTEX
8
CUT
10
-5.2250
20
-120.3893
0
VERTEX
8
CUT
10
-5.2951
20
-120.3729
0
VERTEX
8
CUT
10
-5.3640
20
-120.3520
0
VERTEX
8
CUT
10
-5.4314
20
-120.3267
0
VERTEX
8
CUT
10
-5.4969
20
-120.2970
0
VERTEX
8
CUT
10
-5.5604
20
-120.2630
0
VERTEX
8
CUT
10
-5.6215
20
-120.2250
0
VERTEX
8
CUT
10
-5.6800
20
-120.1831
0
VERTEX
8
CUT
10
-5.7357
20
-120.1374
0
VERTEX
8
CUT
10
-5.7882
20
-120.0882
0
VERTEX
8
CUT
10
-5.8374
20
-120.0357
0
VERTEX
8
CUT
10
-5.8831
20
-119.9800
0
VERTEX
8
CUT
10
-5.9250
20
-119.9215
0
VERTEX
8
CUT
10
-5.9630
20
-119.8604
0
VERTEX
8
CUT
10
-5.9970
20
-119.7969
0
VERTEX
8
CUT
10
-6.0267
20
-119.7314
0
VERTEX
8
CUT
10
-6.0520
20
-119.6640
0
VERTEX
8
CUT
10
-6.0729
20
-119.5951
0
VERTEX
8
CUT
10
-6.0893
20
-119.5250
0
VERTEX
8
CUT
10
-6.1010
20
-119.4540
0
VERTEX
8
CUT
10
-6.1081
20
-119.3824
0
VERTEX
8
CUT
10
-6.1104
20
-119.3104
0
VERTEX
8
CUT
10
-6.1081
20
-119.2385
0
VERTEX
8
CUT
10
-6.1010
20
-119.1668
0
VERTEX
8
CUT
10
-6.0893
20
-119.0958
0
VERTEX
8
CUT
10
-6.0729
20
-119.0257
0
VERTEX
8
CUT
10
-6.0520
20
-118.9568
0
VERTEX
8
CUT
10
-6.0267
20
-118.8895
0
VERTEX
8
CUT
10
-5.9970
20
-118.8239
0
VERTEX
8
CUT
10
-5.9630
20
-118.7604
0
VERTEX
8
CUT
10
-5.9250
20
-118.6993
0
VERTEX
8
CUT
10
-5.8831
20
-118.6408
0
VERTEX
8
CUT
10
-5.8374
20
-118.5851
0
VERTEX
8
CUT
10
-5.7882
20
-118.5326
0
VERTEX
8
CUT
10
-5.7357
20
-118.4834
0
VERTEX
8
CUT
10
-5.6800
20
-118.4377
0
VERTEX
8
CUT
10
-5.6215
20
-118.3958
0
VERTEX
8
CUT
10
-5.5604
20
-118.3578
0
VERTEX
8
CUT
10
-5.4969
20
-118.3238
0
VERTEX
8
CUT
10
-5.4314
20
-118.2941
0
VERTEX
8
CUT
10
-5.3640
20
-118.2688
0
VERTEX
8
CUT
10
-5.2951
20
-118.2479
0
VERTEX
8
CUT
10
-5.2250
20
-118.2315
0
VERTEX
8
CUT
10
-5.1540
20
-118.2198
0
VERTEX
8
CUT
10
-5.0824
20
-118.2128
0
VERTEX
8
CUT
10
-5.0104
20
-118.2104
0
VERTEX
8
CUT
10
-4.9385
20
-118.2128
0
VERTEX
8
CUT
10
-4.8668
20
-118.2198
0
VERTEX
8
CUT
10
-4.7958
20
-118.2315
0
VERTEX
8
CUT
10
-4.7257
20
-118.2479
0
VERTEX
8
CUT
10
-4.6568
20
-118.2688
0
VERTEX
8
CUT
10
-4.5895
20
-118.2941
0
VERTEX
8
CUT
10
-4.5239
20
-118.3238
0
VERTEX
8
CUT
10
-4.4604
20
-118.3578
0
VERTEX
8
CUT
10
-4.3993
20
-118.3958
0
VERTEX
8
CUT
10
-4.3408
20
-118.4377
0
VERTEX
8
CUT
10
-4.2851
20
-118.4834
0
VERTEX
8
CUT
10
-4.2326
20
-118.5326
0
VERTEX
8
CUT
10
-4.1834
20
-118.5851
0
VERTEX
8
CUT
10
-4.1377
20
-118.6408
0
VERTEX
8
CUT
10
-4.0958
20
-118.6993
0
VERTEX
8
CUT
10
-4.0578
20
-118.7604
0
VERTEX
8
CUT
10
-4.0238
20
-118.8239
0
VERTEX
8
CUT
10
-3.9941
20
-118.8895
0
VERTEX
8
CUT
10
-3.9688
20
-118.9568
0
VERTEX
8
CUT
10
-3.9479
20
-119.0257
0
VERTEX
8
CUT
10
-3.9315
20
-119.0958
0
VERTEX
8
CUT
10
-3.9198
20
-119.1668
0
VERTEX
8
CUT
10
-3.9128
20
-119.2385
0
VERTEX
8
CUT
10
-3.9104
20
-119.3104
0
VERTEX
8
CUT
10
-3.9128
20
-119.3824
0
VERTEX
8
CUT
10
-3.9198
20
-119.4540
0
VERTEX
8
CUT
10
-3.9315
20
-119.5250
0
VERTEX
8
CUT
10
-3.9479
20
-119.5951
0
VERTEX
8
CUT
10
-3.9688
20
-119.6640
0
VERTEX
8
CUT
10
-3.9941
20
-119.7314
0
VERTEX
8
CUT
10
-4.0238
20
-119.7969
0
VERTEX
8
CUT
10
-4.0578
20
-119.8604
0
VERTEX
8
CUT
10
-4.0958
20
-119.9215
0
VERTEX
8
CUT
10
-4.1377
20
-119.9800
0
VERTEX
8
CUT
10
-4.1834
20
-120.0357
0
VERTEX
8
CUT
10
-4.2326
20
-120.0882
0
VERTEX
8
CUT
10
-4.2851
20
-120.1374
0
VERTEX
8
CUT
10
-4.3408
20
-120.1831
0
VERTEX
8
CUT
10
-4.3993
20
-120.2250
0
VERTEX
8
CUT
10
-4.4604
20
-120.2630
0
VERTEX
8
CUT
10
-4.5239
20
-120.2970
0
VERTEX
8
CUT
10
-4.5895
20
-120.3267
0
VERTEX
8
CUT
10
-4.6568
20
-120.3520
0
VERTEX
8
CUT
10
-4.7257
20
-120.3729
0
VERTEX
8
CUT
10
-4.7958
20
-120.3893
0
VERTEX
8
CUT
10
-4.8668
20
-120.4010
0
VERTEX
8
CUT
10
-4.9385
20
-120.4081
0
VERTEX
8
CUT
10
-5.0104
20
-120.4104
0
SEQEND
0
POLYLINE
8
CUT
66
1
70
1
0
VERTEX
8
CUT
10
162.1010
20
-120.4081
0
VERTEX
8
CUT
10
162.0293
20
-120.4010
0
VERTEX
8
CUT
10
161.9583
20
-120.3893
0
VERTEX
8
CUT
10
161.8882
20
-120.3729
0
VERTEX
8
CUT
10
161.8193
20
-120.3520
0
VERTEX
8
CUT
10
161.7520
20
-120.3267
0
VERTEX
8
CUT
10
161.6864
20
-120.2970
0
VERTEX
8
CUT
10
161.6229
20
-120.2630
0
VERTEX
8
CUT
10
161.5618
20
-120.2250
0
VERTEX
8
CUT
10
161.5033
20
-120.1831
0
VERTEX
8
CUT
10
161.4476
20
-120.1374
0
VERTEX
8
CUT
10
161.3951
20
-120.0882
0
VERTEX
8
CUT
10
161.3459
20
-120.0357
0
VERTEX
8
CUT
10
161.3002
20
-119.9800
0
VERTEX
8
CUT
10
161.2583
20
-119.9215
0
VERTEX
8
CUT
10
161.2203
20
-119.8604
0
VERTEX
8
CUT
10
161.1863
20
-119.7969
0
VERTEX
8
CUT
10
161.1566
20
-119.7314
0
VERTEX
8
CUT
10
161.1313
20
-119.6640
0
VERTEX
8
CUT
10
161.1104
20
-119.5951
0
VERTEX
8
CUT
10
161.0940
20
-119.5250
0
VERTEX
8
CUT
10
161.0823
20
-119.4540
0
VERTEX
8
CUT
10
161.0753
20
-119.3824
0
VERTEX
8
CUT
10
161.0729
20
-119.3104
0
VERTEX
8
CUT
10
161.0753
20
-119.2385
0
VERTEX
8
CUT
10
161.0823
20
-119.1668
0
VERTEX
8
CUT
10
161.0940
20
-119.0958
0
VERTEX
8
CUT
10
161.1104
20
-119.0257
0
VERTEX
8
CUT
10
161.1313
20
-118.9568
0
VERTEX
8
CUT
10
161.1566
20
-118.8895
0
VERTEX
8
CUT
10
161.1863
20
-118.8239
0
VERTEX
8
CUT
10
161.2203
20
-118.7604
0
VERTEX
8
CUT
10
161.2583
20
-118.6993
0
VERTEX
8
CUT
10
161.3002
20
-118.6408
0
VERTEX
8
CUT
10
161.3459
20
-118.5851
0
VERTEX
8
CUT
10
161.3951
20
-118.5326
0
VERTEX
8
CUT
10
161.4476
20
-118.4834
0
VERTEX
8
CUT
10
161.5033
20
-118.4377
0
VERTEX
8
CUT
10
161.5618
20
-118.3958
0
VERTEX
8
CUT
10
161.6229
20
-118.3578
0
VERTEX
8
CUT
10
161.6864
20
-118.3238
0
VERTEX
8
CUT
10
161.7520
20
-118.2941
0
VERTEX
8
CUT
10
161.8193
20
-118.2688
0
VERTEX
8
CUT
10
161.8882
20
-118.2479
0
VERTEX
8
CUT
10
161.9583
20
-118.2315
0
VERTEX
8
CUT
10
162.0293
20
-118.2198
0
VERTEX
8
CUT
10
162.1010
20
-118.2128
0
VERTEX
8
CUT
10
162.1729
20
-118.2104
0
VERTEX
8
CUT
10
162.2449
20
-118.2128
0
VERTEX
8
CUT
10
162.3165
20
-118.2198
0
VERTEX
8
CUT
10
162.3875
20
-118.2315
0
VERTEX
8
CUT
10
162.4576
20
-118.2479
0
VERTEX
8
CUT
10
162.5265
20
-118.2688
0
VERTEX
8
CUT
10
162.5939
20
-118.2941
0
VERTEX
8
CUT
10
162.6594
20
-118.3238
0
VERTEX
8
CUT
10
162.7229
20
-118.3578
0
VERTEX
8
CUT
10
162.7840
20
-118.3958
0
VERTEX
8
CUT
10
162.8425
20
-118.4377
0
VERTEX
8
CUT
10
162.8982
20
-118.4834
0
VERTEX
8
CUT
10
162.9507
20
-118.5326
0
VERTEX
8
CUT
10
162.9999
20
-118.5851
0
VERTEX
8
CUT
10
163.0456
20
-118.6408
0
VERTEX
8
CUT
10
163.0875
20
-118.6993
0
VERTEX
8
CUT
10
163.1255
20
-118.7604
0
VERTEX
8
CUT
10
163.1595
20
-118.8239
0
VERTEX
8
CUT
10
163.1892
20
-118.8895
0
VERTEX
8
CUT
10
163.2145
20
-118.9568
0
VERTEX
8
CUT
10
163.2354
20
-119.0257
0
VERTEX
8
CUT
10
163.2518
20
-119.0958
0
VERTEX
8
CUT
10
163.2635
20
-119.1668
0
VERTEX
8
CUT
10
163.2706
20
-119.2385
0
VERTEX
8
CUT
10
163.2729
20
-119.3104
0
VERTEX
8
CUT
10
163.2706
20
-119.3824
0
VERTEX
8
CUT
10
163.2635
20
-119.4540
0
VERTEX
8
CUT
10
163.2518
20
-119.5250
0
VERTEX
8
CUT
10
163.2354
20
-119.5951
0
VERTEX
8
CUT
10
163.2145
20
-119.6640
0
VERTEX
8
CUT
10
163.1892
20
-119.7314
0
VERTEX
8
CUT
10
163.1595
20
-119.7969
0
VERTEX
8
CUT
10
163.1255
20
-119.8604
0
VERTEX
8
CUT
10
163.0875
20
-119.9215
0
VERTEX
8
CUT
10
163.0456
20
-119.9800
0
VERTEX
8
CUT
10
162.9999
20
-120.0357
0
VERTEX
8
CUT
10
162.9507
20
-120.0882
0
VERTEX
8
CUT
10
162.8982
20
-120.1374
0
VERTEX
8
CUT
10
162.8425
20
-120.1831
0
VERTEX
8
CUT
10
162.7840
20
-120.2250
0
VERTEX
8
CUT
10
162.7229
20
-120.2630
0
VERTEX
8
CUT
10
162.6594
20
-120.2970
0
VERTEX
8
CUT
10
162.5939
20
-120.3267
0
VERTEX
8
CUT
10
162.5265
20
-120.3520
0
VERTEX
8
CUT
10
162.4576
20
-120.3729
0
VERTEX
8
CUT
10
162.3875
20
-120.3893
0
VERTEX
8
CUT
10
162.3165
20
-120.4010
0
VERTEX
8
CUT
10
162.2449
20
-120.4081
0
VERTEX
8
CUT
10
162.1729
20
-120.4104
0
SEQEND
0
POLYLINE
8
CUT
66
1
70
1
0
VERTEX
8
CUT
10
49.8156
20
-122.8976
0
VERTEX
8
CUT
10
49.7439
20
-122.8906
0
VERTEX
8
CUT
10
49.6729
20
-122.8789
0
VERTEX
8
CUT
10
49.6028
20
-122.8625
0
VERTEX
8
CUT
10
49.5339
20
-122.8416
0
VERTEX
8
CUT
10
49.4665
20
-122.8163
0
VERTEX
8
CUT
10
49.4010
20
-122.7866
0
VERTEX
8
CUT
10
49.3375
20
-122.7526
0
VERTEX
8
CUT
10
49.2764
20
-122.7146
0
VERTEX
8
CUT
10
49.2179
20
-122.6727
0
VERTEX
8
CUT
10
49.1622
20
-122.6270
0
VERTEX
8
CUT
10
49.1097
20
-122.5778
0
VERTEX
8
CUT
10
49.0605
20
-122.5253
0
VERTEX
8
CUT
10
49.0148
20
-122.4696
0
VERTEX
8
CUT
10
48.9729
20
-122.4111
0
VERTEX
8
CUT
10
48.9349
20
-122.3500
0
VERTEX
8
CUT
10
48.9009
20
-122.2865
0
VERTEX
8
CUT
10
48.8712
20
-122.2210
0
VERTEX
8
CUT
10
48.8459
20
-122.1536
0
VERTEX
8
CUT
10
48.8250
20
-122.0847
0
VERTEX
8
CUT
10
48.8086
20
-122.0146
0
VERTEX
8
CUT
10
48.7969
20
-121.9436
0
VERTEX
8
CUT
10
48.7899
20
-121.8719
0
VERTEX
8
CUT
10
48.7875
20
-121.8000
0
VERTEX
8
CUT
10
48.7899
20
-121.7281
0
VERTEX
8
CUT
10
48.7969
20
-121.6564
0
VERTEX
8
CUT
10
48.8086
20
-121.5854
0
VERTEX
8
CUT
10
48.8250
20
-121.5153
0
VERTEX
8
CUT
10
48.8459
20
-121.4464
0
VERTEX
8
CUT
10
48.8712
20
-121.3790
0
VERTEX
8
CUT
10
48.9009
20
-121.3135
0
VERTEX
8
CUT
10
48.9349
20
-121.2500
0
VERTEX
8
CUT
10
48.9729
20
-121.1889
0
VERTEX
8
CUT
10
49.0148
20
-121.1304
0
VERTEX
8
CUT
10
49.0605
20
-121.0747
0
VERTEX
8
CUT
10
49.1097
20
-121.0222
0
VERTEX
8
CUT
10
49.1622
20
-120.9730
0
VERTEX
8
CUT
10
49.2179
20
-120.9273
0
VERTEX
8
CUT
10
49.2764
20
-120.8854
0
VERTEX
8
CUT
10
49.3375
20
-120.8474
0
VERTEX
8
CUT
10
49.4010
20
-120.8134
0
VERTEX
8
CUT
10
49.4665
20
-120.7837
0
VERTEX
8
CUT
10
49.5339
20
-120.7584
0
VERTEX
8
CUT
10
49.6028
20
-120.7375
0
VERTEX
8
CUT
10
49.6729
20
-120.7211
0
VERTEX
8
CUT
10
49.7439
20
-120.7094
0
VERTEX
8
CUT
10
49.8156
20
-120.7024
0
VERTEX
8
CUT
10
49.8875
20
-120.7000
0
VERTEX
8
CUT
10
49.9594
20
-120.7024
0
VERTEX
8
CUT
10
50.0311
20
-120.7094
0
VERTEX
8
CUT
10
50.1021
20
-120.7211
0
VERTEX
8
CUT
10
50.1722
20
-120.7375
0
VERTEX
8
CUT
10
50.2411
20
-120.7584
0
VERTEX
8
CUT
10
50.3085
20
-120.7837
0
VERTEX
8
CUT
10
50.3740
20
-120.8134
0
VERTEX
8
CUT
10
50.4375
20
-120.8474
0
VERTEX
8
CUT
10
50.4986
20
-120.8854
0
VERTEX
8
CUT
10
50.5571
20
-120.9273
0
VERTEX
8
CUT
10
50.6128
20
-120.9730
0
VERTEX
8
CUT
10
50.6653
20
-121.0222
0
VERTEX
8
CUT
10
50.7145
20
-121.0747
0
VERTEX
8
CUT
10
50.7602
20
-121.1304
0
VERTEX
8
CUT
10
50.8021
20
-121.1889
0
VERTEX
8
CUT
10
50.8401
20
-121.2500
0
VERTEX
8
CUT
10
50.8741
20
-121.3135
0
VERTEX
8
CUT
10
50.9038
20
-121.3790
0
VERTEX
8
CUT
10
50.9291
20
-121.4464
0
VERTEX
8
CUT
10
50.9500
20
-121.5153
0
VERTEX
8
CUT
10
50.9664
20
-121.5854
0
VERTEX
8
CUT
10
50.9781
20
-121.6564
0
VERTEX
8
CUT
10
50.9851
20
-121.7281
0
VERTEX
8
CUT
10
50.9875
20
-121.8000
0
VERTEX
8
CUT
10
50.9851
20
-121.8719
0
VERTEX
8
CUT
10
50.9781
20
-121.9436
0
VERTEX
8
CUT
10
50.9664
20
-122.0146
0
VERTEX
8
CUT
10
50.9500
20
-122.0847
0
VERTEX
8
CUT
10
50.9291
20
-122.1536
0
VERTEX
8
CUT
10
50.9038
20
-122.2210
0
VERTEX
8
CUT
10
50.8741
20
-122.2865
0
VERTEX
8
CUT
10
50.8401
20
-122.3500
0
VERTEX
8
CUT
10
50.8021
20
-122.4111
0
VERTEX
8
CUT
10
50.7602
20
-122.4696
0
VERTEX
8
CUT
10
50.7145
20
-122.5253
0
VERTEX
8
CUT
10
50.6653
20
-122.5778
0
VERTEX
8
CUT
10
50.6128
20
-122.6270
0
VERTEX
8
CUT
10
50.5571
20
-122.6727
0
VERTEX
8
CUT
10
50.4986
20
-122.7146
0
VERTEX
8
CUT
10
50.4375
20
-122.7526
0
VERTEX
8
CUT
10
50.3740
20
-122.7866
0
VERTEX
8
CUT
10
50.3085
20
-122.8163
0
VERTEX
8
CUT
10
50.2411
20
-122.8416
0
VERTEX
8
CUT
10
50.1722
20
-122.8625
0
VERTEX
8
CUT
10
50.1021
20
-122.8789
0
VERTEX
8
CUT
10
50.0311
20
-122.8906
0
VERTEX
8
CUT
10
49.9594
20
-122.8976
0
VERTEX
8
CUT
10
49.8875
20
-122.9000
0
SEQEND
0
POLYLINE
8
CUT
66
1
70
1
0
VERTEX
8
CUT
10
107.2031
20
-122.8976
0
VERTEX
8
CUT
10
107.1314
20
-122.8906
0
VERTEX
8
CUT
10
107.0604
20
-122.8789
0
VERTEX
8
CUT
10
106.9903
20
-122.8625
0
VERTEX
8
CUT
10
106.9214
20
-122.8416
0
VERTEX
8
CUT
10
106.8540
20
-122.8163
0
VERTEX
8
CUT
10
106.7885
20
-122.7866
0
VERTEX
8
CUT
10
106.7250
20
-122.7526
0
VERTEX
8
CUT
10
106.6639
20
-122.7146
0
VERTEX
8
CUT
10
106.6054
20
-122.6727
0
VERTEX
8
CUT
10
106.5497
20
-122.6270
0
VERTEX
8
CUT
10
106.4972
20
-122.5778
0
VERTEX
8
CUT
10
106.4480
20
-122.5253
0
VERTEX
8
CUT
10
106.4023
20
-122.4696
0
VERTEX
8
CUT
10
106.3604
20
-122.4111
0
VERTEX
8
CUT
10
106.3224
20
-122.3500
0
VERTEX
8
CUT
10
106.2884
20
-122.2865
0
VERTEX
8
CUT
10
106.2587
20
-122.2210
0
VERTEX
8
CUT
10
106.2334
20
-122.1536
0
VERTEX
8
CUT
10
106.2125
20
-122.0847
0
VERTEX
8
CUT
10
106.1961
20
-122.0146
0
VERTEX
8
CUT
10
106.1844
20
-121.9436
0
VERTEX
8
CUT
10
106.1774
20
-121.8719
0
VERTEX
8
CUT
10
106.1750
20
-121.8000
0
VERTEX
8
CUT
10
106.1774
20
-121.7281
0
VERTEX
8
CUT
10
106.1844
20
-121.6564
0
VERTEX
8
CUT
10
106.1961
20
-121.5854
0
VERTEX
8
CUT
10
106.2125
20
-121.5153
0
VERTEX
8
CUT
10
106.2334
20
-121.4464
0
VERTEX
8
CUT
10
106.2587
20
-121.3790
0
VERTEX
8
CUT
10
106.2884
20
-121.3135
0
VERTEX
8
CUT
10
106.3224
20
-121.2500
0
VERTEX
8
CUT
10
106.3604
20
-121.1889
0
VERTEX
8
CUT
10
106.4023
20
-121.1304
0
VERTEX
8
CUT
10
106.4480
20
-121.0747
0
VERTEX
8
CUT
10
106.4972
20
-121.0222
0
VERTEX
8
CUT
10
106.5497
20
-120.9730
0
VERTEX
8
CUT
10
106.6054
20
-120.9273
0
VERTEX
8
CUT
10
106.6639
20
-120.8854
0
VERTEX
8
CUT
10
106.7250
20
-120.8474
0
VERTEX
8
CUT
10
106.7885
20
-120.8134
0
VERTEX
8
CUT
10
106.8540
20
-120.7837
0
VERTEX
8
CUT
10
106.9214
20
-120.7584
0
VERTEX
8
CUT
10
106.9903
20
-120.7375
0
VERTEX
8
CUT
10
107.0604
20
-120.7211
0
VERTEX
8
CUT
10
107.1314
20
-120.7094
0
VERTEX
8
CUT
10
107.2031
20
-120.7024
0
VERTEX
8
CUT
10
107.2750
20
-120.7000
0
VERTEX
8
CUT
10
107.3469
20
-120.7024
0
VERTEX
8
CUT
10
107.4186
20
-120.7094
0
VERTEX
8
CUT
10
107.4896
20
-120.7211
0
VERTEX
8
CUT
10
107.5597
20
-120.7375
0
VERTEX
8
CUT
10
107.6286
20
-120.7584
0
VERTEX
8
CUT
10
107.6960
20
-120.7837
0
VERTEX
8
CUT
10
107.7615
20
-120.8134
0
VERTEX
8
CUT
10
107.8250
20
-120.8474
0
VERTEX
8
CUT
10
107.8861
20
-120.8854
0
VERTEX
8
CUT
10
107.9446
20
-120.9273
0
VERTEX
8
CUT
10
108.0003
20
-120.9730
0
VERTEX
8
CUT
10
108.0528
20
-121.0222
0
VERTEX
8
CUT
10
108.1020
20
-121.0747
0
VERTEX
8
CUT
10
108.1477
20
-121.1304
0
VERTEX
8
CUT
10
108.1896
20
-121.1889
0
VERTEX
8
CUT
10
108.2276
20
-121.2500
0
VERTEX
8
CUT
10
108.2616
20
-121.3135
0
VERTEX
8
CUT
10
108.2913
20
-121.3790
0
VERTEX
8
CUT
10
108.3166
20
-121.4464
0
VERTEX
8
CUT
10
108.3375
20
-121.5153
0
VERTEX
8
CUT
10
108.3539
20
-121.5854
0
VERTEX
8
CUT
10
108.3656
20
-121.6564
0
VERTEX
8
CUT
10
108.3726
20
-121.7281
0
VERTEX
8
CUT
10
108.3750
20
-121.8000
0
VERTEX
8
CUT
10
108.3726
20
-121.8719
0
VERTEX
8
CUT
10
108.3656
20
-121.9436
0
VERTEX
8
CUT
10
108.3539
20
-122.0146
0
VERTEX
8
CUT
10
108.3375
20
-122.0847
0
VERTEX
8
CUT
10
108.3166
20
-122.1536
0
VERTEX
8
CUT
10
108.2913
20
-122.2210
0
VERTEX
8
CUT
10
108.2616
20
-122.2865
0
VERTEX
8
CUT
10
108.2276
20
-122.3500
0
VERTEX
8
CUT
10
108.1896
20
-122.4111
0
VERTEX
8
CUT
10
108.1477
20
-122.4696
0
VERTEX
8
CUT
10
108.1020
20
-122.5253
0
VERTEX
8
CUT
10
108.0528
20
-122.5778
0
VERTEX
8
CUT
10
108.0003
20
-122.6270
0
VERTEX
8
CUT
10
107.9446
20
-122.6727
0
VERTEX
8
CUT
10
107.8861
20
-122.7146
0
VERTEX
8
CUT
10
107.8250
20
-122.7526
0
VERTEX
8
CUT
10
107.7615
20
-122.7866
0
VERTEX
8
CUT
10
107.6960
20
-122.8163
0
VERTEX
8
CUT
10
107.6286
20
-122.8416
0
VERTEX
8
CUT
10
107.5597
20
-122.8625
0
VERTEX
8
CUT
10
107.4896
20
-122.8789
0
VERTEX
8
CUT
10
107.4186
20
-122.8906
0
VERTEX
8
CUT
10
107.3469
20
-122.8976
0
VERTEX
8
CUT
10
107.2750
20
-122.9000
0
SEQEND
0
ENDSEC
0
EOF
