0
SECTION
2
HEADER
9
$INSUNITS
70
4
0
ENDSEC
0
SECTION
2
ENTITIES
0
POLYLINE
8
CUT
66
1
70
1
0
VERTEX
8
CUT
10
166.3800
20
-125.7732
0
VERTEX
8
CUT
10
167.1941
20
-125.6931
0
VERTEX
8
CUT
10
168.0011
20
-125.5598
0
VERTEX
8
CUT
10
168.7977
20
-125.3741
0
VERTEX
8
CUT
10
169.5805
20
-125.1366
0
VERTEX
8
CUT
10
170.3460
20
-124.8485
0
VERTEX
8
CUT
10
171.0911
20
-124.5109
0
VERTEX
8
CUT
10
171.8125
20
-124.1253
0
VERTEX
8
CUT
10
172.5071
20
-123.6934
0
VERTEX
8
CUT
10
173.1720
20
-123.2169
0
VERTEX
8
CUT
10
173.8043
20
-122.6980
0
VERTEX
8
CUT
10
174.4013
20
-122.1388
0
VERTEX
8
CUT
10
174.9605
20
-121.5418
0
VERTEX
8
CUT
10
175.4794
20
-120.9095
0
VERTEX
8
CUT
10
175.9559
20
-120.2446
0
VERTEX
8
CUT
10
176.3878
20
-119.5500
0
VERTEX
8
CUT
10
176.7734
20
-118.8286
0
VERTEX
8
CUT
10
177.1110
20
-118.0835
0
VERTEX
8
CUT
10
177.3991
20
-117.3180
0
VERTEX
8
CUT
10
177.6366
20
-116.5352
0
VERTEX
8
CUT
10
177.8223
20
-115.7386
0
VERTEX
8
CUT
10
177.9556
20
-114.9316
0
VERTEX
8
CUT
10
178.0357
20
-114.1175
0
VERTEX
8
CUT
10
178.0625
20
-113.3000
0
VERTEX
8
CUT
10
178.0625
20
5.0000
0
VERTEX
8
CUT
10
178.0357
20
5.8175
0
VERTEX
8
CUT
10
177.9556
20
6.6316
0
VERTEX
8
CUT
10
177.8223
20
7.4386
0
VERTEX
8
CUT
10
177.6366
20
8.2352
0
VERTEX
8
CUT
10
177.3991
20
9.0180
0
VERTEX
8
CUT
10
177.1110
20
9.7835
0
VERTEX
8
CUT
10
176.7734
20
10.5286
0
VERTEX
8
CUT
10
176.3878
20
11.2500
0
VERTEX
8
CUT
10
175.9559
20
11.9446
0
VERTEX
8
CUT
10
175.4794
20
12.6095
0
VERTEX
8
CUT
10
174.9605
20
13.2418
0
VERTEX
8
CUT
10
174.4013
20
13.8388
0
VERTEX
8
CUT
10
173.8043
20
14.3980
0
VERTEX
8
CUT
10
173.1720
20
14.9169
0
VERTEX
8
CUT
10
172.5071
20
15.3934
0
VERTEX
8
CUT
10
171.8125
20
15.8253
0
VERTEX
8
CUT
10
171.0911
20
16.2109
0
VERTEX
8
CUT
10
170.3460
20
16.5485
0
VERTEX
8
CUT
10
169.5805
20
16.8366
0
VERTEX
8
CUT
10
168.7977
20
17.0741
0
VERTEX
8
CUT
10
168.0011
20
17.2598
0
VERTEX
8
CUT
10
167.1941
20
17.3931
0
VERTEX
8
CUT
10
166.3800
20
17.4732
0
VERTEX
8
CUT
10
165.5625
20
17.5000
0
VERTEX
8
CUT
10
1.0000
20
17.5000
0
VERTEX
8
CUT
10
0.1825
20
17.4732
0
VERTEX
8
CUT
10
-0.6316
20
17.3931
0
VERTEX
8
CUT
10
-1.4386
20
17.2598
0
VERTEX
8
CUT
10
-2.2352
20
17.0741
0
VERTEX
8
CUT
10
-3.0180
20
16.8366
0
VERTEX
8
CUT
10
-3.7835
20
16.5485
0
VERTEX
8
CUT
10
-4.5286
20
16.2109
0
VERTEX
8
CUT
10
-5.2500
20
15.8253
0
VERTEX
8
CUT
10
-5.9446
20
15.3934
0
VERTEX
8
CUT
10
-6.6095
20
14.9169
0
VERTEX
8
CUT
10
-7.2418
20
14.3980
0
VERTEX
8
CUT
10
-7.8388
20
13.8388
0
VERTEX
8
CUT
10
-8.3980
20
13.2418
0
VERTEX
8
CUT
10
-8.9169
20
12.6095
0
VERTEX
8
CUT
10
-9.3934
20
11.9446
0
VERTEX
8
CUT
10
-9.8253
20
11.2500
0
VERTEX
8
CUT
10
-10.2109
20
10.5286
0
VERTEX
8
CUT
10
-10.5485
20
9.7835
0
VERTEX
8
CUT
10
-10.8366
20
9.0180
0
VERTEX
8
CUT
10
-11.0741
20
8.2352
0
VERTEX
8
CUT
10
-11.2598
20
7.4386
0
VERTEX
8
CUT
10
-11.3931
20
6.6316
0
VERTEX
8
CUT
10
-11.4732
20
5.8175
0
VERTEX
8
CUT
10
-11.5000
20
5.0000
0
VERTEX
8
CUT
10
-11.5000
20
-113.3000
0
VERTEX
8
CUT
10
-11.4732
20
-114.1175
0
VERTEX
8
CUT
10
-11.3931
20
-114.9316
0
VERTEX
8
CUT
10
-11.2598
20
-115.7386
0
VERTEX
8
CUT
10
-11.0741
20
-116.5352
0
VERTEX
8
CUT
10
-10.8366
20
-117.3180
0
VERTEX
8
CUT
10
-10.5485
20
-118.0835
0
VERTEX
8
CUT
10
-10.2109
20
-118.8286
0
VERTEX
8
CUT
10
-9.8253
20
-119.5500
0
VERTEX
8
CUT
10
-9.3934
20
-120.2446
0
VERTEX
8
CUT
10
-8.9169
20
-120.9095
0
VERTEX
8
CUT
10
-8.3980
20
-121.5418
0
VERTEX
8
CUT
10
-7.8388
20
-122.1388
0
VERTEX
8
CUT
10
-7.2418
20
-122.6980
0
VERTEX
8
CUT
10
-6.6095
20
-123.2169
0
VERTEX
8
CUT
10
-5.9446
20
-123.6934
0
VERTEX
8
CUT
10
-5.2500
20
-124.1253
0
VERTEX
8
CUT
10
-4.5286
20
-124.5109
0
VERTEX
8
CUT
10
-3.7835
20
-124.8485
0
VERTEX
8
CUT
10
-3.0180
20
-125.1366
0
VERTEX
8
CUT
10
-2.2352
20
-125.3741
0
VERTEX
8
CUT
10
-1.4386
20
-125.5598
0
VERTEX
8
CUT
10
-0.6316
20
-125.6931
0
VERTEX
8
CUT
10
0.1825
20
-125.7732
0
VERTEX
8
CUT
10
1.0000
20
-125.8000
0
VERTEX
8
CUT
10
165.5625
20
-125.8000
0
SEQEND
0
POLYLINE
8
CUT
66
1
70
1
0
VERTEX
8
CUT
10
19.0719
20
12.4024
0
VERTEX
8
CUT
10
19.0002
20
12.4094
0
VERTEX
8
CUT
10
18.9292
20
12.4211
0
VERTEX
8
CUT
10
18.8591
20
12.4375
0
VERTEX
8
CUT
10
18.7902
20
12.4584
0
VERTEX
8
CUT
10
18.7229
20
12.4837
0
VERTEX
8
CUT
10
18.6573
20
12.5134
0
VERTEX
8
CUT
10
18.5938
20
12.5474
0
VERTEX
8
CUT
10
18.5327
20
12.5854
0
VERTEX
8
CUT
10
18.4742
20
12.6273
0
VERTEX
8
CUT
10
18.4185
20
12.6730
0
VERTEX
8
CUT
10
18.3660
20
12.7222
0
VERTEX
8
CUT
10
18.3168
20
12.7747
0
VERTEX
8
CUT
10
18.2711
20
12.8304
0
VERTEX
8
CUT
10
18.2292
20
12.8889
0
VERTEX
8
CUT
10
18.1912
20
12.9500
0
VERTEX
8
CUT
10
18.1572
20
13.0135
0
VERTEX
8
CUT
10
18.1275
20
13.0790
0
VERTEX
8
CUT
10
18.1022
20
13.1464
0
VERTEX
8
CUT
10
18.0813
20
13.2153
0
VERTEX
8
CUT
10
18.0649
20
13.2854
0
VERTEX
8
CUT
10
18.0532
20
13.3564
0
VERTEX
8
CUT
10
18.0462
20
13.4281
0
VERTEX
8
CUT
10
18.0438
20
13.5000
0
VERTEX
8
CUT
10
18.0462
20
13.5719
0
VERTEX
8
CUT
10
18.0532
20
13.6436
0
VERTEX
8
CUT
10
18.0649
20
13.7146
0
VERTEX
8
CUT
10
18.0813
20
13.7847
0
VERTEX
8
CUT
10
18.1022
20
13.8536
0
VERTEX
8
CUT
10
18.1275
20
13.9210
0
VERTEX
8
CUT
10
18.1572
20
13.9865
0
VERTEX
8
CUT
10
18.1912
20
14.0500
0
VERTEX
8
CUT
10
18.2292
20
14.1111
0
VERTEX
8
CUT
10
18.2711
20
14.1696
0
VERTEX
8
CUT
10
18.3168
20
14.2253
0
VERTEX
8
CUT
10
18.3660
20
14.2778
0
VERTEX
8
CUT
10
18.4185
20
14.3270
0
VERTEX
8
CUT
10
18.4742
20
14.3727
0
VERTEX
8
CUT
10
18.5327
20
14.4146
0
VERTEX
8
CUT
10
18.5938
20
14.4526
0
VERTEX
8
CUT
10
18.6573
20
14.4866
0
VERTEX
8
CUT
10
18.7229
20
14.5163
0
VERTEX
8
CUT
10
18.7902
20
14.5416
0
VERTEX
8
CUT
10
18.8591
20
14.5625
0
VERTEX
8
CUT
10
18.9292
20
14.5789
0
VERTEX
8
CUT
10
19.0002
20
14.5906
0
VERTEX
8
CUT
10
19.0719
20
14.5976
0
VERTEX
8
CUT
10
19.1438
20
14.6000
0
VERTEX
8
CUT
10
19.2157
20
14.5976
0
VERTEX
8
CUT
10
19.2874
20
14.5906
0
VERTEX
8
CUT
10
19.3584
20
14.5789
0
VERTEX
8
CUT
10
19.4285
20
14.5625
0
VERTEX
8
CUT
10
19.4974
20
14.5416
0
VERTEX
8
CUT
10
19.5648
20
14.5163
0
VERTEX
8
CUT
10
19.6303
20
14.4866
0
VERTEX
8
CUT
10
19.6938
20
14.4526
0
VERTEX
8
CUT
10
19.7549
20
14.4146
0
VERTEX
8
CUT
10
19.8134
20
14.3727
0
VERTEX
8
CUT
10
19.8691
20
14.3270
0
VERTEX
8
CUT
10
19.9216
20
14.2778
0
VERTEX
8
CUT
10
19.9708
20
14.2253
0
VERTEX
8
CUT
10
20.0165
20
14.1696
0
VERTEX
8
CUT
10
20.0584
20
14.1111
0
VERTEX
8
CUT
10
20.0964
20
14.0500
0
VERTEX
8
CUT
10
20.1304
20
13.9865
0
VERTEX
8
CUT
10
20.1601
20
13.9210
0
VERTEX
8
CUT
10
20.1854
20
13.8536
0
VERTEX
8
CUT
10
20.2063
20
13.7847
0
VERTEX
8
CUT
10
20.2227
20
13.7146
0
VERTEX
8
CUT
10
20.2344
20
13.6436
0
VERTEX
8
CUT
10
20.2414
20
13.5719
0
VERTEX
8
CUT
10
20.2438
20
13.5000
0
VERTEX
8
CUT
10
20.2414
20
13.4281
0
VERTEX
8
CUT
10
20.2344
20
13.3564
0
VERTEX
8
CUT
10
20.2227
20
13.2854
0
VERTEX
8
CUT
10
20.2063
20
13.2153
0
VERTEX
8
CUT
10
20.1854
20
13.1464
0
VERTEX
8
CUT
10
20.1601
20
13.0790
0
VERTEX
8
CUT
10
20.1304
20
13.0135
0
VERTEX
8
CUT
10
20.0964
20
12.9500
0
VERTEX
8
CUT
10
20.0584
20
12.8889
0
VERTEX
8
CUT
10
20.0165
20
12.8304
0
VERTEX
8
CUT
10
19.9708
20
12.7747
0
VERTEX
8
CUT
10
19.9216
20
12.7222
0
VERTEX
8
CUT
10
19.8691
20
12.6730
0
VERTEX
8
CUT
10
19.8134
20
12.6273
0
VERTEX
8
CUT
10
19.7549
20
12.5854
0
VERTEX
8
CUT
10
19.6938
20
12.5474
0
VERTEX
8
CUT
10
19.6303
20
12.5134
0
VERTEX
8
CUT
10
19.5648
20
12.4837
0
VERTEX
8
CUT
10
19.4974
20
12.4584
0
VERTEX
8
CUT
10
19.4285
20
12.4375
0
VERTEX
8
CUT
10
19.3584
20
12.4211
0
VERTEX
8
CUT
10
19.2874
20
12.4094
0
VERTEX
8
CUT
10
19.2157
20
12.4024
0
VERTEX
8
CUT
10
19.1438
20
12.4000
0
SEQEND
0
POLYLINE
8
CUT
66
1
70
1
0
VERTEX
8
CUT
10
52.9489
20
12.4024
0
VERTEX
8
CUT
10
52.8773
20
12.4094
0
VERTEX
8
CUT
10
52.8062
20
12.4211
0
VERTEX
8
CUT
10
52.7361
20
12.4375
0
VERTEX
8
CUT
10
52.6672
20
12.4584
0
VERTEX
8
CUT
10
52.5999
20
12.4837
0
VERTEX
8
CUT
10
52.5343
20
12.5134
0
VERTEX
8
CUT
10
52.4708
20
12.5474
0
VERTEX
8
CUT
10
52.4097
20
12.5854
0
VERTEX
8
CUT
10
52.3512
20
12.6273
0
VERTEX
8
CUT
10
52.2956
20
12.6730
0
VERTEX
8
CUT
10
52.2430
20
12.7222
0
VERTEX
8
CUT
10
52.1938
20
12.7747
0
VERTEX
8
CUT
10
52.1481
20
12.8304
0
VERTEX
8
CUT
10
52.1062
20
12.8889
0
VERTEX
8
CUT
10
52.0682
20
12.9500
0
VERTEX
8
CUT
10
52.0343
20
13.0135
0
VERTEX
8
CUT
10
52.0046
20
13.0790
0
VERTEX
8
CUT
10
51.9792
20
13.1464
0
VERTEX
8
CUT
10
51.9583
20
13.2153
0
VERTEX
8
CUT
10
51.9420
20
13.2854
0
VERTEX
8
CUT
10
51.9302
20
13.3564
0
VERTEX
8
CUT
10
51.9232
20
13.4281
0
VERTEX
8
CUT
10
51.9208
20
13.5000
0
VERTEX
8
CUT
10
51.9232
20
13.5719
0
VERTEX
8
CUT
10
51.9302
20
13.6436
0
VERTEX
8
CUT
10
51.9420
20
13.7146
0
VERTEX
8
CUT
10
51.9583
20
13.7847
0
VERTEX
8
CUT
10
51.9792
20
13.8536
0
VERTEX
8
CUT
10
52.0046
20
13.9210
0
VERTEX
8
CUT
10
52.0343
20
13.9865
0
VERTEX
8
CUT
10
52.0682
20
14.0500
0
VERTEX
8
CUT
10
52.1062
20
14.1111
0
VERTEX
8
CUT
10
52.1481
20
14.1696
0
VERTEX
8
CUT
10
52.1938
20
14.2253
0
VERTEX
8
CUT
10
52.2430
20
14.2778
0
VERTEX
8
CUT
10
52.2956
20
14.3270
0
VERTEX
8
CUT
10
52.3512
20
14.3727
0
VERTEX
8
CUT
10
52.4097
20
14.4146
0
VERTEX
8
CUT
10
52.4708
20
14.4526
0
VERTEX
8
CUT
10
52.5343
20
14.4866
0
VERTEX
8
CUT
10
52.5999
20
14.5163
0
VERTEX
8
CUT
10
52.6672
20
14.5416
0
VERTEX
8
CUT
10
52.7361
20
14.5625
0
VERTEX
8
CUT
10
52.8062
20
14.5789
0
VERTEX
8
CUT
10
52.8773
20
14.5906
0
VERTEX
8
CUT
10
52.9489
20
14.5976
0
VERTEX
8
CUT
10
53.0208
20
14.6000
0
VERTEX
8
CUT
10
53.0928
20
14.5976
0
VERTEX
8
CUT
10
53.1644
20
14.5906
0
VERTEX
8
CUT
10
53.2354
20
14.5789
0
VERTEX
8
CUT
10
53.3055
20
14.5625
0
VERTEX
8
CUT
10
53.3744
20
14.5416
0
VERTEX
8
CUT
10
53.4418
20
14.5163
0
VERTEX
8
CUT
10
53.5074
20
14.4866
0
VERTEX
8
CUT
10
53.5708
20
14.4526
0
VERTEX
8
CUT
10
53.6320
20
14.4146
0
VERTEX
8
CUT
10
53.6905
20
14.3727
0
VERTEX
8
CUT
10
53.7461
20
14.3270
0
VERTEX
8
CUT
10
53.7987
20
14.2778
0
VERTEX
8
CUT
10
53.8479
20
14.2253
0
VERTEX
8
CUT
10
53.8935
20
14.1696
0
VERTEX
8
CUT
10
53.9354
20
14.1111
0
VERTEX
8
CUT
10
53.9735
20
14.0500
0
VERTEX
8
CUT
10
54.0074
20
13.9865
0
VERTEX
8
CUT
10
54.0371
20
13.9210
0
VERTEX
8
CUT
10
54.0625
20
13.8536
0
VERTEX
8
CUT
10
54.0834
20
13.7847
0
VERTEX
8
CUT
10
54.0997
20
13.7146
0
VERTEX
8
CUT
10
54.1114
20
13.6436
0
VERTEX
8
CUT
10
54.1185
20
13.5719
0
VERTEX
8
CUT
10
54.1208
20
13.5000
0
VERTEX
8
CUT
10
54.1185
20
13.4281
0
VERTEX
8
CUT
10
54.1114
20
13.3564
0
VERTEX
8
CUT
10
54.0997
20
13.2854
0
VERTEX
8
CUT
10
54.0834
20
13.2153
0
VERTEX
8
CUT
10
54.0625
20
13.1464
0
VERTEX
8
CUT
10
54.0371
20
13.0790
0
VERTEX
8
CUT
10
54.0074
20
13.0135
0
VERTEX
8
CUT
10
53.9735
20
12.9500
0
VERTEX
8
CUT
10
53.9354
20
12.8889
0
VERTEX
8
CUT
10
53.8935
20
12.8304
0
VERTEX
8
CUT
10
53.8479
20
12.7747
0
VERTEX
8
CUT
10
53.7987
20
12.7222
0
VERTEX
8
CUT
10
53.7461
20
12.6730
0
VERTEX
8
CUT
10
53.6905
20
12.6273
0
VERTEX
8
CUT
10
53.6320
20
12.5854
0
VERTEX
8
CUT
10
53.5708
20
12.5474
0
VERTEX
8
CUT
10
53.5074
20
12.5134
0
VERTEX
8
CUT
10
53.4418
20
12.4837
0
VERTEX
8
CUT
10
53.3744
20
12.4584
0
VERTEX
8
CUT
10
53.3055
20
12.4375
0
VERTEX
8
CUT
10
53.2354
20
12.4211
0
VERTEX
8
CUT
10
53.1644
20
12.4094
0
VERTEX
8
CUT
10
53.0928
20
12.4024
0
VERTEX
8
CUT
10
53.0208
20
12.4000
0
SEQEND
0
POLYLINE
8
CUT
66
1
70
1
0
VERTEX
8
CUT
10
113.4697
20
12.4024
0
VERTEX
8
CUT
10
113.3981
20
12.4094
0
VERTEX
8
CUT
10
113.3271
20
12.4211
0
VERTEX
8
CUT
10
113.2570
20
12.4375
0
VERTEX
8
CUT
10
113.1881
20
12.4584
0
VERTEX
8
CUT
10
113.1207
20
12.4837
0
VERTEX
8
CUT
10
113.0551
20
12.5134
0
VERTEX
8
CUT
10
112.9917
20
12.5474
0
VERTEX
8
CUT
10
112.9305
20
12.5854
0
VERTEX
8
CUT
10
112.8720
20
12.6273
0
VERTEX
8
CUT
10
112.8164
20
12.6730
0
VERTEX
8
CUT
10
112.7638
20
12.7222
0
VERTEX
8
CUT
10
112.7146
20
12.7747
0
VERTEX
8
CUT
10
112.6690
20
12.8304
0
VERTEX
8
CUT
10
112.6271
20
12.8889
0
VERTEX
8
CUT
10
112.5890
20
12.9500
0
VERTEX
8
CUT
10
112.5551
20
13.0135
0
VERTEX
8
CUT
10
112.5254
20
13.0790
0
VERTEX
8
CUT
10
112.5000
20
13.1464
0
VERTEX
8
CUT
10
112.4791
20
13.2153
0
VERTEX
8
CUT
10
112.4628
20
13.2854
0
VERTEX
8
CUT
10
112.4511
20
13.3564
0
VERTEX
8
CUT
10
112.4440
20
13.4281
0
VERTEX
8
CUT
10
112.4417
20
13.5000
0
VERTEX
8
CUT
10
112.4440
20
13.5719
0
VERTEX
8
CUT
10
112.4511
20
13.6436
0
VERTEX
8
CUT
10
112.4628
20
13.7146
0
VERTEX
8
CUT
10
112.4791
20
13.7847
0
VERTEX
8
CUT
10
112.5000
20
13.8536
0
VERTEX
8
CUT
10
112.5254
20
13.9210
0
VERTEX
8
CUT
10
112.5551
20
13.9865
0
VERTEX
8
CUT
10
112.5890
20
14.0500
0
VERTEX
8
CUT
10
112.6271
20
14.1111
0
VERTEX
8
CUT
10
112.6690
20
14.1696
0
VERTEX
8
CUT
10
112.7146
20
14.2253
0
VERTEX
8
CUT
10
112.7638
20
14.2778
0
VERTEX
8
CUT
10
112.8164
20
14.3270
0
VERTEX
8
CUT
10
112.8720
20
14.3727
0
VERTEX
8
CUT
10
112.9305
20
14.4146
0
VERTEX
8
CUT
10
112.9917
20
14.4526
0
VERTEX
8
CUT
10
113.0551
20
14.4866
0
VERTEX
8
CUT
10
113.1207
20
14.5163
0
VERTEX
8
CUT
10
113.1881
20
14.5416
0
VERTEX
8
CUT
10
113.2570
20
14.5625
0
VERTEX
8
CUT
10
113.3271
20
14.5789
0
VERTEX
8
CUT
10
113.3981
20
14.5906
0
VERTEX
8
CUT
10
113.4697
20
14.5976
0
VERTEX
8
CUT
10
113.5417
20
14.6000
0
VERTEX
8
CUT
10
113.6136
20
14.5976
0
VERTEX
8
CUT
10
113.6852
20
14.5906
0
VERTEX
8
CUT
10
113.7563
20
14.5789
0
VERTEX
8
CUT
10
113.8264
20
14.5625
0
VERTEX
8
CUT
10
113.8953
20
14.5416
0
VERTEX
8
CUT
10
113.9626
20
14.5163
0
VERTEX
8
CUT
10
114.0282
20
14.4866
0
VERTEX
8
CUT
10
114.0917
20
14.4526
0
VERTEX
8
CUT
10
114.1528
20
14.4146
0
VERTEX
8
CUT
10
114.2113
20
14.3727
0
VERTEX
8
CUT
10
114.2669
20
14.3270
0
VERTEX
8
CUT
10
114.3195
20
14.2778
0
VERTEX
8
CUT
10
114.3687
20
14.2253
0
VERTEX
8
CUT
10
114.4144
20
14.1696
0
VERTEX
8
CUT
10
114.4563
20
14.1111
0
VERTEX
8
CUT
10
114.4943
20
14.0500
0
VERTEX
8
CUT
10
114.5282
20
13.9865
0
VERTEX
8
CUT
10
114.5579
20
13.9210
0
VERTEX
8
CUT
10
114.5833
20
13.8536
0
VERTEX
8
CUT
10
114.6042
20
13.7847
0
VERTEX
8
CUT
10
114.6205
20
13.7146
0
VERTEX
8
CUT
10
114.6323
20
13.6436
0
VERTEX
8
CUT
10
114.6393
20
13.5719
0
VERTEX
8
CUT
10
114.6417
20
13.5000
0
VERTEX
8
CUT
10
114.6393
20
13.4281
0
VERTEX
8
CUT
10
114.6323
20
13.3564
0
VERTEX
8
CUT
10
114.6205
20
13.2854
0
VERTEX
8
CUT
10
114.6042
20
13.2153
0
VERTEX
8
CUT
10
114.5833
20
13.1464
0
VERTEX
8
CUT
10
114.5579
20
13.0790
0
VERTEX
8
CUT
10
114.5282
20
13.0135
0
VERTEX
8
CUT
10
114.4943
20
12.9500
0
VERTEX
8
CUT
10
114.4563
20
12.8889
0
VERTEX
8
CUT
10
114.4144
20
12.8304
0
VERTEX
8
CUT
10
114.3687
20
12.7747
0
VERTEX
8
CUT
10
114.3195
20
12.7222
0
VERTEX
8
CUT
10
114.2669
20
12.6730
0
VERTEX
8
CUT
10
114.2113
20
12.6273
0
VERTEX
8
CUT
10
114.1528
20
12.5854
0
VERTEX
8
CUT
10
114.0917
20
12.5474
0
VERTEX
8
CUT
10
114.0282
20
12.5134
0
VERTEX
8
CUT
10
113.9626
20
12.4837
0
VERTEX
8
CUT
10
113.8953
20
12.4584
0
VERTEX
8
CUT
10
113.8264
20
12.4375
0
VERTEX
8
CUT
10
113.7563
20
12.4211
0
VERTEX
8
CUT
10
113.6852
20
12.4094
0
VERTEX
8
CUT
10
113.6136
20
12.4024
0
VERTEX
8
CUT
10
113.5417
20
12.4000
0
SEQEND
0
POLYLINE
8
CUT
66
1
70
1
0
VERTEX
8
CUT
10
156.8142
20
-38.5949
0
VERTEX
8
CUT
10
156.4872
20
-38.5842
0
VERTEX
8
CUT
10
156.4807
20
-38.5838
0
VERTEX
8
CUT
10
156.1551
20
-38.5517
0
VERTEX
8
CUT
10
156.1551
20
-38.5517
0
VERTEX
8
CUT
10
156.1486
20
-38.5509
0
VERTEX
8
CUT
10
155.8258
20
-38.4976
0
VERTEX
8
CUT
10
155.8193
20
-38.4963
0
VERTEX
8
CUT
10
155.5007
20
-38.4220
0
VERTEX
8
CUT
10
155.4944
20
-38.4203
0
VERTEX
8
CUT
10
155.1813
20
-38.3253
0
VERTEX
8
CUT
10
155.1751
20
-38.3232
0
VERTEX
8
CUT
10
154.8689
20
-38.2080
0
VERTEX
8
CUT
10
154.8628
20
-38.2055
0
VERTEX
8
CUT
10
154.5648
20
-38.0705
0
VERTEX
8
CUT
10
154.5589
20
-38.0676
0
VERTEX
8
CUT
10
154.2704
20
-37.9133
0
VERTEX
8
CUT
10
154.2647
20
-37.9100
0
VERTEX
8
CUT
10
153.9868
20
-37.7373
0
VERTEX
8
CUT
10
153.9868
20
-37.7373
0
VERTEX
8
CUT
10
153.9814
20
-37.7336
0
VERTEX
8
CUT
10
153.7154
20
-37.5431
0
VERTEX
8
CUT
10
153.7103
20
-37.5391
0
VERTEX
8
CUT
10
153.4573
20
-37.3315
0
VERTEX
8
CUT
10
153.4524
20
-37.3272
0
VERTEX
8
CUT
10
153.2136
20
-37.1035
0
VERTEX
8
CUT
10
153.2090
20
-37.0989
0
VERTEX
8
CUT
10
152.9853
20
-36.8601
0
VERTEX
8
CUT
10
152.9810
20
-36.8552
0
VERTEX
8
CUT
10
152.7734
20
-36.6022
0
VERTEX
8
CUT
10
152.7694
20
-36.5971
0
VERTEX
8
CUT
10
152.5789
20
-36.3311
0
VERTEX
8
CUT
10
152.5752
20
-36.3257
0
VERTEX
8
CUT
10
152.4025
20
-36.0478
0
VERTEX
8
CUT
10
152.3992
20
-36.0421
0
VERTEX
8
CUT
10
152.2449
20
-35.7536
0
VERTEX
8
CUT
10
152.2420
20
-35.7477
0
VERTEX
8
CUT
10
152.1070
20
-35.4497
0
VERTEX
8
CUT
10
152.1045
20
-35.4436
0
VERTEX
8
CUT
10
151.9893
20
-35.1374
0
VERTEX
8
CUT
10
151.9893
20
-35.1374
0
VERTEX
8
CUT
10
151.9872
20
-35.1312
0
VERTEX
8
CUT
10
151.8922
20
-34.8181
0
VERTEX
8
CUT
10
151.8905
20
-34.8118
0
VERTEX
8
CUT
10
151.8162
20
-34.4932
0
VERTEX
8
CUT
10
151.8149
20
-34.4867
0
VERTEX
8
CUT
10
151.7616
20
-34.1639
0
VERTEX
8
CUT
10
151.7608
20
-34.1574
0
VERTEX
8
CUT
10
151.7287
20
-33.8318
0
VERTEX
8
CUT
10
151.7283
20
-33.8253
0
VERTEX
8
CUT
10
151.7176
20
-33.4983
0
VERTEX
8
CUT
10
151.7175
20
-33.4950
0
VERTEX
8
CUT
10
151.7175
20
5.3950
0
VERTEX
8
CUT
10
151.7176
20
5.3983
0
VERTEX
8
CUT
10
151.7283
20
5.7253
0
VERTEX
8
CUT
10
151.7287
20
5.7318
0
VERTEX
8
CUT
10
151.7608
20
6.0574
0
VERTEX
8
CUT
10
151.7608
20
6.0574
0
VERTEX
8
CUT
10
151.7616
20
6.0639
0
VERTEX
8
CUT
10
151.8149
20
6.3867
0
VERTEX
8
CUT
10
151.8162
20
6.3932
0
VERTEX
8
CUT
10
151.8905
20
6.7118
0
VERTEX
8
CUT
10
151.8922
20
6.7181
0
VERTEX
8
CUT
10
151.9872
20
7.0312
0
VERTEX
8
CUT
10
151.9893
20
7.0374
0
VERTEX
8
CUT
10
152.1045
20
7.3436
0
VERTEX
8
CUT
10
152.1070
20
7.3497
0
VERTEX
8
CUT
10
152.2420
20
7.6477
0
VERTEX
8
CUT
10
152.2449
20
7.6536
0
VERTEX
8
CUT
10
152.3992
20
7.9421
0
VERTEX
8
CUT
10
152.4025
20
7.9478
0
VERTEX
8
CUT
10
152.5752
20
8.2257
0
VERTEX
8
CUT
10
152.5752
20
8.2257
0
VERTEX
8
CUT
10
152.5789
20
8.2311
0
VERTEX
8
CUT
10
152.7694
20
8.4971
0
VERTEX
8
CUT
10
152.7734
20
8.5022
0
VERTEX
8
CUT
10
152.9810
20
8.7552
0
VERTEX
8
CUT
10
152.9853
20
8.7601
0
VERTEX
8
CUT
10
153.2090
20
8.9989
0
VERTEX
8
CUT
10
153.2136
20
9.0035
0
VERTEX
8
CUT
10
153.4524
20
9.2272
0
VERTEX
8
CUT
10
153.4573
20
9.2315
0
VERTEX
8
CUT
10
153.7103
20
9.4391
0
VERTEX
8
CUT
10
153.7154
20
9.4431
0
VERTEX
8
CUT
10
153.9814
20
9.6336
0
VERTEX
8
CUT
10
153.9868
20
9.6373
0
VERTEX
8
CUT
10
154.2647
20
9.8100
0
VERTEX
8
CUT
10
154.2704
20
9.8133
0
VERTEX
8
CUT
10
154.5589
20
9.9676
0
VERTEX
8
CUT
10
154.5648
20
9.9705
0
VERTEX
8
CUT
10
154.8628
20
10.1055
0
VERTEX
8
CUT
10
154.8689
20
10.1080
0
VERTEX
8
CUT
10
155.1751
20
10.2232
0
VERTEX
8
CUT
10
155.1751
20
10.2232
0
VERTEX
8
CUT
10
155.1813
20
10.2253
0
VERTEX
8
CUT
10
155.4944
20
10.3203
0
VERTEX
8
CUT
10
155.5007
20
10.3220
0
VERTEX
8
CUT
10
155.8193
20
10.3963
0
VERTEX
8
CUT
10
155.8258
20
10.3976
0
VERTEX
8
CUT
10
156.1486
20
10.4509
0
VERTEX
8
CUT
10
156.1551
20
10.4517
0
VERTEX
8
CUT
10
156.4807
20
10.4838
0
VERTEX
8
CUT
10
156.4872
20
10.4842
0
VERTEX
8
CUT
10
156.8142
20
10.4949
0
VERTEX
8
CUT
10
156.8175
20
10.4950
0
VERTEX
8
CUT
10
169.7075
20
10.4950
0
VERTEX
8
CUT
10
169.7108
20
10.4949
0
VERTEX
8
CUT
10
170.0378
20
10.4842
0
VERTEX
8
CUT
10
170.0443
20
10.4838
0
VERTEX
8
CUT
10
170.3699
20
10.4517
0
VERTEX
8
CUT
10
170.3699
20
10.4517
0
VERTEX
8
CUT
10
170.3764
20
10.4509
0
VERTEX
8
CUT
10
170.6992
20
10.3976
0
VERTEX
8
CUT
10
170.7057
20
10.3963
0
VERTEX
8
CUT
10
171.0243
20
10.3220
0
VERTEX
8
CUT
10
171.0306
20
10.3203
0
VERTEX
8
CUT
10
171.3437
20
10.2253
0
VERTEX
8
CUT
10
171.3499
20
10.2232
0
VERTEX
8
CUT
10
171.6561
20
10.1080
0
VERTEX
8
CUT
10
171.6622
20
10.1055
0
VERTEX
8
CUT
10
171.9602
20
9.9705
0
VERTEX
8
CUT
10
171.9661
20
9.9676
0
VERTEX
8
CUT
10
172.2546
20
9.8133
0
VERTEX
8
CUT
10
172.2603
20
9.8100
0
VERTEX
8
CUT
10
172.5382
20
9.6373
0
VERTEX
8
CUT
10
172.5382
20
9.6373
0
VERTEX
8
CUT
10
172.5436
20
9.6336
0
VERTEX
8
CUT
10
172.8096
20
9.4431
0
VERTEX
8
CUT
10
172.8147
20
9.4391
0
VERTEX
8
CUT
10
173.0677
20
9.2315
0
VERTEX
8
CUT
10
173.0726
20
9.2272
0
VERTEX
8
CUT
10
173.3114
20
9.0035
0
VERTEX
8
CUT
10
173.3160
20
8.9989
0
VERTEX
8
CUT
10
173.5397
20
8.7601
0
VERTEX
8
CUT
10
173.5440
20
8.7552
0
VERTEX
8
CUT
10
173.7516
20
8.5022
0
VERTEX
8
CUT
10
173.7556
20
8.4971
0
VERTEX
8
CUT
10
173.9461
20
8.2311
0
VERTEX
8
CUT
10
173.9498
20
8.2257
0
VERTEX
8
CUT
10
174.1225
20
7.9478
0
VERTEX
8
CUT
10
174.1258
20
7.9421
0
VERTEX
8
CUT
10
174.2801
20
7.6536
0
VERTEX
8
CUT
10
174.2830
20
7.6477
0
VERTEX
8
CUT
10
174.4180
20
7.3497
0
VERTEX
8
CUT
10
174.4205
20
7.3436
0
VERTEX
8
CUT
10
174.5357
20
7.0374
0
VERTEX
8
CUT
10
174.5357
20
7.0374
0
VERTEX
8
CUT
10
174.5378
20
7.0312
0
VERTEX
8
CUT
10
174.6328
20
6.7181
0
VERTEX
8
CUT
10
174.6345
20
6.7118
0
VERTEX
8
CUT
10
174.7088
20
6.3932
0
VERTEX
8
CUT
10
174.7101
20
6.3867
0
VERTEX
8
CUT
10
174.7634
20
6.0639
0
VERTEX
8
CUT
10
174.7642
20
6.0574
0
VERTEX
8
CUT
10
174.7963
20
5.7318
0
VERTEX
8
CUT
10
174.7967
20
5.7253
0
VERTEX
8
CUT
10
174.8074
20
5.3983
0
VERTEX
8
CUT
10
174.8075
20
5.3950
0
VERTEX
8
CUT
10
174.8075
20
-33.4950
0
VERTEX
8
CUT
10
174.8074
20
-33.4983
0
VERTEX
8
CUT
10
174.7967
20
-33.8253
0
VERTEX
8
CUT
10
174.7963
20
-33.8318
0
VERTEX
8
CUT
10
174.7642
20
-34.1574
0
VERTEX
8
CUT
10
174.7642
20
-34.1574
0
VERTEX
8
CUT
10
174.7634
20
-34.1639
0
VERTEX
8
CUT
10
174.7101
20
-34.4867
0
VERTEX
8
CUT
10
174.7088
20
-34.4932
0
VERTEX
8
CUT
10
174.6345
20
-34.8118
0
VERTEX
8
CUT
10
174.6328
20
-34.8181
0
VERTEX
8
CUT
10
174.5378
20
-35.1312
0
VERTEX
8
CUT
10
174.5357
20
-35.1374
0
VERTEX
8
CUT
10
174.4205
20
-35.4436
0
VERTEX
8
CUT
10
174.4180
20
-35.4497
0
VERTEX
8
CUT
10
174.2830
20
-35.7477
0
VERTEX
8
CUT
10
174.2801
20
-35.7536
0
VERTEX
8
CUT
10
174.1258
20
-36.0421
0
VERTEX
8
CUT
10
174.1225
20
-36.0478
0
VERTEX
8
CUT
10
173.9498
20
-36.3257
0
VERTEX
8
CUT
10
173.9498
20
-36.3257
0
VERTEX
8
CUT
10
173.9461
20
-36.3311
0
VERTEX
8
CUT
10
173.7556
20
-36.5971
0
VERTEX
8
CUT
10
173.7516
20
-36.6022
0
VERTEX
8
CUT
10
173.5440
20
-36.8552
0
VERTEX
8
CUT
10
173.5397
20
-36.8601
0
VERTEX
8
CUT
10
173.3160
20
-37.0989
0
VERTEX
8
CUT
10
173.3114
20
-37.1035
0
VERTEX
8
CUT
10
173.0726
20
-37.3272
0
VERTEX
8
CUT
10
173.0677
20
-37.3315
0
VERTEX
8
CUT
10
172.8147
20
-37.5391
0
VERTEX
8
CUT
10
172.8096
20
-37.5431
0
VERTEX
8
CUT
10
172.5436
20
-37.7336
0
VERTEX
8
CUT
10
172.5382
20
-37.7373
0
VERTEX
8
CUT
10
172.2603
20
-37.9100
0
VERTEX
8
CUT
10
172.2546
20
-37.9133
0
VERTEX
8
CUT
10
171.9661
20
-38.0676
0
VERTEX
8
CUT
10
171.9602
20
-38.0705
0
VERTEX
8
CUT
10
171.6622
20
-38.2055
0
VERTEX
8
CUT
10
171.6561
20
-38.2080
0
VERTEX
8
CUT
10
171.3499
20
-38.3232
0
VERTEX
8
CUT
10
171.3499
20
-38.3232
0
VERTEX
8
CUT
10
171.3437
20
-38.3253
0
VERTEX
8
CUT
10
171.0306
20
-38.4203
0
VERTEX
8
CUT
10
171.0243
20
-38.4220
0
VERTEX
8
CUT
10
170.7057
20
-38.4963
0
VERTEX
8
CUT
10
170.6992
20
-38.4976
0
VERTEX
8
CUT
10
170.3764
20
-38.5509
0
VERTEX
8
CUT
10
170.3699
20
-38.5517
0
VERTEX
8
CUT
10
170.0443
20
-38.5838
0
VERTEX
8
CUT
10
170.0378
20
-38.5842
0
VERTEX
8
CUT
10
169.7108
20
-38.5949
0
VERTEX
8
CUT
10
169.7075
20
-38.5950
0
VERTEX
8
CUT
10
156.8175
20
-38.5950
0
SEQEND
0
POLYLINE
8
CUT
66
1
70
1
0
VERTEX
8
CUT
10
2.5250
20
-2.5250
0
VERTEX
8
CUT
10
16.5250
20
-2.5250
0
VERTEX
8
CUT
10
16.5250
20
-16.5250
0
VERTEX
8
CUT
10
2.5250
20
-16.5250
0
SEQEND
0
POLYLINE
8
CUT
66
1
70
1
0
VERTEX
8
CUT
10
21.5750
20
-2.5250
0
VERTEX
8
CUT
10
35.5750
20
-2.5250
0
VERTEX
8
CUT
10
35.5750
20
-16.5250
0
VERTEX
8
CUT
10
21.5750
20
-16.5250
0
SEQEND
0
POLYLINE
8
CUT
66
1
70
1
0
VERTEX
8
CUT
10
40.6250
20
-2.5250
0
VERTEX
8
CUT
10
54.6250
20
-2.5250
0
VERTEX
8
CUT
10
54.6250
20
-16.5250
0
VERTEX
8
CUT
10
40.6250
20
-16.5250
0
SEQEND
0
POLYLINE
8
CUT
66
1
70
1
0
VERTEX
8
CUT
10
59.6750
20
-2.5250
0
VERTEX
8
CUT
10
73.6750
20
-2.5250
0
VERTEX
8
CUT
10
73.6750
20
-16.5250
0
VERTEX
8
CUT
10
59.6750
20
-16.5250
0
SEQEND
0
POLYLINE
8
CUT
66
1
70
1
0
VERTEX
8
CUT
10
78.7250
20
-2.5250
0
VERTEX
8
CUT
10
92.7250
20
-2.5250
0
VERTEX
8
CUT
10
92.7250
20
-16.5250
0
VERTEX
8
CUT
10
78.7250
20
-16.5250
0
SEQEND
0
POLYLINE
8
CUT
66
1
70
1
0
VERTEX
8
CUT
10
97.7750
20
-2.5250
0
VERTEX
8
CUT
10
111.7750
20
-2.5250
0
VERTEX
8
CUT
10
111.7750
20
-16.5250
0
VERTEX
8
CUT
10
97.7750
20
-16.5250
0
SEQEND
0
POLYLINE
8
CUT
66
1
70
1
0
VERTEX
8
CUT
10
116.8250
20
-2.5250
0
VERTEX
8
CUT
10
130.8250
20
-2.5250
0
VERTEX
8
CUT
10
130.8250
20
-16.5250
0
VERTEX
8
CUT
10
116.8250
20
-16.5250
0
SEQEND
0
POLYLINE
8
CUT
66
1
70
1
0
VERTEX
8
CUT
10
135.8750
20
-2.5250
0
VERTEX
8
CUT
10
149.8750
20
-2.5250
0
VERTEX
8
CUT
10
149.8750
20
-16.5250
0
VERTEX
8
CUT
10
135.8750
20
-16.5250
0
SEQEND
0
POLYLINE
8
CUT
66
1
70
1
0
VERTEX
8
CUT
10
-7.5719
20
-14.2414
0
VERTEX
8
CUT
10
-7.6436
20
-14.2344
0
VERTEX
8
CUT
10
-7.7146
20
-14.2227
0
VERTEX
8
CUT
10
-7.7847
20
-14.2063
0
VERTEX
8
CUT
10
-7.8536
20
-14.1854
0
VERTEX
8
CUT
10
-7.9210
20
-14.1601
0
VERTEX
8
CUT
10
-7.9865
20
-14.1304
0
VERTEX
8
CUT
10
-8.0500
20
-14.0964
0
VERTEX
8
CUT
10
-8.1111
20
-14.0584
0
VERTEX
8
CUT
10
-8.1696
20
-14.0165
0
VERTEX
8
CUT
10
-8.2253
20
-13.9708
0
VERTEX
8
CUT
10
-8.2778
20
-13.9216
0
VERTEX
8
CUT
10
-8.3270
20
-13.8691
0
VERTEX
8
CUT
10
-8.3727
20
-13.8134
0
VERTEX
8
CUT
10
-8.4146
20
-13.7549
0
VERTEX
8
CUT
10
-8.4526
20
-13.6938
0
VERTEX
8
CUT
10
-8.4866
20
-13.6303
0
VERTEX
8
CUT
10
-8.5163
20
-13.5648
0
VERTEX
8
CUT
10
-8.5416
20
-13.4974
0
VERTEX
8
CUT
10
-8.5625
20
-13.4285
0
VERTEX
8
CUT
10
-8.5789
20
-13.3584
0
VERTEX
8
CUT
10
-8.5906
20
-13.2874
0
VERTEX
8
CUT
10
-8.5976
20
-13.2157
0
VERTEX
8
CUT
10
-8.6000
20
-13.1438
0
VERTEX
8
CUT
10
-8.5976
20
-13.0719
0
VERTEX
8
CUT
10
-8.5906
20
-13.0002
0
VERTEX
8
CUT
10
-8.5789
20
-12.9292
0
VERTEX
8
CUT
10
-8.5625
20
-12.8591
0
VERTEX
8
CUT
10
-8.5416
20
-12.7902
0
VERTEX
8
CUT
10
-8.5163
20
-12.7229
0
VERTEX
8
CUT
10
-8.4866
20
-12.6573
0
VERTEX
8
CUT
10
-8.4526
20
-12.5938
0
VERTEX
8
CUT
10
-8.4146
20
-12.5327
0
VERTEX
8
CUT
10
-8.3727
20
-12.4742
0
VERTEX
8
CUT
10
-8.3270
20
-12.4185
0
VERTEX
8
CUT
10
-8.2778
20
-12.3660
0
VERTEX
8
CUT
10
-8.2253
20
-12.3168
0
VERTEX
8
CUT
10
-8.1696
20
-12.2711
0
VERTEX
8
CUT
10
-8.1111
20
-12.2292
0
VERTEX
8
CUT
10
-8.0500
20
-12.1912
0
VERTEX
8
CUT
10
-7.9865
20
-12.1572
0
VERTEX
8
CUT
10
-7.9210
20
-12.1275
0
VERTEX
8
CUT
10
-7.8536
20
-12.1022
0
VERTEX
8
CUT
10
-7.7847
20
-12.0813
0
VERTEX
8
CUT
10
-7.7146
20
-12.0649
0
VERTEX
8
CUT
10
-7.6436
20
-12.0532
0
VERTEX
8
CUT
10
-7.5719
20
-12.0462
0
VERTEX
8
CUT
10
-7.5000
20
-12.0438
0
VERTEX
8
CUT
10
-7.4281
20
-12.0462
0
VERTEX
8
CUT
10
-7.3564
20
-12.0532
0
VERTEX
8
CUT
10
-7.2854
20
-12.0649
0
VERTEX
8
CUT
10
-7.2153
20
-12.0813
0
VERTEX
8
CUT
10
-7.1464
20
-12.1022
0
VERTEX
8
CUT
10
-7.0790
20
-12.1275
0
VERTEX
8
CUT
10
-7.0135
20
-12.1572
0
VERTEX
8
CUT
10
-6.9500
20
-12.1912
0
VERTEX
8
CUT
10
-6.8889
20
-12.2292
0
VERTEX
8
CUT
10
-6.8304
20
-12.2711
0
VERTEX
8
CUT
10
-6.7747
20
-12.3168
0
VERTEX
8
CUT
10
-6.7222
20
-12.3660
0
VERTEX
8
CUT
10
-6.6730
20
-12.4185
0
VERTEX
8
CUT
10
-6.6273
20
-12.4742
0
VERTEX
8
CUT
10
-6.5854
20
-12.5327
0
VERTEX
8
CUT
10
-6.5474
20
-12.5938
0
VERTEX
8
CUT
10
-6.5134
20
-12.6573
0
VERTEX
8
CUT
10
-6.4837
20
-12.7229
0
VERTEX
8
CUT
10
-6.4584
20
-12.7902
0
VERTEX
8
CUT
10
-6.4375
20
-12.8591
0
VERTEX
8
CUT
10
-6.4211
20
-12.9292
0
VERTEX
8
CUT
10
-6.4094
20
-13.0002
0
VERTEX
8
CUT
10
-6.4024
20
-13.0719
0
VERTEX
8
CUT
10
-6.4000
20
-13.1438
0
VERTEX
8
CUT
10
-6.4024
20
-13.2157
0
VERTEX
8
CUT
10
-6.4094
20
-13.2874
0
VERTEX
8
CUT
10
-6.4211
20
-13.3584
0
VERTEX
8
CUT
10
-6.4375
20
-13.4285
0
VERTEX
8
CUT
10
-6.4584
20
-13.4974
0
VERTEX
8
CUT
10
-6.4837
20
-13.5648
0
VERTEX
8
CUT
10
-6.5134
20
-13.6303
0
VERTEX
8
CUT
10
-6.5474
20
-13.6938
0
VERTEX
8
CUT
10
-6.5854
20
-13.7549
0
VERTEX
8
CUT
10
-6.6273
20
-13.8134
0
VERTEX
8
CUT
10
-6.6730
20
-13.8691
0
VERTEX
8
CUT
10
-6.7222
20
-13.9216
0
VERTEX
8
CUT
10
-6.7747
20
-13.9708
0
VERTEX
8
CUT
10
-6.8304
20
-14.0165
0
VERTEX
8
CUT
10
-6.8889
20
-14.0584
0
VERTEX
8
CUT
10
-6.9500
20
-14.0964
0
VERTEX
8
CUT
10
-7.0135
20
-14.1304
0
VERTEX
8
CUT
10
-7.0790
20
-14.1601
0
VERTEX
8
CUT
10
-7.1464
20
-14.1854
0
VERTEX
8
CUT
10
-7.2153
20
-14.2063
0
VERTEX
8
CUT
10
-7.2854
20
-14.2227
0
VERTEX
8
CUT
10
-7.3564
20
-14.2344
0
VERTEX
8
CUT
10
-7.4281
20
-14.2414
0
VERTEX
8
CUT
10
-7.5000
20
-14.2438
0
SEQEND
0
POLYLINE
8
CUT
66
1
70
1
0
VERTEX
8
CUT
10
2.5250
20
-21.5750
0
VERTEX
8
CUT
10
16.5250
20
-21.5750
0
VERTEX
8
CUT
10
16.5250
20
-35.5750
0
VERTEX
8
CUT
10
2.5250
20
-35.5750
0
SEQEND
0
POLYLINE
8
CUT
66
1
70
1
0
VERTEX
8
CUT
10
21.5750
20
-21.5750
0
VERTEX
8
CUT
10
35.5750
20
-21.5750
0
VERTEX
8
CUT
10
35.5750
20
-35.5750
0
VERTEX
8
CUT
10
21.5750
20
-35.5750
0
SEQEND
0
POLYLINE
8
CUT
66
1
70
1
0
VERTEX
8
CUT
10
40.6250
20
-21.5750
0
VERTEX
8
CUT
10
54.6250
20
-21.5750
0
VERTEX
8
CUT
10
54.6250
20
-35.5750
0
VERTEX
8
CUT
10
40.6250
20
-35.5750
0
SEQEND
0
POLYLINE
8
CUT
66
1
70
1
0
VERTEX
8
CUT
10
59.6750
20
-21.5750
0
VERTEX
8
CUT
10
73.6750
20
-21.5750
0
VERTEX
8
CUT
10
73.6750
20
-35.5750
0
VERTEX
8
CUT
10
59.6750
20
-35.5750
0
SEQEND
0
POLYLINE
8
CUT
66
1
70
1
0
VERTEX
8
CUT
10
78.7250
20
-21.5750
0
VERTEX
8
CUT
10
92.7250
20
-21.5750
0
VERTEX
8
CUT
10
92.7250
20
-35.5750
0
VERTEX
8
CUT
10
78.7250
20
-35.5750
0
SEQEND
0
POLYLINE
8
CUT
66
1
70
1
0
VERTEX
8
CUT
10
97.7750
20
-21.5750
0
VERTEX
8
CUT
10
111.7750
20
-21.5750
0
VERTEX
8
CUT
10
111.7750
20
-35.5750
0
VERTEX
8
CUT
10
97.7750
20
-35.5750
0
SEQEND
0
POLYLINE
8
CUT
66
1
70
1
0
VERTEX
8
CUT
10
116.8250
20
-21.5750
0
VERTEX
8
CUT
10
130.8250
20
-21.5750
0
VERTEX
8
CUT
10
130.8250
20
-35.5750
0
VERTEX
8
CUT
10
116.8250
20
-35.5750
0
SEQEND
0
POLYLINE
8
CUT
66
1
70
1
0
VERTEX
8
CUT
10
135.8750
20
-21.5750
0
VERTEX
8
CUT
10
149.8750
20
-21.5750
0
VERTEX
8
CUT
10
149.8750
20
-35.5750
0
VERTEX
8
CUT
10
135.8750
20
-35.5750
0
SEQEND
0
POLYLINE
8
CUT
66
1
70
1
0
VERTEX
8
CUT
10
7.2880
20
-40.6250
0
VERTEX
8
CUT
10
21.2880
20
-40.6250
0
VERTEX
8
CUT
10
21.2880
20
-54.6250
0
VERTEX
8
CUT
10
7.2880
20
-54.6250
0
SEQEND
0
POLYLINE
8
CUT
66
1
70
1
0
VERTEX
8
CUT
10
31.1000
20
-40.6250
0
VERTEX
8
CUT
10
45.1000
20
-40.6250
0
VERTEX
8
CUT
10
45.1000
20
-54.6250
0
VERTEX
8
CUT
10
31.1000
20
-54.6250
0
SEQEND
0
POLYLINE
8
CUT
66
1
70
1
0
VERTEX
8
CUT
10
50.1500
20
-40.6250
0
VERTEX
8
CUT
10
64.1500
20
-40.6250
0
VERTEX
8
CUT
10
64.1500
20
-54.6250
0
VERTEX
8
CUT
10
50.1500
20
-54.6250
0
SEQEND
0
POLYLINE
8
CUT
66
1
70
1
0
VERTEX
8
CUT
10
69.2000
20
-40.6250
0
VERTEX
8
CUT
10
83.2000
20
-40.6250
0
VERTEX
8
CUT
10
83.2000
20
-54.6250
0
VERTEX
8
CUT
10
69.2000
20
-54.6250
0
SEQEND
0
POLYLINE
8
CUT
66
1
70
1
0
VERTEX
8
CUT
10
88.2500
20
-40.6250
0
VERTEX
8
CUT
10
102.2500
20
-40.6250
0
VERTEX
8
CUT
10
102.2500
20
-54.6250
0
VERTEX
8
CUT
10
88.2500
20
-54.6250
0
SEQEND
0
POLYLINE
8
CUT
66
1
70
1
0
VERTEX
8
CUT
10
107.3000
20
-40.6250
0
VERTEX
8
CUT
10
121.3000
20
-40.6250
0
VERTEX
8
CUT
10
121.3000
20
-54.6250
0
VERTEX
8
CUT
10
107.3000
20
-54.6250
0
SEQEND
0
POLYLINE
8
CUT
66
1
70
1
0
VERTEX
8
CUT
10
126.3500
20
-40.6250
0
VERTEX
8
CUT
10
140.3500
20
-40.6250
0
VERTEX
8
CUT
10
140.3500
20
-54.6250
0
VERTEX
8
CUT
10
126.3500
20
-54.6250
0
SEQEND
0
POLYLINE
8
CUT
66
1
70
1
0
VERTEX
8
CUT
10
-7.5719
20
-55.2476
0
VERTEX
8
CUT
10
-7.6436
20
-55.2406
0
VERTEX
8
CUT
10
-7.7146
20
-55.2289
0
VERTEX
8
CUT
10
-7.7847
20
-55.2125
0
VERTEX
8
CUT
10
-7.8536
20
-55.1916
0
VERTEX
8
CUT
10
-7.9210
20
-55.1663
0
VERTEX
8
CUT
10
-7.9865
20
-55.1366
0
VERTEX
8
CUT
10
-8.0500
20
-55.1026
0
VERTEX
8
CUT
10
-8.1111
20
-55.0646
0
VERTEX
8
CUT
10
-8.1696
20
-55.0227
0
VERTEX
8
CUT
10
-8.2253
20
-54.9770
0
VERTEX
8
CUT
10
-8.2778
20
-54.9278
0
VERTEX
8
CUT
10
-8.3270
20
-54.8753
0
VERTEX
8
CUT
10
-8.3727
20
-54.8196
0
VERTEX
8
CUT
10
-8.4146
20
-54.7611
0
VERTEX
8
CUT
10
-8.4526
20
-54.7000
0
VERTEX
8
CUT
10
-8.4866
20
-54.6365
0
VERTEX
8
CUT
10
-8.5163
20
-54.5710
0
VERTEX
8
CUT
10
-8.5416
20
-54.5036
0
VERTEX
8
CUT
10
-8.5625
20
-54.4347
0
VERTEX
8
CUT
10
-8.5789
20
-54.3646
0
VERTEX
8
CUT
10
-8.5906
20
-54.2936
0
VERTEX
8
CUT
10
-8.5976
20
-54.2219
0
VERTEX
8
CUT
10
-8.6000
20
-54.1500
0
VERTEX
8
CUT
10
-8.5976
20
-54.0781
0
VERTEX
8
CUT
10
-8.5906
20
-54.0064
0
VERTEX
8
CUT
10
-8.5789
20
-53.9354
0
VERTEX
8
CUT
10
-8.5625
20
-53.8653
0
VERTEX
8
CUT
10
-8.5416
20
-53.7964
0
VERTEX
8
CUT
10
-8.5163
20
-53.7290
0
VERTEX
8
CUT
10
-8.4866
20
-53.6635
0
VERTEX
8
CUT
10
-8.4526
20
-53.6000
0
VERTEX
8
CUT
10
-8.4146
20
-53.5389
0
VERTEX
8
CUT
10
-8.3727
20
-53.4804
0
VERTEX
8
CUT
10
-8.3270
20
-53.4247
0
VERTEX
8
CUT
10
-8.2778
20
-53.3722
0
VERTEX
8
CUT
10
-8.2253
20
-53.3230
0
VERTEX
8
CUT
10
-8.1696
20
-53.2773
0
VERTEX
8
CUT
10
-8.1111
20
-53.2354
0
VERTEX
8
CUT
10
-8.0500
20
-53.1974
0
VERTEX
8
CUT
10
-7.9865
20
-53.1634
0
VERTEX
8
CUT
10
-7.9210
20
-53.1337
0
VERTEX
8
CUT
10
-7.8536
20
-53.1084
0
VERTEX
8
CUT
10
-7.7847
20
-53.0875
0
VERTEX
8
CUT
10
-7.7146
20
-53.0711
0
VERTEX
8
CUT
10
-7.6436
20
-53.0594
0
VERTEX
8
CUT
10
-7.5719
20
-53.0524
0
VERTEX
8
CUT
10
-7.5000
20
-53.0500
0
VERTEX
8
CUT
10
-7.4281
20
-53.0524
0
VERTEX
8
CUT
10
-7.3564
20
-53.0594
0
VERTEX
8
CUT
10
-7.2854
20
-53.0711
0
VERTEX
8
CUT
10
-7.2153
20
-53.0875
0
VERTEX
8
CUT
10
-7.1464
20
-53.1084
0
VERTEX
8
CUT
10
-7.0790
20
-53.1337
0
VERTEX
8
CUT
10
-7.0135
20
-53.1634
0
VERTEX
8
CUT
10
-6.9500
20
-53.1974
0
VERTEX
8
CUT
10
-6.8889
20
-53.2354
0
VERTEX
8
CUT
10
-6.8304
20
-53.2773
0
VERTEX
8
CUT
10
-6.7747
20
-53.3230
0
VERTEX
8
CUT
10
-6.7222
20
-53.3722
0
VERTEX
8
CUT
10
-6.6730
20
-53.4247
0
VERTEX
8
CUT
10
-6.6273
20
-53.4804
0
VERTEX
8
CUT
10
-6.5854
20
-53.5389
0
VERTEX
8
CUT
10
-6.5474
20
-53.6000
0
VERTEX
8
CUT
10
-6.5134
20
-53.6635
0
VERTEX
8
CUT
10
-6.4837
20
-53.7290
0
VERTEX
8
CUT
10
-6.4584
20
-53.7964
0
VERTEX
8
CUT
10
-6.4375
20
-53.8653
0
VERTEX
8
CUT
10
-6.4211
20
-53.9354
0
VERTEX
8
CUT
10
-6.4094
20
-54.0064
0
VERTEX
8
CUT
10
-6.4024
20
-54.0781
0
VERTEX
8
CUT
10
-6.4000
20
-54.1500
0
VERTEX
8
CUT
10
-6.4024
20
-54.2219
0
VERTEX
8
CUT
10
-6.4094
20
-54.2936
0
VERTEX
8
CUT
10
-6.4211
20
-54.3646
0
VERTEX
8
CUT
10
-6.4375
20
-54.4347
0
VERTEX
8
CUT
10
-6.4584
20
-54.5036
0
VERTEX
8
CUT
10
-6.4837
20
-54.5710
0
VERTEX
8
CUT
10
-6.5134
20
-54.6365
0
VERTEX
8
CUT
10
-6.5474
20
-54.7000
0
VERTEX
8
CUT
10
-6.5854
20
-54.7611
0
VERTEX
8
CUT
10
-6.6273
20
-54.8196
0
VERTEX
8
CUT
10
-6.6730
20
-54.8753
0
VERTEX
8
CUT
10
-6.7222
20
-54.9278
0
VERTEX
8
CUT
10
-6.7747
20
-54.9770
0
VERTEX
8
CUT
10
-6.8304
20
-55.0227
0
VERTEX
8
CUT
10
-6.8889
20
-55.0646
0
VERTEX
8
CUT
10
-6.9500
20
-55.1026
0
VERTEX
8
CUT
10
-7.0135
20
-55.1366
0
VERTEX
8
CUT
10
-7.0790
20
-55.1663
0
VERTEX
8
CUT
10
-7.1464
20
-55.1916
0
VERTEX
8
CUT
10
-7.2153
20
-55.2125
0
VERTEX
8
CUT
10
-7.2854
20
-55.2289
0
VERTEX
8
CUT
10
-7.3564
20
-55.2406
0
VERTEX
8
CUT
10
-7.4281
20
-55.2476
0
VERTEX
8
CUT
10
-7.5000
20
-55.2500
0
SEQEND
0
POLYLINE
8
CUT
66
1
70
1
0
VERTEX
8
CUT
10
173.9906
20
-55.2476
0
VERTEX
8
CUT
10
173.9189
20
-55.2406
0
VERTEX
8
CUT
10
173.8479
20
-55.2289
0
VERTEX
8
CUT
10
173.7778
20
-55.2125
0
VERTEX
8
CUT
10
173.7089
20
-55.1916
0
VERTEX
8
CUT
10
173.6415
20
-55.1663
0
VERTEX
8
CUT
10
173.5760
20
-55.1366
0
VERTEX
8
CUT
10
173.5125
20
-55.1026
0
VERTEX
8
CUT
10
173.4514
20
-55.0646
0
VERTEX
8
CUT
10
173.3929
20
-55.0227
0
VERTEX
8
CUT
10
173.3372
20
-54.9770
0
VERTEX
8
CUT
10
173.2847
20
-54.9278
0
VERTEX
8
CUT
10
173.2355
20
-54.8753
0
VERTEX
8
CUT
10
173.1898
20
-54.8196
0
VERTEX
8
CUT
10
173.1479
20
-54.7611
0
VERTEX
8
CUT
10
173.1099
20
-54.7000
0
VERTEX
8
CUT
10
173.0759
20
-54.6365
0
VERTEX
8
CUT
10
173.0462
20
-54.5710
0
VERTEX
8
CUT
10
173.0209
20
-54.5036
0
VERTEX
8
CUT
10
173.0000
20
-54.4347
0
VERTEX
8
CUT
10
172.9836
20
-54.3646
0
VERTEX
8
CUT
10
172.9719
20
-54.2936
0
VERTEX
8
CUT
10
172.9649
20
-54.2219
0
VERTEX
8
CUT
10
172.9625
20
-54.1500
0
VERTEX
8
CUT
10
172.9649
20
-54.0781
0
VERTEX
8
CUT
10
172.9719
20
-54.0064
0
VERTEX
8
CUT
10
172.9836
20
-53.9354
0
VERTEX
8
CUT
10
173.0000
20
-53.8653
0
VERTEX
8
CUT
10
173.0209
20
-53.7964
0
VERTEX
8
CUT
10
173.0462
20
-53.7290
0
VERTEX
8
CUT
10
173.0759
20
-53.6635
0
VERTEX
8
CUT
10
173.1099
20
-53.6000
0
VERTEX
8
CUT
10
173.1479
20
-53.5389
0
VERTEX
8
CUT
10
173.1898
20
-53.4804
0
VERTEX
8
CUT
10
173.2355
20
-53.4247
0
VERTEX
8
CUT
10
173.2847
20
-53.3722
0
VERTEX
8
CUT
10
173.3372
20
-53.3230
0
VERTEX
8
CUT
10
173.3929
20
-53.2773
0
VERTEX
8
CUT
10
173.4514
20
-53.2354
0
VERTEX
8
CUT
10
173.5125
20
-53.1974
0
VERTEX
8
CUT
10
173.5760
20
-53.1634
0
VERTEX
8
CUT
10
173.6415
20
-53.1337
0
VERTEX
8
CUT
10
173.7089
20
-53.1084
0
VERTEX
8
CUT
10
173.7778
20
-53.0875
0
VERTEX
8
CUT
10
173.8479
20
-53.0711
0
VERTEX
8
CUT
10
173.9189
20
-53.0594
0
VERTEX
8
CUT
10
173.9906
20
-53.0524
0
VERTEX
8
CUT
10
174.0625
20
-53.0500
0
VERTEX
8
CUT
10
174.1344
20
-53.0524
0
VERTEX
8
CUT
10
174.2061
20
-53.0594
0
VERTEX
8
CUT
10
174.2771
20
-53.0711
0
VERTEX
8
CUT
10
174.3472
20
-53.0875
0
VERTEX
8
CUT
10
174.4161
20
-53.1084
0
VERTEX
8
CUT
10
174.4835
20
-53.1337
0
VERTEX
8
CUT
10
174.5490
20
-53.1634
0
VERTEX
8
CUT
10
174.6125
20
-53.1974
0
VERTEX
8
CUT
10
174.6736
20
-53.2354
0
VERTEX
8
CUT
10
174.7321
20
-53.2773
0
VERTEX
8
CUT
10
174.7878
20
-53.3230
0
VERTEX
8
CUT
10
174.8403
20
-53.3722
0
VERTEX
8
CUT
10
174.8895
20
-53.4247
0
VERTEX
8
CUT
10
174.9352
20
-53.4804
0
VERTEX
8
CUT
10
174.9771
20
-53.5389
0
VERTEX
8
CUT
10
175.0151
20
-53.6000
0
VERTEX
8
CUT
10
175.0491
20
-53.6635
0
VERTEX
8
CUT
10
175.0788
20
-53.7290
0
VERTEX
8
CUT
10
175.1041
20
-53.7964
0
VERTEX
8
CUT
10
175.1250
20
-53.8653
0
VERTEX
8
CUT
10
175.1414
20
-53.9354
0
VERTEX
8
CUT
10
175.1531
20
-54.0064
0
VERTEX
8
CUT
10
175.1601
20
-54.0781
0
VERTEX
8
CUT
10
175.1625
20
-54.1500
0
VERTEX
8
CUT
10
175.1601
20
-54.2219
0
VERTEX
8
CUT
10
175.1531
20
-54.2936
0
VERTEX
8
CUT
10
175.1414
20
-54.3646
0
VERTEX
8
CUT
10
175.1250
20
-54.4347
0
VERTEX
8
CUT
10
175.1041
20
-54.5036
0
VERTEX
8
CUT
10
175.0788
20
-54.5710
0
VERTEX
8
CUT
10
175.0491
20
-54.6365
0
VERTEX
8
CUT
10
175.0151
20
-54.7000
0
VERTEX
8
CUT
10
174.9771
20
-54.7611
0
VERTEX
8
CUT
10
174.9352
20
-54.8196
0
VERTEX
8
CUT
10
174.8895
20
-54.8753
0
VERTEX
8
CUT
10
174.8403
20
-54.9278
0
VERTEX
8
CUT
10
174.7878
20
-54.9770
0
VERTEX
8
CUT
10
174.7321
20
-55.0227
0
VERTEX
8
CUT
10
174.6736
20
-55.0646
0
VERTEX
8
CUT
10
174.6125
20
-55.1026
0
VERTEX
8
CUT
10
174.5490
20
-55.1366
0
VERTEX
8
CUT
10
174.4835
20
-55.1663
0
VERTEX
8
CUT
10
174.4161
20
-55.1916
0
VERTEX
8
CUT
10
174.3472
20
-55.2125
0
VERTEX
8
CUT
10
174.2771
20
-55.2289
0
VERTEX
8
CUT
10
174.2061
20
-55.2406
0
VERTEX
8
CUT
10
174.1344
20
-55.2476
0
VERTEX
8
CUT
10
174.0625
20
-55.2500
0
SEQEND
0
POLYLINE
8
CUT
66
1
70
1
0
VERTEX
8
CUT
10
9.6690
20
-59.6750
0
VERTEX
8
CUT
10
23.6690
20
-59.6750
0
VERTEX
8
CUT
10
23.6690
20
-73.6750
0
VERTEX
8
CUT
10
9.6690
20
-73.6750
0
SEQEND
0
POLYLINE
8
CUT
66
1
70
1
0
VERTEX
8
CUT
10
35.8630
20
-59.6750
0
VERTEX
8
CUT
10
49.8630
20
-59.6750
0
VERTEX
8
CUT
10
49.8630
20
-73.6750
0
VERTEX
8
CUT
10
35.8630
20
-73.6750
0
SEQEND
0
POLYLINE
8
CUT
66
1
70
1
0
VERTEX
8
CUT
10
54.9130
20
-59.6750
0
VERTEX
8
CUT
10
68.9130
20
-59.6750
0
VERTEX
8
CUT
10
68.9130
20
-73.6750
0
VERTEX
8
CUT
10
54.9130
20
-73.6750
0
SEQEND
0
POLYLINE
8
CUT
66
1
70
1
0
VERTEX
8
CUT
10
73.9630
20
-59.6750
0
VERTEX
8
CUT
10
87.9630
20
-59.6750
0
VERTEX
8
CUT
10
87.9630
20
-73.6750
0
VERTEX
8
CUT
10
73.9630
20
-73.6750
0
SEQEND
0
POLYLINE
8
CUT
66
1
70
1
0
VERTEX
8
CUT
10
93.0130
20
-59.6750
0
VERTEX
8
CUT
10
107.0130
20
-59.6750
0
VERTEX
8
CUT
10
107.0130
20
-73.6750
0
VERTEX
8
CUT
10
93.0130
20
-73.6750
0
SEQEND
0
POLYLINE
8
CUT
66
1
70
1
0
VERTEX
8
CUT
10
112.0620
20
-59.6750
0
VERTEX
8
CUT
10
126.0620
20
-59.6750
0
VERTEX
8
CUT
10
126.0620
20
-73.6750
0
VERTEX
8
CUT
10
112.0620
20
-73.6750
0
SEQEND
0
POLYLINE
8
CUT
66
1
70
1
0
VERTEX
8
CUT
10
131.1130
20
-59.6750
0
VERTEX
8
CUT
10
145.1130
20
-59.6750
0
VERTEX
8
CUT
10
145.1130
20
-73.6750
0
VERTEX
8
CUT
10
131.1130
20
-73.6750
0
SEQEND
0
POLYLINE
8
CUT
66
1
70
1
0
VERTEX
8
CUT
10
5.9930
20
-78.5250
0
VERTEX
8
CUT
10
12.9930
20
-78.5250
0
VERTEX
8
CUT
10
12.9930
20
-93.9250
0
VERTEX
8
CUT
10
5.9930
20
-93.9250
0
SEQEND
0
POLYLINE
8
CUT
66
1
70
1
0
VERTEX
8
CUT
10
29.8690
20
-78.5250
0
VERTEX
8
CUT
10
36.8690
20
-78.5250
0
VERTEX
8
CUT
10
36.8690
20
-93.9250
0
VERTEX
8
CUT
10
29.8690
20
-93.9250
0
SEQEND
0
POLYLINE
8
CUT
66
1
70
1
0
VERTEX
8
CUT
10
14.4310
20
-78.7250
0
VERTEX
8
CUT
10
28.4310
20
-78.7250
0
VERTEX
8
CUT
10
28.4310
20
-92.7250
0
VERTEX
8
CUT
10
14.4310
20
-92.7250
0
SEQEND
0
POLYLINE
8
CUT
66
1
70
1
0
VERTEX
8
CUT
10
45.3880
20
-78.7250
0
VERTEX
8
CUT
10
59.3880
20
-78.7250
0
VERTEX
8
CUT
10
59.3880
20
-92.7250
0
VERTEX
8
CUT
10
45.3880
20
-92.7250
0
SEQEND
0
POLYLINE
8
CUT
66
1
70
1
0
VERTEX
8
CUT
10
64.4380
20
-78.7250
0
VERTEX
8
CUT
10
78.4380
20
-78.7250
0
VERTEX
8
CUT
10
78.4380
20
-92.7250
0
VERTEX
8
CUT
10
64.4380
20
-92.7250
0
SEQEND
0
POLYLINE
8
CUT
66
1
70
1
0
VERTEX
8
CUT
10
83.4870
20
-78.7250
0
VERTEX
8
CUT
10
97.4870
20
-78.7250
0
VERTEX
8
CUT
10
97.4870
20
-92.7250
0
VERTEX
8
CUT
10
83.4870
20
-92.7250
0
SEQEND
0
POLYLINE
8
CUT
66
1
70
1
0
VERTEX
8
CUT
10
102.5380
20
-78.7250
0
VERTEX
8
CUT
10
116.5380
20
-78.7250
0
VERTEX
8
CUT
10
116.5380
20
-92.7250
0
VERTEX
8
CUT
10
102.5380
20
-92.7250
0
SEQEND
0
POLYLINE
8
CUT
66
1
70
1
0
VERTEX
8
CUT
10
121.5880
20
-78.7250
0
VERTEX
8
CUT
10
135.5880
20
-78.7250
0
VERTEX
8
CUT
10
135.5880
20
-92.7250
0
VERTEX
8
CUT
10
121.5880
20
-92.7250
0
SEQEND
0
POLYLINE
8
CUT
66
1
70
1
0
VERTEX
8
CUT
10
140.6380
20
-78.7250
0
VERTEX
8
CUT
10
154.6380
20
-78.7250
0
VERTEX
8
CUT
10
154.6380
20
-92.7250
0
VERTEX
8
CUT
10
140.6380
20
-92.7250
0
SEQEND
0
POLYLINE
8
CUT
66
1
70
1
0
VERTEX
8
CUT
10
14.4310
20
-97.7750
0
VERTEX
8
CUT
10
28.4310
20
-97.7750
0
VERTEX
8
CUT
10
28.4310
20
-111.7750
0
VERTEX
8
CUT
10
14.4310
20
-111.7750
0
SEQEND
0
POLYLINE
8
CUT
66
1
70
1
0
VERTEX
8
CUT
10
38.2440
20
-97.7750
0
VERTEX
8
CUT
10
52.2440
20
-97.7750
0
VERTEX
8
CUT
10
52.2440
20
-111.7750
0
VERTEX
8
CUT
10
38.2440
20
-111.7750
0
SEQEND
0
POLYLINE
8
CUT
66
1
70
1
0
VERTEX
8
CUT
10
62.0560
20
-97.7750
0
VERTEX
8
CUT
10
76.0560
20
-97.7750
0
VERTEX
8
CUT
10
76.0560
20
-111.7750
0
VERTEX
8
CUT
10
62.0560
20
-111.7750
0
SEQEND
0
POLYLINE
8
CUT
66
1
70
1
0
VERTEX
8
CUT
10
83.4870
20
-97.7750
0
VERTEX
8
CUT
10
97.4870
20
-97.7750
0
VERTEX
8
CUT
10
97.4870
20
-111.7750
0
VERTEX
8
CUT
10
83.4870
20
-111.7750
0
SEQEND
0
POLYLINE
8
CUT
66
1
70
1
0
VERTEX
8
CUT
10
102.5380
20
-97.7750
0
VERTEX
8
CUT
10
116.5380
20
-97.7750
0
VERTEX
8
CUT
10
116.5380
20
-111.7750
0
VERTEX
8
CUT
10
102.5380
20
-111.7750
0
SEQEND
0
POLYLINE
8
CUT
66
1
70
1
0
VERTEX
8
CUT
10
121.5880
20
-97.7750
0
VERTEX
8
CUT
10
135.5880
20
-97.7750
0
VERTEX
8
CUT
10
135.5880
20
-111.7750
0
VERTEX
8
CUT
10
121.5880
20
-111.7750
0
SEQEND
0
POLYLINE
8
CUT
66
1
70
1
0
VERTEX
8
CUT
10
140.6380
20
-97.7750
0
VERTEX
8
CUT
10
154.6380
20
-97.7750
0
VERTEX
8
CUT
10
154.6380
20
-111.7750
0
VERTEX
8
CUT
10
140.6380
20
-111.7750
0
SEQEND
0
POLYLINE
8
CUT
66
1
70
1
0
VERTEX
8
CUT
10
-5.0824
20
-120.4081
0
VERTEX
8
CUT
10
-5.1540
20
-120.4010
0
VERTEX
8
CUT
10
-5.2250
20
-120.3893
0
VERTEX
8
CUT
10
-5.2951
20
-120.3729
0
VERTEX
8
CUT
10
-5.3640
20
-120.3520
0
VERTEX
8
CUT
10
-5.4314
20
-120.3267
0
VERTEX
8
CUT
10
-5.4969
20
-120.2970
0
VERTEX
8
CUT
10
-5.5604
20
-120.2630
0
VERTEX
8
CUT
10
-5.6215
20
-120.2250
0
VERTEX
8
CUT
10
-5.6800
20
-120.1831
0
VERTEX
8
CUT
10
-5.7357
20
-120.1374
0
VERTEX
8
CUT
10
-5.7882
20
-120.0882
0
VERTEX
8
CUT
10
-5.8374
20
-120.0357
0
VERTEX
8
CUT
10
-5.8831
20
-119.9800
0
VERTEX
8
CUT
10
-5.9250
20
-119.9215
0
VERTEX
8
CUT
10
-5.9630
20
-119.8604
0
VERTEX
8
CUT
10
-5.9970
20
-119.7969
0
VERTEX
8
CUT
10
-6.0267
20
-119.7314
0
VERTEX
8
CUT
10
-6.0520
20
-119.6640
0
VERTEX
8
CUT
10
-6.0729
20
-119.5951
0
VERTEX
8
CUT
10
-6.0893
20
-119.5250
0
VERTEX
8
CUT
10
-6.1010
20
-119.4540
0
VERTEX
8
CUT
10
-6.1081
20
-119.3824
0
VERTEX
8
CUT
10
-6.1104
20
-119.3104
0
VERTEX
8
CUT
10
-6.1081
20
-119.2385
0
VERTEX
8
CUT
10
-6.1010
20
-119.1668
0
VERTEX
8
CUT
10
-6.0893
20
-119.0958
0
VERTEX
8
CUT
10
-6.0729
20
-119.0257
0
VERTEX
8
CUT
10
-6.0520
20
-118.9568
0
VERTEX
8
CUT
10
-6.0267
20
-118.8895
0
VERTEX
8
CUT
10
-5.9970
20
-118.8239
0
VERTEX
8
CUT
10
-5.9630
20
-118.7604
0
VERTEX
8
CUT
10
-5.9250
20
-118.6993
0
VERTEX
8
CUT
10
-5.8831
20
-118.6408
0
VERTEX
8
CUT
10
-5.8374
20
-118.5851
0
VERTEX
8
CUT
10
-5.7882
20
-118.5326
0
VERTEX
8
CUT
10
-5.7357
20
-118.4834
0
VERTEX
8
CUT
10
-5.6800
20
-118.4377
0
VERTEX
8
CUT
10
-5.6215
20
-118.3958
0
VERTEX
8
CUT
10
-5.5604
20
-118.3578
0
VERTEX
8
CUT
10
-5.4969
20
-118.3238
0
VERTEX
8
CUT
10
-5.4314
20
-118.2941
0
VERTEX
8
CUT
10
-5.3640
20
-118.2688
0
VERTEX
8
CUT
10
-5.2951
20
-118.2479
0
VERTEX
8
CUT
10
-5.2250
20
-118.2315
0
VERTEX
8
CUT
10
-5.1540
20
-118.2198
0
VERTEX
8
CUT
10
-5.0824
20
-118.2128
0
VERTEX
8
CUT
10
-5.0104
20
-118.2104
0
VERTEX
8
CUT
10
-4.9385
20
-118.2128
0
VERTEX
8
CUT
10
-4.8668
20
-118.2198
0
VERTEX
8
CUT
10
-4.7958
20
-118.2315
0
VERTEX
8
CUT
10
-4.7257
20
-118.2479
0
VERTEX
8
CUT
10
-4.6568
20
-118.2688
0
VERTEX
8
CUT
10
-4.5895
20
-118.2941
0
VERTEX
8
CUT
10
-4.5239
20
-118.3238
0
VERTEX
8
CUT
10
-4.4604
20
-118.3578
0
VERTEX
8
CUT
10
-4.3993
20
-118.3958
0
VERTEX
8
CUT
10
-4.3408
20
-118.4377
0
VERTEX
8
CUT
10
-4.2851
20
-118.4834
0
VERTEX
8
CUT
10
-4.2326
20
-118.5326
0
VERTEX
8
CUT
10
-4.1834
20
-118.5851
0
VERTEX
8
CUT
10
-4.1377
20
-118.6408
0
VERTEX
8
CUT
10
-4.0958
20
-118.6993
0
VERTEX
8
CUT
10
-4.0578
20
-118.7604
0
VERTEX
8
CUT
10
-4.0238
20
-118.8239
0
VERTEX
8
CUT
10
-3.9941
20
-118.8895
0
VERTEX
8
CUT
10
-3.9688
20
-118.9568
0
VERTEX
8
CUT
10
-3.9479
20
-119.0257
0
VERTEX
8
CUT
10
-3.9315
20
-119.0958
0
VERTEX
8
CUT
10
-3.9198
20
-119.1668
0
VERTEX
8
CUT
10
-3.9128
20
-119.2385
0
VERTEX
8
CUT
10
-3.9104
20
-119.3104
0
VERTEX
8
CUT
10
-3.9128
20
-119.3824
0
VERTEX
8
CUT
10
-3.9198
20
-119.4540
0
VERTEX
8
CUT
10
-3.9315
20
-119.5250
0
VERTEX
8
CUT
10
-3.9479
20
-119.5951
0
VERTEX
8
CUT
10
-3.9688
20
-119.6640
0
VERTEX
8
CUT
10
-3.9941
20
-119.7314
0
VERTEX
8
CUT
10
-4.0238
20
-119.7969
0
VERTEX
8
CUT
10
-4.0578
20
-119.8604
0
VERTEX
8
CUT
10
-4.0958
20
-119.9215
0
VERTEX
8
CUT
10
-4.1377
20
-119.9800
0
VERTEX
8
CUT
10
-4.1834
20
-120.0357
0
VERTEX
8
CUT
10
-4.2326
20
-120.0882
0
VERTEX
8
CUT
10
-4.2851
20
-120.1374
0
VERTEX
8
CUT
10
-4.3408
20
-120.1831
0
VERTEX
8
CUT
10
-4.3993
20
-120.2250
0
VERTEX
8
CUT
10
-4.4604
20
-120.2630
0
VERTEX
8
CUT
10
-4.5239
20
-120.2970
0
VERTEX
8
CUT
10
-4.5895
20
-120.3267
0
VERTEX
8
CUT
10
-4.6568
20
-120.3520
0
VERTEX
8
CUT
10
-4.7257
20
-120.3729
0
VERTEX
8
CUT
10
-4.7958
20
-120.3893
0
VERTEX
8
CUT
10
-4.8668
20
-120.4010
0
VERTEX
8
CUT
10
-4.9385
20
-120.4081
0
VERTEX
8
CUT
10
-5.0104
20
-120.4104
0
SEQEND
0
POLYLINE
8
CUT
66
1
70
1
0
VERTEX
8
CUT
10
171.5010
20
-120.4081
0
VERTEX
8
CUT
10
171.4293
20
-120.4010
0
VERTEX
8
CUT
10
171.3583
20
-120.3893
0
VERTEX
8
CUT
10
171.2882
20
-120.3729
0
VERTEX
8
CUT
10
171.2193
20
-120.3520
0
VERTEX
8
CUT
10
171.1520
20
-120.3267
0
VERTEX
8
CUT
10
171.0864
20
-120.2970
0
VERTEX
8
CUT
10
171.0229
20
-120.2630
0
VERTEX
8
CUT
10
170.9618
20
-120.2250
0
VERTEX
8
CUT
10
170.9033
20
-120.1831
0
VERTEX
8
CUT
10
170.8476
20
-120.1374
0
VERTEX
8
CUT
10
170.7951
20
-120.0882
0
VERTEX
8
CUT
10
170.7459
20
-120.0357
0
VERTEX
8
CUT
10
170.7002
20
-119.9800
0
VERTEX
8
CUT
10
170.6583
20
-119.9215
0
VERTEX
8
CUT
10
170.6203
20
-119.8604
0
VERTEX
8
CUT
10
170.5863
20
-119.7969
0
VERTEX
8
CUT
10
170.5566
20
-119.7314
0
VERTEX
8
CUT
10
170.5313
20
-119.6640
0
VERTEX
8
CUT
10
170.5104
20
-119.5951
0
VERTEX
8
CUT
10
170.4940
20
-119.5250
0
VERTEX
8
CUT
10
170.4823
20
-119.4540
0
VERTEX
8
CUT
10
170.4753
20
-119.3824
0
VERTEX
8
CUT
10
170.4729
20
-119.3104
0
VERTEX
8
CUT
10
170.4753
20
-119.2385
0
VERTEX
8
CUT
10
170.4823
20
-119.1668
0
VERTEX
8
CUT
10
170.4940
20
-119.0958
0
VERTEX
8
CUT
10
170.5104
20
-119.0257
0
VERTEX
8
CUT
10
170.5313
20
-118.9568
0
VERTEX
8
CUT
10
170.5566
20
-118.8895
0
VERTEX
8
CUT
10
170.5863
20
-118.8239
0
VERTEX
8
CUT
10
170.6203
20
-118.7604
0
VERTEX
8
CUT
10
170.6583
20
-118.6993
0
VERTEX
8
CUT
10
170.7002
20
-118.6408
0
VERTEX
8
CUT
10
170.7459
20
-118.5851
0
VERTEX
8
CUT
10
170.7951
20
-118.5326
0
VERTEX
8
CUT
10
170.8476
20
-118.4834
0
VERTEX
8
CUT
10
170.9033
20
-118.4377
0
VERTEX
8
CUT
10
170.9618
20
-118.3958
0
VERTEX
8
CUT
10
171.0229
20
-118.3578
0
VERTEX
8
CUT
10
171.0864
20
-118.3238
0
VERTEX
8
CUT
10
171.1520
20
-118.2941
0
VERTEX
8
CUT
10
171.2193
20
-118.2688
0
VERTEX
8
CUT
10
171.2882
20
-118.2479
0
VERTEX
8
CUT
10
171.3583
20
-118.2315
0
VERTEX
8
CUT
10
171.4293
20
-118.2198
0
VERTEX
8
CUT
10
171.5010
20
-118.2128
0
VERTEX
8
CUT
10
171.5729
20
-118.2104
0
VERTEX
8
CUT
10
171.6449
20
-118.2128
0
VERTEX
8
CUT
10
171.7165
20
-118.2198
0
VERTEX
8
CUT
10
171.7875
20
-118.2315
0
VERTEX
8
CUT
10
171.8576
20
-118.2479
0
VERTEX
8
CUT
10
171.9265
20
-118.2688
0
VERTEX
8
CUT
10
171.9939
20
-118.2941
0
VERTEX
8
CUT
10
172.0594
20
-118.3238
0
VERTEX
8
CUT
10
172.1229
20
-118.3578
0
VERTEX
8
CUT
10
172.1840
20
-118.3958
0
VERTEX
8
CUT
10
172.2425
20
-118.4377
0
VERTEX
8
CUT
10
172.2982
20
-118.4834
0
VERTEX
8
CUT
10
172.3507
20
-118.5326
0
VERTEX
8
CUT
10
172.3999
20
-118.5851
0
VERTEX
8
CUT
10
172.4456
20
-118.6408
0
VERTEX
8
CUT
10
172.4875
20
-118.6993
0
VERTEX
8
CUT
10
172.5255
20
-118.7604
0
VERTEX
8
CUT
10
172.5595
20
-118.8239
0
VERTEX
8
CUT
10
172.5892
20
-118.8895
0
VERTEX
8
CUT
10
172.6145
20
-118.9568
0
VERTEX
8
CUT
10
172.6354
20
-119.0257
0
VERTEX
8
CUT
10
172.6518
20
-119.0958
0
VERTEX
8
CUT
10
172.6635
20
-119.1668
0
VERTEX
8
CUT
10
172.6706
20
-119.2385
0
VERTEX
8
CUT
10
172.6729
20
-119.3104
0
VERTEX
8
CUT
10
172.6706
20
-119.3824
0
VERTEX
8
CUT
10
172.6635
20
-119.4540
0
VERTEX
8
CUT
10
172.6518
20
-119.5250
0
VERTEX
8
CUT
10
172.6354
20
-119.5951
0
VERTEX
8
CUT
10
172.6145
20
-119.6640
0
VERTEX
8
CUT
10
172.5892
20
-119.7314
0
VERTEX
8
CUT
10
172.5595
20
-119.7969
0
VERTEX
8
CUT
10
172.5255
20
-119.8604
0
VERTEX
8
CUT
10
172.4875
20
-119.9215
0
VERTEX
8
CUT
10
172.4456
20
-119.9800
0
VERTEX
8
CUT
10
172.3999
20
-120.0357
0
VERTEX
8
CUT
10
172.3507
20
-120.0882
0
VERTEX
8
CUT
10
172.2982
20
-120.1374
0
VERTEX
8
CUT
10
172.2425
20
-120.1831
0
VERTEX
8
CUT
10
172.1840
20
-120.2250
0
VERTEX
8
CUT
10
172.1229
20
-120.2630
0
VERTEX
8
CUT
10
172.0594
20
-120.2970
0
VERTEX
8
CUT
10
171.9939
20
-120.3267
0
VERTEX
8
CUT
10
171.9265
20
-120.3520
0
VERTEX
8
CUT
10
171.8576
20
-120.3729
0
VERTEX
8
CUT
10
171.7875
20
-120.3893
0
VERTEX
8
CUT
10
171.7165
20
-120.4010
0
VERTEX
8
CUT
10
171.6449
20
-120.4081
0
VERTEX
8
CUT
10
171.5729
20
-120.4104
0
SEQEND
0
POLYLINE
8
CUT
66
1
70
1
0
VERTEX
8
CUT
10
52.9489
20
-122.8976
0
VERTEX
8
CUT
10
52.8773
20
-122.8906
0
VERTEX
8
CUT
10
52.8062
20
-122.8789
0
VERTEX
8
CUT
10
52.7361
20
-122.8625
0
VERTEX
8
CUT
10
52.6672
20
-122.8416
0
VERTEX
8
CUT
10
52.5999
20
-122.8163
0
VERTEX
8
CUT
10
52.5343
20
-122.7866
0
VERTEX
8
CUT
10
52.4708
20
-122.7526
0
VERTEX
8
CUT
10
52.4097
20
-122.7146
0
VERTEX
8
CUT
10
52.3512
20
-122.6727
0
VERTEX
8
CUT
10
52.2956
20
-122.6270
0
VERTEX
8
CUT
10
52.2430
20
-122.5778
0
VERTEX
8
CUT
10
52.1938
20
-122.5253
0
VERTEX
8
CUT
10
52.1481
20
-122.4696
0
VERTEX
8
CUT
10
52.1062
20
-122.4111
0
VERTEX
8
CUT
10
52.0682
20
-122.3500
0
VERTEX
8
CUT
10
52.0343
20
-122.2865
0
VERTEX
8
CUT
10
52.0046
20
-122.2210
0
VERTEX
8
CUT
10
51.9792
20
-122.1536
0
VERTEX
8
CUT
10
51.9583
20
-122.0847
0
VERTEX
8
CUT
10
51.9420
20
-122.0146
0
VERTEX
8
CUT
10
51.9302
20
-121.9436
0
VERTEX
8
CUT
10
51.9232
20
-121.8719
0
VERTEX
8
CUT
10
51.9208
20
-121.8000
0
VERTEX
8
CUT
10
51.9232
20
-121.7281
0
VERTEX
8
CUT
10
51.9302
20
-121.6564
0
VERTEX
8
CUT
10
51.9420
20
-121.5854
0
VERTEX
8
CUT
10
51.9583
20
-121.5153
0
VERTEX
8
CUT
10
51.9792
20
-121.4464
0
VERTEX
8
CUT
10
52.0046
20
-121.3790
0
VERTEX
8
CUT
10
52.0343
20
-121.3135
0
VERTEX
8
CUT
10
52.0682
20
-121.2500
0
VERTEX
8
CUT
10
52.1062
20
-121.1889
0
VERTEX
8
CUT
10
52.1481
20
-121.1304
0
VERTEX
8
CUT
10
52.1938
20
-121.0747
0
VERTEX
8
CUT
10
52.2430
20
-121.0222
0
VERTEX
8
CUT
10
52.2956
20
-120.9730
0
VERTEX
8
CUT
10
52.3512
20
-120.9273
0
VERTEX
8
CUT
10
52.4097
20
-120.8854
0
VERTEX
8
CUT
10
52.4708
20
-120.8474
0
VERTEX
8
CUT
10
52.5343
20
-120.8134
0
VERTEX
8
CUT
10
52.5999
20
-120.7837
0
VERTEX
8
CUT
10
52.6672
20
-120.7584
0
VERTEX
8
CUT
10
52.7361
20
-120.7375
0
VERTEX
8
CUT
10
52.8062
20
-120.7211
0
VERTEX
8
CUT
10
52.8773
20
-120.7094
0
VERTEX
8
CUT
10
52.9489
20
-120.7024
0
VERTEX
8
CUT
10
53.0208
20
-120.7000
0
VERTEX
8
CUT
10
53.0928
20
-120.7024
0
VERTEX
8
CUT
10
53.1644
20
-120.7094
0
VERTEX
8
CUT
10
53.2354
20
-120.7211
0
VERTEX
8
CUT
10
53.3055
20
-120.7375
0
VERTEX
8
CUT
10
53.3744
20
-120.7584
0
VERTEX
8
CUT
10
53.4418
20
-120.7837
0
VERTEX
8
CUT
10
53.5074
20
-120.8134
0
VERTEX
8
CUT
10
53.5708
20
-120.8474
0
VERTEX
8
CUT
10
53.6320
20
-120.8854
0
VERTEX
8
CUT
10
53.6905
20
-120.9273
0
VERTEX
8
CUT
10
53.7461
20
-120.9730
0
VERTEX
8
CUT
10
53.7987
20
-121.0222
0
VERTEX
8
CUT
10
53.8479
20
-121.0747
0
VERTEX
8
CUT
10
53.8935
20
-121.1304
0
VERTEX
8
CUT
10
53.9354
20
-121.1889
0
VERTEX
8
CUT
10
53.9735
20
-121.2500
0
VERTEX
8
CUT
10
54.0074
20
-121.3135
0
VERTEX
8
CUT
10
54.0371
20
-121.3790
0
VERTEX
8
CUT
10
54.0625
20
-121.4464
0
VERTEX
8
CUT
10
54.0834
20
-121.5153
0
VERTEX
8
CUT
10
54.0997
20
-121.5854
0
VERTEX
8
CUT
10
54.1114
20
-121.6564
0
VERTEX
8
CUT
10
54.1185
20
-121.7281
0
VERTEX
8
CUT
10
54.1208
20
-121.8000
0
VERTEX
8
CUT
10
54.1185
20
-121.8719
0
VERTEX
8
CUT
10
54.1114
20
-121.9436
0
VERTEX
8
CUT
10
54.0997
20
-122.0146
0
VERTEX
8
CUT
10
54.0834
20
-122.0847
0
VERTEX
8
CUT
10
54.0625
20
-122.1536
0
VERTEX
8
CUT
10
54.0371
20
-122.2210
0
VERTEX
8
CUT
10
54.0074
20
-122.2865
0
VERTEX
8
CUT
10
53.9735
20
-122.3500
0
VERTEX
8
CUT
10
53.9354
20
-122.4111
0
VERTEX
8
CUT
10
53.8935
20
-122.4696
0
VERTEX
8
CUT
10
53.8479
20
-122.5253
0
VERTEX
8
CUT
10
53.7987
20
-122.5778
0
VERTEX
8
CUT
10
53.7461
20
-122.6270
0
VERTEX
8
CUT
10
53.6905
20
-122.6727
0
VERTEX
8
CUT
10
53.6320
20
-122.7146
0
VERTEX
8
CUT
10
53.5708
20
-122.7526
0
VERTEX
8
CUT
10
53.5074
20
-122.7866
0
VERTEX
8
CUT
10
53.4418
20
-122.8163
0
VERTEX
8
CUT
10
53.3744
20
-122.8416
0
VERTEX
8
CUT
10
53.3055
20
-122.8625
0
VERTEX
8
CUT
10
53.2354
20
-122.8789
0
VERTEX
8
CUT
10
53.1644
20
-122.8906
0
VERTEX
8
CUT
10
53.0928
20
-122.8976
0
VERTEX
8
CUT
10
53.0208
20
-122.9000
0
SEQEND
0
POLYLINE
8
CUT
66
1
70
1
0
VERTEX
8
CUT
10
113.4697
20
-122.8976
0
VERTEX
8
CUT
10
113.3981
20
-122.8906
0
VERTEX
8
CUT
10
113.3271
20
-122.8789
0
VERTEX
8
CUT
10
113.2570
20
-122.8625
0
VERTEX
8
CUT
10
113.1881
20
-122.8416
0
VERTEX
8
CUT
10
113.1207
20
-122.8163
0
VERTEX
8
CUT
10
113.0551
20
-122.7866
0
VERTEX
8
CUT
10
112.9917
20
-122.7526
0
VERTEX
8
CUT
10
112.9305
20
-122.7146
0
VERTEX
8
CUT
10
112.8720
20
-122.6727
0
VERTEX
8
CUT
10
112.8164
20
-122.6270
0
VERTEX
8
CUT
10
112.7638
20
-122.5778
0
VERTEX
8
CUT
10
112.7146
20
-122.5253
0
VERTEX
8
CUT
10
112.6690
20
-122.4696
0
VERTEX
8
CUT
10
112.6271
20
-122.4111
0
VERTEX
8
CUT
10
112.5890
20
-122.3500
0
VERTEX
8
CUT
10
112.5551
20
-122.2865
0
VERTEX
8
CUT
10
112.5254
20
-122.2210
0
VERTEX
8
CUT
10
112.5000
20
-122.1536
0
VERTEX
8
CUT
10
112.4791
20
-122.0847
0
VERTEX
8
CUT
10
112.4628
20
-122.0146
0
VERTEX
8
CUT
10
112.4511
20
-121.9436
0
VERTEX
8
CUT
10
112.4440
20
-121.8719
0
VERTEX
8
CUT
10
112.4417
20
-121.8000
0
VERTEX
8
CUT
10
112.4440
20
-121.7281
0
VERTEX
8
CUT
10
112.4511
20
-121.6564
0
VERTEX
8
CUT
10
112.4628
20
-121.5854
0
VERTEX
8
CUT
10
112.4791
20
-121.5153
0
VERTEX
8
CUT
10
112.5000
20
-121.4464
0
VERTEX
8
CUT
10
112.5254
20
-121.3790
0
VERTEX
8
CUT
10
112.5551
20
-121.3135
0
VERTEX
8
CUT
10
112.5890
20
-121.2500
0
VERTEX
8
CUT
10
112.6271
20
-121.1889
0
VERTEX
8
CUT
10
112.6690
20
-121.1304
0
VERTEX
8
CUT
10
112.7146
20
-121.0747
0
VERTEX
8
CUT
10
112.7638
20
-121.0222
0
VERTEX
8
CUT
10
112.8164
20
-120.9730
0
VERTEX
8
CUT
10
112.8720
20
-120.9273
0
VERTEX
8
CUT
10
112.9305
20
-120.8854
0
VERTEX
8
CUT
10
112.9917
20
-120.8474
0
VERTEX
8
CUT
10
113.0551
20
-120.8134
0
VERTEX
8
CUT
10
113.1207
20
-120.7837
0
VERTEX
8
CUT
10
113.1881
20
-120.7584
0
VERTEX
8
CUT
10
113.2570
20
-120.7375
0
VERTEX
8
CUT
10
113.3271
20
-120.7211
0
VERTEX
8
CUT
10
113.3981
20
-120.7094
0
VERTEX
8
CUT
10
113.4697
20
-120.7024
0
VERTEX
8
CUT
10
113.5417
20
-120.7000
0
VERTEX
8
CUT
10
113.6136
20
-120.7024
0
VERTEX
8
CUT
10
113.6852
20
-120.7094
0
VERTEX
8
CUT
10
113.7563
20
-120.7211
0
VERTEX
8
CUT
10
113.8264
20
-120.7375
0
VERTEX
8
CUT
10
113.8953
20
-120.7584
0
VERTEX
8
CUT
10
113.9626
20
-120.7837
0
VERTEX
8
CUT
10
114.0282
20
-120.8134
0
VERTEX
8
CUT
10
114.0917
20
-120.8474
0
VERTEX
8
CUT
10
114.1528
20
-120.8854
0
VERTEX
8
CUT
10
114.2113
20
-120.9273
0
VERTEX
8
CUT
10
114.2669
20
-120.9730
0
VERTEX
8
CUT
10
114.3195
20
-121.0222
0
VERTEX
8
CUT
10
114.3687
20
-121.0747
0
VERTEX
8
CUT
10
114.4144
20
-121.1304
0
VERTEX
8
CUT
10
114.4563
20
-121.1889
0
VERTEX
8
CUT
10
114.4943
20
-121.2500
0
VERTEX
8
CUT
10
114.5282
20
-121.3135
0
VERTEX
8
CUT
10
114.5579
20
-121.3790
0
VERTEX
8
CUT
10
114.5833
20
-121.4464
0
VERTEX
8
CUT
10
114.6042
20
-121.5153
0
VERTEX
8
CUT
10
114.6205
20
-121.5854
0
VERTEX
8
CUT
10
114.6323
20
-121.6564
0
VERTEX
8
CUT
10
114.6393
20
-121.7281
0
VERTEX
8
CUT
10
114.6417
20
-121.8000
0
VERTEX
8
CUT
10
114.6393
20
-121.8719
0
VERTEX
8
CUT
10
114.6323
20
-121.9436
0
VERTEX
8
CUT
10
114.6205
20
-122.0146
0
VERTEX
8
CUT
10
114.6042
20
-122.0847
0
VERTEX
8
CUT
10
114.5833
20
-122.1536
0
VERTEX
8
CUT
10
114.5579
20
-122.2210
0
VERTEX
8
CUT
10
114.5282
20
-122.2865
0
VERTEX
8
CUT
10
114.4943
20
-122.3500
0
VERTEX
8
CUT
10
114.4563
20
-122.4111
0
VERTEX
8
CUT
10
114.4144
20
-122.4696
0
VERTEX
8
CUT
10
114.3687
20
-122.5253
0
VERTEX
8
CUT
10
114.3195
20
-122.5778
0
VERTEX
8
CUT
10
114.2669
20
-122.6270
0
VERTEX
8
CUT
10
114.2113
20
-122.6727
0
VERTEX
8
CUT
10
114.1528
20
-122.7146
0
VERTEX
8
CUT
10
114.0917
20
-122.7526
0
VERTEX
8
CUT
10
114.0282
20
-122.7866
0
VERTEX
8
CUT
10
113.9626
20
-122.8163
0
VERTEX
8
CUT
10
113.8953
20
-122.8416
0
VERTEX
8
CUT
10
113.8264
20
-122.8625
0
VERTEX
8
CUT
10
113.7563
20
-122.8789
0
VERTEX
8
CUT
10
113.6852
20
-122.8906
0
VERTEX
8
CUT
10
113.6136
20
-122.8976
0
VERTEX
8
CUT
10
113.5417
20
-122.9000
0
SEQEND
0
ENDSEC
0
EOF
