0
SECTION
2
HEADER
9
$INSUNITS
70
4
0
ENDSEC
0
SECTION
2
ENTITIES
0
POLYLINE
8
CUT
66
1
70
1
0
VERTEX
8
CUT
10
190.5404
20
-41.4929
0
VERTEX
8
CUT
10
190.6055
20
-41.4864
0
VERTEX
8
CUT
10
190.6701
20
-41.4758
0
VERTEX
8
CUT
10
190.7338
20
-41.4609
0
VERTEX
8
CUT
10
190.7964
20
-41.4419
0
VERTEX
8
CUT
10
190.8577
20
-41.4189
0
VERTEX
8
CUT
10
190.9173
20
-41.3919
0
VERTEX
8
CUT
10
190.9750
20
-41.3610
0
VERTEX
8
CUT
10
191.0306
20
-41.3265
0
VERTEX
8
CUT
10
191.0838
20
-41.2884
0
VERTEX
8
CUT
10
191.1343
20
-41.2468
0
VERTEX
8
CUT
10
191.1821
20
-41.2021
0
VERTEX
8
CUT
10
191.2268
20
-41.1543
0
VERTEX
8
CUT
10
191.2684
20
-41.1038
0
VERTEX
8
CUT
10
191.3065
20
-41.0506
0
VERTEX
8
CUT
10
191.3410
20
-40.9950
0
VERTEX
8
CUT
10
191.3719
20
-40.9373
0
VERTEX
8
CUT
10
191.3989
20
-40.8777
0
VERTEX
8
CUT
10
191.4219
20
-40.8164
0
VERTEX
8
CUT
10
191.4409
20
-40.7538
0
VERTEX
8
CUT
10
191.4558
20
-40.6901
0
VERTEX
8
CUT
10
191.4664
20
-40.6255
0
VERTEX
8
CUT
10
191.4729
20
-40.5604
0
VERTEX
8
CUT
10
191.4750
20
-40.4950
0
VERTEX
8
CUT
10
191.4750
20
-1.0327
0
VERTEX
8
CUT
10
191.4745
20
-1.0000
0
VERTEX
8
CUT
10
191.4509
20
-0.2806
0
VERTEX
8
CUT
10
191.4466
20
-0.2153
0
VERTEX
8
CUT
10
191.4466
20
-0.2153
0
VERTEX
8
CUT
10
191.3793
20
0.4684
0
VERTEX
8
CUT
10
191.3708
20
0.5333
0
VERTEX
8
CUT
10
191.2588
20
1.2111
0
VERTEX
8
CUT
10
191.2461
20
1.2753
0
VERTEX
8
CUT
10
191.0901
20
1.9444
0
VERTEX
8
CUT
10
191.0731
20
2.0076
0
VERTEX
8
CUT
10
190.8737
20
2.6651
0
VERTEX
8
CUT
10
190.8527
20
2.7270
0
VERTEX
8
CUT
10
190.8450
20
2.7472
0
VERTEX
8
CUT
10
190.8200
20
2.8077
0
VERTEX
8
CUT
10
190.7911
20
2.8664
0
VERTEX
8
CUT
10
190.7583
20
2.9231
0
VERTEX
8
CUT
10
190.7220
20
2.9775
0
VERTEX
8
CUT
10
190.6821
20
3.0294
0
VERTEX
8
CUT
10
190.6390
20
3.0786
0
VERTEX
8
CUT
10
190.5927
20
3.1249
0
VERTEX
8
CUT
10
190.5435
20
3.1680
0
VERTEX
8
CUT
10
190.4916
20
3.2078
0
VERTEX
8
CUT
10
190.4372
20
3.2442
0
VERTEX
8
CUT
10
190.3805
20
3.2769
0
VERTEX
8
CUT
10
190.3218
20
3.3059
0
VERTEX
8
CUT
10
190.2614
20
3.3309
0
VERTEX
8
CUT
10
190.1994
20
3.3519
0
VERTEX
8
CUT
10
190.1362
20
3.3689
0
VERTEX
8
CUT
10
190.0720
20
3.3816
0
VERTEX
8
CUT
10
190.0072
20
3.3902
0
VERTEX
8
CUT
10
189.9419
20
3.3945
0
VERTEX
8
CUT
10
189.9091
20
3.3950
0
VERTEX
8
CUT
10
169.2300
20
3.3950
0
VERTEX
8
CUT
10
169.1646
20
3.3929
0
VERTEX
8
CUT
10
169.0995
20
3.3864
0
VERTEX
8
CUT
10
169.0349
20
3.3758
0
VERTEX
8
CUT
10
168.9712
20
3.3609
0
VERTEX
8
CUT
10
168.9086
20
3.3419
0
VERTEX
8
CUT
10
168.8473
20
3.3189
0
VERTEX
8
CUT
10
168.7877
20
3.2919
0
VERTEX
8
CUT
10
168.7300
20
3.2610
0
VERTEX
8
CUT
10
168.6744
20
3.2265
0
VERTEX
8
CUT
10
168.6212
20
3.1884
0
VERTEX
8
CUT
10
168.5707
20
3.1468
0
VERTEX
8
CUT
10
168.5229
20
3.1021
0
VERTEX
8
CUT
10
168.4782
20
3.0543
0
VERTEX
8
CUT
10
168.4366
20
3.0038
0
VERTEX
8
CUT
10
168.3985
20
2.9506
0
VERTEX
8
CUT
10
168.3640
20
2.8950
0
VERTEX
8
CUT
10
168.3331
20
2.8373
0
VERTEX
8
CUT
10
168.3061
20
2.7777
0
VERTEX
8
CUT
10
168.2831
20
2.7164
0
VERTEX
8
CUT
10
168.2641
20
2.6538
0
VERTEX
8
CUT
10
168.2492
20
2.5901
0
VERTEX
8
CUT
10
168.2386
20
2.5255
0
VERTEX
8
CUT
10
168.2321
20
2.4604
0
VERTEX
8
CUT
10
168.2300
20
2.3950
0
VERTEX
8
CUT
10
168.2300
20
-40.4950
0
VERTEX
8
CUT
10
168.2321
20
-40.5604
0
VERTEX
8
CUT
10
168.2386
20
-40.6255
0
VERTEX
8
CUT
10
168.2492
20
-40.6901
0
VERTEX
8
CUT
10
168.2641
20
-40.7538
0
VERTEX
8
CUT
10
168.2831
20
-40.8164
0
VERTEX
8
CUT
10
168.3061
20
-40.8777
0
VERTEX
8
CUT
10
168.3331
20
-40.9373
0
VERTEX
8
CUT
10
168.3640
20
-40.9950
0
VERTEX
8
CUT
10
168.3985
20
-41.0506
0
VERTEX
8
CUT
10
168.4366
20
-41.1038
0
VERTEX
8
CUT
10
168.4782
20
-41.1543
0
VERTEX
8
CUT
10
168.5229
20
-41.2021
0
VERTEX
8
CUT
10
168.5707
20
-41.2468
0
VERTEX
8
CUT
10
168.6212
20
-41.2884
0
VERTEX
8
CUT
10
168.6744
20
-41.3265
0
VERTEX
8
CUT
10
168.7300
20
-41.3610
0
VERTEX
8
CUT
10
168.7877
20
-41.3919
0
VERTEX
8
CUT
10
168.8473
20
-41.4189
0
VERTEX
8
CUT
10
168.9086
20
-41.4419
0
VERTEX
8
CUT
10
168.9712
20
-41.4609
0
VERTEX
8
CUT
10
169.0349
20
-41.4758
0
VERTEX
8
CUT
10
169.0995
20
-41.4864
0
VERTEX
8
CUT
10
169.1646
20
-41.4929
0
VERTEX
8
CUT
10
169.2300
20
-41.4950
0
VERTEX
8
CUT
10
190.4750
20
-41.4950
0
SEQEND
0
POLYLINE
8
CUT
66
1
70
1
0
VERTEX
8
CUT
10
188.4031
20
-3.7026
0
VERTEX
8
CUT
10
188.3314
20
-3.6956
0
VERTEX
8
CUT
10
188.2604
20
-3.6839
0
VERTEX
8
CUT
10
188.1903
20
-3.6675
0
VERTEX
8
CUT
10
188.1214
20
-3.6466
0
VERTEX
8
CUT
10
188.0540
20
-3.6213
0
VERTEX
8
CUT
10
187.9885
20
-3.5916
0
VERTEX
8
CUT
10
187.9250
20
-3.5576
0
VERTEX
8
CUT
10
187.8639
20
-3.5196
0
VERTEX
8
CUT
10
187.8054
20
-3.4777
0
VERTEX
8
CUT
10
187.7497
20
-3.4320
0
VERTEX
8
CUT
10
187.6972
20
-3.3828
0
VERTEX
8
CUT
10
187.6480
20
-3.3303
0
VERTEX
8
CUT
10
187.6023
20
-3.2746
0
VERTEX
8
CUT
10
187.5604
20
-3.2161
0
VERTEX
8
CUT
10
187.5224
20
-3.1550
0
VERTEX
8
CUT
10
187.4884
20
-3.0915
0
VERTEX
8
CUT
10
187.4587
20
-3.0260
0
VERTEX
8
CUT
10
187.4334
20
-2.9586
0
VERTEX
8
CUT
10
187.4125
20
-2.8897
0
VERTEX
8
CUT
10
187.3961
20
-2.8196
0
VERTEX
8
CUT
10
187.3844
20
-2.7486
0
VERTEX
8
CUT
10
187.3774
20
-2.6769
0
VERTEX
8
CUT
10
187.3750
20
-2.6050
0
VERTEX
8
CUT
10
187.3774
20
-2.5331
0
VERTEX
8
CUT
10
187.3844
20
-2.4614
0
VERTEX
8
CUT
10
187.3961
20
-2.3904
0
VERTEX
8
CUT
10
187.4125
20
-2.3203
0
VERTEX
8
CUT
10
187.4334
20
-2.2514
0
VERTEX
8
CUT
10
187.4587
20
-2.1840
0
VERTEX
8
CUT
10
187.4884
20
-2.1185
0
VERTEX
8
CUT
10
187.5224
20
-2.0550
0
VERTEX
8
CUT
10
187.5604
20
-1.9939
0
VERTEX
8
CUT
10
187.6023
20
-1.9354
0
VERTEX
8
CUT
10
187.6480
20
-1.8797
0
VERTEX
8
CUT
10
187.6972
20
-1.8272
0
VERTEX
8
CUT
10
187.7497
20
-1.7780
0
VERTEX
8
CUT
10
187.8054
20
-1.7323
0
VERTEX
8
CUT
10
187.8639
20
-1.6904
0
VERTEX
8
CUT
10
187.9250
20
-1.6524
0
VERTEX
8
CUT
10
187.9885
20
-1.6184
0
VERTEX
8
CUT
10
188.0540
20
-1.5887
0
VERTEX
8
CUT
10
188.1214
20
-1.5634
0
VERTEX
8
CUT
10
188.1903
20
-1.5425
0
VERTEX
8
CUT
10
188.2604
20
-1.5261
0
VERTEX
8
CUT
10
188.3314
20
-1.5144
0
VERTEX
8
CUT
10
188.4031
20
-1.5074
0
VERTEX
8
CUT
10
188.4750
20
-1.5050
0
VERTEX
8
CUT
10
188.5469
20
-1.5074
0
VERTEX
8
CUT
10
188.6186
20
-1.5144
0
VERTEX
8
CUT
10
188.6896
20
-1.5261
0
VERTEX
8
CUT
10
188.7597
20
-1.5425
0
VERTEX
8
CUT
10
188.8286
20
-1.5634
0
VERTEX
8
CUT
10
188.8960
20
-1.5887
0
VERTEX
8
CUT
10
188.9615
20
-1.6184
0
VERTEX
8
CUT
10
189.0250
20
-1.6524
0
VERTEX
8
CUT
10
189.0861
20
-1.6904
0
VERTEX
8
CUT
10
189.1446
20
-1.7323
0
VERTEX
8
CUT
10
189.2003
20
-1.7780
0
VERTEX
8
CUT
10
189.2528
20
-1.8272
0
VERTEX
8
CUT
10
189.3020
20
-1.8797
0
VERTEX
8
CUT
10
189.3477
20
-1.9354
0
VERTEX
8
CUT
10
189.3896
20
-1.9939
0
VERTEX
8
CUT
10
189.4276
20
-2.0550
0
VERTEX
8
CUT
10
189.4616
20
-2.1185
0
VERTEX
8
CUT
10
189.4913
20
-2.1840
0
VERTEX
8
CUT
10
189.5166
20
-2.2514
0
VERTEX
8
CUT
10
189.5375
20
-2.3203
0
VERTEX
8
CUT
10
189.5539
20
-2.3904
0
VERTEX
8
CUT
10
189.5656
20
-2.4614
0
VERTEX
8
CUT
10
189.5726
20
-2.5331
0
VERTEX
8
CUT
10
189.5750
20
-2.6050
0
VERTEX
8
CUT
10
189.5726
20
-2.6769
0
VERTEX
8
CUT
10
189.5656
20
-2.7486
0
VERTEX
8
CUT
10
189.5539
20
-2.8196
0
VERTEX
8
CUT
10
189.5375
20
-2.8897
0
VERTEX
8
CUT
10
189.5166
20
-2.9586
0
VERTEX
8
CUT
10
189.4913
20
-3.0260
0
VERTEX
8
CUT
10
189.4616
20
-3.0915
0
VERTEX
8
CUT
10
189.4276
20
-3.1550
0
VERTEX
8
CUT
10
189.3896
20
-3.2161
0
VERTEX
8
CUT
10
189.3477
20
-3.2746
0
VERTEX
8
CUT
10
189.3020
20
-3.3303
0
VERTEX
8
CUT
10
189.2528
20
-3.3828
0
VERTEX
8
CUT
10
189.2003
20
-3.4320
0
VERTEX
8
CUT
10
189.1446
20
-3.4777
0
VERTEX
8
CUT
10
189.0861
20
-3.5196
0
VERTEX
8
CUT
10
189.0250
20
-3.5576
0
VERTEX
8
CUT
10
188.9615
20
-3.5916
0
VERTEX
8
CUT
10
188.8960
20
-3.6213
0
VERTEX
8
CUT
10
188.8286
20
-3.6466
0
VERTEX
8
CUT
10
188.7597
20
-3.6675
0
VERTEX
8
CUT
10
188.6896
20
-3.6839
0
VERTEX
8
CUT
10
188.6186
20
-3.6956
0
VERTEX
8
CUT
10
188.5469
20
-3.7026
0
VERTEX
8
CUT
10
188.4750
20
-3.7050
0
SEQEND
0
POLYLINE
8
CUT
66
1
70
1
0
VERTEX
8
CUT
10
188.4031
20
-36.2026
0
VERTEX
8
CUT
10
188.3314
20
-36.1956
0
VERTEX
8
CUT
10
188.2604
20
-36.1839
0
VERTEX
8
CUT
10
188.1903
20
-36.1675
0
VERTEX
8
CUT
10
188.1214
20
-36.1466
0
VERTEX
8
CUT
10
188.0540
20
-36.1213
0
VERTEX
8
CUT
10
187.9885
20
-36.0916
0
VERTEX
8
CUT
10
187.9250
20
-36.0576
0
VERTEX
8
CUT
10
187.8639
20
-36.0196
0
VERTEX
8
CUT
10
187.8054
20
-35.9777
0
VERTEX
8
CUT
10
187.7497
20
-35.9320
0
VERTEX
8
CUT
10
187.6972
20
-35.8828
0
VERTEX
8
CUT
10
187.6480
20
-35.8303
0
VERTEX
8
CUT
10
187.6023
20
-35.7746
0
VERTEX
8
CUT
10
187.5604
20
-35.7161
0
VERTEX
8
CUT
10
187.5224
20
-35.6550
0
VERTEX
8
CUT
10
187.4884
20
-35.5915
0
VERTEX
8
CUT
10
187.4587
20
-35.5260
0
VERTEX
8
CUT
10
187.4334
20
-35.4586
0
VERTEX
8
CUT
10
187.4125
20
-35.3897
0
VERTEX
8
CUT
10
187.3961
20
-35.3196
0
VERTEX
8
CUT
10
187.3844
20
-35.2486
0
VERTEX
8
CUT
10
187.3774
20
-35.1769
0
VERTEX
8
CUT
10
187.3750
20
-35.1050
0
VERTEX
8
CUT
10
187.3774
20
-35.0331
0
VERTEX
8
CUT
10
187.3844
20
-34.9614
0
VERTEX
8
CUT
10
187.3961
20
-34.8904
0
VERTEX
8
CUT
10
187.4125
20
-34.8203
0
VERTEX
8
CUT
10
187.4334
20
-34.7514
0
VERTEX
8
CUT
10
187.4587
20
-34.6840
0
VERTEX
8
CUT
10
187.4884
20
-34.6185
0
VERTEX
8
CUT
10
187.5224
20
-34.5550
0
VERTEX
8
CUT
10
187.5604
20
-34.4939
0
VERTEX
8
CUT
10
187.6023
20
-34.4354
0
VERTEX
8
CUT
10
187.6480
20
-34.3797
0
VERTEX
8
CUT
10
187.6972
20
-34.3272
0
VERTEX
8
CUT
10
187.7497
20
-34.2780
0
VERTEX
8
CUT
10
187.8054
20
-34.2323
0
VERTEX
8
CUT
10
187.8639
20
-34.1904
0
VERTEX
8
CUT
10
187.9250
20
-34.1524
0
VERTEX
8
CUT
10
187.9885
20
-34.1184
0
VERTEX
8
CUT
10
188.0540
20
-34.0887
0
VERTEX
8
CUT
10
188.1214
20
-34.0634
0
VERTEX
8
CUT
10
188.1903
20
-34.0425
0
VERTEX
8
CUT
10
188.2604
20
-34.0261
0
VERTEX
8
CUT
10
188.3314
20
-34.0144
0
VERTEX
8
CUT
10
188.4031
20
-34.0074
0
VERTEX
8
CUT
10
188.4750
20
-34.0050
0
VERTEX
8
CUT
10
188.5469
20
-34.0074
0
VERTEX
8
CUT
10
188.6186
20
-34.0144
0
VERTEX
8
CUT
10
188.6896
20
-34.0261
0
VERTEX
8
CUT
10
188.7597
20
-34.0425
0
VERTEX
8
CUT
10
188.8286
20
-34.0634
0
VERTEX
8
CUT
10
188.8960
20
-34.0887
0
VERTEX
8
CUT
10
188.9615
20
-34.1184
0
VERTEX
8
CUT
10
189.0250
20
-34.1524
0
VERTEX
8
CUT
10
189.0861
20
-34.1904
0
VERTEX
8
CUT
10
189.1446
20
-34.2323
0
VERTEX
8
CUT
10
189.2003
20
-34.2780
0
VERTEX
8
CUT
10
189.2528
20
-34.3272
0
VERTEX
8
CUT
10
189.3020
20
-34.3797
0
VERTEX
8
CUT
10
189.3477
20
-34.4354
0
VERTEX
8
CUT
10
189.3896
20
-34.4939
0
VERTEX
8
CUT
10
189.4276
20
-34.5550
0
VERTEX
8
CUT
10
189.4616
20
-34.6185
0
VERTEX
8
CUT
10
189.4913
20
-34.6840
0
VERTEX
8
CUT
10
189.5166
20
-34.7514
0
VERTEX
8
CUT
10
189.5375
20
-34.8203
0
VERTEX
8
CUT
10
189.5539
20
-34.8904
0
VERTEX
8
CUT
10
189.5656
20
-34.9614
0
VERTEX
8
CUT
10
189.5726
20
-35.0331
0
VERTEX
8
CUT
10
189.5750
20
-35.1050
0
VERTEX
8
CUT
10
189.5726
20
-35.1769
0
VERTEX
8
CUT
10
189.5656
20
-35.2486
0
VERTEX
8
CUT
10
189.5539
20
-35.3196
0
VERTEX
8
CUT
10
189.5375
20
-35.3897
0
VERTEX
8
CUT
10
189.5166
20
-35.4586
0
VERTEX
8
CUT
10
189.4913
20
-35.5260
0
VERTEX
8
CUT
10
189.4616
20
-35.5915
0
VERTEX
8
CUT
10
189.4276
20
-35.6550
0
VERTEX
8
CUT
10
189.3896
20
-35.7161
0
VERTEX
8
CUT
10
189.3477
20
-35.7746
0
VERTEX
8
CUT
10
189.3020
20
-35.8303
0
VERTEX
8
CUT
10
189.2528
20
-35.8828
0
VERTEX
8
CUT
10
189.2003
20
-35.9320
0
VERTEX
8
CUT
10
189.1446
20
-35.9777
0
VERTEX
8
CUT
10
189.0861
20
-36.0196
0
VERTEX
8
CUT
10
189.0250
20
-36.0576
0
VERTEX
8
CUT
10
188.9615
20
-36.0916
0
VERTEX
8
CUT
10
188.8960
20
-36.1213
0
VERTEX
8
CUT
10
188.8286
20
-36.1466
0
VERTEX
8
CUT
10
188.7597
20
-36.1675
0
VERTEX
8
CUT
10
188.6896
20
-36.1839
0
VERTEX
8
CUT
10
188.6186
20
-36.1956
0
VERTEX
8
CUT
10
188.5469
20
-36.2026
0
VERTEX
8
CUT
10
188.4750
20
-36.2050
0
SEQEND
0
ENDSEC
0
EOF
