0
SECTION
2
HEADER
9
$INSUNITS
70
4
0
ENDSEC
0
SECTION
2
ENTITIES
0
POLYLINE
8
CUT
66
1
70
1
0
VERTEX
8
CUT
10
166.3800
20
-125.7732
0
VERTEX
8
CUT
10
167.1941
20
-125.6931
0
VERTEX
8
CUT
10
168.0011
20
-125.5598
0
VERTEX
8
CUT
10
168.7977
20
-125.3741
0
VERTEX
8
CUT
10
169.5805
20
-125.1366
0
VERTEX
8
CUT
10
170.3460
20
-124.8485
0
VERTEX
8
CUT
10
171.0911
20
-124.5109
0
VERTEX
8
CUT
10
171.8125
20
-124.1253
0
VERTEX
8
CUT
10
172.5071
20
-123.6934
0
VERTEX
8
CUT
10
173.1720
20
-123.2169
0
VERTEX
8
CUT
10
173.8043
20
-122.6980
0
VERTEX
8
CUT
10
174.4013
20
-122.1388
0
VERTEX
8
CUT
10
174.9605
20
-121.5418
0
VERTEX
8
CUT
10
175.4794
20
-120.9095
0
VERTEX
8
CUT
10
175.9559
20
-120.2446
0
VERTEX
8
CUT
10
176.3878
20
-119.5500
0
VERTEX
8
CUT
10
176.7734
20
-118.8286
0
VERTEX
8
CUT
10
177.1110
20
-118.0835
0
VERTEX
8
CUT
10
177.3991
20
-117.3180
0
VERTEX
8
CUT
10
177.6366
20
-116.5352
0
VERTEX
8
CUT
10
177.8223
20
-115.7386
0
VERTEX
8
CUT
10
177.9556
20
-114.9316
0
VERTEX
8
CUT
10
178.0357
20
-114.1175
0
VERTEX
8
CUT
10
178.0625
20
-113.3000
0
VERTEX
8
CUT
10
178.0625
20
4.0000
0
VERTEX
8
CUT
10
178.0357
20
4.8175
0
VERTEX
8
CUT
10
177.9556
20
5.6316
0
VERTEX
8
CUT
10
177.8223
20
6.4386
0
VERTEX
8
CUT
10
177.6366
20
7.2352
0
VERTEX
8
CUT
10
177.3991
20
8.0180
0
VERTEX
8
CUT
10
177.1110
20
8.7835
0
VERTEX
8
CUT
10
176.7734
20
9.5286
0
VERTEX
8
CUT
10
176.3878
20
10.2500
0
VERTEX
8
CUT
10
175.9559
20
10.9446
0
VERTEX
8
CUT
10
175.4794
20
11.6095
0
VERTEX
8
CUT
10
174.9605
20
12.2418
0
VERTEX
8
CUT
10
174.4013
20
12.8388
0
VERTEX
8
CUT
10
173.8043
20
13.3980
0
VERTEX
8
CUT
10
173.1720
20
13.9169
0
VERTEX
8
CUT
10
172.5071
20
14.3934
0
VERTEX
8
CUT
10
171.8125
20
14.8253
0
VERTEX
8
CUT
10
171.0911
20
15.2109
0
VERTEX
8
CUT
10
170.3460
20
15.5485
0
VERTEX
8
CUT
10
169.5805
20
15.8366
0
VERTEX
8
CUT
10
168.7977
20
16.0741
0
VERTEX
8
CUT
10
168.0011
20
16.2598
0
VERTEX
8
CUT
10
167.1941
20
16.3931
0
VERTEX
8
CUT
10
166.3800
20
16.4732
0
VERTEX
8
CUT
10
165.5625
20
16.5000
0
VERTEX
8
CUT
10
1.0000
20
16.5000
0
VERTEX
8
CUT
10
0.1825
20
16.4732
0
VERTEX
8
CUT
10
-0.6316
20
16.3931
0
VERTEX
8
CUT
10
-1.4386
20
16.2598
0
VERTEX
8
CUT
10
-2.2352
20
16.0741
0
VERTEX
8
CUT
10
-3.0180
20
15.8366
0
VERTEX
8
CUT
10
-3.7835
20
15.5485
0
VERTEX
8
CUT
10
-4.5286
20
15.2109
0
VERTEX
8
CUT
10
-5.2500
20
14.8253
0
VERTEX
8
CUT
10
-5.9446
20
14.3934
0
VERTEX
8
CUT
10
-6.6095
20
13.9169
0
VERTEX
8
CUT
10
-7.2418
20
13.3980
0
VERTEX
8
CUT
10
-7.8388
20
12.8388
0
VERTEX
8
CUT
10
-8.3980
20
12.2418
0
VERTEX
8
CUT
10
-8.9169
20
11.6095
0
VERTEX
8
CUT
10
-9.3934
20
10.9446
0
VERTEX
8
CUT
10
-9.8253
20
10.2500
0
VERTEX
8
CUT
10
-10.2109
20
9.5286
0
VERTEX
8
CUT
10
-10.5485
20
8.7835
0
VERTEX
8
CUT
10
-10.8366
20
8.0180
0
VERTEX
8
CUT
10
-11.0741
20
7.2352
0
VERTEX
8
CUT
10
-11.2598
20
6.4386
0
VERTEX
8
CUT
10
-11.3931
20
5.6316
0
VERTEX
8
CUT
10
-11.4732
20
4.8175
0
VERTEX
8
CUT
10
-11.5000
20
4.0000
0
VERTEX
8
CUT
10
-11.5000
20
-113.3000
0
VERTEX
8
CUT
10
-11.4732
20
-114.1175
0
VERTEX
8
CUT
10
-11.3931
20
-114.9316
0
VERTEX
8
CUT
10
-11.2598
20
-115.7386
0
VERTEX
8
CUT
10
-11.0741
20
-116.5352
0
VERTEX
8
CUT
10
-10.8366
20
-117.3180
0
VERTEX
8
CUT
10
-10.5485
20
-118.0835
0
VERTEX
8
CUT
10
-10.2109
20
-118.8286
0
VERTEX
8
CUT
10
-9.8253
20
-119.5500
0
VERTEX
8
CUT
10
-9.3934
20
-120.2446
0
VERTEX
8
CUT
10
-8.9169
20
-120.9095
0
VERTEX
8
CUT
10
-8.3980
20
-121.5418
0
VERTEX
8
CUT
10
-7.8388
20
-122.1388
0
VERTEX
8
CUT
10
-7.2418
20
-122.6980
0
VERTEX
8
CUT
10
-6.6095
20
-123.2169
0
VERTEX
8
CUT
10
-5.9446
20
-123.6934
0
VERTEX
8
CUT
10
-5.2500
20
-124.1253
0
VERTEX
8
CUT
10
-4.5286
20
-124.5109
0
VERTEX
8
CUT
10
-3.7835
20
-124.8485
0
VERTEX
8
CUT
10
-3.0180
20
-125.1366
0
VERTEX
8
CUT
10
-2.2352
20
-125.3741
0
VERTEX
8
CUT
10
-1.4386
20
-125.5598
0
VERTEX
8
CUT
10
-0.6316
20
-125.6931
0
VERTEX
8
CUT
10
0.1825
20
-125.7732
0
VERTEX
8
CUT
10
1.0000
20
-125.8000
0
VERTEX
8
CUT
10
165.5625
20
-125.8000
0
SEQEND
0
POLYLINE
8
CUT
66
1
70
1
0
VERTEX
8
CUT
10
19.0719
20
11.4024
0
VERTEX
8
CUT
10
19.0002
20
11.4094
0
VERTEX
8
CUT
10
18.9292
20
11.4211
0
VERTEX
8
CUT
10
18.8591
20
11.4375
0
VERTEX
8
CUT
10
18.7902
20
11.4584
0
VERTEX
8
CUT
10
18.7229
20
11.4837
0
VERTEX
8
CUT
10
18.6573
20
11.5134
0
VERTEX
8
CUT
10
18.5938
20
11.5474
0
VERTEX
8
CUT
10
18.5327
20
11.5854
0
VERTEX
8
CUT
10
18.4742
20
11.6273
0
VERTEX
8
CUT
10
18.4185
20
11.6730
0
VERTEX
8
CUT
10
18.3660
20
11.7222
0
VERTEX
8
CUT
10
18.3168
20
11.7747
0
VERTEX
8
CUT
10
18.2711
20
11.8304
0
VERTEX
8
CUT
10
18.2292
20
11.8889
0
VERTEX
8
CUT
10
18.1912
20
11.9500
0
VERTEX
8
CUT
10
18.1572
20
12.0135
0
VERTEX
8
CUT
10
18.1275
20
12.0790
0
VERTEX
8
CUT
10
18.1022
20
12.1464
0
VERTEX
8
CUT
10
18.0813
20
12.2153
0
VERTEX
8
CUT
10
18.0649
20
12.2854
0
VERTEX
8
CUT
10
18.0532
20
12.3564
0
VERTEX
8
CUT
10
18.0462
20
12.4281
0
VERTEX
8
CUT
10
18.0438
20
12.5000
0
VERTEX
8
CUT
10
18.0462
20
12.5719
0
VERTEX
8
CUT
10
18.0532
20
12.6436
0
VERTEX
8
CUT
10
18.0649
20
12.7146
0
VERTEX
8
CUT
10
18.0813
20
12.7847
0
VERTEX
8
CUT
10
18.1022
20
12.8536
0
VERTEX
8
CUT
10
18.1275
20
12.9210
0
VERTEX
8
CUT
10
18.1572
20
12.9865
0
VERTEX
8
CUT
10
18.1912
20
13.0500
0
VERTEX
8
CUT
10
18.2292
20
13.1111
0
VERTEX
8
CUT
10
18.2711
20
13.1696
0
VERTEX
8
CUT
10
18.3168
20
13.2253
0
VERTEX
8
CUT
10
18.3660
20
13.2778
0
VERTEX
8
CUT
10
18.4185
20
13.3270
0
VERTEX
8
CUT
10
18.4742
20
13.3727
0
VERTEX
8
CUT
10
18.5327
20
13.4146
0
VERTEX
8
CUT
10
18.5938
20
13.4526
0
VERTEX
8
CUT
10
18.6573
20
13.4866
0
VERTEX
8
CUT
10
18.7229
20
13.5163
0
VERTEX
8
CUT
10
18.7902
20
13.5416
0
VERTEX
8
CUT
10
18.8591
20
13.5625
0
VERTEX
8
CUT
10
18.9292
20
13.5789
0
VERTEX
8
CUT
10
19.0002
20
13.5906
0
VERTEX
8
CUT
10
19.0719
20
13.5976
0
VERTEX
8
CUT
10
19.1438
20
13.6000
0
VERTEX
8
CUT
10
19.2157
20
13.5976
0
VERTEX
8
CUT
10
19.2874
20
13.5906
0
VERTEX
8
CUT
10
19.3584
20
13.5789
0
VERTEX
8
CUT
10
19.4285
20
13.5625
0
VERTEX
8
CUT
10
19.4974
20
13.5416
0
VERTEX
8
CUT
10
19.5648
20
13.5163
0
VERTEX
8
CUT
10
19.6303
20
13.4866
0
VERTEX
8
CUT
10
19.6938
20
13.4526
0
VERTEX
8
CUT
10
19.7549
20
13.4146
0
VERTEX
8
CUT
10
19.8134
20
13.3727
0
VERTEX
8
CUT
10
19.8691
20
13.3270
0
VERTEX
8
CUT
10
19.9216
20
13.2778
0
VERTEX
8
CUT
10
19.9708
20
13.2253
0
VERTEX
8
CUT
10
20.0165
20
13.1696
0
VERTEX
8
CUT
10
20.0584
20
13.1111
0
VERTEX
8
CUT
10
20.0964
20
13.0500
0
VERTEX
8
CUT
10
20.1304
20
12.9865
0
VERTEX
8
CUT
10
20.1601
20
12.9210
0
VERTEX
8
CUT
10
20.1854
20
12.8536
0
VERTEX
8
CUT
10
20.2063
20
12.7847
0
VERTEX
8
CUT
10
20.2227
20
12.7146
0
VERTEX
8
CUT
10
20.2344
20
12.6436
0
VERTEX
8
CUT
10
20.2414
20
12.5719
0
VERTEX
8
CUT
10
20.2438
20
12.5000
0
VERTEX
8
CUT
10
20.2414
20
12.4281
0
VERTEX
8
CUT
10
20.2344
20
12.3564
0
VERTEX
8
CUT
10
20.2227
20
12.2854
0
VERTEX
8
CUT
10
20.2063
20
12.2153
0
VERTEX
8
CUT
10
20.1854
20
12.1464
0
VERTEX
8
CUT
10
20.1601
20
12.0790
0
VERTEX
8
CUT
10
20.1304
20
12.0135
0
VERTEX
8
CUT
10
20.0964
20
11.9500
0
VERTEX
8
CUT
10
20.0584
20
11.8889
0
VERTEX
8
CUT
10
20.0165
20
11.8304
0
VERTEX
8
CUT
10
19.9708
20
11.7747
0
VERTEX
8
CUT
10
19.9216
20
11.7222
0
VERTEX
8
CUT
10
19.8691
20
11.6730
0
VERTEX
8
CUT
10
19.8134
20
11.6273
0
VERTEX
8
CUT
10
19.7549
20
11.5854
0
VERTEX
8
CUT
10
19.6938
20
11.5474
0
VERTEX
8
CUT
10
19.6303
20
11.5134
0
VERTEX
8
CUT
10
19.5648
20
11.4837
0
VERTEX
8
CUT
10
19.4974
20
11.4584
0
VERTEX
8
CUT
10
19.4285
20
11.4375
0
VERTEX
8
CUT
10
19.3584
20
11.4211
0
VERTEX
8
CUT
10
19.2874
20
11.4094
0
VERTEX
8
CUT
10
19.2157
20
11.4024
0
VERTEX
8
CUT
10
19.1438
20
11.4000
0
SEQEND
0
POLYLINE
8
CUT
66
1
70
1
0
VERTEX
8
CUT
10
52.9489
20
11.4024
0
VERTEX
8
CUT
10
52.8773
20
11.4094
0
VERTEX
8
CUT
10
52.8062
20
11.4211
0
VERTEX
8
CUT
10
52.7361
20
11.4375
0
VERTEX
8
CUT
10
52.6672
20
11.4584
0
VERTEX
8
CUT
10
52.5999
20
11.4837
0
VERTEX
8
CUT
10
52.5343
20
11.5134
0
VERTEX
8
CUT
10
52.4708
20
11.5474
0
VERTEX
8
CUT
10
52.4097
20
11.5854
0
VERTEX
8
CUT
10
52.3512
20
11.6273
0
VERTEX
8
CUT
10
52.2956
20
11.6730
0
VERTEX
8
CUT
10
52.2430
20
11.7222
0
VERTEX
8
CUT
10
52.1938
20
11.7747
0
VERTEX
8
CUT
10
52.1481
20
11.8304
0
VERTEX
8
CUT
10
52.1062
20
11.8889
0
VERTEX
8
CUT
10
52.0682
20
11.9500
0
VERTEX
8
CUT
10
52.0343
20
12.0135
0
VERTEX
8
CUT
10
52.0046
20
12.0790
0
VERTEX
8
CUT
10
51.9792
20
12.1464
0
VERTEX
8
CUT
10
51.9583
20
12.2153
0
VERTEX
8
CUT
10
51.9420
20
12.2854
0
VERTEX
8
CUT
10
51.9302
20
12.3564
0
VERTEX
8
CUT
10
51.9232
20
12.4281
0
VERTEX
8
CUT
10
51.9208
20
12.5000
0
VERTEX
8
CUT
10
51.9232
20
12.5719
0
VERTEX
8
CUT
10
51.9302
20
12.6436
0
VERTEX
8
CUT
10
51.9420
20
12.7146
0
VERTEX
8
CUT
10
51.9583
20
12.7847
0
VERTEX
8
CUT
10
51.9792
20
12.8536
0
VERTEX
8
CUT
10
52.0046
20
12.9210
0
VERTEX
8
CUT
10
52.0343
20
12.9865
0
VERTEX
8
CUT
10
52.0682
20
13.0500
0
VERTEX
8
CUT
10
52.1062
20
13.1111
0
VERTEX
8
CUT
10
52.1481
20
13.1696
0
VERTEX
8
CUT
10
52.1938
20
13.2253
0
VERTEX
8
CUT
10
52.2430
20
13.2778
0
VERTEX
8
CUT
10
52.2956
20
13.3270
0
VERTEX
8
CUT
10
52.3512
20
13.3727
0
VERTEX
8
CUT
10
52.4097
20
13.4146
0
VERTEX
8
CUT
10
52.4708
20
13.4526
0
VERTEX
8
CUT
10
52.5343
20
13.4866
0
VERTEX
8
CUT
10
52.5999
20
13.5163
0
VERTEX
8
CUT
10
52.6672
20
13.5416
0
VERTEX
8
CUT
10
52.7361
20
13.5625
0
VERTEX
8
CUT
10
52.8062
20
13.5789
0
VERTEX
8
CUT
10
52.8773
20
13.5906
0
VERTEX
8
CUT
10
52.9489
20
13.5976
0
VERTEX
8
CUT
10
53.0208
20
13.6000
0
VERTEX
8
CUT
10
53.0928
20
13.5976
0
VERTEX
8
CUT
10
53.1644
20
13.5906
0
VERTEX
8
CUT
10
53.2354
20
13.5789
0
VERTEX
8
CUT
10
53.3055
20
13.5625
0
VERTEX
8
CUT
10
53.3744
20
13.5416
0
VERTEX
8
CUT
10
53.4418
20
13.5163
0
VERTEX
8
CUT
10
53.5074
20
13.4866
0
VERTEX
8
CUT
10
53.5708
20
13.4526
0
VERTEX
8
CUT
10
53.6320
20
13.4146
0
VERTEX
8
CUT
10
53.6905
20
13.3727
0
VERTEX
8
CUT
10
53.7461
20
13.3270
0
VERTEX
8
CUT
10
53.7987
20
13.2778
0
VERTEX
8
CUT
10
53.8479
20
13.2253
0
VERTEX
8
CUT
10
53.8935
20
13.1696
0
VERTEX
8
CUT
10
53.9354
20
13.1111
0
VERTEX
8
CUT
10
53.9735
20
13.0500
0
VERTEX
8
CUT
10
54.0074
20
12.9865
0
VERTEX
8
CUT
10
54.0371
20
12.9210
0
VERTEX
8
CUT
10
54.0625
20
12.8536
0
VERTEX
8
CUT
10
54.0834
20
12.7847
0
VERTEX
8
CUT
10
54.0997
20
12.7146
0
VERTEX
8
CUT
10
54.1114
20
12.6436
0
VERTEX
8
CUT
10
54.1185
20
12.5719
0
VERTEX
8
CUT
10
54.1208
20
12.5000
0
VERTEX
8
CUT
10
54.1185
20
12.4281
0
VERTEX
8
CUT
10
54.1114
20
12.3564
0
VERTEX
8
CUT
10
54.0997
20
12.2854
0
VERTEX
8
CUT
10
54.0834
20
12.2153
0
VERTEX
8
CUT
10
54.0625
20
12.1464
0
VERTEX
8
CUT
10
54.0371
20
12.0790
0
VERTEX
8
CUT
10
54.0074
20
12.0135
0
VERTEX
8
CUT
10
53.9735
20
11.9500
0
VERTEX
8
CUT
10
53.9354
20
11.8889
0
VERTEX
8
CUT
10
53.8935
20
11.8304
0
VERTEX
8
CUT
10
53.8479
20
11.7747
0
VERTEX
8
CUT
10
53.7987
20
11.7222
0
VERTEX
8
CUT
10
53.7461
20
11.6730
0
VERTEX
8
CUT
10
53.6905
20
11.6273
0
VERTEX
8
CUT
10
53.6320
20
11.5854
0
VERTEX
8
CUT
10
53.5708
20
11.5474
0
VERTEX
8
CUT
10
53.5074
20
11.5134
0
VERTEX
8
CUT
10
53.4418
20
11.4837
0
VERTEX
8
CUT
10
53.3744
20
11.4584
0
VERTEX
8
CUT
10
53.3055
20
11.4375
0
VERTEX
8
CUT
10
53.2354
20
11.4211
0
VERTEX
8
CUT
10
53.1644
20
11.4094
0
VERTEX
8
CUT
10
53.0928
20
11.4024
0
VERTEX
8
CUT
10
53.0208
20
11.4000
0
SEQEND
0
POLYLINE
8
CUT
66
1
70
1
0
VERTEX
8
CUT
10
113.4697
20
11.4024
0
VERTEX
8
CUT
10
113.3981
20
11.4094
0
VERTEX
8
CUT
10
113.3271
20
11.4211
0
VERTEX
8
CUT
10
113.2570
20
11.4375
0
VERTEX
8
CUT
10
113.1881
20
11.4584
0
VERTEX
8
CUT
10
113.1207
20
11.4837
0
VERTEX
8
CUT
10
113.0551
20
11.5134
0
VERTEX
8
CUT
10
112.9917
20
11.5474
0
VERTEX
8
CUT
10
112.9305
20
11.5854
0
VERTEX
8
CUT
10
112.8720
20
11.6273
0
VERTEX
8
CUT
10
112.8164
20
11.6730
0
VERTEX
8
CUT
10
112.7638
20
11.7222
0
VERTEX
8
CUT
10
112.7146
20
11.7747
0
VERTEX
8
CUT
10
112.6690
20
11.8304
0
VERTEX
8
CUT
10
112.6271
20
11.8889
0
VERTEX
8
CUT
10
112.5890
20
11.9500
0
VERTEX
8
CUT
10
112.5551
20
12.0135
0
VERTEX
8
CUT
10
112.5254
20
12.0790
0
VERTEX
8
CUT
10
112.5000
20
12.1464
0
VERTEX
8
CUT
10
112.4791
20
12.2153
0
VERTEX
8
CUT
10
112.4628
20
12.2854
0
VERTEX
8
CUT
10
112.4511
20
12.3564
0
VERTEX
8
CUT
10
112.4440
20
12.4281
0
VERTEX
8
CUT
10
112.4417
20
12.5000
0
VERTEX
8
CUT
10
112.4440
20
12.5719
0
VERTEX
8
CUT
10
112.4511
20
12.6436
0
VERTEX
8
CUT
10
112.4628
20
12.7146
0
VERTEX
8
CUT
10
112.4791
20
12.7847
0
VERTEX
8
CUT
10
112.5000
20
12.8536
0
VERTEX
8
CUT
10
112.5254
20
12.9210
0
VERTEX
8
CUT
10
112.5551
20
12.9865
0
VERTEX
8
CUT
10
112.5890
20
13.0500
0
VERTEX
8
CUT
10
112.6271
20
13.1111
0
VERTEX
8
CUT
10
112.6690
20
13.1696
0
VERTEX
8
CUT
10
112.7146
20
13.2253
0
VERTEX
8
CUT
10
112.7638
20
13.2778
0
VERTEX
8
CUT
10
112.8164
20
13.3270
0
VERTEX
8
CUT
10
112.8720
20
13.3727
0
VERTEX
8
CUT
10
112.9305
20
13.4146
0
VERTEX
8
CUT
10
112.9917
20
13.4526
0
VERTEX
8
CUT
10
113.0551
20
13.4866
0
VERTEX
8
CUT
10
113.1207
20
13.5163
0
VERTEX
8
CUT
10
113.1881
20
13.5416
0
VERTEX
8
CUT
10
113.2570
20
13.5625
0
VERTEX
8
CUT
10
113.3271
20
13.5789
0
VERTEX
8
CUT
10
113.3981
20
13.5906
0
VERTEX
8
CUT
10
113.4697
20
13.5976
0
VERTEX
8
CUT
10
113.5417
20
13.6000
0
VERTEX
8
CUT
10
113.6136
20
13.5976
0
VERTEX
8
CUT
10
113.6852
20
13.5906
0
VERTEX
8
CUT
10
113.7563
20
13.5789
0
VERTEX
8
CUT
10
113.8264
20
13.5625
0
VERTEX
8
CUT
10
113.8953
20
13.5416
0
VERTEX
8
CUT
10
113.9626
20
13.5163
0
VERTEX
8
CUT
10
114.0282
20
13.4866
0
VERTEX
8
CUT
10
114.0917
20
13.4526
0
VERTEX
8
CUT
10
114.1528
20
13.4146
0
VERTEX
8
CUT
10
114.2113
20
13.3727
0
VERTEX
8
CUT
10
114.2669
20
13.3270
0
VERTEX
8
CUT
10
114.3195
20
13.2778
0
VERTEX
8
CUT
10
114.3687
20
13.2253
0
VERTEX
8
CUT
10
114.4144
20
13.1696
0
VERTEX
8
CUT
10
114.4563
20
13.1111
0
VERTEX
8
CUT
10
114.4943
20
13.0500
0
VERTEX
8
CUT
10
114.5282
20
12.9865
0
VERTEX
8
CUT
10
114.5579
20
12.9210
0
VERTEX
8
CUT
10
114.5833
20
12.8536
0
VERTEX
8
CUT
10
114.6042
20
12.7847
0
VERTEX
8
CUT
10
114.6205
20
12.7146
0
VERTEX
8
CUT
10
114.6323
20
12.6436
0
VERTEX
8
CUT
10
114.6393
20
12.5719
0
VERTEX
8
CUT
10
114.6417
20
12.5000
0
VERTEX
8
CUT
10
114.6393
20
12.4281
0
VERTEX
8
CUT
10
114.6323
20
12.3564
0
VERTEX
8
CUT
10
114.6205
20
12.2854
0
VERTEX
8
CUT
10
114.6042
20
12.2153
0
VERTEX
8
CUT
10
114.5833
20
12.1464
0
VERTEX
8
CUT
10
114.5579
20
12.0790
0
VERTEX
8
CUT
10
114.5282
20
12.0135
0
VERTEX
8
CUT
10
114.4943
20
11.9500
0
VERTEX
8
CUT
10
114.4563
20
11.8889
0
VERTEX
8
CUT
10
114.4144
20
11.8304
0
VERTEX
8
CUT
10
114.3687
20
11.7747
0
VERTEX
8
CUT
10
114.3195
20
11.7222
0
VERTEX
8
CUT
10
114.2669
20
11.6730
0
VERTEX
8
CUT
10
114.2113
20
11.6273
0
VERTEX
8
CUT
10
114.1528
20
11.5854
0
VERTEX
8
CUT
10
114.0917
20
11.5474
0
VERTEX
8
CUT
10
114.0282
20
11.5134
0
VERTEX
8
CUT
10
113.9626
20
11.4837
0
VERTEX
8
CUT
10
113.8953
20
11.4584
0
VERTEX
8
CUT
10
113.8264
20
11.4375
0
VERTEX
8
CUT
10
113.7563
20
11.4211
0
VERTEX
8
CUT
10
113.6852
20
11.4094
0
VERTEX
8
CUT
10
113.6136
20
11.4024
0
VERTEX
8
CUT
10
113.5417
20
11.4000
0
SEQEND
0
POLYLINE
8
CUT
66
1
70
1
0
VERTEX
8
CUT
10
1.8954
20
1.4034
0
VERTEX
8
CUT
10
1.7912
20
1.4137
0
VERTEX
8
CUT
10
1.6879
20
1.4307
0
VERTEX
8
CUT
10
1.5859
20
1.4545
0
VERTEX
8
CUT
10
1.4857
20
1.4849
0
VERTEX
8
CUT
10
1.3877
20
1.5218
0
VERTEX
8
CUT
10
1.2923
20
1.5650
0
VERTEX
8
CUT
10
1.2000
20
1.6144
0
VERTEX
8
CUT
10
1.1111
20
1.6696
0
VERTEX
8
CUT
10
1.0260
20
1.7306
0
VERTEX
8
CUT
10
0.9450
20
1.7971
0
VERTEX
8
CUT
10
0.8686
20
1.8686
0
VERTEX
8
CUT
10
0.7971
20
1.9450
0
VERTEX
8
CUT
10
0.7306
20
2.0260
0
VERTEX
8
CUT
10
0.6696
20
2.1111
0
VERTEX
8
CUT
10
0.6144
20
2.2000
0
VERTEX
8
CUT
10
0.5650
20
2.2923
0
VERTEX
8
CUT
10
0.5218
20
2.3877
0
VERTEX
8
CUT
10
0.4849
20
2.4857
0
VERTEX
8
CUT
10
0.4545
20
2.5859
0
VERTEX
8
CUT
10
0.4307
20
2.6879
0
VERTEX
8
CUT
10
0.4137
20
2.7912
0
VERTEX
8
CUT
10
0.4034
20
2.8954
0
VERTEX
8
CUT
10
0.4000
20
3.0000
0
VERTEX
8
CUT
10
0.4034
20
3.1046
0
VERTEX
8
CUT
10
0.4137
20
3.2088
0
VERTEX
8
CUT
10
0.4307
20
3.3121
0
VERTEX
8
CUT
10
0.4545
20
3.4141
0
VERTEX
8
CUT
10
0.4849
20
3.5143
0
VERTEX
8
CUT
10
0.5218
20
3.6123
0
VERTEX
8
CUT
10
0.5650
20
3.7077
0
VERTEX
8
CUT
10
0.6144
20
3.8000
0
VERTEX
8
CUT
10
0.6696
20
3.8889
0
VERTEX
8
CUT
10
0.7306
20
3.9740
0
VERTEX
8
CUT
10
0.7971
20
4.0550
0
VERTEX
8
CUT
10
0.8686
20
4.1314
0
VERTEX
8
CUT
10
0.9450
20
4.2029
0
VERTEX
8
CUT
10
1.0260
20
4.2694
0
VERTEX
8
CUT
10
1.1111
20
4.3304
0
VERTEX
8
CUT
10
1.2000
20
4.3856
0
VERTEX
8
CUT
10
1.2923
20
4.4350
0
VERTEX
8
CUT
10
1.3877
20
4.4782
0
VERTEX
8
CUT
10
1.4857
20
4.5151
0
VERTEX
8
CUT
10
1.5859
20
4.5455
0
VERTEX
8
CUT
10
1.6879
20
4.5693
0
VERTEX
8
CUT
10
1.7912
20
4.5863
0
VERTEX
8
CUT
10
1.8954
20
4.5966
0
VERTEX
8
CUT
10
2.0000
20
4.6000
0
VERTEX
8
CUT
10
2.1046
20
4.5966
0
VERTEX
8
CUT
10
2.2088
20
4.5863
0
VERTEX
8
CUT
10
2.3121
20
4.5693
0
VERTEX
8
CUT
10
2.4141
20
4.5455
0
VERTEX
8
CUT
10
2.5143
20
4.5151
0
VERTEX
8
CUT
10
2.6123
20
4.4782
0
VERTEX
8
CUT
10
2.7077
20
4.4350
0
VERTEX
8
CUT
10
2.8000
20
4.3856
0
VERTEX
8
CUT
10
2.8889
20
4.3304
0
VERTEX
8
CUT
10
2.9740
20
4.2694
0
VERTEX
8
CUT
10
3.0550
20
4.2029
0
VERTEX
8
CUT
10
3.1314
20
4.1314
0
VERTEX
8
CUT
10
3.2029
20
4.0550
0
VERTEX
8
CUT
10
3.2694
20
3.9740
0
VERTEX
8
CUT
10
3.3304
20
3.8889
0
VERTEX
8
CUT
10
3.3856
20
3.8000
0
VERTEX
8
CUT
10
3.4350
20
3.7077
0
VERTEX
8
CUT
10
3.4782
20
3.6123
0
VERTEX
8
CUT
10
3.5151
20
3.5143
0
VERTEX
8
CUT
10
3.5455
20
3.4141
0
VERTEX
8
CUT
10
3.5693
20
3.3121
0
VERTEX
8
CUT
10
3.5863
20
3.2088
0
VERTEX
8
CUT
10
3.5966
20
3.1046
0
VERTEX
8
CUT
10
3.6000
20
3.0000
0
VERTEX
8
CUT
10
3.5966
20
2.8954
0
VERTEX
8
CUT
10
3.5863
20
2.7912
0
VERTEX
8
CUT
10
3.5693
20
2.6879
0
VERTEX
8
CUT
10
3.5455
20
2.5859
0
VERTEX
8
CUT
10
3.5151
20
2.4857
0
VERTEX
8
CUT
10
3.4782
20
2.3877
0
VERTEX
8
CUT
10
3.4350
20
2.2923
0
VERTEX
8
CUT
10
3.3856
20
2.2000
0
VERTEX
8
CUT
10
3.3304
20
2.1111
0
VERTEX
8
CUT
10
3.2694
20
2.0260
0
VERTEX
8
CUT
10
3.2029
20
1.9450
0
VERTEX
8
CUT
10
3.1314
20
1.8686
0
VERTEX
8
CUT
10
3.0550
20
1.7971
0
VERTEX
8
CUT
10
2.9740
20
1.7306
0
VERTEX
8
CUT
10
2.8889
20
1.6696
0
VERTEX
8
CUT
10
2.8000
20
1.6144
0
VERTEX
8
CUT
10
2.7077
20
1.5650
0
VERTEX
8
CUT
10
2.6123
20
1.5218
0
VERTEX
8
CUT
10
2.5143
20
1.4849
0
VERTEX
8
CUT
10
2.4141
20
1.4545
0
VERTEX
8
CUT
10
2.3121
20
1.4307
0
VERTEX
8
CUT
10
2.2088
20
1.4137
0
VERTEX
8
CUT
10
2.1046
20
1.4034
0
VERTEX
8
CUT
10
2.0000
20
1.4000
0
SEQEND
0
POLYLINE
8
CUT
66
1
70
1
0
VERTEX
8
CUT
10
-7.5719
20
-15.2414
0
VERTEX
8
CUT
10
-7.6436
20
-15.2344
0
VERTEX
8
CUT
10
-7.7146
20
-15.2227
0
VERTEX
8
CUT
10
-7.7847
20
-15.2063
0
VERTEX
8
CUT
10
-7.8536
20
-15.1854
0
VERTEX
8
CUT
10
-7.9210
20
-15.1601
0
VERTEX
8
CUT
10
-7.9865
20
-15.1304
0
VERTEX
8
CUT
10
-8.0500
20
-15.0964
0
VERTEX
8
CUT
10
-8.1111
20
-15.0584
0
VERTEX
8
CUT
10
-8.1696
20
-15.0165
0
VERTEX
8
CUT
10
-8.2253
20
-14.9708
0
VERTEX
8
CUT
10
-8.2778
20
-14.9216
0
VERTEX
8
CUT
10
-8.3270
20
-14.8691
0
VERTEX
8
CUT
10
-8.3727
20
-14.8134
0
VERTEX
8
CUT
10
-8.4146
20
-14.7549
0
VERTEX
8
CUT
10
-8.4526
20
-14.6938
0
VERTEX
8
CUT
10
-8.4866
20
-14.6303
0
VERTEX
8
CUT
10
-8.5163
20
-14.5648
0
VERTEX
8
CUT
10
-8.5416
20
-14.4974
0
VERTEX
8
CUT
10
-8.5625
20
-14.4285
0
VERTEX
8
CUT
10
-8.5789
20
-14.3584
0
VERTEX
8
CUT
10
-8.5906
20
-14.2874
0
VERTEX
8
CUT
10
-8.5976
20
-14.2157
0
VERTEX
8
CUT
10
-8.6000
20
-14.1438
0
VERTEX
8
CUT
10
-8.5976
20
-14.0719
0
VERTEX
8
CUT
10
-8.5906
20
-14.0002
0
VERTEX
8
CUT
10
-8.5789
20
-13.9292
0
VERTEX
8
CUT
10
-8.5625
20
-13.8591
0
VERTEX
8
CUT
10
-8.5416
20
-13.7902
0
VERTEX
8
CUT
10
-8.5163
20
-13.7229
0
VERTEX
8
CUT
10
-8.4866
20
-13.6573
0
VERTEX
8
CUT
10
-8.4526
20
-13.5938
0
VERTEX
8
CUT
10
-8.4146
20
-13.5327
0
VERTEX
8
CUT
10
-8.3727
20
-13.4742
0
VERTEX
8
CUT
10
-8.3270
20
-13.4185
0
VERTEX
8
CUT
10
-8.2778
20
-13.3660
0
VERTEX
8
CUT
10
-8.2253
20
-13.3168
0
VERTEX
8
CUT
10
-8.1696
20
-13.2711
0
VERTEX
8
CUT
10
-8.1111
20
-13.2292
0
VERTEX
8
CUT
10
-8.0500
20
-13.1912
0
VERTEX
8
CUT
10
-7.9865
20
-13.1572
0
VERTEX
8
CUT
10
-7.9210
20
-13.1275
0
VERTEX
8
CUT
10
-7.8536
20
-13.1022
0
VERTEX
8
CUT
10
-7.7847
20
-13.0813
0
VERTEX
8
CUT
10
-7.7146
20
-13.0649
0
VERTEX
8
CUT
10
-7.6436
20
-13.0532
0
VERTEX
8
CUT
10
-7.5719
20
-13.0462
0
VERTEX
8
CUT
10
-7.5000
20
-13.0438
0
VERTEX
8
CUT
10
-7.4281
20
-13.0462
0
VERTEX
8
CUT
10
-7.3564
20
-13.0532
0
VERTEX
8
CUT
10
-7.2854
20
-13.0649
0
VERTEX
8
CUT
10
-7.2153
20
-13.0813
0
VERTEX
8
CUT
10
-7.1464
20
-13.1022
0
VERTEX
8
CUT
10
-7.0790
20
-13.1275
0
VERTEX
8
CUT
10
-7.0135
20
-13.1572
0
VERTEX
8
CUT
10
-6.9500
20
-13.1912
0
VERTEX
8
CUT
10
-6.8889
20
-13.2292
0
VERTEX
8
CUT
10
-6.8304
20
-13.2711
0
VERTEX
8
CUT
10
-6.7747
20
-13.3168
0
VERTEX
8
CUT
10
-6.7222
20
-13.3660
0
VERTEX
8
CUT
10
-6.6730
20
-13.4185
0
VERTEX
8
CUT
10
-6.6273
20
-13.4742
0
VERTEX
8
CUT
10
-6.5854
20
-13.5327
0
VERTEX
8
CUT
10
-6.5474
20
-13.5938
0
VERTEX
8
CUT
10
-6.5134
20
-13.6573
0
VERTEX
8
CUT
10
-6.4837
20
-13.7229
0
VERTEX
8
CUT
10
-6.4584
20
-13.7902
0
VERTEX
8
CUT
10
-6.4375
20
-13.8591
0
VERTEX
8
CUT
10
-6.4211
20
-13.9292
0
VERTEX
8
CUT
10
-6.4094
20
-14.0002
0
VERTEX
8
CUT
10
-6.4024
20
-14.0719
0
VERTEX
8
CUT
10
-6.4000
20
-14.1438
0
VERTEX
8
CUT
10
-6.4024
20
-14.2157
0
VERTEX
8
CUT
10
-6.4094
20
-14.2874
0
VERTEX
8
CUT
10
-6.4211
20
-14.3584
0
VERTEX
8
CUT
10
-6.4375
20
-14.4285
0
VERTEX
8
CUT
10
-6.4584
20
-14.4974
0
VERTEX
8
CUT
10
-6.4837
20
-14.5648
0
VERTEX
8
CUT
10
-6.5134
20
-14.6303
0
VERTEX
8
CUT
10
-6.5474
20
-14.6938
0
VERTEX
8
CUT
10
-6.5854
20
-14.7549
0
VERTEX
8
CUT
10
-6.6273
20
-14.8134
0
VERTEX
8
CUT
10
-6.6730
20
-14.8691
0
VERTEX
8
CUT
10
-6.7222
20
-14.9216
0
VERTEX
8
CUT
10
-6.7747
20
-14.9708
0
VERTEX
8
CUT
10
-6.8304
20
-15.0165
0
VERTEX
8
CUT
10
-6.8889
20
-15.0584
0
VERTEX
8
CUT
10
-6.9500
20
-15.0964
0
VERTEX
8
CUT
10
-7.0135
20
-15.1304
0
VERTEX
8
CUT
10
-7.0790
20
-15.1601
0
VERTEX
8
CUT
10
-7.1464
20
-15.1854
0
VERTEX
8
CUT
10
-7.2153
20
-15.2063
0
VERTEX
8
CUT
10
-7.2854
20
-15.2227
0
VERTEX
8
CUT
10
-7.3564
20
-15.2344
0
VERTEX
8
CUT
10
-7.4281
20
-15.2414
0
VERTEX
8
CUT
10
-7.5000
20
-15.2438
0
SEQEND
0
POLYLINE
8
CUT
66
1
70
1
0
VERTEX
8
CUT
10
16.9281
20
-20.1476
0
VERTEX
8
CUT
10
16.8564
20
-20.1406
0
VERTEX
8
CUT
10
16.7854
20
-20.1289
0
VERTEX
8
CUT
10
16.7153
20
-20.1125
0
VERTEX
8
CUT
10
16.6464
20
-20.0916
0
VERTEX
8
CUT
10
16.5790
20
-20.0663
0
VERTEX
8
CUT
10
16.5135
20
-20.0366
0
VERTEX
8
CUT
10
16.4500
20
-20.0026
0
VERTEX
8
CUT
10
16.3889
20
-19.9646
0
VERTEX
8
CUT
10
16.3304
20
-19.9227
0
VERTEX
8
CUT
10
16.2747
20
-19.8770
0
VERTEX
8
CUT
10
16.2222
20
-19.8278
0
VERTEX
8
CUT
10
16.1730
20
-19.7753
0
VERTEX
8
CUT
10
16.1273
20
-19.7196
0
VERTEX
8
CUT
10
16.0854
20
-19.6611
0
VERTEX
8
CUT
10
16.0474
20
-19.6000
0
VERTEX
8
CUT
10
16.0134
20
-19.5365
0
VERTEX
8
CUT
10
15.9837
20
-19.4710
0
VERTEX
8
CUT
10
15.9584
20
-19.4036
0
VERTEX
8
CUT
10
15.9375
20
-19.3347
0
VERTEX
8
CUT
10
15.9211
20
-19.2646
0
VERTEX
8
CUT
10
15.9094
20
-19.1936
0
VERTEX
8
CUT
10
15.9024
20
-19.1219
0
VERTEX
8
CUT
10
15.9000
20
-19.0500
0
VERTEX
8
CUT
10
15.9024
20
-18.9781
0
VERTEX
8
CUT
10
15.9094
20
-18.9064
0
VERTEX
8
CUT
10
15.9211
20
-18.8354
0
VERTEX
8
CUT
10
15.9375
20
-18.7653
0
VERTEX
8
CUT
10
15.9584
20
-18.6964
0
VERTEX
8
CUT
10
15.9837
20
-18.6290
0
VERTEX
8
CUT
10
16.0134
20
-18.5635
0
VERTEX
8
CUT
10
16.0474
20
-18.5000
0
VERTEX
8
CUT
10
16.0854
20
-18.4389
0
VERTEX
8
CUT
10
16.1273
20
-18.3804
0
VERTEX
8
CUT
10
16.1730
20
-18.3247
0
VERTEX
8
CUT
10
16.2222
20
-18.2722
0
VERTEX
8
CUT
10
16.2747
20
-18.2230
0
VERTEX
8
CUT
10
16.3304
20
-18.1773
0
VERTEX
8
CUT
10
16.3889
20
-18.1354
0
VERTEX
8
CUT
10
16.4500
20
-18.0974
0
VERTEX
8
CUT
10
16.5135
20
-18.0634
0
VERTEX
8
CUT
10
16.5790
20
-18.0337
0
VERTEX
8
CUT
10
16.6464
20
-18.0084
0
VERTEX
8
CUT
10
16.7153
20
-17.9875
0
VERTEX
8
CUT
10
16.7854
20
-17.9711
0
VERTEX
8
CUT
10
16.8564
20
-17.9594
0
VERTEX
8
CUT
10
16.9281
20
-17.9524
0
VERTEX
8
CUT
10
17.0000
20
-17.9500
0
VERTEX
8
CUT
10
17.0719
20
-17.9524
0
VERTEX
8
CUT
10
17.1436
20
-17.9594
0
VERTEX
8
CUT
10
17.2146
20
-17.9711
0
VERTEX
8
CUT
10
17.2847
20
-17.9875
0
VERTEX
8
CUT
10
17.3536
20
-18.0084
0
VERTEX
8
CUT
10
17.4210
20
-18.0337
0
VERTEX
8
CUT
10
17.4865
20
-18.0634
0
VERTEX
8
CUT
10
17.5500
20
-18.0974
0
VERTEX
8
CUT
10
17.6111
20
-18.1354
0
VERTEX
8
CUT
10
17.6696
20
-18.1773
0
VERTEX
8
CUT
10
17.7253
20
-18.2230
0
VERTEX
8
CUT
10
17.7778
20
-18.2722
0
VERTEX
8
CUT
10
17.8270
20
-18.3247
0
VERTEX
8
CUT
10
17.8727
20
-18.3804
0
VERTEX
8
CUT
10
17.9146
20
-18.4389
0
VERTEX
8
CUT
10
17.9526
20
-18.5000
0
VERTEX
8
CUT
10
17.9866
20
-18.5635
0
VERTEX
8
CUT
10
18.0163
20
-18.6290
0
VERTEX
8
CUT
10
18.0416
20
-18.6964
0
VERTEX
8
CUT
10
18.0625
20
-18.7653
0
VERTEX
8
CUT
10
18.0789
20
-18.8354
0
VERTEX
8
CUT
10
18.0906
20
-18.9064
0
VERTEX
8
CUT
10
18.0976
20
-18.9781
0
VERTEX
8
CUT
10
18.1000
20
-19.0500
0
VERTEX
8
CUT
10
18.0976
20
-19.1219
0
VERTEX
8
CUT
10
18.0906
20
-19.1936
0
VERTEX
8
CUT
10
18.0789
20
-19.2646
0
VERTEX
8
CUT
10
18.0625
20
-19.3347
0
VERTEX
8
CUT
10
18.0416
20
-19.4036
0
VERTEX
8
CUT
10
18.0163
20
-19.4710
0
VERTEX
8
CUT
10
17.9866
20
-19.5365
0
VERTEX
8
CUT
10
17.9526
20
-19.6000
0
VERTEX
8
CUT
10
17.9146
20
-19.6611
0
VERTEX
8
CUT
10
17.8727
20
-19.7196
0
VERTEX
8
CUT
10
17.8270
20
-19.7753
0
VERTEX
8
CUT
10
17.7778
20
-19.8278
0
VERTEX
8
CUT
10
17.7253
20
-19.8770
0
VERTEX
8
CUT
10
17.6696
20
-19.9227
0
VERTEX
8
CUT
10
17.6111
20
-19.9646
0
VERTEX
8
CUT
10
17.5500
20
-20.0026
0
VERTEX
8
CUT
10
17.4865
20
-20.0366
0
VERTEX
8
CUT
10
17.4210
20
-20.0663
0
VERTEX
8
CUT
10
17.3536
20
-20.0916
0
VERTEX
8
CUT
10
17.2847
20
-20.1125
0
VERTEX
8
CUT
10
17.2146
20
-20.1289
0
VERTEX
8
CUT
10
17.1436
20
-20.1406
0
VERTEX
8
CUT
10
17.0719
20
-20.1476
0
VERTEX
8
CUT
10
17.0000
20
-20.1500
0
SEQEND
0
POLYLINE
8
CUT
66
1
70
1
0
VERTEX
8
CUT
10
62.4281
20
-20.1476
0
VERTEX
8
CUT
10
62.3564
20
-20.1406
0
VERTEX
8
CUT
10
62.2854
20
-20.1289
0
VERTEX
8
CUT
10
62.2153
20
-20.1125
0
VERTEX
8
CUT
10
62.1464
20
-20.0916
0
VERTEX
8
CUT
10
62.0790
20
-20.0663
0
VERTEX
8
CUT
10
62.0135
20
-20.0366
0
VERTEX
8
CUT
10
61.9500
20
-20.0026
0
VERTEX
8
CUT
10
61.8889
20
-19.9646
0
VERTEX
8
CUT
10
61.8304
20
-19.9227
0
VERTEX
8
CUT
10
61.7747
20
-19.8770
0
VERTEX
8
CUT
10
61.7222
20
-19.8278
0
VERTEX
8
CUT
10
61.6730
20
-19.7753
0
VERTEX
8
CUT
10
61.6273
20
-19.7196
0
VERTEX
8
CUT
10
61.5854
20
-19.6611
0
VERTEX
8
CUT
10
61.5474
20
-19.6000
0
VERTEX
8
CUT
10
61.5134
20
-19.5365
0
VERTEX
8
CUT
10
61.4837
20
-19.4710
0
VERTEX
8
CUT
10
61.4584
20
-19.4036
0
VERTEX
8
CUT
10
61.4375
20
-19.3347
0
VERTEX
8
CUT
10
61.4211
20
-19.2646
0
VERTEX
8
CUT
10
61.4094
20
-19.1936
0
VERTEX
8
CUT
10
61.4024
20
-19.1219
0
VERTEX
8
CUT
10
61.4000
20
-19.0500
0
VERTEX
8
CUT
10
61.4024
20
-18.9781
0
VERTEX
8
CUT
10
61.4094
20
-18.9064
0
VERTEX
8
CUT
10
61.4211
20
-18.8354
0
VERTEX
8
CUT
10
61.4375
20
-18.7653
0
VERTEX
8
CUT
10
61.4584
20
-18.6964
0
VERTEX
8
CUT
10
61.4837
20
-18.6290
0
VERTEX
8
CUT
10
61.5134
20
-18.5635
0
VERTEX
8
CUT
10
61.5474
20
-18.5000
0
VERTEX
8
CUT
10
61.5854
20
-18.4389
0
VERTEX
8
CUT
10
61.6273
20
-18.3804
0
VERTEX
8
CUT
10
61.6730
20
-18.3247
0
VERTEX
8
CUT
10
61.7222
20
-18.2722
0
VERTEX
8
CUT
10
61.7747
20
-18.2230
0
VERTEX
8
CUT
10
61.8304
20
-18.1773
0
VERTEX
8
CUT
10
61.8889
20
-18.1354
0
VERTEX
8
CUT
10
61.9500
20
-18.0974
0
VERTEX
8
CUT
10
62.0135
20
-18.0634
0
VERTEX
8
CUT
10
62.0790
20
-18.0337
0
VERTEX
8
CUT
10
62.1464
20
-18.0084
0
VERTEX
8
CUT
10
62.2153
20
-17.9875
0
VERTEX
8
CUT
10
62.2854
20
-17.9711
0
VERTEX
8
CUT
10
62.3564
20
-17.9594
0
VERTEX
8
CUT
10
62.4281
20
-17.9524
0
VERTEX
8
CUT
10
62.5000
20
-17.9500
0
VERTEX
8
CUT
10
62.5719
20
-17.9524
0
VERTEX
8
CUT
10
62.6436
20
-17.9594
0
VERTEX
8
CUT
10
62.7146
20
-17.9711
0
VERTEX
8
CUT
10
62.7847
20
-17.9875
0
VERTEX
8
CUT
10
62.8536
20
-18.0084
0
VERTEX
8
CUT
10
62.9210
20
-18.0337
0
VERTEX
8
CUT
10
62.9865
20
-18.0634
0
VERTEX
8
CUT
10
63.0500
20
-18.0974
0
VERTEX
8
CUT
10
63.1111
20
-18.1354
0
VERTEX
8
CUT
10
63.1696
20
-18.1773
0
VERTEX
8
CUT
10
63.2253
20
-18.2230
0
VERTEX
8
CUT
10
63.2778
20
-18.2722
0
VERTEX
8
CUT
10
63.3270
20
-18.3247
0
VERTEX
8
CUT
10
63.3727
20
-18.3804
0
VERTEX
8
CUT
10
63.4146
20
-18.4389
0
VERTEX
8
CUT
10
63.4526
20
-18.5000
0
VERTEX
8
CUT
10
63.4866
20
-18.5635
0
VERTEX
8
CUT
10
63.5163
20
-18.6290
0
VERTEX
8
CUT
10
63.5416
20
-18.6964
0
VERTEX
8
CUT
10
63.5625
20
-18.7653
0
VERTEX
8
CUT
10
63.5789
20
-18.8354
0
VERTEX
8
CUT
10
63.5906
20
-18.9064
0
VERTEX
8
CUT
10
63.5976
20
-18.9781
0
VERTEX
8
CUT
10
63.6000
20
-19.0500
0
VERTEX
8
CUT
10
63.5976
20
-19.1219
0
VERTEX
8
CUT
10
63.5906
20
-19.1936
0
VERTEX
8
CUT
10
63.5789
20
-19.2646
0
VERTEX
8
CUT
10
63.5625
20
-19.3347
0
VERTEX
8
CUT
10
63.5416
20
-19.4036
0
VERTEX
8
CUT
10
63.5163
20
-19.4710
0
VERTEX
8
CUT
10
63.4866
20
-19.5365
0
VERTEX
8
CUT
10
63.4526
20
-19.6000
0
VERTEX
8
CUT
10
63.4146
20
-19.6611
0
VERTEX
8
CUT
10
63.3727
20
-19.7196
0
VERTEX
8
CUT
10
63.3270
20
-19.7753
0
VERTEX
8
CUT
10
63.2778
20
-19.8278
0
VERTEX
8
CUT
10
63.2253
20
-19.8770
0
VERTEX
8
CUT
10
63.1696
20
-19.9227
0
VERTEX
8
CUT
10
63.1111
20
-19.9646
0
VERTEX
8
CUT
10
63.0500
20
-20.0026
0
VERTEX
8
CUT
10
62.9865
20
-20.0366
0
VERTEX
8
CUT
10
62.9210
20
-20.0663
0
VERTEX
8
CUT
10
62.8536
20
-20.0916
0
VERTEX
8
CUT
10
62.7847
20
-20.1125
0
VERTEX
8
CUT
10
62.7146
20
-20.1289
0
VERTEX
8
CUT
10
62.6436
20
-20.1406
0
VERTEX
8
CUT
10
62.5719
20
-20.1476
0
VERTEX
8
CUT
10
62.5000
20
-20.1500
0
SEQEND
0
POLYLINE
8
CUT
66
1
70
1
0
VERTEX
8
CUT
10
106.9281
20
-20.1476
0
VERTEX
8
CUT
10
106.8564
20
-20.1406
0
VERTEX
8
CUT
10
106.7854
20
-20.1289
0
VERTEX
8
CUT
10
106.7153
20
-20.1125
0
VERTEX
8
CUT
10
106.6464
20
-20.0916
0
VERTEX
8
CUT
10
106.5790
20
-20.0663
0
VERTEX
8
CUT
10
106.5135
20
-20.0366
0
VERTEX
8
CUT
10
106.4500
20
-20.0026
0
VERTEX
8
CUT
10
106.3889
20
-19.9646
0
VERTEX
8
CUT
10
106.3304
20
-19.9227
0
VERTEX
8
CUT
10
106.2747
20
-19.8770
0
VERTEX
8
CUT
10
106.2222
20
-19.8278
0
VERTEX
8
CUT
10
106.1730
20
-19.7753
0
VERTEX
8
CUT
10
106.1273
20
-19.7196
0
VERTEX
8
CUT
10
106.0854
20
-19.6611
0
VERTEX
8
CUT
10
106.0474
20
-19.6000
0
VERTEX
8
CUT
10
106.0134
20
-19.5365
0
VERTEX
8
CUT
10
105.9837
20
-19.4710
0
VERTEX
8
CUT
10
105.9584
20
-19.4036
0
VERTEX
8
CUT
10
105.9375
20
-19.3347
0
VERTEX
8
CUT
10
105.9211
20
-19.2646
0
VERTEX
8
CUT
10
105.9094
20
-19.1936
0
VERTEX
8
CUT
10
105.9024
20
-19.1219
0
VERTEX
8
CUT
10
105.9000
20
-19.0500
0
VERTEX
8
CUT
10
105.9024
20
-18.9781
0
VERTEX
8
CUT
10
105.9094
20
-18.9064
0
VERTEX
8
CUT
10
105.9211
20
-18.8354
0
VERTEX
8
CUT
10
105.9375
20
-18.7653
0
VERTEX
8
CUT
10
105.9584
20
-18.6964
0
VERTEX
8
CUT
10
105.9837
20
-18.6290
0
VERTEX
8
CUT
10
106.0134
20
-18.5635
0
VERTEX
8
CUT
10
106.0474
20
-18.5000
0
VERTEX
8
CUT
10
106.0854
20
-18.4389
0
VERTEX
8
CUT
10
106.1273
20
-18.3804
0
VERTEX
8
CUT
10
106.1730
20
-18.3247
0
VERTEX
8
CUT
10
106.2222
20
-18.2722
0
VERTEX
8
CUT
10
106.2747
20
-18.2230
0
VERTEX
8
CUT
10
106.3304
20
-18.1773
0
VERTEX
8
CUT
10
106.3889
20
-18.1354
0
VERTEX
8
CUT
10
106.4500
20
-18.0974
0
VERTEX
8
CUT
10
106.5135
20
-18.0634
0
VERTEX
8
CUT
10
106.5790
20
-18.0337
0
VERTEX
8
CUT
10
106.6464
20
-18.0084
0
VERTEX
8
CUT
10
106.7153
20
-17.9875
0
VERTEX
8
CUT
10
106.7854
20
-17.9711
0
VERTEX
8
CUT
10
106.8564
20
-17.9594
0
VERTEX
8
CUT
10
106.9281
20
-17.9524
0
VERTEX
8
CUT
10
107.0000
20
-17.9500
0
VERTEX
8
CUT
10
107.0719
20
-17.9524
0
VERTEX
8
CUT
10
107.1436
20
-17.9594
0
VERTEX
8
CUT
10
107.2146
20
-17.9711
0
VERTEX
8
CUT
10
107.2847
20
-17.9875
0
VERTEX
8
CUT
10
107.3536
20
-18.0084
0
VERTEX
8
CUT
10
107.4210
20
-18.0337
0
VERTEX
8
CUT
10
107.4865
20
-18.0634
0
VERTEX
8
CUT
10
107.5500
20
-18.0974
0
VERTEX
8
CUT
10
107.6111
20
-18.1354
0
VERTEX
8
CUT
10
107.6696
20
-18.1773
0
VERTEX
8
CUT
10
107.7253
20
-18.2230
0
VERTEX
8
CUT
10
107.7778
20
-18.2722
0
VERTEX
8
CUT
10
107.8270
20
-18.3247
0
VERTEX
8
CUT
10
107.8727
20
-18.3804
0
VERTEX
8
CUT
10
107.9146
20
-18.4389
0
VERTEX
8
CUT
10
107.9526
20
-18.5000
0
VERTEX
8
CUT
10
107.9866
20
-18.5635
0
VERTEX
8
CUT
10
108.0163
20
-18.6290
0
VERTEX
8
CUT
10
108.0416
20
-18.6964
0
VERTEX
8
CUT
10
108.0625
20
-18.7653
0
VERTEX
8
CUT
10
108.0789
20
-18.8354
0
VERTEX
8
CUT
10
108.0906
20
-18.9064
0
VERTEX
8
CUT
10
108.0976
20
-18.9781
0
VERTEX
8
CUT
10
108.1000
20
-19.0500
0
VERTEX
8
CUT
10
108.0976
20
-19.1219
0
VERTEX
8
CUT
10
108.0906
20
-19.1936
0
VERTEX
8
CUT
10
108.0789
20
-19.2646
0
VERTEX
8
CUT
10
108.0625
20
-19.3347
0
VERTEX
8
CUT
10
108.0416
20
-19.4036
0
VERTEX
8
CUT
10
108.0163
20
-19.4710
0
VERTEX
8
CUT
10
107.9866
20
-19.5365
0
VERTEX
8
CUT
10
107.9526
20
-19.6000
0
VERTEX
8
CUT
10
107.9146
20
-19.6611
0
VERTEX
8
CUT
10
107.8727
20
-19.7196
0
VERTEX
8
CUT
10
107.8270
20
-19.7753
0
VERTEX
8
CUT
10
107.7778
20
-19.8278
0
VERTEX
8
CUT
10
107.7253
20
-19.8770
0
VERTEX
8
CUT
10
107.6696
20
-19.9227
0
VERTEX
8
CUT
10
107.6111
20
-19.9646
0
VERTEX
8
CUT
10
107.5500
20
-20.0026
0
VERTEX
8
CUT
10
107.4865
20
-20.0366
0
VERTEX
8
CUT
10
107.4210
20
-20.0663
0
VERTEX
8
CUT
10
107.3536
20
-20.0916
0
VERTEX
8
CUT
10
107.2847
20
-20.1125
0
VERTEX
8
CUT
10
107.2146
20
-20.1289
0
VERTEX
8
CUT
10
107.1436
20
-20.1406
0
VERTEX
8
CUT
10
107.0719
20
-20.1476
0
VERTEX
8
CUT
10
107.0000
20
-20.1500
0
SEQEND
0
POLYLINE
8
CUT
66
1
70
1
0
VERTEX
8
CUT
10
153.4281
20
-20.1476
0
VERTEX
8
CUT
10
153.3564
20
-20.1406
0
VERTEX
8
CUT
10
153.2854
20
-20.1289
0
VERTEX
8
CUT
10
153.2153
20
-20.1125
0
VERTEX
8
CUT
10
153.1464
20
-20.0916
0
VERTEX
8
CUT
10
153.0790
20
-20.0663
0
VERTEX
8
CUT
10
153.0135
20
-20.0366
0
VERTEX
8
CUT
10
152.9500
20
-20.0026
0
VERTEX
8
CUT
10
152.8889
20
-19.9646
0
VERTEX
8
CUT
10
152.8304
20
-19.9227
0
VERTEX
8
CUT
10
152.7747
20
-19.8770
0
VERTEX
8
CUT
10
152.7222
20
-19.8278
0
VERTEX
8
CUT
10
152.6730
20
-19.7753
0
VERTEX
8
CUT
10
152.6273
20
-19.7196
0
VERTEX
8
CUT
10
152.5854
20
-19.6611
0
VERTEX
8
CUT
10
152.5474
20
-19.6000
0
VERTEX
8
CUT
10
152.5134
20
-19.5365
0
VERTEX
8
CUT
10
152.4837
20
-19.4710
0
VERTEX
8
CUT
10
152.4584
20
-19.4036
0
VERTEX
8
CUT
10
152.4375
20
-19.3347
0
VERTEX
8
CUT
10
152.4211
20
-19.2646
0
VERTEX
8
CUT
10
152.4094
20
-19.1936
0
VERTEX
8
CUT
10
152.4024
20
-19.1219
0
VERTEX
8
CUT
10
152.4000
20
-19.0500
0
VERTEX
8
CUT
10
152.4024
20
-18.9781
0
VERTEX
8
CUT
10
152.4094
20
-18.9064
0
VERTEX
8
CUT
10
152.4211
20
-18.8354
0
VERTEX
8
CUT
10
152.4375
20
-18.7653
0
VERTEX
8
CUT
10
152.4584
20
-18.6964
0
VERTEX
8
CUT
10
152.4837
20
-18.6290
0
VERTEX
8
CUT
10
152.5134
20
-18.5635
0
VERTEX
8
CUT
10
152.5474
20
-18.5000
0
VERTEX
8
CUT
10
152.5854
20
-18.4389
0
VERTEX
8
CUT
10
152.6273
20
-18.3804
0
VERTEX
8
CUT
10
152.6730
20
-18.3247
0
VERTEX
8
CUT
10
152.7222
20
-18.2722
0
VERTEX
8
CUT
10
152.7747
20
-18.2230
0
VERTEX
8
CUT
10
152.8304
20
-18.1773
0
VERTEX
8
CUT
10
152.8889
20
-18.1354
0
VERTEX
8
CUT
10
152.9500
20
-18.0974
0
VERTEX
8
CUT
10
153.0135
20
-18.0634
0
VERTEX
8
CUT
10
153.0790
20
-18.0337
0
VERTEX
8
CUT
10
153.1464
20
-18.0084
0
VERTEX
8
CUT
10
153.2153
20
-17.9875
0
VERTEX
8
CUT
10
153.2854
20
-17.9711
0
VERTEX
8
CUT
10
153.3564
20
-17.9594
0
VERTEX
8
CUT
10
153.4281
20
-17.9524
0
VERTEX
8
CUT
10
153.5000
20
-17.9500
0
VERTEX
8
CUT
10
153.5719
20
-17.9524
0
VERTEX
8
CUT
10
153.6436
20
-17.9594
0
VERTEX
8
CUT
10
153.7146
20
-17.9711
0
VERTEX
8
CUT
10
153.7847
20
-17.9875
0
VERTEX
8
CUT
10
153.8536
20
-18.0084
0
VERTEX
8
CUT
10
153.9210
20
-18.0337
0
VERTEX
8
CUT
10
153.9865
20
-18.0634
0
VERTEX
8
CUT
10
154.0500
20
-18.0974
0
VERTEX
8
CUT
10
154.1111
20
-18.1354
0
VERTEX
8
CUT
10
154.1696
20
-18.1773
0
VERTEX
8
CUT
10
154.2253
20
-18.2230
0
VERTEX
8
CUT
10
154.2778
20
-18.2722
0
VERTEX
8
CUT
10
154.3270
20
-18.3247
0
VERTEX
8
CUT
10
154.3727
20
-18.3804
0
VERTEX
8
CUT
10
154.4146
20
-18.4389
0
VERTEX
8
CUT
10
154.4526
20
-18.5000
0
VERTEX
8
CUT
10
154.4866
20
-18.5635
0
VERTEX
8
CUT
10
154.5163
20
-18.6290
0
VERTEX
8
CUT
10
154.5416
20
-18.6964
0
VERTEX
8
CUT
10
154.5625
20
-18.7653
0
VERTEX
8
CUT
10
154.5789
20
-18.8354
0
VERTEX
8
CUT
10
154.5906
20
-18.9064
0
VERTEX
8
CUT
10
154.5976
20
-18.9781
0
VERTEX
8
CUT
10
154.6000
20
-19.0500
0
VERTEX
8
CUT
10
154.5976
20
-19.1219
0
VERTEX
8
CUT
10
154.5906
20
-19.1936
0
VERTEX
8
CUT
10
154.5789
20
-19.2646
0
VERTEX
8
CUT
10
154.5625
20
-19.3347
0
VERTEX
8
CUT
10
154.5416
20
-19.4036
0
VERTEX
8
CUT
10
154.5163
20
-19.4710
0
VERTEX
8
CUT
10
154.4866
20
-19.5365
0
VERTEX
8
CUT
10
154.4526
20
-19.6000
0
VERTEX
8
CUT
10
154.4146
20
-19.6611
0
VERTEX
8
CUT
10
154.3727
20
-19.7196
0
VERTEX
8
CUT
10
154.3270
20
-19.7753
0
VERTEX
8
CUT
10
154.2778
20
-19.8278
0
VERTEX
8
CUT
10
154.2253
20
-19.8770
0
VERTEX
8
CUT
10
154.1696
20
-19.9227
0
VERTEX
8
CUT
10
154.1111
20
-19.9646
0
VERTEX
8
CUT
10
154.0500
20
-20.0026
0
VERTEX
8
CUT
10
153.9865
20
-20.0366
0
VERTEX
8
CUT
10
153.9210
20
-20.0663
0
VERTEX
8
CUT
10
153.8536
20
-20.0916
0
VERTEX
8
CUT
10
153.7847
20
-20.1125
0
VERTEX
8
CUT
10
153.7146
20
-20.1289
0
VERTEX
8
CUT
10
153.6436
20
-20.1406
0
VERTEX
8
CUT
10
153.5719
20
-20.1476
0
VERTEX
8
CUT
10
153.5000
20
-20.1500
0
SEQEND
0
POLYLINE
8
CUT
66
1
70
1
0
VERTEX
8
CUT
10
147.4644
20
-37.4468
0
VERTEX
8
CUT
10
147.3667
20
-37.4372
0
VERTEX
8
CUT
10
147.2699
20
-37.4212
0
VERTEX
8
CUT
10
147.1743
20
-37.3989
0
VERTEX
8
CUT
10
147.0803
20
-37.3704
0
VERTEX
8
CUT
10
146.9885
20
-37.3358
0
VERTEX
8
CUT
10
146.8991
20
-37.2953
0
VERTEX
8
CUT
10
146.8125
20
-37.2490
0
VERTEX
8
CUT
10
146.7291
20
-37.1972
0
VERTEX
8
CUT
10
146.6494
20
-37.1400
0
VERTEX
8
CUT
10
146.5735
20
-37.0778
0
VERTEX
8
CUT
10
146.5018
20
-37.0107
0
VERTEX
8
CUT
10
146.4347
20
-36.9390
0
VERTEX
8
CUT
10
146.3725
20
-36.8631
0
VERTEX
8
CUT
10
146.3153
20
-36.7834
0
VERTEX
8
CUT
10
146.2635
20
-36.7000
0
VERTEX
8
CUT
10
146.2172
20
-36.6134
0
VERTEX
8
CUT
10
146.1767
20
-36.5240
0
VERTEX
8
CUT
10
146.1421
20
-36.4322
0
VERTEX
8
CUT
10
146.1136
20
-36.3382
0
VERTEX
8
CUT
10
146.0913
20
-36.2426
0
VERTEX
8
CUT
10
146.0753
20
-36.1458
0
VERTEX
8
CUT
10
146.0657
20
-36.0481
0
VERTEX
8
CUT
10
146.0625
20
-35.9500
0
VERTEX
8
CUT
10
146.0657
20
-35.8519
0
VERTEX
8
CUT
10
146.0753
20
-35.7542
0
VERTEX
8
CUT
10
146.0913
20
-35.6574
0
VERTEX
8
CUT
10
146.1136
20
-35.5618
0
VERTEX
8
CUT
10
146.1421
20
-35.4678
0
VERTEX
8
CUT
10
146.1767
20
-35.3760
0
VERTEX
8
CUT
10
146.2172
20
-35.2866
0
VERTEX
8
CUT
10
146.2635
20
-35.2000
0
VERTEX
8
CUT
10
146.3153
20
-35.1166
0
VERTEX
8
CUT
10
146.3725
20
-35.0369
0
VERTEX
8
CUT
10
146.4347
20
-34.9610
0
VERTEX
8
CUT
10
146.5018
20
-34.8893
0
VERTEX
8
CUT
10
146.5735
20
-34.8222
0
VERTEX
8
CUT
10
146.6494
20
-34.7600
0
VERTEX
8
CUT
10
146.7291
20
-34.7028
0
VERTEX
8
CUT
10
146.8125
20
-34.6510
0
VERTEX
8
CUT
10
146.8991
20
-34.6047
0
VERTEX
8
CUT
10
146.9885
20
-34.5642
0
VERTEX
8
CUT
10
147.0803
20
-34.5296
0
VERTEX
8
CUT
10
147.1743
20
-34.5011
0
VERTEX
8
CUT
10
147.2699
20
-34.4788
0
VERTEX
8
CUT
10
147.3667
20
-34.4628
0
VERTEX
8
CUT
10
147.4644
20
-34.4532
0
VERTEX
8
CUT
10
147.5625
20
-34.4500
0
VERTEX
8
CUT
10
147.6606
20
-34.4532
0
VERTEX
8
CUT
10
147.7583
20
-34.4628
0
VERTEX
8
CUT
10
147.8551
20
-34.4788
0
VERTEX
8
CUT
10
147.9507
20
-34.5011
0
VERTEX
8
CUT
10
148.0447
20
-34.5296
0
VERTEX
8
CUT
10
148.1365
20
-34.5642
0
VERTEX
8
CUT
10
148.2259
20
-34.6047
0
VERTEX
8
CUT
10
148.3125
20
-34.6510
0
VERTEX
8
CUT
10
148.3959
20
-34.7028
0
VERTEX
8
CUT
10
148.4756
20
-34.7600
0
VERTEX
8
CUT
10
148.5515
20
-34.8222
0
VERTEX
8
CUT
10
148.6232
20
-34.8893
0
VERTEX
8
CUT
10
148.6903
20
-34.9610
0
VERTEX
8
CUT
10
148.7525
20
-35.0369
0
VERTEX
8
CUT
10
148.8097
20
-35.1166
0
VERTEX
8
CUT
10
148.8615
20
-35.2000
0
VERTEX
8
CUT
10
148.9078
20
-35.2866
0
VERTEX
8
CUT
10
148.9483
20
-35.3760
0
VERTEX
8
CUT
10
148.9829
20
-35.4678
0
VERTEX
8
CUT
10
149.0114
20
-35.5618
0
VERTEX
8
CUT
10
149.0337
20
-35.6574
0
VERTEX
8
CUT
10
149.0497
20
-35.7542
0
VERTEX
8
CUT
10
149.0593
20
-35.8519
0
VERTEX
8
CUT
10
149.0625
20
-35.9500
0
VERTEX
8
CUT
10
149.0593
20
-36.0481
0
VERTEX
8
CUT
10
149.0497
20
-36.1458
0
VERTEX
8
CUT
10
149.0337
20
-36.2426
0
VERTEX
8
CUT
10
149.0114
20
-36.3382
0
VERTEX
8
CUT
10
148.9829
20
-36.4322
0
VERTEX
8
CUT
10
148.9483
20
-36.5240
0
VERTEX
8
CUT
10
148.9078
20
-36.6134
0
VERTEX
8
CUT
10
148.8615
20
-36.7000
0
VERTEX
8
CUT
10
148.8097
20
-36.7834
0
VERTEX
8
CUT
10
148.7525
20
-36.8631
0
VERTEX
8
CUT
10
148.6903
20
-36.9390
0
VERTEX
8
CUT
10
148.6232
20
-37.0107
0
VERTEX
8
CUT
10
148.5515
20
-37.0778
0
VERTEX
8
CUT
10
148.4756
20
-37.1400
0
VERTEX
8
CUT
10
148.3959
20
-37.1972
0
VERTEX
8
CUT
10
148.3125
20
-37.2490
0
VERTEX
8
CUT
10
148.2259
20
-37.2953
0
VERTEX
8
CUT
10
148.1365
20
-37.3358
0
VERTEX
8
CUT
10
148.0447
20
-37.3704
0
VERTEX
8
CUT
10
147.9507
20
-37.3989
0
VERTEX
8
CUT
10
147.8551
20
-37.4212
0
VERTEX
8
CUT
10
147.7583
20
-37.4372
0
VERTEX
8
CUT
10
147.6606
20
-37.4468
0
VERTEX
8
CUT
10
147.5625
20
-37.4500
0
SEQEND
0
POLYLINE
8
CUT
66
1
70
1
0
VERTEX
8
CUT
10
-7.5719
20
-55.7476
0
VERTEX
8
CUT
10
-7.6436
20
-55.7406
0
VERTEX
8
CUT
10
-7.7146
20
-55.7289
0
VERTEX
8
CUT
10
-7.7847
20
-55.7125
0
VERTEX
8
CUT
10
-7.8536
20
-55.6916
0
VERTEX
8
CUT
10
-7.9210
20
-55.6663
0
VERTEX
8
CUT
10
-7.9865
20
-55.6366
0
VERTEX
8
CUT
10
-8.0500
20
-55.6026
0
VERTEX
8
CUT
10
-8.1111
20
-55.5646
0
VERTEX
8
CUT
10
-8.1696
20
-55.5227
0
VERTEX
8
CUT
10
-8.2253
20
-55.4770
0
VERTEX
8
CUT
10
-8.2778
20
-55.4278
0
VERTEX
8
CUT
10
-8.3270
20
-55.3753
0
VERTEX
8
CUT
10
-8.3727
20
-55.3196
0
VERTEX
8
CUT
10
-8.4146
20
-55.2611
0
VERTEX
8
CUT
10
-8.4526
20
-55.2000
0
VERTEX
8
CUT
10
-8.4866
20
-55.1365
0
VERTEX
8
CUT
10
-8.5163
20
-55.0710
0
VERTEX
8
CUT
10
-8.5416
20
-55.0036
0
VERTEX
8
CUT
10
-8.5625
20
-54.9347
0
VERTEX
8
CUT
10
-8.5789
20
-54.8646
0
VERTEX
8
CUT
10
-8.5906
20
-54.7936
0
VERTEX
8
CUT
10
-8.5976
20
-54.7219
0
VERTEX
8
CUT
10
-8.6000
20
-54.6500
0
VERTEX
8
CUT
10
-8.5976
20
-54.5781
0
VERTEX
8
CUT
10
-8.5906
20
-54.5064
0
VERTEX
8
CUT
10
-8.5789
20
-54.4354
0
VERTEX
8
CUT
10
-8.5625
20
-54.3653
0
VERTEX
8
CUT
10
-8.5416
20
-54.2964
0
VERTEX
8
CUT
10
-8.5163
20
-54.2290
0
VERTEX
8
CUT
10
-8.4866
20
-54.1635
0
VERTEX
8
CUT
10
-8.4526
20
-54.1000
0
VERTEX
8
CUT
10
-8.4146
20
-54.0389
0
VERTEX
8
CUT
10
-8.3727
20
-53.9804
0
VERTEX
8
CUT
10
-8.3270
20
-53.9247
0
VERTEX
8
CUT
10
-8.2778
20
-53.8722
0
VERTEX
8
CUT
10
-8.2253
20
-53.8230
0
VERTEX
8
CUT
10
-8.1696
20
-53.7773
0
VERTEX
8
CUT
10
-8.1111
20
-53.7354
0
VERTEX
8
CUT
10
-8.0500
20
-53.6974
0
VERTEX
8
CUT
10
-7.9865
20
-53.6634
0
VERTEX
8
CUT
10
-7.9210
20
-53.6337
0
VERTEX
8
CUT
10
-7.8536
20
-53.6084
0
VERTEX
8
CUT
10
-7.7847
20
-53.5875
0
VERTEX
8
CUT
10
-7.7146
20
-53.5711
0
VERTEX
8
CUT
10
-7.6436
20
-53.5594
0
VERTEX
8
CUT
10
-7.5719
20
-53.5524
0
VERTEX
8
CUT
10
-7.5000
20
-53.5500
0
VERTEX
8
CUT
10
-7.4281
20
-53.5524
0
VERTEX
8
CUT
10
-7.3564
20
-53.5594
0
VERTEX
8
CUT
10
-7.2854
20
-53.5711
0
VERTEX
8
CUT
10
-7.2153
20
-53.5875
0
VERTEX
8
CUT
10
-7.1464
20
-53.6084
0
VERTEX
8
CUT
10
-7.0790
20
-53.6337
0
VERTEX
8
CUT
10
-7.0135
20
-53.6634
0
VERTEX
8
CUT
10
-6.9500
20
-53.6974
0
VERTEX
8
CUT
10
-6.8889
20
-53.7354
0
VERTEX
8
CUT
10
-6.8304
20
-53.7773
0
VERTEX
8
CUT
10
-6.7747
20
-53.8230
0
VERTEX
8
CUT
10
-6.7222
20
-53.8722
0
VERTEX
8
CUT
10
-6.6730
20
-53.9247
0
VERTEX
8
CUT
10
-6.6273
20
-53.9804
0
VERTEX
8
CUT
10
-6.5854
20
-54.0389
0
VERTEX
8
CUT
10
-6.5474
20
-54.1000
0
VERTEX
8
CUT
10
-6.5134
20
-54.1635
0
VERTEX
8
CUT
10
-6.4837
20
-54.2290
0
VERTEX
8
CUT
10
-6.4584
20
-54.2964
0
VERTEX
8
CUT
10
-6.4375
20
-54.3653
0
VERTEX
8
CUT
10
-6.4211
20
-54.4354
0
VERTEX
8
CUT
10
-6.4094
20
-54.5064
0
VERTEX
8
CUT
10
-6.4024
20
-54.5781
0
VERTEX
8
CUT
10
-6.4000
20
-54.6500
0
VERTEX
8
CUT
10
-6.4024
20
-54.7219
0
VERTEX
8
CUT
10
-6.4094
20
-54.7936
0
VERTEX
8
CUT
10
-6.4211
20
-54.8646
0
VERTEX
8
CUT
10
-6.4375
20
-54.9347
0
VERTEX
8
CUT
10
-6.4584
20
-55.0036
0
VERTEX
8
CUT
10
-6.4837
20
-55.0710
0
VERTEX
8
CUT
10
-6.5134
20
-55.1365
0
VERTEX
8
CUT
10
-6.5474
20
-55.2000
0
VERTEX
8
CUT
10
-6.5854
20
-55.2611
0
VERTEX
8
CUT
10
-6.6273
20
-55.3196
0
VERTEX
8
CUT
10
-6.6730
20
-55.3753
0
VERTEX
8
CUT
10
-6.7222
20
-55.4278
0
VERTEX
8
CUT
10
-6.7747
20
-55.4770
0
VERTEX
8
CUT
10
-6.8304
20
-55.5227
0
VERTEX
8
CUT
10
-6.8889
20
-55.5646
0
VERTEX
8
CUT
10
-6.9500
20
-55.6026
0
VERTEX
8
CUT
10
-7.0135
20
-55.6366
0
VERTEX
8
CUT
10
-7.0790
20
-55.6663
0
VERTEX
8
CUT
10
-7.1464
20
-55.6916
0
VERTEX
8
CUT
10
-7.2153
20
-55.7125
0
VERTEX
8
CUT
10
-7.2854
20
-55.7289
0
VERTEX
8
CUT
10
-7.3564
20
-55.7406
0
VERTEX
8
CUT
10
-7.4281
20
-55.7476
0
VERTEX
8
CUT
10
-7.5000
20
-55.7500
0
SEQEND
0
POLYLINE
8
CUT
66
1
70
1
0
VERTEX
8
CUT
10
173.9906
20
-55.7476
0
VERTEX
8
CUT
10
173.9189
20
-55.7406
0
VERTEX
8
CUT
10
173.8479
20
-55.7289
0
VERTEX
8
CUT
10
173.7778
20
-55.7125
0
VERTEX
8
CUT
10
173.7089
20
-55.6916
0
VERTEX
8
CUT
10
173.6415
20
-55.6663
0
VERTEX
8
CUT
10
173.5760
20
-55.6366
0
VERTEX
8
CUT
10
173.5125
20
-55.6026
0
VERTEX
8
CUT
10
173.4514
20
-55.5646
0
VERTEX
8
CUT
10
173.3929
20
-55.5227
0
VERTEX
8
CUT
10
173.3372
20
-55.4770
0
VERTEX
8
CUT
10
173.2847
20
-55.4278
0
VERTEX
8
CUT
10
173.2355
20
-55.3753
0
VERTEX
8
CUT
10
173.1898
20
-55.3196
0
VERTEX
8
CUT
10
173.1479
20
-55.2611
0
VERTEX
8
CUT
10
173.1099
20
-55.2000
0
VERTEX
8
CUT
10
173.0759
20
-55.1365
0
VERTEX
8
CUT
10
173.0462
20
-55.0710
0
VERTEX
8
CUT
10
173.0209
20
-55.0036
0
VERTEX
8
CUT
10
173.0000
20
-54.9347
0
VERTEX
8
CUT
10
172.9836
20
-54.8646
0
VERTEX
8
CUT
10
172.9719
20
-54.7936
0
VERTEX
8
CUT
10
172.9649
20
-54.7219
0
VERTEX
8
CUT
10
172.9625
20
-54.6500
0
VERTEX
8
CUT
10
172.9649
20
-54.5781
0
VERTEX
8
CUT
10
172.9719
20
-54.5064
0
VERTEX
8
CUT
10
172.9836
20
-54.4354
0
VERTEX
8
CUT
10
173.0000
20
-54.3653
0
VERTEX
8
CUT
10
173.0209
20
-54.2964
0
VERTEX
8
CUT
10
173.0462
20
-54.2290
0
VERTEX
8
CUT
10
173.0759
20
-54.1635
0
VERTEX
8
CUT
10
173.1099
20
-54.1000
0
VERTEX
8
CUT
10
173.1479
20
-54.0389
0
VERTEX
8
CUT
10
173.1898
20
-53.9804
0
VERTEX
8
CUT
10
173.2355
20
-53.9247
0
VERTEX
8
CUT
10
173.2847
20
-53.8722
0
VERTEX
8
CUT
10
173.3372
20
-53.8230
0
VERTEX
8
CUT
10
173.3929
20
-53.7773
0
VERTEX
8
CUT
10
173.4514
20
-53.7354
0
VERTEX
8
CUT
10
173.5125
20
-53.6974
0
VERTEX
8
CUT
10
173.5760
20
-53.6634
0
VERTEX
8
CUT
10
173.6415
20
-53.6337
0
VERTEX
8
CUT
10
173.7089
20
-53.6084
0
VERTEX
8
CUT
10
173.7778
20
-53.5875
0
VERTEX
8
CUT
10
173.8479
20
-53.5711
0
VERTEX
8
CUT
10
173.9189
20
-53.5594
0
VERTEX
8
CUT
10
173.9906
20
-53.5524
0
VERTEX
8
CUT
10
174.0625
20
-53.5500
0
VERTEX
8
CUT
10
174.1344
20
-53.5524
0
VERTEX
8
CUT
10
174.2061
20
-53.5594
0
VERTEX
8
CUT
10
174.2771
20
-53.5711
0
VERTEX
8
CUT
10
174.3472
20
-53.5875
0
VERTEX
8
CUT
10
174.4161
20
-53.6084
0
VERTEX
8
CUT
10
174.4835
20
-53.6337
0
VERTEX
8
CUT
10
174.5490
20
-53.6634
0
VERTEX
8
CUT
10
174.6125
20
-53.6974
0
VERTEX
8
CUT
10
174.6736
20
-53.7354
0
VERTEX
8
CUT
10
174.7321
20
-53.7773
0
VERTEX
8
CUT
10
174.7878
20
-53.8230
0
VERTEX
8
CUT
10
174.8403
20
-53.8722
0
VERTEX
8
CUT
10
174.8895
20
-53.9247
0
VERTEX
8
CUT
10
174.9352
20
-53.9804
0
VERTEX
8
CUT
10
174.9771
20
-54.0389
0
VERTEX
8
CUT
10
175.0151
20
-54.1000
0
VERTEX
8
CUT
10
175.0491
20
-54.1635
0
VERTEX
8
CUT
10
175.0788
20
-54.2290
0
VERTEX
8
CUT
10
175.1041
20
-54.2964
0
VERTEX
8
CUT
10
175.1250
20
-54.3653
0
VERTEX
8
CUT
10
175.1414
20
-54.4354
0
VERTEX
8
CUT
10
175.1531
20
-54.5064
0
VERTEX
8
CUT
10
175.1601
20
-54.5781
0
VERTEX
8
CUT
10
175.1625
20
-54.6500
0
VERTEX
8
CUT
10
175.1601
20
-54.7219
0
VERTEX
8
CUT
10
175.1531
20
-54.7936
0
VERTEX
8
CUT
10
175.1414
20
-54.8646
0
VERTEX
8
CUT
10
175.1250
20
-54.9347
0
VERTEX
8
CUT
10
175.1041
20
-55.0036
0
VERTEX
8
CUT
10
175.0788
20
-55.0710
0
VERTEX
8
CUT
10
175.0491
20
-55.1365
0
VERTEX
8
CUT
10
175.0151
20
-55.2000
0
VERTEX
8
CUT
10
174.9771
20
-55.2611
0
VERTEX
8
CUT
10
174.9352
20
-55.3196
0
VERTEX
8
CUT
10
174.8895
20
-55.3753
0
VERTEX
8
CUT
10
174.8403
20
-55.4278
0
VERTEX
8
CUT
10
174.7878
20
-55.4770
0
VERTEX
8
CUT
10
174.7321
20
-55.5227
0
VERTEX
8
CUT
10
174.6736
20
-55.5646
0
VERTEX
8
CUT
10
174.6125
20
-55.6026
0
VERTEX
8
CUT
10
174.5490
20
-55.6366
0
VERTEX
8
CUT
10
174.4835
20
-55.6663
0
VERTEX
8
CUT
10
174.4161
20
-55.6916
0
VERTEX
8
CUT
10
174.3472
20
-55.7125
0
VERTEX
8
CUT
10
174.2771
20
-55.7289
0
VERTEX
8
CUT
10
174.2061
20
-55.7406
0
VERTEX
8
CUT
10
174.1344
20
-55.7476
0
VERTEX
8
CUT
10
174.0625
20
-55.7500
0
SEQEND
0
POLYLINE
8
CUT
66
1
70
1
0
VERTEX
8
CUT
10
16.9281
20
-96.3476
0
VERTEX
8
CUT
10
16.8564
20
-96.3406
0
VERTEX
8
CUT
10
16.7854
20
-96.3289
0
VERTEX
8
CUT
10
16.7153
20
-96.3125
0
VERTEX
8
CUT
10
16.6464
20
-96.2916
0
VERTEX
8
CUT
10
16.5790
20
-96.2663
0
VERTEX
8
CUT
10
16.5135
20
-96.2366
0
VERTEX
8
CUT
10
16.4500
20
-96.2026
0
VERTEX
8
CUT
10
16.3889
20
-96.1646
0
VERTEX
8
CUT
10
16.3304
20
-96.1227
0
VERTEX
8
CUT
10
16.2747
20
-96.0770
0
VERTEX
8
CUT
10
16.2222
20
-96.0278
0
VERTEX
8
CUT
10
16.1730
20
-95.9753
0
VERTEX
8
CUT
10
16.1273
20
-95.9196
0
VERTEX
8
CUT
10
16.0854
20
-95.8611
0
VERTEX
8
CUT
10
16.0474
20
-95.8000
0
VERTEX
8
CUT
10
16.0134
20
-95.7365
0
VERTEX
8
CUT
10
15.9837
20
-95.6710
0
VERTEX
8
CUT
10
15.9584
20
-95.6036
0
VERTEX
8
CUT
10
15.9375
20
-95.5347
0
VERTEX
8
CUT
10
15.9211
20
-95.4646
0
VERTEX
8
CUT
10
15.9094
20
-95.3936
0
VERTEX
8
CUT
10
15.9024
20
-95.3219
0
VERTEX
8
CUT
10
15.9000
20
-95.2500
0
VERTEX
8
CUT
10
15.9024
20
-95.1781
0
VERTEX
8
CUT
10
15.9094
20
-95.1064
0
VERTEX
8
CUT
10
15.9211
20
-95.0354
0
VERTEX
8
CUT
10
15.9375
20
-94.9653
0
VERTEX
8
CUT
10
15.9584
20
-94.8964
0
VERTEX
8
CUT
10
15.9837
20
-94.8290
0
VERTEX
8
CUT
10
16.0134
20
-94.7635
0
VERTEX
8
CUT
10
16.0474
20
-94.7000
0
VERTEX
8
CUT
10
16.0854
20
-94.6389
0
VERTEX
8
CUT
10
16.1273
20
-94.5804
0
VERTEX
8
CUT
10
16.1730
20
-94.5247
0
VERTEX
8
CUT
10
16.2222
20
-94.4722
0
VERTEX
8
CUT
10
16.2747
20
-94.4230
0
VERTEX
8
CUT
10
16.3304
20
-94.3773
0
VERTEX
8
CUT
10
16.3889
20
-94.3354
0
VERTEX
8
CUT
10
16.4500
20
-94.2974
0
VERTEX
8
CUT
10
16.5135
20
-94.2634
0
VERTEX
8
CUT
10
16.5790
20
-94.2337
0
VERTEX
8
CUT
10
16.6464
20
-94.2084
0
VERTEX
8
CUT
10
16.7153
20
-94.1875
0
VERTEX
8
CUT
10
16.7854
20
-94.1711
0
VERTEX
8
CUT
10
16.8564
20
-94.1594
0
VERTEX
8
CUT
10
16.9281
20
-94.1524
0
VERTEX
8
CUT
10
17.0000
20
-94.1500
0
VERTEX
8
CUT
10
17.0719
20
-94.1524
0
VERTEX
8
CUT
10
17.1436
20
-94.1594
0
VERTEX
8
CUT
10
17.2146
20
-94.1711
0
VERTEX
8
CUT
10
17.2847
20
-94.1875
0
VERTEX
8
CUT
10
17.3536
20
-94.2084
0
VERTEX
8
CUT
10
17.4210
20
-94.2337
0
VERTEX
8
CUT
10
17.4865
20
-94.2634
0
VERTEX
8
CUT
10
17.5500
20
-94.2974
0
VERTEX
8
CUT
10
17.6111
20
-94.3354
0
VERTEX
8
CUT
10
17.6696
20
-94.3773
0
VERTEX
8
CUT
10
17.7253
20
-94.4230
0
VERTEX
8
CUT
10
17.7778
20
-94.4722
0
VERTEX
8
CUT
10
17.8270
20
-94.5247
0
VERTEX
8
CUT
10
17.8727
20
-94.5804
0
VERTEX
8
CUT
10
17.9146
20
-94.6389
0
VERTEX
8
CUT
10
17.9526
20
-94.7000
0
VERTEX
8
CUT
10
17.9866
20
-94.7635
0
VERTEX
8
CUT
10
18.0163
20
-94.8290
0
VERTEX
8
CUT
10
18.0416
20
-94.8964
0
VERTEX
8
CUT
10
18.0625
20
-94.9653
0
VERTEX
8
CUT
10
18.0789
20
-95.0354
0
VERTEX
8
CUT
10
18.0906
20
-95.1064
0
VERTEX
8
CUT
10
18.0976
20
-95.1781
0
VERTEX
8
CUT
10
18.1000
20
-95.2500
0
VERTEX
8
CUT
10
18.0976
20
-95.3219
0
VERTEX
8
CUT
10
18.0906
20
-95.3936
0
VERTEX
8
CUT
10
18.0789
20
-95.4646
0
VERTEX
8
CUT
10
18.0625
20
-95.5347
0
VERTEX
8
CUT
10
18.0416
20
-95.6036
0
VERTEX
8
CUT
10
18.0163
20
-95.6710
0
VERTEX
8
CUT
10
17.9866
20
-95.7365
0
VERTEX
8
CUT
10
17.9526
20
-95.8000
0
VERTEX
8
CUT
10
17.9146
20
-95.8611
0
VERTEX
8
CUT
10
17.8727
20
-95.9196
0
VERTEX
8
CUT
10
17.8270
20
-95.9753
0
VERTEX
8
CUT
10
17.7778
20
-96.0278
0
VERTEX
8
CUT
10
17.7253
20
-96.0770
0
VERTEX
8
CUT
10
17.6696
20
-96.1227
0
VERTEX
8
CUT
10
17.6111
20
-96.1646
0
VERTEX
8
CUT
10
17.5500
20
-96.2026
0
VERTEX
8
CUT
10
17.4865
20
-96.2366
0
VERTEX
8
CUT
10
17.4210
20
-96.2663
0
VERTEX
8
CUT
10
17.3536
20
-96.2916
0
VERTEX
8
CUT
10
17.2847
20
-96.3125
0
VERTEX
8
CUT
10
17.2146
20
-96.3289
0
VERTEX
8
CUT
10
17.1436
20
-96.3406
0
VERTEX
8
CUT
10
17.0719
20
-96.3476
0
VERTEX
8
CUT
10
17.0000
20
-96.3500
0
SEQEND
0
POLYLINE
8
CUT
66
1
70
1
0
VERTEX
8
CUT
10
61.4281
20
-96.3476
0
VERTEX
8
CUT
10
61.3564
20
-96.3406
0
VERTEX
8
CUT
10
61.2854
20
-96.3289
0
VERTEX
8
CUT
10
61.2153
20
-96.3125
0
VERTEX
8
CUT
10
61.1464
20
-96.2916
0
VERTEX
8
CUT
10
61.0790
20
-96.2663
0
VERTEX
8
CUT
10
61.0135
20
-96.2366
0
VERTEX
8
CUT
10
60.9500
20
-96.2026
0
VERTEX
8
CUT
10
60.8889
20
-96.1646
0
VERTEX
8
CUT
10
60.8304
20
-96.1227
0
VERTEX
8
CUT
10
60.7747
20
-96.0770
0
VERTEX
8
CUT
10
60.7222
20
-96.0278
0
VERTEX
8
CUT
10
60.6730
20
-95.9753
0
VERTEX
8
CUT
10
60.6273
20
-95.9196
0
VERTEX
8
CUT
10
60.5854
20
-95.8611
0
VERTEX
8
CUT
10
60.5474
20
-95.8000
0
VERTEX
8
CUT
10
60.5134
20
-95.7365
0
VERTEX
8
CUT
10
60.4837
20
-95.6710
0
VERTEX
8
CUT
10
60.4584
20
-95.6036
0
VERTEX
8
CUT
10
60.4375
20
-95.5347
0
VERTEX
8
CUT
10
60.4211
20
-95.4646
0
VERTEX
8
CUT
10
60.4094
20
-95.3936
0
VERTEX
8
CUT
10
60.4024
20
-95.3219
0
VERTEX
8
CUT
10
60.4000
20
-95.2500
0
VERTEX
8
CUT
10
60.4024
20
-95.1781
0
VERTEX
8
CUT
10
60.4094
20
-95.1064
0
VERTEX
8
CUT
10
60.4211
20
-95.0354
0
VERTEX
8
CUT
10
60.4375
20
-94.9653
0
VERTEX
8
CUT
10
60.4584
20
-94.8964
0
VERTEX
8
CUT
10
60.4837
20
-94.8290
0
VERTEX
8
CUT
10
60.5134
20
-94.7635
0
VERTEX
8
CUT
10
60.5474
20
-94.7000
0
VERTEX
8
CUT
10
60.5854
20
-94.6389
0
VERTEX
8
CUT
10
60.6273
20
-94.5804
0
VERTEX
8
CUT
10
60.6730
20
-94.5247
0
VERTEX
8
CUT
10
60.7222
20
-94.4722
0
VERTEX
8
CUT
10
60.7747
20
-94.4230
0
VERTEX
8
CUT
10
60.8304
20
-94.3773
0
VERTEX
8
CUT
10
60.8889
20
-94.3354
0
VERTEX
8
CUT
10
60.9500
20
-94.2974
0
VERTEX
8
CUT
10
61.0135
20
-94.2634
0
VERTEX
8
CUT
10
61.0790
20
-94.2337
0
VERTEX
8
CUT
10
61.1464
20
-94.2084
0
VERTEX
8
CUT
10
61.2153
20
-94.1875
0
VERTEX
8
CUT
10
61.2854
20
-94.1711
0
VERTEX
8
CUT
10
61.3564
20
-94.1594
0
VERTEX
8
CUT
10
61.4281
20
-94.1524
0
VERTEX
8
CUT
10
61.5000
20
-94.1500
0
VERTEX
8
CUT
10
61.5719
20
-94.1524
0
VERTEX
8
CUT
10
61.6436
20
-94.1594
0
VERTEX
8
CUT
10
61.7146
20
-94.1711
0
VERTEX
8
CUT
10
61.7847
20
-94.1875
0
VERTEX
8
CUT
10
61.8536
20
-94.2084
0
VERTEX
8
CUT
10
61.9210
20
-94.2337
0
VERTEX
8
CUT
10
61.9865
20
-94.2634
0
VERTEX
8
CUT
10
62.0500
20
-94.2974
0
VERTEX
8
CUT
10
62.1111
20
-94.3354
0
VERTEX
8
CUT
10
62.1696
20
-94.3773
0
VERTEX
8
CUT
10
62.2253
20
-94.4230
0
VERTEX
8
CUT
10
62.2778
20
-94.4722
0
VERTEX
8
CUT
10
62.3270
20
-94.5247
0
VERTEX
8
CUT
10
62.3727
20
-94.5804
0
VERTEX
8
CUT
10
62.4146
20
-94.6389
0
VERTEX
8
CUT
10
62.4526
20
-94.7000
0
VERTEX
8
CUT
10
62.4866
20
-94.7635
0
VERTEX
8
CUT
10
62.5163
20
-94.8290
0
VERTEX
8
CUT
10
62.5416
20
-94.8964
0
VERTEX
8
CUT
10
62.5625
20
-94.9653
0
VERTEX
8
CUT
10
62.5789
20
-95.0354
0
VERTEX
8
CUT
10
62.5906
20
-95.1064
0
VERTEX
8
CUT
10
62.5976
20
-95.1781
0
VERTEX
8
CUT
10
62.6000
20
-95.2500
0
VERTEX
8
CUT
10
62.5976
20
-95.3219
0
VERTEX
8
CUT
10
62.5906
20
-95.3936
0
VERTEX
8
CUT
10
62.5789
20
-95.4646
0
VERTEX
8
CUT
10
62.5625
20
-95.5347
0
VERTEX
8
CUT
10
62.5416
20
-95.6036
0
VERTEX
8
CUT
10
62.5163
20
-95.6710
0
VERTEX
8
CUT
10
62.4866
20
-95.7365
0
VERTEX
8
CUT
10
62.4526
20
-95.8000
0
VERTEX
8
CUT
10
62.4146
20
-95.8611
0
VERTEX
8
CUT
10
62.3727
20
-95.9196
0
VERTEX
8
CUT
10
62.3270
20
-95.9753
0
VERTEX
8
CUT
10
62.2778
20
-96.0278
0
VERTEX
8
CUT
10
62.2253
20
-96.0770
0
VERTEX
8
CUT
10
62.1696
20
-96.1227
0
VERTEX
8
CUT
10
62.1111
20
-96.1646
0
VERTEX
8
CUT
10
62.0500
20
-96.2026
0
VERTEX
8
CUT
10
61.9865
20
-96.2366
0
VERTEX
8
CUT
10
61.9210
20
-96.2663
0
VERTEX
8
CUT
10
61.8536
20
-96.2916
0
VERTEX
8
CUT
10
61.7847
20
-96.3125
0
VERTEX
8
CUT
10
61.7146
20
-96.3289
0
VERTEX
8
CUT
10
61.6436
20
-96.3406
0
VERTEX
8
CUT
10
61.5719
20
-96.3476
0
VERTEX
8
CUT
10
61.5000
20
-96.3500
0
SEQEND
0
POLYLINE
8
CUT
66
1
70
1
0
VERTEX
8
CUT
10
106.9281
20
-96.3476
0
VERTEX
8
CUT
10
106.8564
20
-96.3406
0
VERTEX
8
CUT
10
106.7854
20
-96.3289
0
VERTEX
8
CUT
10
106.7153
20
-96.3125
0
VERTEX
8
CUT
10
106.6464
20
-96.2916
0
VERTEX
8
CUT
10
106.5790
20
-96.2663
0
VERTEX
8
CUT
10
106.5135
20
-96.2366
0
VERTEX
8
CUT
10
106.4500
20
-96.2026
0
VERTEX
8
CUT
10
106.3889
20
-96.1646
0
VERTEX
8
CUT
10
106.3304
20
-96.1227
0
VERTEX
8
CUT
10
106.2747
20
-96.0770
0
VERTEX
8
CUT
10
106.2222
20
-96.0278
0
VERTEX
8
CUT
10
106.1730
20
-95.9753
0
VERTEX
8
CUT
10
106.1273
20
-95.9196
0
VERTEX
8
CUT
10
106.0854
20
-95.8611
0
VERTEX
8
CUT
10
106.0474
20
-95.8000
0
VERTEX
8
CUT
10
106.0134
20
-95.7365
0
VERTEX
8
CUT
10
105.9837
20
-95.6710
0
VERTEX
8
CUT
10
105.9584
20
-95.6036
0
VERTEX
8
CUT
10
105.9375
20
-95.5347
0
VERTEX
8
CUT
10
105.9211
20
-95.4646
0
VERTEX
8
CUT
10
105.9094
20
-95.3936
0
VERTEX
8
CUT
10
105.9024
20
-95.3219
0
VERTEX
8
CUT
10
105.9000
20
-95.2500
0
VERTEX
8
CUT
10
105.9024
20
-95.1781
0
VERTEX
8
CUT
10
105.9094
20
-95.1064
0
VERTEX
8
CUT
10
105.9211
20
-95.0354
0
VERTEX
8
CUT
10
105.9375
20
-94.9653
0
VERTEX
8
CUT
10
105.9584
20
-94.8964
0
VERTEX
8
CUT
10
105.9837
20
-94.8290
0
VERTEX
8
CUT
10
106.0134
20
-94.7635
0
VERTEX
8
CUT
10
106.0474
20
-94.7000
0
VERTEX
8
CUT
10
106.0854
20
-94.6389
0
VERTEX
8
CUT
10
106.1273
20
-94.5804
0
VERTEX
8
CUT
10
106.1730
20
-94.5247
0
VERTEX
8
CUT
10
106.2222
20
-94.4722
0
VERTEX
8
CUT
10
106.2747
20
-94.4230
0
VERTEX
8
CUT
10
106.3304
20
-94.3773
0
VERTEX
8
CUT
10
106.3889
20
-94.3354
0
VERTEX
8
CUT
10
106.4500
20
-94.2974
0
VERTEX
8
CUT
10
106.5135
20
-94.2634
0
VERTEX
8
CUT
10
106.5790
20
-94.2337
0
VERTEX
8
CUT
10
106.6464
20
-94.2084
0
VERTEX
8
CUT
10
106.7153
20
-94.1875
0
VERTEX
8
CUT
10
106.7854
20
-94.1711
0
VERTEX
8
CUT
10
106.8564
20
-94.1594
0
VERTEX
8
CUT
10
106.9281
20
-94.1524
0
VERTEX
8
CUT
10
107.0000
20
-94.1500
0
VERTEX
8
CUT
10
107.0719
20
-94.1524
0
VERTEX
8
CUT
10
107.1436
20
-94.1594
0
VERTEX
8
CUT
10
107.2146
20
-94.1711
0
VERTEX
8
CUT
10
107.2847
20
-94.1875
0
VERTEX
8
CUT
10
107.3536
20
-94.2084
0
VERTEX
8
CUT
10
107.4210
20
-94.2337
0
VERTEX
8
CUT
10
107.4865
20
-94.2634
0
VERTEX
8
CUT
10
107.5500
20
-94.2974
0
VERTEX
8
CUT
10
107.6111
20
-94.3354
0
VERTEX
8
CUT
10
107.6696
20
-94.3773
0
VERTEX
8
CUT
10
107.7253
20
-94.4230
0
VERTEX
8
CUT
10
107.7778
20
-94.4722
0
VERTEX
8
CUT
10
107.8270
20
-94.5247
0
VERTEX
8
CUT
10
107.8727
20
-94.5804
0
VERTEX
8
CUT
10
107.9146
20
-94.6389
0
VERTEX
8
CUT
10
107.9526
20
-94.7000
0
VERTEX
8
CUT
10
107.9866
20
-94.7635
0
VERTEX
8
CUT
10
108.0163
20
-94.8290
0
VERTEX
8
CUT
10
108.0416
20
-94.8964
0
VERTEX
8
CUT
10
108.0625
20
-94.9653
0
VERTEX
8
CUT
10
108.0789
20
-95.0354
0
VERTEX
8
CUT
10
108.0906
20
-95.1064
0
VERTEX
8
CUT
10
108.0976
20
-95.1781
0
VERTEX
8
CUT
10
108.1000
20
-95.2500
0
VERTEX
8
CUT
10
108.0976
20
-95.3219
0
VERTEX
8
CUT
10
108.0906
20
-95.3936
0
VERTEX
8
CUT
10
108.0789
20
-95.4646
0
VERTEX
8
CUT
10
108.0625
20
-95.5347
0
VERTEX
8
CUT
10
108.0416
20
-95.6036
0
VERTEX
8
CUT
10
108.0163
20
-95.6710
0
VERTEX
8
CUT
10
107.9866
20
-95.7365
0
VERTEX
8
CUT
10
107.9526
20
-95.8000
0
VERTEX
8
CUT
10
107.9146
20
-95.8611
0
VERTEX
8
CUT
10
107.8727
20
-95.9196
0
VERTEX
8
CUT
10
107.8270
20
-95.9753
0
VERTEX
8
CUT
10
107.7778
20
-96.0278
0
VERTEX
8
CUT
10
107.7253
20
-96.0770
0
VERTEX
8
CUT
10
107.6696
20
-96.1227
0
VERTEX
8
CUT
10
107.6111
20
-96.1646
0
VERTEX
8
CUT
10
107.5500
20
-96.2026
0
VERTEX
8
CUT
10
107.4865
20
-96.2366
0
VERTEX
8
CUT
10
107.4210
20
-96.2663
0
VERTEX
8
CUT
10
107.3536
20
-96.2916
0
VERTEX
8
CUT
10
107.2847
20
-96.3125
0
VERTEX
8
CUT
10
107.2146
20
-96.3289
0
VERTEX
8
CUT
10
107.1436
20
-96.3406
0
VERTEX
8
CUT
10
107.0719
20
-96.3476
0
VERTEX
8
CUT
10
107.0000
20
-96.3500
0
SEQEND
0
POLYLINE
8
CUT
66
1
70
1
0
VERTEX
8
CUT
10
152.4281
20
-96.3476
0
VERTEX
8
CUT
10
152.3564
20
-96.3406
0
VERTEX
8
CUT
10
152.2854
20
-96.3289
0
VERTEX
8
CUT
10
152.2153
20
-96.3125
0
VERTEX
8
CUT
10
152.1464
20
-96.2916
0
VERTEX
8
CUT
10
152.0790
20
-96.2663
0
VERTEX
8
CUT
10
152.0135
20
-96.2366
0
VERTEX
8
CUT
10
151.9500
20
-96.2026
0
VERTEX
8
CUT
10
151.8889
20
-96.1646
0
VERTEX
8
CUT
10
151.8304
20
-96.1227
0
VERTEX
8
CUT
10
151.7747
20
-96.0770
0
VERTEX
8
CUT
10
151.7222
20
-96.0278
0
VERTEX
8
CUT
10
151.6730
20
-95.9753
0
VERTEX
8
CUT
10
151.6273
20
-95.9196
0
VERTEX
8
CUT
10
151.5854
20
-95.8611
0
VERTEX
8
CUT
10
151.5474
20
-95.8000
0
VERTEX
8
CUT
10
151.5134
20
-95.7365
0
VERTEX
8
CUT
10
151.4837
20
-95.6710
0
VERTEX
8
CUT
10
151.4584
20
-95.6036
0
VERTEX
8
CUT
10
151.4375
20
-95.5347
0
VERTEX
8
CUT
10
151.4211
20
-95.4646
0
VERTEX
8
CUT
10
151.4094
20
-95.3936
0
VERTEX
8
CUT
10
151.4024
20
-95.3219
0
VERTEX
8
CUT
10
151.4000
20
-95.2500
0
VERTEX
8
CUT
10
151.4024
20
-95.1781
0
VERTEX
8
CUT
10
151.4094
20
-95.1064
0
VERTEX
8
CUT
10
151.4211
20
-95.0354
0
VERTEX
8
CUT
10
151.4375
20
-94.9653
0
VERTEX
8
CUT
10
151.4584
20
-94.8964
0
VERTEX
8
CUT
10
151.4837
20
-94.8290
0
VERTEX
8
CUT
10
151.5134
20
-94.7635
0
VERTEX
8
CUT
10
151.5474
20
-94.7000
0
VERTEX
8
CUT
10
151.5854
20
-94.6389
0
VERTEX
8
CUT
10
151.6273
20
-94.5804
0
VERTEX
8
CUT
10
151.6730
20
-94.5247
0
VERTEX
8
CUT
10
151.7222
20
-94.4722
0
VERTEX
8
CUT
10
151.7747
20
-94.4230
0
VERTEX
8
CUT
10
151.8304
20
-94.3773
0
VERTEX
8
CUT
10
151.8889
20
-94.3354
0
VERTEX
8
CUT
10
151.9500
20
-94.2974
0
VERTEX
8
CUT
10
152.0135
20
-94.2634
0
VERTEX
8
CUT
10
152.0790
20
-94.2337
0
VERTEX
8
CUT
10
152.1464
20
-94.2084
0
VERTEX
8
CUT
10
152.2153
20
-94.1875
0
VERTEX
8
CUT
10
152.2854
20
-94.1711
0
VERTEX
8
CUT
10
152.3564
20
-94.1594
0
VERTEX
8
CUT
10
152.4281
20
-94.1524
0
VERTEX
8
CUT
10
152.5000
20
-94.1500
0
VERTEX
8
CUT
10
152.5719
20
-94.1524
0
VERTEX
8
CUT
10
152.6436
20
-94.1594
0
VERTEX
8
CUT
10
152.7146
20
-94.1711
0
VERTEX
8
CUT
10
152.7847
20
-94.1875
0
VERTEX
8
CUT
10
152.8536
20
-94.2084
0
VERTEX
8
CUT
10
152.9210
20
-94.2337
0
VERTEX
8
CUT
10
152.9865
20
-94.2634
0
VERTEX
8
CUT
10
153.0500
20
-94.2974
0
VERTEX
8
CUT
10
153.1111
20
-94.3354
0
VERTEX
8
CUT
10
153.1696
20
-94.3773
0
VERTEX
8
CUT
10
153.2253
20
-94.4230
0
VERTEX
8
CUT
10
153.2778
20
-94.4722
0
VERTEX
8
CUT
10
153.3270
20
-94.5247
0
VERTEX
8
CUT
10
153.3727
20
-94.5804
0
VERTEX
8
CUT
10
153.4146
20
-94.6389
0
VERTEX
8
CUT
10
153.4526
20
-94.7000
0
VERTEX
8
CUT
10
153.4866
20
-94.7635
0
VERTEX
8
CUT
10
153.5163
20
-94.8290
0
VERTEX
8
CUT
10
153.5416
20
-94.8964
0
VERTEX
8
CUT
10
153.5625
20
-94.9653
0
VERTEX
8
CUT
10
153.5789
20
-95.0354
0
VERTEX
8
CUT
10
153.5906
20
-95.1064
0
VERTEX
8
CUT
10
153.5976
20
-95.1781
0
VERTEX
8
CUT
10
153.6000
20
-95.2500
0
VERTEX
8
CUT
10
153.5976
20
-95.3219
0
VERTEX
8
CUT
10
153.5906
20
-95.3936
0
VERTEX
8
CUT
10
153.5789
20
-95.4646
0
VERTEX
8
CUT
10
153.5625
20
-95.5347
0
VERTEX
8
CUT
10
153.5416
20
-95.6036
0
VERTEX
8
CUT
10
153.5163
20
-95.6710
0
VERTEX
8
CUT
10
153.4866
20
-95.7365
0
VERTEX
8
CUT
10
153.4526
20
-95.8000
0
VERTEX
8
CUT
10
153.4146
20
-95.8611
0
VERTEX
8
CUT
10
153.3727
20
-95.9196
0
VERTEX
8
CUT
10
153.3270
20
-95.9753
0
VERTEX
8
CUT
10
153.2778
20
-96.0278
0
VERTEX
8
CUT
10
153.2253
20
-96.0770
0
VERTEX
8
CUT
10
153.1696
20
-96.1227
0
VERTEX
8
CUT
10
153.1111
20
-96.1646
0
VERTEX
8
CUT
10
153.0500
20
-96.2026
0
VERTEX
8
CUT
10
152.9865
20
-96.2366
0
VERTEX
8
CUT
10
152.9210
20
-96.2663
0
VERTEX
8
CUT
10
152.8536
20
-96.2916
0
VERTEX
8
CUT
10
152.7847
20
-96.3125
0
VERTEX
8
CUT
10
152.7146
20
-96.3289
0
VERTEX
8
CUT
10
152.6436
20
-96.3406
0
VERTEX
8
CUT
10
152.5719
20
-96.3476
0
VERTEX
8
CUT
10
152.5000
20
-96.3500
0
SEQEND
0
POLYLINE
8
CUT
66
1
70
1
0
VERTEX
8
CUT
10
-5.0824
20
-120.4081
0
VERTEX
8
CUT
10
-5.1540
20
-120.4010
0
VERTEX
8
CUT
10
-5.2250
20
-120.3893
0
VERTEX
8
CUT
10
-5.2951
20
-120.3729
0
VERTEX
8
CUT
10
-5.3640
20
-120.3520
0
VERTEX
8
CUT
10
-5.4314
20
-120.3267
0
VERTEX
8
CUT
10
-5.4969
20
-120.2970
0
VERTEX
8
CUT
10
-5.5604
20
-120.2630
0
VERTEX
8
CUT
10
-5.6215
20
-120.2250
0
VERTEX
8
CUT
10
-5.6800
20
-120.1831
0
VERTEX
8
CUT
10
-5.7357
20
-120.1374
0
VERTEX
8
CUT
10
-5.7882
20
-120.0882
0
VERTEX
8
CUT
10
-5.8374
20
-120.0357
0
VERTEX
8
CUT
10
-5.8831
20
-119.9800
0
VERTEX
8
CUT
10
-5.9250
20
-119.9215
0
VERTEX
8
CUT
10
-5.9630
20
-119.8604
0
VERTEX
8
CUT
10
-5.9970
20
-119.7969
0
VERTEX
8
CUT
10
-6.0267
20
-119.7314
0
VERTEX
8
CUT
10
-6.0520
20
-119.6640
0
VERTEX
8
CUT
10
-6.0729
20
-119.5951
0
VERTEX
8
CUT
10
-6.0893
20
-119.5250
0
VERTEX
8
CUT
10
-6.1010
20
-119.4540
0
VERTEX
8
CUT
10
-6.1081
20
-119.3824
0
VERTEX
8
CUT
10
-6.1104
20
-119.3104
0
VERTEX
8
CUT
10
-6.1081
20
-119.2385
0
VERTEX
8
CUT
10
-6.1010
20
-119.1668
0
VERTEX
8
CUT
10
-6.0893
20
-119.0958
0
VERTEX
8
CUT
10
-6.0729
20
-119.0257
0
VERTEX
8
CUT
10
-6.0520
20
-118.9568
0
VERTEX
8
CUT
10
-6.0267
20
-118.8895
0
VERTEX
8
CUT
10
-5.9970
20
-118.8239
0
VERTEX
8
CUT
10
-5.9630
20
-118.7604
0
VERTEX
8
CUT
10
-5.9250
20
-118.6993
0
VERTEX
8
CUT
10
-5.8831
20
-118.6408
0
VERTEX
8
CUT
10
-5.8374
20
-118.5851
0
VERTEX
8
CUT
10
-5.7882
20
-118.5326
0
VERTEX
8
CUT
10
-5.7357
20
-118.4834
0
VERTEX
8
CUT
10
-5.6800
20
-118.4377
0
VERTEX
8
CUT
10
-5.6215
20
-118.3958
0
VERTEX
8
CUT
10
-5.5604
20
-118.3578
0
VERTEX
8
CUT
10
-5.4969
20
-118.3238
0
VERTEX
8
CUT
10
-5.4314
20
-118.2941
0
VERTEX
8
CUT
10
-5.3640
20
-118.2688
0
VERTEX
8
CUT
10
-5.2951
20
-118.2479
0
VERTEX
8
CUT
10
-5.2250
20
-118.2315
0
VERTEX
8
CUT
10
-5.1540
20
-118.2198
0
VERTEX
8
CUT
10
-5.0824
20
-118.2128
0
VERTEX
8
CUT
10
-5.0104
20
-118.2104
0
VERTEX
8
CUT
10
-4.9385
20
-118.2128
0
VERTEX
8
CUT
10
-4.8668
20
-118.2198
0
VERTEX
8
CUT
10
-4.7958
20
-118.2315
0
VERTEX
8
CUT
10
-4.7257
20
-118.2479
0
VERTEX
8
CUT
10
-4.6568
20
-118.2688
0
VERTEX
8
CUT
10
-4.5895
20
-118.2941
0
VERTEX
8
CUT
10
-4.5239
20
-118.3238
0
VERTEX
8
CUT
10
-4.4604
20
-118.3578
0
VERTEX
8
CUT
10
-4.3993
20
-118.3958
0
VERTEX
8
CUT
10
-4.3408
20
-118.4377
0
VERTEX
8
CUT
10
-4.2851
20
-118.4834
0
VERTEX
8
CUT
10
-4.2326
20
-118.5326
0
VERTEX
8
CUT
10
-4.1834
20
-118.5851
0
VERTEX
8
CUT
10
-4.1377
20
-118.6408
0
VERTEX
8
CUT
10
-4.0958
20
-118.6993
0
VERTEX
8
CUT
10
-4.0578
20
-118.7604
0
VERTEX
8
CUT
10
-4.0238
20
-118.8239
0
VERTEX
8
CUT
10
-3.9941
20
-118.8895
0
VERTEX
8
CUT
10
-3.9688
20
-118.9568
0
VERTEX
8
CUT
10
-3.9479
20
-119.0257
0
VERTEX
8
CUT
10
-3.9315
20
-119.0958
0
VERTEX
8
CUT
10
-3.9198
20
-119.1668
0
VERTEX
8
CUT
10
-3.9128
20
-119.2385
0
VERTEX
8
CUT
10
-3.9104
20
-119.3104
0
VERTEX
8
CUT
10
-3.9128
20
-119.3824
0
VERTEX
8
CUT
10
-3.9198
20
-119.4540
0
VERTEX
8
CUT
10
-3.9315
20
-119.5250
0
VERTEX
8
CUT
10
-3.9479
20
-119.5951
0
VERTEX
8
CUT
10
-3.9688
20
-119.6640
0
VERTEX
8
CUT
10
-3.9941
20
-119.7314
0
VERTEX
8
CUT
10
-4.0238
20
-119.7969
0
VERTEX
8
CUT
10
-4.0578
20
-119.8604
0
VERTEX
8
CUT
10
-4.0958
20
-119.9215
0
VERTEX
8
CUT
10
-4.1377
20
-119.9800
0
VERTEX
8
CUT
10
-4.1834
20
-120.0357
0
VERTEX
8
CUT
10
-4.2326
20
-120.0882
0
VERTEX
8
CUT
10
-4.2851
20
-120.1374
0
VERTEX
8
CUT
10
-4.3408
20
-120.1831
0
VERTEX
8
CUT
10
-4.3993
20
-120.2250
0
VERTEX
8
CUT
10
-4.4604
20
-120.2630
0
VERTEX
8
CUT
10
-4.5239
20
-120.2970
0
VERTEX
8
CUT
10
-4.5895
20
-120.3267
0
VERTEX
8
CUT
10
-4.6568
20
-120.3520
0
VERTEX
8
CUT
10
-4.7257
20
-120.3729
0
VERTEX
8
CUT
10
-4.7958
20
-120.3893
0
VERTEX
8
CUT
10
-4.8668
20
-120.4010
0
VERTEX
8
CUT
10
-4.9385
20
-120.4081
0
VERTEX
8
CUT
10
-5.0104
20
-120.4104
0
SEQEND
0
POLYLINE
8
CUT
66
1
70
1
0
VERTEX
8
CUT
10
171.5010
20
-120.4081
0
VERTEX
8
CUT
10
171.4293
20
-120.4010
0
VERTEX
8
CUT
10
171.3583
20
-120.3893
0
VERTEX
8
CUT
10
171.2882
20
-120.3729
0
VERTEX
8
CUT
10
171.2193
20
-120.3520
0
VERTEX
8
CUT
10
171.1520
20
-120.3267
0
VERTEX
8
CUT
10
171.0864
20
-120.2970
0
VERTEX
8
CUT
10
171.0229
20
-120.2630
0
VERTEX
8
CUT
10
170.9618
20
-120.2250
0
VERTEX
8
CUT
10
170.9033
20
-120.1831
0
VERTEX
8
CUT
10
170.8476
20
-120.1374
0
VERTEX
8
CUT
10
170.7951
20
-120.0882
0
VERTEX
8
CUT
10
170.7459
20
-120.0357
0
VERTEX
8
CUT
10
170.7002
20
-119.9800
0
VERTEX
8
CUT
10
170.6583
20
-119.9215
0
VERTEX
8
CUT
10
170.6203
20
-119.8604
0
VERTEX
8
CUT
10
170.5863
20
-119.7969
0
VERTEX
8
CUT
10
170.5566
20
-119.7314
0
VERTEX
8
CUT
10
170.5313
20
-119.6640
0
VERTEX
8
CUT
10
170.5104
20
-119.5951
0
VERTEX
8
CUT
10
170.4940
20
-119.5250
0
VERTEX
8
CUT
10
170.4823
20
-119.4540
0
VERTEX
8
CUT
10
170.4753
20
-119.3824
0
VERTEX
8
CUT
10
170.4729
20
-119.3104
0
VERTEX
8
CUT
10
170.4753
20
-119.2385
0
VERTEX
8
CUT
10
170.4823
20
-119.1668
0
VERTEX
8
CUT
10
170.4940
20
-119.0958
0
VERTEX
8
CUT
10
170.5104
20
-119.0257
0
VERTEX
8
CUT
10
170.5313
20
-118.9568
0
VERTEX
8
CUT
10
170.5566
20
-118.8895
0
VERTEX
8
CUT
10
170.5863
20
-118.8239
0
VERTEX
8
CUT
10
170.6203
20
-118.7604
0
VERTEX
8
CUT
10
170.6583
20
-118.6993
0
VERTEX
8
CUT
10
170.7002
20
-118.6408
0
VERTEX
8
CUT
10
170.7459
20
-118.5851
0
VERTEX
8
CUT
10
170.7951
20
-118.5326
0
VERTEX
8
CUT
10
170.8476
20
-118.4834
0
VERTEX
8
CUT
10
170.9033
20
-118.4377
0
VERTEX
8
CUT
10
170.9618
20
-118.3958
0
VERTEX
8
CUT
10
171.0229
20
-118.3578
0
VERTEX
8
CUT
10
171.0864
20
-118.3238
0
VERTEX
8
CUT
10
171.1520
20
-118.2941
0
VERTEX
8
CUT
10
171.2193
20
-118.2688
0
VERTEX
8
CUT
10
171.2882
20
-118.2479
0
VERTEX
8
CUT
10
171.3583
20
-118.2315
0
VERTEX
8
CUT
10
171.4293
20
-118.2198
0
VERTEX
8
CUT
10
171.5010
20
-118.2128
0
VERTEX
8
CUT
10
171.5729
20
-118.2104
0
VERTEX
8
CUT
10
171.6449
20
-118.2128
0
VERTEX
8
CUT
10
171.7165
20
-118.2198
0
VERTEX
8
CUT
10
171.7875
20
-118.2315
0
VERTEX
8
CUT
10
171.8576
20
-118.2479
0
VERTEX
8
CUT
10
171.9265
20
-118.2688
0
VERTEX
8
CUT
10
171.9939
20
-118.2941
0
VERTEX
8
CUT
10
172.0594
20
-118.3238
0
VERTEX
8
CUT
10
172.1229
20
-118.3578
0
VERTEX
8
CUT
10
172.1840
20
-118.3958
0
VERTEX
8
CUT
10
172.2425
20
-118.4377
0
VERTEX
8
CUT
10
172.2982
20
-118.4834
0
VERTEX
8
CUT
10
172.3507
20
-118.5326
0
VERTEX
8
CUT
10
172.3999
20
-118.5851
0
VERTEX
8
CUT
10
172.4456
20
-118.6408
0
VERTEX
8
CUT
10
172.4875
20
-118.6993
0
VERTEX
8
CUT
10
172.5255
20
-118.7604
0
VERTEX
8
CUT
10
172.5595
20
-118.8239
0
VERTEX
8
CUT
10
172.5892
20
-118.8895
0
VERTEX
8
CUT
10
172.6145
20
-118.9568
0
VERTEX
8
CUT
10
172.6354
20
-119.0257
0
VERTEX
8
CUT
10
172.6518
20
-119.0958
0
VERTEX
8
CUT
10
172.6635
20
-119.1668
0
VERTEX
8
CUT
10
172.6706
20
-119.2385
0
VERTEX
8
CUT
10
172.6729
20
-119.3104
0
VERTEX
8
CUT
10
172.6706
20
-119.3824
0
VERTEX
8
CUT
10
172.6635
20
-119.4540
0
VERTEX
8
CUT
10
172.6518
20
-119.5250
0
VERTEX
8
CUT
10
172.6354
20
-119.5951
0
VERTEX
8
CUT
10
172.6145
20
-119.6640
0
VERTEX
8
CUT
10
172.5892
20
-119.7314
0
VERTEX
8
CUT
10
172.5595
20
-119.7969
0
VERTEX
8
CUT
10
172.5255
20
-119.8604
0
VERTEX
8
CUT
10
172.4875
20
-119.9215
0
VERTEX
8
CUT
10
172.4456
20
-119.9800
0
VERTEX
8
CUT
10
172.3999
20
-120.0357
0
VERTEX
8
CUT
10
172.3507
20
-120.0882
0
VERTEX
8
CUT
10
172.2982
20
-120.1374
0
VERTEX
8
CUT
10
172.2425
20
-120.1831
0
VERTEX
8
CUT
10
172.1840
20
-120.2250
0
VERTEX
8
CUT
10
172.1229
20
-120.2630
0
VERTEX
8
CUT
10
172.0594
20
-120.2970
0
VERTEX
8
CUT
10
171.9939
20
-120.3267
0
VERTEX
8
CUT
10
171.9265
20
-120.3520
0
VERTEX
8
CUT
10
171.8576
20
-120.3729
0
VERTEX
8
CUT
10
171.7875
20
-120.3893
0
VERTEX
8
CUT
10
171.7165
20
-120.4010
0
VERTEX
8
CUT
10
171.6449
20
-120.4081
0
VERTEX
8
CUT
10
171.5729
20
-120.4104
0
SEQEND
0
POLYLINE
8
CUT
66
1
70
1
0
VERTEX
8
CUT
10
52.9489
20
-122.8976
0
VERTEX
8
CUT
10
52.8773
20
-122.8906
0
VERTEX
8
CUT
10
52.8062
20
-122.8789
0
VERTEX
8
CUT
10
52.7361
20
-122.8625
0
VERTEX
8
CUT
10
52.6672
20
-122.8416
0
VERTEX
8
CUT
10
52.5999
20
-122.8163
0
VERTEX
8
CUT
10
52.5343
20
-122.7866
0
VERTEX
8
CUT
10
52.4708
20
-122.7526
0
VERTEX
8
CUT
10
52.4097
20
-122.7146
0
VERTEX
8
CUT
10
52.3512
20
-122.6727
0
VERTEX
8
CUT
10
52.2956
20
-122.6270
0
VERTEX
8
CUT
10
52.2430
20
-122.5778
0
VERTEX
8
CUT
10
52.1938
20
-122.5253
0
VERTEX
8
CUT
10
52.1481
20
-122.4696
0
VERTEX
8
CUT
10
52.1062
20
-122.4111
0
VERTEX
8
CUT
10
52.0682
20
-122.3500
0
VERTEX
8
CUT
10
52.0343
20
-122.2865
0
VERTEX
8
CUT
10
52.0046
20
-122.2210
0
VERTEX
8
CUT
10
51.9792
20
-122.1536
0
VERTEX
8
CUT
10
51.9583
20
-122.0847
0
VERTEX
8
CUT
10
51.9420
20
-122.0146
0
VERTEX
8
CUT
10
51.9302
20
-121.9436
0
VERTEX
8
CUT
10
51.9232
20
-121.8719
0
VERTEX
8
CUT
10
51.9208
20
-121.8000
0
VERTEX
8
CUT
10
51.9232
20
-121.7281
0
VERTEX
8
CUT
10
51.9302
20
-121.6564
0
VERTEX
8
CUT
10
51.9420
20
-121.5854
0
VERTEX
8
CUT
10
51.9583
20
-121.5153
0
VERTEX
8
CUT
10
51.9792
20
-121.4464
0
VERTEX
8
CUT
10
52.0046
20
-121.3790
0
VERTEX
8
CUT
10
52.0343
20
-121.3135
0
VERTEX
8
CUT
10
52.0682
20
-121.2500
0
VERTEX
8
CUT
10
52.1062
20
-121.1889
0
VERTEX
8
CUT
10
52.1481
20
-121.1304
0
VERTEX
8
CUT
10
52.1938
20
-121.0747
0
VERTEX
8
CUT
10
52.2430
20
-121.0222
0
VERTEX
8
CUT
10
52.2956
20
-120.9730
0
VERTEX
8
CUT
10
52.3512
20
-120.9273
0
VERTEX
8
CUT
10
52.4097
20
-120.8854
0
VERTEX
8
CUT
10
52.4708
20
-120.8474
0
VERTEX
8
CUT
10
52.5343
20
-120.8134
0
VERTEX
8
CUT
10
52.5999
20
-120.7837
0
VERTEX
8
CUT
10
52.6672
20
-120.7584
0
VERTEX
8
CUT
10
52.7361
20
-120.7375
0
VERTEX
8
CUT
10
52.8062
20
-120.7211
0
VERTEX
8
CUT
10
52.8773
20
-120.7094
0
VERTEX
8
CUT
10
52.9489
20
-120.7024
0
VERTEX
8
CUT
10
53.0208
20
-120.7000
0
VERTEX
8
CUT
10
53.0928
20
-120.7024
0
VERTEX
8
CUT
10
53.1644
20
-120.7094
0
VERTEX
8
CUT
10
53.2354
20
-120.7211
0
VERTEX
8
CUT
10
53.3055
20
-120.7375
0
VERTEX
8
CUT
10
53.3744
20
-120.7584
0
VERTEX
8
CUT
10
53.4418
20
-120.7837
0
VERTEX
8
CUT
10
53.5074
20
-120.8134
0
VERTEX
8
CUT
10
53.5708
20
-120.8474
0
VERTEX
8
CUT
10
53.6320
20
-120.8854
0
VERTEX
8
CUT
10
53.6905
20
-120.9273
0
VERTEX
8
CUT
10
53.7461
20
-120.9730
0
VERTEX
8
CUT
10
53.7987
20
-121.0222
0
VERTEX
8
CUT
10
53.8479
20
-121.0747
0
VERTEX
8
CUT
10
53.8935
20
-121.1304
0
VERTEX
8
CUT
10
53.9354
20
-121.1889
0
VERTEX
8
CUT
10
53.9735
20
-121.2500
0
VERTEX
8
CUT
10
54.0074
20
-121.3135
0
VERTEX
8
CUT
10
54.0371
20
-121.3790
0
VERTEX
8
CUT
10
54.0625
20
-121.4464
0
VERTEX
8
CUT
10
54.0834
20
-121.5153
0
VERTEX
8
CUT
10
54.0997
20
-121.5854
0
VERTEX
8
CUT
10
54.1114
20
-121.6564
0
VERTEX
8
CUT
10
54.1185
20
-121.7281
0
VERTEX
8
CUT
10
54.1208
20
-121.8000
0
VERTEX
8
CUT
10
54.1185
20
-121.8719
0
VERTEX
8
CUT
10
54.1114
20
-121.9436
0
VERTEX
8
CUT
10
54.0997
20
-122.0146
0
VERTEX
8
CUT
10
54.0834
20
-122.0847
0
VERTEX
8
CUT
10
54.0625
20
-122.1536
0
VERTEX
8
CUT
10
54.0371
20
-122.2210
0
VERTEX
8
CUT
10
54.0074
20
-122.2865
0
VERTEX
8
CUT
10
53.9735
20
-122.3500
0
VERTEX
8
CUT
10
53.9354
20
-122.4111
0
VERTEX
8
CUT
10
53.8935
20
-122.4696
0
VERTEX
8
CUT
10
53.8479
20
-122.5253
0
VERTEX
8
CUT
10
53.7987
20
-122.5778
0
VERTEX
8
CUT
10
53.7461
20
-122.6270
0
VERTEX
8
CUT
10
53.6905
20
-122.6727
0
VERTEX
8
CUT
10
53.6320
20
-122.7146
0
VERTEX
8
CUT
10
53.5708
20
-122.7526
0
VERTEX
8
CUT
10
53.5074
20
-122.7866
0
VERTEX
8
CUT
10
53.4418
20
-122.8163
0
VERTEX
8
CUT
10
53.3744
20
-122.8416
0
VERTEX
8
CUT
10
53.3055
20
-122.8625
0
VERTEX
8
CUT
10
53.2354
20
-122.8789
0
VERTEX
8
CUT
10
53.1644
20
-122.8906
0
VERTEX
8
CUT
10
53.0928
20
-122.8976
0
VERTEX
8
CUT
10
53.0208
20
-122.9000
0
SEQEND
0
POLYLINE
8
CUT
66
1
70
1
0
VERTEX
8
CUT
10
113.4697
20
-122.8976
0
VERTEX
8
CUT
10
113.3981
20
-122.8906
0
VERTEX
8
CUT
10
113.3271
20
-122.8789
0
VERTEX
8
CUT
10
113.2570
20
-122.8625
0
VERTEX
8
CUT
10
113.1881
20
-122.8416
0
VERTEX
8
CUT
10
113.1207
20
-122.8163
0
VERTEX
8
CUT
10
113.0551
20
-122.7866
0
VERTEX
8
CUT
10
112.9917
20
-122.7526
0
VERTEX
8
CUT
10
112.9305
20
-122.7146
0
VERTEX
8
CUT
10
112.8720
20
-122.6727
0
VERTEX
8
CUT
10
112.8164
20
-122.6270
0
VERTEX
8
CUT
10
112.7638
20
-122.5778
0
VERTEX
8
CUT
10
112.7146
20
-122.5253
0
VERTEX
8
CUT
10
112.6690
20
-122.4696
0
VERTEX
8
CUT
10
112.6271
20
-122.4111
0
VERTEX
8
CUT
10
112.5890
20
-122.3500
0
VERTEX
8
CUT
10
112.5551
20
-122.2865
0
VERTEX
8
CUT
10
112.5254
20
-122.2210
0
VERTEX
8
CUT
10
112.5000
20
-122.1536
0
VERTEX
8
CUT
10
112.4791
20
-122.0847
0
VERTEX
8
CUT
10
112.4628
20
-122.0146
0
VERTEX
8
CUT
10
112.4511
20
-121.9436
0
VERTEX
8
CUT
10
112.4440
20
-121.8719
0
VERTEX
8
CUT
10
112.4417
20
-121.8000
0
VERTEX
8
CUT
10
112.4440
20
-121.7281
0
VERTEX
8
CUT
10
112.4511
20
-121.6564
0
VERTEX
8
CUT
10
112.4628
20
-121.5854
0
VERTEX
8
CUT
10
112.4791
20
-121.5153
0
VERTEX
8
CUT
10
112.5000
20
-121.4464
0
VERTEX
8
CUT
10
112.5254
20
-121.3790
0
VERTEX
8
CUT
10
112.5551
20
-121.3135
0
VERTEX
8
CUT
10
112.5890
20
-121.2500
0
VERTEX
8
CUT
10
112.6271
20
-121.1889
0
VERTEX
8
CUT
10
112.6690
20
-121.1304
0
VERTEX
8
CUT
10
112.7146
20
-121.0747
0
VERTEX
8
CUT
10
112.7638
20
-121.0222
0
VERTEX
8
CUT
10
112.8164
20
-120.9730
0
VERTEX
8
CUT
10
112.8720
20
-120.9273
0
VERTEX
8
CUT
10
112.9305
20
-120.8854
0
VERTEX
8
CUT
10
112.9917
20
-120.8474
0
VERTEX
8
CUT
10
113.0551
20
-120.8134
0
VERTEX
8
CUT
10
113.1207
20
-120.7837
0
VERTEX
8
CUT
10
113.1881
20
-120.7584
0
VERTEX
8
CUT
10
113.2570
20
-120.7375
0
VERTEX
8
CUT
10
113.3271
20
-120.7211
0
VERTEX
8
CUT
10
113.3981
20
-120.7094
0
VERTEX
8
CUT
10
113.4697
20
-120.7024
0
VERTEX
8
CUT
10
113.5417
20
-120.7000
0
VERTEX
8
CUT
10
113.6136
20
-120.7024
0
VERTEX
8
CUT
10
113.6852
20
-120.7094
0
VERTEX
8
CUT
10
113.7563
20
-120.7211
0
VERTEX
8
CUT
10
113.8264
20
-120.7375
0
VERTEX
8
CUT
10
113.8953
20
-120.7584
0
VERTEX
8
CUT
10
113.9626
20
-120.7837
0
VERTEX
8
CUT
10
114.0282
20
-120.8134
0
VERTEX
8
CUT
10
114.0917
20
-120.8474
0
VERTEX
8
CUT
10
114.1528
20
-120.8854
0
VERTEX
8
CUT
10
114.2113
20
-120.9273
0
VERTEX
8
CUT
10
114.2669
20
-120.9730
0
VERTEX
8
CUT
10
114.3195
20
-121.0222
0
VERTEX
8
CUT
10
114.3687
20
-121.0747
0
VERTEX
8
CUT
10
114.4144
20
-121.1304
0
VERTEX
8
CUT
10
114.4563
20
-121.1889
0
VERTEX
8
CUT
10
114.4943
20
-121.2500
0
VERTEX
8
CUT
10
114.5282
20
-121.3135
0
VERTEX
8
CUT
10
114.5579
20
-121.3790
0
VERTEX
8
CUT
10
114.5833
20
-121.4464
0
VERTEX
8
CUT
10
114.6042
20
-121.5153
0
VERTEX
8
CUT
10
114.6205
20
-121.5854
0
VERTEX
8
CUT
10
114.6323
20
-121.6564
0
VERTEX
8
CUT
10
114.6393
20
-121.7281
0
VERTEX
8
CUT
10
114.6417
20
-121.8000
0
VERTEX
8
CUT
10
114.6393
20
-121.8719
0
VERTEX
8
CUT
10
114.6323
20
-121.9436
0
VERTEX
8
CUT
10
114.6205
20
-122.0146
0
VERTEX
8
CUT
10
114.6042
20
-122.0847
0
VERTEX
8
CUT
10
114.5833
20
-122.1536
0
VERTEX
8
CUT
10
114.5579
20
-122.2210
0
VERTEX
8
CUT
10
114.5282
20
-122.2865
0
VERTEX
8
CUT
10
114.4943
20
-122.3500
0
VERTEX
8
CUT
10
114.4563
20
-122.4111
0
VERTEX
8
CUT
10
114.4144
20
-122.4696
0
VERTEX
8
CUT
10
114.3687
20
-122.5253
0
VERTEX
8
CUT
10
114.3195
20
-122.5778
0
VERTEX
8
CUT
10
114.2669
20
-122.6270
0
VERTEX
8
CUT
10
114.2113
20
-122.6727
0
VERTEX
8
CUT
10
114.1528
20
-122.7146
0
VERTEX
8
CUT
10
114.0917
20
-122.7526
0
VERTEX
8
CUT
10
114.0282
20
-122.7866
0
VERTEX
8
CUT
10
113.9626
20
-122.8163
0
VERTEX
8
CUT
10
113.8953
20
-122.8416
0
VERTEX
8
CUT
10
113.8264
20
-122.8625
0
VERTEX
8
CUT
10
113.7563
20
-122.8789
0
VERTEX
8
CUT
10
113.6852
20
-122.8906
0
VERTEX
8
CUT
10
113.6136
20
-122.8976
0
VERTEX
8
CUT
10
113.5417
20
-122.9000
0
SEQEND
0
ENDSEC
0
EOF
