0
SECTION
2
HEADER
9
$INSUNITS
70
4
0
ENDSEC
0
SECTION
2
ENTITIES
0
POLYLINE
8
CUT
66
1
70
1
0
VERTEX
8
CUT
10
180.7925
20
-125.7732
0
VERTEX
8
CUT
10
181.6066
20
-125.6931
0
VERTEX
8
CUT
10
182.4136
20
-125.5598
0
VERTEX
8
CUT
10
183.2102
20
-125.3741
0
VERTEX
8
CUT
10
183.9930
20
-125.1366
0
VERTEX
8
CUT
10
184.7585
20
-124.8485
0
VERTEX
8
CUT
10
185.5036
20
-124.5109
0
VERTEX
8
CUT
10
186.2250
20
-124.1253
0
VERTEX
8
CUT
10
186.9196
20
-123.6934
0
VERTEX
8
CUT
10
187.5845
20
-123.2169
0
VERTEX
8
CUT
10
188.2168
20
-122.6980
0
VERTEX
8
CUT
10
188.8138
20
-122.1388
0
VERTEX
8
CUT
10
189.3730
20
-121.5418
0
VERTEX
8
CUT
10
189.8919
20
-120.9095
0
VERTEX
8
CUT
10
190.3684
20
-120.2446
0
VERTEX
8
CUT
10
190.8003
20
-119.5500
0
VERTEX
8
CUT
10
191.1859
20
-118.8286
0
VERTEX
8
CUT
10
191.5235
20
-118.0835
0
VERTEX
8
CUT
10
191.8116
20
-117.3180
0
VERTEX
8
CUT
10
192.0491
20
-116.5352
0
VERTEX
8
CUT
10
192.2348
20
-115.7386
0
VERTEX
8
CUT
10
192.3681
20
-114.9316
0
VERTEX
8
CUT
10
192.4482
20
-114.1175
0
VERTEX
8
CUT
10
192.4750
20
-113.3000
0
VERTEX
8
CUT
10
192.4750
20
-1.0000
0
VERTEX
8
CUT
10
192.4482
20
-0.1825
0
VERTEX
8
CUT
10
192.3681
20
0.6316
0
VERTEX
8
CUT
10
192.2348
20
1.4386
0
VERTEX
8
CUT
10
192.0491
20
2.2352
0
VERTEX
8
CUT
10
191.8116
20
3.0180
0
VERTEX
8
CUT
10
191.5235
20
3.7835
0
VERTEX
8
CUT
10
191.1859
20
4.5286
0
VERTEX
8
CUT
10
190.8003
20
5.2500
0
VERTEX
8
CUT
10
190.3684
20
5.9446
0
VERTEX
8
CUT
10
189.8919
20
6.6095
0
VERTEX
8
CUT
10
189.3730
20
7.2418
0
VERTEX
8
CUT
10
188.8138
20
7.8388
0
VERTEX
8
CUT
10
188.2168
20
8.3980
0
VERTEX
8
CUT
10
187.5845
20
8.9169
0
VERTEX
8
CUT
10
186.9196
20
9.3934
0
VERTEX
8
CUT
10
186.2250
20
9.8253
0
VERTEX
8
CUT
10
185.5036
20
10.2109
0
VERTEX
8
CUT
10
184.7585
20
10.5485
0
VERTEX
8
CUT
10
183.9930
20
10.8366
0
VERTEX
8
CUT
10
183.2102
20
11.0741
0
VERTEX
8
CUT
10
182.4136
20
11.2598
0
VERTEX
8
CUT
10
181.6066
20
11.3931
0
VERTEX
8
CUT
10
180.7925
20
11.4732
0
VERTEX
8
CUT
10
179.9750
20
11.5000
0
VERTEX
8
CUT
10
1.0000
20
11.5000
0
VERTEX
8
CUT
10
0.1825
20
11.4732
0
VERTEX
8
CUT
10
-0.6316
20
11.3931
0
VERTEX
8
CUT
10
-1.4386
20
11.2598
0
VERTEX
8
CUT
10
-2.2352
20
11.0741
0
VERTEX
8
CUT
10
-3.0180
20
10.8366
0
VERTEX
8
CUT
10
-3.7835
20
10.5485
0
VERTEX
8
CUT
10
-4.5286
20
10.2109
0
VERTEX
8
CUT
10
-5.2500
20
9.8253
0
VERTEX
8
CUT
10
-5.9446
20
9.3934
0
VERTEX
8
CUT
10
-6.6095
20
8.9169
0
VERTEX
8
CUT
10
-7.2418
20
8.3980
0
VERTEX
8
CUT
10
-7.8388
20
7.8388
0
VERTEX
8
CUT
10
-8.3980
20
7.2418
0
VERTEX
8
CUT
10
-8.9169
20
6.6095
0
VERTEX
8
CUT
10
-9.3934
20
5.9446
0
VERTEX
8
CUT
10
-9.8253
20
5.2500
0
VERTEX
8
CUT
10
-10.2109
20
4.5286
0
VERTEX
8
CUT
10
-10.5485
20
3.7835
0
VERTEX
8
CUT
10
-10.8366
20
3.0180
0
VERTEX
8
CUT
10
-11.0741
20
2.2352
0
VERTEX
8
CUT
10
-11.2598
20
1.4386
0
VERTEX
8
CUT
10
-11.3931
20
0.6316
0
VERTEX
8
CUT
10
-11.4732
20
-0.1825
0
VERTEX
8
CUT
10
-11.5000
20
-1.0000
0
VERTEX
8
CUT
10
-11.5000
20
-113.3000
0
VERTEX
8
CUT
10
-11.4732
20
-114.1175
0
VERTEX
8
CUT
10
-11.3931
20
-114.9316
0
VERTEX
8
CUT
10
-11.2598
20
-115.7386
0
VERTEX
8
CUT
10
-11.0741
20
-116.5352
0
VERTEX
8
CUT
10
-10.8366
20
-117.3180
0
VERTEX
8
CUT
10
-10.5485
20
-118.0835
0
VERTEX
8
CUT
10
-10.2109
20
-118.8286
0
VERTEX
8
CUT
10
-9.8253
20
-119.5500
0
VERTEX
8
CUT
10
-9.3934
20
-120.2446
0
VERTEX
8
CUT
10
-8.9169
20
-120.9095
0
VERTEX
8
CUT
10
-8.3980
20
-121.5418
0
VERTEX
8
CUT
10
-7.8388
20
-122.1388
0
VERTEX
8
CUT
10
-7.2418
20
-122.6980
0
VERTEX
8
CUT
10
-6.6095
20
-123.2169
0
VERTEX
8
CUT
10
-5.9446
20
-123.6934
0
VERTEX
8
CUT
10
-5.2500
20
-124.1253
0
VERTEX
8
CUT
10
-4.5286
20
-124.5109
0
VERTEX
8
CUT
10
-3.7835
20
-124.8485
0
VERTEX
8
CUT
10
-3.0180
20
-125.1366
0
VERTEX
8
CUT
10
-2.2352
20
-125.3741
0
VERTEX
8
CUT
10
-1.4386
20
-125.5598
0
VERTEX
8
CUT
10
-0.6316
20
-125.6931
0
VERTEX
8
CUT
10
0.1825
20
-125.7732
0
VERTEX
8
CUT
10
1.0000
20
-125.8000
0
VERTEX
8
CUT
10
179.9750
20
-125.8000
0
SEQEND
0
POLYLINE
8
CUT
66
1
70
1
0
VERTEX
8
CUT
10
41.4218
20
6.4024
0
VERTEX
8
CUT
10
41.3502
20
6.4094
0
VERTEX
8
CUT
10
41.2792
20
6.4211
0
VERTEX
8
CUT
10
41.2090
20
6.4375
0
VERTEX
8
CUT
10
41.1402
20
6.4584
0
VERTEX
8
CUT
10
41.0728
20
6.4837
0
VERTEX
8
CUT
10
41.0072
20
6.5134
0
VERTEX
8
CUT
10
40.9438
20
6.5474
0
VERTEX
8
CUT
10
40.8826
20
6.5854
0
VERTEX
8
CUT
10
40.8241
20
6.6273
0
VERTEX
8
CUT
10
40.7685
20
6.6730
0
VERTEX
8
CUT
10
40.7159
20
6.7222
0
VERTEX
8
CUT
10
40.6667
20
6.7747
0
VERTEX
8
CUT
10
40.6211
20
6.8304
0
VERTEX
8
CUT
10
40.5791
20
6.8889
0
VERTEX
8
CUT
10
40.5411
20
6.9500
0
VERTEX
8
CUT
10
40.5072
20
7.0135
0
VERTEX
8
CUT
10
40.4775
20
7.0790
0
VERTEX
8
CUT
10
40.4521
20
7.1464
0
VERTEX
8
CUT
10
40.4312
20
7.2153
0
VERTEX
8
CUT
10
40.4149
20
7.2854
0
VERTEX
8
CUT
10
40.4032
20
7.3564
0
VERTEX
8
CUT
10
40.3961
20
7.4281
0
VERTEX
8
CUT
10
40.3937
20
7.5000
0
VERTEX
8
CUT
10
40.3961
20
7.5719
0
VERTEX
8
CUT
10
40.4032
20
7.6436
0
VERTEX
8
CUT
10
40.4149
20
7.7146
0
VERTEX
8
CUT
10
40.4312
20
7.7847
0
VERTEX
8
CUT
10
40.4521
20
7.8536
0
VERTEX
8
CUT
10
40.4775
20
7.9210
0
VERTEX
8
CUT
10
40.5072
20
7.9865
0
VERTEX
8
CUT
10
40.5411
20
8.0500
0
VERTEX
8
CUT
10
40.5791
20
8.1111
0
VERTEX
8
CUT
10
40.6211
20
8.1696
0
VERTEX
8
CUT
10
40.6667
20
8.2253
0
VERTEX
8
CUT
10
40.7159
20
8.2778
0
VERTEX
8
CUT
10
40.7685
20
8.3270
0
VERTEX
8
CUT
10
40.8241
20
8.3727
0
VERTEX
8
CUT
10
40.8826
20
8.4146
0
VERTEX
8
CUT
10
40.9438
20
8.4526
0
VERTEX
8
CUT
10
41.0072
20
8.4866
0
VERTEX
8
CUT
10
41.0728
20
8.5163
0
VERTEX
8
CUT
10
41.1402
20
8.5416
0
VERTEX
8
CUT
10
41.2090
20
8.5625
0
VERTEX
8
CUT
10
41.2792
20
8.5789
0
VERTEX
8
CUT
10
41.3502
20
8.5906
0
VERTEX
8
CUT
10
41.4218
20
8.5976
0
VERTEX
8
CUT
10
41.4937
20
8.6000
0
VERTEX
8
CUT
10
41.5657
20
8.5976
0
VERTEX
8
CUT
10
41.6373
20
8.5906
0
VERTEX
8
CUT
10
41.7083
20
8.5789
0
VERTEX
8
CUT
10
41.7785
20
8.5625
0
VERTEX
8
CUT
10
41.8473
20
8.5416
0
VERTEX
8
CUT
10
41.9147
20
8.5163
0
VERTEX
8
CUT
10
41.9803
20
8.4866
0
VERTEX
8
CUT
10
42.0438
20
8.4526
0
VERTEX
8
CUT
10
42.1049
20
8.4146
0
VERTEX
8
CUT
10
42.1634
20
8.3727
0
VERTEX
8
CUT
10
42.2190
20
8.3270
0
VERTEX
8
CUT
10
42.2716
20
8.2778
0
VERTEX
8
CUT
10
42.3208
20
8.2253
0
VERTEX
8
CUT
10
42.3664
20
8.1696
0
VERTEX
8
CUT
10
42.4084
20
8.1111
0
VERTEX
8
CUT
10
42.4464
20
8.0500
0
VERTEX
8
CUT
10
42.4803
20
7.9865
0
VERTEX
8
CUT
10
42.5100
20
7.9210
0
VERTEX
8
CUT
10
42.5354
20
7.8536
0
VERTEX
8
CUT
10
42.5563
20
7.7847
0
VERTEX
8
CUT
10
42.5726
20
7.7146
0
VERTEX
8
CUT
10
42.5843
20
7.6436
0
VERTEX
8
CUT
10
42.5914
20
7.5719
0
VERTEX
8
CUT
10
42.5938
20
7.5000
0
VERTEX
8
CUT
10
42.5914
20
7.4281
0
VERTEX
8
CUT
10
42.5843
20
7.3564
0
VERTEX
8
CUT
10
42.5726
20
7.2854
0
VERTEX
8
CUT
10
42.5563
20
7.2153
0
VERTEX
8
CUT
10
42.5354
20
7.1464
0
VERTEX
8
CUT
10
42.5100
20
7.0790
0
VERTEX
8
CUT
10
42.4803
20
7.0135
0
VERTEX
8
CUT
10
42.4464
20
6.9500
0
VERTEX
8
CUT
10
42.4084
20
6.8889
0
VERTEX
8
CUT
10
42.3664
20
6.8304
0
VERTEX
8
CUT
10
42.3208
20
6.7747
0
VERTEX
8
CUT
10
42.2716
20
6.7222
0
VERTEX
8
CUT
10
42.2190
20
6.6730
0
VERTEX
8
CUT
10
42.1634
20
6.6273
0
VERTEX
8
CUT
10
42.1049
20
6.5854
0
VERTEX
8
CUT
10
42.0438
20
6.5474
0
VERTEX
8
CUT
10
41.9803
20
6.5134
0
VERTEX
8
CUT
10
41.9147
20
6.4837
0
VERTEX
8
CUT
10
41.8473
20
6.4584
0
VERTEX
8
CUT
10
41.7785
20
6.4375
0
VERTEX
8
CUT
10
41.7083
20
6.4211
0
VERTEX
8
CUT
10
41.6373
20
6.4094
0
VERTEX
8
CUT
10
41.5657
20
6.4024
0
VERTEX
8
CUT
10
41.4937
20
6.4000
0
SEQEND
0
POLYLINE
8
CUT
66
1
70
1
0
VERTEX
8
CUT
10
90.4156
20
6.4024
0
VERTEX
8
CUT
10
90.3439
20
6.4094
0
VERTEX
8
CUT
10
90.2729
20
6.4211
0
VERTEX
8
CUT
10
90.2028
20
6.4375
0
VERTEX
8
CUT
10
90.1339
20
6.4584
0
VERTEX
8
CUT
10
90.0665
20
6.4837
0
VERTEX
8
CUT
10
90.0010
20
6.5134
0
VERTEX
8
CUT
10
89.9375
20
6.5474
0
VERTEX
8
CUT
10
89.8764
20
6.5854
0
VERTEX
8
CUT
10
89.8179
20
6.6273
0
VERTEX
8
CUT
10
89.7622
20
6.6730
0
VERTEX
8
CUT
10
89.7097
20
6.7222
0
VERTEX
8
CUT
10
89.6605
20
6.7747
0
VERTEX
8
CUT
10
89.6148
20
6.8304
0
VERTEX
8
CUT
10
89.5729
20
6.8889
0
VERTEX
8
CUT
10
89.5349
20
6.9500
0
VERTEX
8
CUT
10
89.5009
20
7.0135
0
VERTEX
8
CUT
10
89.4712
20
7.0790
0
VERTEX
8
CUT
10
89.4459
20
7.1464
0
VERTEX
8
CUT
10
89.4250
20
7.2153
0
VERTEX
8
CUT
10
89.4086
20
7.2854
0
VERTEX
8
CUT
10
89.3969
20
7.3564
0
VERTEX
8
CUT
10
89.3899
20
7.4281
0
VERTEX
8
CUT
10
89.3875
20
7.5000
0
VERTEX
8
CUT
10
89.3899
20
7.5719
0
VERTEX
8
CUT
10
89.3969
20
7.6436
0
VERTEX
8
CUT
10
89.4086
20
7.7146
0
VERTEX
8
CUT
10
89.4250
20
7.7847
0
VERTEX
8
CUT
10
89.4459
20
7.8536
0
VERTEX
8
CUT
10
89.4712
20
7.9210
0
VERTEX
8
CUT
10
89.5009
20
7.9865
0
VERTEX
8
CUT
10
89.5349
20
8.0500
0
VERTEX
8
CUT
10
89.5729
20
8.1111
0
VERTEX
8
CUT
10
89.6148
20
8.1696
0
VERTEX
8
CUT
10
89.6605
20
8.2253
0
VERTEX
8
CUT
10
89.7097
20
8.2778
0
VERTEX
8
CUT
10
89.7622
20
8.3270
0
VERTEX
8
CUT
10
89.8179
20
8.3727
0
VERTEX
8
CUT
10
89.8764
20
8.4146
0
VERTEX
8
CUT
10
89.9375
20
8.4526
0
VERTEX
8
CUT
10
90.0010
20
8.4866
0
VERTEX
8
CUT
10
90.0665
20
8.5163
0
VERTEX
8
CUT
10
90.1339
20
8.5416
0
VERTEX
8
CUT
10
90.2028
20
8.5625
0
VERTEX
8
CUT
10
90.2729
20
8.5789
0
VERTEX
8
CUT
10
90.3439
20
8.5906
0
VERTEX
8
CUT
10
90.4156
20
8.5976
0
VERTEX
8
CUT
10
90.4875
20
8.6000
0
VERTEX
8
CUT
10
90.5594
20
8.5976
0
VERTEX
8
CUT
10
90.6311
20
8.5906
0
VERTEX
8
CUT
10
90.7021
20
8.5789
0
VERTEX
8
CUT
10
90.7722
20
8.5625
0
VERTEX
8
CUT
10
90.8411
20
8.5416
0
VERTEX
8
CUT
10
90.9085
20
8.5163
0
VERTEX
8
CUT
10
90.9740
20
8.4866
0
VERTEX
8
CUT
10
91.0375
20
8.4526
0
VERTEX
8
CUT
10
91.0986
20
8.4146
0
VERTEX
8
CUT
10
91.1571
20
8.3727
0
VERTEX
8
CUT
10
91.2128
20
8.3270
0
VERTEX
8
CUT
10
91.2653
20
8.2778
0
VERTEX
8
CUT
10
91.3145
20
8.2253
0
VERTEX
8
CUT
10
91.3602
20
8.1696
0
VERTEX
8
CUT
10
91.4021
20
8.1111
0
VERTEX
8
CUT
10
91.4401
20
8.0500
0
VERTEX
8
CUT
10
91.4741
20
7.9865
0
VERTEX
8
CUT
10
91.5038
20
7.9210
0
VERTEX
8
CUT
10
91.5291
20
7.8536
0
VERTEX
8
CUT
10
91.5500
20
7.7847
0
VERTEX
8
CUT
10
91.5664
20
7.7146
0
VERTEX
8
CUT
10
91.5781
20
7.6436
0
VERTEX
8
CUT
10
91.5851
20
7.5719
0
VERTEX
8
CUT
10
91.5875
20
7.5000
0
VERTEX
8
CUT
10
91.5851
20
7.4281
0
VERTEX
8
CUT
10
91.5781
20
7.3564
0
VERTEX
8
CUT
10
91.5664
20
7.2854
0
VERTEX
8
CUT
10
91.5500
20
7.2153
0
VERTEX
8
CUT
10
91.5291
20
7.1464
0
VERTEX
8
CUT
10
91.5038
20
7.0790
0
VERTEX
8
CUT
10
91.4741
20
7.0135
0
VERTEX
8
CUT
10
91.4401
20
6.9500
0
VERTEX
8
CUT
10
91.4021
20
6.8889
0
VERTEX
8
CUT
10
91.3602
20
6.8304
0
VERTEX
8
CUT
10
91.3145
20
6.7747
0
VERTEX
8
CUT
10
91.2653
20
6.7222
0
VERTEX
8
CUT
10
91.2128
20
6.6730
0
VERTEX
8
CUT
10
91.1571
20
6.6273
0
VERTEX
8
CUT
10
91.0986
20
6.5854
0
VERTEX
8
CUT
10
91.0375
20
6.5474
0
VERTEX
8
CUT
10
90.9740
20
6.5134
0
VERTEX
8
CUT
10
90.9085
20
6.4837
0
VERTEX
8
CUT
10
90.8411
20
6.4584
0
VERTEX
8
CUT
10
90.7722
20
6.4375
0
VERTEX
8
CUT
10
90.7021
20
6.4211
0
VERTEX
8
CUT
10
90.6311
20
6.4094
0
VERTEX
8
CUT
10
90.5594
20
6.4024
0
VERTEX
8
CUT
10
90.4875
20
6.4000
0
SEQEND
0
POLYLINE
8
CUT
66
1
70
1
0
VERTEX
8
CUT
10
139.4093
20
6.4024
0
VERTEX
8
CUT
10
139.3377
20
6.4094
0
VERTEX
8
CUT
10
139.2667
20
6.4211
0
VERTEX
8
CUT
10
139.1965
20
6.4375
0
VERTEX
8
CUT
10
139.1277
20
6.4584
0
VERTEX
8
CUT
10
139.0603
20
6.4837
0
VERTEX
8
CUT
10
138.9947
20
6.5134
0
VERTEX
8
CUT
10
138.9312
20
6.5474
0
VERTEX
8
CUT
10
138.8701
20
6.5854
0
VERTEX
8
CUT
10
138.8116
20
6.6273
0
VERTEX
8
CUT
10
138.7560
20
6.6730
0
VERTEX
8
CUT
10
138.7034
20
6.7222
0
VERTEX
8
CUT
10
138.6542
20
6.7747
0
VERTEX
8
CUT
10
138.6086
20
6.8304
0
VERTEX
8
CUT
10
138.5666
20
6.8889
0
VERTEX
8
CUT
10
138.5286
20
6.9500
0
VERTEX
8
CUT
10
138.4947
20
7.0135
0
VERTEX
8
CUT
10
138.4650
20
7.0790
0
VERTEX
8
CUT
10
138.4396
20
7.1464
0
VERTEX
8
CUT
10
138.4187
20
7.2153
0
VERTEX
8
CUT
10
138.4024
20
7.2854
0
VERTEX
8
CUT
10
138.3907
20
7.3564
0
VERTEX
8
CUT
10
138.3836
20
7.4281
0
VERTEX
8
CUT
10
138.3813
20
7.5000
0
VERTEX
8
CUT
10
138.3836
20
7.5719
0
VERTEX
8
CUT
10
138.3907
20
7.6436
0
VERTEX
8
CUT
10
138.4024
20
7.7146
0
VERTEX
8
CUT
10
138.4187
20
7.7847
0
VERTEX
8
CUT
10
138.4396
20
7.8536
0
VERTEX
8
CUT
10
138.4650
20
7.9210
0
VERTEX
8
CUT
10
138.4947
20
7.9865
0
VERTEX
8
CUT
10
138.5286
20
8.0500
0
VERTEX
8
CUT
10
138.5666
20
8.1111
0
VERTEX
8
CUT
10
138.6086
20
8.1696
0
VERTEX
8
CUT
10
138.6542
20
8.2253
0
VERTEX
8
CUT
10
138.7034
20
8.2778
0
VERTEX
8
CUT
10
138.7560
20
8.3270
0
VERTEX
8
CUT
10
138.8116
20
8.3727
0
VERTEX
8
CUT
10
138.8701
20
8.4146
0
VERTEX
8
CUT
10
138.9312
20
8.4526
0
VERTEX
8
CUT
10
138.9947
20
8.4866
0
VERTEX
8
CUT
10
139.0603
20
8.5163
0
VERTEX
8
CUT
10
139.1277
20
8.5416
0
VERTEX
8
CUT
10
139.1965
20
8.5625
0
VERTEX
8
CUT
10
139.2667
20
8.5789
0
VERTEX
8
CUT
10
139.3377
20
8.5906
0
VERTEX
8
CUT
10
139.4093
20
8.5976
0
VERTEX
8
CUT
10
139.4813
20
8.6000
0
VERTEX
8
CUT
10
139.5532
20
8.5976
0
VERTEX
8
CUT
10
139.6248
20
8.5906
0
VERTEX
8
CUT
10
139.6958
20
8.5789
0
VERTEX
8
CUT
10
139.7660
20
8.5625
0
VERTEX
8
CUT
10
139.8348
20
8.5416
0
VERTEX
8
CUT
10
139.9022
20
8.5163
0
VERTEX
8
CUT
10
139.9678
20
8.4866
0
VERTEX
8
CUT
10
140.0312
20
8.4526
0
VERTEX
8
CUT
10
140.0924
20
8.4146
0
VERTEX
8
CUT
10
140.1509
20
8.3727
0
VERTEX
8
CUT
10
140.2065
20
8.3270
0
VERTEX
8
CUT
10
140.2591
20
8.2778
0
VERTEX
8
CUT
10
140.3083
20
8.2253
0
VERTEX
8
CUT
10
140.3539
20
8.1696
0
VERTEX
8
CUT
10
140.3959
20
8.1111
0
VERTEX
8
CUT
10
140.4339
20
8.0500
0
VERTEX
8
CUT
10
140.4678
20
7.9865
0
VERTEX
8
CUT
10
140.4975
20
7.9210
0
VERTEX
8
CUT
10
140.5229
20
7.8536
0
VERTEX
8
CUT
10
140.5438
20
7.7847
0
VERTEX
8
CUT
10
140.5601
20
7.7146
0
VERTEX
8
CUT
10
140.5718
20
7.6436
0
VERTEX
8
CUT
10
140.5789
20
7.5719
0
VERTEX
8
CUT
10
140.5812
20
7.5000
0
VERTEX
8
CUT
10
140.5789
20
7.4281
0
VERTEX
8
CUT
10
140.5718
20
7.3564
0
VERTEX
8
CUT
10
140.5601
20
7.2854
0
VERTEX
8
CUT
10
140.5438
20
7.2153
0
VERTEX
8
CUT
10
140.5229
20
7.1464
0
VERTEX
8
CUT
10
140.4975
20
7.0790
0
VERTEX
8
CUT
10
140.4678
20
7.0135
0
VERTEX
8
CUT
10
140.4339
20
6.9500
0
VERTEX
8
CUT
10
140.3959
20
6.8889
0
VERTEX
8
CUT
10
140.3539
20
6.8304
0
VERTEX
8
CUT
10
140.3083
20
6.7747
0
VERTEX
8
CUT
10
140.2591
20
6.7222
0
VERTEX
8
CUT
10
140.2065
20
6.6730
0
VERTEX
8
CUT
10
140.1509
20
6.6273
0
VERTEX
8
CUT
10
140.0924
20
6.5854
0
VERTEX
8
CUT
10
140.0312
20
6.5474
0
VERTEX
8
CUT
10
139.9678
20
6.5134
0
VERTEX
8
CUT
10
139.9022
20
6.4837
0
VERTEX
8
CUT
10
139.8348
20
6.4584
0
VERTEX
8
CUT
10
139.7660
20
6.4375
0
VERTEX
8
CUT
10
139.6958
20
6.4211
0
VERTEX
8
CUT
10
139.6248
20
6.4094
0
VERTEX
8
CUT
10
139.5532
20
6.4024
0
VERTEX
8
CUT
10
139.4813
20
6.4000
0
SEQEND
0
POLYLINE
8
CUT
66
1
70
1
0
VERTEX
8
CUT
10
-5.0824
20
3.9128
0
VERTEX
8
CUT
10
-5.1540
20
3.9198
0
VERTEX
8
CUT
10
-5.2250
20
3.9315
0
VERTEX
8
CUT
10
-5.2951
20
3.9479
0
VERTEX
8
CUT
10
-5.3640
20
3.9688
0
VERTEX
8
CUT
10
-5.4314
20
3.9941
0
VERTEX
8
CUT
10
-5.4969
20
4.0238
0
VERTEX
8
CUT
10
-5.5604
20
4.0578
0
VERTEX
8
CUT
10
-5.6215
20
4.0958
0
VERTEX
8
CUT
10
-5.6800
20
4.1377
0
VERTEX
8
CUT
10
-5.7357
20
4.1834
0
VERTEX
8
CUT
10
-5.7882
20
4.2326
0
VERTEX
8
CUT
10
-5.8374
20
4.2851
0
VERTEX
8
CUT
10
-5.8831
20
4.3408
0
VERTEX
8
CUT
10
-5.9250
20
4.3993
0
VERTEX
8
CUT
10
-5.9630
20
4.4604
0
VERTEX
8
CUT
10
-5.9970
20
4.5239
0
VERTEX
8
CUT
10
-6.0267
20
4.5895
0
VERTEX
8
CUT
10
-6.0520
20
4.6568
0
VERTEX
8
CUT
10
-6.0729
20
4.7257
0
VERTEX
8
CUT
10
-6.0893
20
4.7958
0
VERTEX
8
CUT
10
-6.1010
20
4.8668
0
VERTEX
8
CUT
10
-6.1081
20
4.9385
0
VERTEX
8
CUT
10
-6.1104
20
5.0104
0
VERTEX
8
CUT
10
-6.1081
20
5.0824
0
VERTEX
8
CUT
10
-6.1010
20
5.1540
0
VERTEX
8
CUT
10
-6.0893
20
5.2250
0
VERTEX
8
CUT
10
-6.0729
20
5.2951
0
VERTEX
8
CUT
10
-6.0520
20
5.3640
0
VERTEX
8
CUT
10
-6.0267
20
5.4314
0
VERTEX
8
CUT
10
-5.9970
20
5.4969
0
VERTEX
8
CUT
10
-5.9630
20
5.5604
0
VERTEX
8
CUT
10
-5.9250
20
5.6215
0
VERTEX
8
CUT
10
-5.8831
20
5.6800
0
VERTEX
8
CUT
10
-5.8374
20
5.7357
0
VERTEX
8
CUT
10
-5.7882
20
5.7882
0
VERTEX
8
CUT
10
-5.7357
20
5.8374
0
VERTEX
8
CUT
10
-5.6800
20
5.8831
0
VERTEX
8
CUT
10
-5.6215
20
5.9250
0
VERTEX
8
CUT
10
-5.5604
20
5.9630
0
VERTEX
8
CUT
10
-5.4969
20
5.9970
0
VERTEX
8
CUT
10
-5.4314
20
6.0267
0
VERTEX
8
CUT
10
-5.3640
20
6.0520
0
VERTEX
8
CUT
10
-5.2951
20
6.0729
0
VERTEX
8
CUT
10
-5.2250
20
6.0893
0
VERTEX
8
CUT
10
-5.1540
20
6.1010
0
VERTEX
8
CUT
10
-5.0824
20
6.1081
0
VERTEX
8
CUT
10
-5.0104
20
6.1104
0
VERTEX
8
CUT
10
-4.9385
20
6.1081
0
VERTEX
8
CUT
10
-4.8668
20
6.1010
0
VERTEX
8
CUT
10
-4.7958
20
6.0893
0
VERTEX
8
CUT
10
-4.7257
20
6.0729
0
VERTEX
8
CUT
10
-4.6568
20
6.0520
0
VERTEX
8
CUT
10
-4.5895
20
6.0267
0
VERTEX
8
CUT
10
-4.5239
20
5.9970
0
VERTEX
8
CUT
10
-4.4604
20
5.9630
0
VERTEX
8
CUT
10
-4.3993
20
5.9250
0
VERTEX
8
CUT
10
-4.3408
20
5.8831
0
VERTEX
8
CUT
10
-4.2851
20
5.8374
0
VERTEX
8
CUT
10
-4.2326
20
5.7882
0
VERTEX
8
CUT
10
-4.1834
20
5.7357
0
VERTEX
8
CUT
10
-4.1377
20
5.6800
0
VERTEX
8
CUT
10
-4.0958
20
5.6215
0
VERTEX
8
CUT
10
-4.0578
20
5.5604
0
VERTEX
8
CUT
10
-4.0238
20
5.4969
0
VERTEX
8
CUT
10
-3.9941
20
5.4314
0
VERTEX
8
CUT
10
-3.9688
20
5.3640
0
VERTEX
8
CUT
10
-3.9479
20
5.2951
0
VERTEX
8
CUT
10
-3.9315
20
5.2250
0
VERTEX
8
CUT
10
-3.9198
20
5.1540
0
VERTEX
8
CUT
10
-3.9128
20
5.0824
0
VERTEX
8
CUT
10
-3.9104
20
5.0104
0
VERTEX
8
CUT
10
-3.9128
20
4.9385
0
VERTEX
8
CUT
10
-3.9198
20
4.8668
0
VERTEX
8
CUT
10
-3.9315
20
4.7958
0
VERTEX
8
CUT
10
-3.9479
20
4.7257
0
VERTEX
8
CUT
10
-3.9688
20
4.6568
0
VERTEX
8
CUT
10
-3.9941
20
4.5895
0
VERTEX
8
CUT
10
-4.0238
20
4.5239
0
VERTEX
8
CUT
10
-4.0578
20
4.4604
0
VERTEX
8
CUT
10
-4.0958
20
4.3993
0
VERTEX
8
CUT
10
-4.1377
20
4.3408
0
VERTEX
8
CUT
10
-4.1834
20
4.2851
0
VERTEX
8
CUT
10
-4.2326
20
4.2326
0
VERTEX
8
CUT
10
-4.2851
20
4.1834
0
VERTEX
8
CUT
10
-4.3408
20
4.1377
0
VERTEX
8
CUT
10
-4.3993
20
4.0958
0
VERTEX
8
CUT
10
-4.4604
20
4.0578
0
VERTEX
8
CUT
10
-4.5239
20
4.0238
0
VERTEX
8
CUT
10
-4.5895
20
3.9941
0
VERTEX
8
CUT
10
-4.6568
20
3.9688
0
VERTEX
8
CUT
10
-4.7257
20
3.9479
0
VERTEX
8
CUT
10
-4.7958
20
3.9315
0
VERTEX
8
CUT
10
-4.8668
20
3.9198
0
VERTEX
8
CUT
10
-4.9385
20
3.9128
0
VERTEX
8
CUT
10
-5.0104
20
3.9104
0
SEQEND
0
POLYLINE
8
CUT
66
1
70
1
0
VERTEX
8
CUT
10
171.2300
20
0.3950
0
VERTEX
8
CUT
10
184.1200
20
0.3950
0
VERTEX
8
CUT
10
184.1200
20
-38.4950
0
VERTEX
8
CUT
10
171.2300
20
-38.4950
0
SEQEND
0
POLYLINE
8
CUT
66
1
70
1
0
VERTEX
8
CUT
10
188.4031
20
-3.7026
0
VERTEX
8
CUT
10
188.3314
20
-3.6956
0
VERTEX
8
CUT
10
188.2604
20
-3.6839
0
VERTEX
8
CUT
10
188.1903
20
-3.6675
0
VERTEX
8
CUT
10
188.1214
20
-3.6466
0
VERTEX
8
CUT
10
188.0540
20
-3.6213
0
VERTEX
8
CUT
10
187.9885
20
-3.5916
0
VERTEX
8
CUT
10
187.9250
20
-3.5576
0
VERTEX
8
CUT
10
187.8639
20
-3.5196
0
VERTEX
8
CUT
10
187.8054
20
-3.4777
0
VERTEX
8
CUT
10
187.7497
20
-3.4320
0
VERTEX
8
CUT
10
187.6972
20
-3.3828
0
VERTEX
8
CUT
10
187.6480
20
-3.3303
0
VERTEX
8
CUT
10
187.6023
20
-3.2746
0
VERTEX
8
CUT
10
187.5604
20
-3.2161
0
VERTEX
8
CUT
10
187.5224
20
-3.1550
0
VERTEX
8
CUT
10
187.4884
20
-3.0915
0
VERTEX
8
CUT
10
187.4587
20
-3.0260
0
VERTEX
8
CUT
10
187.4334
20
-2.9586
0
VERTEX
8
CUT
10
187.4125
20
-2.8897
0
VERTEX
8
CUT
10
187.3961
20
-2.8196
0
VERTEX
8
CUT
10
187.3844
20
-2.7486
0
VERTEX
8
CUT
10
187.3774
20
-2.6769
0
VERTEX
8
CUT
10
187.3750
20
-2.6050
0
VERTEX
8
CUT
10
187.3774
20
-2.5331
0
VERTEX
8
CUT
10
187.3844
20
-2.4614
0
VERTEX
8
CUT
10
187.3961
20
-2.3904
0
VERTEX
8
CUT
10
187.4125
20
-2.3203
0
VERTEX
8
CUT
10
187.4334
20
-2.2514
0
VERTEX
8
CUT
10
187.4587
20
-2.1840
0
VERTEX
8
CUT
10
187.4884
20
-2.1185
0
VERTEX
8
CUT
10
187.5224
20
-2.0550
0
VERTEX
8
CUT
10
187.5604
20
-1.9939
0
VERTEX
8
CUT
10
187.6023
20
-1.9354
0
VERTEX
8
CUT
10
187.6480
20
-1.8797
0
VERTEX
8
CUT
10
187.6972
20
-1.8272
0
VERTEX
8
CUT
10
187.7497
20
-1.7780
0
VERTEX
8
CUT
10
187.8054
20
-1.7323
0
VERTEX
8
CUT
10
187.8639
20
-1.6904
0
VERTEX
8
CUT
10
187.9250
20
-1.6524
0
VERTEX
8
CUT
10
187.9885
20
-1.6184
0
VERTEX
8
CUT
10
188.0540
20
-1.5887
0
VERTEX
8
CUT
10
188.1214
20
-1.5634
0
VERTEX
8
CUT
10
188.1903
20
-1.5425
0
VERTEX
8
CUT
10
188.2604
20
-1.5261
0
VERTEX
8
CUT
10
188.3314
20
-1.5144
0
VERTEX
8
CUT
10
188.4031
20
-1.5074
0
VERTEX
8
CUT
10
188.4750
20
-1.5050
0
VERTEX
8
CUT
10
188.5469
20
-1.5074
0
VERTEX
8
CUT
10
188.6186
20
-1.5144
0
VERTEX
8
CUT
10
188.6896
20
-1.5261
0
VERTEX
8
CUT
10
188.7597
20
-1.5425
0
VERTEX
8
CUT
10
188.8286
20
-1.5634
0
VERTEX
8
CUT
10
188.8960
20
-1.5887
0
VERTEX
8
CUT
10
188.9615
20
-1.6184
0
VERTEX
8
CUT
10
189.0250
20
-1.6524
0
VERTEX
8
CUT
10
189.0861
20
-1.6904
0
VERTEX
8
CUT
10
189.1446
20
-1.7323
0
VERTEX
8
CUT
10
189.2003
20
-1.7780
0
VERTEX
8
CUT
10
189.2528
20
-1.8272
0
VERTEX
8
CUT
10
189.3020
20
-1.8797
0
VERTEX
8
CUT
10
189.3477
20
-1.9354
0
VERTEX
8
CUT
10
189.3896
20
-1.9939
0
VERTEX
8
CUT
10
189.4276
20
-2.0550
0
VERTEX
8
CUT
10
189.4616
20
-2.1185
0
VERTEX
8
CUT
10
189.4913
20
-2.1840
0
VERTEX
8
CUT
10
189.5166
20
-2.2514
0
VERTEX
8
CUT
10
189.5375
20
-2.3203
0
VERTEX
8
CUT
10
189.5539
20
-2.3904
0
VERTEX
8
CUT
10
189.5656
20
-2.4614
0
VERTEX
8
CUT
10
189.5726
20
-2.5331
0
VERTEX
8
CUT
10
189.5750
20
-2.6050
0
VERTEX
8
CUT
10
189.5726
20
-2.6769
0
VERTEX
8
CUT
10
189.5656
20
-2.7486
0
VERTEX
8
CUT
10
189.5539
20
-2.8196
0
VERTEX
8
CUT
10
189.5375
20
-2.8897
0
VERTEX
8
CUT
10
189.5166
20
-2.9586
0
VERTEX
8
CUT
10
189.4913
20
-3.0260
0
VERTEX
8
CUT
10
189.4616
20
-3.0915
0
VERTEX
8
CUT
10
189.4276
20
-3.1550
0
VERTEX
8
CUT
10
189.3896
20
-3.2161
0
VERTEX
8
CUT
10
189.3477
20
-3.2746
0
VERTEX
8
CUT
10
189.3020
20
-3.3303
0
VERTEX
8
CUT
10
189.2528
20
-3.3828
0
VERTEX
8
CUT
10
189.2003
20
-3.4320
0
VERTEX
8
CUT
10
189.1446
20
-3.4777
0
VERTEX
8
CUT
10
189.0861
20
-3.5196
0
VERTEX
8
CUT
10
189.0250
20
-3.5576
0
VERTEX
8
CUT
10
188.9615
20
-3.5916
0
VERTEX
8
CUT
10
188.8960
20
-3.6213
0
VERTEX
8
CUT
10
188.8286
20
-3.6466
0
VERTEX
8
CUT
10
188.7597
20
-3.6675
0
VERTEX
8
CUT
10
188.6896
20
-3.6839
0
VERTEX
8
CUT
10
188.6186
20
-3.6956
0
VERTEX
8
CUT
10
188.5469
20
-3.7026
0
VERTEX
8
CUT
10
188.4750
20
-3.7050
0
SEQEND
0
POLYLINE
8
CUT
66
1
70
1
0
VERTEX
8
CUT
10
2.5250
20
-2.5250
0
VERTEX
8
CUT
10
16.5250
20
-2.5250
0
VERTEX
8
CUT
10
16.5250
20
-16.5250
0
VERTEX
8
CUT
10
2.5250
20
-16.5250
0
SEQEND
0
POLYLINE
8
CUT
66
1
70
1
0
VERTEX
8
CUT
10
21.5750
20
-2.5250
0
VERTEX
8
CUT
10
35.5750
20
-2.5250
0
VERTEX
8
CUT
10
35.5750
20
-16.5250
0
VERTEX
8
CUT
10
21.5750
20
-16.5250
0
SEQEND
0
POLYLINE
8
CUT
66
1
70
1
0
VERTEX
8
CUT
10
40.6250
20
-2.5250
0
VERTEX
8
CUT
10
54.6250
20
-2.5250
0
VERTEX
8
CUT
10
54.6250
20
-16.5250
0
VERTEX
8
CUT
10
40.6250
20
-16.5250
0
SEQEND
0
POLYLINE
8
CUT
66
1
70
1
0
VERTEX
8
CUT
10
59.6750
20
-2.5250
0
VERTEX
8
CUT
10
73.6750
20
-2.5250
0
VERTEX
8
CUT
10
73.6750
20
-16.5250
0
VERTEX
8
CUT
10
59.6750
20
-16.5250
0
SEQEND
0
POLYLINE
8
CUT
66
1
70
1
0
VERTEX
8
CUT
10
78.7250
20
-2.5250
0
VERTEX
8
CUT
10
92.7250
20
-2.5250
0
VERTEX
8
CUT
10
92.7250
20
-16.5250
0
VERTEX
8
CUT
10
78.7250
20
-16.5250
0
SEQEND
0
POLYLINE
8
CUT
66
1
70
1
0
VERTEX
8
CUT
10
97.7750
20
-2.5250
0
VERTEX
8
CUT
10
111.7750
20
-2.5250
0
VERTEX
8
CUT
10
111.7750
20
-16.5250
0
VERTEX
8
CUT
10
97.7750
20
-16.5250
0
SEQEND
0
POLYLINE
8
CUT
66
1
70
1
0
VERTEX
8
CUT
10
116.8250
20
-2.5250
0
VERTEX
8
CUT
10
130.8250
20
-2.5250
0
VERTEX
8
CUT
10
130.8250
20
-16.5250
0
VERTEX
8
CUT
10
116.8250
20
-16.5250
0
SEQEND
0
POLYLINE
8
CUT
66
1
70
1
0
VERTEX
8
CUT
10
135.8750
20
-2.5250
0
VERTEX
8
CUT
10
149.8750
20
-2.5250
0
VERTEX
8
CUT
10
149.8750
20
-16.5250
0
VERTEX
8
CUT
10
135.8750
20
-16.5250
0
SEQEND
0
POLYLINE
8
CUT
66
1
70
1
0
VERTEX
8
CUT
10
2.5250
20
-21.5750
0
VERTEX
8
CUT
10
16.5250
20
-21.5750
0
VERTEX
8
CUT
10
16.5250
20
-35.5750
0
VERTEX
8
CUT
10
2.5250
20
-35.5750
0
SEQEND
0
POLYLINE
8
CUT
66
1
70
1
0
VERTEX
8
CUT
10
21.5750
20
-21.5750
0
VERTEX
8
CUT
10
35.5750
20
-21.5750
0
VERTEX
8
CUT
10
35.5750
20
-35.5750
0
VERTEX
8
CUT
10
21.5750
20
-35.5750
0
SEQEND
0
POLYLINE
8
CUT
66
1
70
1
0
VERTEX
8
CUT
10
40.6250
20
-21.5750
0
VERTEX
8
CUT
10
54.6250
20
-21.5750
0
VERTEX
8
CUT
10
54.6250
20
-35.5750
0
VERTEX
8
CUT
10
40.6250
20
-35.5750
0
SEQEND
0
POLYLINE
8
CUT
66
1
70
1
0
VERTEX
8
CUT
10
59.6750
20
-21.5750
0
VERTEX
8
CUT
10
73.6750
20
-21.5750
0
VERTEX
8
CUT
10
73.6750
20
-35.5750
0
VERTEX
8
CUT
10
59.6750
20
-35.5750
0
SEQEND
0
POLYLINE
8
CUT
66
1
70
1
0
VERTEX
8
CUT
10
78.7250
20
-21.5750
0
VERTEX
8
CUT
10
92.7250
20
-21.5750
0
VERTEX
8
CUT
10
92.7250
20
-35.5750
0
VERTEX
8
CUT
10
78.7250
20
-35.5750
0
SEQEND
0
POLYLINE
8
CUT
66
1
70
1
0
VERTEX
8
CUT
10
97.7750
20
-21.5750
0
VERTEX
8
CUT
10
111.7750
20
-21.5750
0
VERTEX
8
CUT
10
111.7750
20
-35.5750
0
VERTEX
8
CUT
10
97.7750
20
-35.5750
0
SEQEND
0
POLYLINE
8
CUT
66
1
70
1
0
VERTEX
8
CUT
10
116.8250
20
-21.5750
0
VERTEX
8
CUT
10
130.8250
20
-21.5750
0
VERTEX
8
CUT
10
130.8250
20
-35.5750
0
VERTEX
8
CUT
10
116.8250
20
-35.5750
0
SEQEND
0
POLYLINE
8
CUT
66
1
70
1
0
VERTEX
8
CUT
10
135.8750
20
-21.5750
0
VERTEX
8
CUT
10
149.8750
20
-21.5750
0
VERTEX
8
CUT
10
149.8750
20
-35.5750
0
VERTEX
8
CUT
10
135.8750
20
-35.5750
0
SEQEND
0
POLYLINE
8
CUT
66
1
70
1
0
VERTEX
8
CUT
10
188.4031
20
-36.2026
0
VERTEX
8
CUT
10
188.3314
20
-36.1956
0
VERTEX
8
CUT
10
188.2604
20
-36.1839
0
VERTEX
8
CUT
10
188.1903
20
-36.1675
0
VERTEX
8
CUT
10
188.1214
20
-36.1466
0
VERTEX
8
CUT
10
188.0540
20
-36.1213
0
VERTEX
8
CUT
10
187.9885
20
-36.0916
0
VERTEX
8
CUT
10
187.9250
20
-36.0576
0
VERTEX
8
CUT
10
187.8639
20
-36.0196
0
VERTEX
8
CUT
10
187.8054
20
-35.9777
0
VERTEX
8
CUT
10
187.7497
20
-35.9320
0
VERTEX
8
CUT
10
187.6972
20
-35.8828
0
VERTEX
8
CUT
10
187.6480
20
-35.8303
0
VERTEX
8
CUT
10
187.6023
20
-35.7746
0
VERTEX
8
CUT
10
187.5604
20
-35.7161
0
VERTEX
8
CUT
10
187.5224
20
-35.6550
0
VERTEX
8
CUT
10
187.4884
20
-35.5915
0
VERTEX
8
CUT
10
187.4587
20
-35.5260
0
VERTEX
8
CUT
10
187.4334
20
-35.4586
0
VERTEX
8
CUT
10
187.4125
20
-35.3897
0
VERTEX
8
CUT
10
187.3961
20
-35.3196
0
VERTEX
8
CUT
10
187.3844
20
-35.2486
0
VERTEX
8
CUT
10
187.3774
20
-35.1769
0
VERTEX
8
CUT
10
187.3750
20
-35.1050
0
VERTEX
8
CUT
10
187.3774
20
-35.0331
0
VERTEX
8
CUT
10
187.3844
20
-34.9614
0
VERTEX
8
CUT
10
187.3961
20
-34.8904
0
VERTEX
8
CUT
10
187.4125
20
-34.8203
0
VERTEX
8
CUT
10
187.4334
20
-34.7514
0
VERTEX
8
CUT
10
187.4587
20
-34.6840
0
VERTEX
8
CUT
10
187.4884
20
-34.6185
0
VERTEX
8
CUT
10
187.5224
20
-34.5550
0
VERTEX
8
CUT
10
187.5604
20
-34.4939
0
VERTEX
8
CUT
10
187.6023
20
-34.4354
0
VERTEX
8
CUT
10
187.6480
20
-34.3797
0
VERTEX
8
CUT
10
187.6972
20
-34.3272
0
VERTEX
8
CUT
10
187.7497
20
-34.2780
0
VERTEX
8
CUT
10
187.8054
20
-34.2323
0
VERTEX
8
CUT
10
187.8639
20
-34.1904
0
VERTEX
8
CUT
10
187.9250
20
-34.1524
0
VERTEX
8
CUT
10
187.9885
20
-34.1184
0
VERTEX
8
CUT
10
188.0540
20
-34.0887
0
VERTEX
8
CUT
10
188.1214
20
-34.0634
0
VERTEX
8
CUT
10
188.1903
20
-34.0425
0
VERTEX
8
CUT
10
188.2604
20
-34.0261
0
VERTEX
8
CUT
10
188.3314
20
-34.0144
0
VERTEX
8
CUT
10
188.4031
20
-34.0074
0
VERTEX
8
CUT
10
188.4750
20
-34.0050
0
VERTEX
8
CUT
10
188.5469
20
-34.0074
0
VERTEX
8
CUT
10
188.6186
20
-34.0144
0
VERTEX
8
CUT
10
188.6896
20
-34.0261
0
VERTEX
8
CUT
10
188.7597
20
-34.0425
0
VERTEX
8
CUT
10
188.8286
20
-34.0634
0
VERTEX
8
CUT
10
188.8960
20
-34.0887
0
VERTEX
8
CUT
10
188.9615
20
-34.1184
0
VERTEX
8
CUT
10
189.0250
20
-34.1524
0
VERTEX
8
CUT
10
189.0861
20
-34.1904
0
VERTEX
8
CUT
10
189.1446
20
-34.2323
0
VERTEX
8
CUT
10
189.2003
20
-34.2780
0
VERTEX
8
CUT
10
189.2528
20
-34.3272
0
VERTEX
8
CUT
10
189.3020
20
-34.3797
0
VERTEX
8
CUT
10
189.3477
20
-34.4354
0
VERTEX
8
CUT
10
189.3896
20
-34.4939
0
VERTEX
8
CUT
10
189.4276
20
-34.5550
0
VERTEX
8
CUT
10
189.4616
20
-34.6185
0
VERTEX
8
CUT
10
189.4913
20
-34.6840
0
VERTEX
8
CUT
10
189.5166
20
-34.7514
0
VERTEX
8
CUT
10
189.5375
20
-34.8203
0
VERTEX
8
CUT
10
189.5539
20
-34.8904
0
VERTEX
8
CUT
10
189.5656
20
-34.9614
0
VERTEX
8
CUT
10
189.5726
20
-35.0331
0
VERTEX
8
CUT
10
189.5750
20
-35.1050
0
VERTEX
8
CUT
10
189.5726
20
-35.1769
0
VERTEX
8
CUT
10
189.5656
20
-35.2486
0
VERTEX
8
CUT
10
189.5539
20
-35.3196
0
VERTEX
8
CUT
10
189.5375
20
-35.3897
0
VERTEX
8
CUT
10
189.5166
20
-35.4586
0
VERTEX
8
CUT
10
189.4913
20
-35.5260
0
VERTEX
8
CUT
10
189.4616
20
-35.5915
0
VERTEX
8
CUT
10
189.4276
20
-35.6550
0
VERTEX
8
CUT
10
189.3896
20
-35.7161
0
VERTEX
8
CUT
10
189.3477
20
-35.7746
0
VERTEX
8
CUT
10
189.3020
20
-35.8303
0
VERTEX
8
CUT
10
189.2528
20
-35.8828
0
VERTEX
8
CUT
10
189.2003
20
-35.9320
0
VERTEX
8
CUT
10
189.1446
20
-35.9777
0
VERTEX
8
CUT
10
189.0861
20
-36.0196
0
VERTEX
8
CUT
10
189.0250
20
-36.0576
0
VERTEX
8
CUT
10
188.9615
20
-36.0916
0
VERTEX
8
CUT
10
188.8960
20
-36.1213
0
VERTEX
8
CUT
10
188.8286
20
-36.1466
0
VERTEX
8
CUT
10
188.7597
20
-36.1675
0
VERTEX
8
CUT
10
188.6896
20
-36.1839
0
VERTEX
8
CUT
10
188.6186
20
-36.1956
0
VERTEX
8
CUT
10
188.5469
20
-36.2026
0
VERTEX
8
CUT
10
188.4750
20
-36.2050
0
SEQEND
0
POLYLINE
8
CUT
66
1
70
1
0
VERTEX
8
CUT
10
7.2880
20
-40.6250
0
VERTEX
8
CUT
10
21.2880
20
-40.6250
0
VERTEX
8
CUT
10
21.2880
20
-54.6250
0
VERTEX
8
CUT
10
7.2880
20
-54.6250
0
SEQEND
0
POLYLINE
8
CUT
66
1
70
1
0
VERTEX
8
CUT
10
31.1000
20
-40.6250
0
VERTEX
8
CUT
10
45.1000
20
-40.6250
0
VERTEX
8
CUT
10
45.1000
20
-54.6250
0
VERTEX
8
CUT
10
31.1000
20
-54.6250
0
SEQEND
0
POLYLINE
8
CUT
66
1
70
1
0
VERTEX
8
CUT
10
50.1500
20
-40.6250
0
VERTEX
8
CUT
10
64.1500
20
-40.6250
0
VERTEX
8
CUT
10
64.1500
20
-54.6250
0
VERTEX
8
CUT
10
50.1500
20
-54.6250
0
SEQEND
0
POLYLINE
8
CUT
66
1
70
1
0
VERTEX
8
CUT
10
69.2000
20
-40.6250
0
VERTEX
8
CUT
10
83.2000
20
-40.6250
0
VERTEX
8
CUT
10
83.2000
20
-54.6250
0
VERTEX
8
CUT
10
69.2000
20
-54.6250
0
SEQEND
0
POLYLINE
8
CUT
66
1
70
1
0
VERTEX
8
CUT
10
88.2500
20
-40.6250
0
VERTEX
8
CUT
10
102.2500
20
-40.6250
0
VERTEX
8
CUT
10
102.2500
20
-54.6250
0
VERTEX
8
CUT
10
88.2500
20
-54.6250
0
SEQEND
0
POLYLINE
8
CUT
66
1
70
1
0
VERTEX
8
CUT
10
107.3000
20
-40.6250
0
VERTEX
8
CUT
10
121.3000
20
-40.6250
0
VERTEX
8
CUT
10
121.3000
20
-54.6250
0
VERTEX
8
CUT
10
107.3000
20
-54.6250
0
SEQEND
0
POLYLINE
8
CUT
66
1
70
1
0
VERTEX
8
CUT
10
126.3500
20
-40.6250
0
VERTEX
8
CUT
10
140.3500
20
-40.6250
0
VERTEX
8
CUT
10
140.3500
20
-54.6250
0
VERTEX
8
CUT
10
126.3500
20
-54.6250
0
SEQEND
0
POLYLINE
8
CUT
66
1
70
1
0
VERTEX
8
CUT
10
-7.5719
20
-58.2476
0
VERTEX
8
CUT
10
-7.6436
20
-58.2406
0
VERTEX
8
CUT
10
-7.7146
20
-58.2289
0
VERTEX
8
CUT
10
-7.7847
20
-58.2125
0
VERTEX
8
CUT
10
-7.8536
20
-58.1916
0
VERTEX
8
CUT
10
-7.9210
20
-58.1663
0
VERTEX
8
CUT
10
-7.9865
20
-58.1366
0
VERTEX
8
CUT
10
-8.0500
20
-58.1026
0
VERTEX
8
CUT
10
-8.1111
20
-58.0646
0
VERTEX
8
CUT
10
-8.1696
20
-58.0227
0
VERTEX
8
CUT
10
-8.2253
20
-57.9770
0
VERTEX
8
CUT
10
-8.2778
20
-57.9278
0
VERTEX
8
CUT
10
-8.3270
20
-57.8753
0
VERTEX
8
CUT
10
-8.3727
20
-57.8196
0
VERTEX
8
CUT
10
-8.4146
20
-57.7611
0
VERTEX
8
CUT
10
-8.4526
20
-57.7000
0
VERTEX
8
CUT
10
-8.4866
20
-57.6365
0
VERTEX
8
CUT
10
-8.5163
20
-57.5710
0
VERTEX
8
CUT
10
-8.5416
20
-57.5036
0
VERTEX
8
CUT
10
-8.5625
20
-57.4347
0
VERTEX
8
CUT
10
-8.5789
20
-57.3646
0
VERTEX
8
CUT
10
-8.5906
20
-57.2936
0
VERTEX
8
CUT
10
-8.5976
20
-57.2219
0
VERTEX
8
CUT
10
-8.6000
20
-57.1500
0
VERTEX
8
CUT
10
-8.5976
20
-57.0781
0
VERTEX
8
CUT
10
-8.5906
20
-57.0064
0
VERTEX
8
CUT
10
-8.5789
20
-56.9354
0
VERTEX
8
CUT
10
-8.5625
20
-56.8653
0
VERTEX
8
CUT
10
-8.5416
20
-56.7964
0
VERTEX
8
CUT
10
-8.5163
20
-56.7290
0
VERTEX
8
CUT
10
-8.4866
20
-56.6635
0
VERTEX
8
CUT
10
-8.4526
20
-56.6000
0
VERTEX
8
CUT
10
-8.4146
20
-56.5389
0
VERTEX
8
CUT
10
-8.3727
20
-56.4804
0
VERTEX
8
CUT
10
-8.3270
20
-56.4247
0
VERTEX
8
CUT
10
-8.2778
20
-56.3722
0
VERTEX
8
CUT
10
-8.2253
20
-56.3230
0
VERTEX
8
CUT
10
-8.1696
20
-56.2773
0
VERTEX
8
CUT
10
-8.1111
20
-56.2354
0
VERTEX
8
CUT
10
-8.0500
20
-56.1974
0
VERTEX
8
CUT
10
-7.9865
20
-56.1634
0
VERTEX
8
CUT
10
-7.9210
20
-56.1337
0
VERTEX
8
CUT
10
-7.8536
20
-56.1084
0
VERTEX
8
CUT
10
-7.7847
20
-56.0875
0
VERTEX
8
CUT
10
-7.7146
20
-56.0711
0
VERTEX
8
CUT
10
-7.6436
20
-56.0594
0
VERTEX
8
CUT
10
-7.5719
20
-56.0524
0
VERTEX
8
CUT
10
-7.5000
20
-56.0500
0
VERTEX
8
CUT
10
-7.4281
20
-56.0524
0
VERTEX
8
CUT
10
-7.3564
20
-56.0594
0
VERTEX
8
CUT
10
-7.2854
20
-56.0711
0
VERTEX
8
CUT
10
-7.2153
20
-56.0875
0
VERTEX
8
CUT
10
-7.1464
20
-56.1084
0
VERTEX
8
CUT
10
-7.0790
20
-56.1337
0
VERTEX
8
CUT
10
-7.0135
20
-56.1634
0
VERTEX
8
CUT
10
-6.9500
20
-56.1974
0
VERTEX
8
CUT
10
-6.8889
20
-56.2354
0
VERTEX
8
CUT
10
-6.8304
20
-56.2773
0
VERTEX
8
CUT
10
-6.7747
20
-56.3230
0
VERTEX
8
CUT
10
-6.7222
20
-56.3722
0
VERTEX
8
CUT
10
-6.6730
20
-56.4247
0
VERTEX
8
CUT
10
-6.6273
20
-56.4804
0
VERTEX
8
CUT
10
-6.5854
20
-56.5389
0
VERTEX
8
CUT
10
-6.5474
20
-56.6000
0
VERTEX
8
CUT
10
-6.5134
20
-56.6635
0
VERTEX
8
CUT
10
-6.4837
20
-56.7290
0
VERTEX
8
CUT
10
-6.4584
20
-56.7964
0
VERTEX
8
CUT
10
-6.4375
20
-56.8653
0
VERTEX
8
CUT
10
-6.4211
20
-56.9354
0
VERTEX
8
CUT
10
-6.4094
20
-57.0064
0
VERTEX
8
CUT
10
-6.4024
20
-57.0781
0
VERTEX
8
CUT
10
-6.4000
20
-57.1500
0
VERTEX
8
CUT
10
-6.4024
20
-57.2219
0
VERTEX
8
CUT
10
-6.4094
20
-57.2936
0
VERTEX
8
CUT
10
-6.4211
20
-57.3646
0
VERTEX
8
CUT
10
-6.4375
20
-57.4347
0
VERTEX
8
CUT
10
-6.4584
20
-57.5036
0
VERTEX
8
CUT
10
-6.4837
20
-57.5710
0
VERTEX
8
CUT
10
-6.5134
20
-57.6365
0
VERTEX
8
CUT
10
-6.5474
20
-57.7000
0
VERTEX
8
CUT
10
-6.5854
20
-57.7611
0
VERTEX
8
CUT
10
-6.6273
20
-57.8196
0
VERTEX
8
CUT
10
-6.6730
20
-57.8753
0
VERTEX
8
CUT
10
-6.7222
20
-57.9278
0
VERTEX
8
CUT
10
-6.7747
20
-57.9770
0
VERTEX
8
CUT
10
-6.8304
20
-58.0227
0
VERTEX
8
CUT
10
-6.8889
20
-58.0646
0
VERTEX
8
CUT
10
-6.9500
20
-58.1026
0
VERTEX
8
CUT
10
-7.0135
20
-58.1366
0
VERTEX
8
CUT
10
-7.0790
20
-58.1663
0
VERTEX
8
CUT
10
-7.1464
20
-58.1916
0
VERTEX
8
CUT
10
-7.2153
20
-58.2125
0
VERTEX
8
CUT
10
-7.2854
20
-58.2289
0
VERTEX
8
CUT
10
-7.3564
20
-58.2406
0
VERTEX
8
CUT
10
-7.4281
20
-58.2476
0
VERTEX
8
CUT
10
-7.5000
20
-58.2500
0
SEQEND
0
POLYLINE
8
CUT
66
1
70
1
0
VERTEX
8
CUT
10
9.6690
20
-59.6750
0
VERTEX
8
CUT
10
23.6690
20
-59.6750
0
VERTEX
8
CUT
10
23.6690
20
-73.6750
0
VERTEX
8
CUT
10
9.6690
20
-73.6750
0
SEQEND
0
POLYLINE
8
CUT
66
1
70
1
0
VERTEX
8
CUT
10
35.8630
20
-59.6750
0
VERTEX
8
CUT
10
49.8630
20
-59.6750
0
VERTEX
8
CUT
10
49.8630
20
-73.6750
0
VERTEX
8
CUT
10
35.8630
20
-73.6750
0
SEQEND
0
POLYLINE
8
CUT
66
1
70
1
0
VERTEX
8
CUT
10
54.9130
20
-59.6750
0
VERTEX
8
CUT
10
68.9130
20
-59.6750
0
VERTEX
8
CUT
10
68.9130
20
-73.6750
0
VERTEX
8
CUT
10
54.9130
20
-73.6750
0
SEQEND
0
POLYLINE
8
CUT
66
1
70
1
0
VERTEX
8
CUT
10
73.9630
20
-59.6750
0
VERTEX
8
CUT
10
87.9630
20
-59.6750
0
VERTEX
8
CUT
10
87.9630
20
-73.6750
0
VERTEX
8
CUT
10
73.9630
20
-73.6750
0
SEQEND
0
POLYLINE
8
CUT
66
1
70
1
0
VERTEX
8
CUT
10
93.0130
20
-59.6750
0
VERTEX
8
CUT
10
107.0130
20
-59.6750
0
VERTEX
8
CUT
10
107.0130
20
-73.6750
0
VERTEX
8
CUT
10
93.0130
20
-73.6750
0
SEQEND
0
POLYLINE
8
CUT
66
1
70
1
0
VERTEX
8
CUT
10
112.0620
20
-59.6750
0
VERTEX
8
CUT
10
126.0620
20
-59.6750
0
VERTEX
8
CUT
10
126.0620
20
-73.6750
0
VERTEX
8
CUT
10
112.0620
20
-73.6750
0
SEQEND
0
POLYLINE
8
CUT
66
1
70
1
0
VERTEX
8
CUT
10
131.1130
20
-59.6750
0
VERTEX
8
CUT
10
145.1130
20
-59.6750
0
VERTEX
8
CUT
10
145.1130
20
-73.6750
0
VERTEX
8
CUT
10
131.1130
20
-73.6750
0
SEQEND
0
POLYLINE
8
CUT
66
1
70
1
0
VERTEX
8
CUT
10
5.9930
20
-78.5250
0
VERTEX
8
CUT
10
12.9930
20
-78.5250
0
VERTEX
8
CUT
10
12.9930
20
-93.9250
0
VERTEX
8
CUT
10
5.9930
20
-93.9250
0
SEQEND
0
POLYLINE
8
CUT
66
1
70
1
0
VERTEX
8
CUT
10
29.8690
20
-78.5250
0
VERTEX
8
CUT
10
36.8690
20
-78.5250
0
VERTEX
8
CUT
10
36.8690
20
-93.9250
0
VERTEX
8
CUT
10
29.8690
20
-93.9250
0
SEQEND
0
POLYLINE
8
CUT
66
1
70
1
0
VERTEX
8
CUT
10
14.4310
20
-78.7250
0
VERTEX
8
CUT
10
28.4310
20
-78.7250
0
VERTEX
8
CUT
10
28.4310
20
-92.7250
0
VERTEX
8
CUT
10
14.4310
20
-92.7250
0
SEQEND
0
POLYLINE
8
CUT
66
1
70
1
0
VERTEX
8
CUT
10
45.3880
20
-78.7250
0
VERTEX
8
CUT
10
59.3880
20
-78.7250
0
VERTEX
8
CUT
10
59.3880
20
-92.7250
0
VERTEX
8
CUT
10
45.3880
20
-92.7250
0
SEQEND
0
POLYLINE
8
CUT
66
1
70
1
0
VERTEX
8
CUT
10
64.4380
20
-78.7250
0
VERTEX
8
CUT
10
78.4380
20
-78.7250
0
VERTEX
8
CUT
10
78.4380
20
-92.7250
0
VERTEX
8
CUT
10
64.4380
20
-92.7250
0
SEQEND
0
POLYLINE
8
CUT
66
1
70
1
0
VERTEX
8
CUT
10
83.4870
20
-78.7250
0
VERTEX
8
CUT
10
97.4870
20
-78.7250
0
VERTEX
8
CUT
10
97.4870
20
-92.7250
0
VERTEX
8
CUT
10
83.4870
20
-92.7250
0
SEQEND
0
POLYLINE
8
CUT
66
1
70
1
0
VERTEX
8
CUT
10
102.5380
20
-78.7250
0
VERTEX
8
CUT
10
116.5380
20
-78.7250
0
VERTEX
8
CUT
10
116.5380
20
-92.7250
0
VERTEX
8
CUT
10
102.5380
20
-92.7250
0
SEQEND
0
POLYLINE
8
CUT
66
1
70
1
0
VERTEX
8
CUT
10
121.5880
20
-78.7250
0
VERTEX
8
CUT
10
135.5880
20
-78.7250
0
VERTEX
8
CUT
10
135.5880
20
-92.7250
0
VERTEX
8
CUT
10
121.5880
20
-92.7250
0
SEQEND
0
POLYLINE
8
CUT
66
1
70
1
0
VERTEX
8
CUT
10
140.6380
20
-78.7250
0
VERTEX
8
CUT
10
154.6380
20
-78.7250
0
VERTEX
8
CUT
10
154.6380
20
-92.7250
0
VERTEX
8
CUT
10
140.6380
20
-92.7250
0
SEQEND
0
POLYLINE
8
CUT
66
1
70
1
0
VERTEX
8
CUT
10
188.4031
20
-96.4501
0
VERTEX
8
CUT
10
188.3314
20
-96.4431
0
VERTEX
8
CUT
10
188.2604
20
-96.4314
0
VERTEX
8
CUT
10
188.1903
20
-96.4150
0
VERTEX
8
CUT
10
188.1214
20
-96.3941
0
VERTEX
8
CUT
10
188.0540
20
-96.3688
0
VERTEX
8
CUT
10
187.9885
20
-96.3391
0
VERTEX
8
CUT
10
187.9250
20
-96.3051
0
VERTEX
8
CUT
10
187.8639
20
-96.2671
0
VERTEX
8
CUT
10
187.8054
20
-96.2252
0
VERTEX
8
CUT
10
187.7497
20
-96.1795
0
VERTEX
8
CUT
10
187.6972
20
-96.1303
0
VERTEX
8
CUT
10
187.6480
20
-96.0778
0
VERTEX
8
CUT
10
187.6023
20
-96.0221
0
VERTEX
8
CUT
10
187.5604
20
-95.9636
0
VERTEX
8
CUT
10
187.5224
20
-95.9025
0
VERTEX
8
CUT
10
187.4884
20
-95.8390
0
VERTEX
8
CUT
10
187.4587
20
-95.7735
0
VERTEX
8
CUT
10
187.4334
20
-95.7061
0
VERTEX
8
CUT
10
187.4125
20
-95.6372
0
VERTEX
8
CUT
10
187.3961
20
-95.5671
0
VERTEX
8
CUT
10
187.3844
20
-95.4961
0
VERTEX
8
CUT
10
187.3774
20
-95.4244
0
VERTEX
8
CUT
10
187.3750
20
-95.3525
0
VERTEX
8
CUT
10
187.3774
20
-95.2806
0
VERTEX
8
CUT
10
187.3844
20
-95.2089
0
VERTEX
8
CUT
10
187.3961
20
-95.1379
0
VERTEX
8
CUT
10
187.4125
20
-95.0678
0
VERTEX
8
CUT
10
187.4334
20
-94.9989
0
VERTEX
8
CUT
10
187.4587
20
-94.9315
0
VERTEX
8
CUT
10
187.4884
20
-94.8660
0
VERTEX
8
CUT
10
187.5224
20
-94.8025
0
VERTEX
8
CUT
10
187.5604
20
-94.7414
0
VERTEX
8
CUT
10
187.6023
20
-94.6829
0
VERTEX
8
CUT
10
187.6480
20
-94.6272
0
VERTEX
8
CUT
10
187.6972
20
-94.5747
0
VERTEX
8
CUT
10
187.7497
20
-94.5255
0
VERTEX
8
CUT
10
187.8054
20
-94.4798
0
VERTEX
8
CUT
10
187.8639
20
-94.4379
0
VERTEX
8
CUT
10
187.9250
20
-94.3999
0
VERTEX
8
CUT
10
187.9885
20
-94.3659
0
VERTEX
8
CUT
10
188.0540
20
-94.3362
0
VERTEX
8
CUT
10
188.1214
20
-94.3109
0
VERTEX
8
CUT
10
188.1903
20
-94.2900
0
VERTEX
8
CUT
10
188.2604
20
-94.2736
0
VERTEX
8
CUT
10
188.3314
20
-94.2619
0
VERTEX
8
CUT
10
188.4031
20
-94.2549
0
VERTEX
8
CUT
10
188.4750
20
-94.2525
0
VERTEX
8
CUT
10
188.5469
20
-94.2549
0
VERTEX
8
CUT
10
188.6186
20
-94.2619
0
VERTEX
8
CUT
10
188.6896
20
-94.2736
0
VERTEX
8
CUT
10
188.7597
20
-94.2900
0
VERTEX
8
CUT
10
188.8286
20
-94.3109
0
VERTEX
8
CUT
10
188.8960
20
-94.3362
0
VERTEX
8
CUT
10
188.9615
20
-94.3659
0
VERTEX
8
CUT
10
189.0250
20
-94.3999
0
VERTEX
8
CUT
10
189.0861
20
-94.4379
0
VERTEX
8
CUT
10
189.1446
20
-94.4798
0
VERTEX
8
CUT
10
189.2003
20
-94.5255
0
VERTEX
8
CUT
10
189.2528
20
-94.5747
0
VERTEX
8
CUT
10
189.3020
20
-94.6272
0
VERTEX
8
CUT
10
189.3477
20
-94.6829
0
VERTEX
8
CUT
10
189.3896
20
-94.7414
0
VERTEX
8
CUT
10
189.4276
20
-94.8025
0
VERTEX
8
CUT
10
189.4616
20
-94.8660
0
VERTEX
8
CUT
10
189.4913
20
-94.9315
0
VERTEX
8
CUT
10
189.5166
20
-94.9989
0
VERTEX
8
CUT
10
189.5375
20
-95.0678
0
VERTEX
8
CUT
10
189.5539
20
-95.1379
0
VERTEX
8
CUT
10
189.5656
20
-95.2089
0
VERTEX
8
CUT
10
189.5726
20
-95.2806
0
VERTEX
8
CUT
10
189.5750
20
-95.3525
0
VERTEX
8
CUT
10
189.5726
20
-95.4244
0
VERTEX
8
CUT
10
189.5656
20
-95.4961
0
VERTEX
8
CUT
10
189.5539
20
-95.5671
0
VERTEX
8
CUT
10
189.5375
20
-95.6372
0
VERTEX
8
CUT
10
189.5166
20
-95.7061
0
VERTEX
8
CUT
10
189.4913
20
-95.7735
0
VERTEX
8
CUT
10
189.4616
20
-95.8390
0
VERTEX
8
CUT
10
189.4276
20
-95.9025
0
VERTEX
8
CUT
10
189.3896
20
-95.9636
0
VERTEX
8
CUT
10
189.3477
20
-96.0221
0
VERTEX
8
CUT
10
189.3020
20
-96.0778
0
VERTEX
8
CUT
10
189.2528
20
-96.1303
0
VERTEX
8
CUT
10
189.2003
20
-96.1795
0
VERTEX
8
CUT
10
189.1446
20
-96.2252
0
VERTEX
8
CUT
10
189.0861
20
-96.2671
0
VERTEX
8
CUT
10
189.0250
20
-96.3051
0
VERTEX
8
CUT
10
188.9615
20
-96.3391
0
VERTEX
8
CUT
10
188.8960
20
-96.3688
0
VERTEX
8
CUT
10
188.8286
20
-96.3941
0
VERTEX
8
CUT
10
188.7597
20
-96.4150
0
VERTEX
8
CUT
10
188.6896
20
-96.4314
0
VERTEX
8
CUT
10
188.6186
20
-96.4431
0
VERTEX
8
CUT
10
188.5469
20
-96.4501
0
VERTEX
8
CUT
10
188.4750
20
-96.4525
0
SEQEND
0
POLYLINE
8
CUT
66
1
70
1
0
VERTEX
8
CUT
10
14.4310
20
-97.7750
0
VERTEX
8
CUT
10
28.4310
20
-97.7750
0
VERTEX
8
CUT
10
28.4310
20
-111.7750
0
VERTEX
8
CUT
10
14.4310
20
-111.7750
0
SEQEND
0
POLYLINE
8
CUT
66
1
70
1
0
VERTEX
8
CUT
10
38.2440
20
-97.7750
0
VERTEX
8
CUT
10
52.2440
20
-97.7750
0
VERTEX
8
CUT
10
52.2440
20
-111.7750
0
VERTEX
8
CUT
10
38.2440
20
-111.7750
0
SEQEND
0
POLYLINE
8
CUT
66
1
70
1
0
VERTEX
8
CUT
10
62.0560
20
-97.7750
0
VERTEX
8
CUT
10
76.0560
20
-97.7750
0
VERTEX
8
CUT
10
76.0560
20
-111.7750
0
VERTEX
8
CUT
10
62.0560
20
-111.7750
0
SEQEND
0
POLYLINE
8
CUT
66
1
70
1
0
VERTEX
8
CUT
10
83.4870
20
-97.7750
0
VERTEX
8
CUT
10
97.4870
20
-97.7750
0
VERTEX
8
CUT
10
97.4870
20
-111.7750
0
VERTEX
8
CUT
10
83.4870
20
-111.7750
0
SEQEND
0
POLYLINE
8
CUT
66
1
70
1
0
VERTEX
8
CUT
10
102.5380
20
-97.7750
0
VERTEX
8
CUT
10
116.5380
20
-97.7750
0
VERTEX
8
CUT
10
116.5380
20
-111.7750
0
VERTEX
8
CUT
10
102.5380
20
-111.7750
0
SEQEND
0
POLYLINE
8
CUT
66
1
70
1
0
VERTEX
8
CUT
10
121.5880
20
-97.7750
0
VERTEX
8
CUT
10
135.5880
20
-97.7750
0
VERTEX
8
CUT
10
135.5880
20
-111.7750
0
VERTEX
8
CUT
10
121.5880
20
-111.7750
0
SEQEND
0
POLYLINE
8
CUT
66
1
70
1
0
VERTEX
8
CUT
10
140.6380
20
-97.7750
0
VERTEX
8
CUT
10
154.6380
20
-97.7750
0
VERTEX
8
CUT
10
154.6380
20
-111.7750
0
VERTEX
8
CUT
10
140.6380
20
-111.7750
0
SEQEND
0
POLYLINE
8
CUT
66
1
70
1
0
VERTEX
8
CUT
10
-5.0824
20
-120.4081
0
VERTEX
8
CUT
10
-5.1540
20
-120.4010
0
VERTEX
8
CUT
10
-5.2250
20
-120.3893
0
VERTEX
8
CUT
10
-5.2951
20
-120.3729
0
VERTEX
8
CUT
10
-5.3640
20
-120.3520
0
VERTEX
8
CUT
10
-5.4314
20
-120.3267
0
VERTEX
8
CUT
10
-5.4969
20
-120.2970
0
VERTEX
8
CUT
10
-5.5604
20
-120.2630
0
VERTEX
8
CUT
10
-5.6215
20
-120.2250
0
VERTEX
8
CUT
10
-5.6800
20
-120.1831
0
VERTEX
8
CUT
10
-5.7357
20
-120.1374
0
VERTEX
8
CUT
10
-5.7882
20
-120.0882
0
VERTEX
8
CUT
10
-5.8374
20
-120.0357
0
VERTEX
8
CUT
10
-5.8831
20
-119.9800
0
VERTEX
8
CUT
10
-5.9250
20
-119.9215
0
VERTEX
8
CUT
10
-5.9630
20
-119.8604
0
VERTEX
8
CUT
10
-5.9970
20
-119.7969
0
VERTEX
8
CUT
10
-6.0267
20
-119.7314
0
VERTEX
8
CUT
10
-6.0520
20
-119.6640
0
VERTEX
8
CUT
10
-6.0729
20
-119.5951
0
VERTEX
8
CUT
10
-6.0893
20
-119.5250
0
VERTEX
8
CUT
10
-6.1010
20
-119.4540
0
VERTEX
8
CUT
10
-6.1081
20
-119.3824
0
VERTEX
8
CUT
10
-6.1104
20
-119.3104
0
VERTEX
8
CUT
10
-6.1081
20
-119.2385
0
VERTEX
8
CUT
10
-6.1010
20
-119.1668
0
VERTEX
8
CUT
10
-6.0893
20
-119.0958
0
VERTEX
8
CUT
10
-6.0729
20
-119.0257
0
VERTEX
8
CUT
10
-6.0520
20
-118.9568
0
VERTEX
8
CUT
10
-6.0267
20
-118.8895
0
VERTEX
8
CUT
10
-5.9970
20
-118.8239
0
VERTEX
8
CUT
10
-5.9630
20
-118.7604
0
VERTEX
8
CUT
10
-5.9250
20
-118.6993
0
VERTEX
8
CUT
10
-5.8831
20
-118.6408
0
VERTEX
8
CUT
10
-5.8374
20
-118.5851
0
VERTEX
8
CUT
10
-5.7882
20
-118.5326
0
VERTEX
8
CUT
10
-5.7357
20
-118.4834
0
VERTEX
8
CUT
10
-5.6800
20
-118.4377
0
VERTEX
8
CUT
10
-5.6215
20
-118.3958
0
VERTEX
8
CUT
10
-5.5604
20
-118.3578
0
VERTEX
8
CUT
10
-5.4969
20
-118.3238
0
VERTEX
8
CUT
10
-5.4314
20
-118.2941
0
VERTEX
8
CUT
10
-5.3640
20
-118.2688
0
VERTEX
8
CUT
10
-5.2951
20
-118.2479
0
VERTEX
8
CUT
10
-5.2250
20
-118.2315
0
VERTEX
8
CUT
10
-5.1540
20
-118.2198
0
VERTEX
8
CUT
10
-5.0824
20
-118.2128
0
VERTEX
8
CUT
10
-5.0104
20
-118.2104
0
VERTEX
8
CUT
10
-4.9385
20
-118.2128
0
VERTEX
8
CUT
10
-4.8668
20
-118.2198
0
VERTEX
8
CUT
10
-4.7958
20
-118.2315
0
VERTEX
8
CUT
10
-4.7257
20
-118.2479
0
VERTEX
8
CUT
10
-4.6568
20
-118.2688
0
VERTEX
8
CUT
10
-4.5895
20
-118.2941
0
VERTEX
8
CUT
10
-4.5239
20
-118.3238
0
VERTEX
8
CUT
10
-4.4604
20
-118.3578
0
VERTEX
8
CUT
10
-4.3993
20
-118.3958
0
VERTEX
8
CUT
10
-4.3408
20
-118.4377
0
VERTEX
8
CUT
10
-4.2851
20
-118.4834
0
VERTEX
8
CUT
10
-4.2326
20
-118.5326
0
VERTEX
8
CUT
10
-4.1834
20
-118.5851
0
VERTEX
8
CUT
10
-4.1377
20
-118.6408
0
VERTEX
8
CUT
10
-4.0958
20
-118.6993
0
VERTEX
8
CUT
10
-4.0578
20
-118.7604
0
VERTEX
8
CUT
10
-4.0238
20
-118.8239
0
VERTEX
8
CUT
10
-3.9941
20
-118.8895
0
VERTEX
8
CUT
10
-3.9688
20
-118.9568
0
VERTEX
8
CUT
10
-3.9479
20
-119.0257
0
VERTEX
8
CUT
10
-3.9315
20
-119.0958
0
VERTEX
8
CUT
10
-3.9198
20
-119.1668
0
VERTEX
8
CUT
10
-3.9128
20
-119.2385
0
VERTEX
8
CUT
10
-3.9104
20
-119.3104
0
VERTEX
8
CUT
10
-3.9128
20
-119.3824
0
VERTEX
8
CUT
10
-3.9198
20
-119.4540
0
VERTEX
8
CUT
10
-3.9315
20
-119.5250
0
VERTEX
8
CUT
10
-3.9479
20
-119.5951
0
VERTEX
8
CUT
10
-3.9688
20
-119.6640
0
VERTEX
8
CUT
10
-3.9941
20
-119.7314
0
VERTEX
8
CUT
10
-4.0238
20
-119.7969
0
VERTEX
8
CUT
10
-4.0578
20
-119.8604
0
VERTEX
8
CUT
10
-4.0958
20
-119.9215
0
VERTEX
8
CUT
10
-4.1377
20
-119.9800
0
VERTEX
8
CUT
10
-4.1834
20
-120.0357
0
VERTEX
8
CUT
10
-4.2326
20
-120.0882
0
VERTEX
8
CUT
10
-4.2851
20
-120.1374
0
VERTEX
8
CUT
10
-4.3408
20
-120.1831
0
VERTEX
8
CUT
10
-4.3993
20
-120.2250
0
VERTEX
8
CUT
10
-4.4604
20
-120.2630
0
VERTEX
8
CUT
10
-4.5239
20
-120.2970
0
VERTEX
8
CUT
10
-4.5895
20
-120.3267
0
VERTEX
8
CUT
10
-4.6568
20
-120.3520
0
VERTEX
8
CUT
10
-4.7257
20
-120.3729
0
VERTEX
8
CUT
10
-4.7958
20
-120.3893
0
VERTEX
8
CUT
10
-4.8668
20
-120.4010
0
VERTEX
8
CUT
10
-4.9385
20
-120.4081
0
VERTEX
8
CUT
10
-5.0104
20
-120.4104
0
SEQEND
0
POLYLINE
8
CUT
66
1
70
1
0
VERTEX
8
CUT
10
185.9135
20
-120.4081
0
VERTEX
8
CUT
10
185.8418
20
-120.4010
0
VERTEX
8
CUT
10
185.7708
20
-120.3893
0
VERTEX
8
CUT
10
185.7007
20
-120.3729
0
VERTEX
8
CUT
10
185.6318
20
-120.3520
0
VERTEX
8
CUT
10
185.5645
20
-120.3267
0
VERTEX
8
CUT
10
185.4989
20
-120.2970
0
VERTEX
8
CUT
10
185.4354
20
-120.2630
0
VERTEX
8
CUT
10
185.3743
20
-120.2250
0
VERTEX
8
CUT
10
185.3158
20
-120.1831
0
VERTEX
8
CUT
10
185.2601
20
-120.1374
0
VERTEX
8
CUT
10
185.2076
20
-120.0882
0
VERTEX
8
CUT
10
185.1584
20
-120.0357
0
VERTEX
8
CUT
10
185.1127
20
-119.9800
0
VERTEX
8
CUT
10
185.0708
20
-119.9215
0
VERTEX
8
CUT
10
185.0328
20
-119.8604
0
VERTEX
8
CUT
10
184.9988
20
-119.7969
0
VERTEX
8
CUT
10
184.9691
20
-119.7314
0
VERTEX
8
CUT
10
184.9438
20
-119.6640
0
VERTEX
8
CUT
10
184.9229
20
-119.5951
0
VERTEX
8
CUT
10
184.9065
20
-119.5250
0
VERTEX
8
CUT
10
184.8948
20
-119.4540
0
VERTEX
8
CUT
10
184.8878
20
-119.3824
0
VERTEX
8
CUT
10
184.8854
20
-119.3104
0
VERTEX
8
CUT
10
184.8878
20
-119.2385
0
VERTEX
8
CUT
10
184.8948
20
-119.1668
0
VERTEX
8
CUT
10
184.9065
20
-119.0958
0
VERTEX
8
CUT
10
184.9229
20
-119.0257
0
VERTEX
8
CUT
10
184.9438
20
-118.9568
0
VERTEX
8
CUT
10
184.9691
20
-118.8895
0
VERTEX
8
CUT
10
184.9988
20
-118.8239
0
VERTEX
8
CUT
10
185.0328
20
-118.7604
0
VERTEX
8
CUT
10
185.0708
20
-118.6993
0
VERTEX
8
CUT
10
185.1127
20
-118.6408
0
VERTEX
8
CUT
10
185.1584
20
-118.5851
0
VERTEX
8
CUT
10
185.2076
20
-118.5326
0
VERTEX
8
CUT
10
185.2601
20
-118.4834
0
VERTEX
8
CUT
10
185.3158
20
-118.4377
0
VERTEX
8
CUT
10
185.3743
20
-118.3958
0
VERTEX
8
CUT
10
185.4354
20
-118.3578
0
VERTEX
8
CUT
10
185.4989
20
-118.3238
0
VERTEX
8
CUT
10
185.5645
20
-118.2941
0
VERTEX
8
CUT
10
185.6318
20
-118.2688
0
VERTEX
8
CUT
10
185.7007
20
-118.2479
0
VERTEX
8
CUT
10
185.7708
20
-118.2315
0
VERTEX
8
CUT
10
185.8418
20
-118.2198
0
VERTEX
8
CUT
10
185.9135
20
-118.2128
0
VERTEX
8
CUT
10
185.9854
20
-118.2104
0
VERTEX
8
CUT
10
186.0574
20
-118.2128
0
VERTEX
8
CUT
10
186.1290
20
-118.2198
0
VERTEX
8
CUT
10
186.2000
20
-118.2315
0
VERTEX
8
CUT
10
186.2701
20
-118.2479
0
VERTEX
8
CUT
10
186.3390
20
-118.2688
0
VERTEX
8
CUT
10
186.4064
20
-118.2941
0
VERTEX
8
CUT
10
186.4719
20
-118.3238
0
VERTEX
8
CUT
10
186.5354
20
-118.3578
0
VERTEX
8
CUT
10
186.5965
20
-118.3958
0
VERTEX
8
CUT
10
186.6550
20
-118.4377
0
VERTEX
8
CUT
10
186.7107
20
-118.4834
0
VERTEX
8
CUT
10
186.7632
20
-118.5326
0
VERTEX
8
CUT
10
186.8124
20
-118.5851
0
VERTEX
8
CUT
10
186.8581
20
-118.6408
0
VERTEX
8
CUT
10
186.9000
20
-118.6993
0
VERTEX
8
CUT
10
186.9380
20
-118.7604
0
VERTEX
8
CUT
10
186.9720
20
-118.8239
0
VERTEX
8
CUT
10
187.0017
20
-118.8895
0
VERTEX
8
CUT
10
187.0270
20
-118.9568
0
VERTEX
8
CUT
10
187.0479
20
-119.0257
0
VERTEX
8
CUT
10
187.0643
20
-119.0958
0
VERTEX
8
CUT
10
187.0760
20
-119.1668
0
VERTEX
8
CUT
10
187.0831
20
-119.2385
0
VERTEX
8
CUT
10
187.0854
20
-119.3104
0
VERTEX
8
CUT
10
187.0831
20
-119.3824
0
VERTEX
8
CUT
10
187.0760
20
-119.4540
0
VERTEX
8
CUT
10
187.0643
20
-119.5250
0
VERTEX
8
CUT
10
187.0479
20
-119.5951
0
VERTEX
8
CUT
10
187.0270
20
-119.6640
0
VERTEX
8
CUT
10
187.0017
20
-119.7314
0
VERTEX
8
CUT
10
186.9720
20
-119.7969
0
VERTEX
8
CUT
10
186.9380
20
-119.8604
0
VERTEX
8
CUT
10
186.9000
20
-119.9215
0
VERTEX
8
CUT
10
186.8581
20
-119.9800
0
VERTEX
8
CUT
10
186.8124
20
-120.0357
0
VERTEX
8
CUT
10
186.7632
20
-120.0882
0
VERTEX
8
CUT
10
186.7107
20
-120.1374
0
VERTEX
8
CUT
10
186.6550
20
-120.1831
0
VERTEX
8
CUT
10
186.5965
20
-120.2250
0
VERTEX
8
CUT
10
186.5354
20
-120.2630
0
VERTEX
8
CUT
10
186.4719
20
-120.2970
0
VERTEX
8
CUT
10
186.4064
20
-120.3267
0
VERTEX
8
CUT
10
186.3390
20
-120.3520
0
VERTEX
8
CUT
10
186.2701
20
-120.3729
0
VERTEX
8
CUT
10
186.2000
20
-120.3893
0
VERTEX
8
CUT
10
186.1290
20
-120.4010
0
VERTEX
8
CUT
10
186.0574
20
-120.4081
0
VERTEX
8
CUT
10
185.9854
20
-120.4104
0
SEQEND
0
POLYLINE
8
CUT
66
1
70
1
0
VERTEX
8
CUT
10
41.4218
20
-122.8976
0
VERTEX
8
CUT
10
41.3502
20
-122.8906
0
VERTEX
8
CUT
10
41.2792
20
-122.8789
0
VERTEX
8
CUT
10
41.2090
20
-122.8625
0
VERTEX
8
CUT
10
41.1402
20
-122.8416
0
VERTEX
8
CUT
10
41.0728
20
-122.8163
0
VERTEX
8
CUT
10
41.0072
20
-122.7866
0
VERTEX
8
CUT
10
40.9438
20
-122.7526
0
VERTEX
8
CUT
10
40.8826
20
-122.7146
0
VERTEX
8
CUT
10
40.8241
20
-122.6727
0
VERTEX
8
CUT
10
40.7685
20
-122.6270
0
VERTEX
8
CUT
10
40.7159
20
-122.5778
0
VERTEX
8
CUT
10
40.6667
20
-122.5253
0
VERTEX
8
CUT
10
40.6211
20
-122.4696
0
VERTEX
8
CUT
10
40.5791
20
-122.4111
0
VERTEX
8
CUT
10
40.5411
20
-122.3500
0
VERTEX
8
CUT
10
40.5072
20
-122.2865
0
VERTEX
8
CUT
10
40.4775
20
-122.2210
0
VERTEX
8
CUT
10
40.4521
20
-122.1536
0
VERTEX
8
CUT
10
40.4312
20
-122.0847
0
VERTEX
8
CUT
10
40.4149
20
-122.0146
0
VERTEX
8
CUT
10
40.4032
20
-121.9436
0
VERTEX
8
CUT
10
40.3961
20
-121.8719
0
VERTEX
8
CUT
10
40.3937
20
-121.8000
0
VERTEX
8
CUT
10
40.3961
20
-121.7281
0
VERTEX
8
CUT
10
40.4032
20
-121.6564
0
VERTEX
8
CUT
10
40.4149
20
-121.5854
0
VERTEX
8
CUT
10
40.4312
20
-121.5153
0
VERTEX
8
CUT
10
40.4521
20
-121.4464
0
VERTEX
8
CUT
10
40.4775
20
-121.3790
0
VERTEX
8
CUT
10
40.5072
20
-121.3135
0
VERTEX
8
CUT
10
40.5411
20
-121.2500
0
VERTEX
8
CUT
10
40.5791
20
-121.1889
0
VERTEX
8
CUT
10
40.6211
20
-121.1304
0
VERTEX
8
CUT
10
40.6667
20
-121.0747
0
VERTEX
8
CUT
10
40.7159
20
-121.0222
0
VERTEX
8
CUT
10
40.7685
20
-120.9730
0
VERTEX
8
CUT
10
40.8241
20
-120.9273
0
VERTEX
8
CUT
10
40.8826
20
-120.8854
0
VERTEX
8
CUT
10
40.9438
20
-120.8474
0
VERTEX
8
CUT
10
41.0072
20
-120.8134
0
VERTEX
8
CUT
10
41.0728
20
-120.7837
0
VERTEX
8
CUT
10
41.1402
20
-120.7584
0
VERTEX
8
CUT
10
41.2090
20
-120.7375
0
VERTEX
8
CUT
10
41.2792
20
-120.7211
0
VERTEX
8
CUT
10
41.3502
20
-120.7094
0
VERTEX
8
CUT
10
41.4218
20
-120.7024
0
VERTEX
8
CUT
10
41.4937
20
-120.7000
0
VERTEX
8
CUT
10
41.5657
20
-120.7024
0
VERTEX
8
CUT
10
41.6373
20
-120.7094
0
VERTEX
8
CUT
10
41.7083
20
-120.7211
0
VERTEX
8
CUT
10
41.7785
20
-120.7375
0
VERTEX
8
CUT
10
41.8473
20
-120.7584
0
VERTEX
8
CUT
10
41.9147
20
-120.7837
0
VERTEX
8
CUT
10
41.9803
20
-120.8134
0
VERTEX
8
CUT
10
42.0438
20
-120.8474
0
VERTEX
8
CUT
10
42.1049
20
-120.8854
0
VERTEX
8
CUT
10
42.1634
20
-120.9273
0
VERTEX
8
CUT
10
42.2190
20
-120.9730
0
VERTEX
8
CUT
10
42.2716
20
-121.0222
0
VERTEX
8
CUT
10
42.3208
20
-121.0747
0
VERTEX
8
CUT
10
42.3664
20
-121.1304
0
VERTEX
8
CUT
10
42.4084
20
-121.1889
0
VERTEX
8
CUT
10
42.4464
20
-121.2500
0
VERTEX
8
CUT
10
42.4803
20
-121.3135
0
VERTEX
8
CUT
10
42.5100
20
-121.3790
0
VERTEX
8
CUT
10
42.5354
20
-121.4464
0
VERTEX
8
CUT
10
42.5563
20
-121.5153
0
VERTEX
8
CUT
10
42.5726
20
-121.5854
0
VERTEX
8
CUT
10
42.5843
20
-121.6564
0
VERTEX
8
CUT
10
42.5914
20
-121.7281
0
VERTEX
8
CUT
10
42.5938
20
-121.8000
0
VERTEX
8
CUT
10
42.5914
20
-121.8719
0
VERTEX
8
CUT
10
42.5843
20
-121.9436
0
VERTEX
8
CUT
10
42.5726
20
-122.0146
0
VERTEX
8
CUT
10
42.5563
20
-122.0847
0
VERTEX
8
CUT
10
42.5354
20
-122.1536
0
VERTEX
8
CUT
10
42.5100
20
-122.2210
0
VERTEX
8
CUT
10
42.4803
20
-122.2865
0
VERTEX
8
CUT
10
42.4464
20
-122.3500
0
VERTEX
8
CUT
10
42.4084
20
-122.4111
0
VERTEX
8
CUT
10
42.3664
20
-122.4696
0
VERTEX
8
CUT
10
42.3208
20
-122.5253
0
VERTEX
8
CUT
10
42.2716
20
-122.5778
0
VERTEX
8
CUT
10
42.2190
20
-122.6270
0
VERTEX
8
CUT
10
42.1634
20
-122.6727
0
VERTEX
8
CUT
10
42.1049
20
-122.7146
0
VERTEX
8
CUT
10
42.0438
20
-122.7526
0
VERTEX
8
CUT
10
41.9803
20
-122.7866
0
VERTEX
8
CUT
10
41.9147
20
-122.8163
0
VERTEX
8
CUT
10
41.8473
20
-122.8416
0
VERTEX
8
CUT
10
41.7785
20
-122.8625
0
VERTEX
8
CUT
10
41.7083
20
-122.8789
0
VERTEX
8
CUT
10
41.6373
20
-122.8906
0
VERTEX
8
CUT
10
41.5657
20
-122.8976
0
VERTEX
8
CUT
10
41.4937
20
-122.9000
0
SEQEND
0
POLYLINE
8
CUT
66
1
70
1
0
VERTEX
8
CUT
10
90.4156
20
-122.8976
0
VERTEX
8
CUT
10
90.3439
20
-122.8906
0
VERTEX
8
CUT
10
90.2729
20
-122.8789
0
VERTEX
8
CUT
10
90.2028
20
-122.8625
0
VERTEX
8
CUT
10
90.1339
20
-122.8416
0
VERTEX
8
CUT
10
90.0665
20
-122.8163
0
VERTEX
8
CUT
10
90.0010
20
-122.7866
0
VERTEX
8
CUT
10
89.9375
20
-122.7526
0
VERTEX
8
CUT
10
89.8764
20
-122.7146
0
VERTEX
8
CUT
10
89.8179
20
-122.6727
0
VERTEX
8
CUT
10
89.7622
20
-122.6270
0
VERTEX
8
CUT
10
89.7097
20
-122.5778
0
VERTEX
8
CUT
10
89.6605
20
-122.5253
0
VERTEX
8
CUT
10
89.6148
20
-122.4696
0
VERTEX
8
CUT
10
89.5729
20
-122.4111
0
VERTEX
8
CUT
10
89.5349
20
-122.3500
0
VERTEX
8
CUT
10
89.5009
20
-122.2865
0
VERTEX
8
CUT
10
89.4712
20
-122.2210
0
VERTEX
8
CUT
10
89.4459
20
-122.1536
0
VERTEX
8
CUT
10
89.4250
20
-122.0847
0
VERTEX
8
CUT
10
89.4086
20
-122.0146
0
VERTEX
8
CUT
10
89.3969
20
-121.9436
0
VERTEX
8
CUT
10
89.3899
20
-121.8719
0
VERTEX
8
CUT
10
89.3875
20
-121.8000
0
VERTEX
8
CUT
10
89.3899
20
-121.7281
0
VERTEX
8
CUT
10
89.3969
20
-121.6564
0
VERTEX
8
CUT
10
89.4086
20
-121.5854
0
VERTEX
8
CUT
10
89.4250
20
-121.5153
0
VERTEX
8
CUT
10
89.4459
20
-121.4464
0
VERTEX
8
CUT
10
89.4712
20
-121.3790
0
VERTEX
8
CUT
10
89.5009
20
-121.3135
0
VERTEX
8
CUT
10
89.5349
20
-121.2500
0
VERTEX
8
CUT
10
89.5729
20
-121.1889
0
VERTEX
8
CUT
10
89.6148
20
-121.1304
0
VERTEX
8
CUT
10
89.6605
20
-121.0747
0
VERTEX
8
CUT
10
89.7097
20
-121.0222
0
VERTEX
8
CUT
10
89.7622
20
-120.9730
0
VERTEX
8
CUT
10
89.8179
20
-120.9273
0
VERTEX
8
CUT
10
89.8764
20
-120.8854
0
VERTEX
8
CUT
10
89.9375
20
-120.8474
0
VERTEX
8
CUT
10
90.0010
20
-120.8134
0
VERTEX
8
CUT
10
90.0665
20
-120.7837
0
VERTEX
8
CUT
10
90.1339
20
-120.7584
0
VERTEX
8
CUT
10
90.2028
20
-120.7375
0
VERTEX
8
CUT
10
90.2729
20
-120.7211
0
VERTEX
8
CUT
10
90.3439
20
-120.7094
0
VERTEX
8
CUT
10
90.4156
20
-120.7024
0
VERTEX
8
CUT
10
90.4875
20
-120.7000
0
VERTEX
8
CUT
10
90.5594
20
-120.7024
0
VERTEX
8
CUT
10
90.6311
20
-120.7094
0
VERTEX
8
CUT
10
90.7021
20
-120.7211
0
VERTEX
8
CUT
10
90.7722
20
-120.7375
0
VERTEX
8
CUT
10
90.8411
20
-120.7584
0
VERTEX
8
CUT
10
90.9085
20
-120.7837
0
VERTEX
8
CUT
10
90.9740
20
-120.8134
0
VERTEX
8
CUT
10
91.0375
20
-120.8474
0
VERTEX
8
CUT
10
91.0986
20
-120.8854
0
VERTEX
8
CUT
10
91.1571
20
-120.9273
0
VERTEX
8
CUT
10
91.2128
20
-120.9730
0
VERTEX
8
CUT
10
91.2653
20
-121.0222
0
VERTEX
8
CUT
10
91.3145
20
-121.0747
0
VERTEX
8
CUT
10
91.3602
20
-121.1304
0
VERTEX
8
CUT
10
91.4021
20
-121.1889
0
VERTEX
8
CUT
10
91.4401
20
-121.2500
0
VERTEX
8
CUT
10
91.4741
20
-121.3135
0
VERTEX
8
CUT
10
91.5038
20
-121.3790
0
VERTEX
8
CUT
10
91.5291
20
-121.4464
0
VERTEX
8
CUT
10
91.5500
20
-121.5153
0
VERTEX
8
CUT
10
91.5664
20
-121.5854
0
VERTEX
8
CUT
10
91.5781
20
-121.6564
0
VERTEX
8
CUT
10
91.5851
20
-121.7281
0
VERTEX
8
CUT
10
91.5875
20
-121.8000
0
VERTEX
8
CUT
10
91.5851
20
-121.8719
0
VERTEX
8
CUT
10
91.5781
20
-121.9436
0
VERTEX
8
CUT
10
91.5664
20
-122.0146
0
VERTEX
8
CUT
10
91.5500
20
-122.0847
0
VERTEX
8
CUT
10
91.5291
20
-122.1536
0
VERTEX
8
CUT
10
91.5038
20
-122.2210
0
VERTEX
8
CUT
10
91.4741
20
-122.2865
0
VERTEX
8
CUT
10
91.4401
20
-122.3500
0
VERTEX
8
CUT
10
91.4021
20
-122.4111
0
VERTEX
8
CUT
10
91.3602
20
-122.4696
0
VERTEX
8
CUT
10
91.3145
20
-122.5253
0
VERTEX
8
CUT
10
91.2653
20
-122.5778
0
VERTEX
8
CUT
10
91.2128
20
-122.6270
0
VERTEX
8
CUT
10
91.1571
20
-122.6727
0
VERTEX
8
CUT
10
91.0986
20
-122.7146
0
VERTEX
8
CUT
10
91.0375
20
-122.7526
0
VERTEX
8
CUT
10
90.9740
20
-122.7866
0
VERTEX
8
CUT
10
90.9085
20
-122.8163
0
VERTEX
8
CUT
10
90.8411
20
-122.8416
0
VERTEX
8
CUT
10
90.7722
20
-122.8625
0
VERTEX
8
CUT
10
90.7021
20
-122.8789
0
VERTEX
8
CUT
10
90.6311
20
-122.8906
0
VERTEX
8
CUT
10
90.5594
20
-122.8976
0
VERTEX
8
CUT
10
90.4875
20
-122.9000
0
SEQEND
0
POLYLINE
8
CUT
66
1
70
1
0
VERTEX
8
CUT
10
139.4093
20
-122.8976
0
VERTEX
8
CUT
10
139.3377
20
-122.8906
0
VERTEX
8
CUT
10
139.2667
20
-122.8789
0
VERTEX
8
CUT
10
139.1965
20
-122.8625
0
VERTEX
8
CUT
10
139.1277
20
-122.8416
0
VERTEX
8
CUT
10
139.0603
20
-122.8163
0
VERTEX
8
CUT
10
138.9947
20
-122.7866
0
VERTEX
8
CUT
10
138.9312
20
-122.7526
0
VERTEX
8
CUT
10
138.8701
20
-122.7146
0
VERTEX
8
CUT
10
138.8116
20
-122.6727
0
VERTEX
8
CUT
10
138.7560
20
-122.6270
0
VERTEX
8
CUT
10
138.7034
20
-122.5778
0
VERTEX
8
CUT
10
138.6542
20
-122.5253
0
VERTEX
8
CUT
10
138.6086
20
-122.4696
0
VERTEX
8
CUT
10
138.5666
20
-122.4111
0
VERTEX
8
CUT
10
138.5286
20
-122.3500
0
VERTEX
8
CUT
10
138.4947
20
-122.2865
0
VERTEX
8
CUT
10
138.4650
20
-122.2210
0
VERTEX
8
CUT
10
138.4396
20
-122.1536
0
VERTEX
8
CUT
10
138.4187
20
-122.0847
0
VERTEX
8
CUT
10
138.4024
20
-122.0146
0
VERTEX
8
CUT
10
138.3907
20
-121.9436
0
VERTEX
8
CUT
10
138.3836
20
-121.8719
0
VERTEX
8
CUT
10
138.3813
20
-121.8000
0
VERTEX
8
CUT
10
138.3836
20
-121.7281
0
VERTEX
8
CUT
10
138.3907
20
-121.6564
0
VERTEX
8
CUT
10
138.4024
20
-121.5854
0
VERTEX
8
CUT
10
138.4187
20
-121.5153
0
VERTEX
8
CUT
10
138.4396
20
-121.4464
0
VERTEX
8
CUT
10
138.4650
20
-121.3790
0
VERTEX
8
CUT
10
138.4947
20
-121.3135
0
VERTEX
8
CUT
10
138.5286
20
-121.2500
0
VERTEX
8
CUT
10
138.5666
20
-121.1889
0
VERTEX
8
CUT
10
138.6086
20
-121.1304
0
VERTEX
8
CUT
10
138.6542
20
-121.0747
0
VERTEX
8
CUT
10
138.7034
20
-121.0222
0
VERTEX
8
CUT
10
138.7560
20
-120.9730
0
VERTEX
8
CUT
10
138.8116
20
-120.9273
0
VERTEX
8
CUT
10
138.8701
20
-120.8854
0
VERTEX
8
CUT
10
138.9312
20
-120.8474
0
VERTEX
8
CUT
10
138.9947
20
-120.8134
0
VERTEX
8
CUT
10
139.0603
20
-120.7837
0
VERTEX
8
CUT
10
139.1277
20
-120.7584
0
VERTEX
8
CUT
10
139.1965
20
-120.7375
0
VERTEX
8
CUT
10
139.2667
20
-120.7211
0
VERTEX
8
CUT
10
139.3377
20
-120.7094
0
VERTEX
8
CUT
10
139.4093
20
-120.7024
0
VERTEX
8
CUT
10
139.4813
20
-120.7000
0
VERTEX
8
CUT
10
139.5532
20
-120.7024
0
VERTEX
8
CUT
10
139.6248
20
-120.7094
0
VERTEX
8
CUT
10
139.6958
20
-120.7211
0
VERTEX
8
CUT
10
139.7660
20
-120.7375
0
VERTEX
8
CUT
10
139.8348
20
-120.7584
0
VERTEX
8
CUT
10
139.9022
20
-120.7837
0
VERTEX
8
CUT
10
139.9678
20
-120.8134
0
VERTEX
8
CUT
10
140.0312
20
-120.8474
0
VERTEX
8
CUT
10
140.0924
20
-120.8854
0
VERTEX
8
CUT
10
140.1509
20
-120.9273
0
VERTEX
8
CUT
10
140.2065
20
-120.9730
0
VERTEX
8
CUT
10
140.2591
20
-121.0222
0
VERTEX
8
CUT
10
140.3083
20
-121.0747
0
VERTEX
8
CUT
10
140.3539
20
-121.1304
0
VERTEX
8
CUT
10
140.3959
20
-121.1889
0
VERTEX
8
CUT
10
140.4339
20
-121.2500
0
VERTEX
8
CUT
10
140.4678
20
-121.3135
0
VERTEX
8
CUT
10
140.4975
20
-121.3790
0
VERTEX
8
CUT
10
140.5229
20
-121.4464
0
VERTEX
8
CUT
10
140.5438
20
-121.5153
0
VERTEX
8
CUT
10
140.5601
20
-121.5854
0
VERTEX
8
CUT
10
140.5718
20
-121.6564
0
VERTEX
8
CUT
10
140.5789
20
-121.7281
0
VERTEX
8
CUT
10
140.5812
20
-121.8000
0
VERTEX
8
CUT
10
140.5789
20
-121.8719
0
VERTEX
8
CUT
10
140.5718
20
-121.9436
0
VERTEX
8
CUT
10
140.5601
20
-122.0146
0
VERTEX
8
CUT
10
140.5438
20
-122.0847
0
VERTEX
8
CUT
10
140.5229
20
-122.1536
0
VERTEX
8
CUT
10
140.4975
20
-122.2210
0
VERTEX
8
CUT
10
140.4678
20
-122.2865
0
VERTEX
8
CUT
10
140.4339
20
-122.3500
0
VERTEX
8
CUT
10
140.3959
20
-122.4111
0
VERTEX
8
CUT
10
140.3539
20
-122.4696
0
VERTEX
8
CUT
10
140.3083
20
-122.5253
0
VERTEX
8
CUT
10
140.2591
20
-122.5778
0
VERTEX
8
CUT
10
140.2065
20
-122.6270
0
VERTEX
8
CUT
10
140.1509
20
-122.6727
0
VERTEX
8
CUT
10
140.0924
20
-122.7146
0
VERTEX
8
CUT
10
140.0312
20
-122.7526
0
VERTEX
8
CUT
10
139.9678
20
-122.7866
0
VERTEX
8
CUT
10
139.9022
20
-122.8163
0
VERTEX
8
CUT
10
139.8348
20
-122.8416
0
VERTEX
8
CUT
10
139.7660
20
-122.8625
0
VERTEX
8
CUT
10
139.6958
20
-122.8789
0
VERTEX
8
CUT
10
139.6248
20
-122.8906
0
VERTEX
8
CUT
10
139.5532
20
-122.8976
0
VERTEX
8
CUT
10
139.4813
20
-122.9000
0
SEQEND
0
ENDSEC
0
EOF
