0
SECTION
2
HEADER
9
$INSUNITS
70
4
0
ENDSEC
0
SECTION
2
ENTITIES
0
POLYLINE
8
CUT
66
1
70
1
0
VERTEX
8
CUT
10
166.7279
20
-79.5929
0
VERTEX
8
CUT
10
166.7930
20
-79.5864
0
VERTEX
8
CUT
10
166.8576
20
-79.5758
0
VERTEX
8
CUT
10
166.9213
20
-79.5609
0
VERTEX
8
CUT
10
166.9839
20
-79.5419
0
VERTEX
8
CUT
10
167.0452
20
-79.5189
0
VERTEX
8
CUT
10
167.1048
20
-79.4919
0
VERTEX
8
CUT
10
167.1625
20
-79.4610
0
VERTEX
8
CUT
10
167.2181
20
-79.4265
0
VERTEX
8
CUT
10
167.2713
20
-79.3884
0
VERTEX
8
CUT
10
167.3218
20
-79.3468
0
VERTEX
8
CUT
10
167.3696
20
-79.3021
0
VERTEX
8
CUT
10
167.4143
20
-79.2543
0
VERTEX
8
CUT
10
167.4559
20
-79.2038
0
VERTEX
8
CUT
10
167.4940
20
-79.1506
0
VERTEX
8
CUT
10
167.5285
20
-79.0950
0
VERTEX
8
CUT
10
167.5594
20
-79.0373
0
VERTEX
8
CUT
10
167.5864
20
-78.9777
0
VERTEX
8
CUT
10
167.6094
20
-78.9164
0
VERTEX
8
CUT
10
167.6284
20
-78.8538
0
VERTEX
8
CUT
10
167.6433
20
-78.7901
0
VERTEX
8
CUT
10
167.6539
20
-78.7255
0
VERTEX
8
CUT
10
167.6604
20
-78.6604
0
VERTEX
8
CUT
10
167.6625
20
-78.5950
0
VERTEX
8
CUT
10
167.6625
20
-35.7050
0
VERTEX
8
CUT
10
167.6604
20
-35.6396
0
VERTEX
8
CUT
10
167.6539
20
-35.5745
0
VERTEX
8
CUT
10
167.6433
20
-35.5099
0
VERTEX
8
CUT
10
167.6284
20
-35.4462
0
VERTEX
8
CUT
10
167.6094
20
-35.3836
0
VERTEX
8
CUT
10
167.5864
20
-35.3223
0
VERTEX
8
CUT
10
167.5594
20
-35.2627
0
VERTEX
8
CUT
10
167.5285
20
-35.2050
0
VERTEX
8
CUT
10
167.4940
20
-35.1494
0
VERTEX
8
CUT
10
167.4559
20
-35.0962
0
VERTEX
8
CUT
10
167.4143
20
-35.0457
0
VERTEX
8
CUT
10
167.3696
20
-34.9979
0
VERTEX
8
CUT
10
167.3218
20
-34.9532
0
VERTEX
8
CUT
10
167.2713
20
-34.9116
0
VERTEX
8
CUT
10
167.2181
20
-34.8735
0
VERTEX
8
CUT
10
167.1625
20
-34.8390
0
VERTEX
8
CUT
10
167.1048
20
-34.8081
0
VERTEX
8
CUT
10
167.0452
20
-34.7811
0
VERTEX
8
CUT
10
166.9839
20
-34.7581
0
VERTEX
8
CUT
10
166.9213
20
-34.7391
0
VERTEX
8
CUT
10
166.8576
20
-34.7242
0
VERTEX
8
CUT
10
166.7930
20
-34.7136
0
VERTEX
8
CUT
10
166.7279
20
-34.7071
0
VERTEX
8
CUT
10
166.6625
20
-34.7050
0
VERTEX
8
CUT
10
152.2750
20
-34.7050
0
VERTEX
8
CUT
10
152.2096
20
-34.7071
0
VERTEX
8
CUT
10
152.1445
20
-34.7136
0
VERTEX
8
CUT
10
152.0799
20
-34.7242
0
VERTEX
8
CUT
10
152.0162
20
-34.7391
0
VERTEX
8
CUT
10
151.9536
20
-34.7581
0
VERTEX
8
CUT
10
151.8923
20
-34.7811
0
VERTEX
8
CUT
10
151.8327
20
-34.8081
0
VERTEX
8
CUT
10
151.7750
20
-34.8390
0
VERTEX
8
CUT
10
151.7194
20
-34.8735
0
VERTEX
8
CUT
10
151.6662
20
-34.9116
0
VERTEX
8
CUT
10
151.6157
20
-34.9532
0
VERTEX
8
CUT
10
151.5679
20
-34.9979
0
VERTEX
8
CUT
10
151.5232
20
-35.0457
0
VERTEX
8
CUT
10
151.4816
20
-35.0962
0
VERTEX
8
CUT
10
151.4435
20
-35.1494
0
VERTEX
8
CUT
10
151.4090
20
-35.2050
0
VERTEX
8
CUT
10
151.3781
20
-35.2627
0
VERTEX
8
CUT
10
151.3511
20
-35.3223
0
VERTEX
8
CUT
10
151.3281
20
-35.3836
0
VERTEX
8
CUT
10
151.3091
20
-35.4462
0
VERTEX
8
CUT
10
151.2942
20
-35.5099
0
VERTEX
8
CUT
10
151.2836
20
-35.5745
0
VERTEX
8
CUT
10
151.2771
20
-35.6396
0
VERTEX
8
CUT
10
151.2750
20
-35.7050
0
VERTEX
8
CUT
10
151.2750
20
-36.9586
0
VERTEX
8
CUT
10
151.2745
20
-36.9745
0
VERTEX
8
CUT
10
151.2586
20
-36.9750
0
VERTEX
8
CUT
10
145.4550
20
-36.9750
0
VERTEX
8
CUT
10
145.3896
20
-36.9771
0
VERTEX
8
CUT
10
145.3245
20
-36.9836
0
VERTEX
8
CUT
10
145.2599
20
-36.9942
0
VERTEX
8
CUT
10
145.1962
20
-37.0091
0
VERTEX
8
CUT
10
145.1336
20
-37.0281
0
VERTEX
8
CUT
10
145.0723
20
-37.0511
0
VERTEX
8
CUT
10
145.0127
20
-37.0781
0
VERTEX
8
CUT
10
144.9550
20
-37.1090
0
VERTEX
8
CUT
10
144.8994
20
-37.1435
0
VERTEX
8
CUT
10
144.8462
20
-37.1816
0
VERTEX
8
CUT
10
144.7957
20
-37.2232
0
VERTEX
8
CUT
10
144.7479
20
-37.2679
0
VERTEX
8
CUT
10
144.7032
20
-37.3157
0
VERTEX
8
CUT
10
144.6616
20
-37.3662
0
VERTEX
8
CUT
10
144.6235
20
-37.4194
0
VERTEX
8
CUT
10
144.5890
20
-37.4750
0
VERTEX
8
CUT
10
144.5581
20
-37.5327
0
VERTEX
8
CUT
10
144.5311
20
-37.5923
0
VERTEX
8
CUT
10
144.5081
20
-37.6536
0
VERTEX
8
CUT
10
144.4891
20
-37.7162
0
VERTEX
8
CUT
10
144.4742
20
-37.7799
0
VERTEX
8
CUT
10
144.4636
20
-37.8445
0
VERTEX
8
CUT
10
144.4571
20
-37.9096
0
VERTEX
8
CUT
10
144.4550
20
-37.9750
0
VERTEX
8
CUT
10
144.4550
20
-57.2750
0
VERTEX
8
CUT
10
144.4571
20
-57.3404
0
VERTEX
8
CUT
10
144.4636
20
-57.4055
0
VERTEX
8
CUT
10
144.4742
20
-57.4701
0
VERTEX
8
CUT
10
144.4891
20
-57.5338
0
VERTEX
8
CUT
10
144.5081
20
-57.5964
0
VERTEX
8
CUT
10
144.5311
20
-57.6577
0
VERTEX
8
CUT
10
144.5581
20
-57.7173
0
VERTEX
8
CUT
10
144.5890
20
-57.7750
0
VERTEX
8
CUT
10
144.6235
20
-57.8306
0
VERTEX
8
CUT
10
144.6616
20
-57.8838
0
VERTEX
8
CUT
10
144.7032
20
-57.9343
0
VERTEX
8
CUT
10
144.7479
20
-57.9821
0
VERTEX
8
CUT
10
144.7957
20
-58.0268
0
VERTEX
8
CUT
10
144.8462
20
-58.0684
0
VERTEX
8
CUT
10
144.8994
20
-58.1065
0
VERTEX
8
CUT
10
144.9550
20
-58.1410
0
VERTEX
8
CUT
10
145.0127
20
-58.1719
0
VERTEX
8
CUT
10
145.0723
20
-58.1989
0
VERTEX
8
CUT
10
145.1336
20
-58.2219
0
VERTEX
8
CUT
10
145.1962
20
-58.2409
0
VERTEX
8
CUT
10
145.2599
20
-58.2558
0
VERTEX
8
CUT
10
145.3245
20
-58.2664
0
VERTEX
8
CUT
10
145.3896
20
-58.2729
0
VERTEX
8
CUT
10
145.4550
20
-58.2750
0
VERTEX
8
CUT
10
146.4966
20
-58.2750
0
VERTEX
8
CUT
10
146.5125
20
-58.2755
0
VERTEX
8
CUT
10
146.5130
20
-58.2914
0
VERTEX
8
CUT
10
146.5130
20
-75.0586
0
VERTEX
8
CUT
10
146.5125
20
-75.0745
0
VERTEX
8
CUT
10
146.4966
20
-75.0750
0
VERTEX
8
CUT
10
145.4550
20
-75.0750
0
VERTEX
8
CUT
10
145.3896
20
-75.0771
0
VERTEX
8
CUT
10
145.3245
20
-75.0836
0
VERTEX
8
CUT
10
145.2599
20
-75.0942
0
VERTEX
8
CUT
10
145.1962
20
-75.1091
0
VERTEX
8
CUT
10
145.1336
20
-75.1281
0
VERTEX
8
CUT
10
145.0723
20
-75.1511
0
VERTEX
8
CUT
10
145.0127
20
-75.1781
0
VERTEX
8
CUT
10
144.9550
20
-75.2090
0
VERTEX
8
CUT
10
144.8994
20
-75.2435
0
VERTEX
8
CUT
10
144.8462
20
-75.2816
0
VERTEX
8
CUT
10
144.7957
20
-75.3232
0
VERTEX
8
CUT
10
144.7479
20
-75.3679
0
VERTEX
8
CUT
10
144.7032
20
-75.4157
0
VERTEX
8
CUT
10
144.6616
20
-75.4662
0
VERTEX
8
CUT
10
144.6235
20
-75.5194
0
VERTEX
8
CUT
10
144.5890
20
-75.5750
0
VERTEX
8
CUT
10
144.5581
20
-75.6327
0
VERTEX
8
CUT
10
144.5311
20
-75.6923
0
VERTEX
8
CUT
10
144.5081
20
-75.7536
0
VERTEX
8
CUT
10
144.4891
20
-75.8162
0
VERTEX
8
CUT
10
144.4742
20
-75.8799
0
VERTEX
8
CUT
10
144.4636
20
-75.9445
0
VERTEX
8
CUT
10
144.4571
20
-76.0096
0
VERTEX
8
CUT
10
144.4550
20
-76.0750
0
VERTEX
8
CUT
10
144.4550
20
-76.3250
0
VERTEX
8
CUT
10
144.4571
20
-76.3904
0
VERTEX
8
CUT
10
144.4636
20
-76.4555
0
VERTEX
8
CUT
10
144.4742
20
-76.5201
0
VERTEX
8
CUT
10
144.4891
20
-76.5838
0
VERTEX
8
CUT
10
144.5081
20
-76.6464
0
VERTEX
8
CUT
10
144.5311
20
-76.7077
0
VERTEX
8
CUT
10
144.5581
20
-76.7673
0
VERTEX
8
CUT
10
144.5890
20
-76.8250
0
VERTEX
8
CUT
10
144.6235
20
-76.8806
0
VERTEX
8
CUT
10
144.6616
20
-76.9338
0
VERTEX
8
CUT
10
144.7032
20
-76.9843
0
VERTEX
8
CUT
10
144.7479
20
-77.0321
0
VERTEX
8
CUT
10
144.7957
20
-77.0768
0
VERTEX
8
CUT
10
144.8462
20
-77.1184
0
VERTEX
8
CUT
10
144.8994
20
-77.1565
0
VERTEX
8
CUT
10
144.9550
20
-77.1910
0
VERTEX
8
CUT
10
145.0127
20
-77.2219
0
VERTEX
8
CUT
10
145.0723
20
-77.2489
0
VERTEX
8
CUT
10
145.1336
20
-77.2719
0
VERTEX
8
CUT
10
145.1962
20
-77.2909
0
VERTEX
8
CUT
10
145.2599
20
-77.3058
0
VERTEX
8
CUT
10
145.3245
20
-77.3164
0
VERTEX
8
CUT
10
145.3896
20
-77.3229
0
VERTEX
8
CUT
10
145.4550
20
-77.3250
0
VERTEX
8
CUT
10
156.0216
20
-77.3250
0
VERTEX
8
CUT
10
156.0375
20
-77.3255
0
VERTEX
8
CUT
10
156.0380
20
-77.3414
0
VERTEX
8
CUT
10
156.0380
20
-78.5950
0
VERTEX
8
CUT
10
156.0401
20
-78.6604
0
VERTEX
8
CUT
10
156.0466
20
-78.7255
0
VERTEX
8
CUT
10
156.0572
20
-78.7901
0
VERTEX
8
CUT
10
156.0721
20
-78.8538
0
VERTEX
8
CUT
10
156.0911
20
-78.9164
0
VERTEX
8
CUT
10
156.1141
20
-78.9777
0
VERTEX
8
CUT
10
156.1411
20
-79.0373
0
VERTEX
8
CUT
10
156.1720
20
-79.0950
0
VERTEX
8
CUT
10
156.2065
20
-79.1506
0
VERTEX
8
CUT
10
156.2446
20
-79.2038
0
VERTEX
8
CUT
10
156.2862
20
-79.2543
0
VERTEX
8
CUT
10
156.3309
20
-79.3021
0
VERTEX
8
CUT
10
156.3787
20
-79.3468
0
VERTEX
8
CUT
10
156.4292
20
-79.3884
0
VERTEX
8
CUT
10
156.4824
20
-79.4265
0
VERTEX
8
CUT
10
156.5380
20
-79.4610
0
VERTEX
8
CUT
10
156.5957
20
-79.4919
0
VERTEX
8
CUT
10
156.6553
20
-79.5189
0
VERTEX
8
CUT
10
156.7166
20
-79.5419
0
VERTEX
8
CUT
10
156.7792
20
-79.5609
0
VERTEX
8
CUT
10
156.8429
20
-79.5758
0
VERTEX
8
CUT
10
156.9075
20
-79.5864
0
VERTEX
8
CUT
10
156.9726
20
-79.5929
0
VERTEX
8
CUT
10
157.0380
20
-79.5950
0
VERTEX
8
CUT
10
166.6625
20
-79.5950
0
SEQEND
0
POLYLINE
8
CUT
66
1
70
1
0
VERTEX
8
CUT
10
164.5906
20
-41.8026
0
VERTEX
8
CUT
10
164.5189
20
-41.7956
0
VERTEX
8
CUT
10
164.4479
20
-41.7839
0
VERTEX
8
CUT
10
164.3778
20
-41.7675
0
VERTEX
8
CUT
10
164.3089
20
-41.7466
0
VERTEX
8
CUT
10
164.2415
20
-41.7213
0
VERTEX
8
CUT
10
164.1760
20
-41.6916
0
VERTEX
8
CUT
10
164.1125
20
-41.6576
0
VERTEX
8
CUT
10
164.0514
20
-41.6196
0
VERTEX
8
CUT
10
163.9929
20
-41.5777
0
VERTEX
8
CUT
10
163.9372
20
-41.5320
0
VERTEX
8
CUT
10
163.8847
20
-41.4828
0
VERTEX
8
CUT
10
163.8355
20
-41.4303
0
VERTEX
8
CUT
10
163.7898
20
-41.3746
0
VERTEX
8
CUT
10
163.7479
20
-41.3161
0
VERTEX
8
CUT
10
163.7099
20
-41.2550
0
VERTEX
8
CUT
10
163.6759
20
-41.1915
0
VERTEX
8
CUT
10
163.6462
20
-41.1260
0
VERTEX
8
CUT
10
163.6209
20
-41.0586
0
VERTEX
8
CUT
10
163.6000
20
-40.9897
0
VERTEX
8
CUT
10
163.5836
20
-40.9196
0
VERTEX
8
CUT
10
163.5719
20
-40.8486
0
VERTEX
8
CUT
10
163.5649
20
-40.7769
0
VERTEX
8
CUT
10
163.5625
20
-40.7050
0
VERTEX
8
CUT
10
163.5649
20
-40.6331
0
VERTEX
8
CUT
10
163.5719
20
-40.5614
0
VERTEX
8
CUT
10
163.5836
20
-40.4904
0
VERTEX
8
CUT
10
163.6000
20
-40.4203
0
VERTEX
8
CUT
10
163.6209
20
-40.3514
0
VERTEX
8
CUT
10
163.6462
20
-40.2840
0
VERTEX
8
CUT
10
163.6759
20
-40.2185
0
VERTEX
8
CUT
10
163.7099
20
-40.1550
0
VERTEX
8
CUT
10
163.7479
20
-40.0939
0
VERTEX
8
CUT
10
163.7898
20
-40.0354
0
VERTEX
8
CUT
10
163.8355
20
-39.9797
0
VERTEX
8
CUT
10
163.8847
20
-39.9272
0
VERTEX
8
CUT
10
163.9372
20
-39.8780
0
VERTEX
8
CUT
10
163.9929
20
-39.8323
0
VERTEX
8
CUT
10
164.0514
20
-39.7904
0
VERTEX
8
CUT
10
164.1125
20
-39.7524
0
VERTEX
8
CUT
10
164.1760
20
-39.7184
0
VERTEX
8
CUT
10
164.2415
20
-39.6887
0
VERTEX
8
CUT
10
164.3089
20
-39.6634
0
VERTEX
8
CUT
10
164.3778
20
-39.6425
0
VERTEX
8
CUT
10
164.4479
20
-39.6261
0
VERTEX
8
CUT
10
164.5189
20
-39.6144
0
VERTEX
8
CUT
10
164.5906
20
-39.6074
0
VERTEX
8
CUT
10
164.6625
20
-39.6050
0
VERTEX
8
CUT
10
164.7344
20
-39.6074
0
VERTEX
8
CUT
10
164.8061
20
-39.6144
0
VERTEX
8
CUT
10
164.8771
20
-39.6261
0
VERTEX
8
CUT
10
164.9472
20
-39.6425
0
VERTEX
8
CUT
10
165.0161
20
-39.6634
0
VERTEX
8
CUT
10
165.0835
20
-39.6887
0
VERTEX
8
CUT
10
165.1490
20
-39.7184
0
VERTEX
8
CUT
10
165.2125
20
-39.7524
0
VERTEX
8
CUT
10
165.2736
20
-39.7904
0
VERTEX
8
CUT
10
165.3321
20
-39.8323
0
VERTEX
8
CUT
10
165.3878
20
-39.8780
0
VERTEX
8
CUT
10
165.4403
20
-39.9272
0
VERTEX
8
CUT
10
165.4895
20
-39.9797
0
VERTEX
8
CUT
10
165.5352
20
-40.0354
0
VERTEX
8
CUT
10
165.5771
20
-40.0939
0
VERTEX
8
CUT
10
165.6151
20
-40.1550
0
VERTEX
8
CUT
10
165.6491
20
-40.2185
0
VERTEX
8
CUT
10
165.6788
20
-40.2840
0
VERTEX
8
CUT
10
165.7041
20
-40.3514
0
VERTEX
8
CUT
10
165.7250
20
-40.4203
0
VERTEX
8
CUT
10
165.7414
20
-40.4904
0
VERTEX
8
CUT
10
165.7531
20
-40.5614
0
VERTEX
8
CUT
10
165.7601
20
-40.6331
0
VERTEX
8
CUT
10
165.7625
20
-40.7050
0
VERTEX
8
CUT
10
165.7601
20
-40.7769
0
VERTEX
8
CUT
10
165.7531
20
-40.8486
0
VERTEX
8
CUT
10
165.7414
20
-40.9196
0
VERTEX
8
CUT
10
165.7250
20
-40.9897
0
VERTEX
8
CUT
10
165.7041
20
-41.0586
0
VERTEX
8
CUT
10
165.6788
20
-41.1260
0
VERTEX
8
CUT
10
165.6491
20
-41.1915
0
VERTEX
8
CUT
10
165.6151
20
-41.2550
0
VERTEX
8
CUT
10
165.5771
20
-41.3161
0
VERTEX
8
CUT
10
165.5352
20
-41.3746
0
VERTEX
8
CUT
10
165.4895
20
-41.4303
0
VERTEX
8
CUT
10
165.4403
20
-41.4828
0
VERTEX
8
CUT
10
165.3878
20
-41.5320
0
VERTEX
8
CUT
10
165.3321
20
-41.5777
0
VERTEX
8
CUT
10
165.2736
20
-41.6196
0
VERTEX
8
CUT
10
165.2125
20
-41.6576
0
VERTEX
8
CUT
10
165.1490
20
-41.6916
0
VERTEX
8
CUT
10
165.0835
20
-41.7213
0
VERTEX
8
CUT
10
165.0161
20
-41.7466
0
VERTEX
8
CUT
10
164.9472
20
-41.7675
0
VERTEX
8
CUT
10
164.8771
20
-41.7839
0
VERTEX
8
CUT
10
164.8061
20
-41.7956
0
VERTEX
8
CUT
10
164.7344
20
-41.8026
0
VERTEX
8
CUT
10
164.6625
20
-41.8050
0
SEQEND
0
POLYLINE
8
CUT
66
1
70
1
0
VERTEX
8
CUT
10
164.5906
20
-74.3026
0
VERTEX
8
CUT
10
164.5189
20
-74.2956
0
VERTEX
8
CUT
10
164.4479
20
-74.2839
0
VERTEX
8
CUT
10
164.3778
20
-74.2675
0
VERTEX
8
CUT
10
164.3089
20
-74.2466
0
VERTEX
8
CUT
10
164.2415
20
-74.2213
0
VERTEX
8
CUT
10
164.1760
20
-74.1916
0
VERTEX
8
CUT
10
164.1125
20
-74.1576
0
VERTEX
8
CUT
10
164.0514
20
-74.1196
0
VERTEX
8
CUT
10
163.9929
20
-74.0777
0
VERTEX
8
CUT
10
163.9372
20
-74.0320
0
VERTEX
8
CUT
10
163.8847
20
-73.9828
0
VERTEX
8
CUT
10
163.8355
20
-73.9303
0
VERTEX
8
CUT
10
163.7898
20
-73.8746
0
VERTEX
8
CUT
10
163.7479
20
-73.8161
0
VERTEX
8
CUT
10
163.7099
20
-73.7550
0
VERTEX
8
CUT
10
163.6759
20
-73.6915
0
VERTEX
8
CUT
10
163.6462
20
-73.6260
0
VERTEX
8
CUT
10
163.6209
20
-73.5586
0
VERTEX
8
CUT
10
163.6000
20
-73.4897
0
VERTEX
8
CUT
10
163.5836
20
-73.4196
0
VERTEX
8
CUT
10
163.5719
20
-73.3486
0
VERTEX
8
CUT
10
163.5649
20
-73.2769
0
VERTEX
8
CUT
10
163.5625
20
-73.2050
0
VERTEX
8
CUT
10
163.5649
20
-73.1331
0
VERTEX
8
CUT
10
163.5719
20
-73.0614
0
VERTEX
8
CUT
10
163.5836
20
-72.9904
0
VERTEX
8
CUT
10
163.6000
20
-72.9203
0
VERTEX
8
CUT
10
163.6209
20
-72.8514
0
VERTEX
8
CUT
10
163.6462
20
-72.7840
0
VERTEX
8
CUT
10
163.6759
20
-72.7185
0
VERTEX
8
CUT
10
163.7099
20
-72.6550
0
VERTEX
8
CUT
10
163.7479
20
-72.5939
0
VERTEX
8
CUT
10
163.7898
20
-72.5354
0
VERTEX
8
CUT
10
163.8355
20
-72.4797
0
VERTEX
8
CUT
10
163.8847
20
-72.4272
0
VERTEX
8
CUT
10
163.9372
20
-72.3780
0
VERTEX
8
CUT
10
163.9929
20
-72.3323
0
VERTEX
8
CUT
10
164.0514
20
-72.2904
0
VERTEX
8
CUT
10
164.1125
20
-72.2524
0
VERTEX
8
CUT
10
164.1760
20
-72.2184
0
VERTEX
8
CUT
10
164.2415
20
-72.1887
0
VERTEX
8
CUT
10
164.3089
20
-72.1634
0
VERTEX
8
CUT
10
164.3778
20
-72.1425
0
VERTEX
8
CUT
10
164.4479
20
-72.1261
0
VERTEX
8
CUT
10
164.5189
20
-72.1144
0
VERTEX
8
CUT
10
164.5906
20
-72.1074
0
VERTEX
8
CUT
10
164.6625
20
-72.1050
0
VERTEX
8
CUT
10
164.7344
20
-72.1074
0
VERTEX
8
CUT
10
164.8061
20
-72.1144
0
VERTEX
8
CUT
10
164.8771
20
-72.1261
0
VERTEX
8
CUT
10
164.9472
20
-72.1425
0
VERTEX
8
CUT
10
165.0161
20
-72.1634
0
VERTEX
8
CUT
10
165.0835
20
-72.1887
0
VERTEX
8
CUT
10
165.1490
20
-72.2184
0
VERTEX
8
CUT
10
165.2125
20
-72.2524
0
VERTEX
8
CUT
10
165.2736
20
-72.2904
0
VERTEX
8
CUT
10
165.3321
20
-72.3323
0
VERTEX
8
CUT
10
165.3878
20
-72.3780
0
VERTEX
8
CUT
10
165.4403
20
-72.4272
0
VERTEX
8
CUT
10
165.4895
20
-72.4797
0
VERTEX
8
CUT
10
165.5352
20
-72.5354
0
VERTEX
8
CUT
10
165.5771
20
-72.5939
0
VERTEX
8
CUT
10
165.6151
20
-72.6550
0
VERTEX
8
CUT
10
165.6491
20
-72.7185
0
VERTEX
8
CUT
10
165.6788
20
-72.7840
0
VERTEX
8
CUT
10
165.7041
20
-72.8514
0
VERTEX
8
CUT
10
165.7250
20
-72.9203
0
VERTEX
8
CUT
10
165.7414
20
-72.9904
0
VERTEX
8
CUT
10
165.7531
20
-73.0614
0
VERTEX
8
CUT
10
165.7601
20
-73.1331
0
VERTEX
8
CUT
10
165.7625
20
-73.2050
0
VERTEX
8
CUT
10
165.7601
20
-73.2769
0
VERTEX
8
CUT
10
165.7531
20
-73.3486
0
VERTEX
8
CUT
10
165.7414
20
-73.4196
0
VERTEX
8
CUT
10
165.7250
20
-73.4897
0
VERTEX
8
CUT
10
165.7041
20
-73.5586
0
VERTEX
8
CUT
10
165.6788
20
-73.6260
0
VERTEX
8
CUT
10
165.6491
20
-73.6915
0
VERTEX
8
CUT
10
165.6151
20
-73.7550
0
VERTEX
8
CUT
10
165.5771
20
-73.8161
0
VERTEX
8
CUT
10
165.5352
20
-73.8746
0
VERTEX
8
CUT
10
165.4895
20
-73.9303
0
VERTEX
8
CUT
10
165.4403
20
-73.9828
0
VERTEX
8
CUT
10
165.3878
20
-74.0320
0
VERTEX
8
CUT
10
165.3321
20
-74.0777
0
VERTEX
8
CUT
10
165.2736
20
-74.1196
0
VERTEX
8
CUT
10
165.2125
20
-74.1576
0
VERTEX
8
CUT
10
165.1490
20
-74.1916
0
VERTEX
8
CUT
10
165.0835
20
-74.2213
0
VERTEX
8
CUT
10
165.0161
20
-74.2466
0
VERTEX
8
CUT
10
164.9472
20
-74.2675
0
VERTEX
8
CUT
10
164.8771
20
-74.2839
0
VERTEX
8
CUT
10
164.8061
20
-74.2956
0
VERTEX
8
CUT
10
164.7344
20
-74.3026
0
VERTEX
8
CUT
10
164.6625
20
-74.3050
0
SEQEND
0
ENDSEC
0
EOF
