0
SECTION
2
HEADER
9
$INSUNITS
70
4
0
ENDSEC
0
SECTION
2
ENTITIES
0
POLYLINE
8
CUT
66
1
70
1
0
VERTEX
8
CUT
10
180.7925
20
-125.7732
0
VERTEX
8
CUT
10
181.6066
20
-125.6931
0
VERTEX
8
CUT
10
182.4136
20
-125.5598
0
VERTEX
8
CUT
10
183.2102
20
-125.3741
0
VERTEX
8
CUT
10
183.9930
20
-125.1366
0
VERTEX
8
CUT
10
184.7585
20
-124.8485
0
VERTEX
8
CUT
10
185.5036
20
-124.5109
0
VERTEX
8
CUT
10
186.2250
20
-124.1253
0
VERTEX
8
CUT
10
186.9196
20
-123.6934
0
VERTEX
8
CUT
10
187.5845
20
-123.2169
0
VERTEX
8
CUT
10
188.2168
20
-122.6980
0
VERTEX
8
CUT
10
188.8138
20
-122.1388
0
VERTEX
8
CUT
10
189.3730
20
-121.5418
0
VERTEX
8
CUT
10
189.8919
20
-120.9095
0
VERTEX
8
CUT
10
190.3684
20
-120.2446
0
VERTEX
8
CUT
10
190.8003
20
-119.5500
0
VERTEX
8
CUT
10
191.1859
20
-118.8286
0
VERTEX
8
CUT
10
191.5235
20
-118.0835
0
VERTEX
8
CUT
10
191.8116
20
-117.3180
0
VERTEX
8
CUT
10
192.0491
20
-116.5352
0
VERTEX
8
CUT
10
192.2348
20
-115.7386
0
VERTEX
8
CUT
10
192.3681
20
-114.9316
0
VERTEX
8
CUT
10
192.4482
20
-114.1175
0
VERTEX
8
CUT
10
192.4750
20
-113.3000
0
VERTEX
8
CUT
10
192.4750
20
-1.0000
0
VERTEX
8
CUT
10
192.4482
20
-0.1825
0
VERTEX
8
CUT
10
192.3681
20
0.6316
0
VERTEX
8
CUT
10
192.2348
20
1.4386
0
VERTEX
8
CUT
10
192.0491
20
2.2352
0
VERTEX
8
CUT
10
191.8116
20
3.0180
0
VERTEX
8
CUT
10
191.5235
20
3.7835
0
VERTEX
8
CUT
10
191.1859
20
4.5286
0
VERTEX
8
CUT
10
190.8003
20
5.2500
0
VERTEX
8
CUT
10
190.3684
20
5.9446
0
VERTEX
8
CUT
10
189.8919
20
6.6095
0
VERTEX
8
CUT
10
189.3730
20
7.2418
0
VERTEX
8
CUT
10
188.8138
20
7.8388
0
VERTEX
8
CUT
10
188.2168
20
8.3980
0
VERTEX
8
CUT
10
187.5845
20
8.9169
0
VERTEX
8
CUT
10
186.9196
20
9.3934
0
VERTEX
8
CUT
10
186.2250
20
9.8253
0
VERTEX
8
CUT
10
185.5036
20
10.2109
0
VERTEX
8
CUT
10
184.7585
20
10.5485
0
VERTEX
8
CUT
10
183.9930
20
10.8366
0
VERTEX
8
CUT
10
183.2102
20
11.0741
0
VERTEX
8
CUT
10
182.4136
20
11.2598
0
VERTEX
8
CUT
10
181.6066
20
11.3931
0
VERTEX
8
CUT
10
180.7925
20
11.4732
0
VERTEX
8
CUT
10
179.9750
20
11.5000
0
VERTEX
8
CUT
10
1.0000
20
11.5000
0
VERTEX
8
CUT
10
0.1825
20
11.4732
0
VERTEX
8
CUT
10
-0.6316
20
11.3931
0
VERTEX
8
CUT
10
-1.4386
20
11.2598
0
VERTEX
8
CUT
10
-2.2352
20
11.0741
0
VERTEX
8
CUT
10
-3.0180
20
10.8366
0
VERTEX
8
CUT
10
-3.7835
20
10.5485
0
VERTEX
8
CUT
10
-4.5286
20
10.2109
0
VERTEX
8
CUT
10
-5.2500
20
9.8253
0
VERTEX
8
CUT
10
-5.9446
20
9.3934
0
VERTEX
8
CUT
10
-6.6095
20
8.9169
0
VERTEX
8
CUT
10
-7.2418
20
8.3980
0
VERTEX
8
CUT
10
-7.8388
20
7.8388
0
VERTEX
8
CUT
10
-8.3980
20
7.2418
0
VERTEX
8
CUT
10
-8.9169
20
6.6095
0
VERTEX
8
CUT
10
-9.3934
20
5.9446
0
VERTEX
8
CUT
10
-9.8253
20
5.2500
0
VERTEX
8
CUT
10
-10.2109
20
4.5286
0
VERTEX
8
CUT
10
-10.5485
20
3.7835
0
VERTEX
8
CUT
10
-10.8366
20
3.0180
0
VERTEX
8
CUT
10
-11.0741
20
2.2352
0
VERTEX
8
CUT
10
-11.2598
20
1.4386
0
VERTEX
8
CUT
10
-11.3931
20
0.6316
0
VERTEX
8
CUT
10
-11.4732
20
-0.1825
0
VERTEX
8
CUT
10
-11.5000
20
-1.0000
0
VERTEX
8
CUT
10
-11.5000
20
-113.3000
0
VERTEX
8
CUT
10
-11.4732
20
-114.1175
0
VERTEX
8
CUT
10
-11.3931
20
-114.9316
0
VERTEX
8
CUT
10
-11.2598
20
-115.7386
0
VERTEX
8
CUT
10
-11.0741
20
-116.5352
0
VERTEX
8
CUT
10
-10.8366
20
-117.3180
0
VERTEX
8
CUT
10
-10.5485
20
-118.0835
0
VERTEX
8
CUT
10
-10.2109
20
-118.8286
0
VERTEX
8
CUT
10
-9.8253
20
-119.5500
0
VERTEX
8
CUT
10
-9.3934
20
-120.2446
0
VERTEX
8
CUT
10
-8.9169
20
-120.9095
0
VERTEX
8
CUT
10
-8.3980
20
-121.5418
0
VERTEX
8
CUT
10
-7.8388
20
-122.1388
0
VERTEX
8
CUT
10
-7.2418
20
-122.6980
0
VERTEX
8
CUT
10
-6.6095
20
-123.2169
0
VERTEX
8
CUT
10
-5.9446
20
-123.6934
0
VERTEX
8
CUT
10
-5.2500
20
-124.1253
0
VERTEX
8
CUT
10
-4.5286
20
-124.5109
0
VERTEX
8
CUT
10
-3.7835
20
-124.8485
0
VERTEX
8
CUT
10
-3.0180
20
-125.1366
0
VERTEX
8
CUT
10
-2.2352
20
-125.3741
0
VERTEX
8
CUT
10
-1.4386
20
-125.5598
0
VERTEX
8
CUT
10
-0.6316
20
-125.6931
0
VERTEX
8
CUT
10
0.1825
20
-125.7732
0
VERTEX
8
CUT
10
1.0000
20
-125.8000
0
VERTEX
8
CUT
10
179.9750
20
-125.8000
0
SEQEND
0
POLYLINE
8
CUT
66
1
70
1
0
VERTEX
8
CUT
10
41.4218
20
6.4024
0
VERTEX
8
CUT
10
41.3502
20
6.4094
0
VERTEX
8
CUT
10
41.2792
20
6.4211
0
VERTEX
8
CUT
10
41.2090
20
6.4375
0
VERTEX
8
CUT
10
41.1402
20
6.4584
0
VERTEX
8
CUT
10
41.0728
20
6.4837
0
VERTEX
8
CUT
10
41.0072
20
6.5134
0
VERTEX
8
CUT
10
40.9438
20
6.5474
0
VERTEX
8
CUT
10
40.8826
20
6.5854
0
VERTEX
8
CUT
10
40.8241
20
6.6273
0
VERTEX
8
CUT
10
40.7685
20
6.6730
0
VERTEX
8
CUT
10
40.7159
20
6.7222
0
VERTEX
8
CUT
10
40.6667
20
6.7747
0
VERTEX
8
CUT
10
40.6211
20
6.8304
0
VERTEX
8
CUT
10
40.5791
20
6.8889
0
VERTEX
8
CUT
10
40.5411
20
6.9500
0
VERTEX
8
CUT
10
40.5072
20
7.0135
0
VERTEX
8
CUT
10
40.4775
20
7.0790
0
VERTEX
8
CUT
10
40.4521
20
7.1464
0
VERTEX
8
CUT
10
40.4312
20
7.2153
0
VERTEX
8
CUT
10
40.4149
20
7.2854
0
VERTEX
8
CUT
10
40.4032
20
7.3564
0
VERTEX
8
CUT
10
40.3961
20
7.4281
0
VERTEX
8
CUT
10
40.3937
20
7.5000
0
VERTEX
8
CUT
10
40.3961
20
7.5719
0
VERTEX
8
CUT
10
40.4032
20
7.6436
0
VERTEX
8
CUT
10
40.4149
20
7.7146
0
VERTEX
8
CUT
10
40.4312
20
7.7847
0
VERTEX
8
CUT
10
40.4521
20
7.8536
0
VERTEX
8
CUT
10
40.4775
20
7.9210
0
VERTEX
8
CUT
10
40.5072
20
7.9865
0
VERTEX
8
CUT
10
40.5411
20
8.0500
0
VERTEX
8
CUT
10
40.5791
20
8.1111
0
VERTEX
8
CUT
10
40.6211
20
8.1696
0
VERTEX
8
CUT
10
40.6667
20
8.2253
0
VERTEX
8
CUT
10
40.7159
20
8.2778
0
VERTEX
8
CUT
10
40.7685
20
8.3270
0
VERTEX
8
CUT
10
40.8241
20
8.3727
0
VERTEX
8
CUT
10
40.8826
20
8.4146
0
VERTEX
8
CUT
10
40.9438
20
8.4526
0
VERTEX
8
CUT
10
41.0072
20
8.4866
0
VERTEX
8
CUT
10
41.0728
20
8.5163
0
VERTEX
8
CUT
10
41.1402
20
8.5416
0
VERTEX
8
CUT
10
41.2090
20
8.5625
0
VERTEX
8
CUT
10
41.2792
20
8.5789
0
VERTEX
8
CUT
10
41.3502
20
8.5906
0
VERTEX
8
CUT
10
41.4218
20
8.5976
0
VERTEX
8
CUT
10
41.4937
20
8.6000
0
VERTEX
8
CUT
10
41.5657
20
8.5976
0
VERTEX
8
CUT
10
41.6373
20
8.5906
0
VERTEX
8
CUT
10
41.7083
20
8.5789
0
VERTEX
8
CUT
10
41.7785
20
8.5625
0
VERTEX
8
CUT
10
41.8473
20
8.5416
0
VERTEX
8
CUT
10
41.9147
20
8.5163
0
VERTEX
8
CUT
10
41.9803
20
8.4866
0
VERTEX
8
CUT
10
42.0438
20
8.4526
0
VERTEX
8
CUT
10
42.1049
20
8.4146
0
VERTEX
8
CUT
10
42.1634
20
8.3727
0
VERTEX
8
CUT
10
42.2190
20
8.3270
0
VERTEX
8
CUT
10
42.2716
20
8.2778
0
VERTEX
8
CUT
10
42.3208
20
8.2253
0
VERTEX
8
CUT
10
42.3664
20
8.1696
0
VERTEX
8
CUT
10
42.4084
20
8.1111
0
VERTEX
8
CUT
10
42.4464
20
8.0500
0
VERTEX
8
CUT
10
42.4803
20
7.9865
0
VERTEX
8
CUT
10
42.5100
20
7.9210
0
VERTEX
8
CUT
10
42.5354
20
7.8536
0
VERTEX
8
CUT
10
42.5563
20
7.7847
0
VERTEX
8
CUT
10
42.5726
20
7.7146
0
VERTEX
8
CUT
10
42.5843
20
7.6436
0
VERTEX
8
CUT
10
42.5914
20
7.5719
0
VERTEX
8
CUT
10
42.5938
20
7.5000
0
VERTEX
8
CUT
10
42.5914
20
7.4281
0
VERTEX
8
CUT
10
42.5843
20
7.3564
0
VERTEX
8
CUT
10
42.5726
20
7.2854
0
VERTEX
8
CUT
10
42.5563
20
7.2153
0
VERTEX
8
CUT
10
42.5354
20
7.1464
0
VERTEX
8
CUT
10
42.5100
20
7.0790
0
VERTEX
8
CUT
10
42.4803
20
7.0135
0
VERTEX
8
CUT
10
42.4464
20
6.9500
0
VERTEX
8
CUT
10
42.4084
20
6.8889
0
VERTEX
8
CUT
10
42.3664
20
6.8304
0
VERTEX
8
CUT
10
42.3208
20
6.7747
0
VERTEX
8
CUT
10
42.2716
20
6.7222
0
VERTEX
8
CUT
10
42.2190
20
6.6730
0
VERTEX
8
CUT
10
42.1634
20
6.6273
0
VERTEX
8
CUT
10
42.1049
20
6.5854
0
VERTEX
8
CUT
10
42.0438
20
6.5474
0
VERTEX
8
CUT
10
41.9803
20
6.5134
0
VERTEX
8
CUT
10
41.9147
20
6.4837
0
VERTEX
8
CUT
10
41.8473
20
6.4584
0
VERTEX
8
CUT
10
41.7785
20
6.4375
0
VERTEX
8
CUT
10
41.7083
20
6.4211
0
VERTEX
8
CUT
10
41.6373
20
6.4094
0
VERTEX
8
CUT
10
41.5657
20
6.4024
0
VERTEX
8
CUT
10
41.4937
20
6.4000
0
SEQEND
0
POLYLINE
8
CUT
66
1
70
1
0
VERTEX
8
CUT
10
90.4156
20
6.4024
0
VERTEX
8
CUT
10
90.3439
20
6.4094
0
VERTEX
8
CUT
10
90.2729
20
6.4211
0
VERTEX
8
CUT
10
90.2028
20
6.4375
0
VERTEX
8
CUT
10
90.1339
20
6.4584
0
VERTEX
8
CUT
10
90.0665
20
6.4837
0
VERTEX
8
CUT
10
90.0010
20
6.5134
0
VERTEX
8
CUT
10
89.9375
20
6.5474
0
VERTEX
8
CUT
10
89.8764
20
6.5854
0
VERTEX
8
CUT
10
89.8179
20
6.6273
0
VERTEX
8
CUT
10
89.7622
20
6.6730
0
VERTEX
8
CUT
10
89.7097
20
6.7222
0
VERTEX
8
CUT
10
89.6605
20
6.7747
0
VERTEX
8
CUT
10
89.6148
20
6.8304
0
VERTEX
8
CUT
10
89.5729
20
6.8889
0
VERTEX
8
CUT
10
89.5349
20
6.9500
0
VERTEX
8
CUT
10
89.5009
20
7.0135
0
VERTEX
8
CUT
10
89.4712
20
7.0790
0
VERTEX
8
CUT
10
89.4459
20
7.1464
0
VERTEX
8
CUT
10
89.4250
20
7.2153
0
VERTEX
8
CUT
10
89.4086
20
7.2854
0
VERTEX
8
CUT
10
89.3969
20
7.3564
0
VERTEX
8
CUT
10
89.3899
20
7.4281
0
VERTEX
8
CUT
10
89.3875
20
7.5000
0
VERTEX
8
CUT
10
89.3899
20
7.5719
0
VERTEX
8
CUT
10
89.3969
20
7.6436
0
VERTEX
8
CUT
10
89.4086
20
7.7146
0
VERTEX
8
CUT
10
89.4250
20
7.7847
0
VERTEX
8
CUT
10
89.4459
20
7.8536
0
VERTEX
8
CUT
10
89.4712
20
7.9210
0
VERTEX
8
CUT
10
89.5009
20
7.9865
0
VERTEX
8
CUT
10
89.5349
20
8.0500
0
VERTEX
8
CUT
10
89.5729
20
8.1111
0
VERTEX
8
CUT
10
89.6148
20
8.1696
0
VERTEX
8
CUT
10
89.6605
20
8.2253
0
VERTEX
8
CUT
10
89.7097
20
8.2778
0
VERTEX
8
CUT
10
89.7622
20
8.3270
0
VERTEX
8
CUT
10
89.8179
20
8.3727
0
VERTEX
8
CUT
10
89.8764
20
8.4146
0
VERTEX
8
CUT
10
89.9375
20
8.4526
0
VERTEX
8
CUT
10
90.0010
20
8.4866
0
VERTEX
8
CUT
10
90.0665
20
8.5163
0
VERTEX
8
CUT
10
90.1339
20
8.5416
0
VERTEX
8
CUT
10
90.2028
20
8.5625
0
VERTEX
8
CUT
10
90.2729
20
8.5789
0
VERTEX
8
CUT
10
90.3439
20
8.5906
0
VERTEX
8
CUT
10
90.4156
20
8.5976
0
VERTEX
8
CUT
10
90.4875
20
8.6000
0
VERTEX
8
CUT
10
90.5594
20
8.5976
0
VERTEX
8
CUT
10
90.6311
20
8.5906
0
VERTEX
8
CUT
10
90.7021
20
8.5789
0
VERTEX
8
CUT
10
90.7722
20
8.5625
0
VERTEX
8
CUT
10
90.8411
20
8.5416
0
VERTEX
8
CUT
10
90.9085
20
8.5163
0
VERTEX
8
CUT
10
90.9740
20
8.4866
0
VERTEX
8
CUT
10
91.0375
20
8.4526
0
VERTEX
8
CUT
10
91.0986
20
8.4146
0
VERTEX
8
CUT
10
91.1571
20
8.3727
0
VERTEX
8
CUT
10
91.2128
20
8.3270
0
VERTEX
8
CUT
10
91.2653
20
8.2778
0
VERTEX
8
CUT
10
91.3145
20
8.2253
0
VERTEX
8
CUT
10
91.3602
20
8.1696
0
VERTEX
8
CUT
10
91.4021
20
8.1111
0
VERTEX
8
CUT
10
91.4401
20
8.0500
0
VERTEX
8
CUT
10
91.4741
20
7.9865
0
VERTEX
8
CUT
10
91.5038
20
7.9210
0
VERTEX
8
CUT
10
91.5291
20
7.8536
0
VERTEX
8
CUT
10
91.5500
20
7.7847
0
VERTEX
8
CUT
10
91.5664
20
7.7146
0
VERTEX
8
CUT
10
91.5781
20
7.6436
0
VERTEX
8
CUT
10
91.5851
20
7.5719
0
VERTEX
8
CUT
10
91.5875
20
7.5000
0
VERTEX
8
CUT
10
91.5851
20
7.4281
0
VERTEX
8
CUT
10
91.5781
20
7.3564
0
VERTEX
8
CUT
10
91.5664
20
7.2854
0
VERTEX
8
CUT
10
91.5500
20
7.2153
0
VERTEX
8
CUT
10
91.5291
20
7.1464
0
VERTEX
8
CUT
10
91.5038
20
7.0790
0
VERTEX
8
CUT
10
91.4741
20
7.0135
0
VERTEX
8
CUT
10
91.4401
20
6.9500
0
VERTEX
8
CUT
10
91.4021
20
6.8889
0
VERTEX
8
CUT
10
91.3602
20
6.8304
0
VERTEX
8
CUT
10
91.3145
20
6.7747
0
VERTEX
8
CUT
10
91.2653
20
6.7222
0
VERTEX
8
CUT
10
91.2128
20
6.6730
0
VERTEX
8
CUT
10
91.1571
20
6.6273
0
VERTEX
8
CUT
10
91.0986
20
6.5854
0
VERTEX
8
CUT
10
91.0375
20
6.5474
0
VERTEX
8
CUT
10
90.9740
20
6.5134
0
VERTEX
8
CUT
10
90.9085
20
6.4837
0
VERTEX
8
CUT
10
90.8411
20
6.4584
0
VERTEX
8
CUT
10
90.7722
20
6.4375
0
VERTEX
8
CUT
10
90.7021
20
6.4211
0
VERTEX
8
CUT
10
90.6311
20
6.4094
0
VERTEX
8
CUT
10
90.5594
20
6.4024
0
VERTEX
8
CUT
10
90.4875
20
6.4000
0
SEQEND
0
POLYLINE
8
CUT
66
1
70
1
0
VERTEX
8
CUT
10
139.4093
20
6.4024
0
VERTEX
8
CUT
10
139.3377
20
6.4094
0
VERTEX
8
CUT
10
139.2667
20
6.4211
0
VERTEX
8
CUT
10
139.1965
20
6.4375
0
VERTEX
8
CUT
10
139.1277
20
6.4584
0
VERTEX
8
CUT
10
139.0603
20
6.4837
0
VERTEX
8
CUT
10
138.9947
20
6.5134
0
VERTEX
8
CUT
10
138.9312
20
6.5474
0
VERTEX
8
CUT
10
138.8701
20
6.5854
0
VERTEX
8
CUT
10
138.8116
20
6.6273
0
VERTEX
8
CUT
10
138.7560
20
6.6730
0
VERTEX
8
CUT
10
138.7034
20
6.7222
0
VERTEX
8
CUT
10
138.6542
20
6.7747
0
VERTEX
8
CUT
10
138.6086
20
6.8304
0
VERTEX
8
CUT
10
138.5666
20
6.8889
0
VERTEX
8
CUT
10
138.5286
20
6.9500
0
VERTEX
8
CUT
10
138.4947
20
7.0135
0
VERTEX
8
CUT
10
138.4650
20
7.0790
0
VERTEX
8
CUT
10
138.4396
20
7.1464
0
VERTEX
8
CUT
10
138.4187
20
7.2153
0
VERTEX
8
CUT
10
138.4024
20
7.2854
0
VERTEX
8
CUT
10
138.3907
20
7.3564
0
VERTEX
8
CUT
10
138.3836
20
7.4281
0
VERTEX
8
CUT
10
138.3813
20
7.5000
0
VERTEX
8
CUT
10
138.3836
20
7.5719
0
VERTEX
8
CUT
10
138.3907
20
7.6436
0
VERTEX
8
CUT
10
138.4024
20
7.7146
0
VERTEX
8
CUT
10
138.4187
20
7.7847
0
VERTEX
8
CUT
10
138.4396
20
7.8536
0
VERTEX
8
CUT
10
138.4650
20
7.9210
0
VERTEX
8
CUT
10
138.4947
20
7.9865
0
VERTEX
8
CUT
10
138.5286
20
8.0500
0
VERTEX
8
CUT
10
138.5666
20
8.1111
0
VERTEX
8
CUT
10
138.6086
20
8.1696
0
VERTEX
8
CUT
10
138.6542
20
8.2253
0
VERTEX
8
CUT
10
138.7034
20
8.2778
0
VERTEX
8
CUT
10
138.7560
20
8.3270
0
VERTEX
8
CUT
10
138.8116
20
8.3727
0
VERTEX
8
CUT
10
138.8701
20
8.4146
0
VERTEX
8
CUT
10
138.9312
20
8.4526
0
VERTEX
8
CUT
10
138.9947
20
8.4866
0
VERTEX
8
CUT
10
139.0603
20
8.5163
0
VERTEX
8
CUT
10
139.1277
20
8.5416
0
VERTEX
8
CUT
10
139.1965
20
8.5625
0
VERTEX
8
CUT
10
139.2667
20
8.5789
0
VERTEX
8
CUT
10
139.3377
20
8.5906
0
VERTEX
8
CUT
10
139.4093
20
8.5976
0
VERTEX
8
CUT
10
139.4813
20
8.6000
0
VERTEX
8
CUT
10
139.5532
20
8.5976
0
VERTEX
8
CUT
10
139.6248
20
8.5906
0
VERTEX
8
CUT
10
139.6958
20
8.5789
0
VERTEX
8
CUT
10
139.7660
20
8.5625
0
VERTEX
8
CUT
10
139.8348
20
8.5416
0
VERTEX
8
CUT
10
139.9022
20
8.5163
0
VERTEX
8
CUT
10
139.9678
20
8.4866
0
VERTEX
8
CUT
10
140.0312
20
8.4526
0
VERTEX
8
CUT
10
140.0924
20
8.4146
0
VERTEX
8
CUT
10
140.1509
20
8.3727
0
VERTEX
8
CUT
10
140.2065
20
8.3270
0
VERTEX
8
CUT
10
140.2591
20
8.2778
0
VERTEX
8
CUT
10
140.3083
20
8.2253
0
VERTEX
8
CUT
10
140.3539
20
8.1696
0
VERTEX
8
CUT
10
140.3959
20
8.1111
0
VERTEX
8
CUT
10
140.4339
20
8.0500
0
VERTEX
8
CUT
10
140.4678
20
7.9865
0
VERTEX
8
CUT
10
140.4975
20
7.9210
0
VERTEX
8
CUT
10
140.5229
20
7.8536
0
VERTEX
8
CUT
10
140.5438
20
7.7847
0
VERTEX
8
CUT
10
140.5601
20
7.7146
0
VERTEX
8
CUT
10
140.5718
20
7.6436
0
VERTEX
8
CUT
10
140.5789
20
7.5719
0
VERTEX
8
CUT
10
140.5812
20
7.5000
0
VERTEX
8
CUT
10
140.5789
20
7.4281
0
VERTEX
8
CUT
10
140.5718
20
7.3564
0
VERTEX
8
CUT
10
140.5601
20
7.2854
0
VERTEX
8
CUT
10
140.5438
20
7.2153
0
VERTEX
8
CUT
10
140.5229
20
7.1464
0
VERTEX
8
CUT
10
140.4975
20
7.0790
0
VERTEX
8
CUT
10
140.4678
20
7.0135
0
VERTEX
8
CUT
10
140.4339
20
6.9500
0
VERTEX
8
CUT
10
140.3959
20
6.8889
0
VERTEX
8
CUT
10
140.3539
20
6.8304
0
VERTEX
8
CUT
10
140.3083
20
6.7747
0
VERTEX
8
CUT
10
140.2591
20
6.7222
0
VERTEX
8
CUT
10
140.2065
20
6.6730
0
VERTEX
8
CUT
10
140.1509
20
6.6273
0
VERTEX
8
CUT
10
140.0924
20
6.5854
0
VERTEX
8
CUT
10
140.0312
20
6.5474
0
VERTEX
8
CUT
10
139.9678
20
6.5134
0
VERTEX
8
CUT
10
139.9022
20
6.4837
0
VERTEX
8
CUT
10
139.8348
20
6.4584
0
VERTEX
8
CUT
10
139.7660
20
6.4375
0
VERTEX
8
CUT
10
139.6958
20
6.4211
0
VERTEX
8
CUT
10
139.6248
20
6.4094
0
VERTEX
8
CUT
10
139.5532
20
6.4024
0
VERTEX
8
CUT
10
139.4813
20
6.4000
0
SEQEND
0
POLYLINE
8
CUT
66
1
70
1
0
VERTEX
8
CUT
10
-5.0824
20
3.9128
0
VERTEX
8
CUT
10
-5.1540
20
3.9198
0
VERTEX
8
CUT
10
-5.2250
20
3.9315
0
VERTEX
8
CUT
10
-5.2951
20
3.9479
0
VERTEX
8
CUT
10
-5.3640
20
3.9688
0
VERTEX
8
CUT
10
-5.4314
20
3.9941
0
VERTEX
8
CUT
10
-5.4969
20
4.0238
0
VERTEX
8
CUT
10
-5.5604
20
4.0578
0
VERTEX
8
CUT
10
-5.6215
20
4.0958
0
VERTEX
8
CUT
10
-5.6800
20
4.1377
0
VERTEX
8
CUT
10
-5.7357
20
4.1834
0
VERTEX
8
CUT
10
-5.7882
20
4.2326
0
VERTEX
8
CUT
10
-5.8374
20
4.2851
0
VERTEX
8
CUT
10
-5.8831
20
4.3408
0
VERTEX
8
CUT
10
-5.9250
20
4.3993
0
VERTEX
8
CUT
10
-5.9630
20
4.4604
0
VERTEX
8
CUT
10
-5.9970
20
4.5239
0
VERTEX
8
CUT
10
-6.0267
20
4.5895
0
VERTEX
8
CUT
10
-6.0520
20
4.6568
0
VERTEX
8
CUT
10
-6.0729
20
4.7257
0
VERTEX
8
CUT
10
-6.0893
20
4.7958
0
VERTEX
8
CUT
10
-6.1010
20
4.8668
0
VERTEX
8
CUT
10
-6.1081
20
4.9385
0
VERTEX
8
CUT
10
-6.1104
20
5.0104
0
VERTEX
8
CUT
10
-6.1081
20
5.0824
0
VERTEX
8
CUT
10
-6.1010
20
5.1540
0
VERTEX
8
CUT
10
-6.0893
20
5.2250
0
VERTEX
8
CUT
10
-6.0729
20
5.2951
0
VERTEX
8
CUT
10
-6.0520
20
5.3640
0
VERTEX
8
CUT
10
-6.0267
20
5.4314
0
VERTEX
8
CUT
10
-5.9970
20
5.4969
0
VERTEX
8
CUT
10
-5.9630
20
5.5604
0
VERTEX
8
CUT
10
-5.9250
20
5.6215
0
VERTEX
8
CUT
10
-5.8831
20
5.6800
0
VERTEX
8
CUT
10
-5.8374
20
5.7357
0
VERTEX
8
CUT
10
-5.7882
20
5.7882
0
VERTEX
8
CUT
10
-5.7357
20
5.8374
0
VERTEX
8
CUT
10
-5.6800
20
5.8831
0
VERTEX
8
CUT
10
-5.6215
20
5.9250
0
VERTEX
8
CUT
10
-5.5604
20
5.9630
0
VERTEX
8
CUT
10
-5.4969
20
5.9970
0
VERTEX
8
CUT
10
-5.4314
20
6.0267
0
VERTEX
8
CUT
10
-5.3640
20
6.0520
0
VERTEX
8
CUT
10
-5.2951
20
6.0729
0
VERTEX
8
CUT
10
-5.2250
20
6.0893
0
VERTEX
8
CUT
10
-5.1540
20
6.1010
0
VERTEX
8
CUT
10
-5.0824
20
6.1081
0
VERTEX
8
CUT
10
-5.0104
20
6.1104
0
VERTEX
8
CUT
10
-4.9385
20
6.1081
0
VERTEX
8
CUT
10
-4.8668
20
6.1010
0
VERTEX
8
CUT
10
-4.7958
20
6.0893
0
VERTEX
8
CUT
10
-4.7257
20
6.0729
0
VERTEX
8
CUT
10
-4.6568
20
6.0520
0
VERTEX
8
CUT
10
-4.5895
20
6.0267
0
VERTEX
8
CUT
10
-4.5239
20
5.9970
0
VERTEX
8
CUT
10
-4.4604
20
5.9630
0
VERTEX
8
CUT
10
-4.3993
20
5.9250
0
VERTEX
8
CUT
10
-4.3408
20
5.8831
0
VERTEX
8
CUT
10
-4.2851
20
5.8374
0
VERTEX
8
CUT
10
-4.2326
20
5.7882
0
VERTEX
8
CUT
10
-4.1834
20
5.7357
0
VERTEX
8
CUT
10
-4.1377
20
5.6800
0
VERTEX
8
CUT
10
-4.0958
20
5.6215
0
VERTEX
8
CUT
10
-4.0578
20
5.5604
0
VERTEX
8
CUT
10
-4.0238
20
5.4969
0
VERTEX
8
CUT
10
-3.9941
20
5.4314
0
VERTEX
8
CUT
10
-3.9688
20
5.3640
0
VERTEX
8
CUT
10
-3.9479
20
5.2951
0
VERTEX
8
CUT
10
-3.9315
20
5.2250
0
VERTEX
8
CUT
10
-3.9198
20
5.1540
0
VERTEX
8
CUT
10
-3.9128
20
5.0824
0
VERTEX
8
CUT
10
-3.9104
20
5.0104
0
VERTEX
8
CUT
10
-3.9128
20
4.9385
0
VERTEX
8
CUT
10
-3.9198
20
4.8668
0
VERTEX
8
CUT
10
-3.9315
20
4.7958
0
VERTEX
8
CUT
10
-3.9479
20
4.7257
0
VERTEX
8
CUT
10
-3.9688
20
4.6568
0
VERTEX
8
CUT
10
-3.9941
20
4.5895
0
VERTEX
8
CUT
10
-4.0238
20
4.5239
0
VERTEX
8
CUT
10
-4.0578
20
4.4604
0
VERTEX
8
CUT
10
-4.0958
20
4.3993
0
VERTEX
8
CUT
10
-4.1377
20
4.3408
0
VERTEX
8
CUT
10
-4.1834
20
4.2851
0
VERTEX
8
CUT
10
-4.2326
20
4.2326
0
VERTEX
8
CUT
10
-4.2851
20
4.1834
0
VERTEX
8
CUT
10
-4.3408
20
4.1377
0
VERTEX
8
CUT
10
-4.3993
20
4.0958
0
VERTEX
8
CUT
10
-4.4604
20
4.0578
0
VERTEX
8
CUT
10
-4.5239
20
4.0238
0
VERTEX
8
CUT
10
-4.5895
20
3.9941
0
VERTEX
8
CUT
10
-4.6568
20
3.9688
0
VERTEX
8
CUT
10
-4.7257
20
3.9479
0
VERTEX
8
CUT
10
-4.7958
20
3.9315
0
VERTEX
8
CUT
10
-4.8668
20
3.9198
0
VERTEX
8
CUT
10
-4.9385
20
3.9128
0
VERTEX
8
CUT
10
-5.0104
20
3.9104
0
SEQEND
0
POLYLINE
8
CUT
66
1
70
1
0
VERTEX
8
CUT
10
185.9135
20
3.9128
0
VERTEX
8
CUT
10
185.8418
20
3.9198
0
VERTEX
8
CUT
10
185.7708
20
3.9315
0
VERTEX
8
CUT
10
185.7007
20
3.9479
0
VERTEX
8
CUT
10
185.6318
20
3.9688
0
VERTEX
8
CUT
10
185.5645
20
3.9941
0
VERTEX
8
CUT
10
185.4989
20
4.0238
0
VERTEX
8
CUT
10
185.4354
20
4.0578
0
VERTEX
8
CUT
10
185.3743
20
4.0958
0
VERTEX
8
CUT
10
185.3158
20
4.1377
0
VERTEX
8
CUT
10
185.2601
20
4.1834
0
VERTEX
8
CUT
10
185.2076
20
4.2326
0
VERTEX
8
CUT
10
185.1584
20
4.2851
0
VERTEX
8
CUT
10
185.1127
20
4.3408
0
VERTEX
8
CUT
10
185.0708
20
4.3993
0
VERTEX
8
CUT
10
185.0328
20
4.4604
0
VERTEX
8
CUT
10
184.9988
20
4.5239
0
VERTEX
8
CUT
10
184.9691
20
4.5895
0
VERTEX
8
CUT
10
184.9438
20
4.6568
0
VERTEX
8
CUT
10
184.9229
20
4.7257
0
VERTEX
8
CUT
10
184.9065
20
4.7958
0
VERTEX
8
CUT
10
184.8948
20
4.8668
0
VERTEX
8
CUT
10
184.8878
20
4.9385
0
VERTEX
8
CUT
10
184.8854
20
5.0104
0
VERTEX
8
CUT
10
184.8878
20
5.0824
0
VERTEX
8
CUT
10
184.8948
20
5.1540
0
VERTEX
8
CUT
10
184.9065
20
5.2250
0
VERTEX
8
CUT
10
184.9229
20
5.2951
0
VERTEX
8
CUT
10
184.9438
20
5.3640
0
VERTEX
8
CUT
10
184.9691
20
5.4314
0
VERTEX
8
CUT
10
184.9988
20
5.4969
0
VERTEX
8
CUT
10
185.0328
20
5.5604
0
VERTEX
8
CUT
10
185.0708
20
5.6215
0
VERTEX
8
CUT
10
185.1127
20
5.6800
0
VERTEX
8
CUT
10
185.1584
20
5.7357
0
VERTEX
8
CUT
10
185.2076
20
5.7882
0
VERTEX
8
CUT
10
185.2601
20
5.8374
0
VERTEX
8
CUT
10
185.3158
20
5.8831
0
VERTEX
8
CUT
10
185.3743
20
5.9250
0
VERTEX
8
CUT
10
185.4354
20
5.9630
0
VERTEX
8
CUT
10
185.4989
20
5.9970
0
VERTEX
8
CUT
10
185.5645
20
6.0267
0
VERTEX
8
CUT
10
185.6318
20
6.0520
0
VERTEX
8
CUT
10
185.7007
20
6.0729
0
VERTEX
8
CUT
10
185.7708
20
6.0893
0
VERTEX
8
CUT
10
185.8418
20
6.1010
0
VERTEX
8
CUT
10
185.9135
20
6.1081
0
VERTEX
8
CUT
10
185.9854
20
6.1104
0
VERTEX
8
CUT
10
186.0574
20
6.1081
0
VERTEX
8
CUT
10
186.1290
20
6.1010
0
VERTEX
8
CUT
10
186.2000
20
6.0893
0
VERTEX
8
CUT
10
186.2701
20
6.0729
0
VERTEX
8
CUT
10
186.3390
20
6.0520
0
VERTEX
8
CUT
10
186.4064
20
6.0267
0
VERTEX
8
CUT
10
186.4719
20
5.9970
0
VERTEX
8
CUT
10
186.5354
20
5.9630
0
VERTEX
8
CUT
10
186.5965
20
5.9250
0
VERTEX
8
CUT
10
186.6550
20
5.8831
0
VERTEX
8
CUT
10
186.7107
20
5.8374
0
VERTEX
8
CUT
10
186.7632
20
5.7882
0
VERTEX
8
CUT
10
186.8124
20
5.7357
0
VERTEX
8
CUT
10
186.8581
20
5.6800
0
VERTEX
8
CUT
10
186.9000
20
5.6215
0
VERTEX
8
CUT
10
186.9380
20
5.5604
0
VERTEX
8
CUT
10
186.9720
20
5.4969
0
VERTEX
8
CUT
10
187.0017
20
5.4314
0
VERTEX
8
CUT
10
187.0270
20
5.3640
0
VERTEX
8
CUT
10
187.0479
20
5.2951
0
VERTEX
8
CUT
10
187.0643
20
5.2250
0
VERTEX
8
CUT
10
187.0760
20
5.1540
0
VERTEX
8
CUT
10
187.0831
20
5.0824
0
VERTEX
8
CUT
10
187.0854
20
5.0104
0
VERTEX
8
CUT
10
187.0831
20
4.9385
0
VERTEX
8
CUT
10
187.0760
20
4.8668
0
VERTEX
8
CUT
10
187.0643
20
4.7958
0
VERTEX
8
CUT
10
187.0479
20
4.7257
0
VERTEX
8
CUT
10
187.0270
20
4.6568
0
VERTEX
8
CUT
10
187.0017
20
4.5895
0
VERTEX
8
CUT
10
186.9720
20
4.5239
0
VERTEX
8
CUT
10
186.9380
20
4.4604
0
VERTEX
8
CUT
10
186.9000
20
4.3993
0
VERTEX
8
CUT
10
186.8581
20
4.3408
0
VERTEX
8
CUT
10
186.8124
20
4.2851
0
VERTEX
8
CUT
10
186.7632
20
4.2326
0
VERTEX
8
CUT
10
186.7107
20
4.1834
0
VERTEX
8
CUT
10
186.6550
20
4.1377
0
VERTEX
8
CUT
10
186.5965
20
4.0958
0
VERTEX
8
CUT
10
186.5354
20
4.0578
0
VERTEX
8
CUT
10
186.4719
20
4.0238
0
VERTEX
8
CUT
10
186.4064
20
3.9941
0
VERTEX
8
CUT
10
186.3390
20
3.9688
0
VERTEX
8
CUT
10
186.2701
20
3.9479
0
VERTEX
8
CUT
10
186.2000
20
3.9315
0
VERTEX
8
CUT
10
186.1290
20
3.9198
0
VERTEX
8
CUT
10
186.0574
20
3.9128
0
VERTEX
8
CUT
10
185.9854
20
3.9104
0
SEQEND
0
POLYLINE
8
CUT
66
1
70
1
0
VERTEX
8
CUT
10
18.4281
20
-20.1476
0
VERTEX
8
CUT
10
18.3564
20
-20.1406
0
VERTEX
8
CUT
10
18.2854
20
-20.1289
0
VERTEX
8
CUT
10
18.2153
20
-20.1125
0
VERTEX
8
CUT
10
18.1464
20
-20.0916
0
VERTEX
8
CUT
10
18.0790
20
-20.0663
0
VERTEX
8
CUT
10
18.0135
20
-20.0366
0
VERTEX
8
CUT
10
17.9500
20
-20.0026
0
VERTEX
8
CUT
10
17.8889
20
-19.9646
0
VERTEX
8
CUT
10
17.8304
20
-19.9227
0
VERTEX
8
CUT
10
17.7747
20
-19.8770
0
VERTEX
8
CUT
10
17.7222
20
-19.8278
0
VERTEX
8
CUT
10
17.6730
20
-19.7753
0
VERTEX
8
CUT
10
17.6273
20
-19.7196
0
VERTEX
8
CUT
10
17.5854
20
-19.6611
0
VERTEX
8
CUT
10
17.5474
20
-19.6000
0
VERTEX
8
CUT
10
17.5134
20
-19.5365
0
VERTEX
8
CUT
10
17.4837
20
-19.4710
0
VERTEX
8
CUT
10
17.4584
20
-19.4036
0
VERTEX
8
CUT
10
17.4375
20
-19.3347
0
VERTEX
8
CUT
10
17.4211
20
-19.2646
0
VERTEX
8
CUT
10
17.4094
20
-19.1936
0
VERTEX
8
CUT
10
17.4024
20
-19.1219
0
VERTEX
8
CUT
10
17.4000
20
-19.0500
0
VERTEX
8
CUT
10
17.4024
20
-18.9781
0
VERTEX
8
CUT
10
17.4094
20
-18.9064
0
VERTEX
8
CUT
10
17.4211
20
-18.8354
0
VERTEX
8
CUT
10
17.4375
20
-18.7653
0
VERTEX
8
CUT
10
17.4584
20
-18.6964
0
VERTEX
8
CUT
10
17.4837
20
-18.6290
0
VERTEX
8
CUT
10
17.5134
20
-18.5635
0
VERTEX
8
CUT
10
17.5474
20
-18.5000
0
VERTEX
8
CUT
10
17.5854
20
-18.4389
0
VERTEX
8
CUT
10
17.6273
20
-18.3804
0
VERTEX
8
CUT
10
17.6730
20
-18.3247
0
VERTEX
8
CUT
10
17.7222
20
-18.2722
0
VERTEX
8
CUT
10
17.7747
20
-18.2230
0
VERTEX
8
CUT
10
17.8304
20
-18.1773
0
VERTEX
8
CUT
10
17.8889
20
-18.1354
0
VERTEX
8
CUT
10
17.9500
20
-18.0974
0
VERTEX
8
CUT
10
18.0135
20
-18.0634
0
VERTEX
8
CUT
10
18.0790
20
-18.0337
0
VERTEX
8
CUT
10
18.1464
20
-18.0084
0
VERTEX
8
CUT
10
18.2153
20
-17.9875
0
VERTEX
8
CUT
10
18.2854
20
-17.9711
0
VERTEX
8
CUT
10
18.3564
20
-17.9594
0
VERTEX
8
CUT
10
18.4281
20
-17.9524
0
VERTEX
8
CUT
10
18.5000
20
-17.9500
0
VERTEX
8
CUT
10
18.5719
20
-17.9524
0
VERTEX
8
CUT
10
18.6436
20
-17.9594
0
VERTEX
8
CUT
10
18.7146
20
-17.9711
0
VERTEX
8
CUT
10
18.7847
20
-17.9875
0
VERTEX
8
CUT
10
18.8536
20
-18.0084
0
VERTEX
8
CUT
10
18.9210
20
-18.0337
0
VERTEX
8
CUT
10
18.9865
20
-18.0634
0
VERTEX
8
CUT
10
19.0500
20
-18.0974
0
VERTEX
8
CUT
10
19.1111
20
-18.1354
0
VERTEX
8
CUT
10
19.1696
20
-18.1773
0
VERTEX
8
CUT
10
19.2253
20
-18.2230
0
VERTEX
8
CUT
10
19.2778
20
-18.2722
0
VERTEX
8
CUT
10
19.3270
20
-18.3247
0
VERTEX
8
CUT
10
19.3727
20
-18.3804
0
VERTEX
8
CUT
10
19.4146
20
-18.4389
0
VERTEX
8
CUT
10
19.4526
20
-18.5000
0
VERTEX
8
CUT
10
19.4866
20
-18.5635
0
VERTEX
8
CUT
10
19.5163
20
-18.6290
0
VERTEX
8
CUT
10
19.5416
20
-18.6964
0
VERTEX
8
CUT
10
19.5625
20
-18.7653
0
VERTEX
8
CUT
10
19.5789
20
-18.8354
0
VERTEX
8
CUT
10
19.5906
20
-18.9064
0
VERTEX
8
CUT
10
19.5976
20
-18.9781
0
VERTEX
8
CUT
10
19.6000
20
-19.0500
0
VERTEX
8
CUT
10
19.5976
20
-19.1219
0
VERTEX
8
CUT
10
19.5906
20
-19.1936
0
VERTEX
8
CUT
10
19.5789
20
-19.2646
0
VERTEX
8
CUT
10
19.5625
20
-19.3347
0
VERTEX
8
CUT
10
19.5416
20
-19.4036
0
VERTEX
8
CUT
10
19.5163
20
-19.4710
0
VERTEX
8
CUT
10
19.4866
20
-19.5365
0
VERTEX
8
CUT
10
19.4526
20
-19.6000
0
VERTEX
8
CUT
10
19.4146
20
-19.6611
0
VERTEX
8
CUT
10
19.3727
20
-19.7196
0
VERTEX
8
CUT
10
19.3270
20
-19.7753
0
VERTEX
8
CUT
10
19.2778
20
-19.8278
0
VERTEX
8
CUT
10
19.2253
20
-19.8770
0
VERTEX
8
CUT
10
19.1696
20
-19.9227
0
VERTEX
8
CUT
10
19.1111
20
-19.9646
0
VERTEX
8
CUT
10
19.0500
20
-20.0026
0
VERTEX
8
CUT
10
18.9865
20
-20.0366
0
VERTEX
8
CUT
10
18.9210
20
-20.0663
0
VERTEX
8
CUT
10
18.8536
20
-20.0916
0
VERTEX
8
CUT
10
18.7847
20
-20.1125
0
VERTEX
8
CUT
10
18.7146
20
-20.1289
0
VERTEX
8
CUT
10
18.6436
20
-20.1406
0
VERTEX
8
CUT
10
18.5719
20
-20.1476
0
VERTEX
8
CUT
10
18.5000
20
-20.1500
0
SEQEND
0
POLYLINE
8
CUT
66
1
70
1
0
VERTEX
8
CUT
10
65.9281
20
-20.1476
0
VERTEX
8
CUT
10
65.8564
20
-20.1406
0
VERTEX
8
CUT
10
65.7854
20
-20.1289
0
VERTEX
8
CUT
10
65.7153
20
-20.1125
0
VERTEX
8
CUT
10
65.6464
20
-20.0916
0
VERTEX
8
CUT
10
65.5790
20
-20.0663
0
VERTEX
8
CUT
10
65.5135
20
-20.0366
0
VERTEX
8
CUT
10
65.4500
20
-20.0026
0
VERTEX
8
CUT
10
65.3889
20
-19.9646
0
VERTEX
8
CUT
10
65.3304
20
-19.9227
0
VERTEX
8
CUT
10
65.2747
20
-19.8770
0
VERTEX
8
CUT
10
65.2222
20
-19.8278
0
VERTEX
8
CUT
10
65.1730
20
-19.7753
0
VERTEX
8
CUT
10
65.1273
20
-19.7196
0
VERTEX
8
CUT
10
65.0854
20
-19.6611
0
VERTEX
8
CUT
10
65.0474
20
-19.6000
0
VERTEX
8
CUT
10
65.0134
20
-19.5365
0
VERTEX
8
CUT
10
64.9837
20
-19.4710
0
VERTEX
8
CUT
10
64.9584
20
-19.4036
0
VERTEX
8
CUT
10
64.9375
20
-19.3347
0
VERTEX
8
CUT
10
64.9211
20
-19.2646
0
VERTEX
8
CUT
10
64.9094
20
-19.1936
0
VERTEX
8
CUT
10
64.9024
20
-19.1219
0
VERTEX
8
CUT
10
64.9000
20
-19.0500
0
VERTEX
8
CUT
10
64.9024
20
-18.9781
0
VERTEX
8
CUT
10
64.9094
20
-18.9064
0
VERTEX
8
CUT
10
64.9211
20
-18.8354
0
VERTEX
8
CUT
10
64.9375
20
-18.7653
0
VERTEX
8
CUT
10
64.9584
20
-18.6964
0
VERTEX
8
CUT
10
64.9837
20
-18.6290
0
VERTEX
8
CUT
10
65.0134
20
-18.5635
0
VERTEX
8
CUT
10
65.0474
20
-18.5000
0
VERTEX
8
CUT
10
65.0854
20
-18.4389
0
VERTEX
8
CUT
10
65.1273
20
-18.3804
0
VERTEX
8
CUT
10
65.1730
20
-18.3247
0
VERTEX
8
CUT
10
65.2222
20
-18.2722
0
VERTEX
8
CUT
10
65.2747
20
-18.2230
0
VERTEX
8
CUT
10
65.3304
20
-18.1773
0
VERTEX
8
CUT
10
65.3889
20
-18.1354
0
VERTEX
8
CUT
10
65.4500
20
-18.0974
0
VERTEX
8
CUT
10
65.5135
20
-18.0634
0
VERTEX
8
CUT
10
65.5790
20
-18.0337
0
VERTEX
8
CUT
10
65.6464
20
-18.0084
0
VERTEX
8
CUT
10
65.7153
20
-17.9875
0
VERTEX
8
CUT
10
65.7854
20
-17.9711
0
VERTEX
8
CUT
10
65.8564
20
-17.9594
0
VERTEX
8
CUT
10
65.9281
20
-17.9524
0
VERTEX
8
CUT
10
66.0000
20
-17.9500
0
VERTEX
8
CUT
10
66.0719
20
-17.9524
0
VERTEX
8
CUT
10
66.1436
20
-17.9594
0
VERTEX
8
CUT
10
66.2146
20
-17.9711
0
VERTEX
8
CUT
10
66.2847
20
-17.9875
0
VERTEX
8
CUT
10
66.3536
20
-18.0084
0
VERTEX
8
CUT
10
66.4210
20
-18.0337
0
VERTEX
8
CUT
10
66.4865
20
-18.0634
0
VERTEX
8
CUT
10
66.5500
20
-18.0974
0
VERTEX
8
CUT
10
66.6111
20
-18.1354
0
VERTEX
8
CUT
10
66.6696
20
-18.1773
0
VERTEX
8
CUT
10
66.7253
20
-18.2230
0
VERTEX
8
CUT
10
66.7778
20
-18.2722
0
VERTEX
8
CUT
10
66.8270
20
-18.3247
0
VERTEX
8
CUT
10
66.8727
20
-18.3804
0
VERTEX
8
CUT
10
66.9146
20
-18.4389
0
VERTEX
8
CUT
10
66.9526
20
-18.5000
0
VERTEX
8
CUT
10
66.9866
20
-18.5635
0
VERTEX
8
CUT
10
67.0163
20
-18.6290
0
VERTEX
8
CUT
10
67.0416
20
-18.6964
0
VERTEX
8
CUT
10
67.0625
20
-18.7653
0
VERTEX
8
CUT
10
67.0789
20
-18.8354
0
VERTEX
8
CUT
10
67.0906
20
-18.9064
0
VERTEX
8
CUT
10
67.0976
20
-18.9781
0
VERTEX
8
CUT
10
67.1000
20
-19.0500
0
VERTEX
8
CUT
10
67.0976
20
-19.1219
0
VERTEX
8
CUT
10
67.0906
20
-19.1936
0
VERTEX
8
CUT
10
67.0789
20
-19.2646
0
VERTEX
8
CUT
10
67.0625
20
-19.3347
0
VERTEX
8
CUT
10
67.0416
20
-19.4036
0
VERTEX
8
CUT
10
67.0163
20
-19.4710
0
VERTEX
8
CUT
10
66.9866
20
-19.5365
0
VERTEX
8
CUT
10
66.9526
20
-19.6000
0
VERTEX
8
CUT
10
66.9146
20
-19.6611
0
VERTEX
8
CUT
10
66.8727
20
-19.7196
0
VERTEX
8
CUT
10
66.8270
20
-19.7753
0
VERTEX
8
CUT
10
66.7778
20
-19.8278
0
VERTEX
8
CUT
10
66.7253
20
-19.8770
0
VERTEX
8
CUT
10
66.6696
20
-19.9227
0
VERTEX
8
CUT
10
66.6111
20
-19.9646
0
VERTEX
8
CUT
10
66.5500
20
-20.0026
0
VERTEX
8
CUT
10
66.4865
20
-20.0366
0
VERTEX
8
CUT
10
66.4210
20
-20.0663
0
VERTEX
8
CUT
10
66.3536
20
-20.0916
0
VERTEX
8
CUT
10
66.2847
20
-20.1125
0
VERTEX
8
CUT
10
66.2146
20
-20.1289
0
VERTEX
8
CUT
10
66.1436
20
-20.1406
0
VERTEX
8
CUT
10
66.0719
20
-20.1476
0
VERTEX
8
CUT
10
66.0000
20
-20.1500
0
SEQEND
0
POLYLINE
8
CUT
66
1
70
1
0
VERTEX
8
CUT
10
115.9281
20
-20.1476
0
VERTEX
8
CUT
10
115.8564
20
-20.1406
0
VERTEX
8
CUT
10
115.7854
20
-20.1289
0
VERTEX
8
CUT
10
115.7153
20
-20.1125
0
VERTEX
8
CUT
10
115.6464
20
-20.0916
0
VERTEX
8
CUT
10
115.5790
20
-20.0663
0
VERTEX
8
CUT
10
115.5135
20
-20.0366
0
VERTEX
8
CUT
10
115.4500
20
-20.0026
0
VERTEX
8
CUT
10
115.3889
20
-19.9646
0
VERTEX
8
CUT
10
115.3304
20
-19.9227
0
VERTEX
8
CUT
10
115.2747
20
-19.8770
0
VERTEX
8
CUT
10
115.2222
20
-19.8278
0
VERTEX
8
CUT
10
115.1730
20
-19.7753
0
VERTEX
8
CUT
10
115.1273
20
-19.7196
0
VERTEX
8
CUT
10
115.0854
20
-19.6611
0
VERTEX
8
CUT
10
115.0474
20
-19.6000
0
VERTEX
8
CUT
10
115.0134
20
-19.5365
0
VERTEX
8
CUT
10
114.9837
20
-19.4710
0
VERTEX
8
CUT
10
114.9584
20
-19.4036
0
VERTEX
8
CUT
10
114.9375
20
-19.3347
0
VERTEX
8
CUT
10
114.9211
20
-19.2646
0
VERTEX
8
CUT
10
114.9094
20
-19.1936
0
VERTEX
8
CUT
10
114.9024
20
-19.1219
0
VERTEX
8
CUT
10
114.9000
20
-19.0500
0
VERTEX
8
CUT
10
114.9024
20
-18.9781
0
VERTEX
8
CUT
10
114.9094
20
-18.9064
0
VERTEX
8
CUT
10
114.9211
20
-18.8354
0
VERTEX
8
CUT
10
114.9375
20
-18.7653
0
VERTEX
8
CUT
10
114.9584
20
-18.6964
0
VERTEX
8
CUT
10
114.9837
20
-18.6290
0
VERTEX
8
CUT
10
115.0134
20
-18.5635
0
VERTEX
8
CUT
10
115.0474
20
-18.5000
0
VERTEX
8
CUT
10
115.0854
20
-18.4389
0
VERTEX
8
CUT
10
115.1273
20
-18.3804
0
VERTEX
8
CUT
10
115.1730
20
-18.3247
0
VERTEX
8
CUT
10
115.2222
20
-18.2722
0
VERTEX
8
CUT
10
115.2747
20
-18.2230
0
VERTEX
8
CUT
10
115.3304
20
-18.1773
0
VERTEX
8
CUT
10
115.3889
20
-18.1354
0
VERTEX
8
CUT
10
115.4500
20
-18.0974
0
VERTEX
8
CUT
10
115.5135
20
-18.0634
0
VERTEX
8
CUT
10
115.5790
20
-18.0337
0
VERTEX
8
CUT
10
115.6464
20
-18.0084
0
VERTEX
8
CUT
10
115.7153
20
-17.9875
0
VERTEX
8
CUT
10
115.7854
20
-17.9711
0
VERTEX
8
CUT
10
115.8564
20
-17.9594
0
VERTEX
8
CUT
10
115.9281
20
-17.9524
0
VERTEX
8
CUT
10
116.0000
20
-17.9500
0
VERTEX
8
CUT
10
116.0719
20
-17.9524
0
VERTEX
8
CUT
10
116.1436
20
-17.9594
0
VERTEX
8
CUT
10
116.2146
20
-17.9711
0
VERTEX
8
CUT
10
116.2847
20
-17.9875
0
VERTEX
8
CUT
10
116.3536
20
-18.0084
0
VERTEX
8
CUT
10
116.4210
20
-18.0337
0
VERTEX
8
CUT
10
116.4865
20
-18.0634
0
VERTEX
8
CUT
10
116.5500
20
-18.0974
0
VERTEX
8
CUT
10
116.6111
20
-18.1354
0
VERTEX
8
CUT
10
116.6696
20
-18.1773
0
VERTEX
8
CUT
10
116.7253
20
-18.2230
0
VERTEX
8
CUT
10
116.7778
20
-18.2722
0
VERTEX
8
CUT
10
116.8270
20
-18.3247
0
VERTEX
8
CUT
10
116.8727
20
-18.3804
0
VERTEX
8
CUT
10
116.9146
20
-18.4389
0
VERTEX
8
CUT
10
116.9526
20
-18.5000
0
VERTEX
8
CUT
10
116.9866
20
-18.5635
0
VERTEX
8
CUT
10
117.0163
20
-18.6290
0
VERTEX
8
CUT
10
117.0416
20
-18.6964
0
VERTEX
8
CUT
10
117.0625
20
-18.7653
0
VERTEX
8
CUT
10
117.0789
20
-18.8354
0
VERTEX
8
CUT
10
117.0906
20
-18.9064
0
VERTEX
8
CUT
10
117.0976
20
-18.9781
0
VERTEX
8
CUT
10
117.1000
20
-19.0500
0
VERTEX
8
CUT
10
117.0976
20
-19.1219
0
VERTEX
8
CUT
10
117.0906
20
-19.1936
0
VERTEX
8
CUT
10
117.0789
20
-19.2646
0
VERTEX
8
CUT
10
117.0625
20
-19.3347
0
VERTEX
8
CUT
10
117.0416
20
-19.4036
0
VERTEX
8
CUT
10
117.0163
20
-19.4710
0
VERTEX
8
CUT
10
116.9866
20
-19.5365
0
VERTEX
8
CUT
10
116.9526
20
-19.6000
0
VERTEX
8
CUT
10
116.9146
20
-19.6611
0
VERTEX
8
CUT
10
116.8727
20
-19.7196
0
VERTEX
8
CUT
10
116.8270
20
-19.7753
0
VERTEX
8
CUT
10
116.7778
20
-19.8278
0
VERTEX
8
CUT
10
116.7253
20
-19.8770
0
VERTEX
8
CUT
10
116.6696
20
-19.9227
0
VERTEX
8
CUT
10
116.6111
20
-19.9646
0
VERTEX
8
CUT
10
116.5500
20
-20.0026
0
VERTEX
8
CUT
10
116.4865
20
-20.0366
0
VERTEX
8
CUT
10
116.4210
20
-20.0663
0
VERTEX
8
CUT
10
116.3536
20
-20.0916
0
VERTEX
8
CUT
10
116.2847
20
-20.1125
0
VERTEX
8
CUT
10
116.2146
20
-20.1289
0
VERTEX
8
CUT
10
116.1436
20
-20.1406
0
VERTEX
8
CUT
10
116.0719
20
-20.1476
0
VERTEX
8
CUT
10
116.0000
20
-20.1500
0
SEQEND
0
POLYLINE
8
CUT
66
1
70
1
0
VERTEX
8
CUT
10
165.4281
20
-20.1476
0
VERTEX
8
CUT
10
165.3564
20
-20.1406
0
VERTEX
8
CUT
10
165.2854
20
-20.1289
0
VERTEX
8
CUT
10
165.2153
20
-20.1125
0
VERTEX
8
CUT
10
165.1464
20
-20.0916
0
VERTEX
8
CUT
10
165.0790
20
-20.0663
0
VERTEX
8
CUT
10
165.0135
20
-20.0366
0
VERTEX
8
CUT
10
164.9500
20
-20.0026
0
VERTEX
8
CUT
10
164.8889
20
-19.9646
0
VERTEX
8
CUT
10
164.8304
20
-19.9227
0
VERTEX
8
CUT
10
164.7747
20
-19.8770
0
VERTEX
8
CUT
10
164.7222
20
-19.8278
0
VERTEX
8
CUT
10
164.6730
20
-19.7753
0
VERTEX
8
CUT
10
164.6273
20
-19.7196
0
VERTEX
8
CUT
10
164.5854
20
-19.6611
0
VERTEX
8
CUT
10
164.5474
20
-19.6000
0
VERTEX
8
CUT
10
164.5134
20
-19.5365
0
VERTEX
8
CUT
10
164.4837
20
-19.4710
0
VERTEX
8
CUT
10
164.4584
20
-19.4036
0
VERTEX
8
CUT
10
164.4375
20
-19.3347
0
VERTEX
8
CUT
10
164.4211
20
-19.2646
0
VERTEX
8
CUT
10
164.4094
20
-19.1936
0
VERTEX
8
CUT
10
164.4024
20
-19.1219
0
VERTEX
8
CUT
10
164.4000
20
-19.0500
0
VERTEX
8
CUT
10
164.4024
20
-18.9781
0
VERTEX
8
CUT
10
164.4094
20
-18.9064
0
VERTEX
8
CUT
10
164.4211
20
-18.8354
0
VERTEX
8
CUT
10
164.4375
20
-18.7653
0
VERTEX
8
CUT
10
164.4584
20
-18.6964
0
VERTEX
8
CUT
10
164.4837
20
-18.6290
0
VERTEX
8
CUT
10
164.5134
20
-18.5635
0
VERTEX
8
CUT
10
164.5474
20
-18.5000
0
VERTEX
8
CUT
10
164.5854
20
-18.4389
0
VERTEX
8
CUT
10
164.6273
20
-18.3804
0
VERTEX
8
CUT
10
164.6730
20
-18.3247
0
VERTEX
8
CUT
10
164.7222
20
-18.2722
0
VERTEX
8
CUT
10
164.7747
20
-18.2230
0
VERTEX
8
CUT
10
164.8304
20
-18.1773
0
VERTEX
8
CUT
10
164.8889
20
-18.1354
0
VERTEX
8
CUT
10
164.9500
20
-18.0974
0
VERTEX
8
CUT
10
165.0135
20
-18.0634
0
VERTEX
8
CUT
10
165.0790
20
-18.0337
0
VERTEX
8
CUT
10
165.1464
20
-18.0084
0
VERTEX
8
CUT
10
165.2153
20
-17.9875
0
VERTEX
8
CUT
10
165.2854
20
-17.9711
0
VERTEX
8
CUT
10
165.3564
20
-17.9594
0
VERTEX
8
CUT
10
165.4281
20
-17.9524
0
VERTEX
8
CUT
10
165.5000
20
-17.9500
0
VERTEX
8
CUT
10
165.5719
20
-17.9524
0
VERTEX
8
CUT
10
165.6436
20
-17.9594
0
VERTEX
8
CUT
10
165.7146
20
-17.9711
0
VERTEX
8
CUT
10
165.7847
20
-17.9875
0
VERTEX
8
CUT
10
165.8536
20
-18.0084
0
VERTEX
8
CUT
10
165.9210
20
-18.0337
0
VERTEX
8
CUT
10
165.9865
20
-18.0634
0
VERTEX
8
CUT
10
166.0500
20
-18.0974
0
VERTEX
8
CUT
10
166.1111
20
-18.1354
0
VERTEX
8
CUT
10
166.1696
20
-18.1773
0
VERTEX
8
CUT
10
166.2253
20
-18.2230
0
VERTEX
8
CUT
10
166.2778
20
-18.2722
0
VERTEX
8
CUT
10
166.3270
20
-18.3247
0
VERTEX
8
CUT
10
166.3727
20
-18.3804
0
VERTEX
8
CUT
10
166.4146
20
-18.4389
0
VERTEX
8
CUT
10
166.4526
20
-18.5000
0
VERTEX
8
CUT
10
166.4866
20
-18.5635
0
VERTEX
8
CUT
10
166.5163
20
-18.6290
0
VERTEX
8
CUT
10
166.5416
20
-18.6964
0
VERTEX
8
CUT
10
166.5625
20
-18.7653
0
VERTEX
8
CUT
10
166.5789
20
-18.8354
0
VERTEX
8
CUT
10
166.5906
20
-18.9064
0
VERTEX
8
CUT
10
166.5976
20
-18.9781
0
VERTEX
8
CUT
10
166.6000
20
-19.0500
0
VERTEX
8
CUT
10
166.5976
20
-19.1219
0
VERTEX
8
CUT
10
166.5906
20
-19.1936
0
VERTEX
8
CUT
10
166.5789
20
-19.2646
0
VERTEX
8
CUT
10
166.5625
20
-19.3347
0
VERTEX
8
CUT
10
166.5416
20
-19.4036
0
VERTEX
8
CUT
10
166.5163
20
-19.4710
0
VERTEX
8
CUT
10
166.4866
20
-19.5365
0
VERTEX
8
CUT
10
166.4526
20
-19.6000
0
VERTEX
8
CUT
10
166.4146
20
-19.6611
0
VERTEX
8
CUT
10
166.3727
20
-19.7196
0
VERTEX
8
CUT
10
166.3270
20
-19.7753
0
VERTEX
8
CUT
10
166.2778
20
-19.8278
0
VERTEX
8
CUT
10
166.2253
20
-19.8770
0
VERTEX
8
CUT
10
166.1696
20
-19.9227
0
VERTEX
8
CUT
10
166.1111
20
-19.9646
0
VERTEX
8
CUT
10
166.0500
20
-20.0026
0
VERTEX
8
CUT
10
165.9865
20
-20.0366
0
VERTEX
8
CUT
10
165.9210
20
-20.0663
0
VERTEX
8
CUT
10
165.8536
20
-20.0916
0
VERTEX
8
CUT
10
165.7847
20
-20.1125
0
VERTEX
8
CUT
10
165.7146
20
-20.1289
0
VERTEX
8
CUT
10
165.6436
20
-20.1406
0
VERTEX
8
CUT
10
165.5719
20
-20.1476
0
VERTEX
8
CUT
10
165.5000
20
-20.1500
0
SEQEND
0
POLYLINE
8
CUT
66
1
70
1
0
VERTEX
8
CUT
10
-7.5719
20
-38.9726
0
VERTEX
8
CUT
10
-7.6436
20
-38.9656
0
VERTEX
8
CUT
10
-7.7146
20
-38.9539
0
VERTEX
8
CUT
10
-7.7847
20
-38.9375
0
VERTEX
8
CUT
10
-7.8536
20
-38.9166
0
VERTEX
8
CUT
10
-7.9210
20
-38.8913
0
VERTEX
8
CUT
10
-7.9865
20
-38.8616
0
VERTEX
8
CUT
10
-8.0500
20
-38.8276
0
VERTEX
8
CUT
10
-8.1111
20
-38.7896
0
VERTEX
8
CUT
10
-8.1696
20
-38.7477
0
VERTEX
8
CUT
10
-8.2253
20
-38.7020
0
VERTEX
8
CUT
10
-8.2778
20
-38.6528
0
VERTEX
8
CUT
10
-8.3270
20
-38.6003
0
VERTEX
8
CUT
10
-8.3727
20
-38.5446
0
VERTEX
8
CUT
10
-8.4146
20
-38.4861
0
VERTEX
8
CUT
10
-8.4526
20
-38.4250
0
VERTEX
8
CUT
10
-8.4866
20
-38.3615
0
VERTEX
8
CUT
10
-8.5163
20
-38.2960
0
VERTEX
8
CUT
10
-8.5416
20
-38.2286
0
VERTEX
8
CUT
10
-8.5625
20
-38.1597
0
VERTEX
8
CUT
10
-8.5789
20
-38.0896
0
VERTEX
8
CUT
10
-8.5906
20
-38.0186
0
VERTEX
8
CUT
10
-8.5976
20
-37.9469
0
VERTEX
8
CUT
10
-8.6000
20
-37.8750
0
VERTEX
8
CUT
10
-8.5976
20
-37.8031
0
VERTEX
8
CUT
10
-8.5906
20
-37.7314
0
VERTEX
8
CUT
10
-8.5789
20
-37.6604
0
VERTEX
8
CUT
10
-8.5625
20
-37.5903
0
VERTEX
8
CUT
10
-8.5416
20
-37.5214
0
VERTEX
8
CUT
10
-8.5163
20
-37.4540
0
VERTEX
8
CUT
10
-8.4866
20
-37.3885
0
VERTEX
8
CUT
10
-8.4526
20
-37.3250
0
VERTEX
8
CUT
10
-8.4146
20
-37.2639
0
VERTEX
8
CUT
10
-8.3727
20
-37.2054
0
VERTEX
8
CUT
10
-8.3270
20
-37.1497
0
VERTEX
8
CUT
10
-8.2778
20
-37.0972
0
VERTEX
8
CUT
10
-8.2253
20
-37.0480
0
VERTEX
8
CUT
10
-8.1696
20
-37.0023
0
VERTEX
8
CUT
10
-8.1111
20
-36.9604
0
VERTEX
8
CUT
10
-8.0500
20
-36.9224
0
VERTEX
8
CUT
10
-7.9865
20
-36.8884
0
VERTEX
8
CUT
10
-7.9210
20
-36.8587
0
VERTEX
8
CUT
10
-7.8536
20
-36.8334
0
VERTEX
8
CUT
10
-7.7847
20
-36.8125
0
VERTEX
8
CUT
10
-7.7146
20
-36.7961
0
VERTEX
8
CUT
10
-7.6436
20
-36.7844
0
VERTEX
8
CUT
10
-7.5719
20
-36.7774
0
VERTEX
8
CUT
10
-7.5000
20
-36.7750
0
VERTEX
8
CUT
10
-7.4281
20
-36.7774
0
VERTEX
8
CUT
10
-7.3564
20
-36.7844
0
VERTEX
8
CUT
10
-7.2854
20
-36.7961
0
VERTEX
8
CUT
10
-7.2153
20
-36.8125
0
VERTEX
8
CUT
10
-7.1464
20
-36.8334
0
VERTEX
8
CUT
10
-7.0790
20
-36.8587
0
VERTEX
8
CUT
10
-7.0135
20
-36.8884
0
VERTEX
8
CUT
10
-6.9500
20
-36.9224
0
VERTEX
8
CUT
10
-6.8889
20
-36.9604
0
VERTEX
8
CUT
10
-6.8304
20
-37.0023
0
VERTEX
8
CUT
10
-6.7747
20
-37.0480
0
VERTEX
8
CUT
10
-6.7222
20
-37.0972
0
VERTEX
8
CUT
10
-6.6730
20
-37.1497
0
VERTEX
8
CUT
10
-6.6273
20
-37.2054
0
VERTEX
8
CUT
10
-6.5854
20
-37.2639
0
VERTEX
8
CUT
10
-6.5474
20
-37.3250
0
VERTEX
8
CUT
10
-6.5134
20
-37.3885
0
VERTEX
8
CUT
10
-6.4837
20
-37.4540
0
VERTEX
8
CUT
10
-6.4584
20
-37.5214
0
VERTEX
8
CUT
10
-6.4375
20
-37.5903
0
VERTEX
8
CUT
10
-6.4211
20
-37.6604
0
VERTEX
8
CUT
10
-6.4094
20
-37.7314
0
VERTEX
8
CUT
10
-6.4024
20
-37.8031
0
VERTEX
8
CUT
10
-6.4000
20
-37.8750
0
VERTEX
8
CUT
10
-6.4024
20
-37.9469
0
VERTEX
8
CUT
10
-6.4094
20
-38.0186
0
VERTEX
8
CUT
10
-6.4211
20
-38.0896
0
VERTEX
8
CUT
10
-6.4375
20
-38.1597
0
VERTEX
8
CUT
10
-6.4584
20
-38.2286
0
VERTEX
8
CUT
10
-6.4837
20
-38.2960
0
VERTEX
8
CUT
10
-6.5134
20
-38.3615
0
VERTEX
8
CUT
10
-6.5474
20
-38.4250
0
VERTEX
8
CUT
10
-6.5854
20
-38.4861
0
VERTEX
8
CUT
10
-6.6273
20
-38.5446
0
VERTEX
8
CUT
10
-6.6730
20
-38.6003
0
VERTEX
8
CUT
10
-6.7222
20
-38.6528
0
VERTEX
8
CUT
10
-6.7747
20
-38.7020
0
VERTEX
8
CUT
10
-6.8304
20
-38.7477
0
VERTEX
8
CUT
10
-6.8889
20
-38.7896
0
VERTEX
8
CUT
10
-6.9500
20
-38.8276
0
VERTEX
8
CUT
10
-7.0135
20
-38.8616
0
VERTEX
8
CUT
10
-7.0790
20
-38.8913
0
VERTEX
8
CUT
10
-7.1464
20
-38.9166
0
VERTEX
8
CUT
10
-7.2153
20
-38.9375
0
VERTEX
8
CUT
10
-7.2854
20
-38.9539
0
VERTEX
8
CUT
10
-7.3564
20
-38.9656
0
VERTEX
8
CUT
10
-7.4281
20
-38.9726
0
VERTEX
8
CUT
10
-7.5000
20
-38.9750
0
SEQEND
0
POLYLINE
8
CUT
66
1
70
1
0
VERTEX
8
CUT
10
188.4031
20
-58.2476
0
VERTEX
8
CUT
10
188.3314
20
-58.2406
0
VERTEX
8
CUT
10
188.2604
20
-58.2289
0
VERTEX
8
CUT
10
188.1903
20
-58.2125
0
VERTEX
8
CUT
10
188.1214
20
-58.1916
0
VERTEX
8
CUT
10
188.0540
20
-58.1663
0
VERTEX
8
CUT
10
187.9885
20
-58.1366
0
VERTEX
8
CUT
10
187.9250
20
-58.1026
0
VERTEX
8
CUT
10
187.8639
20
-58.0646
0
VERTEX
8
CUT
10
187.8054
20
-58.0227
0
VERTEX
8
CUT
10
187.7497
20
-57.9770
0
VERTEX
8
CUT
10
187.6972
20
-57.9278
0
VERTEX
8
CUT
10
187.6480
20
-57.8753
0
VERTEX
8
CUT
10
187.6023
20
-57.8196
0
VERTEX
8
CUT
10
187.5604
20
-57.7611
0
VERTEX
8
CUT
10
187.5224
20
-57.7000
0
VERTEX
8
CUT
10
187.4884
20
-57.6365
0
VERTEX
8
CUT
10
187.4587
20
-57.5710
0
VERTEX
8
CUT
10
187.4334
20
-57.5036
0
VERTEX
8
CUT
10
187.4125
20
-57.4347
0
VERTEX
8
CUT
10
187.3961
20
-57.3646
0
VERTEX
8
CUT
10
187.3844
20
-57.2936
0
VERTEX
8
CUT
10
187.3774
20
-57.2219
0
VERTEX
8
CUT
10
187.3750
20
-57.1500
0
VERTEX
8
CUT
10
187.3774
20
-57.0781
0
VERTEX
8
CUT
10
187.3844
20
-57.0064
0
VERTEX
8
CUT
10
187.3961
20
-56.9354
0
VERTEX
8
CUT
10
187.4125
20
-56.8653
0
VERTEX
8
CUT
10
187.4334
20
-56.7964
0
VERTEX
8
CUT
10
187.4587
20
-56.7290
0
VERTEX
8
CUT
10
187.4884
20
-56.6635
0
VERTEX
8
CUT
10
187.5224
20
-56.6000
0
VERTEX
8
CUT
10
187.5604
20
-56.5389
0
VERTEX
8
CUT
10
187.6023
20
-56.4804
0
VERTEX
8
CUT
10
187.6480
20
-56.4247
0
VERTEX
8
CUT
10
187.6972
20
-56.3722
0
VERTEX
8
CUT
10
187.7497
20
-56.3230
0
VERTEX
8
CUT
10
187.8054
20
-56.2773
0
VERTEX
8
CUT
10
187.8639
20
-56.2354
0
VERTEX
8
CUT
10
187.9250
20
-56.1974
0
VERTEX
8
CUT
10
187.9885
20
-56.1634
0
VERTEX
8
CUT
10
188.0540
20
-56.1337
0
VERTEX
8
CUT
10
188.1214
20
-56.1084
0
VERTEX
8
CUT
10
188.1903
20
-56.0875
0
VERTEX
8
CUT
10
188.2604
20
-56.0711
0
VERTEX
8
CUT
10
188.3314
20
-56.0594
0
VERTEX
8
CUT
10
188.4031
20
-56.0524
0
VERTEX
8
CUT
10
188.4750
20
-56.0500
0
VERTEX
8
CUT
10
188.5469
20
-56.0524
0
VERTEX
8
CUT
10
188.6186
20
-56.0594
0
VERTEX
8
CUT
10
188.6896
20
-56.0711
0
VERTEX
8
CUT
10
188.7597
20
-56.0875
0
VERTEX
8
CUT
10
188.8286
20
-56.1084
0
VERTEX
8
CUT
10
188.8960
20
-56.1337
0
VERTEX
8
CUT
10
188.9615
20
-56.1634
0
VERTEX
8
CUT
10
189.0250
20
-56.1974
0
VERTEX
8
CUT
10
189.0861
20
-56.2354
0
VERTEX
8
CUT
10
189.1446
20
-56.2773
0
VERTEX
8
CUT
10
189.2003
20
-56.3230
0
VERTEX
8
CUT
10
189.2528
20
-56.3722
0
VERTEX
8
CUT
10
189.3020
20
-56.4247
0
VERTEX
8
CUT
10
189.3477
20
-56.4804
0
VERTEX
8
CUT
10
189.3896
20
-56.5389
0
VERTEX
8
CUT
10
189.4276
20
-56.6000
0
VERTEX
8
CUT
10
189.4616
20
-56.6635
0
VERTEX
8
CUT
10
189.4913
20
-56.7290
0
VERTEX
8
CUT
10
189.5166
20
-56.7964
0
VERTEX
8
CUT
10
189.5375
20
-56.8653
0
VERTEX
8
CUT
10
189.5539
20
-56.9354
0
VERTEX
8
CUT
10
189.5656
20
-57.0064
0
VERTEX
8
CUT
10
189.5726
20
-57.0781
0
VERTEX
8
CUT
10
189.5750
20
-57.1500
0
VERTEX
8
CUT
10
189.5726
20
-57.2219
0
VERTEX
8
CUT
10
189.5656
20
-57.2936
0
VERTEX
8
CUT
10
189.5539
20
-57.3646
0
VERTEX
8
CUT
10
189.5375
20
-57.4347
0
VERTEX
8
CUT
10
189.5166
20
-57.5036
0
VERTEX
8
CUT
10
189.4913
20
-57.5710
0
VERTEX
8
CUT
10
189.4616
20
-57.6365
0
VERTEX
8
CUT
10
189.4276
20
-57.7000
0
VERTEX
8
CUT
10
189.3896
20
-57.7611
0
VERTEX
8
CUT
10
189.3477
20
-57.8196
0
VERTEX
8
CUT
10
189.3020
20
-57.8753
0
VERTEX
8
CUT
10
189.2528
20
-57.9278
0
VERTEX
8
CUT
10
189.2003
20
-57.9770
0
VERTEX
8
CUT
10
189.1446
20
-58.0227
0
VERTEX
8
CUT
10
189.0861
20
-58.0646
0
VERTEX
8
CUT
10
189.0250
20
-58.1026
0
VERTEX
8
CUT
10
188.9615
20
-58.1366
0
VERTEX
8
CUT
10
188.8960
20
-58.1663
0
VERTEX
8
CUT
10
188.8286
20
-58.1916
0
VERTEX
8
CUT
10
188.7597
20
-58.2125
0
VERTEX
8
CUT
10
188.6896
20
-58.2289
0
VERTEX
8
CUT
10
188.6186
20
-58.2406
0
VERTEX
8
CUT
10
188.5469
20
-58.2476
0
VERTEX
8
CUT
10
188.4750
20
-58.2500
0
SEQEND
0
POLYLINE
8
CUT
66
1
70
1
0
VERTEX
8
CUT
10
21.5644
20
-92.5468
0
VERTEX
8
CUT
10
21.4667
20
-92.5372
0
VERTEX
8
CUT
10
21.3699
20
-92.5212
0
VERTEX
8
CUT
10
21.2743
20
-92.4989
0
VERTEX
8
CUT
10
21.1803
20
-92.4704
0
VERTEX
8
CUT
10
21.0885
20
-92.4358
0
VERTEX
8
CUT
10
20.9991
20
-92.3953
0
VERTEX
8
CUT
10
20.9125
20
-92.3490
0
VERTEX
8
CUT
10
20.8291
20
-92.2972
0
VERTEX
8
CUT
10
20.7494
20
-92.2400
0
VERTEX
8
CUT
10
20.6735
20
-92.1778
0
VERTEX
8
CUT
10
20.6018
20
-92.1107
0
VERTEX
8
CUT
10
20.5347
20
-92.0390
0
VERTEX
8
CUT
10
20.4725
20
-91.9631
0
VERTEX
8
CUT
10
20.4153
20
-91.8834
0
VERTEX
8
CUT
10
20.3635
20
-91.8000
0
VERTEX
8
CUT
10
20.3172
20
-91.7134
0
VERTEX
8
CUT
10
20.2767
20
-91.6240
0
VERTEX
8
CUT
10
20.2421
20
-91.5322
0
VERTEX
8
CUT
10
20.2136
20
-91.4382
0
VERTEX
8
CUT
10
20.1913
20
-91.3426
0
VERTEX
8
CUT
10
20.1753
20
-91.2458
0
VERTEX
8
CUT
10
20.1657
20
-91.1481
0
VERTEX
8
CUT
10
20.1625
20
-91.0500
0
VERTEX
8
CUT
10
20.1657
20
-90.9519
0
VERTEX
8
CUT
10
20.1753
20
-90.8542
0
VERTEX
8
CUT
10
20.1913
20
-90.7574
0
VERTEX
8
CUT
10
20.2136
20
-90.6618
0
VERTEX
8
CUT
10
20.2421
20
-90.5678
0
VERTEX
8
CUT
10
20.2767
20
-90.4760
0
VERTEX
8
CUT
10
20.3172
20
-90.3866
0
VERTEX
8
CUT
10
20.3635
20
-90.3000
0
VERTEX
8
CUT
10
20.4153
20
-90.2166
0
VERTEX
8
CUT
10
20.4725
20
-90.1369
0
VERTEX
8
CUT
10
20.5347
20
-90.0610
0
VERTEX
8
CUT
10
20.6018
20
-89.9893
0
VERTEX
8
CUT
10
20.6735
20
-89.9222
0
VERTEX
8
CUT
10
20.7494
20
-89.8600
0
VERTEX
8
CUT
10
20.8291
20
-89.8028
0
VERTEX
8
CUT
10
20.9125
20
-89.7510
0
VERTEX
8
CUT
10
20.9991
20
-89.7047
0
VERTEX
8
CUT
10
21.0885
20
-89.6642
0
VERTEX
8
CUT
10
21.1803
20
-89.6296
0
VERTEX
8
CUT
10
21.2743
20
-89.6011
0
VERTEX
8
CUT
10
21.3699
20
-89.5788
0
VERTEX
8
CUT
10
21.4667
20
-89.5628
0
VERTEX
8
CUT
10
21.5644
20
-89.5532
0
VERTEX
8
CUT
10
21.6625
20
-89.5500
0
VERTEX
8
CUT
10
21.7606
20
-89.5532
0
VERTEX
8
CUT
10
21.8583
20
-89.5628
0
VERTEX
8
CUT
10
21.9551
20
-89.5788
0
VERTEX
8
CUT
10
22.0507
20
-89.6011
0
VERTEX
8
CUT
10
22.1447
20
-89.6296
0
VERTEX
8
CUT
10
22.2365
20
-89.6642
0
VERTEX
8
CUT
10
22.3259
20
-89.7047
0
VERTEX
8
CUT
10
22.4125
20
-89.7510
0
VERTEX
8
CUT
10
22.4959
20
-89.8028
0
VERTEX
8
CUT
10
22.5756
20
-89.8600
0
VERTEX
8
CUT
10
22.6515
20
-89.9222
0
VERTEX
8
CUT
10
22.7232
20
-89.9893
0
VERTEX
8
CUT
10
22.7903
20
-90.0610
0
VERTEX
8
CUT
10
22.8525
20
-90.1369
0
VERTEX
8
CUT
10
22.9097
20
-90.2166
0
VERTEX
8
CUT
10
22.9615
20
-90.3000
0
VERTEX
8
CUT
10
23.0078
20
-90.3866
0
VERTEX
8
CUT
10
23.0483
20
-90.4760
0
VERTEX
8
CUT
10
23.0829
20
-90.5678
0
VERTEX
8
CUT
10
23.1114
20
-90.6618
0
VERTEX
8
CUT
10
23.1337
20
-90.7574
0
VERTEX
8
CUT
10
23.1497
20
-90.8542
0
VERTEX
8
CUT
10
23.1593
20
-90.9519
0
VERTEX
8
CUT
10
23.1625
20
-91.0500
0
VERTEX
8
CUT
10
23.1593
20
-91.1481
0
VERTEX
8
CUT
10
23.1497
20
-91.2458
0
VERTEX
8
CUT
10
23.1337
20
-91.3426
0
VERTEX
8
CUT
10
23.1114
20
-91.4382
0
VERTEX
8
CUT
10
23.0829
20
-91.5322
0
VERTEX
8
CUT
10
23.0483
20
-91.6240
0
VERTEX
8
CUT
10
23.0078
20
-91.7134
0
VERTEX
8
CUT
10
22.9615
20
-91.8000
0
VERTEX
8
CUT
10
22.9097
20
-91.8834
0
VERTEX
8
CUT
10
22.8525
20
-91.9631
0
VERTEX
8
CUT
10
22.7903
20
-92.0390
0
VERTEX
8
CUT
10
22.7232
20
-92.1107
0
VERTEX
8
CUT
10
22.6515
20
-92.1778
0
VERTEX
8
CUT
10
22.5756
20
-92.2400
0
VERTEX
8
CUT
10
22.4959
20
-92.2972
0
VERTEX
8
CUT
10
22.4125
20
-92.3490
0
VERTEX
8
CUT
10
22.3259
20
-92.3953
0
VERTEX
8
CUT
10
22.2365
20
-92.4358
0
VERTEX
8
CUT
10
22.1447
20
-92.4704
0
VERTEX
8
CUT
10
22.0507
20
-92.4989
0
VERTEX
8
CUT
10
21.9551
20
-92.5212
0
VERTEX
8
CUT
10
21.8583
20
-92.5372
0
VERTEX
8
CUT
10
21.7606
20
-92.5468
0
VERTEX
8
CUT
10
21.6625
20
-92.5500
0
SEQEND
0
POLYLINE
8
CUT
66
1
70
1
0
VERTEX
8
CUT
10
25.9281
20
-96.3476
0
VERTEX
8
CUT
10
25.8564
20
-96.3406
0
VERTEX
8
CUT
10
25.7854
20
-96.3289
0
VERTEX
8
CUT
10
25.7153
20
-96.3125
0
VERTEX
8
CUT
10
25.6464
20
-96.2916
0
VERTEX
8
CUT
10
25.5790
20
-96.2663
0
VERTEX
8
CUT
10
25.5135
20
-96.2366
0
VERTEX
8
CUT
10
25.4500
20
-96.2026
0
VERTEX
8
CUT
10
25.3889
20
-96.1646
0
VERTEX
8
CUT
10
25.3304
20
-96.1227
0
VERTEX
8
CUT
10
25.2747
20
-96.0770
0
VERTEX
8
CUT
10
25.2222
20
-96.0278
0
VERTEX
8
CUT
10
25.1730
20
-95.9753
0
VERTEX
8
CUT
10
25.1273
20
-95.9196
0
VERTEX
8
CUT
10
25.0854
20
-95.8611
0
VERTEX
8
CUT
10
25.0474
20
-95.8000
0
VERTEX
8
CUT
10
25.0134
20
-95.7365
0
VERTEX
8
CUT
10
24.9837
20
-95.6710
0
VERTEX
8
CUT
10
24.9584
20
-95.6036
0
VERTEX
8
CUT
10
24.9375
20
-95.5347
0
VERTEX
8
CUT
10
24.9211
20
-95.4646
0
VERTEX
8
CUT
10
24.9094
20
-95.3936
0
VERTEX
8
CUT
10
24.9024
20
-95.3219
0
VERTEX
8
CUT
10
24.9000
20
-95.2500
0
VERTEX
8
CUT
10
24.9024
20
-95.1781
0
VERTEX
8
CUT
10
24.9094
20
-95.1064
0
VERTEX
8
CUT
10
24.9211
20
-95.0354
0
VERTEX
8
CUT
10
24.9375
20
-94.9653
0
VERTEX
8
CUT
10
24.9584
20
-94.8964
0
VERTEX
8
CUT
10
24.9837
20
-94.8290
0
VERTEX
8
CUT
10
25.0134
20
-94.7635
0
VERTEX
8
CUT
10
25.0474
20
-94.7000
0
VERTEX
8
CUT
10
25.0854
20
-94.6389
0
VERTEX
8
CUT
10
25.1273
20
-94.5804
0
VERTEX
8
CUT
10
25.1730
20
-94.5247
0
VERTEX
8
CUT
10
25.2222
20
-94.4722
0
VERTEX
8
CUT
10
25.2747
20
-94.4230
0
VERTEX
8
CUT
10
25.3304
20
-94.3773
0
VERTEX
8
CUT
10
25.3889
20
-94.3354
0
VERTEX
8
CUT
10
25.4500
20
-94.2974
0
VERTEX
8
CUT
10
25.5135
20
-94.2634
0
VERTEX
8
CUT
10
25.5790
20
-94.2337
0
VERTEX
8
CUT
10
25.6464
20
-94.2084
0
VERTEX
8
CUT
10
25.7153
20
-94.1875
0
VERTEX
8
CUT
10
25.7854
20
-94.1711
0
VERTEX
8
CUT
10
25.8564
20
-94.1594
0
VERTEX
8
CUT
10
25.9281
20
-94.1524
0
VERTEX
8
CUT
10
26.0000
20
-94.1500
0
VERTEX
8
CUT
10
26.0719
20
-94.1524
0
VERTEX
8
CUT
10
26.1436
20
-94.1594
0
VERTEX
8
CUT
10
26.2146
20
-94.1711
0
VERTEX
8
CUT
10
26.2847
20
-94.1875
0
VERTEX
8
CUT
10
26.3536
20
-94.2084
0
VERTEX
8
CUT
10
26.4210
20
-94.2337
0
VERTEX
8
CUT
10
26.4865
20
-94.2634
0
VERTEX
8
CUT
10
26.5500
20
-94.2974
0
VERTEX
8
CUT
10
26.6111
20
-94.3354
0
VERTEX
8
CUT
10
26.6696
20
-94.3773
0
VERTEX
8
CUT
10
26.7253
20
-94.4230
0
VERTEX
8
CUT
10
26.7778
20
-94.4722
0
VERTEX
8
CUT
10
26.8270
20
-94.5247
0
VERTEX
8
CUT
10
26.8727
20
-94.5804
0
VERTEX
8
CUT
10
26.9146
20
-94.6389
0
VERTEX
8
CUT
10
26.9526
20
-94.7000
0
VERTEX
8
CUT
10
26.9866
20
-94.7635
0
VERTEX
8
CUT
10
27.0163
20
-94.8290
0
VERTEX
8
CUT
10
27.0416
20
-94.8964
0
VERTEX
8
CUT
10
27.0625
20
-94.9653
0
VERTEX
8
CUT
10
27.0789
20
-95.0354
0
VERTEX
8
CUT
10
27.0906
20
-95.1064
0
VERTEX
8
CUT
10
27.0976
20
-95.1781
0
VERTEX
8
CUT
10
27.1000
20
-95.2500
0
VERTEX
8
CUT
10
27.0976
20
-95.3219
0
VERTEX
8
CUT
10
27.0906
20
-95.3936
0
VERTEX
8
CUT
10
27.0789
20
-95.4646
0
VERTEX
8
CUT
10
27.0625
20
-95.5347
0
VERTEX
8
CUT
10
27.0416
20
-95.6036
0
VERTEX
8
CUT
10
27.0163
20
-95.6710
0
VERTEX
8
CUT
10
26.9866
20
-95.7365
0
VERTEX
8
CUT
10
26.9526
20
-95.8000
0
VERTEX
8
CUT
10
26.9146
20
-95.8611
0
VERTEX
8
CUT
10
26.8727
20
-95.9196
0
VERTEX
8
CUT
10
26.8270
20
-95.9753
0
VERTEX
8
CUT
10
26.7778
20
-96.0278
0
VERTEX
8
CUT
10
26.7253
20
-96.0770
0
VERTEX
8
CUT
10
26.6696
20
-96.1227
0
VERTEX
8
CUT
10
26.6111
20
-96.1646
0
VERTEX
8
CUT
10
26.5500
20
-96.2026
0
VERTEX
8
CUT
10
26.4865
20
-96.2366
0
VERTEX
8
CUT
10
26.4210
20
-96.2663
0
VERTEX
8
CUT
10
26.3536
20
-96.2916
0
VERTEX
8
CUT
10
26.2847
20
-96.3125
0
VERTEX
8
CUT
10
26.2146
20
-96.3289
0
VERTEX
8
CUT
10
26.1436
20
-96.3406
0
VERTEX
8
CUT
10
26.0719
20
-96.3476
0
VERTEX
8
CUT
10
26.0000
20
-96.3500
0
SEQEND
0
POLYLINE
8
CUT
66
1
70
1
0
VERTEX
8
CUT
10
67.9281
20
-96.3476
0
VERTEX
8
CUT
10
67.8564
20
-96.3406
0
VERTEX
8
CUT
10
67.7854
20
-96.3289
0
VERTEX
8
CUT
10
67.7153
20
-96.3125
0
VERTEX
8
CUT
10
67.6464
20
-96.2916
0
VERTEX
8
CUT
10
67.5790
20
-96.2663
0
VERTEX
8
CUT
10
67.5135
20
-96.2366
0
VERTEX
8
CUT
10
67.4500
20
-96.2026
0
VERTEX
8
CUT
10
67.3889
20
-96.1646
0
VERTEX
8
CUT
10
67.3304
20
-96.1227
0
VERTEX
8
CUT
10
67.2747
20
-96.0770
0
VERTEX
8
CUT
10
67.2222
20
-96.0278
0
VERTEX
8
CUT
10
67.1730
20
-95.9753
0
VERTEX
8
CUT
10
67.1273
20
-95.9196
0
VERTEX
8
CUT
10
67.0854
20
-95.8611
0
VERTEX
8
CUT
10
67.0474
20
-95.8000
0
VERTEX
8
CUT
10
67.0134
20
-95.7365
0
VERTEX
8
CUT
10
66.9837
20
-95.6710
0
VERTEX
8
CUT
10
66.9584
20
-95.6036
0
VERTEX
8
CUT
10
66.9375
20
-95.5347
0
VERTEX
8
CUT
10
66.9211
20
-95.4646
0
VERTEX
8
CUT
10
66.9094
20
-95.3936
0
VERTEX
8
CUT
10
66.9024
20
-95.3219
0
VERTEX
8
CUT
10
66.9000
20
-95.2500
0
VERTEX
8
CUT
10
66.9024
20
-95.1781
0
VERTEX
8
CUT
10
66.9094
20
-95.1064
0
VERTEX
8
CUT
10
66.9211
20
-95.0354
0
VERTEX
8
CUT
10
66.9375
20
-94.9653
0
VERTEX
8
CUT
10
66.9584
20
-94.8964
0
VERTEX
8
CUT
10
66.9837
20
-94.8290
0
VERTEX
8
CUT
10
67.0134
20
-94.7635
0
VERTEX
8
CUT
10
67.0474
20
-94.7000
0
VERTEX
8
CUT
10
67.0854
20
-94.6389
0
VERTEX
8
CUT
10
67.1273
20
-94.5804
0
VERTEX
8
CUT
10
67.1730
20
-94.5247
0
VERTEX
8
CUT
10
67.2222
20
-94.4722
0
VERTEX
8
CUT
10
67.2747
20
-94.4230
0
VERTEX
8
CUT
10
67.3304
20
-94.3773
0
VERTEX
8
CUT
10
67.3889
20
-94.3354
0
VERTEX
8
CUT
10
67.4500
20
-94.2974
0
VERTEX
8
CUT
10
67.5135
20
-94.2634
0
VERTEX
8
CUT
10
67.5790
20
-94.2337
0
VERTEX
8
CUT
10
67.6464
20
-94.2084
0
VERTEX
8
CUT
10
67.7153
20
-94.1875
0
VERTEX
8
CUT
10
67.7854
20
-94.1711
0
VERTEX
8
CUT
10
67.8564
20
-94.1594
0
VERTEX
8
CUT
10
67.9281
20
-94.1524
0
VERTEX
8
CUT
10
68.0000
20
-94.1500
0
VERTEX
8
CUT
10
68.0719
20
-94.1524
0
VERTEX
8
CUT
10
68.1436
20
-94.1594
0
VERTEX
8
CUT
10
68.2146
20
-94.1711
0
VERTEX
8
CUT
10
68.2847
20
-94.1875
0
VERTEX
8
CUT
10
68.3536
20
-94.2084
0
VERTEX
8
CUT
10
68.4210
20
-94.2337
0
VERTEX
8
CUT
10
68.4865
20
-94.2634
0
VERTEX
8
CUT
10
68.5500
20
-94.2974
0
VERTEX
8
CUT
10
68.6111
20
-94.3354
0
VERTEX
8
CUT
10
68.6696
20
-94.3773
0
VERTEX
8
CUT
10
68.7253
20
-94.4230
0
VERTEX
8
CUT
10
68.7778
20
-94.4722
0
VERTEX
8
CUT
10
68.8270
20
-94.5247
0
VERTEX
8
CUT
10
68.8727
20
-94.5804
0
VERTEX
8
CUT
10
68.9146
20
-94.6389
0
VERTEX
8
CUT
10
68.9526
20
-94.7000
0
VERTEX
8
CUT
10
68.9866
20
-94.7635
0
VERTEX
8
CUT
10
69.0163
20
-94.8290
0
VERTEX
8
CUT
10
69.0416
20
-94.8964
0
VERTEX
8
CUT
10
69.0625
20
-94.9653
0
VERTEX
8
CUT
10
69.0789
20
-95.0354
0
VERTEX
8
CUT
10
69.0906
20
-95.1064
0
VERTEX
8
CUT
10
69.0976
20
-95.1781
0
VERTEX
8
CUT
10
69.1000
20
-95.2500
0
VERTEX
8
CUT
10
69.0976
20
-95.3219
0
VERTEX
8
CUT
10
69.0906
20
-95.3936
0
VERTEX
8
CUT
10
69.0789
20
-95.4646
0
VERTEX
8
CUT
10
69.0625
20
-95.5347
0
VERTEX
8
CUT
10
69.0416
20
-95.6036
0
VERTEX
8
CUT
10
69.0163
20
-95.6710
0
VERTEX
8
CUT
10
68.9866
20
-95.7365
0
VERTEX
8
CUT
10
68.9526
20
-95.8000
0
VERTEX
8
CUT
10
68.9146
20
-95.8611
0
VERTEX
8
CUT
10
68.8727
20
-95.9196
0
VERTEX
8
CUT
10
68.8270
20
-95.9753
0
VERTEX
8
CUT
10
68.7778
20
-96.0278
0
VERTEX
8
CUT
10
68.7253
20
-96.0770
0
VERTEX
8
CUT
10
68.6696
20
-96.1227
0
VERTEX
8
CUT
10
68.6111
20
-96.1646
0
VERTEX
8
CUT
10
68.5500
20
-96.2026
0
VERTEX
8
CUT
10
68.4865
20
-96.2366
0
VERTEX
8
CUT
10
68.4210
20
-96.2663
0
VERTEX
8
CUT
10
68.3536
20
-96.2916
0
VERTEX
8
CUT
10
68.2847
20
-96.3125
0
VERTEX
8
CUT
10
68.2146
20
-96.3289
0
VERTEX
8
CUT
10
68.1436
20
-96.3406
0
VERTEX
8
CUT
10
68.0719
20
-96.3476
0
VERTEX
8
CUT
10
68.0000
20
-96.3500
0
SEQEND
0
POLYLINE
8
CUT
66
1
70
1
0
VERTEX
8
CUT
10
115.9281
20
-96.3476
0
VERTEX
8
CUT
10
115.8564
20
-96.3406
0
VERTEX
8
CUT
10
115.7854
20
-96.3289
0
VERTEX
8
CUT
10
115.7153
20
-96.3125
0
VERTEX
8
CUT
10
115.6464
20
-96.2916
0
VERTEX
8
CUT
10
115.5790
20
-96.2663
0
VERTEX
8
CUT
10
115.5135
20
-96.2366
0
VERTEX
8
CUT
10
115.4500
20
-96.2026
0
VERTEX
8
CUT
10
115.3889
20
-96.1646
0
VERTEX
8
CUT
10
115.3304
20
-96.1227
0
VERTEX
8
CUT
10
115.2747
20
-96.0770
0
VERTEX
8
CUT
10
115.2222
20
-96.0278
0
VERTEX
8
CUT
10
115.1730
20
-95.9753
0
VERTEX
8
CUT
10
115.1273
20
-95.9196
0
VERTEX
8
CUT
10
115.0854
20
-95.8611
0
VERTEX
8
CUT
10
115.0474
20
-95.8000
0
VERTEX
8
CUT
10
115.0134
20
-95.7365
0
VERTEX
8
CUT
10
114.9837
20
-95.6710
0
VERTEX
8
CUT
10
114.9584
20
-95.6036
0
VERTEX
8
CUT
10
114.9375
20
-95.5347
0
VERTEX
8
CUT
10
114.9211
20
-95.4646
0
VERTEX
8
CUT
10
114.9094
20
-95.3936
0
VERTEX
8
CUT
10
114.9024
20
-95.3219
0
VERTEX
8
CUT
10
114.9000
20
-95.2500
0
VERTEX
8
CUT
10
114.9024
20
-95.1781
0
VERTEX
8
CUT
10
114.9094
20
-95.1064
0
VERTEX
8
CUT
10
114.9211
20
-95.0354
0
VERTEX
8
CUT
10
114.9375
20
-94.9653
0
VERTEX
8
CUT
10
114.9584
20
-94.8964
0
VERTEX
8
CUT
10
114.9837
20
-94.8290
0
VERTEX
8
CUT
10
115.0134
20
-94.7635
0
VERTEX
8
CUT
10
115.0474
20
-94.7000
0
VERTEX
8
CUT
10
115.0854
20
-94.6389
0
VERTEX
8
CUT
10
115.1273
20
-94.5804
0
VERTEX
8
CUT
10
115.1730
20
-94.5247
0
VERTEX
8
CUT
10
115.2222
20
-94.4722
0
VERTEX
8
CUT
10
115.2747
20
-94.4230
0
VERTEX
8
CUT
10
115.3304
20
-94.3773
0
VERTEX
8
CUT
10
115.3889
20
-94.3354
0
VERTEX
8
CUT
10
115.4500
20
-94.2974
0
VERTEX
8
CUT
10
115.5135
20
-94.2634
0
VERTEX
8
CUT
10
115.5790
20
-94.2337
0
VERTEX
8
CUT
10
115.6464
20
-94.2084
0
VERTEX
8
CUT
10
115.7153
20
-94.1875
0
VERTEX
8
CUT
10
115.7854
20
-94.1711
0
VERTEX
8
CUT
10
115.8564
20
-94.1594
0
VERTEX
8
CUT
10
115.9281
20
-94.1524
0
VERTEX
8
CUT
10
116.0000
20
-94.1500
0
VERTEX
8
CUT
10
116.0719
20
-94.1524
0
VERTEX
8
CUT
10
116.1436
20
-94.1594
0
VERTEX
8
CUT
10
116.2146
20
-94.1711
0
VERTEX
8
CUT
10
116.2847
20
-94.1875
0
VERTEX
8
CUT
10
116.3536
20
-94.2084
0
VERTEX
8
CUT
10
116.4210
20
-94.2337
0
VERTEX
8
CUT
10
116.4865
20
-94.2634
0
VERTEX
8
CUT
10
116.5500
20
-94.2974
0
VERTEX
8
CUT
10
116.6111
20
-94.3354
0
VERTEX
8
CUT
10
116.6696
20
-94.3773
0
VERTEX
8
CUT
10
116.7253
20
-94.4230
0
VERTEX
8
CUT
10
116.7778
20
-94.4722
0
VERTEX
8
CUT
10
116.8270
20
-94.5247
0
VERTEX
8
CUT
10
116.8727
20
-94.5804
0
VERTEX
8
CUT
10
116.9146
20
-94.6389
0
VERTEX
8
CUT
10
116.9526
20
-94.7000
0
VERTEX
8
CUT
10
116.9866
20
-94.7635
0
VERTEX
8
CUT
10
117.0163
20
-94.8290
0
VERTEX
8
CUT
10
117.0416
20
-94.8964
0
VERTEX
8
CUT
10
117.0625
20
-94.9653
0
VERTEX
8
CUT
10
117.0789
20
-95.0354
0
VERTEX
8
CUT
10
117.0906
20
-95.1064
0
VERTEX
8
CUT
10
117.0976
20
-95.1781
0
VERTEX
8
CUT
10
117.1000
20
-95.2500
0
VERTEX
8
CUT
10
117.0976
20
-95.3219
0
VERTEX
8
CUT
10
117.0906
20
-95.3936
0
VERTEX
8
CUT
10
117.0789
20
-95.4646
0
VERTEX
8
CUT
10
117.0625
20
-95.5347
0
VERTEX
8
CUT
10
117.0416
20
-95.6036
0
VERTEX
8
CUT
10
117.0163
20
-95.6710
0
VERTEX
8
CUT
10
116.9866
20
-95.7365
0
VERTEX
8
CUT
10
116.9526
20
-95.8000
0
VERTEX
8
CUT
10
116.9146
20
-95.8611
0
VERTEX
8
CUT
10
116.8727
20
-95.9196
0
VERTEX
8
CUT
10
116.8270
20
-95.9753
0
VERTEX
8
CUT
10
116.7778
20
-96.0278
0
VERTEX
8
CUT
10
116.7253
20
-96.0770
0
VERTEX
8
CUT
10
116.6696
20
-96.1227
0
VERTEX
8
CUT
10
116.6111
20
-96.1646
0
VERTEX
8
CUT
10
116.5500
20
-96.2026
0
VERTEX
8
CUT
10
116.4865
20
-96.2366
0
VERTEX
8
CUT
10
116.4210
20
-96.2663
0
VERTEX
8
CUT
10
116.3536
20
-96.2916
0
VERTEX
8
CUT
10
116.2847
20
-96.3125
0
VERTEX
8
CUT
10
116.2146
20
-96.3289
0
VERTEX
8
CUT
10
116.1436
20
-96.3406
0
VERTEX
8
CUT
10
116.0719
20
-96.3476
0
VERTEX
8
CUT
10
116.0000
20
-96.3500
0
SEQEND
0
POLYLINE
8
CUT
66
1
70
1
0
VERTEX
8
CUT
10
166.9281
20
-96.3476
0
VERTEX
8
CUT
10
166.8564
20
-96.3406
0
VERTEX
8
CUT
10
166.7854
20
-96.3289
0
VERTEX
8
CUT
10
166.7153
20
-96.3125
0
VERTEX
8
CUT
10
166.6464
20
-96.2916
0
VERTEX
8
CUT
10
166.5790
20
-96.2663
0
VERTEX
8
CUT
10
166.5135
20
-96.2366
0
VERTEX
8
CUT
10
166.4500
20
-96.2026
0
VERTEX
8
CUT
10
166.3889
20
-96.1646
0
VERTEX
8
CUT
10
166.3304
20
-96.1227
0
VERTEX
8
CUT
10
166.2747
20
-96.0770
0
VERTEX
8
CUT
10
166.2222
20
-96.0278
0
VERTEX
8
CUT
10
166.1730
20
-95.9753
0
VERTEX
8
CUT
10
166.1273
20
-95.9196
0
VERTEX
8
CUT
10
166.0854
20
-95.8611
0
VERTEX
8
CUT
10
166.0474
20
-95.8000
0
VERTEX
8
CUT
10
166.0134
20
-95.7365
0
VERTEX
8
CUT
10
165.9837
20
-95.6710
0
VERTEX
8
CUT
10
165.9584
20
-95.6036
0
VERTEX
8
CUT
10
165.9375
20
-95.5347
0
VERTEX
8
CUT
10
165.9211
20
-95.4646
0
VERTEX
8
CUT
10
165.9094
20
-95.3936
0
VERTEX
8
CUT
10
165.9024
20
-95.3219
0
VERTEX
8
CUT
10
165.9000
20
-95.2500
0
VERTEX
8
CUT
10
165.9024
20
-95.1781
0
VERTEX
8
CUT
10
165.9094
20
-95.1064
0
VERTEX
8
CUT
10
165.9211
20
-95.0354
0
VERTEX
8
CUT
10
165.9375
20
-94.9653
0
VERTEX
8
CUT
10
165.9584
20
-94.8964
0
VERTEX
8
CUT
10
165.9837
20
-94.8290
0
VERTEX
8
CUT
10
166.0134
20
-94.7635
0
VERTEX
8
CUT
10
166.0474
20
-94.7000
0
VERTEX
8
CUT
10
166.0854
20
-94.6389
0
VERTEX
8
CUT
10
166.1273
20
-94.5804
0
VERTEX
8
CUT
10
166.1730
20
-94.5247
0
VERTEX
8
CUT
10
166.2222
20
-94.4722
0
VERTEX
8
CUT
10
166.2747
20
-94.4230
0
VERTEX
8
CUT
10
166.3304
20
-94.3773
0
VERTEX
8
CUT
10
166.3889
20
-94.3354
0
VERTEX
8
CUT
10
166.4500
20
-94.2974
0
VERTEX
8
CUT
10
166.5135
20
-94.2634
0
VERTEX
8
CUT
10
166.5790
20
-94.2337
0
VERTEX
8
CUT
10
166.6464
20
-94.2084
0
VERTEX
8
CUT
10
166.7153
20
-94.1875
0
VERTEX
8
CUT
10
166.7854
20
-94.1711
0
VERTEX
8
CUT
10
166.8564
20
-94.1594
0
VERTEX
8
CUT
10
166.9281
20
-94.1524
0
VERTEX
8
CUT
10
167.0000
20
-94.1500
0
VERTEX
8
CUT
10
167.0719
20
-94.1524
0
VERTEX
8
CUT
10
167.1436
20
-94.1594
0
VERTEX
8
CUT
10
167.2146
20
-94.1711
0
VERTEX
8
CUT
10
167.2847
20
-94.1875
0
VERTEX
8
CUT
10
167.3536
20
-94.2084
0
VERTEX
8
CUT
10
167.4210
20
-94.2337
0
VERTEX
8
CUT
10
167.4865
20
-94.2634
0
VERTEX
8
CUT
10
167.5500
20
-94.2974
0
VERTEX
8
CUT
10
167.6111
20
-94.3354
0
VERTEX
8
CUT
10
167.6696
20
-94.3773
0
VERTEX
8
CUT
10
167.7253
20
-94.4230
0
VERTEX
8
CUT
10
167.7778
20
-94.4722
0
VERTEX
8
CUT
10
167.8270
20
-94.5247
0
VERTEX
8
CUT
10
167.8727
20
-94.5804
0
VERTEX
8
CUT
10
167.9146
20
-94.6389
0
VERTEX
8
CUT
10
167.9526
20
-94.7000
0
VERTEX
8
CUT
10
167.9866
20
-94.7635
0
VERTEX
8
CUT
10
168.0163
20
-94.8290
0
VERTEX
8
CUT
10
168.0416
20
-94.8964
0
VERTEX
8
CUT
10
168.0625
20
-94.9653
0
VERTEX
8
CUT
10
168.0789
20
-95.0354
0
VERTEX
8
CUT
10
168.0906
20
-95.1064
0
VERTEX
8
CUT
10
168.0976
20
-95.1781
0
VERTEX
8
CUT
10
168.1000
20
-95.2500
0
VERTEX
8
CUT
10
168.0976
20
-95.3219
0
VERTEX
8
CUT
10
168.0906
20
-95.3936
0
VERTEX
8
CUT
10
168.0789
20
-95.4646
0
VERTEX
8
CUT
10
168.0625
20
-95.5347
0
VERTEX
8
CUT
10
168.0416
20
-95.6036
0
VERTEX
8
CUT
10
168.0163
20
-95.6710
0
VERTEX
8
CUT
10
167.9866
20
-95.7365
0
VERTEX
8
CUT
10
167.9526
20
-95.8000
0
VERTEX
8
CUT
10
167.9146
20
-95.8611
0
VERTEX
8
CUT
10
167.8727
20
-95.9196
0
VERTEX
8
CUT
10
167.8270
20
-95.9753
0
VERTEX
8
CUT
10
167.7778
20
-96.0278
0
VERTEX
8
CUT
10
167.7253
20
-96.0770
0
VERTEX
8
CUT
10
167.6696
20
-96.1227
0
VERTEX
8
CUT
10
167.6111
20
-96.1646
0
VERTEX
8
CUT
10
167.5500
20
-96.2026
0
VERTEX
8
CUT
10
167.4865
20
-96.2366
0
VERTEX
8
CUT
10
167.4210
20
-96.2663
0
VERTEX
8
CUT
10
167.3536
20
-96.2916
0
VERTEX
8
CUT
10
167.2847
20
-96.3125
0
VERTEX
8
CUT
10
167.2146
20
-96.3289
0
VERTEX
8
CUT
10
167.1436
20
-96.3406
0
VERTEX
8
CUT
10
167.0719
20
-96.3476
0
VERTEX
8
CUT
10
167.0000
20
-96.3500
0
SEQEND
0
POLYLINE
8
CUT
66
1
70
1
0
VERTEX
8
CUT
10
-7.5719
20
-96.4501
0
VERTEX
8
CUT
10
-7.6436
20
-96.4431
0
VERTEX
8
CUT
10
-7.7146
20
-96.4314
0
VERTEX
8
CUT
10
-7.7847
20
-96.4150
0
VERTEX
8
CUT
10
-7.8536
20
-96.3941
0
VERTEX
8
CUT
10
-7.9210
20
-96.3688
0
VERTEX
8
CUT
10
-7.9865
20
-96.3391
0
VERTEX
8
CUT
10
-8.0500
20
-96.3051
0
VERTEX
8
CUT
10
-8.1111
20
-96.2671
0
VERTEX
8
CUT
10
-8.1696
20
-96.2252
0
VERTEX
8
CUT
10
-8.2253
20
-96.1795
0
VERTEX
8
CUT
10
-8.2778
20
-96.1303
0
VERTEX
8
CUT
10
-8.3270
20
-96.0778
0
VERTEX
8
CUT
10
-8.3727
20
-96.0221
0
VERTEX
8
CUT
10
-8.4146
20
-95.9636
0
VERTEX
8
CUT
10
-8.4526
20
-95.9025
0
VERTEX
8
CUT
10
-8.4866
20
-95.8390
0
VERTEX
8
CUT
10
-8.5163
20
-95.7735
0
VERTEX
8
CUT
10
-8.5416
20
-95.7061
0
VERTEX
8
CUT
10
-8.5625
20
-95.6372
0
VERTEX
8
CUT
10
-8.5789
20
-95.5671
0
VERTEX
8
CUT
10
-8.5906
20
-95.4961
0
VERTEX
8
CUT
10
-8.5976
20
-95.4244
0
VERTEX
8
CUT
10
-8.6000
20
-95.3525
0
VERTEX
8
CUT
10
-8.5976
20
-95.2806
0
VERTEX
8
CUT
10
-8.5906
20
-95.2089
0
VERTEX
8
CUT
10
-8.5789
20
-95.1379
0
VERTEX
8
CUT
10
-8.5625
20
-95.0678
0
VERTEX
8
CUT
10
-8.5416
20
-94.9989
0
VERTEX
8
CUT
10
-8.5163
20
-94.9315
0
VERTEX
8
CUT
10
-8.4866
20
-94.8660
0
VERTEX
8
CUT
10
-8.4526
20
-94.8025
0
VERTEX
8
CUT
10
-8.4146
20
-94.7414
0
VERTEX
8
CUT
10
-8.3727
20
-94.6829
0
VERTEX
8
CUT
10
-8.3270
20
-94.6272
0
VERTEX
8
CUT
10
-8.2778
20
-94.5747
0
VERTEX
8
CUT
10
-8.2253
20
-94.5255
0
VERTEX
8
CUT
10
-8.1696
20
-94.4798
0
VERTEX
8
CUT
10
-8.1111
20
-94.4379
0
VERTEX
8
CUT
10
-8.0500
20
-94.3999
0
VERTEX
8
CUT
10
-7.9865
20
-94.3659
0
VERTEX
8
CUT
10
-7.9210
20
-94.3362
0
VERTEX
8
CUT
10
-7.8536
20
-94.3109
0
VERTEX
8
CUT
10
-7.7847
20
-94.2900
0
VERTEX
8
CUT
10
-7.7146
20
-94.2736
0
VERTEX
8
CUT
10
-7.6436
20
-94.2619
0
VERTEX
8
CUT
10
-7.5719
20
-94.2549
0
VERTEX
8
CUT
10
-7.5000
20
-94.2525
0
VERTEX
8
CUT
10
-7.4281
20
-94.2549
0
VERTEX
8
CUT
10
-7.3564
20
-94.2619
0
VERTEX
8
CUT
10
-7.2854
20
-94.2736
0
VERTEX
8
CUT
10
-7.2153
20
-94.2900
0
VERTEX
8
CUT
10
-7.1464
20
-94.3109
0
VERTEX
8
CUT
10
-7.0790
20
-94.3362
0
VERTEX
8
CUT
10
-7.0135
20
-94.3659
0
VERTEX
8
CUT
10
-6.9500
20
-94.3999
0
VERTEX
8
CUT
10
-6.8889
20
-94.4379
0
VERTEX
8
CUT
10
-6.8304
20
-94.4798
0
VERTEX
8
CUT
10
-6.7747
20
-94.5255
0
VERTEX
8
CUT
10
-6.7222
20
-94.5747
0
VERTEX
8
CUT
10
-6.6730
20
-94.6272
0
VERTEX
8
CUT
10
-6.6273
20
-94.6829
0
VERTEX
8
CUT
10
-6.5854
20
-94.7414
0
VERTEX
8
CUT
10
-6.5474
20
-94.8025
0
VERTEX
8
CUT
10
-6.5134
20
-94.8660
0
VERTEX
8
CUT
10
-6.4837
20
-94.9315
0
VERTEX
8
CUT
10
-6.4584
20
-94.9989
0
VERTEX
8
CUT
10
-6.4375
20
-95.0678
0
VERTEX
8
CUT
10
-6.4211
20
-95.1379
0
VERTEX
8
CUT
10
-6.4094
20
-95.2089
0
VERTEX
8
CUT
10
-6.4024
20
-95.2806
0
VERTEX
8
CUT
10
-6.4000
20
-95.3525
0
VERTEX
8
CUT
10
-6.4024
20
-95.4244
0
VERTEX
8
CUT
10
-6.4094
20
-95.4961
0
VERTEX
8
CUT
10
-6.4211
20
-95.5671
0
VERTEX
8
CUT
10
-6.4375
20
-95.6372
0
VERTEX
8
CUT
10
-6.4584
20
-95.7061
0
VERTEX
8
CUT
10
-6.4837
20
-95.7735
0
VERTEX
8
CUT
10
-6.5134
20
-95.8390
0
VERTEX
8
CUT
10
-6.5474
20
-95.9025
0
VERTEX
8
CUT
10
-6.5854
20
-95.9636
0
VERTEX
8
CUT
10
-6.6273
20
-96.0221
0
VERTEX
8
CUT
10
-6.6730
20
-96.0778
0
VERTEX
8
CUT
10
-6.7222
20
-96.1303
0
VERTEX
8
CUT
10
-6.7747
20
-96.1795
0
VERTEX
8
CUT
10
-6.8304
20
-96.2252
0
VERTEX
8
CUT
10
-6.8889
20
-96.2671
0
VERTEX
8
CUT
10
-6.9500
20
-96.3051
0
VERTEX
8
CUT
10
-7.0135
20
-96.3391
0
VERTEX
8
CUT
10
-7.0790
20
-96.3688
0
VERTEX
8
CUT
10
-7.1464
20
-96.3941
0
VERTEX
8
CUT
10
-7.2153
20
-96.4150
0
VERTEX
8
CUT
10
-7.2854
20
-96.4314
0
VERTEX
8
CUT
10
-7.3564
20
-96.4431
0
VERTEX
8
CUT
10
-7.4281
20
-96.4501
0
VERTEX
8
CUT
10
-7.5000
20
-96.4525
0
SEQEND
0
POLYLINE
8
CUT
66
1
70
1
0
VERTEX
8
CUT
10
-5.0824
20
-120.4081
0
VERTEX
8
CUT
10
-5.1540
20
-120.4010
0
VERTEX
8
CUT
10
-5.2250
20
-120.3893
0
VERTEX
8
CUT
10
-5.2951
20
-120.3729
0
VERTEX
8
CUT
10
-5.3640
20
-120.3520
0
VERTEX
8
CUT
10
-5.4314
20
-120.3267
0
VERTEX
8
CUT
10
-5.4969
20
-120.2970
0
VERTEX
8
CUT
10
-5.5604
20
-120.2630
0
VERTEX
8
CUT
10
-5.6215
20
-120.2250
0
VERTEX
8
CUT
10
-5.6800
20
-120.1831
0
VERTEX
8
CUT
10
-5.7357
20
-120.1374
0
VERTEX
8
CUT
10
-5.7882
20
-120.0882
0
VERTEX
8
CUT
10
-5.8374
20
-120.0357
0
VERTEX
8
CUT
10
-5.8831
20
-119.9800
0
VERTEX
8
CUT
10
-5.9250
20
-119.9215
0
VERTEX
8
CUT
10
-5.9630
20
-119.8604
0
VERTEX
8
CUT
10
-5.9970
20
-119.7969
0
VERTEX
8
CUT
10
-6.0267
20
-119.7314
0
VERTEX
8
CUT
10
-6.0520
20
-119.6640
0
VERTEX
8
CUT
10
-6.0729
20
-119.5951
0
VERTEX
8
CUT
10
-6.0893
20
-119.5250
0
VERTEX
8
CUT
10
-6.1010
20
-119.4540
0
VERTEX
8
CUT
10
-6.1081
20
-119.3824
0
VERTEX
8
CUT
10
-6.1104
20
-119.3104
0
VERTEX
8
CUT
10
-6.1081
20
-119.2385
0
VERTEX
8
CUT
10
-6.1010
20
-119.1668
0
VERTEX
8
CUT
10
-6.0893
20
-119.0958
0
VERTEX
8
CUT
10
-6.0729
20
-119.0257
0
VERTEX
8
CUT
10
-6.0520
20
-118.9568
0
VERTEX
8
CUT
10
-6.0267
20
-118.8895
0
VERTEX
8
CUT
10
-5.9970
20
-118.8239
0
VERTEX
8
CUT
10
-5.9630
20
-118.7604
0
VERTEX
8
CUT
10
-5.9250
20
-118.6993
0
VERTEX
8
CUT
10
-5.8831
20
-118.6408
0
VERTEX
8
CUT
10
-5.8374
20
-118.5851
0
VERTEX
8
CUT
10
-5.7882
20
-118.5326
0
VERTEX
8
CUT
10
-5.7357
20
-118.4834
0
VERTEX
8
CUT
10
-5.6800
20
-118.4377
0
VERTEX
8
CUT
10
-5.6215
20
-118.3958
0
VERTEX
8
CUT
10
-5.5604
20
-118.3578
0
VERTEX
8
CUT
10
-5.4969
20
-118.3238
0
VERTEX
8
CUT
10
-5.4314
20
-118.2941
0
VERTEX
8
CUT
10
-5.3640
20
-118.2688
0
VERTEX
8
CUT
10
-5.2951
20
-118.2479
0
VERTEX
8
CUT
10
-5.2250
20
-118.2315
0
VERTEX
8
CUT
10
-5.1540
20
-118.2198
0
VERTEX
8
CUT
10
-5.0824
20
-118.2128
0
VERTEX
8
CUT
10
-5.0104
20
-118.2104
0
VERTEX
8
CUT
10
-4.9385
20
-118.2128
0
VERTEX
8
CUT
10
-4.8668
20
-118.2198
0
VERTEX
8
CUT
10
-4.7958
20
-118.2315
0
VERTEX
8
CUT
10
-4.7257
20
-118.2479
0
VERTEX
8
CUT
10
-4.6568
20
-118.2688
0
VERTEX
8
CUT
10
-4.5895
20
-118.2941
0
VERTEX
8
CUT
10
-4.5239
20
-118.3238
0
VERTEX
8
CUT
10
-4.4604
20
-118.3578
0
VERTEX
8
CUT
10
-4.3993
20
-118.3958
0
VERTEX
8
CUT
10
-4.3408
20
-118.4377
0
VERTEX
8
CUT
10
-4.2851
20
-118.4834
0
VERTEX
8
CUT
10
-4.2326
20
-118.5326
0
VERTEX
8
CUT
10
-4.1834
20
-118.5851
0
VERTEX
8
CUT
10
-4.1377
20
-118.6408
0
VERTEX
8
CUT
10
-4.0958
20
-118.6993
0
VERTEX
8
CUT
10
-4.0578
20
-118.7604
0
VERTEX
8
CUT
10
-4.0238
20
-118.8239
0
VERTEX
8
CUT
10
-3.9941
20
-118.8895
0
VERTEX
8
CUT
10
-3.9688
20
-118.9568
0
VERTEX
8
CUT
10
-3.9479
20
-119.0257
0
VERTEX
8
CUT
10
-3.9315
20
-119.0958
0
VERTEX
8
CUT
10
-3.9198
20
-119.1668
0
VERTEX
8
CUT
10
-3.9128
20
-119.2385
0
VERTEX
8
CUT
10
-3.9104
20
-119.3104
0
VERTEX
8
CUT
10
-3.9128
20
-119.3824
0
VERTEX
8
CUT
10
-3.9198
20
-119.4540
0
VERTEX
8
CUT
10
-3.9315
20
-119.5250
0
VERTEX
8
CUT
10
-3.9479
20
-119.5951
0
VERTEX
8
CUT
10
-3.9688
20
-119.6640
0
VERTEX
8
CUT
10
-3.9941
20
-119.7314
0
VERTEX
8
CUT
10
-4.0238
20
-119.7969
0
VERTEX
8
CUT
10
-4.0578
20
-119.8604
0
VERTEX
8
CUT
10
-4.0958
20
-119.9215
0
VERTEX
8
CUT
10
-4.1377
20
-119.9800
0
VERTEX
8
CUT
10
-4.1834
20
-120.0357
0
VERTEX
8
CUT
10
-4.2326
20
-120.0882
0
VERTEX
8
CUT
10
-4.2851
20
-120.1374
0
VERTEX
8
CUT
10
-4.3408
20
-120.1831
0
VERTEX
8
CUT
10
-4.3993
20
-120.2250
0
VERTEX
8
CUT
10
-4.4604
20
-120.2630
0
VERTEX
8
CUT
10
-4.5239
20
-120.2970
0
VERTEX
8
CUT
10
-4.5895
20
-120.3267
0
VERTEX
8
CUT
10
-4.6568
20
-120.3520
0
VERTEX
8
CUT
10
-4.7257
20
-120.3729
0
VERTEX
8
CUT
10
-4.7958
20
-120.3893
0
VERTEX
8
CUT
10
-4.8668
20
-120.4010
0
VERTEX
8
CUT
10
-4.9385
20
-120.4081
0
VERTEX
8
CUT
10
-5.0104
20
-120.4104
0
SEQEND
0
POLYLINE
8
CUT
66
1
70
1
0
VERTEX
8
CUT
10
185.9135
20
-120.4081
0
VERTEX
8
CUT
10
185.8418
20
-120.4010
0
VERTEX
8
CUT
10
185.7708
20
-120.3893
0
VERTEX
8
CUT
10
185.7007
20
-120.3729
0
VERTEX
8
CUT
10
185.6318
20
-120.3520
0
VERTEX
8
CUT
10
185.5645
20
-120.3267
0
VERTEX
8
CUT
10
185.4989
20
-120.2970
0
VERTEX
8
CUT
10
185.4354
20
-120.2630
0
VERTEX
8
CUT
10
185.3743
20
-120.2250
0
VERTEX
8
CUT
10
185.3158
20
-120.1831
0
VERTEX
8
CUT
10
185.2601
20
-120.1374
0
VERTEX
8
CUT
10
185.2076
20
-120.0882
0
VERTEX
8
CUT
10
185.1584
20
-120.0357
0
VERTEX
8
CUT
10
185.1127
20
-119.9800
0
VERTEX
8
CUT
10
185.0708
20
-119.9215
0
VERTEX
8
CUT
10
185.0328
20
-119.8604
0
VERTEX
8
CUT
10
184.9988
20
-119.7969
0
VERTEX
8
CUT
10
184.9691
20
-119.7314
0
VERTEX
8
CUT
10
184.9438
20
-119.6640
0
VERTEX
8
CUT
10
184.9229
20
-119.5951
0
VERTEX
8
CUT
10
184.9065
20
-119.5250
0
VERTEX
8
CUT
10
184.8948
20
-119.4540
0
VERTEX
8
CUT
10
184.8878
20
-119.3824
0
VERTEX
8
CUT
10
184.8854
20
-119.3104
0
VERTEX
8
CUT
10
184.8878
20
-119.2385
0
VERTEX
8
CUT
10
184.8948
20
-119.1668
0
VERTEX
8
CUT
10
184.9065
20
-119.0958
0
VERTEX
8
CUT
10
184.9229
20
-119.0257
0
VERTEX
8
CUT
10
184.9438
20
-118.9568
0
VERTEX
8
CUT
10
184.9691
20
-118.8895
0
VERTEX
8
CUT
10
184.9988
20
-118.8239
0
VERTEX
8
CUT
10
185.0328
20
-118.7604
0
VERTEX
8
CUT
10
185.0708
20
-118.6993
0
VERTEX
8
CUT
10
185.1127
20
-118.6408
0
VERTEX
8
CUT
10
185.1584
20
-118.5851
0
VERTEX
8
CUT
10
185.2076
20
-118.5326
0
VERTEX
8
CUT
10
185.2601
20
-118.4834
0
VERTEX
8
CUT
10
185.3158
20
-118.4377
0
VERTEX
8
CUT
10
185.3743
20
-118.3958
0
VERTEX
8
CUT
10
185.4354
20
-118.3578
0
VERTEX
8
CUT
10
185.4989
20
-118.3238
0
VERTEX
8
CUT
10
185.5645
20
-118.2941
0
VERTEX
8
CUT
10
185.6318
20
-118.2688
0
VERTEX
8
CUT
10
185.7007
20
-118.2479
0
VERTEX
8
CUT
10
185.7708
20
-118.2315
0
VERTEX
8
CUT
10
185.8418
20
-118.2198
0
VERTEX
8
CUT
10
185.9135
20
-118.2128
0
VERTEX
8
CUT
10
185.9854
20
-118.2104
0
VERTEX
8
CUT
10
186.0574
20
-118.2128
0
VERTEX
8
CUT
10
186.1290
20
-118.2198
0
VERTEX
8
CUT
10
186.2000
20
-118.2315
0
VERTEX
8
CUT
10
186.2701
20
-118.2479
0
VERTEX
8
CUT
10
186.3390
20
-118.2688
0
VERTEX
8
CUT
10
186.4064
20
-118.2941
0
VERTEX
8
CUT
10
186.4719
20
-118.3238
0
VERTEX
8
CUT
10
186.5354
20
-118.3578
0
VERTEX
8
CUT
10
186.5965
20
-118.3958
0
VERTEX
8
CUT
10
186.6550
20
-118.4377
0
VERTEX
8
CUT
10
186.7107
20
-118.4834
0
VERTEX
8
CUT
10
186.7632
20
-118.5326
0
VERTEX
8
CUT
10
186.8124
20
-118.5851
0
VERTEX
8
CUT
10
186.8581
20
-118.6408
0
VERTEX
8
CUT
10
186.9000
20
-118.6993
0
VERTEX
8
CUT
10
186.9380
20
-118.7604
0
VERTEX
8
CUT
10
186.9720
20
-118.8239
0
VERTEX
8
CUT
10
187.0017
20
-118.8895
0
VERTEX
8
CUT
10
187.0270
20
-118.9568
0
VERTEX
8
CUT
10
187.0479
20
-119.0257
0
VERTEX
8
CUT
10
187.0643
20
-119.0958
0
VERTEX
8
CUT
10
187.0760
20
-119.1668
0
VERTEX
8
CUT
10
187.0831
20
-119.2385
0
VERTEX
8
CUT
10
187.0854
20
-119.3104
0
VERTEX
8
CUT
10
187.0831
20
-119.3824
0
VERTEX
8
CUT
10
187.0760
20
-119.4540
0
VERTEX
8
CUT
10
187.0643
20
-119.5250
0
VERTEX
8
CUT
10
187.0479
20
-119.5951
0
VERTEX
8
CUT
10
187.0270
20
-119.6640
0
VERTEX
8
CUT
10
187.0017
20
-119.7314
0
VERTEX
8
CUT
10
186.9720
20
-119.7969
0
VERTEX
8
CUT
10
186.9380
20
-119.8604
0
VERTEX
8
CUT
10
186.9000
20
-119.9215
0
VERTEX
8
CUT
10
186.8581
20
-119.9800
0
VERTEX
8
CUT
10
186.8124
20
-120.0357
0
VERTEX
8
CUT
10
186.7632
20
-120.0882
0
VERTEX
8
CUT
10
186.7107
20
-120.1374
0
VERTEX
8
CUT
10
186.6550
20
-120.1831
0
VERTEX
8
CUT
10
186.5965
20
-120.2250
0
VERTEX
8
CUT
10
186.5354
20
-120.2630
0
VERTEX
8
CUT
10
186.4719
20
-120.2970
0
VERTEX
8
CUT
10
186.4064
20
-120.3267
0
VERTEX
8
CUT
10
186.3390
20
-120.3520
0
VERTEX
8
CUT
10
186.2701
20
-120.3729
0
VERTEX
8
CUT
10
186.2000
20
-120.3893
0
VERTEX
8
CUT
10
186.1290
20
-120.4010
0
VERTEX
8
CUT
10
186.0574
20
-120.4081
0
VERTEX
8
CUT
10
185.9854
20
-120.4104
0
SEQEND
0
POLYLINE
8
CUT
66
1
70
1
0
VERTEX
8
CUT
10
41.4218
20
-122.8976
0
VERTEX
8
CUT
10
41.3502
20
-122.8906
0
VERTEX
8
CUT
10
41.2792
20
-122.8789
0
VERTEX
8
CUT
10
41.2090
20
-122.8625
0
VERTEX
8
CUT
10
41.1402
20
-122.8416
0
VERTEX
8
CUT
10
41.0728
20
-122.8163
0
VERTEX
8
CUT
10
41.0072
20
-122.7866
0
VERTEX
8
CUT
10
40.9438
20
-122.7526
0
VERTEX
8
CUT
10
40.8826
20
-122.7146
0
VERTEX
8
CUT
10
40.8241
20
-122.6727
0
VERTEX
8
CUT
10
40.7685
20
-122.6270
0
VERTEX
8
CUT
10
40.7159
20
-122.5778
0
VERTEX
8
CUT
10
40.6667
20
-122.5253
0
VERTEX
8
CUT
10
40.6211
20
-122.4696
0
VERTEX
8
CUT
10
40.5791
20
-122.4111
0
VERTEX
8
CUT
10
40.5411
20
-122.3500
0
VERTEX
8
CUT
10
40.5072
20
-122.2865
0
VERTEX
8
CUT
10
40.4775
20
-122.2210
0
VERTEX
8
CUT
10
40.4521
20
-122.1536
0
VERTEX
8
CUT
10
40.4312
20
-122.0847
0
VERTEX
8
CUT
10
40.4149
20
-122.0146
0
VERTEX
8
CUT
10
40.4032
20
-121.9436
0
VERTEX
8
CUT
10
40.3961
20
-121.8719
0
VERTEX
8
CUT
10
40.3937
20
-121.8000
0
VERTEX
8
CUT
10
40.3961
20
-121.7281
0
VERTEX
8
CUT
10
40.4032
20
-121.6564
0
VERTEX
8
CUT
10
40.4149
20
-121.5854
0
VERTEX
8
CUT
10
40.4312
20
-121.5153
0
VERTEX
8
CUT
10
40.4521
20
-121.4464
0
VERTEX
8
CUT
10
40.4775
20
-121.3790
0
VERTEX
8
CUT
10
40.5072
20
-121.3135
0
VERTEX
8
CUT
10
40.5411
20
-121.2500
0
VERTEX
8
CUT
10
40.5791
20
-121.1889
0
VERTEX
8
CUT
10
40.6211
20
-121.1304
0
VERTEX
8
CUT
10
40.6667
20
-121.0747
0
VERTEX
8
CUT
10
40.7159
20
-121.0222
0
VERTEX
8
CUT
10
40.7685
20
-120.9730
0
VERTEX
8
CUT
10
40.8241
20
-120.9273
0
VERTEX
8
CUT
10
40.8826
20
-120.8854
0
VERTEX
8
CUT
10
40.9438
20
-120.8474
0
VERTEX
8
CUT
10
41.0072
20
-120.8134
0
VERTEX
8
CUT
10
41.0728
20
-120.7837
0
VERTEX
8
CUT
10
41.1402
20
-120.7584
0
VERTEX
8
CUT
10
41.2090
20
-120.7375
0
VERTEX
8
CUT
10
41.2792
20
-120.7211
0
VERTEX
8
CUT
10
41.3502
20
-120.7094
0
VERTEX
8
CUT
10
41.4218
20
-120.7024
0
VERTEX
8
CUT
10
41.4937
20
-120.7000
0
VERTEX
8
CUT
10
41.5657
20
-120.7024
0
VERTEX
8
CUT
10
41.6373
20
-120.7094
0
VERTEX
8
CUT
10
41.7083
20
-120.7211
0
VERTEX
8
CUT
10
41.7785
20
-120.7375
0
VERTEX
8
CUT
10
41.8473
20
-120.7584
0
VERTEX
8
CUT
10
41.9147
20
-120.7837
0
VERTEX
8
CUT
10
41.9803
20
-120.8134
0
VERTEX
8
CUT
10
42.0438
20
-120.8474
0
VERTEX
8
CUT
10
42.1049
20
-120.8854
0
VERTEX
8
CUT
10
42.1634
20
-120.9273
0
VERTEX
8
CUT
10
42.2190
20
-120.9730
0
VERTEX
8
CUT
10
42.2716
20
-121.0222
0
VERTEX
8
CUT
10
42.3208
20
-121.0747
0
VERTEX
8
CUT
10
42.3664
20
-121.1304
0
VERTEX
8
CUT
10
42.4084
20
-121.1889
0
VERTEX
8
CUT
10
42.4464
20
-121.2500
0
VERTEX
8
CUT
10
42.4803
20
-121.3135
0
VERTEX
8
CUT
10
42.5100
20
-121.3790
0
VERTEX
8
CUT
10
42.5354
20
-121.4464
0
VERTEX
8
CUT
10
42.5563
20
-121.5153
0
VERTEX
8
CUT
10
42.5726
20
-121.5854
0
VERTEX
8
CUT
10
42.5843
20
-121.6564
0
VERTEX
8
CUT
10
42.5914
20
-121.7281
0
VERTEX
8
CUT
10
42.5938
20
-121.8000
0
VERTEX
8
CUT
10
42.5914
20
-121.8719
0
VERTEX
8
CUT
10
42.5843
20
-121.9436
0
VERTEX
8
CUT
10
42.5726
20
-122.0146
0
VERTEX
8
CUT
10
42.5563
20
-122.0847
0
VERTEX
8
CUT
10
42.5354
20
-122.1536
0
VERTEX
8
CUT
10
42.5100
20
-122.2210
0
VERTEX
8
CUT
10
42.4803
20
-122.2865
0
VERTEX
8
CUT
10
42.4464
20
-122.3500
0
VERTEX
8
CUT
10
42.4084
20
-122.4111
0
VERTEX
8
CUT
10
42.3664
20
-122.4696
0
VERTEX
8
CUT
10
42.3208
20
-122.5253
0
VERTEX
8
CUT
10
42.2716
20
-122.5778
0
VERTEX
8
CUT
10
42.2190
20
-122.6270
0
VERTEX
8
CUT
10
42.1634
20
-122.6727
0
VERTEX
8
CUT
10
42.1049
20
-122.7146
0
VERTEX
8
CUT
10
42.0438
20
-122.7526
0
VERTEX
8
CUT
10
41.9803
20
-122.7866
0
VERTEX
8
CUT
10
41.9147
20
-122.8163
0
VERTEX
8
CUT
10
41.8473
20
-122.8416
0
VERTEX
8
CUT
10
41.7785
20
-122.8625
0
VERTEX
8
CUT
10
41.7083
20
-122.8789
0
VERTEX
8
CUT
10
41.6373
20
-122.8906
0
VERTEX
8
CUT
10
41.5657
20
-122.8976
0
VERTEX
8
CUT
10
41.4937
20
-122.9000
0
SEQEND
0
POLYLINE
8
CUT
66
1
70
1
0
VERTEX
8
CUT
10
90.4156
20
-122.8976
0
VERTEX
8
CUT
10
90.3439
20
-122.8906
0
VERTEX
8
CUT
10
90.2729
20
-122.8789
0
VERTEX
8
CUT
10
90.2028
20
-122.8625
0
VERTEX
8
CUT
10
90.1339
20
-122.8416
0
VERTEX
8
CUT
10
90.0665
20
-122.8163
0
VERTEX
8
CUT
10
90.0010
20
-122.7866
0
VERTEX
8
CUT
10
89.9375
20
-122.7526
0
VERTEX
8
CUT
10
89.8764
20
-122.7146
0
VERTEX
8
CUT
10
89.8179
20
-122.6727
0
VERTEX
8
CUT
10
89.7622
20
-122.6270
0
VERTEX
8
CUT
10
89.7097
20
-122.5778
0
VERTEX
8
CUT
10
89.6605
20
-122.5253
0
VERTEX
8
CUT
10
89.6148
20
-122.4696
0
VERTEX
8
CUT
10
89.5729
20
-122.4111
0
VERTEX
8
CUT
10
89.5349
20
-122.3500
0
VERTEX
8
CUT
10
89.5009
20
-122.2865
0
VERTEX
8
CUT
10
89.4712
20
-122.2210
0
VERTEX
8
CUT
10
89.4459
20
-122.1536
0
VERTEX
8
CUT
10
89.4250
20
-122.0847
0
VERTEX
8
CUT
10
89.4086
20
-122.0146
0
VERTEX
8
CUT
10
89.3969
20
-121.9436
0
VERTEX
8
CUT
10
89.3899
20
-121.8719
0
VERTEX
8
CUT
10
89.3875
20
-121.8000
0
VERTEX
8
CUT
10
89.3899
20
-121.7281
0
VERTEX
8
CUT
10
89.3969
20
-121.6564
0
VERTEX
8
CUT
10
89.4086
20
-121.5854
0
VERTEX
8
CUT
10
89.4250
20
-121.5153
0
VERTEX
8
CUT
10
89.4459
20
-121.4464
0
VERTEX
8
CUT
10
89.4712
20
-121.3790
0
VERTEX
8
CUT
10
89.5009
20
-121.3135
0
VERTEX
8
CUT
10
89.5349
20
-121.2500
0
VERTEX
8
CUT
10
89.5729
20
-121.1889
0
VERTEX
8
CUT
10
89.6148
20
-121.1304
0
VERTEX
8
CUT
10
89.6605
20
-121.0747
0
VERTEX
8
CUT
10
89.7097
20
-121.0222
0
VERTEX
8
CUT
10
89.7622
20
-120.9730
0
VERTEX
8
CUT
10
89.8179
20
-120.9273
0
VERTEX
8
CUT
10
89.8764
20
-120.8854
0
VERTEX
8
CUT
10
89.9375
20
-120.8474
0
VERTEX
8
CUT
10
90.0010
20
-120.8134
0
VERTEX
8
CUT
10
90.0665
20
-120.7837
0
VERTEX
8
CUT
10
90.1339
20
-120.7584
0
VERTEX
8
CUT
10
90.2028
20
-120.7375
0
VERTEX
8
CUT
10
90.2729
20
-120.7211
0
VERTEX
8
CUT
10
90.3439
20
-120.7094
0
VERTEX
8
CUT
10
90.4156
20
-120.7024
0
VERTEX
8
CUT
10
90.4875
20
-120.7000
0
VERTEX
8
CUT
10
90.5594
20
-120.7024
0
VERTEX
8
CUT
10
90.6311
20
-120.7094
0
VERTEX
8
CUT
10
90.7021
20
-120.7211
0
VERTEX
8
CUT
10
90.7722
20
-120.7375
0
VERTEX
8
CUT
10
90.8411
20
-120.7584
0
VERTEX
8
CUT
10
90.9085
20
-120.7837
0
VERTEX
8
CUT
10
90.9740
20
-120.8134
0
VERTEX
8
CUT
10
91.0375
20
-120.8474
0
VERTEX
8
CUT
10
91.0986
20
-120.8854
0
VERTEX
8
CUT
10
91.1571
20
-120.9273
0
VERTEX
8
CUT
10
91.2128
20
-120.9730
0
VERTEX
8
CUT
10
91.2653
20
-121.0222
0
VERTEX
8
CUT
10
91.3145
20
-121.0747
0
VERTEX
8
CUT
10
91.3602
20
-121.1304
0
VERTEX
8
CUT
10
91.4021
20
-121.1889
0
VERTEX
8
CUT
10
91.4401
20
-121.2500
0
VERTEX
8
CUT
10
91.4741
20
-121.3135
0
VERTEX
8
CUT
10
91.5038
20
-121.3790
0
VERTEX
8
CUT
10
91.5291
20
-121.4464
0
VERTEX
8
CUT
10
91.5500
20
-121.5153
0
VERTEX
8
CUT
10
91.5664
20
-121.5854
0
VERTEX
8
CUT
10
91.5781
20
-121.6564
0
VERTEX
8
CUT
10
91.5851
20
-121.7281
0
VERTEX
8
CUT
10
91.5875
20
-121.8000
0
VERTEX
8
CUT
10
91.5851
20
-121.8719
0
VERTEX
8
CUT
10
91.5781
20
-121.9436
0
VERTEX
8
CUT
10
91.5664
20
-122.0146
0
VERTEX
8
CUT
10
91.5500
20
-122.0847
0
VERTEX
8
CUT
10
91.5291
20
-122.1536
0
VERTEX
8
CUT
10
91.5038
20
-122.2210
0
VERTEX
8
CUT
10
91.4741
20
-122.2865
0
VERTEX
8
CUT
10
91.4401
20
-122.3500
0
VERTEX
8
CUT
10
91.4021
20
-122.4111
0
VERTEX
8
CUT
10
91.3602
20
-122.4696
0
VERTEX
8
CUT
10
91.3145
20
-122.5253
0
VERTEX
8
CUT
10
91.2653
20
-122.5778
0
VERTEX
8
CUT
10
91.2128
20
-122.6270
0
VERTEX
8
CUT
10
91.1571
20
-122.6727
0
VERTEX
8
CUT
10
91.0986
20
-122.7146
0
VERTEX
8
CUT
10
91.0375
20
-122.7526
0
VERTEX
8
CUT
10
90.9740
20
-122.7866
0
VERTEX
8
CUT
10
90.9085
20
-122.8163
0
VERTEX
8
CUT
10
90.8411
20
-122.8416
0
VERTEX
8
CUT
10
90.7722
20
-122.8625
0
VERTEX
8
CUT
10
90.7021
20
-122.8789
0
VERTEX
8
CUT
10
90.6311
20
-122.8906
0
VERTEX
8
CUT
10
90.5594
20
-122.8976
0
VERTEX
8
CUT
10
90.4875
20
-122.9000
0
SEQEND
0
POLYLINE
8
CUT
66
1
70
1
0
VERTEX
8
CUT
10
139.4093
20
-122.8976
0
VERTEX
8
CUT
10
139.3377
20
-122.8906
0
VERTEX
8
CUT
10
139.2667
20
-122.8789
0
VERTEX
8
CUT
10
139.1965
20
-122.8625
0
VERTEX
8
CUT
10
139.1277
20
-122.8416
0
VERTEX
8
CUT
10
139.0603
20
-122.8163
0
VERTEX
8
CUT
10
138.9947
20
-122.7866
0
VERTEX
8
CUT
10
138.9312
20
-122.7526
0
VERTEX
8
CUT
10
138.8701
20
-122.7146
0
VERTEX
8
CUT
10
138.8116
20
-122.6727
0
VERTEX
8
CUT
10
138.7560
20
-122.6270
0
VERTEX
8
CUT
10
138.7034
20
-122.5778
0
VERTEX
8
CUT
10
138.6542
20
-122.5253
0
VERTEX
8
CUT
10
138.6086
20
-122.4696
0
VERTEX
8
CUT
10
138.5666
20
-122.4111
0
VERTEX
8
CUT
10
138.5286
20
-122.3500
0
VERTEX
8
CUT
10
138.4947
20
-122.2865
0
VERTEX
8
CUT
10
138.4650
20
-122.2210
0
VERTEX
8
CUT
10
138.4396
20
-122.1536
0
VERTEX
8
CUT
10
138.4187
20
-122.0847
0
VERTEX
8
CUT
10
138.4024
20
-122.0146
0
VERTEX
8
CUT
10
138.3907
20
-121.9436
0
VERTEX
8
CUT
10
138.3836
20
-121.8719
0
VERTEX
8
CUT
10
138.3813
20
-121.8000
0
VERTEX
8
CUT
10
138.3836
20
-121.7281
0
VERTEX
8
CUT
10
138.3907
20
-121.6564
0
VERTEX
8
CUT
10
138.4024
20
-121.5854
0
VERTEX
8
CUT
10
138.4187
20
-121.5153
0
VERTEX
8
CUT
10
138.4396
20
-121.4464
0
VERTEX
8
CUT
10
138.4650
20
-121.3790
0
VERTEX
8
CUT
10
138.4947
20
-121.3135
0
VERTEX
8
CUT
10
138.5286
20
-121.2500
0
VERTEX
8
CUT
10
138.5666
20
-121.1889
0
VERTEX
8
CUT
10
138.6086
20
-121.1304
0
VERTEX
8
CUT
10
138.6542
20
-121.0747
0
VERTEX
8
CUT
10
138.7034
20
-121.0222
0
VERTEX
8
CUT
10
138.7560
20
-120.9730
0
VERTEX
8
CUT
10
138.8116
20
-120.9273
0
VERTEX
8
CUT
10
138.8701
20
-120.8854
0
VERTEX
8
CUT
10
138.9312
20
-120.8474
0
VERTEX
8
CUT
10
138.9947
20
-120.8134
0
VERTEX
8
CUT
10
139.0603
20
-120.7837
0
VERTEX
8
CUT
10
139.1277
20
-120.7584
0
VERTEX
8
CUT
10
139.1965
20
-120.7375
0
VERTEX
8
CUT
10
139.2667
20
-120.7211
0
VERTEX
8
CUT
10
139.3377
20
-120.7094
0
VERTEX
8
CUT
10
139.4093
20
-120.7024
0
VERTEX
8
CUT
10
139.4813
20
-120.7000
0
VERTEX
8
CUT
10
139.5532
20
-120.7024
0
VERTEX
8
CUT
10
139.6248
20
-120.7094
0
VERTEX
8
CUT
10
139.6958
20
-120.7211
0
VERTEX
8
CUT
10
139.7660
20
-120.7375
0
VERTEX
8
CUT
10
139.8348
20
-120.7584
0
VERTEX
8
CUT
10
139.9022
20
-120.7837
0
VERTEX
8
CUT
10
139.9678
20
-120.8134
0
VERTEX
8
CUT
10
140.0312
20
-120.8474
0
VERTEX
8
CUT
10
140.0924
20
-120.8854
0
VERTEX
8
CUT
10
140.1509
20
-120.9273
0
VERTEX
8
CUT
10
140.2065
20
-120.9730
0
VERTEX
8
CUT
10
140.2591
20
-121.0222
0
VERTEX
8
CUT
10
140.3083
20
-121.0747
0
VERTEX
8
CUT
10
140.3539
20
-121.1304
0
VERTEX
8
CUT
10
140.3959
20
-121.1889
0
VERTEX
8
CUT
10
140.4339
20
-121.2500
0
VERTEX
8
CUT
10
140.4678
20
-121.3135
0
VERTEX
8
CUT
10
140.4975
20
-121.3790
0
VERTEX
8
CUT
10
140.5229
20
-121.4464
0
VERTEX
8
CUT
10
140.5438
20
-121.5153
0
VERTEX
8
CUT
10
140.5601
20
-121.5854
0
VERTEX
8
CUT
10
140.5718
20
-121.6564
0
VERTEX
8
CUT
10
140.5789
20
-121.7281
0
VERTEX
8
CUT
10
140.5812
20
-121.8000
0
VERTEX
8
CUT
10
140.5789
20
-121.8719
0
VERTEX
8
CUT
10
140.5718
20
-121.9436
0
VERTEX
8
CUT
10
140.5601
20
-122.0146
0
VERTEX
8
CUT
10
140.5438
20
-122.0847
0
VERTEX
8
CUT
10
140.5229
20
-122.1536
0
VERTEX
8
CUT
10
140.4975
20
-122.2210
0
VERTEX
8
CUT
10
140.4678
20
-122.2865
0
VERTEX
8
CUT
10
140.4339
20
-122.3500
0
VERTEX
8
CUT
10
140.3959
20
-122.4111
0
VERTEX
8
CUT
10
140.3539
20
-122.4696
0
VERTEX
8
CUT
10
140.3083
20
-122.5253
0
VERTEX
8
CUT
10
140.2591
20
-122.5778
0
VERTEX
8
CUT
10
140.2065
20
-122.6270
0
VERTEX
8
CUT
10
140.1509
20
-122.6727
0
VERTEX
8
CUT
10
140.0924
20
-122.7146
0
VERTEX
8
CUT
10
140.0312
20
-122.7526
0
VERTEX
8
CUT
10
139.9678
20
-122.7866
0
VERTEX
8
CUT
10
139.9022
20
-122.8163
0
VERTEX
8
CUT
10
139.8348
20
-122.8416
0
VERTEX
8
CUT
10
139.7660
20
-122.8625
0
VERTEX
8
CUT
10
139.6958
20
-122.8789
0
VERTEX
8
CUT
10
139.6248
20
-122.8906
0
VERTEX
8
CUT
10
139.5532
20
-122.8976
0
VERTEX
8
CUT
10
139.4813
20
-122.9000
0
SEQEND
0
ENDSEC
0
EOF
