0
SECTION
2
HEADER
9
$INSUNITS
70
4
0
ENDSEC
0
SECTION
2
ENTITIES
0
POLYLINE
8
CUT
66
1
70
1
0
VERTEX
8
CUT
10
10.0720
20
-38.4843
0
VERTEX
8
CUT
10
10.3976
20
-38.4522
0
VERTEX
8
CUT
10
10.7205
20
-38.3989
0
VERTEX
8
CUT
10
11.0391
20
-38.3246
0
VERTEX
8
CUT
10
11.3522
20
-38.2297
0
VERTEX
8
CUT
10
11.6584
20
-38.1144
0
VERTEX
8
CUT
10
11.9564
20
-37.9794
0
VERTEX
8
CUT
10
12.2450
20
-37.8251
0
VERTEX
8
CUT
10
12.5229
20
-37.6523
0
VERTEX
8
CUT
10
12.7888
20
-37.4618
0
VERTEX
8
CUT
10
13.0417
20
-37.2542
0
VERTEX
8
CUT
10
13.2805
20
-37.0305
0
VERTEX
8
CUT
10
13.5042
20
-36.7917
0
VERTEX
8
CUT
10
13.7118
20
-36.5388
0
VERTEX
8
CUT
10
13.9023
20
-36.2729
0
VERTEX
8
CUT
10
14.0751
20
-35.9950
0
VERTEX
8
CUT
10
14.2294
20
-35.7064
0
VERTEX
8
CUT
10
14.3644
20
-35.4084
0
VERTEX
8
CUT
10
14.4796
20
-35.1022
0
VERTEX
8
CUT
10
14.5746
20
-34.7891
0
VERTEX
8
CUT
10
14.6489
20
-34.4705
0
VERTEX
8
CUT
10
14.7022
20
-34.1476
0
VERTEX
8
CUT
10
14.7343
20
-33.8220
0
VERTEX
8
CUT
10
14.7450
20
-33.4950
0
VERTEX
8
CUT
10
14.7450
20
5.3950
0
VERTEX
8
CUT
10
14.7343
20
5.7220
0
VERTEX
8
CUT
10
14.7022
20
6.0476
0
VERTEX
8
CUT
10
14.6489
20
6.3705
0
VERTEX
8
CUT
10
14.5746
20
6.6891
0
VERTEX
8
CUT
10
14.4796
20
7.0022
0
VERTEX
8
CUT
10
14.3644
20
7.3084
0
VERTEX
8
CUT
10
14.2294
20
7.6064
0
VERTEX
8
CUT
10
14.0751
20
7.8950
0
VERTEX
8
CUT
10
13.9023
20
8.1729
0
VERTEX
8
CUT
10
13.7118
20
8.4388
0
VERTEX
8
CUT
10
13.5042
20
8.6917
0
VERTEX
8
CUT
10
13.2805
20
8.9305
0
VERTEX
8
CUT
10
13.0417
20
9.1542
0
VERTEX
8
CUT
10
12.7888
20
9.3618
0
VERTEX
8
CUT
10
12.5229
20
9.5523
0
VERTEX
8
CUT
10
12.2450
20
9.7251
0
VERTEX
8
CUT
10
11.9564
20
9.8794
0
VERTEX
8
CUT
10
11.6584
20
10.0144
0
VERTEX
8
CUT
10
11.3522
20
10.1297
0
VERTEX
8
CUT
10
11.0391
20
10.2246
0
VERTEX
8
CUT
10
10.7205
20
10.2989
0
VERTEX
8
CUT
10
10.3976
20
10.3522
0
VERTEX
8
CUT
10
10.0720
20
10.3843
0
VERTEX
8
CUT
10
9.7450
20
10.3950
0
VERTEX
8
CUT
10
-3.1450
20
10.3950
0
VERTEX
8
CUT
10
-3.4720
20
10.3843
0
VERTEX
8
CUT
10
-3.7976
20
10.3522
0
VERTEX
8
CUT
10
-4.1205
20
10.2989
0
VERTEX
8
CUT
10
-4.4391
20
10.2246
0
VERTEX
8
CUT
10
-4.7522
20
10.1297
0
VERTEX
8
CUT
10
-5.0584
20
10.0144
0
VERTEX
8
CUT
10
-5.3564
20
9.8794
0
VERTEX
8
CUT
10
-5.6450
20
9.7251
0
VERTEX
8
CUT
10
-5.9229
20
9.5523
0
VERTEX
8
CUT
10
-6.1888
20
9.3618
0
VERTEX
8
CUT
10
-6.4417
20
9.1542
0
VERTEX
8
CUT
10
-6.6805
20
8.9305
0
VERTEX
8
CUT
10
-6.9042
20
8.6917
0
VERTEX
8
CUT
10
-7.1118
20
8.4388
0
VERTEX
8
CUT
10
-7.3023
20
8.1729
0
VERTEX
8
CUT
10
-7.4751
20
7.8950
0
VERTEX
8
CUT
10
-7.6294
20
7.6064
0
VERTEX
8
CUT
10
-7.7644
20
7.3084
0
VERTEX
8
CUT
10
-7.8797
20
7.0022
0
VERTEX
8
CUT
10
-7.9746
20
6.6891
0
VERTEX
8
CUT
10
-8.0489
20
6.3705
0
VERTEX
8
CUT
10
-8.1022
20
6.0476
0
VERTEX
8
CUT
10
-8.1343
20
5.7220
0
VERTEX
8
CUT
10
-8.1450
20
5.3950
0
VERTEX
8
CUT
10
-8.1450
20
-33.4950
0
VERTEX
8
CUT
10
-8.1343
20
-33.8220
0
VERTEX
8
CUT
10
-8.1022
20
-34.1476
0
VERTEX
8
CUT
10
-8.0489
20
-34.4705
0
VERTEX
8
CUT
10
-7.9746
20
-34.7891
0
VERTEX
8
CUT
10
-7.8797
20
-35.1022
0
VERTEX
8
CUT
10
-7.7644
20
-35.4084
0
VERTEX
8
CUT
10
-7.6294
20
-35.7064
0
VERTEX
8
CUT
10
-7.4751
20
-35.9950
0
VERTEX
8
CUT
10
-7.3023
20
-36.2729
0
VERTEX
8
CUT
10
-7.1118
20
-36.5388
0
VERTEX
8
CUT
10
-6.9042
20
-36.7917
0
VERTEX
8
CUT
10
-6.6805
20
-37.0305
0
VERTEX
8
CUT
10
-6.4417
20
-37.2542
0
VERTEX
8
CUT
10
-6.1888
20
-37.4618
0
VERTEX
8
CUT
10
-5.9229
20
-37.6523
0
VERTEX
8
CUT
10
-5.6450
20
-37.8251
0
VERTEX
8
CUT
10
-5.3564
20
-37.9794
0
VERTEX
8
CUT
10
-5.0584
20
-38.1144
0
VERTEX
8
CUT
10
-4.7522
20
-38.2297
0
VERTEX
8
CUT
10
-4.4391
20
-38.3246
0
VERTEX
8
CUT
10
-4.1205
20
-38.3989
0
VERTEX
8
CUT
10
-3.7976
20
-38.4522
0
VERTEX
8
CUT
10
-3.4720
20
-38.4843
0
VERTEX
8
CUT
10
-3.1450
20
-38.4950
0
VERTEX
8
CUT
10
9.7450
20
-38.4950
0
SEQEND
0
ENDSEC
0
EOF
