0
SECTION
2
HEADER
9
$INSUNITS
70
4
0
ENDSEC
0
SECTION
2
ENTITIES
0
POLYLINE
8
CUT
66
1
70
1
0
VERTEX
8
CUT
10
193.3925
20
-125.7732
0
VERTEX
8
CUT
10
194.2066
20
-125.6931
0
VERTEX
8
CUT
10
195.0136
20
-125.5598
0
VERTEX
8
CUT
10
195.8102
20
-125.3741
0
VERTEX
8
CUT
10
196.5930
20
-125.1366
0
VERTEX
8
CUT
10
197.3585
20
-124.8485
0
VERTEX
8
CUT
10
198.1036
20
-124.5109
0
VERTEX
8
CUT
10
198.8250
20
-124.1253
0
VERTEX
8
CUT
10
199.5196
20
-123.6934
0
VERTEX
8
CUT
10
200.1845
20
-123.2169
0
VERTEX
8
CUT
10
200.8168
20
-122.6980
0
VERTEX
8
CUT
10
201.4138
20
-122.1388
0
VERTEX
8
CUT
10
201.9730
20
-121.5418
0
VERTEX
8
CUT
10
202.4919
20
-120.9095
0
VERTEX
8
CUT
10
202.9684
20
-120.2446
0
VERTEX
8
CUT
10
203.4003
20
-119.5500
0
VERTEX
8
CUT
10
203.7859
20
-118.8286
0
VERTEX
8
CUT
10
204.1235
20
-118.0835
0
VERTEX
8
CUT
10
204.4116
20
-117.3180
0
VERTEX
8
CUT
10
204.6491
20
-116.5352
0
VERTEX
8
CUT
10
204.8348
20
-115.7386
0
VERTEX
8
CUT
10
204.9681
20
-114.9316
0
VERTEX
8
CUT
10
205.0482
20
-114.1175
0
VERTEX
8
CUT
10
205.0750
20
-113.3000
0
VERTEX
8
CUT
10
205.0750
20
4.0000
0
VERTEX
8
CUT
10
205.0482
20
4.8175
0
VERTEX
8
CUT
10
204.9681
20
5.6316
0
VERTEX
8
CUT
10
204.8348
20
6.4386
0
VERTEX
8
CUT
10
204.6491
20
7.2352
0
VERTEX
8
CUT
10
204.4116
20
8.0180
0
VERTEX
8
CUT
10
204.1235
20
8.7835
0
VERTEX
8
CUT
10
203.7859
20
9.5286
0
VERTEX
8
CUT
10
203.4003
20
10.2500
0
VERTEX
8
CUT
10
202.9684
20
10.9446
0
VERTEX
8
CUT
10
202.4919
20
11.6095
0
VERTEX
8
CUT
10
201.9730
20
12.2418
0
VERTEX
8
CUT
10
201.4138
20
12.8388
0
VERTEX
8
CUT
10
200.8168
20
13.3980
0
VERTEX
8
CUT
10
200.1845
20
13.9169
0
VERTEX
8
CUT
10
199.5196
20
14.3934
0
VERTEX
8
CUT
10
198.8250
20
14.8253
0
VERTEX
8
CUT
10
198.1036
20
15.2109
0
VERTEX
8
CUT
10
197.3585
20
15.5485
0
VERTEX
8
CUT
10
196.5930
20
15.8366
0
VERTEX
8
CUT
10
195.8102
20
16.0741
0
VERTEX
8
CUT
10
195.0136
20
16.2598
0
VERTEX
8
CUT
10
194.2066
20
16.3931
0
VERTEX
8
CUT
10
193.3925
20
16.4732
0
VERTEX
8
CUT
10
192.5750
20
16.5000
0
VERTEX
8
CUT
10
1.0000
20
16.5000
0
VERTEX
8
CUT
10
0.1825
20
16.4732
0
VERTEX
8
CUT
10
-0.6316
20
16.3931
0
VERTEX
8
CUT
10
-1.4386
20
16.2598
0
VERTEX
8
CUT
10
-2.2352
20
16.0741
0
VERTEX
8
CUT
10
-3.0180
20
15.8366
0
VERTEX
8
CUT
10
-3.7835
20
15.5485
0
VERTEX
8
CUT
10
-4.5286
20
15.2109
0
VERTEX
8
CUT
10
-5.2500
20
14.8253
0
VERTEX
8
CUT
10
-5.9446
20
14.3934
0
VERTEX
8
CUT
10
-6.6095
20
13.9169
0
VERTEX
8
CUT
10
-7.2418
20
13.3980
0
VERTEX
8
CUT
10
-7.8388
20
12.8388
0
VERTEX
8
CUT
10
-8.3980
20
12.2418
0
VERTEX
8
CUT
10
-8.9169
20
11.6095
0
VERTEX
8
CUT
10
-9.3934
20
10.9446
0
VERTEX
8
CUT
10
-9.8253
20
10.2500
0
VERTEX
8
CUT
10
-10.2109
20
9.5286
0
VERTEX
8
CUT
10
-10.5485
20
8.7835
0
VERTEX
8
CUT
10
-10.8366
20
8.0180
0
VERTEX
8
CUT
10
-11.0741
20
7.2352
0
VERTEX
8
CUT
10
-11.2598
20
6.4386
0
VERTEX
8
CUT
10
-11.3931
20
5.6316
0
VERTEX
8
CUT
10
-11.4732
20
4.8175
0
VERTEX
8
CUT
10
-11.5000
20
4.0000
0
VERTEX
8
CUT
10
-11.5000
20
-113.3000
0
VERTEX
8
CUT
10
-11.4732
20
-114.1175
0
VERTEX
8
CUT
10
-11.3931
20
-114.9316
0
VERTEX
8
CUT
10
-11.2598
20
-115.7386
0
VERTEX
8
CUT
10
-11.0741
20
-116.5352
0
VERTEX
8
CUT
10
-10.8366
20
-117.3180
0
VERTEX
8
CUT
10
-10.5485
20
-118.0835
0
VERTEX
8
CUT
10
-10.2109
20
-118.8286
0
VERTEX
8
CUT
10
-9.8253
20
-119.5500
0
VERTEX
8
CUT
10
-9.3934
20
-120.2446
0
VERTEX
8
CUT
10
-8.9169
20
-120.9095
0
VERTEX
8
CUT
10
-8.3980
20
-121.5418
0
VERTEX
8
CUT
10
-7.8388
20
-122.1388
0
VERTEX
8
CUT
10
-7.2418
20
-122.6980
0
VERTEX
8
CUT
10
-6.6095
20
-123.2169
0
VERTEX
8
CUT
10
-5.9446
20
-123.6934
0
VERTEX
8
CUT
10
-5.2500
20
-124.1253
0
VERTEX
8
CUT
10
-4.5286
20
-124.5109
0
VERTEX
8
CUT
10
-3.7835
20
-124.8485
0
VERTEX
8
CUT
10
-3.0180
20
-125.1366
0
VERTEX
8
CUT
10
-2.2352
20
-125.3741
0
VERTEX
8
CUT
10
-1.4386
20
-125.5598
0
VERTEX
8
CUT
10
-0.6316
20
-125.6931
0
VERTEX
8
CUT
10
0.1825
20
-125.7732
0
VERTEX
8
CUT
10
1.0000
20
-125.8000
0
VERTEX
8
CUT
10
192.5750
20
-125.8000
0
SEQEND
0
POLYLINE
8
CUT
66
1
70
1
0
VERTEX
8
CUT
10
44.5718
20
11.4024
0
VERTEX
8
CUT
10
44.5002
20
11.4094
0
VERTEX
8
CUT
10
44.4292
20
11.4211
0
VERTEX
8
CUT
10
44.3590
20
11.4375
0
VERTEX
8
CUT
10
44.2902
20
11.4584
0
VERTEX
8
CUT
10
44.2228
20
11.4837
0
VERTEX
8
CUT
10
44.1572
20
11.5134
0
VERTEX
8
CUT
10
44.0938
20
11.5474
0
VERTEX
8
CUT
10
44.0326
20
11.5854
0
VERTEX
8
CUT
10
43.9741
20
11.6273
0
VERTEX
8
CUT
10
43.9185
20
11.6730
0
VERTEX
8
CUT
10
43.8659
20
11.7222
0
VERTEX
8
CUT
10
43.8167
20
11.7747
0
VERTEX
8
CUT
10
43.7711
20
11.8304
0
VERTEX
8
CUT
10
43.7291
20
11.8889
0
VERTEX
8
CUT
10
43.6911
20
11.9500
0
VERTEX
8
CUT
10
43.6572
20
12.0135
0
VERTEX
8
CUT
10
43.6275
20
12.0790
0
VERTEX
8
CUT
10
43.6021
20
12.1464
0
VERTEX
8
CUT
10
43.5812
20
12.2153
0
VERTEX
8
CUT
10
43.5649
20
12.2854
0
VERTEX
8
CUT
10
43.5532
20
12.3564
0
VERTEX
8
CUT
10
43.5461
20
12.4281
0
VERTEX
8
CUT
10
43.5438
20
12.5000
0
VERTEX
8
CUT
10
43.5461
20
12.5719
0
VERTEX
8
CUT
10
43.5532
20
12.6436
0
VERTEX
8
CUT
10
43.5649
20
12.7146
0
VERTEX
8
CUT
10
43.5812
20
12.7847
0
VERTEX
8
CUT
10
43.6021
20
12.8536
0
VERTEX
8
CUT
10
43.6275
20
12.9210
0
VERTEX
8
CUT
10
43.6572
20
12.9865
0
VERTEX
8
CUT
10
43.6911
20
13.0500
0
VERTEX
8
CUT
10
43.7291
20
13.1111
0
VERTEX
8
CUT
10
43.7711
20
13.1696
0
VERTEX
8
CUT
10
43.8167
20
13.2253
0
VERTEX
8
CUT
10
43.8659
20
13.2778
0
VERTEX
8
CUT
10
43.9185
20
13.3270
0
VERTEX
8
CUT
10
43.9741
20
13.3727
0
VERTEX
8
CUT
10
44.0326
20
13.4146
0
VERTEX
8
CUT
10
44.0938
20
13.4526
0
VERTEX
8
CUT
10
44.1572
20
13.4866
0
VERTEX
8
CUT
10
44.2228
20
13.5163
0
VERTEX
8
CUT
10
44.2902
20
13.5416
0
VERTEX
8
CUT
10
44.3590
20
13.5625
0
VERTEX
8
CUT
10
44.4292
20
13.5789
0
VERTEX
8
CUT
10
44.5002
20
13.5906
0
VERTEX
8
CUT
10
44.5718
20
13.5976
0
VERTEX
8
CUT
10
44.6437
20
13.6000
0
VERTEX
8
CUT
10
44.7157
20
13.5976
0
VERTEX
8
CUT
10
44.7873
20
13.5906
0
VERTEX
8
CUT
10
44.8583
20
13.5789
0
VERTEX
8
CUT
10
44.9285
20
13.5625
0
VERTEX
8
CUT
10
44.9973
20
13.5416
0
VERTEX
8
CUT
10
45.0647
20
13.5163
0
VERTEX
8
CUT
10
45.1303
20
13.4866
0
VERTEX
8
CUT
10
45.1938
20
13.4526
0
VERTEX
8
CUT
10
45.2549
20
13.4146
0
VERTEX
8
CUT
10
45.3134
20
13.3727
0
VERTEX
8
CUT
10
45.3690
20
13.3270
0
VERTEX
8
CUT
10
45.4216
20
13.2778
0
VERTEX
8
CUT
10
45.4708
20
13.2253
0
VERTEX
8
CUT
10
45.5164
20
13.1696
0
VERTEX
8
CUT
10
45.5584
20
13.1111
0
VERTEX
8
CUT
10
45.5964
20
13.0500
0
VERTEX
8
CUT
10
45.6303
20
12.9865
0
VERTEX
8
CUT
10
45.6600
20
12.9210
0
VERTEX
8
CUT
10
45.6854
20
12.8536
0
VERTEX
8
CUT
10
45.7063
20
12.7847
0
VERTEX
8
CUT
10
45.7226
20
12.7146
0
VERTEX
8
CUT
10
45.7343
20
12.6436
0
VERTEX
8
CUT
10
45.7414
20
12.5719
0
VERTEX
8
CUT
10
45.7437
20
12.5000
0
VERTEX
8
CUT
10
45.7414
20
12.4281
0
VERTEX
8
CUT
10
45.7343
20
12.3564
0
VERTEX
8
CUT
10
45.7226
20
12.2854
0
VERTEX
8
CUT
10
45.7063
20
12.2153
0
VERTEX
8
CUT
10
45.6854
20
12.1464
0
VERTEX
8
CUT
10
45.6600
20
12.0790
0
VERTEX
8
CUT
10
45.6303
20
12.0135
0
VERTEX
8
CUT
10
45.5964
20
11.9500
0
VERTEX
8
CUT
10
45.5584
20
11.8889
0
VERTEX
8
CUT
10
45.5164
20
11.8304
0
VERTEX
8
CUT
10
45.4708
20
11.7747
0
VERTEX
8
CUT
10
45.4216
20
11.7222
0
VERTEX
8
CUT
10
45.3690
20
11.6730
0
VERTEX
8
CUT
10
45.3134
20
11.6273
0
VERTEX
8
CUT
10
45.2549
20
11.5854
0
VERTEX
8
CUT
10
45.1938
20
11.5474
0
VERTEX
8
CUT
10
45.1303
20
11.5134
0
VERTEX
8
CUT
10
45.0647
20
11.4837
0
VERTEX
8
CUT
10
44.9973
20
11.4584
0
VERTEX
8
CUT
10
44.9285
20
11.4375
0
VERTEX
8
CUT
10
44.8583
20
11.4211
0
VERTEX
8
CUT
10
44.7873
20
11.4094
0
VERTEX
8
CUT
10
44.7157
20
11.4024
0
VERTEX
8
CUT
10
44.6437
20
11.4000
0
SEQEND
0
POLYLINE
8
CUT
66
1
70
1
0
VERTEX
8
CUT
10
96.7156
20
11.4024
0
VERTEX
8
CUT
10
96.6439
20
11.4094
0
VERTEX
8
CUT
10
96.5729
20
11.4211
0
VERTEX
8
CUT
10
96.5028
20
11.4375
0
VERTEX
8
CUT
10
96.4339
20
11.4584
0
VERTEX
8
CUT
10
96.3665
20
11.4837
0
VERTEX
8
CUT
10
96.3010
20
11.5134
0
VERTEX
8
CUT
10
96.2375
20
11.5474
0
VERTEX
8
CUT
10
96.1764
20
11.5854
0
VERTEX
8
CUT
10
96.1179
20
11.6273
0
VERTEX
8
CUT
10
96.0622
20
11.6730
0
VERTEX
8
CUT
10
96.0097
20
11.7222
0
VERTEX
8
CUT
10
95.9605
20
11.7747
0
VERTEX
8
CUT
10
95.9148
20
11.8304
0
VERTEX
8
CUT
10
95.8729
20
11.8889
0
VERTEX
8
CUT
10
95.8349
20
11.9500
0
VERTEX
8
CUT
10
95.8009
20
12.0135
0
VERTEX
8
CUT
10
95.7712
20
12.0790
0
VERTEX
8
CUT
10
95.7459
20
12.1464
0
VERTEX
8
CUT
10
95.7250
20
12.2153
0
VERTEX
8
CUT
10
95.7086
20
12.2854
0
VERTEX
8
CUT
10
95.6969
20
12.3564
0
VERTEX
8
CUT
10
95.6899
20
12.4281
0
VERTEX
8
CUT
10
95.6875
20
12.5000
0
VERTEX
8
CUT
10
95.6899
20
12.5719
0
VERTEX
8
CUT
10
95.6969
20
12.6436
0
VERTEX
8
CUT
10
95.7086
20
12.7146
0
VERTEX
8
CUT
10
95.7250
20
12.7847
0
VERTEX
8
CUT
10
95.7459
20
12.8536
0
VERTEX
8
CUT
10
95.7712
20
12.9210
0
VERTEX
8
CUT
10
95.8009
20
12.9865
0
VERTEX
8
CUT
10
95.8349
20
13.0500
0
VERTEX
8
CUT
10
95.8729
20
13.1111
0
VERTEX
8
CUT
10
95.9148
20
13.1696
0
VERTEX
8
CUT
10
95.9605
20
13.2253
0
VERTEX
8
CUT
10
96.0097
20
13.2778
0
VERTEX
8
CUT
10
96.0622
20
13.3270
0
VERTEX
8
CUT
10
96.1179
20
13.3727
0
VERTEX
8
CUT
10
96.1764
20
13.4146
0
VERTEX
8
CUT
10
96.2375
20
13.4526
0
VERTEX
8
CUT
10
96.3010
20
13.4866
0
VERTEX
8
CUT
10
96.3665
20
13.5163
0
VERTEX
8
CUT
10
96.4339
20
13.5416
0
VERTEX
8
CUT
10
96.5028
20
13.5625
0
VERTEX
8
CUT
10
96.5729
20
13.5789
0
VERTEX
8
CUT
10
96.6439
20
13.5906
0
VERTEX
8
CUT
10
96.7156
20
13.5976
0
VERTEX
8
CUT
10
96.7875
20
13.6000
0
VERTEX
8
CUT
10
96.8594
20
13.5976
0
VERTEX
8
CUT
10
96.9311
20
13.5906
0
VERTEX
8
CUT
10
97.0021
20
13.5789
0
VERTEX
8
CUT
10
97.0722
20
13.5625
0
VERTEX
8
CUT
10
97.1411
20
13.5416
0
VERTEX
8
CUT
10
97.2085
20
13.5163
0
VERTEX
8
CUT
10
97.2740
20
13.4866
0
VERTEX
8
CUT
10
97.3375
20
13.4526
0
VERTEX
8
CUT
10
97.3986
20
13.4146
0
VERTEX
8
CUT
10
97.4571
20
13.3727
0
VERTEX
8
CUT
10
97.5128
20
13.3270
0
VERTEX
8
CUT
10
97.5653
20
13.2778
0
VERTEX
8
CUT
10
97.6145
20
13.2253
0
VERTEX
8
CUT
10
97.6602
20
13.1696
0
VERTEX
8
CUT
10
97.7021
20
13.1111
0
VERTEX
8
CUT
10
97.7401
20
13.0500
0
VERTEX
8
CUT
10
97.7741
20
12.9865
0
VERTEX
8
CUT
10
97.8038
20
12.9210
0
VERTEX
8
CUT
10
97.8291
20
12.8536
0
VERTEX
8
CUT
10
97.8500
20
12.7847
0
VERTEX
8
CUT
10
97.8664
20
12.7146
0
VERTEX
8
CUT
10
97.8781
20
12.6436
0
VERTEX
8
CUT
10
97.8851
20
12.5719
0
VERTEX
8
CUT
10
97.8875
20
12.5000
0
VERTEX
8
CUT
10
97.8851
20
12.4281
0
VERTEX
8
CUT
10
97.8781
20
12.3564
0
VERTEX
8
CUT
10
97.8664
20
12.2854
0
VERTEX
8
CUT
10
97.8500
20
12.2153
0
VERTEX
8
CUT
10
97.8291
20
12.1464
0
VERTEX
8
CUT
10
97.8038
20
12.0790
0
VERTEX
8
CUT
10
97.7741
20
12.0135
0
VERTEX
8
CUT
10
97.7401
20
11.9500
0
VERTEX
8
CUT
10
97.7021
20
11.8889
0
VERTEX
8
CUT
10
97.6602
20
11.8304
0
VERTEX
8
CUT
10
97.6145
20
11.7747
0
VERTEX
8
CUT
10
97.5653
20
11.7222
0
VERTEX
8
CUT
10
97.5128
20
11.6730
0
VERTEX
8
CUT
10
97.4571
20
11.6273
0
VERTEX
8
CUT
10
97.3986
20
11.5854
0
VERTEX
8
CUT
10
97.3375
20
11.5474
0
VERTEX
8
CUT
10
97.2740
20
11.5134
0
VERTEX
8
CUT
10
97.2085
20
11.4837
0
VERTEX
8
CUT
10
97.1411
20
11.4584
0
VERTEX
8
CUT
10
97.0722
20
11.4375
0
VERTEX
8
CUT
10
97.0021
20
11.4211
0
VERTEX
8
CUT
10
96.9311
20
11.4094
0
VERTEX
8
CUT
10
96.8594
20
11.4024
0
VERTEX
8
CUT
10
96.7875
20
11.4000
0
SEQEND
0
POLYLINE
8
CUT
66
1
70
1
0
VERTEX
8
CUT
10
148.8593
20
11.4024
0
VERTEX
8
CUT
10
148.7877
20
11.4094
0
VERTEX
8
CUT
10
148.7167
20
11.4211
0
VERTEX
8
CUT
10
148.6465
20
11.4375
0
VERTEX
8
CUT
10
148.5777
20
11.4584
0
VERTEX
8
CUT
10
148.5103
20
11.4837
0
VERTEX
8
CUT
10
148.4447
20
11.5134
0
VERTEX
8
CUT
10
148.3813
20
11.5474
0
VERTEX
8
CUT
10
148.3201
20
11.5854
0
VERTEX
8
CUT
10
148.2616
20
11.6273
0
VERTEX
8
CUT
10
148.2060
20
11.6730
0
VERTEX
8
CUT
10
148.1534
20
11.7222
0
VERTEX
8
CUT
10
148.1042
20
11.7747
0
VERTEX
8
CUT
10
148.0586
20
11.8304
0
VERTEX
8
CUT
10
148.0166
20
11.8889
0
VERTEX
8
CUT
10
147.9786
20
11.9500
0
VERTEX
8
CUT
10
147.9447
20
12.0135
0
VERTEX
8
CUT
10
147.9150
20
12.0790
0
VERTEX
8
CUT
10
147.8896
20
12.1464
0
VERTEX
8
CUT
10
147.8687
20
12.2153
0
VERTEX
8
CUT
10
147.8524
20
12.2854
0
VERTEX
8
CUT
10
147.8407
20
12.3564
0
VERTEX
8
CUT
10
147.8336
20
12.4281
0
VERTEX
8
CUT
10
147.8312
20
12.5000
0
VERTEX
8
CUT
10
147.8336
20
12.5719
0
VERTEX
8
CUT
10
147.8407
20
12.6436
0
VERTEX
8
CUT
10
147.8524
20
12.7146
0
VERTEX
8
CUT
10
147.8687
20
12.7847
0
VERTEX
8
CUT
10
147.8896
20
12.8536
0
VERTEX
8
CUT
10
147.9150
20
12.9210
0
VERTEX
8
CUT
10
147.9447
20
12.9865
0
VERTEX
8
CUT
10
147.9786
20
13.0500
0
VERTEX
8
CUT
10
148.0166
20
13.1111
0
VERTEX
8
CUT
10
148.0586
20
13.1696
0
VERTEX
8
CUT
10
148.1042
20
13.2253
0
VERTEX
8
CUT
10
148.1534
20
13.2778
0
VERTEX
8
CUT
10
148.2060
20
13.3270
0
VERTEX
8
CUT
10
148.2616
20
13.3727
0
VERTEX
8
CUT
10
148.3201
20
13.4146
0
VERTEX
8
CUT
10
148.3813
20
13.4526
0
VERTEX
8
CUT
10
148.4447
20
13.4866
0
VERTEX
8
CUT
10
148.5103
20
13.5163
0
VERTEX
8
CUT
10
148.5777
20
13.5416
0
VERTEX
8
CUT
10
148.6465
20
13.5625
0
VERTEX
8
CUT
10
148.7167
20
13.5789
0
VERTEX
8
CUT
10
148.7877
20
13.5906
0
VERTEX
8
CUT
10
148.8593
20
13.5976
0
VERTEX
8
CUT
10
148.9312
20
13.6000
0
VERTEX
8
CUT
10
149.0032
20
13.5976
0
VERTEX
8
CUT
10
149.0748
20
13.5906
0
VERTEX
8
CUT
10
149.1458
20
13.5789
0
VERTEX
8
CUT
10
149.2160
20
13.5625
0
VERTEX
8
CUT
10
149.2848
20
13.5416
0
VERTEX
8
CUT
10
149.3522
20
13.5163
0
VERTEX
8
CUT
10
149.4178
20
13.4866
0
VERTEX
8
CUT
10
149.4813
20
13.4526
0
VERTEX
8
CUT
10
149.5424
20
13.4146
0
VERTEX
8
CUT
10
149.6009
20
13.3727
0
VERTEX
8
CUT
10
149.6565
20
13.3270
0
VERTEX
8
CUT
10
149.7091
20
13.2778
0
VERTEX
8
CUT
10
149.7583
20
13.2253
0
VERTEX
8
CUT
10
149.8039
20
13.1696
0
VERTEX
8
CUT
10
149.8459
20
13.1111
0
VERTEX
8
CUT
10
149.8839
20
13.0500
0
VERTEX
8
CUT
10
149.9178
20
12.9865
0
VERTEX
8
CUT
10
149.9475
20
12.9210
0
VERTEX
8
CUT
10
149.9729
20
12.8536
0
VERTEX
8
CUT
10
149.9938
20
12.7847
0
VERTEX
8
CUT
10
150.0101
20
12.7146
0
VERTEX
8
CUT
10
150.0218
20
12.6436
0
VERTEX
8
CUT
10
150.0289
20
12.5719
0
VERTEX
8
CUT
10
150.0312
20
12.5000
0
VERTEX
8
CUT
10
150.0289
20
12.4281
0
VERTEX
8
CUT
10
150.0218
20
12.3564
0
VERTEX
8
CUT
10
150.0101
20
12.2854
0
VERTEX
8
CUT
10
149.9938
20
12.2153
0
VERTEX
8
CUT
10
149.9729
20
12.1464
0
VERTEX
8
CUT
10
149.9475
20
12.0790
0
VERTEX
8
CUT
10
149.9178
20
12.0135
0
VERTEX
8
CUT
10
149.8839
20
11.9500
0
VERTEX
8
CUT
10
149.8459
20
11.8889
0
VERTEX
8
CUT
10
149.8039
20
11.8304
0
VERTEX
8
CUT
10
149.7583
20
11.7747
0
VERTEX
8
CUT
10
149.7091
20
11.7222
0
VERTEX
8
CUT
10
149.6565
20
11.6730
0
VERTEX
8
CUT
10
149.6009
20
11.6273
0
VERTEX
8
CUT
10
149.5424
20
11.5854
0
VERTEX
8
CUT
10
149.4813
20
11.5474
0
VERTEX
8
CUT
10
149.4178
20
11.5134
0
VERTEX
8
CUT
10
149.3522
20
11.4837
0
VERTEX
8
CUT
10
149.2848
20
11.4584
0
VERTEX
8
CUT
10
149.2160
20
11.4375
0
VERTEX
8
CUT
10
149.1458
20
11.4211
0
VERTEX
8
CUT
10
149.0748
20
11.4094
0
VERTEX
8
CUT
10
149.0032
20
11.4024
0
VERTEX
8
CUT
10
148.9312
20
11.4000
0
SEQEND
0
POLYLINE
8
CUT
66
1
70
1
0
VERTEX
8
CUT
10
174.3593
20
11.4024
0
VERTEX
8
CUT
10
174.2876
20
11.4094
0
VERTEX
8
CUT
10
174.2166
20
11.4211
0
VERTEX
8
CUT
10
174.1465
20
11.4375
0
VERTEX
8
CUT
10
174.0776
20
11.4584
0
VERTEX
8
CUT
10
174.0102
20
11.4837
0
VERTEX
8
CUT
10
173.9447
20
11.5134
0
VERTEX
8
CUT
10
173.8812
20
11.5474
0
VERTEX
8
CUT
10
173.8201
20
11.5854
0
VERTEX
8
CUT
10
173.7616
20
11.6273
0
VERTEX
8
CUT
10
173.7059
20
11.6730
0
VERTEX
8
CUT
10
173.6534
20
11.7222
0
VERTEX
8
CUT
10
173.6042
20
11.7747
0
VERTEX
8
CUT
10
173.5585
20
11.8304
0
VERTEX
8
CUT
10
173.5166
20
11.8889
0
VERTEX
8
CUT
10
173.4786
20
11.9500
0
VERTEX
8
CUT
10
173.4446
20
12.0135
0
VERTEX
8
CUT
10
173.4149
20
12.0790
0
VERTEX
8
CUT
10
173.3896
20
12.1464
0
VERTEX
8
CUT
10
173.3687
20
12.2153
0
VERTEX
8
CUT
10
173.3523
20
12.2854
0
VERTEX
8
CUT
10
173.3406
20
12.3564
0
VERTEX
8
CUT
10
173.3336
20
12.4281
0
VERTEX
8
CUT
10
173.3312
20
12.5000
0
VERTEX
8
CUT
10
173.3336
20
12.5719
0
VERTEX
8
CUT
10
173.3406
20
12.6436
0
VERTEX
8
CUT
10
173.3523
20
12.7146
0
VERTEX
8
CUT
10
173.3687
20
12.7847
0
VERTEX
8
CUT
10
173.3896
20
12.8536
0
VERTEX
8
CUT
10
173.4149
20
12.9210
0
VERTEX
8
CUT
10
173.4446
20
12.9865
0
VERTEX
8
CUT
10
173.4786
20
13.0500
0
VERTEX
8
CUT
10
173.5166
20
13.1111
0
VERTEX
8
CUT
10
173.5585
20
13.1696
0
VERTEX
8
CUT
10
173.6042
20
13.2253
0
VERTEX
8
CUT
10
173.6534
20
13.2778
0
VERTEX
8
CUT
10
173.7059
20
13.3270
0
VERTEX
8
CUT
10
173.7616
20
13.3727
0
VERTEX
8
CUT
10
173.8201
20
13.4146
0
VERTEX
8
CUT
10
173.8812
20
13.4526
0
VERTEX
8
CUT
10
173.9447
20
13.4866
0
VERTEX
8
CUT
10
174.0102
20
13.5163
0
VERTEX
8
CUT
10
174.0776
20
13.5416
0
VERTEX
8
CUT
10
174.1465
20
13.5625
0
VERTEX
8
CUT
10
174.2166
20
13.5789
0
VERTEX
8
CUT
10
174.2876
20
13.5906
0
VERTEX
8
CUT
10
174.3593
20
13.5976
0
VERTEX
8
CUT
10
174.4312
20
13.6000
0
VERTEX
8
CUT
10
174.5031
20
13.5976
0
VERTEX
8
CUT
10
174.5748
20
13.5906
0
VERTEX
8
CUT
10
174.6458
20
13.5789
0
VERTEX
8
CUT
10
174.7159
20
13.5625
0
VERTEX
8
CUT
10
174.7848
20
13.5416
0
VERTEX
8
CUT
10
174.8521
20
13.5163
0
VERTEX
8
CUT
10
174.9177
20
13.4866
0
VERTEX
8
CUT
10
174.9812
20
13.4526
0
VERTEX
8
CUT
10
175.0423
20
13.4146
0
VERTEX
8
CUT
10
175.1008
20
13.3727
0
VERTEX
8
CUT
10
175.1565
20
13.3270
0
VERTEX
8
CUT
10
175.2090
20
13.2778
0
VERTEX
8
CUT
10
175.2582
20
13.2253
0
VERTEX
8
CUT
10
175.3039
20
13.1696
0
VERTEX
8
CUT
10
175.3458
20
13.1111
0
VERTEX
8
CUT
10
175.3838
20
13.0500
0
VERTEX
8
CUT
10
175.4178
20
12.9865
0
VERTEX
8
CUT
10
175.4475
20
12.9210
0
VERTEX
8
CUT
10
175.4728
20
12.8536
0
VERTEX
8
CUT
10
175.4937
20
12.7847
0
VERTEX
8
CUT
10
175.5101
20
12.7146
0
VERTEX
8
CUT
10
175.5218
20
12.6436
0
VERTEX
8
CUT
10
175.5288
20
12.5719
0
VERTEX
8
CUT
10
175.5312
20
12.5000
0
VERTEX
8
CUT
10
175.5288
20
12.4281
0
VERTEX
8
CUT
10
175.5218
20
12.3564
0
VERTEX
8
CUT
10
175.5101
20
12.2854
0
VERTEX
8
CUT
10
175.4937
20
12.2153
0
VERTEX
8
CUT
10
175.4728
20
12.1464
0
VERTEX
8
CUT
10
175.4475
20
12.0790
0
VERTEX
8
CUT
10
175.4178
20
12.0135
0
VERTEX
8
CUT
10
175.3838
20
11.9500
0
VERTEX
8
CUT
10
175.3458
20
11.8889
0
VERTEX
8
CUT
10
175.3039
20
11.8304
0
VERTEX
8
CUT
10
175.2582
20
11.7747
0
VERTEX
8
CUT
10
175.2090
20
11.7222
0
VERTEX
8
CUT
10
175.1565
20
11.6730
0
VERTEX
8
CUT
10
175.1008
20
11.6273
0
VERTEX
8
CUT
10
175.0423
20
11.5854
0
VERTEX
8
CUT
10
174.9812
20
11.5474
0
VERTEX
8
CUT
10
174.9177
20
11.5134
0
VERTEX
8
CUT
10
174.8521
20
11.4837
0
VERTEX
8
CUT
10
174.7848
20
11.4584
0
VERTEX
8
CUT
10
174.7159
20
11.4375
0
VERTEX
8
CUT
10
174.6458
20
11.4211
0
VERTEX
8
CUT
10
174.5748
20
11.4094
0
VERTEX
8
CUT
10
174.5031
20
11.4024
0
VERTEX
8
CUT
10
174.4312
20
11.4000
0
SEQEND
0
POLYLINE
8
CUT
66
1
70
1
0
VERTEX
8
CUT
10
0.7057
20
-117.7904
0
VERTEX
8
CUT
10
0.4126
20
-117.7615
0
VERTEX
8
CUT
10
0.1221
20
-117.7135
0
VERTEX
8
CUT
10
-0.1647
20
-117.6467
0
VERTEX
8
CUT
10
-0.4465
20
-117.5612
0
VERTEX
8
CUT
10
-0.7221
20
-117.4575
0
VERTEX
8
CUT
10
-0.9903
20
-117.3359
0
VERTEX
8
CUT
10
-1.2500
20
-117.1971
0
VERTEX
8
CUT
10
-1.5001
20
-117.0416
0
VERTEX
8
CUT
10
-1.7394
20
-116.8701
0
VERTEX
8
CUT
10
-1.9671
20
-116.6833
0
VERTEX
8
CUT
10
-2.1820
20
-116.4820
0
VERTEX
8
CUT
10
-2.3833
20
-116.2671
0
VERTEX
8
CUT
10
-2.5701
20
-116.0394
0
VERTEX
8
CUT
10
-2.7416
20
-115.8001
0
VERTEX
8
CUT
10
-2.8971
20
-115.5500
0
VERTEX
8
CUT
10
-3.0359
20
-115.2903
0
VERTEX
8
CUT
10
-3.1575
20
-115.0221
0
VERTEX
8
CUT
10
-3.2612
20
-114.7465
0
VERTEX
8
CUT
10
-3.3467
20
-114.4647
0
VERTEX
8
CUT
10
-3.4135
20
-114.1779
0
VERTEX
8
CUT
10
-3.4615
20
-113.8874
0
VERTEX
8
CUT
10
-3.4904
20
-113.5943
0
VERTEX
8
CUT
10
-3.5000
20
-113.3000
0
VERTEX
8
CUT
10
-3.5000
20
4.0000
0
VERTEX
8
CUT
10
-3.4904
20
4.2943
0
VERTEX
8
CUT
10
-3.4615
20
4.5874
0
VERTEX
8
CUT
10
-3.4135
20
4.8779
0
VERTEX
8
CUT
10
-3.3467
20
5.1647
0
VERTEX
8
CUT
10
-3.2612
20
5.4465
0
VERTEX
8
CUT
10
-3.1575
20
5.7221
0
VERTEX
8
CUT
10
-3.0359
20
5.9903
0
VERTEX
8
CUT
10
-2.8971
20
6.2500
0
VERTEX
8
CUT
10
-2.7416
20
6.5001
0
VERTEX
8
CUT
10
-2.5701
20
6.7394
0
VERTEX
8
CUT
10
-2.3833
20
6.9671
0
VERTEX
8
CUT
10
-2.1820
20
7.1820
0
VERTEX
8
CUT
10
-1.9671
20
7.3833
0
VERTEX
8
CUT
10
-1.7394
20
7.5701
0
VERTEX
8
CUT
10
-1.5001
20
7.7416
0
VERTEX
8
CUT
10
-1.2500
20
7.8971
0
VERTEX
8
CUT
10
-0.9903
20
8.0359
0
VERTEX
8
CUT
10
-0.7221
20
8.1575
0
VERTEX
8
CUT
10
-0.4465
20
8.2612
0
VERTEX
8
CUT
10
-0.1647
20
8.3467
0
VERTEX
8
CUT
10
0.1221
20
8.4135
0
VERTEX
8
CUT
10
0.4126
20
8.4615
0
VERTEX
8
CUT
10
0.7057
20
8.4904
0
VERTEX
8
CUT
10
1.0000
20
8.5000
0
VERTEX
8
CUT
10
192.5750
20
8.5000
0
VERTEX
8
CUT
10
192.8693
20
8.4904
0
VERTEX
8
CUT
10
193.1624
20
8.4615
0
VERTEX
8
CUT
10
193.4529
20
8.4135
0
VERTEX
8
CUT
10
193.7397
20
8.3467
0
VERTEX
8
CUT
10
194.0215
20
8.2612
0
VERTEX
8
CUT
10
194.2971
20
8.1575
0
VERTEX
8
CUT
10
194.5653
20
8.0359
0
VERTEX
8
CUT
10
194.8250
20
7.8971
0
VERTEX
8
CUT
10
195.0751
20
7.7416
0
VERTEX
8
CUT
10
195.3144
20
7.5701
0
VERTEX
8
CUT
10
195.5421
20
7.3833
0
VERTEX
8
CUT
10
195.7570
20
7.1820
0
VERTEX
8
CUT
10
195.9583
20
6.9671
0
VERTEX
8
CUT
10
196.1451
20
6.7394
0
VERTEX
8
CUT
10
196.3166
20
6.5001
0
VERTEX
8
CUT
10
196.4721
20
6.2500
0
VERTEX
8
CUT
10
196.6109
20
5.9903
0
VERTEX
8
CUT
10
196.7325
20
5.7221
0
VERTEX
8
CUT
10
196.8362
20
5.4465
0
VERTEX
8
CUT
10
196.9217
20
5.1647
0
VERTEX
8
CUT
10
196.9885
20
4.8779
0
VERTEX
8
CUT
10
197.0365
20
4.5874
0
VERTEX
8
CUT
10
197.0654
20
4.2943
0
VERTEX
8
CUT
10
197.0750
20
4.0000
0
VERTEX
8
CUT
10
197.0750
20
-113.3000
0
VERTEX
8
CUT
10
197.0654
20
-113.5943
0
VERTEX
8
CUT
10
197.0365
20
-113.8874
0
VERTEX
8
CUT
10
196.9885
20
-114.1779
0
VERTEX
8
CUT
10
196.9217
20
-114.4647
0
VERTEX
8
CUT
10
196.8362
20
-114.7465
0
VERTEX
8
CUT
10
196.7325
20
-115.0221
0
VERTEX
8
CUT
10
196.6109
20
-115.2903
0
VERTEX
8
CUT
10
196.4721
20
-115.5500
0
VERTEX
8
CUT
10
196.3166
20
-115.8001
0
VERTEX
8
CUT
10
196.1451
20
-116.0394
0
VERTEX
8
CUT
10
195.9583
20
-116.2671
0
VERTEX
8
CUT
10
195.7570
20
-116.4820
0
VERTEX
8
CUT
10
195.5421
20
-116.6833
0
VERTEX
8
CUT
10
195.3144
20
-116.8701
0
VERTEX
8
CUT
10
195.0751
20
-117.0416
0
VERTEX
8
CUT
10
194.8250
20
-117.1971
0
VERTEX
8
CUT
10
194.5653
20
-117.3359
0
VERTEX
8
CUT
10
194.2971
20
-117.4575
0
VERTEX
8
CUT
10
194.0215
20
-117.5612
0
VERTEX
8
CUT
10
193.7397
20
-117.6467
0
VERTEX
8
CUT
10
193.4529
20
-117.7135
0
VERTEX
8
CUT
10
193.1624
20
-117.7615
0
VERTEX
8
CUT
10
192.8693
20
-117.7904
0
VERTEX
8
CUT
10
192.5750
20
-117.8000
0
VERTEX
8
CUT
10
1.0000
20
-117.8000
0
SEQEND
0
POLYLINE
8
CUT
66
1
70
1
0
VERTEX
8
CUT
10
201.0031
20
-15.2414
0
VERTEX
8
CUT
10
200.9314
20
-15.2344
0
VERTEX
8
CUT
10
200.8604
20
-15.2227
0
VERTEX
8
CUT
10
200.7903
20
-15.2063
0
VERTEX
8
CUT
10
200.7214
20
-15.1854
0
VERTEX
8
CUT
10
200.6540
20
-15.1601
0
VERTEX
8
CUT
10
200.5885
20
-15.1304
0
VERTEX
8
CUT
10
200.5250
20
-15.0964
0
VERTEX
8
CUT
10
200.4639
20
-15.0584
0
VERTEX
8
CUT
10
200.4054
20
-15.0165
0
VERTEX
8
CUT
10
200.3497
20
-14.9708
0
VERTEX
8
CUT
10
200.2972
20
-14.9216
0
VERTEX
8
CUT
10
200.2480
20
-14.8691
0
VERTEX
8
CUT
10
200.2023
20
-14.8134
0
VERTEX
8
CUT
10
200.1604
20
-14.7549
0
VERTEX
8
CUT
10
200.1224
20
-14.6938
0
VERTEX
8
CUT
10
200.0884
20
-14.6303
0
VERTEX
8
CUT
10
200.0587
20
-14.5648
0
VERTEX
8
CUT
10
200.0334
20
-14.4974
0
VERTEX
8
CUT
10
200.0125
20
-14.4285
0
VERTEX
8
CUT
10
199.9961
20
-14.3584
0
VERTEX
8
CUT
10
199.9844
20
-14.2874
0
VERTEX
8
CUT
10
199.9774
20
-14.2157
0
VERTEX
8
CUT
10
199.9750
20
-14.1438
0
VERTEX
8
CUT
10
199.9774
20
-14.0719
0
VERTEX
8
CUT
10
199.9844
20
-14.0002
0
VERTEX
8
CUT
10
199.9961
20
-13.9292
0
VERTEX
8
CUT
10
200.0125
20
-13.8591
0
VERTEX
8
CUT
10
200.0334
20
-13.7902
0
VERTEX
8
CUT
10
200.0587
20
-13.7229
0
VERTEX
8
CUT
10
200.0884
20
-13.6573
0
VERTEX
8
CUT
10
200.1224
20
-13.5938
0
VERTEX
8
CUT
10
200.1604
20
-13.5327
0
VERTEX
8
CUT
10
200.2023
20
-13.4742
0
VERTEX
8
CUT
10
200.2480
20
-13.4185
0
VERTEX
8
CUT
10
200.2972
20
-13.3660
0
VERTEX
8
CUT
10
200.3497
20
-13.3168
0
VERTEX
8
CUT
10
200.4054
20
-13.2711
0
VERTEX
8
CUT
10
200.4639
20
-13.2292
0
VERTEX
8
CUT
10
200.5250
20
-13.1912
0
VERTEX
8
CUT
10
200.5885
20
-13.1572
0
VERTEX
8
CUT
10
200.6540
20
-13.1275
0
VERTEX
8
CUT
10
200.7214
20
-13.1022
0
VERTEX
8
CUT
10
200.7903
20
-13.0813
0
VERTEX
8
CUT
10
200.8604
20
-13.0649
0
VERTEX
8
CUT
10
200.9314
20
-13.0532
0
VERTEX
8
CUT
10
201.0031
20
-13.0462
0
VERTEX
8
CUT
10
201.0750
20
-13.0438
0
VERTEX
8
CUT
10
201.1469
20
-13.0462
0
VERTEX
8
CUT
10
201.2186
20
-13.0532
0
VERTEX
8
CUT
10
201.2896
20
-13.0649
0
VERTEX
8
CUT
10
201.3597
20
-13.0813
0
VERTEX
8
CUT
10
201.4286
20
-13.1022
0
VERTEX
8
CUT
10
201.4960
20
-13.1275
0
VERTEX
8
CUT
10
201.5615
20
-13.1572
0
VERTEX
8
CUT
10
201.6250
20
-13.1912
0
VERTEX
8
CUT
10
201.6861
20
-13.2292
0
VERTEX
8
CUT
10
201.7446
20
-13.2711
0
VERTEX
8
CUT
10
201.8003
20
-13.3168
0
VERTEX
8
CUT
10
201.8528
20
-13.3660
0
VERTEX
8
CUT
10
201.9020
20
-13.4185
0
VERTEX
8
CUT
10
201.9477
20
-13.4742
0
VERTEX
8
CUT
10
201.9896
20
-13.5327
0
VERTEX
8
CUT
10
202.0276
20
-13.5938
0
VERTEX
8
CUT
10
202.0616
20
-13.6573
0
VERTEX
8
CUT
10
202.0913
20
-13.7229
0
VERTEX
8
CUT
10
202.1166
20
-13.7902
0
VERTEX
8
CUT
10
202.1375
20
-13.8591
0
VERTEX
8
CUT
10
202.1539
20
-13.9292
0
VERTEX
8
CUT
10
202.1656
20
-14.0002
0
VERTEX
8
CUT
10
202.1726
20
-14.0719
0
VERTEX
8
CUT
10
202.1750
20
-14.1438
0
VERTEX
8
CUT
10
202.1726
20
-14.2157
0
VERTEX
8
CUT
10
202.1656
20
-14.2874
0
VERTEX
8
CUT
10
202.1539
20
-14.3584
0
VERTEX
8
CUT
10
202.1375
20
-14.4285
0
VERTEX
8
CUT
10
202.1166
20
-14.4974
0
VERTEX
8
CUT
10
202.0913
20
-14.5648
0
VERTEX
8
CUT
10
202.0616
20
-14.6303
0
VERTEX
8
CUT
10
202.0276
20
-14.6938
0
VERTEX
8
CUT
10
201.9896
20
-14.7549
0
VERTEX
8
CUT
10
201.9477
20
-14.8134
0
VERTEX
8
CUT
10
201.9020
20
-14.8691
0
VERTEX
8
CUT
10
201.8528
20
-14.9216
0
VERTEX
8
CUT
10
201.8003
20
-14.9708
0
VERTEX
8
CUT
10
201.7446
20
-15.0165
0
VERTEX
8
CUT
10
201.6861
20
-15.0584
0
VERTEX
8
CUT
10
201.6250
20
-15.0964
0
VERTEX
8
CUT
10
201.5615
20
-15.1304
0
VERTEX
8
CUT
10
201.4960
20
-15.1601
0
VERTEX
8
CUT
10
201.4286
20
-15.1854
0
VERTEX
8
CUT
10
201.3597
20
-15.2063
0
VERTEX
8
CUT
10
201.2896
20
-15.2227
0
VERTEX
8
CUT
10
201.2186
20
-15.2344
0
VERTEX
8
CUT
10
201.1469
20
-15.2414
0
VERTEX
8
CUT
10
201.0750
20
-15.2438
0
SEQEND
0
POLYLINE
8
CUT
66
1
70
1
0
VERTEX
8
CUT
10
201.0031
20
-55.7476
0
VERTEX
8
CUT
10
200.9314
20
-55.7406
0
VERTEX
8
CUT
10
200.8604
20
-55.7289
0
VERTEX
8
CUT
10
200.7903
20
-55.7125
0
VERTEX
8
CUT
10
200.7214
20
-55.6916
0
VERTEX
8
CUT
10
200.6540
20
-55.6663
0
VERTEX
8
CUT
10
200.5885
20
-55.6366
0
VERTEX
8
CUT
10
200.5250
20
-55.6026
0
VERTEX
8
CUT
10
200.4639
20
-55.5646
0
VERTEX
8
CUT
10
200.4054
20
-55.5227
0
VERTEX
8
CUT
10
200.3497
20
-55.4770
0
VERTEX
8
CUT
10
200.2972
20
-55.4278
0
VERTEX
8
CUT
10
200.2480
20
-55.3753
0
VERTEX
8
CUT
10
200.2023
20
-55.3196
0
VERTEX
8
CUT
10
200.1604
20
-55.2611
0
VERTEX
8
CUT
10
200.1224
20
-55.2000
0
VERTEX
8
CUT
10
200.0884
20
-55.1365
0
VERTEX
8
CUT
10
200.0587
20
-55.0710
0
VERTEX
8
CUT
10
200.0334
20
-55.0036
0
VERTEX
8
CUT
10
200.0125
20
-54.9347
0
VERTEX
8
CUT
10
199.9961
20
-54.8646
0
VERTEX
8
CUT
10
199.9844
20
-54.7936
0
VERTEX
8
CUT
10
199.9774
20
-54.7219
0
VERTEX
8
CUT
10
199.9750
20
-54.6500
0
VERTEX
8
CUT
10
199.9774
20
-54.5781
0
VERTEX
8
CUT
10
199.9844
20
-54.5064
0
VERTEX
8
CUT
10
199.9961
20
-54.4354
0
VERTEX
8
CUT
10
200.0125
20
-54.3653
0
VERTEX
8
CUT
10
200.0334
20
-54.2964
0
VERTEX
8
CUT
10
200.0587
20
-54.2290
0
VERTEX
8
CUT
10
200.0884
20
-54.1635
0
VERTEX
8
CUT
10
200.1224
20
-54.1000
0
VERTEX
8
CUT
10
200.1604
20
-54.0389
0
VERTEX
8
CUT
10
200.2023
20
-53.9804
0
VERTEX
8
CUT
10
200.2480
20
-53.9247
0
VERTEX
8
CUT
10
200.2972
20
-53.8722
0
VERTEX
8
CUT
10
200.3497
20
-53.8230
0
VERTEX
8
CUT
10
200.4054
20
-53.7773
0
VERTEX
8
CUT
10
200.4639
20
-53.7354
0
VERTEX
8
CUT
10
200.5250
20
-53.6974
0
VERTEX
8
CUT
10
200.5885
20
-53.6634
0
VERTEX
8
CUT
10
200.6540
20
-53.6337
0
VERTEX
8
CUT
10
200.7214
20
-53.6084
0
VERTEX
8
CUT
10
200.7903
20
-53.5875
0
VERTEX
8
CUT
10
200.8604
20
-53.5711
0
VERTEX
8
CUT
10
200.9314
20
-53.5594
0
VERTEX
8
CUT
10
201.0031
20
-53.5524
0
VERTEX
8
CUT
10
201.0750
20
-53.5500
0
VERTEX
8
CUT
10
201.1469
20
-53.5524
0
VERTEX
8
CUT
10
201.2186
20
-53.5594
0
VERTEX
8
CUT
10
201.2896
20
-53.5711
0
VERTEX
8
CUT
10
201.3597
20
-53.5875
0
VERTEX
8
CUT
10
201.4286
20
-53.6084
0
VERTEX
8
CUT
10
201.4960
20
-53.6337
0
VERTEX
8
CUT
10
201.5615
20
-53.6634
0
VERTEX
8
CUT
10
201.6250
20
-53.6974
0
VERTEX
8
CUT
10
201.6861
20
-53.7354
0
VERTEX
8
CUT
10
201.7446
20
-53.7773
0
VERTEX
8
CUT
10
201.8003
20
-53.8230
0
VERTEX
8
CUT
10
201.8528
20
-53.8722
0
VERTEX
8
CUT
10
201.9020
20
-53.9247
0
VERTEX
8
CUT
10
201.9477
20
-53.9804
0
VERTEX
8
CUT
10
201.9896
20
-54.0389
0
VERTEX
8
CUT
10
202.0276
20
-54.1000
0
VERTEX
8
CUT
10
202.0616
20
-54.1635
0
VERTEX
8
CUT
10
202.0913
20
-54.2290
0
VERTEX
8
CUT
10
202.1166
20
-54.2964
0
VERTEX
8
CUT
10
202.1375
20
-54.3653
0
VERTEX
8
CUT
10
202.1539
20
-54.4354
0
VERTEX
8
CUT
10
202.1656
20
-54.5064
0
VERTEX
8
CUT
10
202.1726
20
-54.5781
0
VERTEX
8
CUT
10
202.1750
20
-54.6500
0
VERTEX
8
CUT
10
202.1726
20
-54.7219
0
VERTEX
8
CUT
10
202.1656
20
-54.7936
0
VERTEX
8
CUT
10
202.1539
20
-54.8646
0
VERTEX
8
CUT
10
202.1375
20
-54.9347
0
VERTEX
8
CUT
10
202.1166
20
-55.0036
0
VERTEX
8
CUT
10
202.0913
20
-55.0710
0
VERTEX
8
CUT
10
202.0616
20
-55.1365
0
VERTEX
8
CUT
10
202.0276
20
-55.2000
0
VERTEX
8
CUT
10
201.9896
20
-55.2611
0
VERTEX
8
CUT
10
201.9477
20
-55.3196
0
VERTEX
8
CUT
10
201.9020
20
-55.3753
0
VERTEX
8
CUT
10
201.8528
20
-55.4278
0
VERTEX
8
CUT
10
201.8003
20
-55.4770
0
VERTEX
8
CUT
10
201.7446
20
-55.5227
0
VERTEX
8
CUT
10
201.6861
20
-55.5646
0
VERTEX
8
CUT
10
201.6250
20
-55.6026
0
VERTEX
8
CUT
10
201.5615
20
-55.6366
0
VERTEX
8
CUT
10
201.4960
20
-55.6663
0
VERTEX
8
CUT
10
201.4286
20
-55.6916
0
VERTEX
8
CUT
10
201.3597
20
-55.7125
0
VERTEX
8
CUT
10
201.2896
20
-55.7289
0
VERTEX
8
CUT
10
201.2186
20
-55.7406
0
VERTEX
8
CUT
10
201.1469
20
-55.7476
0
VERTEX
8
CUT
10
201.0750
20
-55.7500
0
SEQEND
0
POLYLINE
8
CUT
66
1
70
1
0
VERTEX
8
CUT
10
-7.5719
20
-69.4226
0
VERTEX
8
CUT
10
-7.6436
20
-69.4156
0
VERTEX
8
CUT
10
-7.7146
20
-69.4039
0
VERTEX
8
CUT
10
-7.7847
20
-69.3875
0
VERTEX
8
CUT
10
-7.8536
20
-69.3666
0
VERTEX
8
CUT
10
-7.9210
20
-69.3413
0
VERTEX
8
CUT
10
-7.9865
20
-69.3116
0
VERTEX
8
CUT
10
-8.0500
20
-69.2776
0
VERTEX
8
CUT
10
-8.1111
20
-69.2396
0
VERTEX
8
CUT
10
-8.1696
20
-69.1977
0
VERTEX
8
CUT
10
-8.2253
20
-69.1520
0
VERTEX
8
CUT
10
-8.2778
20
-69.1028
0
VERTEX
8
CUT
10
-8.3270
20
-69.0503
0
VERTEX
8
CUT
10
-8.3727
20
-68.9946
0
VERTEX
8
CUT
10
-8.4146
20
-68.9361
0
VERTEX
8
CUT
10
-8.4526
20
-68.8750
0
VERTEX
8
CUT
10
-8.4866
20
-68.8115
0
VERTEX
8
CUT
10
-8.5163
20
-68.7460
0
VERTEX
8
CUT
10
-8.5416
20
-68.6786
0
VERTEX
8
CUT
10
-8.5625
20
-68.6097
0
VERTEX
8
CUT
10
-8.5789
20
-68.5396
0
VERTEX
8
CUT
10
-8.5906
20
-68.4686
0
VERTEX
8
CUT
10
-8.5976
20
-68.3969
0
VERTEX
8
CUT
10
-8.6000
20
-68.3250
0
VERTEX
8
CUT
10
-8.5976
20
-68.2531
0
VERTEX
8
CUT
10
-8.5906
20
-68.1814
0
VERTEX
8
CUT
10
-8.5789
20
-68.1104
0
VERTEX
8
CUT
10
-8.5625
20
-68.0403
0
VERTEX
8
CUT
10
-8.5416
20
-67.9714
0
VERTEX
8
CUT
10
-8.5163
20
-67.9040
0
VERTEX
8
CUT
10
-8.4866
20
-67.8385
0
VERTEX
8
CUT
10
-8.4526
20
-67.7750
0
VERTEX
8
CUT
10
-8.4146
20
-67.7139
0
VERTEX
8
CUT
10
-8.3727
20
-67.6554
0
VERTEX
8
CUT
10
-8.3270
20
-67.5997
0
VERTEX
8
CUT
10
-8.2778
20
-67.5472
0
VERTEX
8
CUT
10
-8.2253
20
-67.4980
0
VERTEX
8
CUT
10
-8.1696
20
-67.4523
0
VERTEX
8
CUT
10
-8.1111
20
-67.4104
0
VERTEX
8
CUT
10
-8.0500
20
-67.3724
0
VERTEX
8
CUT
10
-7.9865
20
-67.3384
0
VERTEX
8
CUT
10
-7.9210
20
-67.3087
0
VERTEX
8
CUT
10
-7.8536
20
-67.2834
0
VERTEX
8
CUT
10
-7.7847
20
-67.2625
0
VERTEX
8
CUT
10
-7.7146
20
-67.2461
0
VERTEX
8
CUT
10
-7.6436
20
-67.2344
0
VERTEX
8
CUT
10
-7.5719
20
-67.2274
0
VERTEX
8
CUT
10
-7.5000
20
-67.2250
0
VERTEX
8
CUT
10
-7.4281
20
-67.2274
0
VERTEX
8
CUT
10
-7.3564
20
-67.2344
0
VERTEX
8
CUT
10
-7.2854
20
-67.2461
0
VERTEX
8
CUT
10
-7.2153
20
-67.2625
0
VERTEX
8
CUT
10
-7.1464
20
-67.2834
0
VERTEX
8
CUT
10
-7.0790
20
-67.3087
0
VERTEX
8
CUT
10
-7.0135
20
-67.3384
0
VERTEX
8
CUT
10
-6.9500
20
-67.3724
0
VERTEX
8
CUT
10
-6.8889
20
-67.4104
0
VERTEX
8
CUT
10
-6.8304
20
-67.4523
0
VERTEX
8
CUT
10
-6.7747
20
-67.4980
0
VERTEX
8
CUT
10
-6.7222
20
-67.5472
0
VERTEX
8
CUT
10
-6.6730
20
-67.5997
0
VERTEX
8
CUT
10
-6.6273
20
-67.6554
0
VERTEX
8
CUT
10
-6.5854
20
-67.7139
0
VERTEX
8
CUT
10
-6.5474
20
-67.7750
0
VERTEX
8
CUT
10
-6.5134
20
-67.8385
0
VERTEX
8
CUT
10
-6.4837
20
-67.9040
0
VERTEX
8
CUT
10
-6.4584
20
-67.9714
0
VERTEX
8
CUT
10
-6.4375
20
-68.0403
0
VERTEX
8
CUT
10
-6.4211
20
-68.1104
0
VERTEX
8
CUT
10
-6.4094
20
-68.1814
0
VERTEX
8
CUT
10
-6.4024
20
-68.2531
0
VERTEX
8
CUT
10
-6.4000
20
-68.3250
0
VERTEX
8
CUT
10
-6.4024
20
-68.3969
0
VERTEX
8
CUT
10
-6.4094
20
-68.4686
0
VERTEX
8
CUT
10
-6.4211
20
-68.5396
0
VERTEX
8
CUT
10
-6.4375
20
-68.6097
0
VERTEX
8
CUT
10
-6.4584
20
-68.6786
0
VERTEX
8
CUT
10
-6.4837
20
-68.7460
0
VERTEX
8
CUT
10
-6.5134
20
-68.8115
0
VERTEX
8
CUT
10
-6.5474
20
-68.8750
0
VERTEX
8
CUT
10
-6.5854
20
-68.9361
0
VERTEX
8
CUT
10
-6.6273
20
-68.9946
0
VERTEX
8
CUT
10
-6.6730
20
-69.0503
0
VERTEX
8
CUT
10
-6.7222
20
-69.1028
0
VERTEX
8
CUT
10
-6.7747
20
-69.1520
0
VERTEX
8
CUT
10
-6.8304
20
-69.1977
0
VERTEX
8
CUT
10
-6.8889
20
-69.2396
0
VERTEX
8
CUT
10
-6.9500
20
-69.2776
0
VERTEX
8
CUT
10
-7.0135
20
-69.3116
0
VERTEX
8
CUT
10
-7.0790
20
-69.3413
0
VERTEX
8
CUT
10
-7.1464
20
-69.3666
0
VERTEX
8
CUT
10
-7.2153
20
-69.3875
0
VERTEX
8
CUT
10
-7.2854
20
-69.4039
0
VERTEX
8
CUT
10
-7.3564
20
-69.4156
0
VERTEX
8
CUT
10
-7.4281
20
-69.4226
0
VERTEX
8
CUT
10
-7.5000
20
-69.4250
0
SEQEND
0
POLYLINE
8
CUT
66
1
70
1
0
VERTEX
8
CUT
10
-5.0824
20
-120.4081
0
VERTEX
8
CUT
10
-5.1540
20
-120.4010
0
VERTEX
8
CUT
10
-5.2250
20
-120.3893
0
VERTEX
8
CUT
10
-5.2951
20
-120.3729
0
VERTEX
8
CUT
10
-5.3640
20
-120.3520
0
VERTEX
8
CUT
10
-5.4314
20
-120.3267
0
VERTEX
8
CUT
10
-5.4969
20
-120.2970
0
VERTEX
8
CUT
10
-5.5604
20
-120.2630
0
VERTEX
8
CUT
10
-5.6215
20
-120.2250
0
VERTEX
8
CUT
10
-5.6800
20
-120.1831
0
VERTEX
8
CUT
10
-5.7357
20
-120.1374
0
VERTEX
8
CUT
10
-5.7882
20
-120.0882
0
VERTEX
8
CUT
10
-5.8374
20
-120.0357
0
VERTEX
8
CUT
10
-5.8831
20
-119.9800
0
VERTEX
8
CUT
10
-5.9250
20
-119.9215
0
VERTEX
8
CUT
10
-5.9630
20
-119.8604
0
VERTEX
8
CUT
10
-5.9970
20
-119.7969
0
VERTEX
8
CUT
10
-6.0267
20
-119.7314
0
VERTEX
8
CUT
10
-6.0520
20
-119.6640
0
VERTEX
8
CUT
10
-6.0729
20
-119.5951
0
VERTEX
8
CUT
10
-6.0893
20
-119.5250
0
VERTEX
8
CUT
10
-6.1010
20
-119.4540
0
VERTEX
8
CUT
10
-6.1081
20
-119.3824
0
VERTEX
8
CUT
10
-6.1104
20
-119.3104
0
VERTEX
8
CUT
10
-6.1081
20
-119.2385
0
VERTEX
8
CUT
10
-6.1010
20
-119.1668
0
VERTEX
8
CUT
10
-6.0893
20
-119.0958
0
VERTEX
8
CUT
10
-6.0729
20
-119.0257
0
VERTEX
8
CUT
10
-6.0520
20
-118.9568
0
VERTEX
8
CUT
10
-6.0267
20
-118.8895
0
VERTEX
8
CUT
10
-5.9970
20
-118.8239
0
VERTEX
8
CUT
10
-5.9630
20
-118.7604
0
VERTEX
8
CUT
10
-5.9250
20
-118.6993
0
VERTEX
8
CUT
10
-5.8831
20
-118.6408
0
VERTEX
8
CUT
10
-5.8374
20
-118.5851
0
VERTEX
8
CUT
10
-5.7882
20
-118.5326
0
VERTEX
8
CUT
10
-5.7357
20
-118.4834
0
VERTEX
8
CUT
10
-5.6800
20
-118.4377
0
VERTEX
8
CUT
10
-5.6215
20
-118.3958
0
VERTEX
8
CUT
10
-5.5604
20
-118.3578
0
VERTEX
8
CUT
10
-5.4969
20
-118.3238
0
VERTEX
8
CUT
10
-5.4314
20
-118.2941
0
VERTEX
8
CUT
10
-5.3640
20
-118.2688
0
VERTEX
8
CUT
10
-5.2951
20
-118.2479
0
VERTEX
8
CUT
10
-5.2250
20
-118.2315
0
VERTEX
8
CUT
10
-5.1540
20
-118.2198
0
VERTEX
8
CUT
10
-5.0824
20
-118.2128
0
VERTEX
8
CUT
10
-5.0104
20
-118.2104
0
VERTEX
8
CUT
10
-4.9385
20
-118.2128
0
VERTEX
8
CUT
10
-4.8668
20
-118.2198
0
VERTEX
8
CUT
10
-4.7958
20
-118.2315
0
VERTEX
8
CUT
10
-4.7257
20
-118.2479
0
VERTEX
8
CUT
10
-4.6568
20
-118.2688
0
VERTEX
8
CUT
10
-4.5895
20
-118.2941
0
VERTEX
8
CUT
10
-4.5239
20
-118.3238
0
VERTEX
8
CUT
10
-4.4604
20
-118.3578
0
VERTEX
8
CUT
10
-4.3993
20
-118.3958
0
VERTEX
8
CUT
10
-4.3408
20
-118.4377
0
VERTEX
8
CUT
10
-4.2851
20
-118.4834
0
VERTEX
8
CUT
10
-4.2326
20
-118.5326
0
VERTEX
8
CUT
10
-4.1834
20
-118.5851
0
VERTEX
8
CUT
10
-4.1377
20
-118.6408
0
VERTEX
8
CUT
10
-4.0958
20
-118.6993
0
VERTEX
8
CUT
10
-4.0578
20
-118.7604
0
VERTEX
8
CUT
10
-4.0238
20
-118.8239
0
VERTEX
8
CUT
10
-3.9941
20
-118.8895
0
VERTEX
8
CUT
10
-3.9688
20
-118.9568
0
VERTEX
8
CUT
10
-3.9479
20
-119.0257
0
VERTEX
8
CUT
10
-3.9315
20
-119.0958
0
VERTEX
8
CUT
10
-3.9198
20
-119.1668
0
VERTEX
8
CUT
10
-3.9128
20
-119.2385
0
VERTEX
8
CUT
10
-3.9104
20
-119.3104
0
VERTEX
8
CUT
10
-3.9128
20
-119.3824
0
VERTEX
8
CUT
10
-3.9198
20
-119.4540
0
VERTEX
8
CUT
10
-3.9315
20
-119.5250
0
VERTEX
8
CUT
10
-3.9479
20
-119.5951
0
VERTEX
8
CUT
10
-3.9688
20
-119.6640
0
VERTEX
8
CUT
10
-3.9941
20
-119.7314
0
VERTEX
8
CUT
10
-4.0238
20
-119.7969
0
VERTEX
8
CUT
10
-4.0578
20
-119.8604
0
VERTEX
8
CUT
10
-4.0958
20
-119.9215
0
VERTEX
8
CUT
10
-4.1377
20
-119.9800
0
VERTEX
8
CUT
10
-4.1834
20
-120.0357
0
VERTEX
8
CUT
10
-4.2326
20
-120.0882
0
VERTEX
8
CUT
10
-4.2851
20
-120.1374
0
VERTEX
8
CUT
10
-4.3408
20
-120.1831
0
VERTEX
8
CUT
10
-4.3993
20
-120.2250
0
VERTEX
8
CUT
10
-4.4604
20
-120.2630
0
VERTEX
8
CUT
10
-4.5239
20
-120.2970
0
VERTEX
8
CUT
10
-4.5895
20
-120.3267
0
VERTEX
8
CUT
10
-4.6568
20
-120.3520
0
VERTEX
8
CUT
10
-4.7257
20
-120.3729
0
VERTEX
8
CUT
10
-4.7958
20
-120.3893
0
VERTEX
8
CUT
10
-4.8668
20
-120.4010
0
VERTEX
8
CUT
10
-4.9385
20
-120.4081
0
VERTEX
8
CUT
10
-5.0104
20
-120.4104
0
SEQEND
0
POLYLINE
8
CUT
66
1
70
1
0
VERTEX
8
CUT
10
198.5135
20
-120.4081
0
VERTEX
8
CUT
10
198.4418
20
-120.4010
0
VERTEX
8
CUT
10
198.3708
20
-120.3893
0
VERTEX
8
CUT
10
198.3007
20
-120.3729
0
VERTEX
8
CUT
10
198.2318
20
-120.3520
0
VERTEX
8
CUT
10
198.1645
20
-120.3267
0
VERTEX
8
CUT
10
198.0989
20
-120.2970
0
VERTEX
8
CUT
10
198.0354
20
-120.2630
0
VERTEX
8
CUT
10
197.9743
20
-120.2250
0
VERTEX
8
CUT
10
197.9158
20
-120.1831
0
VERTEX
8
CUT
10
197.8601
20
-120.1374
0
VERTEX
8
CUT
10
197.8076
20
-120.0882
0
VERTEX
8
CUT
10
197.7584
20
-120.0357
0
VERTEX
8
CUT
10
197.7127
20
-119.9800
0
VERTEX
8
CUT
10
197.6708
20
-119.9215
0
VERTEX
8
CUT
10
197.6328
20
-119.8604
0
VERTEX
8
CUT
10
197.5988
20
-119.7969
0
VERTEX
8
CUT
10
197.5691
20
-119.7314
0
VERTEX
8
CUT
10
197.5438
20
-119.6640
0
VERTEX
8
CUT
10
197.5229
20
-119.5951
0
VERTEX
8
CUT
10
197.5065
20
-119.5250
0
VERTEX
8
CUT
10
197.4948
20
-119.4540
0
VERTEX
8
CUT
10
197.4878
20
-119.3824
0
VERTEX
8
CUT
10
197.4854
20
-119.3104
0
VERTEX
8
CUT
10
197.4878
20
-119.2385
0
VERTEX
8
CUT
10
197.4948
20
-119.1668
0
VERTEX
8
CUT
10
197.5065
20
-119.0958
0
VERTEX
8
CUT
10
197.5229
20
-119.0257
0
VERTEX
8
CUT
10
197.5438
20
-118.9568
0
VERTEX
8
CUT
10
197.5691
20
-118.8895
0
VERTEX
8
CUT
10
197.5988
20
-118.8239
0
VERTEX
8
CUT
10
197.6328
20
-118.7604
0
VERTEX
8
CUT
10
197.6708
20
-118.6993
0
VERTEX
8
CUT
10
197.7127
20
-118.6408
0
VERTEX
8
CUT
10
197.7584
20
-118.5851
0
VERTEX
8
CUT
10
197.8076
20
-118.5326
0
VERTEX
8
CUT
10
197.8601
20
-118.4834
0
VERTEX
8
CUT
10
197.9158
20
-118.4377
0
VERTEX
8
CUT
10
197.9743
20
-118.3958
0
VERTEX
8
CUT
10
198.0354
20
-118.3578
0
VERTEX
8
CUT
10
198.0989
20
-118.3238
0
VERTEX
8
CUT
10
198.1645
20
-118.2941
0
VERTEX
8
CUT
10
198.2318
20
-118.2688
0
VERTEX
8
CUT
10
198.3007
20
-118.2479
0
VERTEX
8
CUT
10
198.3708
20
-118.2315
0
VERTEX
8
CUT
10
198.4418
20
-118.2198
0
VERTEX
8
CUT
10
198.5135
20
-118.2128
0
VERTEX
8
CUT
10
198.5854
20
-118.2104
0
VERTEX
8
CUT
10
198.6574
20
-118.2128
0
VERTEX
8
CUT
10
198.7290
20
-118.2198
0
VERTEX
8
CUT
10
198.8000
20
-118.2315
0
VERTEX
8
CUT
10
198.8701
20
-118.2479
0
VERTEX
8
CUT
10
198.9390
20
-118.2688
0
VERTEX
8
CUT
10
199.0064
20
-118.2941
0
VERTEX
8
CUT
10
199.0719
20
-118.3238
0
VERTEX
8
CUT
10
199.1354
20
-118.3578
0
VERTEX
8
CUT
10
199.1965
20
-118.3958
0
VERTEX
8
CUT
10
199.2550
20
-118.4377
0
VERTEX
8
CUT
10
199.3107
20
-118.4834
0
VERTEX
8
CUT
10
199.3632
20
-118.5326
0
VERTEX
8
CUT
10
199.4124
20
-118.5851
0
VERTEX
8
CUT
10
199.4581
20
-118.6408
0
VERTEX
8
CUT
10
199.5000
20
-118.6993
0
VERTEX
8
CUT
10
199.5380
20
-118.7604
0
VERTEX
8
CUT
10
199.5720
20
-118.8239
0
VERTEX
8
CUT
10
199.6017
20
-118.8895
0
VERTEX
8
CUT
10
199.6270
20
-118.9568
0
VERTEX
8
CUT
10
199.6479
20
-119.0257
0
VERTEX
8
CUT
10
199.6643
20
-119.0958
0
VERTEX
8
CUT
10
199.6760
20
-119.1668
0
VERTEX
8
CUT
10
199.6831
20
-119.2385
0
VERTEX
8
CUT
10
199.6854
20
-119.3104
0
VERTEX
8
CUT
10
199.6831
20
-119.3824
0
VERTEX
8
CUT
10
199.6760
20
-119.4540
0
VERTEX
8
CUT
10
199.6643
20
-119.5250
0
VERTEX
8
CUT
10
199.6479
20
-119.5951
0
VERTEX
8
CUT
10
199.6270
20
-119.6640
0
VERTEX
8
CUT
10
199.6017
20
-119.7314
0
VERTEX
8
CUT
10
199.5720
20
-119.7969
0
VERTEX
8
CUT
10
199.5380
20
-119.8604
0
VERTEX
8
CUT
10
199.5000
20
-119.9215
0
VERTEX
8
CUT
10
199.4581
20
-119.9800
0
VERTEX
8
CUT
10
199.4124
20
-120.0357
0
VERTEX
8
CUT
10
199.3632
20
-120.0882
0
VERTEX
8
CUT
10
199.3107
20
-120.1374
0
VERTEX
8
CUT
10
199.2550
20
-120.1831
0
VERTEX
8
CUT
10
199.1965
20
-120.2250
0
VERTEX
8
CUT
10
199.1354
20
-120.2630
0
VERTEX
8
CUT
10
199.0719
20
-120.2970
0
VERTEX
8
CUT
10
199.0064
20
-120.3267
0
VERTEX
8
CUT
10
198.9390
20
-120.3520
0
VERTEX
8
CUT
10
198.8701
20
-120.3729
0
VERTEX
8
CUT
10
198.8000
20
-120.3893
0
VERTEX
8
CUT
10
198.7290
20
-120.4010
0
VERTEX
8
CUT
10
198.6574
20
-120.4081
0
VERTEX
8
CUT
10
198.5854
20
-120.4104
0
SEQEND
0
POLYLINE
8
CUT
66
1
70
1
0
VERTEX
8
CUT
10
44.5718
20
-122.8976
0
VERTEX
8
CUT
10
44.5002
20
-122.8906
0
VERTEX
8
CUT
10
44.4292
20
-122.8789
0
VERTEX
8
CUT
10
44.3590
20
-122.8625
0
VERTEX
8
CUT
10
44.2902
20
-122.8416
0
VERTEX
8
CUT
10
44.2228
20
-122.8163
0
VERTEX
8
CUT
10
44.1572
20
-122.7866
0
VERTEX
8
CUT
10
44.0938
20
-122.7526
0
VERTEX
8
CUT
10
44.0326
20
-122.7146
0
VERTEX
8
CUT
10
43.9741
20
-122.6727
0
VERTEX
8
CUT
10
43.9185
20
-122.6270
0
VERTEX
8
CUT
10
43.8659
20
-122.5778
0
VERTEX
8
CUT
10
43.8167
20
-122.5253
0
VERTEX
8
CUT
10
43.7711
20
-122.4696
0
VERTEX
8
CUT
10
43.7291
20
-122.4111
0
VERTEX
8
CUT
10
43.6911
20
-122.3500
0
VERTEX
8
CUT
10
43.6572
20
-122.2865
0
VERTEX
8
CUT
10
43.6275
20
-122.2210
0
VERTEX
8
CUT
10
43.6021
20
-122.1536
0
VERTEX
8
CUT
10
43.5812
20
-122.0847
0
VERTEX
8
CUT
10
43.5649
20
-122.0146
0
VERTEX
8
CUT
10
43.5532
20
-121.9436
0
VERTEX
8
CUT
10
43.5461
20
-121.8719
0
VERTEX
8
CUT
10
43.5438
20
-121.8000
0
VERTEX
8
CUT
10
43.5461
20
-121.7281
0
VERTEX
8
CUT
10
43.5532
20
-121.6564
0
VERTEX
8
CUT
10
43.5649
20
-121.5854
0
VERTEX
8
CUT
10
43.5812
20
-121.5153
0
VERTEX
8
CUT
10
43.6021
20
-121.4464
0
VERTEX
8
CUT
10
43.6275
20
-121.3790
0
VERTEX
8
CUT
10
43.6572
20
-121.3135
0
VERTEX
8
CUT
10
43.6911
20
-121.2500
0
VERTEX
8
CUT
10
43.7291
20
-121.1889
0
VERTEX
8
CUT
10
43.7711
20
-121.1304
0
VERTEX
8
CUT
10
43.8167
20
-121.0747
0
VERTEX
8
CUT
10
43.8659
20
-121.0222
0
VERTEX
8
CUT
10
43.9185
20
-120.9730
0
VERTEX
8
CUT
10
43.9741
20
-120.9273
0
VERTEX
8
CUT
10
44.0326
20
-120.8854
0
VERTEX
8
CUT
10
44.0938
20
-120.8474
0
VERTEX
8
CUT
10
44.1572
20
-120.8134
0
VERTEX
8
CUT
10
44.2228
20
-120.7837
0
VERTEX
8
CUT
10
44.2902
20
-120.7584
0
VERTEX
8
CUT
10
44.3590
20
-120.7375
0
VERTEX
8
CUT
10
44.4292
20
-120.7211
0
VERTEX
8
CUT
10
44.5002
20
-120.7094
0
VERTEX
8
CUT
10
44.5718
20
-120.7024
0
VERTEX
8
CUT
10
44.6437
20
-120.7000
0
VERTEX
8
CUT
10
44.7157
20
-120.7024
0
VERTEX
8
CUT
10
44.7873
20
-120.7094
0
VERTEX
8
CUT
10
44.8583
20
-120.7211
0
VERTEX
8
CUT
10
44.9285
20
-120.7375
0
VERTEX
8
CUT
10
44.9973
20
-120.7584
0
VERTEX
8
CUT
10
45.0647
20
-120.7837
0
VERTEX
8
CUT
10
45.1303
20
-120.8134
0
VERTEX
8
CUT
10
45.1938
20
-120.8474
0
VERTEX
8
CUT
10
45.2549
20
-120.8854
0
VERTEX
8
CUT
10
45.3134
20
-120.9273
0
VERTEX
8
CUT
10
45.3690
20
-120.9730
0
VERTEX
8
CUT
10
45.4216
20
-121.0222
0
VERTEX
8
CUT
10
45.4708
20
-121.0747
0
VERTEX
8
CUT
10
45.5164
20
-121.1304
0
VERTEX
8
CUT
10
45.5584
20
-121.1889
0
VERTEX
8
CUT
10
45.5964
20
-121.2500
0
VERTEX
8
CUT
10
45.6303
20
-121.3135
0
VERTEX
8
CUT
10
45.6600
20
-121.3790
0
VERTEX
8
CUT
10
45.6854
20
-121.4464
0
VERTEX
8
CUT
10
45.7063
20
-121.5153
0
VERTEX
8
CUT
10
45.7226
20
-121.5854
0
VERTEX
8
CUT
10
45.7343
20
-121.6564
0
VERTEX
8
CUT
10
45.7414
20
-121.7281
0
VERTEX
8
CUT
10
45.7437
20
-121.8000
0
VERTEX
8
CUT
10
45.7414
20
-121.8719
0
VERTEX
8
CUT
10
45.7343
20
-121.9436
0
VERTEX
8
CUT
10
45.7226
20
-122.0146
0
VERTEX
8
CUT
10
45.7063
20
-122.0847
0
VERTEX
8
CUT
10
45.6854
20
-122.1536
0
VERTEX
8
CUT
10
45.6600
20
-122.2210
0
VERTEX
8
CUT
10
45.6303
20
-122.2865
0
VERTEX
8
CUT
10
45.5964
20
-122.3500
0
VERTEX
8
CUT
10
45.5584
20
-122.4111
0
VERTEX
8
CUT
10
45.5164
20
-122.4696
0
VERTEX
8
CUT
10
45.4708
20
-122.5253
0
VERTEX
8
CUT
10
45.4216
20
-122.5778
0
VERTEX
8
CUT
10
45.3690
20
-122.6270
0
VERTEX
8
CUT
10
45.3134
20
-122.6727
0
VERTEX
8
CUT
10
45.2549
20
-122.7146
0
VERTEX
8
CUT
10
45.1938
20
-122.7526
0
VERTEX
8
CUT
10
45.1303
20
-122.7866
0
VERTEX
8
CUT
10
45.0647
20
-122.8163
0
VERTEX
8
CUT
10
44.9973
20
-122.8416
0
VERTEX
8
CUT
10
44.9285
20
-122.8625
0
VERTEX
8
CUT
10
44.8583
20
-122.8789
0
VERTEX
8
CUT
10
44.7873
20
-122.8906
0
VERTEX
8
CUT
10
44.7157
20
-122.8976
0
VERTEX
8
CUT
10
44.6437
20
-122.9000
0
SEQEND
0
POLYLINE
8
CUT
66
1
70
1
0
VERTEX
8
CUT
10
96.7156
20
-122.8976
0
VERTEX
8
CUT
10
96.6439
20
-122.8906
0
VERTEX
8
CUT
10
96.5729
20
-122.8789
0
VERTEX
8
CUT
10
96.5028
20
-122.8625
0
VERTEX
8
CUT
10
96.4339
20
-122.8416
0
VERTEX
8
CUT
10
96.3665
20
-122.8163
0
VERTEX
8
CUT
10
96.3010
20
-122.7866
0
VERTEX
8
CUT
10
96.2375
20
-122.7526
0
VERTEX
8
CUT
10
96.1764
20
-122.7146
0
VERTEX
8
CUT
10
96.1179
20
-122.6727
0
VERTEX
8
CUT
10
96.0622
20
-122.6270
0
VERTEX
8
CUT
10
96.0097
20
-122.5778
0
VERTEX
8
CUT
10
95.9605
20
-122.5253
0
VERTEX
8
CUT
10
95.9148
20
-122.4696
0
VERTEX
8
CUT
10
95.8729
20
-122.4111
0
VERTEX
8
CUT
10
95.8349
20
-122.3500
0
VERTEX
8
CUT
10
95.8009
20
-122.2865
0
VERTEX
8
CUT
10
95.7712
20
-122.2210
0
VERTEX
8
CUT
10
95.7459
20
-122.1536
0
VERTEX
8
CUT
10
95.7250
20
-122.0847
0
VERTEX
8
CUT
10
95.7086
20
-122.0146
0
VERTEX
8
CUT
10
95.6969
20
-121.9436
0
VERTEX
8
CUT
10
95.6899
20
-121.8719
0
VERTEX
8
CUT
10
95.6875
20
-121.8000
0
VERTEX
8
CUT
10
95.6899
20
-121.7281
0
VERTEX
8
CUT
10
95.6969
20
-121.6564
0
VERTEX
8
CUT
10
95.7086
20
-121.5854
0
VERTEX
8
CUT
10
95.7250
20
-121.5153
0
VERTEX
8
CUT
10
95.7459
20
-121.4464
0
VERTEX
8
CUT
10
95.7712
20
-121.3790
0
VERTEX
8
CUT
10
95.8009
20
-121.3135
0
VERTEX
8
CUT
10
95.8349
20
-121.2500
0
VERTEX
8
CUT
10
95.8729
20
-121.1889
0
VERTEX
8
CUT
10
95.9148
20
-121.1304
0
VERTEX
8
CUT
10
95.9605
20
-121.0747
0
VERTEX
8
CUT
10
96.0097
20
-121.0222
0
VERTEX
8
CUT
10
96.0622
20
-120.9730
0
VERTEX
8
CUT
10
96.1179
20
-120.9273
0
VERTEX
8
CUT
10
96.1764
20
-120.8854
0
VERTEX
8
CUT
10
96.2375
20
-120.8474
0
VERTEX
8
CUT
10
96.3010
20
-120.8134
0
VERTEX
8
CUT
10
96.3665
20
-120.7837
0
VERTEX
8
CUT
10
96.4339
20
-120.7584
0
VERTEX
8
CUT
10
96.5028
20
-120.7375
0
VERTEX
8
CUT
10
96.5729
20
-120.7211
0
VERTEX
8
CUT
10
96.6439
20
-120.7094
0
VERTEX
8
CUT
10
96.7156
20
-120.7024
0
VERTEX
8
CUT
10
96.7875
20
-120.7000
0
VERTEX
8
CUT
10
96.8594
20
-120.7024
0
VERTEX
8
CUT
10
96.9311
20
-120.7094
0
VERTEX
8
CUT
10
97.0021
20
-120.7211
0
VERTEX
8
CUT
10
97.0722
20
-120.7375
0
VERTEX
8
CUT
10
97.1411
20
-120.7584
0
VERTEX
8
CUT
10
97.2085
20
-120.7837
0
VERTEX
8
CUT
10
97.2740
20
-120.8134
0
VERTEX
8
CUT
10
97.3375
20
-120.8474
0
VERTEX
8
CUT
10
97.3986
20
-120.8854
0
VERTEX
8
CUT
10
97.4571
20
-120.9273
0
VERTEX
8
CUT
10
97.5128
20
-120.9730
0
VERTEX
8
CUT
10
97.5653
20
-121.0222
0
VERTEX
8
CUT
10
97.6145
20
-121.0747
0
VERTEX
8
CUT
10
97.6602
20
-121.1304
0
VERTEX
8
CUT
10
97.7021
20
-121.1889
0
VERTEX
8
CUT
10
97.7401
20
-121.2500
0
VERTEX
8
CUT
10
97.7741
20
-121.3135
0
VERTEX
8
CUT
10
97.8038
20
-121.3790
0
VERTEX
8
CUT
10
97.8291
20
-121.4464
0
VERTEX
8
CUT
10
97.8500
20
-121.5153
0
VERTEX
8
CUT
10
97.8664
20
-121.5854
0
VERTEX
8
CUT
10
97.8781
20
-121.6564
0
VERTEX
8
CUT
10
97.8851
20
-121.7281
0
VERTEX
8
CUT
10
97.8875
20
-121.8000
0
VERTEX
8
CUT
10
97.8851
20
-121.8719
0
VERTEX
8
CUT
10
97.8781
20
-121.9436
0
VERTEX
8
CUT
10
97.8664
20
-122.0146
0
VERTEX
8
CUT
10
97.8500
20
-122.0847
0
VERTEX
8
CUT
10
97.8291
20
-122.1536
0
VERTEX
8
CUT
10
97.8038
20
-122.2210
0
VERTEX
8
CUT
10
97.7741
20
-122.2865
0
VERTEX
8
CUT
10
97.7401
20
-122.3500
0
VERTEX
8
CUT
10
97.7021
20
-122.4111
0
VERTEX
8
CUT
10
97.6602
20
-122.4696
0
VERTEX
8
CUT
10
97.6145
20
-122.5253
0
VERTEX
8
CUT
10
97.5653
20
-122.5778
0
VERTEX
8
CUT
10
97.5128
20
-122.6270
0
VERTEX
8
CUT
10
97.4571
20
-122.6727
0
VERTEX
8
CUT
10
97.3986
20
-122.7146
0
VERTEX
8
CUT
10
97.3375
20
-122.7526
0
VERTEX
8
CUT
10
97.2740
20
-122.7866
0
VERTEX
8
CUT
10
97.2085
20
-122.8163
0
VERTEX
8
CUT
10
97.1411
20
-122.8416
0
VERTEX
8
CUT
10
97.0722
20
-122.8625
0
VERTEX
8
CUT
10
97.0021
20
-122.8789
0
VERTEX
8
CUT
10
96.9311
20
-122.8906
0
VERTEX
8
CUT
10
96.8594
20
-122.8976
0
VERTEX
8
CUT
10
96.7875
20
-122.9000
0
SEQEND
0
POLYLINE
8
CUT
66
1
70
1
0
VERTEX
8
CUT
10
148.8593
20
-122.8976
0
VERTEX
8
CUT
10
148.7877
20
-122.8906
0
VERTEX
8
CUT
10
148.7167
20
-122.8789
0
VERTEX
8
CUT
10
148.6465
20
-122.8625
0
VERTEX
8
CUT
10
148.5777
20
-122.8416
0
VERTEX
8
CUT
10
148.5103
20
-122.8163
0
VERTEX
8
CUT
10
148.4447
20
-122.7866
0
VERTEX
8
CUT
10
148.3813
20
-122.7526
0
VERTEX
8
CUT
10
148.3201
20
-122.7146
0
VERTEX
8
CUT
10
148.2616
20
-122.6727
0
VERTEX
8
CUT
10
148.2060
20
-122.6270
0
VERTEX
8
CUT
10
148.1534
20
-122.5778
0
VERTEX
8
CUT
10
148.1042
20
-122.5253
0
VERTEX
8
CUT
10
148.0586
20
-122.4696
0
VERTEX
8
CUT
10
148.0166
20
-122.4111
0
VERTEX
8
CUT
10
147.9786
20
-122.3500
0
VERTEX
8
CUT
10
147.9447
20
-122.2865
0
VERTEX
8
CUT
10
147.9150
20
-122.2210
0
VERTEX
8
CUT
10
147.8896
20
-122.1536
0
VERTEX
8
CUT
10
147.8687
20
-122.0847
0
VERTEX
8
CUT
10
147.8524
20
-122.0146
0
VERTEX
8
CUT
10
147.8407
20
-121.9436
0
VERTEX
8
CUT
10
147.8336
20
-121.8719
0
VERTEX
8
CUT
10
147.8312
20
-121.8000
0
VERTEX
8
CUT
10
147.8336
20
-121.7281
0
VERTEX
8
CUT
10
147.8407
20
-121.6564
0
VERTEX
8
CUT
10
147.8524
20
-121.5854
0
VERTEX
8
CUT
10
147.8687
20
-121.5153
0
VERTEX
8
CUT
10
147.8896
20
-121.4464
0
VERTEX
8
CUT
10
147.9150
20
-121.3790
0
VERTEX
8
CUT
10
147.9447
20
-121.3135
0
VERTEX
8
CUT
10
147.9786
20
-121.2500
0
VERTEX
8
CUT
10
148.0166
20
-121.1889
0
VERTEX
8
CUT
10
148.0586
20
-121.1304
0
VERTEX
8
CUT
10
148.1042
20
-121.0747
0
VERTEX
8
CUT
10
148.1534
20
-121.0222
0
VERTEX
8
CUT
10
148.2060
20
-120.9730
0
VERTEX
8
CUT
10
148.2616
20
-120.9273
0
VERTEX
8
CUT
10
148.3201
20
-120.8854
0
VERTEX
8
CUT
10
148.3813
20
-120.8474
0
VERTEX
8
CUT
10
148.4447
20
-120.8134
0
VERTEX
8
CUT
10
148.5103
20
-120.7837
0
VERTEX
8
CUT
10
148.5777
20
-120.7584
0
VERTEX
8
CUT
10
148.6465
20
-120.7375
0
VERTEX
8
CUT
10
148.7167
20
-120.7211
0
VERTEX
8
CUT
10
148.7877
20
-120.7094
0
VERTEX
8
CUT
10
148.8593
20
-120.7024
0
VERTEX
8
CUT
10
148.9312
20
-120.7000
0
VERTEX
8
CUT
10
149.0032
20
-120.7024
0
VERTEX
8
CUT
10
149.0748
20
-120.7094
0
VERTEX
8
CUT
10
149.1458
20
-120.7211
0
VERTEX
8
CUT
10
149.2160
20
-120.7375
0
VERTEX
8
CUT
10
149.2848
20
-120.7584
0
VERTEX
8
CUT
10
149.3522
20
-120.7837
0
VERTEX
8
CUT
10
149.4178
20
-120.8134
0
VERTEX
8
CUT
10
149.4813
20
-120.8474
0
VERTEX
8
CUT
10
149.5424
20
-120.8854
0
VERTEX
8
CUT
10
149.6009
20
-120.9273
0
VERTEX
8
CUT
10
149.6565
20
-120.9730
0
VERTEX
8
CUT
10
149.7091
20
-121.0222
0
VERTEX
8
CUT
10
149.7583
20
-121.0747
0
VERTEX
8
CUT
10
149.8039
20
-121.1304
0
VERTEX
8
CUT
10
149.8459
20
-121.1889
0
VERTEX
8
CUT
10
149.8839
20
-121.2500
0
VERTEX
8
CUT
10
149.9178
20
-121.3135
0
VERTEX
8
CUT
10
149.9475
20
-121.3790
0
VERTEX
8
CUT
10
149.9729
20
-121.4464
0
VERTEX
8
CUT
10
149.9938
20
-121.5153
0
VERTEX
8
CUT
10
150.0101
20
-121.5854
0
VERTEX
8
CUT
10
150.0218
20
-121.6564
0
VERTEX
8
CUT
10
150.0289
20
-121.7281
0
VERTEX
8
CUT
10
150.0312
20
-121.8000
0
VERTEX
8
CUT
10
150.0289
20
-121.8719
0
VERTEX
8
CUT
10
150.0218
20
-121.9436
0
VERTEX
8
CUT
10
150.0101
20
-122.0146
0
VERTEX
8
CUT
10
149.9938
20
-122.0847
0
VERTEX
8
CUT
10
149.9729
20
-122.1536
0
VERTEX
8
CUT
10
149.9475
20
-122.2210
0
VERTEX
8
CUT
10
149.9178
20
-122.2865
0
VERTEX
8
CUT
10
149.8839
20
-122.3500
0
VERTEX
8
CUT
10
149.8459
20
-122.4111
0
VERTEX
8
CUT
10
149.8039
20
-122.4696
0
VERTEX
8
CUT
10
149.7583
20
-122.5253
0
VERTEX
8
CUT
10
149.7091
20
-122.5778
0
VERTEX
8
CUT
10
149.6565
20
-122.6270
0
VERTEX
8
CUT
10
149.6009
20
-122.6727
0
VERTEX
8
CUT
10
149.5424
20
-122.7146
0
VERTEX
8
CUT
10
149.4813
20
-122.7526
0
VERTEX
8
CUT
10
149.4178
20
-122.7866
0
VERTEX
8
CUT
10
149.3522
20
-122.8163
0
VERTEX
8
CUT
10
149.2848
20
-122.8416
0
VERTEX
8
CUT
10
149.2160
20
-122.8625
0
VERTEX
8
CUT
10
149.1458
20
-122.8789
0
VERTEX
8
CUT
10
149.0748
20
-122.8906
0
VERTEX
8
CUT
10
149.0032
20
-122.8976
0
VERTEX
8
CUT
10
148.9312
20
-122.9000
0
SEQEND
0
ENDSEC
0
EOF
