0
SECTION
2
HEADER
9
$INSUNITS
70
4
0
ENDSEC
0
SECTION
2
ENTITIES
0
POLYLINE
8
CUT
66
1
70
1
0
VERTEX
8
CUT
10
193.3925
20
-125.7732
0
VERTEX
8
CUT
10
194.2066
20
-125.6931
0
VERTEX
8
CUT
10
195.0136
20
-125.5598
0
VERTEX
8
CUT
10
195.8102
20
-125.3741
0
VERTEX
8
CUT
10
196.5930
20
-125.1366
0
VERTEX
8
CUT
10
197.3585
20
-124.8485
0
VERTEX
8
CUT
10
198.1036
20
-124.5109
0
VERTEX
8
CUT
10
198.8250
20
-124.1253
0
VERTEX
8
CUT
10
199.5196
20
-123.6934
0
VERTEX
8
CUT
10
200.1845
20
-123.2169
0
VERTEX
8
CUT
10
200.8168
20
-122.6980
0
VERTEX
8
CUT
10
201.4138
20
-122.1388
0
VERTEX
8
CUT
10
201.9730
20
-121.5418
0
VERTEX
8
CUT
10
202.4919
20
-120.9095
0
VERTEX
8
CUT
10
202.9684
20
-120.2446
0
VERTEX
8
CUT
10
203.4003
20
-119.5500
0
VERTEX
8
CUT
10
203.7859
20
-118.8286
0
VERTEX
8
CUT
10
204.1235
20
-118.0835
0
VERTEX
8
CUT
10
204.4116
20
-117.3180
0
VERTEX
8
CUT
10
204.6491
20
-116.5352
0
VERTEX
8
CUT
10
204.8348
20
-115.7386
0
VERTEX
8
CUT
10
204.9681
20
-114.9316
0
VERTEX
8
CUT
10
205.0482
20
-114.1175
0
VERTEX
8
CUT
10
205.0750
20
-113.3000
0
VERTEX
8
CUT
10
205.0750
20
4.0000
0
VERTEX
8
CUT
10
205.0482
20
4.8175
0
VERTEX
8
CUT
10
204.9681
20
5.6316
0
VERTEX
8
CUT
10
204.8348
20
6.4386
0
VERTEX
8
CUT
10
204.6491
20
7.2352
0
VERTEX
8
CUT
10
204.4116
20
8.0180
0
VERTEX
8
CUT
10
204.1235
20
8.7835
0
VERTEX
8
CUT
10
203.7859
20
9.5286
0
VERTEX
8
CUT
10
203.4003
20
10.2500
0
VERTEX
8
CUT
10
202.9684
20
10.9446
0
VERTEX
8
CUT
10
202.4919
20
11.6095
0
VERTEX
8
CUT
10
201.9730
20
12.2418
0
VERTEX
8
CUT
10
201.4138
20
12.8388
0
VERTEX
8
CUT
10
200.8168
20
13.3980
0
VERTEX
8
CUT
10
200.1845
20
13.9169
0
VERTEX
8
CUT
10
199.5196
20
14.3934
0
VERTEX
8
CUT
10
198.8250
20
14.8253
0
VERTEX
8
CUT
10
198.1036
20
15.2109
0
VERTEX
8
CUT
10
197.3585
20
15.5485
0
VERTEX
8
CUT
10
196.5930
20
15.8366
0
VERTEX
8
CUT
10
195.8102
20
16.0741
0
VERTEX
8
CUT
10
195.0136
20
16.2598
0
VERTEX
8
CUT
10
194.2066
20
16.3931
0
VERTEX
8
CUT
10
193.3925
20
16.4732
0
VERTEX
8
CUT
10
192.5750
20
16.5000
0
VERTEX
8
CUT
10
1.0000
20
16.5000
0
VERTEX
8
CUT
10
0.1825
20
16.4732
0
VERTEX
8
CUT
10
-0.6316
20
16.3931
0
VERTEX
8
CUT
10
-1.4386
20
16.2598
0
VERTEX
8
CUT
10
-2.2352
20
16.0741
0
VERTEX
8
CUT
10
-3.0180
20
15.8366
0
VERTEX
8
CUT
10
-3.7835
20
15.5485
0
VERTEX
8
CUT
10
-4.5286
20
15.2109
0
VERTEX
8
CUT
10
-5.2500
20
14.8253
0
VERTEX
8
CUT
10
-5.9446
20
14.3934
0
VERTEX
8
CUT
10
-6.6095
20
13.9169
0
VERTEX
8
CUT
10
-7.2418
20
13.3980
0
VERTEX
8
CUT
10
-7.8388
20
12.8388
0
VERTEX
8
CUT
10
-8.3980
20
12.2418
0
VERTEX
8
CUT
10
-8.9169
20
11.6095
0
VERTEX
8
CUT
10
-9.3934
20
10.9446
0
VERTEX
8
CUT
10
-9.8253
20
10.2500
0
VERTEX
8
CUT
10
-10.2109
20
9.5286
0
VERTEX
8
CUT
10
-10.5485
20
8.7835
0
VERTEX
8
CUT
10
-10.8366
20
8.0180
0
VERTEX
8
CUT
10
-11.0741
20
7.2352
0
VERTEX
8
CUT
10
-11.2598
20
6.4386
0
VERTEX
8
CUT
10
-11.3931
20
5.6316
0
VERTEX
8
CUT
10
-11.4732
20
4.8175
0
VERTEX
8
CUT
10
-11.5000
20
4.0000
0
VERTEX
8
CUT
10
-11.5000
20
-113.3000
0
VERTEX
8
CUT
10
-11.4732
20
-114.1175
0
VERTEX
8
CUT
10
-11.3931
20
-114.9316
0
VERTEX
8
CUT
10
-11.2598
20
-115.7386
0
VERTEX
8
CUT
10
-11.0741
20
-116.5352
0
VERTEX
8
CUT
10
-10.8366
20
-117.3180
0
VERTEX
8
CUT
10
-10.5485
20
-118.0835
0
VERTEX
8
CUT
10
-10.2109
20
-118.8286
0
VERTEX
8
CUT
10
-9.8253
20
-119.5500
0
VERTEX
8
CUT
10
-9.3934
20
-120.2446
0
VERTEX
8
CUT
10
-8.9169
20
-120.9095
0
VERTEX
8
CUT
10
-8.3980
20
-121.5418
0
VERTEX
8
CUT
10
-7.8388
20
-122.1388
0
VERTEX
8
CUT
10
-7.2418
20
-122.6980
0
VERTEX
8
CUT
10
-6.6095
20
-123.2169
0
VERTEX
8
CUT
10
-5.9446
20
-123.6934
0
VERTEX
8
CUT
10
-5.2500
20
-124.1253
0
VERTEX
8
CUT
10
-4.5286
20
-124.5109
0
VERTEX
8
CUT
10
-3.7835
20
-124.8485
0
VERTEX
8
CUT
10
-3.0180
20
-125.1366
0
VERTEX
8
CUT
10
-2.2352
20
-125.3741
0
VERTEX
8
CUT
10
-1.4386
20
-125.5598
0
VERTEX
8
CUT
10
-0.6316
20
-125.6931
0
VERTEX
8
CUT
10
0.1825
20
-125.7732
0
VERTEX
8
CUT
10
1.0000
20
-125.8000
0
VERTEX
8
CUT
10
192.5750
20
-125.8000
0
SEQEND
0
POLYLINE
8
CUT
66
1
70
1
0
VERTEX
8
CUT
10
44.5718
20
11.4024
0
VERTEX
8
CUT
10
44.5002
20
11.4094
0
VERTEX
8
CUT
10
44.4292
20
11.4211
0
VERTEX
8
CUT
10
44.3590
20
11.4375
0
VERTEX
8
CUT
10
44.2902
20
11.4584
0
VERTEX
8
CUT
10
44.2228
20
11.4837
0
VERTEX
8
CUT
10
44.1572
20
11.5134
0
VERTEX
8
CUT
10
44.0938
20
11.5474
0
VERTEX
8
CUT
10
44.0326
20
11.5854
0
VERTEX
8
CUT
10
43.9741
20
11.6273
0
VERTEX
8
CUT
10
43.9185
20
11.6730
0
VERTEX
8
CUT
10
43.8659
20
11.7222
0
VERTEX
8
CUT
10
43.8167
20
11.7747
0
VERTEX
8
CUT
10
43.7711
20
11.8304
0
VERTEX
8
CUT
10
43.7291
20
11.8889
0
VERTEX
8
CUT
10
43.6911
20
11.9500
0
VERTEX
8
CUT
10
43.6572
20
12.0135
0
VERTEX
8
CUT
10
43.6275
20
12.0790
0
VERTEX
8
CUT
10
43.6021
20
12.1464
0
VERTEX
8
CUT
10
43.5812
20
12.2153
0
VERTEX
8
CUT
10
43.5649
20
12.2854
0
VERTEX
8
CUT
10
43.5532
20
12.3564
0
VERTEX
8
CUT
10
43.5461
20
12.4281
0
VERTEX
8
CUT
10
43.5438
20
12.5000
0
VERTEX
8
CUT
10
43.5461
20
12.5719
0
VERTEX
8
CUT
10
43.5532
20
12.6436
0
VERTEX
8
CUT
10
43.5649
20
12.7146
0
VERTEX
8
CUT
10
43.5812
20
12.7847
0
VERTEX
8
CUT
10
43.6021
20
12.8536
0
VERTEX
8
CUT
10
43.6275
20
12.9210
0
VERTEX
8
CUT
10
43.6572
20
12.9865
0
VERTEX
8
CUT
10
43.6911
20
13.0500
0
VERTEX
8
CUT
10
43.7291
20
13.1111
0
VERTEX
8
CUT
10
43.7711
20
13.1696
0
VERTEX
8
CUT
10
43.8167
20
13.2253
0
VERTEX
8
CUT
10
43.8659
20
13.2778
0
VERTEX
8
CUT
10
43.9185
20
13.3270
0
VERTEX
8
CUT
10
43.9741
20
13.3727
0
VERTEX
8
CUT
10
44.0326
20
13.4146
0
VERTEX
8
CUT
10
44.0938
20
13.4526
0
VERTEX
8
CUT
10
44.1572
20
13.4866
0
VERTEX
8
CUT
10
44.2228
20
13.5163
0
VERTEX
8
CUT
10
44.2902
20
13.5416
0
VERTEX
8
CUT
10
44.3590
20
13.5625
0
VERTEX
8
CUT
10
44.4292
20
13.5789
0
VERTEX
8
CUT
10
44.5002
20
13.5906
0
VERTEX
8
CUT
10
44.5718
20
13.5976
0
VERTEX
8
CUT
10
44.6437
20
13.6000
0
VERTEX
8
CUT
10
44.7157
20
13.5976
0
VERTEX
8
CUT
10
44.7873
20
13.5906
0
VERTEX
8
CUT
10
44.8583
20
13.5789
0
VERTEX
8
CUT
10
44.9285
20
13.5625
0
VERTEX
8
CUT
10
44.9973
20
13.5416
0
VERTEX
8
CUT
10
45.0647
20
13.5163
0
VERTEX
8
CUT
10
45.1303
20
13.4866
0
VERTEX
8
CUT
10
45.1938
20
13.4526
0
VERTEX
8
CUT
10
45.2549
20
13.4146
0
VERTEX
8
CUT
10
45.3134
20
13.3727
0
VERTEX
8
CUT
10
45.3690
20
13.3270
0
VERTEX
8
CUT
10
45.4216
20
13.2778
0
VERTEX
8
CUT
10
45.4708
20
13.2253
0
VERTEX
8
CUT
10
45.5164
20
13.1696
0
VERTEX
8
CUT
10
45.5584
20
13.1111
0
VERTEX
8
CUT
10
45.5964
20
13.0500
0
VERTEX
8
CUT
10
45.6303
20
12.9865
0
VERTEX
8
CUT
10
45.6600
20
12.9210
0
VERTEX
8
CUT
10
45.6854
20
12.8536
0
VERTEX
8
CUT
10
45.7063
20
12.7847
0
VERTEX
8
CUT
10
45.7226
20
12.7146
0
VERTEX
8
CUT
10
45.7343
20
12.6436
0
VERTEX
8
CUT
10
45.7414
20
12.5719
0
VERTEX
8
CUT
10
45.7437
20
12.5000
0
VERTEX
8
CUT
10
45.7414
20
12.4281
0
VERTEX
8
CUT
10
45.7343
20
12.3564
0
VERTEX
8
CUT
10
45.7226
20
12.2854
0
VERTEX
8
CUT
10
45.7063
20
12.2153
0
VERTEX
8
CUT
10
45.6854
20
12.1464
0
VERTEX
8
CUT
10
45.6600
20
12.0790
0
VERTEX
8
CUT
10
45.6303
20
12.0135
0
VERTEX
8
CUT
10
45.5964
20
11.9500
0
VERTEX
8
CUT
10
45.5584
20
11.8889
0
VERTEX
8
CUT
10
45.5164
20
11.8304
0
VERTEX
8
CUT
10
45.4708
20
11.7747
0
VERTEX
8
CUT
10
45.4216
20
11.7222
0
VERTEX
8
CUT
10
45.3690
20
11.6730
0
VERTEX
8
CUT
10
45.3134
20
11.6273
0
VERTEX
8
CUT
10
45.2549
20
11.5854
0
VERTEX
8
CUT
10
45.1938
20
11.5474
0
VERTEX
8
CUT
10
45.1303
20
11.5134
0
VERTEX
8
CUT
10
45.0647
20
11.4837
0
VERTEX
8
CUT
10
44.9973
20
11.4584
0
VERTEX
8
CUT
10
44.9285
20
11.4375
0
VERTEX
8
CUT
10
44.8583
20
11.4211
0
VERTEX
8
CUT
10
44.7873
20
11.4094
0
VERTEX
8
CUT
10
44.7157
20
11.4024
0
VERTEX
8
CUT
10
44.6437
20
11.4000
0
SEQEND
0
POLYLINE
8
CUT
66
1
70
1
0
VERTEX
8
CUT
10
96.7156
20
11.4024
0
VERTEX
8
CUT
10
96.6439
20
11.4094
0
VERTEX
8
CUT
10
96.5729
20
11.4211
0
VERTEX
8
CUT
10
96.5028
20
11.4375
0
VERTEX
8
CUT
10
96.4339
20
11.4584
0
VERTEX
8
CUT
10
96.3665
20
11.4837
0
VERTEX
8
CUT
10
96.3010
20
11.5134
0
VERTEX
8
CUT
10
96.2375
20
11.5474
0
VERTEX
8
CUT
10
96.1764
20
11.5854
0
VERTEX
8
CUT
10
96.1179
20
11.6273
0
VERTEX
8
CUT
10
96.0622
20
11.6730
0
VERTEX
8
CUT
10
96.0097
20
11.7222
0
VERTEX
8
CUT
10
95.9605
20
11.7747
0
VERTEX
8
CUT
10
95.9148
20
11.8304
0
VERTEX
8
CUT
10
95.8729
20
11.8889
0
VERTEX
8
CUT
10
95.8349
20
11.9500
0
VERTEX
8
CUT
10
95.8009
20
12.0135
0
VERTEX
8
CUT
10
95.7712
20
12.0790
0
VERTEX
8
CUT
10
95.7459
20
12.1464
0
VERTEX
8
CUT
10
95.7250
20
12.2153
0
VERTEX
8
CUT
10
95.7086
20
12.2854
0
VERTEX
8
CUT
10
95.6969
20
12.3564
0
VERTEX
8
CUT
10
95.6899
20
12.4281
0
VERTEX
8
CUT
10
95.6875
20
12.5000
0
VERTEX
8
CUT
10
95.6899
20
12.5719
0
VERTEX
8
CUT
10
95.6969
20
12.6436
0
VERTEX
8
CUT
10
95.7086
20
12.7146
0
VERTEX
8
CUT
10
95.7250
20
12.7847
0
VERTEX
8
CUT
10
95.7459
20
12.8536
0
VERTEX
8
CUT
10
95.7712
20
12.9210
0
VERTEX
8
CUT
10
95.8009
20
12.9865
0
VERTEX
8
CUT
10
95.8349
20
13.0500
0
VERTEX
8
CUT
10
95.8729
20
13.1111
0
VERTEX
8
CUT
10
95.9148
20
13.1696
0
VERTEX
8
CUT
10
95.9605
20
13.2253
0
VERTEX
8
CUT
10
96.0097
20
13.2778
0
VERTEX
8
CUT
10
96.0622
20
13.3270
0
VERTEX
8
CUT
10
96.1179
20
13.3727
0
VERTEX
8
CUT
10
96.1764
20
13.4146
0
VERTEX
8
CUT
10
96.2375
20
13.4526
0
VERTEX
8
CUT
10
96.3010
20
13.4866
0
VERTEX
8
CUT
10
96.3665
20
13.5163
0
VERTEX
8
CUT
10
96.4339
20
13.5416
0
VERTEX
8
CUT
10
96.5028
20
13.5625
0
VERTEX
8
CUT
10
96.5729
20
13.5789
0
VERTEX
8
CUT
10
96.6439
20
13.5906
0
VERTEX
8
CUT
10
96.7156
20
13.5976
0
VERTEX
8
CUT
10
96.7875
20
13.6000
0
VERTEX
8
CUT
10
96.8594
20
13.5976
0
VERTEX
8
CUT
10
96.9311
20
13.5906
0
VERTEX
8
CUT
10
97.0021
20
13.5789
0
VERTEX
8
CUT
10
97.0722
20
13.5625
0
VERTEX
8
CUT
10
97.1411
20
13.5416
0
VERTEX
8
CUT
10
97.2085
20
13.5163
0
VERTEX
8
CUT
10
97.2740
20
13.4866
0
VERTEX
8
CUT
10
97.3375
20
13.4526
0
VERTEX
8
CUT
10
97.3986
20
13.4146
0
VERTEX
8
CUT
10
97.4571
20
13.3727
0
VERTEX
8
CUT
10
97.5128
20
13.3270
0
VERTEX
8
CUT
10
97.5653
20
13.2778
0
VERTEX
8
CUT
10
97.6145
20
13.2253
0
VERTEX
8
CUT
10
97.6602
20
13.1696
0
VERTEX
8
CUT
10
97.7021
20
13.1111
0
VERTEX
8
CUT
10
97.7401
20
13.0500
0
VERTEX
8
CUT
10
97.7741
20
12.9865
0
VERTEX
8
CUT
10
97.8038
20
12.9210
0
VERTEX
8
CUT
10
97.8291
20
12.8536
0
VERTEX
8
CUT
10
97.8500
20
12.7847
0
VERTEX
8
CUT
10
97.8664
20
12.7146
0
VERTEX
8
CUT
10
97.8781
20
12.6436
0
VERTEX
8
CUT
10
97.8851
20
12.5719
0
VERTEX
8
CUT
10
97.8875
20
12.5000
0
VERTEX
8
CUT
10
97.8851
20
12.4281
0
VERTEX
8
CUT
10
97.8781
20
12.3564
0
VERTEX
8
CUT
10
97.8664
20
12.2854
0
VERTEX
8
CUT
10
97.8500
20
12.2153
0
VERTEX
8
CUT
10
97.8291
20
12.1464
0
VERTEX
8
CUT
10
97.8038
20
12.0790
0
VERTEX
8
CUT
10
97.7741
20
12.0135
0
VERTEX
8
CUT
10
97.7401
20
11.9500
0
VERTEX
8
CUT
10
97.7021
20
11.8889
0
VERTEX
8
CUT
10
97.6602
20
11.8304
0
VERTEX
8
CUT
10
97.6145
20
11.7747
0
VERTEX
8
CUT
10
97.5653
20
11.7222
0
VERTEX
8
CUT
10
97.5128
20
11.6730
0
VERTEX
8
CUT
10
97.4571
20
11.6273
0
VERTEX
8
CUT
10
97.3986
20
11.5854
0
VERTEX
8
CUT
10
97.3375
20
11.5474
0
VERTEX
8
CUT
10
97.2740
20
11.5134
0
VERTEX
8
CUT
10
97.2085
20
11.4837
0
VERTEX
8
CUT
10
97.1411
20
11.4584
0
VERTEX
8
CUT
10
97.0722
20
11.4375
0
VERTEX
8
CUT
10
97.0021
20
11.4211
0
VERTEX
8
CUT
10
96.9311
20
11.4094
0
VERTEX
8
CUT
10
96.8594
20
11.4024
0
VERTEX
8
CUT
10
96.7875
20
11.4000
0
SEQEND
0
POLYLINE
8
CUT
66
1
70
1
0
VERTEX
8
CUT
10
148.8593
20
11.4024
0
VERTEX
8
CUT
10
148.7877
20
11.4094
0
VERTEX
8
CUT
10
148.7167
20
11.4211
0
VERTEX
8
CUT
10
148.6465
20
11.4375
0
VERTEX
8
CUT
10
148.5777
20
11.4584
0
VERTEX
8
CUT
10
148.5103
20
11.4837
0
VERTEX
8
CUT
10
148.4447
20
11.5134
0
VERTEX
8
CUT
10
148.3813
20
11.5474
0
VERTEX
8
CUT
10
148.3201
20
11.5854
0
VERTEX
8
CUT
10
148.2616
20
11.6273
0
VERTEX
8
CUT
10
148.2060
20
11.6730
0
VERTEX
8
CUT
10
148.1534
20
11.7222
0
VERTEX
8
CUT
10
148.1042
20
11.7747
0
VERTEX
8
CUT
10
148.0586
20
11.8304
0
VERTEX
8
CUT
10
148.0166
20
11.8889
0
VERTEX
8
CUT
10
147.9786
20
11.9500
0
VERTEX
8
CUT
10
147.9447
20
12.0135
0
VERTEX
8
CUT
10
147.9150
20
12.0790
0
VERTEX
8
CUT
10
147.8896
20
12.1464
0
VERTEX
8
CUT
10
147.8687
20
12.2153
0
VERTEX
8
CUT
10
147.8524
20
12.2854
0
VERTEX
8
CUT
10
147.8407
20
12.3564
0
VERTEX
8
CUT
10
147.8336
20
12.4281
0
VERTEX
8
CUT
10
147.8312
20
12.5000
0
VERTEX
8
CUT
10
147.8336
20
12.5719
0
VERTEX
8
CUT
10
147.8407
20
12.6436
0
VERTEX
8
CUT
10
147.8524
20
12.7146
0
VERTEX
8
CUT
10
147.8687
20
12.7847
0
VERTEX
8
CUT
10
147.8896
20
12.8536
0
VERTEX
8
CUT
10
147.9150
20
12.9210
0
VERTEX
8
CUT
10
147.9447
20
12.9865
0
VERTEX
8
CUT
10
147.9786
20
13.0500
0
VERTEX
8
CUT
10
148.0166
20
13.1111
0
VERTEX
8
CUT
10
148.0586
20
13.1696
0
VERTEX
8
CUT
10
148.1042
20
13.2253
0
VERTEX
8
CUT
10
148.1534
20
13.2778
0
VERTEX
8
CUT
10
148.2060
20
13.3270
0
VERTEX
8
CUT
10
148.2616
20
13.3727
0
VERTEX
8
CUT
10
148.3201
20
13.4146
0
VERTEX
8
CUT
10
148.3813
20
13.4526
0
VERTEX
8
CUT
10
148.4447
20
13.4866
0
VERTEX
8
CUT
10
148.5103
20
13.5163
0
VERTEX
8
CUT
10
148.5777
20
13.5416
0
VERTEX
8
CUT
10
148.6465
20
13.5625
0
VERTEX
8
CUT
10
148.7167
20
13.5789
0
VERTEX
8
CUT
10
148.7877
20
13.5906
0
VERTEX
8
CUT
10
148.8593
20
13.5976
0
VERTEX
8
CUT
10
148.9312
20
13.6000
0
VERTEX
8
CUT
10
149.0032
20
13.5976
0
VERTEX
8
CUT
10
149.0748
20
13.5906
0
VERTEX
8
CUT
10
149.1458
20
13.5789
0
VERTEX
8
CUT
10
149.2160
20
13.5625
0
VERTEX
8
CUT
10
149.2848
20
13.5416
0
VERTEX
8
CUT
10
149.3522
20
13.5163
0
VERTEX
8
CUT
10
149.4178
20
13.4866
0
VERTEX
8
CUT
10
149.4813
20
13.4526
0
VERTEX
8
CUT
10
149.5424
20
13.4146
0
VERTEX
8
CUT
10
149.6009
20
13.3727
0
VERTEX
8
CUT
10
149.6565
20
13.3270
0
VERTEX
8
CUT
10
149.7091
20
13.2778
0
VERTEX
8
CUT
10
149.7583
20
13.2253
0
VERTEX
8
CUT
10
149.8039
20
13.1696
0
VERTEX
8
CUT
10
149.8459
20
13.1111
0
VERTEX
8
CUT
10
149.8839
20
13.0500
0
VERTEX
8
CUT
10
149.9178
20
12.9865
0
VERTEX
8
CUT
10
149.9475
20
12.9210
0
VERTEX
8
CUT
10
149.9729
20
12.8536
0
VERTEX
8
CUT
10
149.9938
20
12.7847
0
VERTEX
8
CUT
10
150.0101
20
12.7146
0
VERTEX
8
CUT
10
150.0218
20
12.6436
0
VERTEX
8
CUT
10
150.0289
20
12.5719
0
VERTEX
8
CUT
10
150.0312
20
12.5000
0
VERTEX
8
CUT
10
150.0289
20
12.4281
0
VERTEX
8
CUT
10
150.0218
20
12.3564
0
VERTEX
8
CUT
10
150.0101
20
12.2854
0
VERTEX
8
CUT
10
149.9938
20
12.2153
0
VERTEX
8
CUT
10
149.9729
20
12.1464
0
VERTEX
8
CUT
10
149.9475
20
12.0790
0
VERTEX
8
CUT
10
149.9178
20
12.0135
0
VERTEX
8
CUT
10
149.8839
20
11.9500
0
VERTEX
8
CUT
10
149.8459
20
11.8889
0
VERTEX
8
CUT
10
149.8039
20
11.8304
0
VERTEX
8
CUT
10
149.7583
20
11.7747
0
VERTEX
8
CUT
10
149.7091
20
11.7222
0
VERTEX
8
CUT
10
149.6565
20
11.6730
0
VERTEX
8
CUT
10
149.6009
20
11.6273
0
VERTEX
8
CUT
10
149.5424
20
11.5854
0
VERTEX
8
CUT
10
149.4813
20
11.5474
0
VERTEX
8
CUT
10
149.4178
20
11.5134
0
VERTEX
8
CUT
10
149.3522
20
11.4837
0
VERTEX
8
CUT
10
149.2848
20
11.4584
0
VERTEX
8
CUT
10
149.2160
20
11.4375
0
VERTEX
8
CUT
10
149.1458
20
11.4211
0
VERTEX
8
CUT
10
149.0748
20
11.4094
0
VERTEX
8
CUT
10
149.0032
20
11.4024
0
VERTEX
8
CUT
10
148.9312
20
11.4000
0
SEQEND
0
POLYLINE
8
CUT
66
1
70
1
0
VERTEX
8
CUT
10
174.3593
20
11.4024
0
VERTEX
8
CUT
10
174.2876
20
11.4094
0
VERTEX
8
CUT
10
174.2166
20
11.4211
0
VERTEX
8
CUT
10
174.1465
20
11.4375
0
VERTEX
8
CUT
10
174.0776
20
11.4584
0
VERTEX
8
CUT
10
174.0102
20
11.4837
0
VERTEX
8
CUT
10
173.9447
20
11.5134
0
VERTEX
8
CUT
10
173.8812
20
11.5474
0
VERTEX
8
CUT
10
173.8201
20
11.5854
0
VERTEX
8
CUT
10
173.7616
20
11.6273
0
VERTEX
8
CUT
10
173.7059
20
11.6730
0
VERTEX
8
CUT
10
173.6534
20
11.7222
0
VERTEX
8
CUT
10
173.6042
20
11.7747
0
VERTEX
8
CUT
10
173.5585
20
11.8304
0
VERTEX
8
CUT
10
173.5166
20
11.8889
0
VERTEX
8
CUT
10
173.4786
20
11.9500
0
VERTEX
8
CUT
10
173.4446
20
12.0135
0
VERTEX
8
CUT
10
173.4149
20
12.0790
0
VERTEX
8
CUT
10
173.3896
20
12.1464
0
VERTEX
8
CUT
10
173.3687
20
12.2153
0
VERTEX
8
CUT
10
173.3523
20
12.2854
0
VERTEX
8
CUT
10
173.3406
20
12.3564
0
VERTEX
8
CUT
10
173.3336
20
12.4281
0
VERTEX
8
CUT
10
173.3312
20
12.5000
0
VERTEX
8
CUT
10
173.3336
20
12.5719
0
VERTEX
8
CUT
10
173.3406
20
12.6436
0
VERTEX
8
CUT
10
173.3523
20
12.7146
0
VERTEX
8
CUT
10
173.3687
20
12.7847
0
VERTEX
8
CUT
10
173.3896
20
12.8536
0
VERTEX
8
CUT
10
173.4149
20
12.9210
0
VERTEX
8
CUT
10
173.4446
20
12.9865
0
VERTEX
8
CUT
10
173.4786
20
13.0500
0
VERTEX
8
CUT
10
173.5166
20
13.1111
0
VERTEX
8
CUT
10
173.5585
20
13.1696
0
VERTEX
8
CUT
10
173.6042
20
13.2253
0
VERTEX
8
CUT
10
173.6534
20
13.2778
0
VERTEX
8
CUT
10
173.7059
20
13.3270
0
VERTEX
8
CUT
10
173.7616
20
13.3727
0
VERTEX
8
CUT
10
173.8201
20
13.4146
0
VERTEX
8
CUT
10
173.8812
20
13.4526
0
VERTEX
8
CUT
10
173.9447
20
13.4866
0
VERTEX
8
CUT
10
174.0102
20
13.5163
0
VERTEX
8
CUT
10
174.0776
20
13.5416
0
VERTEX
8
CUT
10
174.1465
20
13.5625
0
VERTEX
8
CUT
10
174.2166
20
13.5789
0
VERTEX
8
CUT
10
174.2876
20
13.5906
0
VERTEX
8
CUT
10
174.3593
20
13.5976
0
VERTEX
8
CUT
10
174.4312
20
13.6000
0
VERTEX
8
CUT
10
174.5031
20
13.5976
0
VERTEX
8
CUT
10
174.5748
20
13.5906
0
VERTEX
8
CUT
10
174.6458
20
13.5789
0
VERTEX
8
CUT
10
174.7159
20
13.5625
0
VERTEX
8
CUT
10
174.7848
20
13.5416
0
VERTEX
8
CUT
10
174.8521
20
13.5163
0
VERTEX
8
CUT
10
174.9177
20
13.4866
0
VERTEX
8
CUT
10
174.9812
20
13.4526
0
VERTEX
8
CUT
10
175.0423
20
13.4146
0
VERTEX
8
CUT
10
175.1008
20
13.3727
0
VERTEX
8
CUT
10
175.1565
20
13.3270
0
VERTEX
8
CUT
10
175.2090
20
13.2778
0
VERTEX
8
CUT
10
175.2582
20
13.2253
0
VERTEX
8
CUT
10
175.3039
20
13.1696
0
VERTEX
8
CUT
10
175.3458
20
13.1111
0
VERTEX
8
CUT
10
175.3838
20
13.0500
0
VERTEX
8
CUT
10
175.4178
20
12.9865
0
VERTEX
8
CUT
10
175.4475
20
12.9210
0
VERTEX
8
CUT
10
175.4728
20
12.8536
0
VERTEX
8
CUT
10
175.4937
20
12.7847
0
VERTEX
8
CUT
10
175.5101
20
12.7146
0
VERTEX
8
CUT
10
175.5218
20
12.6436
0
VERTEX
8
CUT
10
175.5288
20
12.5719
0
VERTEX
8
CUT
10
175.5312
20
12.5000
0
VERTEX
8
CUT
10
175.5288
20
12.4281
0
VERTEX
8
CUT
10
175.5218
20
12.3564
0
VERTEX
8
CUT
10
175.5101
20
12.2854
0
VERTEX
8
CUT
10
175.4937
20
12.2153
0
VERTEX
8
CUT
10
175.4728
20
12.1464
0
VERTEX
8
CUT
10
175.4475
20
12.0790
0
VERTEX
8
CUT
10
175.4178
20
12.0135
0
VERTEX
8
CUT
10
175.3838
20
11.9500
0
VERTEX
8
CUT
10
175.3458
20
11.8889
0
VERTEX
8
CUT
10
175.3039
20
11.8304
0
VERTEX
8
CUT
10
175.2582
20
11.7747
0
VERTEX
8
CUT
10
175.2090
20
11.7222
0
VERTEX
8
CUT
10
175.1565
20
11.6730
0
VERTEX
8
CUT
10
175.1008
20
11.6273
0
VERTEX
8
CUT
10
175.0423
20
11.5854
0
VERTEX
8
CUT
10
174.9812
20
11.5474
0
VERTEX
8
CUT
10
174.9177
20
11.5134
0
VERTEX
8
CUT
10
174.8521
20
11.4837
0
VERTEX
8
CUT
10
174.7848
20
11.4584
0
VERTEX
8
CUT
10
174.7159
20
11.4375
0
VERTEX
8
CUT
10
174.6458
20
11.4211
0
VERTEX
8
CUT
10
174.5748
20
11.4094
0
VERTEX
8
CUT
10
174.5031
20
11.4024
0
VERTEX
8
CUT
10
174.4312
20
11.4000
0
SEQEND
0
POLYLINE
8
CUT
66
1
70
1
0
VERTEX
8
CUT
10
-3.1483
20
-38.5949
0
VERTEX
8
CUT
10
-3.4753
20
-38.5842
0
VERTEX
8
CUT
10
-3.4818
20
-38.5838
0
VERTEX
8
CUT
10
-3.8074
20
-38.5517
0
VERTEX
8
CUT
10
-3.8074
20
-38.5517
0
VERTEX
8
CUT
10
-3.8139
20
-38.5509
0
VERTEX
8
CUT
10
-4.1367
20
-38.4976
0
VERTEX
8
CUT
10
-4.1432
20
-38.4963
0
VERTEX
8
CUT
10
-4.4618
20
-38.4220
0
VERTEX
8
CUT
10
-4.4681
20
-38.4203
0
VERTEX
8
CUT
10
-4.7812
20
-38.3253
0
VERTEX
8
CUT
10
-4.7874
20
-38.3232
0
VERTEX
8
CUT
10
-5.0936
20
-38.2080
0
VERTEX
8
CUT
10
-5.0997
20
-38.2055
0
VERTEX
8
CUT
10
-5.3977
20
-38.0705
0
VERTEX
8
CUT
10
-5.4036
20
-38.0676
0
VERTEX
8
CUT
10
-5.6921
20
-37.9133
0
VERTEX
8
CUT
10
-5.6978
20
-37.9100
0
VERTEX
8
CUT
10
-5.9757
20
-37.7373
0
VERTEX
8
CUT
10
-5.9757
20
-37.7373
0
VERTEX
8
CUT
10
-5.9811
20
-37.7336
0
VERTEX
8
CUT
10
-6.2471
20
-37.5431
0
VERTEX
8
CUT
10
-6.2522
20
-37.5391
0
VERTEX
8
CUT
10
-6.5052
20
-37.3315
0
VERTEX
8
CUT
10
-6.5101
20
-37.3272
0
VERTEX
8
CUT
10
-6.7489
20
-37.1035
0
VERTEX
8
CUT
10
-6.7535
20
-37.0989
0
VERTEX
8
CUT
10
-6.9772
20
-36.8601
0
VERTEX
8
CUT
10
-6.9815
20
-36.8552
0
VERTEX
8
CUT
10
-7.1891
20
-36.6022
0
VERTEX
8
CUT
10
-7.1931
20
-36.5971
0
VERTEX
8
CUT
10
-7.3836
20
-36.3311
0
VERTEX
8
CUT
10
-7.3873
20
-36.3257
0
VERTEX
8
CUT
10
-7.5600
20
-36.0478
0
VERTEX
8
CUT
10
-7.5633
20
-36.0421
0
VERTEX
8
CUT
10
-7.7176
20
-35.7536
0
VERTEX
8
CUT
10
-7.7205
20
-35.7477
0
VERTEX
8
CUT
10
-7.8555
20
-35.4497
0
VERTEX
8
CUT
10
-7.8580
20
-35.4436
0
VERTEX
8
CUT
10
-7.9732
20
-35.1374
0
VERTEX
8
CUT
10
-7.9732
20
-35.1374
0
VERTEX
8
CUT
10
-7.9753
20
-35.1312
0
VERTEX
8
CUT
10
-8.0703
20
-34.8181
0
VERTEX
8
CUT
10
-8.0720
20
-34.8118
0
VERTEX
8
CUT
10
-8.1463
20
-34.4932
0
VERTEX
8
CUT
10
-8.1476
20
-34.4867
0
VERTEX
8
CUT
10
-8.2009
20
-34.1639
0
VERTEX
8
CUT
10
-8.2017
20
-34.1574
0
VERTEX
8
CUT
10
-8.2338
20
-33.8318
0
VERTEX
8
CUT
10
-8.2342
20
-33.8253
0
VERTEX
8
CUT
10
-8.2449
20
-33.4983
0
VERTEX
8
CUT
10
-8.2450
20
-33.4950
0
VERTEX
8
CUT
10
-8.2450
20
5.3950
0
VERTEX
8
CUT
10
-8.2449
20
5.3983
0
VERTEX
8
CUT
10
-8.2342
20
5.7253
0
VERTEX
8
CUT
10
-8.2338
20
5.7318
0
VERTEX
8
CUT
10
-8.2017
20
6.0574
0
VERTEX
8
CUT
10
-8.2017
20
6.0574
0
VERTEX
8
CUT
10
-8.2009
20
6.0639
0
VERTEX
8
CUT
10
-8.1476
20
6.3867
0
VERTEX
8
CUT
10
-8.1463
20
6.3932
0
VERTEX
8
CUT
10
-8.0720
20
6.7118
0
VERTEX
8
CUT
10
-8.0703
20
6.7181
0
VERTEX
8
CUT
10
-7.9753
20
7.0312
0
VERTEX
8
CUT
10
-7.9732
20
7.0374
0
VERTEX
8
CUT
10
-7.8580
20
7.3436
0
VERTEX
8
CUT
10
-7.8555
20
7.3497
0
VERTEX
8
CUT
10
-7.7205
20
7.6477
0
VERTEX
8
CUT
10
-7.7176
20
7.6536
0
VERTEX
8
CUT
10
-7.5633
20
7.9421
0
VERTEX
8
CUT
10
-7.5600
20
7.9478
0
VERTEX
8
CUT
10
-7.3873
20
8.2257
0
VERTEX
8
CUT
10
-7.3873
20
8.2257
0
VERTEX
8
CUT
10
-7.3836
20
8.2311
0
VERTEX
8
CUT
10
-7.1931
20
8.4971
0
VERTEX
8
CUT
10
-7.1891
20
8.5022
0
VERTEX
8
CUT
10
-6.9815
20
8.7552
0
VERTEX
8
CUT
10
-6.9772
20
8.7601
0
VERTEX
8
CUT
10
-6.7535
20
8.9989
0
VERTEX
8
CUT
10
-6.7489
20
9.0035
0
VERTEX
8
CUT
10
-6.5101
20
9.2272
0
VERTEX
8
CUT
10
-6.5052
20
9.2315
0
VERTEX
8
CUT
10
-6.2522
20
9.4391
0
VERTEX
8
CUT
10
-6.2471
20
9.4431
0
VERTEX
8
CUT
10
-5.9811
20
9.6336
0
VERTEX
8
CUT
10
-5.9757
20
9.6373
0
VERTEX
8
CUT
10
-5.6978
20
9.8100
0
VERTEX
8
CUT
10
-5.6921
20
9.8133
0
VERTEX
8
CUT
10
-5.4036
20
9.9676
0
VERTEX
8
CUT
10
-5.3977
20
9.9705
0
VERTEX
8
CUT
10
-5.0997
20
10.1055
0
VERTEX
8
CUT
10
-5.0936
20
10.1080
0
VERTEX
8
CUT
10
-4.7874
20
10.2232
0
VERTEX
8
CUT
10
-4.7874
20
10.2232
0
VERTEX
8
CUT
10
-4.7812
20
10.2253
0
VERTEX
8
CUT
10
-4.4681
20
10.3203
0
VERTEX
8
CUT
10
-4.4618
20
10.3220
0
VERTEX
8
CUT
10
-4.1432
20
10.3963
0
VERTEX
8
CUT
10
-4.1367
20
10.3976
0
VERTEX
8
CUT
10
-3.8139
20
10.4509
0
VERTEX
8
CUT
10
-3.8074
20
10.4517
0
VERTEX
8
CUT
10
-3.4818
20
10.4838
0
VERTEX
8
CUT
10
-3.4753
20
10.4842
0
VERTEX
8
CUT
10
-3.1483
20
10.4949
0
VERTEX
8
CUT
10
-3.1450
20
10.4950
0
VERTEX
8
CUT
10
9.7450
20
10.4950
0
VERTEX
8
CUT
10
9.7483
20
10.4949
0
VERTEX
8
CUT
10
10.0753
20
10.4842
0
VERTEX
8
CUT
10
10.0818
20
10.4838
0
VERTEX
8
CUT
10
10.4074
20
10.4517
0
VERTEX
8
CUT
10
10.4074
20
10.4517
0
VERTEX
8
CUT
10
10.4139
20
10.4509
0
VERTEX
8
CUT
10
10.7367
20
10.3976
0
VERTEX
8
CUT
10
10.7432
20
10.3963
0
VERTEX
8
CUT
10
11.0618
20
10.3220
0
VERTEX
8
CUT
10
11.0681
20
10.3203
0
VERTEX
8
CUT
10
11.3812
20
10.2253
0
VERTEX
8
CUT
10
11.3874
20
10.2232
0
VERTEX
8
CUT
10
11.6936
20
10.1080
0
VERTEX
8
CUT
10
11.6997
20
10.1055
0
VERTEX
8
CUT
10
11.9977
20
9.9705
0
VERTEX
8
CUT
10
12.0036
20
9.9676
0
VERTEX
8
CUT
10
12.2921
20
9.8133
0
VERTEX
8
CUT
10
12.2978
20
9.8100
0
VERTEX
8
CUT
10
12.5757
20
9.6373
0
VERTEX
8
CUT
10
12.5757
20
9.6373
0
VERTEX
8
CUT
10
12.5811
20
9.6336
0
VERTEX
8
CUT
10
12.8471
20
9.4431
0
VERTEX
8
CUT
10
12.8522
20
9.4391
0
VERTEX
8
CUT
10
13.1052
20
9.2315
0
VERTEX
8
CUT
10
13.1101
20
9.2272
0
VERTEX
8
CUT
10
13.3489
20
9.0035
0
VERTEX
8
CUT
10
13.3535
20
8.9989
0
VERTEX
8
CUT
10
13.5772
20
8.7601
0
VERTEX
8
CUT
10
13.5815
20
8.7552
0
VERTEX
8
CUT
10
13.7891
20
8.5022
0
VERTEX
8
CUT
10
13.7931
20
8.4971
0
VERTEX
8
CUT
10
13.9836
20
8.2311
0
VERTEX
8
CUT
10
13.9873
20
8.2257
0
VERTEX
8
CUT
10
14.1600
20
7.9478
0
VERTEX
8
CUT
10
14.1633
20
7.9421
0
VERTEX
8
CUT
10
14.3176
20
7.6536
0
VERTEX
8
CUT
10
14.3204
20
7.6477
0
VERTEX
8
CUT
10
14.4555
20
7.3497
0
VERTEX
8
CUT
10
14.4580
20
7.3436
0
VERTEX
8
CUT
10
14.5732
20
7.0374
0
VERTEX
8
CUT
10
14.5732
20
7.0374
0
VERTEX
8
CUT
10
14.5753
20
7.0312
0
VERTEX
8
CUT
10
14.6703
20
6.7181
0
VERTEX
8
CUT
10
14.6720
20
6.7118
0
VERTEX
8
CUT
10
14.7463
20
6.3932
0
VERTEX
8
CUT
10
14.7476
20
6.3867
0
VERTEX
8
CUT
10
14.8009
20
6.0639
0
VERTEX
8
CUT
10
14.8017
20
6.0574
0
VERTEX
8
CUT
10
14.8338
20
5.7318
0
VERTEX
8
CUT
10
14.8342
20
5.7253
0
VERTEX
8
CUT
10
14.8449
20
5.3983
0
VERTEX
8
CUT
10
14.8450
20
5.3950
0
VERTEX
8
CUT
10
14.8450
20
-33.4950
0
VERTEX
8
CUT
10
14.8449
20
-33.4983
0
VERTEX
8
CUT
10
14.8342
20
-33.8253
0
VERTEX
8
CUT
10
14.8338
20
-33.8318
0
VERTEX
8
CUT
10
14.8017
20
-34.1574
0
VERTEX
8
CUT
10
14.8017
20
-34.1574
0
VERTEX
8
CUT
10
14.8009
20
-34.1639
0
VERTEX
8
CUT
10
14.7476
20
-34.4867
0
VERTEX
8
CUT
10
14.7463
20
-34.4932
0
VERTEX
8
CUT
10
14.6720
20
-34.8118
0
VERTEX
8
CUT
10
14.6703
20
-34.8181
0
VERTEX
8
CUT
10
14.5753
20
-35.1312
0
VERTEX
8
CUT
10
14.5732
20
-35.1374
0
VERTEX
8
CUT
10
14.4580
20
-35.4436
0
VERTEX
8
CUT
10
14.4555
20
-35.4497
0
VERTEX
8
CUT
10
14.3204
20
-35.7477
0
VERTEX
8
CUT
10
14.3176
20
-35.7536
0
VERTEX
8
CUT
10
14.1633
20
-36.0421
0
VERTEX
8
CUT
10
14.1600
20
-36.0478
0
VERTEX
8
CUT
10
13.9873
20
-36.3257
0
VERTEX
8
CUT
10
13.9873
20
-36.3257
0
VERTEX
8
CUT
10
13.9836
20
-36.3311
0
VERTEX
8
CUT
10
13.7931
20
-36.5971
0
VERTEX
8
CUT
10
13.7891
20
-36.6022
0
VERTEX
8
CUT
10
13.5815
20
-36.8552
0
VERTEX
8
CUT
10
13.5772
20
-36.8601
0
VERTEX
8
CUT
10
13.3535
20
-37.0989
0
VERTEX
8
CUT
10
13.3489
20
-37.1035
0
VERTEX
8
CUT
10
13.1101
20
-37.3272
0
VERTEX
8
CUT
10
13.1052
20
-37.3315
0
VERTEX
8
CUT
10
12.8522
20
-37.5391
0
VERTEX
8
CUT
10
12.8471
20
-37.5431
0
VERTEX
8
CUT
10
12.5811
20
-37.7336
0
VERTEX
8
CUT
10
12.5757
20
-37.7373
0
VERTEX
8
CUT
10
12.2978
20
-37.9100
0
VERTEX
8
CUT
10
12.2921
20
-37.9133
0
VERTEX
8
CUT
10
12.0036
20
-38.0676
0
VERTEX
8
CUT
10
11.9977
20
-38.0705
0
VERTEX
8
CUT
10
11.6997
20
-38.2055
0
VERTEX
8
CUT
10
11.6936
20
-38.2080
0
VERTEX
8
CUT
10
11.3874
20
-38.3232
0
VERTEX
8
CUT
10
11.3874
20
-38.3232
0
VERTEX
8
CUT
10
11.3812
20
-38.3253
0
VERTEX
8
CUT
10
11.0681
20
-38.4203
0
VERTEX
8
CUT
10
11.0618
20
-38.4220
0
VERTEX
8
CUT
10
10.7432
20
-38.4963
0
VERTEX
8
CUT
10
10.7367
20
-38.4976
0
VERTEX
8
CUT
10
10.4139
20
-38.5509
0
VERTEX
8
CUT
10
10.4074
20
-38.5517
0
VERTEX
8
CUT
10
10.0818
20
-38.5838
0
VERTEX
8
CUT
10
10.0753
20
-38.5842
0
VERTEX
8
CUT
10
9.7483
20
-38.5949
0
VERTEX
8
CUT
10
9.7450
20
-38.5950
0
VERTEX
8
CUT
10
-3.1450
20
-38.5950
0
SEQEND
0
POLYLINE
8
CUT
66
1
70
1
0
VERTEX
8
CUT
10
24.6500
20
-2.5250
0
VERTEX
8
CUT
10
38.6500
20
-2.5250
0
VERTEX
8
CUT
10
38.6500
20
-16.5250
0
VERTEX
8
CUT
10
24.6500
20
-16.5250
0
SEQEND
0
POLYLINE
8
CUT
66
1
70
1
0
VERTEX
8
CUT
10
43.7000
20
-2.5250
0
VERTEX
8
CUT
10
57.7000
20
-2.5250
0
VERTEX
8
CUT
10
57.7000
20
-16.5250
0
VERTEX
8
CUT
10
43.7000
20
-16.5250
0
SEQEND
0
POLYLINE
8
CUT
66
1
70
1
0
VERTEX
8
CUT
10
62.7500
20
-2.5250
0
VERTEX
8
CUT
10
76.7500
20
-2.5250
0
VERTEX
8
CUT
10
76.7500
20
-16.5250
0
VERTEX
8
CUT
10
62.7500
20
-16.5250
0
SEQEND
0
POLYLINE
8
CUT
66
1
70
1
0
VERTEX
8
CUT
10
81.8000
20
-2.5250
0
VERTEX
8
CUT
10
95.8000
20
-2.5250
0
VERTEX
8
CUT
10
95.8000
20
-16.5250
0
VERTEX
8
CUT
10
81.8000
20
-16.5250
0
SEQEND
0
POLYLINE
8
CUT
66
1
70
1
0
VERTEX
8
CUT
10
100.8500
20
-2.5250
0
VERTEX
8
CUT
10
114.8500
20
-2.5250
0
VERTEX
8
CUT
10
114.8500
20
-16.5250
0
VERTEX
8
CUT
10
100.8500
20
-16.5250
0
SEQEND
0
POLYLINE
8
CUT
66
1
70
1
0
VERTEX
8
CUT
10
119.9000
20
-2.5250
0
VERTEX
8
CUT
10
133.9000
20
-2.5250
0
VERTEX
8
CUT
10
133.9000
20
-16.5250
0
VERTEX
8
CUT
10
119.9000
20
-16.5250
0
SEQEND
0
POLYLINE
8
CUT
66
1
70
1
0
VERTEX
8
CUT
10
138.9500
20
-2.5250
0
VERTEX
8
CUT
10
152.9500
20
-2.5250
0
VERTEX
8
CUT
10
152.9500
20
-16.5250
0
VERTEX
8
CUT
10
138.9500
20
-16.5250
0
SEQEND
0
POLYLINE
8
CUT
66
1
70
1
0
VERTEX
8
CUT
10
201.0031
20
-15.2414
0
VERTEX
8
CUT
10
200.9314
20
-15.2344
0
VERTEX
8
CUT
10
200.8604
20
-15.2227
0
VERTEX
8
CUT
10
200.7903
20
-15.2063
0
VERTEX
8
CUT
10
200.7214
20
-15.1854
0
VERTEX
8
CUT
10
200.6540
20
-15.1601
0
VERTEX
8
CUT
10
200.5885
20
-15.1304
0
VERTEX
8
CUT
10
200.5250
20
-15.0964
0
VERTEX
8
CUT
10
200.4639
20
-15.0584
0
VERTEX
8
CUT
10
200.4054
20
-15.0165
0
VERTEX
8
CUT
10
200.3497
20
-14.9708
0
VERTEX
8
CUT
10
200.2972
20
-14.9216
0
VERTEX
8
CUT
10
200.2480
20
-14.8691
0
VERTEX
8
CUT
10
200.2023
20
-14.8134
0
VERTEX
8
CUT
10
200.1604
20
-14.7549
0
VERTEX
8
CUT
10
200.1224
20
-14.6938
0
VERTEX
8
CUT
10
200.0884
20
-14.6303
0
VERTEX
8
CUT
10
200.0587
20
-14.5648
0
VERTEX
8
CUT
10
200.0334
20
-14.4974
0
VERTEX
8
CUT
10
200.0125
20
-14.4285
0
VERTEX
8
CUT
10
199.9961
20
-14.3584
0
VERTEX
8
CUT
10
199.9844
20
-14.2874
0
VERTEX
8
CUT
10
199.9774
20
-14.2157
0
VERTEX
8
CUT
10
199.9750
20
-14.1438
0
VERTEX
8
CUT
10
199.9774
20
-14.0719
0
VERTEX
8
CUT
10
199.9844
20
-14.0002
0
VERTEX
8
CUT
10
199.9961
20
-13.9292
0
VERTEX
8
CUT
10
200.0125
20
-13.8591
0
VERTEX
8
CUT
10
200.0334
20
-13.7902
0
VERTEX
8
CUT
10
200.0587
20
-13.7229
0
VERTEX
8
CUT
10
200.0884
20
-13.6573
0
VERTEX
8
CUT
10
200.1224
20
-13.5938
0
VERTEX
8
CUT
10
200.1604
20
-13.5327
0
VERTEX
8
CUT
10
200.2023
20
-13.4742
0
VERTEX
8
CUT
10
200.2480
20
-13.4185
0
VERTEX
8
CUT
10
200.2972
20
-13.3660
0
VERTEX
8
CUT
10
200.3497
20
-13.3168
0
VERTEX
8
CUT
10
200.4054
20
-13.2711
0
VERTEX
8
CUT
10
200.4639
20
-13.2292
0
VERTEX
8
CUT
10
200.5250
20
-13.1912
0
VERTEX
8
CUT
10
200.5885
20
-13.1572
0
VERTEX
8
CUT
10
200.6540
20
-13.1275
0
VERTEX
8
CUT
10
200.7214
20
-13.1022
0
VERTEX
8
CUT
10
200.7903
20
-13.0813
0
VERTEX
8
CUT
10
200.8604
20
-13.0649
0
VERTEX
8
CUT
10
200.9314
20
-13.0532
0
VERTEX
8
CUT
10
201.0031
20
-13.0462
0
VERTEX
8
CUT
10
201.0750
20
-13.0438
0
VERTEX
8
CUT
10
201.1469
20
-13.0462
0
VERTEX
8
CUT
10
201.2186
20
-13.0532
0
VERTEX
8
CUT
10
201.2896
20
-13.0649
0
VERTEX
8
CUT
10
201.3597
20
-13.0813
0
VERTEX
8
CUT
10
201.4286
20
-13.1022
0
VERTEX
8
CUT
10
201.4960
20
-13.1275
0
VERTEX
8
CUT
10
201.5615
20
-13.1572
0
VERTEX
8
CUT
10
201.6250
20
-13.1912
0
VERTEX
8
CUT
10
201.6861
20
-13.2292
0
VERTEX
8
CUT
10
201.7446
20
-13.2711
0
VERTEX
8
CUT
10
201.8003
20
-13.3168
0
VERTEX
8
CUT
10
201.8528
20
-13.3660
0
VERTEX
8
CUT
10
201.9020
20
-13.4185
0
VERTEX
8
CUT
10
201.9477
20
-13.4742
0
VERTEX
8
CUT
10
201.9896
20
-13.5327
0
VERTEX
8
CUT
10
202.0276
20
-13.5938
0
VERTEX
8
CUT
10
202.0616
20
-13.6573
0
VERTEX
8
CUT
10
202.0913
20
-13.7229
0
VERTEX
8
CUT
10
202.1166
20
-13.7902
0
VERTEX
8
CUT
10
202.1375
20
-13.8591
0
VERTEX
8
CUT
10
202.1539
20
-13.9292
0
VERTEX
8
CUT
10
202.1656
20
-14.0002
0
VERTEX
8
CUT
10
202.1726
20
-14.0719
0
VERTEX
8
CUT
10
202.1750
20
-14.1438
0
VERTEX
8
CUT
10
202.1726
20
-14.2157
0
VERTEX
8
CUT
10
202.1656
20
-14.2874
0
VERTEX
8
CUT
10
202.1539
20
-14.3584
0
VERTEX
8
CUT
10
202.1375
20
-14.4285
0
VERTEX
8
CUT
10
202.1166
20
-14.4974
0
VERTEX
8
CUT
10
202.0913
20
-14.5648
0
VERTEX
8
CUT
10
202.0616
20
-14.6303
0
VERTEX
8
CUT
10
202.0276
20
-14.6938
0
VERTEX
8
CUT
10
201.9896
20
-14.7549
0
VERTEX
8
CUT
10
201.9477
20
-14.8134
0
VERTEX
8
CUT
10
201.9020
20
-14.8691
0
VERTEX
8
CUT
10
201.8528
20
-14.9216
0
VERTEX
8
CUT
10
201.8003
20
-14.9708
0
VERTEX
8
CUT
10
201.7446
20
-15.0165
0
VERTEX
8
CUT
10
201.6861
20
-15.0584
0
VERTEX
8
CUT
10
201.6250
20
-15.0964
0
VERTEX
8
CUT
10
201.5615
20
-15.1304
0
VERTEX
8
CUT
10
201.4960
20
-15.1601
0
VERTEX
8
CUT
10
201.4286
20
-15.1854
0
VERTEX
8
CUT
10
201.3597
20
-15.2063
0
VERTEX
8
CUT
10
201.2896
20
-15.2227
0
VERTEX
8
CUT
10
201.2186
20
-15.2344
0
VERTEX
8
CUT
10
201.1469
20
-15.2414
0
VERTEX
8
CUT
10
201.0750
20
-15.2438
0
SEQEND
0
POLYLINE
8
CUT
66
1
70
1
0
VERTEX
8
CUT
10
159.0870
20
-21.3750
0
VERTEX
8
CUT
10
166.0870
20
-21.3750
0
VERTEX
8
CUT
10
166.0870
20
-36.7750
0
VERTEX
8
CUT
10
159.0870
20
-36.7750
0
SEQEND
0
POLYLINE
8
CUT
66
1
70
1
0
VERTEX
8
CUT
10
182.9630
20
-21.3750
0
VERTEX
8
CUT
10
189.9630
20
-21.3750
0
VERTEX
8
CUT
10
189.9630
20
-36.7750
0
VERTEX
8
CUT
10
182.9630
20
-36.7750
0
SEQEND
0
POLYLINE
8
CUT
66
1
70
1
0
VERTEX
8
CUT
10
24.6500
20
-21.5750
0
VERTEX
8
CUT
10
38.6500
20
-21.5750
0
VERTEX
8
CUT
10
38.6500
20
-35.5750
0
VERTEX
8
CUT
10
24.6500
20
-35.5750
0
SEQEND
0
POLYLINE
8
CUT
66
1
70
1
0
VERTEX
8
CUT
10
43.7000
20
-21.5750
0
VERTEX
8
CUT
10
57.7000
20
-21.5750
0
VERTEX
8
CUT
10
57.7000
20
-35.5750
0
VERTEX
8
CUT
10
43.7000
20
-35.5750
0
SEQEND
0
POLYLINE
8
CUT
66
1
70
1
0
VERTEX
8
CUT
10
62.7500
20
-21.5750
0
VERTEX
8
CUT
10
76.7500
20
-21.5750
0
VERTEX
8
CUT
10
76.7500
20
-35.5750
0
VERTEX
8
CUT
10
62.7500
20
-35.5750
0
SEQEND
0
POLYLINE
8
CUT
66
1
70
1
0
VERTEX
8
CUT
10
81.8000
20
-21.5750
0
VERTEX
8
CUT
10
95.8000
20
-21.5750
0
VERTEX
8
CUT
10
95.8000
20
-35.5750
0
VERTEX
8
CUT
10
81.8000
20
-35.5750
0
SEQEND
0
POLYLINE
8
CUT
66
1
70
1
0
VERTEX
8
CUT
10
100.8500
20
-21.5750
0
VERTEX
8
CUT
10
114.8500
20
-21.5750
0
VERTEX
8
CUT
10
114.8500
20
-35.5750
0
VERTEX
8
CUT
10
100.8500
20
-35.5750
0
SEQEND
0
POLYLINE
8
CUT
66
1
70
1
0
VERTEX
8
CUT
10
119.9000
20
-21.5750
0
VERTEX
8
CUT
10
133.9000
20
-21.5750
0
VERTEX
8
CUT
10
133.9000
20
-35.5750
0
VERTEX
8
CUT
10
119.9000
20
-35.5750
0
SEQEND
0
POLYLINE
8
CUT
66
1
70
1
0
VERTEX
8
CUT
10
138.9500
20
-21.5750
0
VERTEX
8
CUT
10
152.9500
20
-21.5750
0
VERTEX
8
CUT
10
152.9500
20
-35.5750
0
VERTEX
8
CUT
10
138.9500
20
-35.5750
0
SEQEND
0
POLYLINE
8
CUT
66
1
70
1
0
VERTEX
8
CUT
10
167.5250
20
-21.5750
0
VERTEX
8
CUT
10
181.5250
20
-21.5750
0
VERTEX
8
CUT
10
181.5250
20
-35.5750
0
VERTEX
8
CUT
10
167.5250
20
-35.5750
0
SEQEND
0
POLYLINE
8
CUT
66
1
70
1
0
VERTEX
8
CUT
10
15.1250
20
-40.6250
0
VERTEX
8
CUT
10
29.1250
20
-40.6250
0
VERTEX
8
CUT
10
29.1250
20
-54.6250
0
VERTEX
8
CUT
10
15.1250
20
-54.6250
0
SEQEND
0
POLYLINE
8
CUT
66
1
70
1
0
VERTEX
8
CUT
10
34.1750
20
-40.6250
0
VERTEX
8
CUT
10
48.1750
20
-40.6250
0
VERTEX
8
CUT
10
48.1750
20
-54.6250
0
VERTEX
8
CUT
10
34.1750
20
-54.6250
0
SEQEND
0
POLYLINE
8
CUT
66
1
70
1
0
VERTEX
8
CUT
10
53.2250
20
-40.6250
0
VERTEX
8
CUT
10
67.2250
20
-40.6250
0
VERTEX
8
CUT
10
67.2250
20
-54.6250
0
VERTEX
8
CUT
10
53.2250
20
-54.6250
0
SEQEND
0
POLYLINE
8
CUT
66
1
70
1
0
VERTEX
8
CUT
10
72.2750
20
-40.6250
0
VERTEX
8
CUT
10
86.2750
20
-40.6250
0
VERTEX
8
CUT
10
86.2750
20
-54.6250
0
VERTEX
8
CUT
10
72.2750
20
-54.6250
0
SEQEND
0
POLYLINE
8
CUT
66
1
70
1
0
VERTEX
8
CUT
10
91.3250
20
-40.6250
0
VERTEX
8
CUT
10
105.3250
20
-40.6250
0
VERTEX
8
CUT
10
105.3250
20
-54.6250
0
VERTEX
8
CUT
10
91.3250
20
-54.6250
0
SEQEND
0
POLYLINE
8
CUT
66
1
70
1
0
VERTEX
8
CUT
10
110.3750
20
-40.6250
0
VERTEX
8
CUT
10
124.3750
20
-40.6250
0
VERTEX
8
CUT
10
124.3750
20
-54.6250
0
VERTEX
8
CUT
10
110.3750
20
-54.6250
0
SEQEND
0
POLYLINE
8
CUT
66
1
70
1
0
VERTEX
8
CUT
10
129.4250
20
-40.6250
0
VERTEX
8
CUT
10
143.4250
20
-40.6250
0
VERTEX
8
CUT
10
143.4250
20
-54.6250
0
VERTEX
8
CUT
10
129.4250
20
-54.6250
0
SEQEND
0
POLYLINE
8
CUT
66
1
70
1
0
VERTEX
8
CUT
10
148.4750
20
-40.6250
0
VERTEX
8
CUT
10
162.4750
20
-40.6250
0
VERTEX
8
CUT
10
162.4750
20
-54.6250
0
VERTEX
8
CUT
10
148.4750
20
-54.6250
0
SEQEND
0
POLYLINE
8
CUT
66
1
70
1
0
VERTEX
8
CUT
10
172.2870
20
-40.6250
0
VERTEX
8
CUT
10
186.2870
20
-40.6250
0
VERTEX
8
CUT
10
186.2870
20
-54.6250
0
VERTEX
8
CUT
10
172.2870
20
-54.6250
0
SEQEND
0
POLYLINE
8
CUT
66
1
70
1
0
VERTEX
8
CUT
10
201.0031
20
-55.7476
0
VERTEX
8
CUT
10
200.9314
20
-55.7406
0
VERTEX
8
CUT
10
200.8604
20
-55.7289
0
VERTEX
8
CUT
10
200.7903
20
-55.7125
0
VERTEX
8
CUT
10
200.7214
20
-55.6916
0
VERTEX
8
CUT
10
200.6540
20
-55.6663
0
VERTEX
8
CUT
10
200.5885
20
-55.6366
0
VERTEX
8
CUT
10
200.5250
20
-55.6026
0
VERTEX
8
CUT
10
200.4639
20
-55.5646
0
VERTEX
8
CUT
10
200.4054
20
-55.5227
0
VERTEX
8
CUT
10
200.3497
20
-55.4770
0
VERTEX
8
CUT
10
200.2972
20
-55.4278
0
VERTEX
8
CUT
10
200.2480
20
-55.3753
0
VERTEX
8
CUT
10
200.2023
20
-55.3196
0
VERTEX
8
CUT
10
200.1604
20
-55.2611
0
VERTEX
8
CUT
10
200.1224
20
-55.2000
0
VERTEX
8
CUT
10
200.0884
20
-55.1365
0
VERTEX
8
CUT
10
200.0587
20
-55.0710
0
VERTEX
8
CUT
10
200.0334
20
-55.0036
0
VERTEX
8
CUT
10
200.0125
20
-54.9347
0
VERTEX
8
CUT
10
199.9961
20
-54.8646
0
VERTEX
8
CUT
10
199.9844
20
-54.7936
0
VERTEX
8
CUT
10
199.9774
20
-54.7219
0
VERTEX
8
CUT
10
199.9750
20
-54.6500
0
VERTEX
8
CUT
10
199.9774
20
-54.5781
0
VERTEX
8
CUT
10
199.9844
20
-54.5064
0
VERTEX
8
CUT
10
199.9961
20
-54.4354
0
VERTEX
8
CUT
10
200.0125
20
-54.3653
0
VERTEX
8
CUT
10
200.0334
20
-54.2964
0
VERTEX
8
CUT
10
200.0587
20
-54.2290
0
VERTEX
8
CUT
10
200.0884
20
-54.1635
0
VERTEX
8
CUT
10
200.1224
20
-54.1000
0
VERTEX
8
CUT
10
200.1604
20
-54.0389
0
VERTEX
8
CUT
10
200.2023
20
-53.9804
0
VERTEX
8
CUT
10
200.2480
20
-53.9247
0
VERTEX
8
CUT
10
200.2972
20
-53.8722
0
VERTEX
8
CUT
10
200.3497
20
-53.8230
0
VERTEX
8
CUT
10
200.4054
20
-53.7773
0
VERTEX
8
CUT
10
200.4639
20
-53.7354
0
VERTEX
8
CUT
10
200.5250
20
-53.6974
0
VERTEX
8
CUT
10
200.5885
20
-53.6634
0
VERTEX
8
CUT
10
200.6540
20
-53.6337
0
VERTEX
8
CUT
10
200.7214
20
-53.6084
0
VERTEX
8
CUT
10
200.7903
20
-53.5875
0
VERTEX
8
CUT
10
200.8604
20
-53.5711
0
VERTEX
8
CUT
10
200.9314
20
-53.5594
0
VERTEX
8
CUT
10
201.0031
20
-53.5524
0
VERTEX
8
CUT
10
201.0750
20
-53.5500
0
VERTEX
8
CUT
10
201.1469
20
-53.5524
0
VERTEX
8
CUT
10
201.2186
20
-53.5594
0
VERTEX
8
CUT
10
201.2896
20
-53.5711
0
VERTEX
8
CUT
10
201.3597
20
-53.5875
0
VERTEX
8
CUT
10
201.4286
20
-53.6084
0
VERTEX
8
CUT
10
201.4960
20
-53.6337
0
VERTEX
8
CUT
10
201.5615
20
-53.6634
0
VERTEX
8
CUT
10
201.6250
20
-53.6974
0
VERTEX
8
CUT
10
201.6861
20
-53.7354
0
VERTEX
8
CUT
10
201.7446
20
-53.7773
0
VERTEX
8
CUT
10
201.8003
20
-53.8230
0
VERTEX
8
CUT
10
201.8528
20
-53.8722
0
VERTEX
8
CUT
10
201.9020
20
-53.9247
0
VERTEX
8
CUT
10
201.9477
20
-53.9804
0
VERTEX
8
CUT
10
201.9896
20
-54.0389
0
VERTEX
8
CUT
10
202.0276
20
-54.1000
0
VERTEX
8
CUT
10
202.0616
20
-54.1635
0
VERTEX
8
CUT
10
202.0913
20
-54.2290
0
VERTEX
8
CUT
10
202.1166
20
-54.2964
0
VERTEX
8
CUT
10
202.1375
20
-54.3653
0
VERTEX
8
CUT
10
202.1539
20
-54.4354
0
VERTEX
8
CUT
10
202.1656
20
-54.5064
0
VERTEX
8
CUT
10
202.1726
20
-54.5781
0
VERTEX
8
CUT
10
202.1750
20
-54.6500
0
VERTEX
8
CUT
10
202.1726
20
-54.7219
0
VERTEX
8
CUT
10
202.1656
20
-54.7936
0
VERTEX
8
CUT
10
202.1539
20
-54.8646
0
VERTEX
8
CUT
10
202.1375
20
-54.9347
0
VERTEX
8
CUT
10
202.1166
20
-55.0036
0
VERTEX
8
CUT
10
202.0913
20
-55.0710
0
VERTEX
8
CUT
10
202.0616
20
-55.1365
0
VERTEX
8
CUT
10
202.0276
20
-55.2000
0
VERTEX
8
CUT
10
201.9896
20
-55.2611
0
VERTEX
8
CUT
10
201.9477
20
-55.3196
0
VERTEX
8
CUT
10
201.9020
20
-55.3753
0
VERTEX
8
CUT
10
201.8528
20
-55.4278
0
VERTEX
8
CUT
10
201.8003
20
-55.4770
0
VERTEX
8
CUT
10
201.7446
20
-55.5227
0
VERTEX
8
CUT
10
201.6861
20
-55.5646
0
VERTEX
8
CUT
10
201.6250
20
-55.6026
0
VERTEX
8
CUT
10
201.5615
20
-55.6366
0
VERTEX
8
CUT
10
201.4960
20
-55.6663
0
VERTEX
8
CUT
10
201.4286
20
-55.6916
0
VERTEX
8
CUT
10
201.3597
20
-55.7125
0
VERTEX
8
CUT
10
201.2896
20
-55.7289
0
VERTEX
8
CUT
10
201.2186
20
-55.7406
0
VERTEX
8
CUT
10
201.1469
20
-55.7476
0
VERTEX
8
CUT
10
201.0750
20
-55.7500
0
SEQEND
0
POLYLINE
8
CUT
66
1
70
1
0
VERTEX
8
CUT
10
156.7060
20
-59.4750
0
VERTEX
8
CUT
10
163.7060
20
-59.4750
0
VERTEX
8
CUT
10
163.7060
20
-74.8750
0
VERTEX
8
CUT
10
156.7060
20
-74.8750
0
SEQEND
0
POLYLINE
8
CUT
66
1
70
1
0
VERTEX
8
CUT
10
180.5820
20
-59.4750
0
VERTEX
8
CUT
10
187.5820
20
-59.4750
0
VERTEX
8
CUT
10
187.5820
20
-74.8750
0
VERTEX
8
CUT
10
180.5820
20
-74.8750
0
SEQEND
0
POLYLINE
8
CUT
66
1
70
1
0
VERTEX
8
CUT
10
19.8870
20
-59.6750
0
VERTEX
8
CUT
10
33.8870
20
-59.6750
0
VERTEX
8
CUT
10
33.8870
20
-73.6750
0
VERTEX
8
CUT
10
19.8870
20
-73.6750
0
SEQEND
0
POLYLINE
8
CUT
66
1
70
1
0
VERTEX
8
CUT
10
38.9380
20
-59.6750
0
VERTEX
8
CUT
10
52.9380
20
-59.6750
0
VERTEX
8
CUT
10
52.9380
20
-73.6750
0
VERTEX
8
CUT
10
38.9380
20
-73.6750
0
SEQEND
0
POLYLINE
8
CUT
66
1
70
1
0
VERTEX
8
CUT
10
57.9870
20
-59.6750
0
VERTEX
8
CUT
10
71.9870
20
-59.6750
0
VERTEX
8
CUT
10
71.9870
20
-73.6750
0
VERTEX
8
CUT
10
57.9870
20
-73.6750
0
SEQEND
0
POLYLINE
8
CUT
66
1
70
1
0
VERTEX
8
CUT
10
77.0370
20
-59.6750
0
VERTEX
8
CUT
10
91.0370
20
-59.6750
0
VERTEX
8
CUT
10
91.0370
20
-73.6750
0
VERTEX
8
CUT
10
77.0370
20
-73.6750
0
SEQEND
0
POLYLINE
8
CUT
66
1
70
1
0
VERTEX
8
CUT
10
96.0880
20
-59.6750
0
VERTEX
8
CUT
10
110.0880
20
-59.6750
0
VERTEX
8
CUT
10
110.0880
20
-73.6750
0
VERTEX
8
CUT
10
96.0880
20
-73.6750
0
SEQEND
0
POLYLINE
8
CUT
66
1
70
1
0
VERTEX
8
CUT
10
115.1380
20
-59.6750
0
VERTEX
8
CUT
10
129.1380
20
-59.6750
0
VERTEX
8
CUT
10
129.1380
20
-73.6750
0
VERTEX
8
CUT
10
115.1380
20
-73.6750
0
SEQEND
0
POLYLINE
8
CUT
66
1
70
1
0
VERTEX
8
CUT
10
134.1870
20
-59.6750
0
VERTEX
8
CUT
10
148.1870
20
-59.6750
0
VERTEX
8
CUT
10
148.1870
20
-73.6750
0
VERTEX
8
CUT
10
134.1870
20
-73.6750
0
SEQEND
0
POLYLINE
8
CUT
66
1
70
1
0
VERTEX
8
CUT
10
165.1440
20
-59.6750
0
VERTEX
8
CUT
10
179.1440
20
-59.6750
0
VERTEX
8
CUT
10
179.1440
20
-73.6750
0
VERTEX
8
CUT
10
165.1440
20
-73.6750
0
SEQEND
0
POLYLINE
8
CUT
66
1
70
1
0
VERTEX
8
CUT
10
-7.5719
20
-67.5451
0
VERTEX
8
CUT
10
-7.6436
20
-67.5381
0
VERTEX
8
CUT
10
-7.7146
20
-67.5264
0
VERTEX
8
CUT
10
-7.7847
20
-67.5100
0
VERTEX
8
CUT
10
-7.8536
20
-67.4891
0
VERTEX
8
CUT
10
-7.9210
20
-67.4638
0
VERTEX
8
CUT
10
-7.9865
20
-67.4341
0
VERTEX
8
CUT
10
-8.0500
20
-67.4001
0
VERTEX
8
CUT
10
-8.1111
20
-67.3621
0
VERTEX
8
CUT
10
-8.1696
20
-67.3202
0
VERTEX
8
CUT
10
-8.2253
20
-67.2745
0
VERTEX
8
CUT
10
-8.2778
20
-67.2253
0
VERTEX
8
CUT
10
-8.3270
20
-67.1728
0
VERTEX
8
CUT
10
-8.3727
20
-67.1171
0
VERTEX
8
CUT
10
-8.4146
20
-67.0586
0
VERTEX
8
CUT
10
-8.4526
20
-66.9975
0
VERTEX
8
CUT
10
-8.4866
20
-66.9340
0
VERTEX
8
CUT
10
-8.5163
20
-66.8685
0
VERTEX
8
CUT
10
-8.5416
20
-66.8011
0
VERTEX
8
CUT
10
-8.5625
20
-66.7322
0
VERTEX
8
CUT
10
-8.5789
20
-66.6621
0
VERTEX
8
CUT
10
-8.5906
20
-66.5911
0
VERTEX
8
CUT
10
-8.5976
20
-66.5194
0
VERTEX
8
CUT
10
-8.6000
20
-66.4475
0
VERTEX
8
CUT
10
-8.5976
20
-66.3756
0
VERTEX
8
CUT
10
-8.5906
20
-66.3039
0
VERTEX
8
CUT
10
-8.5789
20
-66.2329
0
VERTEX
8
CUT
10
-8.5625
20
-66.1628
0
VERTEX
8
CUT
10
-8.5416
20
-66.0939
0
VERTEX
8
CUT
10
-8.5163
20
-66.0265
0
VERTEX
8
CUT
10
-8.4866
20
-65.9610
0
VERTEX
8
CUT
10
-8.4526
20
-65.8975
0
VERTEX
8
CUT
10
-8.4146
20
-65.8364
0
VERTEX
8
CUT
10
-8.3727
20
-65.7779
0
VERTEX
8
CUT
10
-8.3270
20
-65.7222
0
VERTEX
8
CUT
10
-8.2778
20
-65.6697
0
VERTEX
8
CUT
10
-8.2253
20
-65.6205
0
VERTEX
8
CUT
10
-8.1696
20
-65.5748
0
VERTEX
8
CUT
10
-8.1111
20
-65.5329
0
VERTEX
8
CUT
10
-8.0500
20
-65.4949
0
VERTEX
8
CUT
10
-7.9865
20
-65.4609
0
VERTEX
8
CUT
10
-7.9210
20
-65.4312
0
VERTEX
8
CUT
10
-7.8536
20
-65.4059
0
VERTEX
8
CUT
10
-7.7847
20
-65.3850
0
VERTEX
8
CUT
10
-7.7146
20
-65.3686
0
VERTEX
8
CUT
10
-7.6436
20
-65.3569
0
VERTEX
8
CUT
10
-7.5719
20
-65.3499
0
VERTEX
8
CUT
10
-7.5000
20
-65.3475
0
VERTEX
8
CUT
10
-7.4281
20
-65.3499
0
VERTEX
8
CUT
10
-7.3564
20
-65.3569
0
VERTEX
8
CUT
10
-7.2854
20
-65.3686
0
VERTEX
8
CUT
10
-7.2153
20
-65.3850
0
VERTEX
8
CUT
10
-7.1464
20
-65.4059
0
VERTEX
8
CUT
10
-7.0790
20
-65.4312
0
VERTEX
8
CUT
10
-7.0135
20
-65.4609
0
VERTEX
8
CUT
10
-6.9500
20
-65.4949
0
VERTEX
8
CUT
10
-6.8889
20
-65.5329
0
VERTEX
8
CUT
10
-6.8304
20
-65.5748
0
VERTEX
8
CUT
10
-6.7747
20
-65.6205
0
VERTEX
8
CUT
10
-6.7222
20
-65.6697
0
VERTEX
8
CUT
10
-6.6730
20
-65.7222
0
VERTEX
8
CUT
10
-6.6273
20
-65.7779
0
VERTEX
8
CUT
10
-6.5854
20
-65.8364
0
VERTEX
8
CUT
10
-6.5474
20
-65.8975
0
VERTEX
8
CUT
10
-6.5134
20
-65.9610
0
VERTEX
8
CUT
10
-6.4837
20
-66.0265
0
VERTEX
8
CUT
10
-6.4584
20
-66.0939
0
VERTEX
8
CUT
10
-6.4375
20
-66.1628
0
VERTEX
8
CUT
10
-6.4211
20
-66.2329
0
VERTEX
8
CUT
10
-6.4094
20
-66.3039
0
VERTEX
8
CUT
10
-6.4024
20
-66.3756
0
VERTEX
8
CUT
10
-6.4000
20
-66.4475
0
VERTEX
8
CUT
10
-6.4024
20
-66.5194
0
VERTEX
8
CUT
10
-6.4094
20
-66.5911
0
VERTEX
8
CUT
10
-6.4211
20
-66.6621
0
VERTEX
8
CUT
10
-6.4375
20
-66.7322
0
VERTEX
8
CUT
10
-6.4584
20
-66.8011
0
VERTEX
8
CUT
10
-6.4837
20
-66.8685
0
VERTEX
8
CUT
10
-6.5134
20
-66.9340
0
VERTEX
8
CUT
10
-6.5474
20
-66.9975
0
VERTEX
8
CUT
10
-6.5854
20
-67.0586
0
VERTEX
8
CUT
10
-6.6273
20
-67.1171
0
VERTEX
8
CUT
10
-6.6730
20
-67.1728
0
VERTEX
8
CUT
10
-6.7222
20
-67.2253
0
VERTEX
8
CUT
10
-6.7747
20
-67.2745
0
VERTEX
8
CUT
10
-6.8304
20
-67.3202
0
VERTEX
8
CUT
10
-6.8889
20
-67.3621
0
VERTEX
8
CUT
10
-6.9500
20
-67.4001
0
VERTEX
8
CUT
10
-7.0135
20
-67.4341
0
VERTEX
8
CUT
10
-7.0790
20
-67.4638
0
VERTEX
8
CUT
10
-7.1464
20
-67.4891
0
VERTEX
8
CUT
10
-7.2153
20
-67.5100
0
VERTEX
8
CUT
10
-7.2854
20
-67.5264
0
VERTEX
8
CUT
10
-7.3564
20
-67.5381
0
VERTEX
8
CUT
10
-7.4281
20
-67.5451
0
VERTEX
8
CUT
10
-7.5000
20
-67.5475
0
SEQEND
0
POLYLINE
8
CUT
66
1
70
1
0
VERTEX
8
CUT
10
29.4120
20
-78.7250
0
VERTEX
8
CUT
10
43.4120
20
-78.7250
0
VERTEX
8
CUT
10
43.4120
20
-92.7250
0
VERTEX
8
CUT
10
29.4120
20
-92.7250
0
SEQEND
0
POLYLINE
8
CUT
66
1
70
1
0
VERTEX
8
CUT
10
48.4630
20
-78.7250
0
VERTEX
8
CUT
10
62.4630
20
-78.7250
0
VERTEX
8
CUT
10
62.4630
20
-92.7250
0
VERTEX
8
CUT
10
48.4630
20
-92.7250
0
SEQEND
0
POLYLINE
8
CUT
66
1
70
1
0
VERTEX
8
CUT
10
67.5120
20
-78.7250
0
VERTEX
8
CUT
10
81.5120
20
-78.7250
0
VERTEX
8
CUT
10
81.5120
20
-92.7250
0
VERTEX
8
CUT
10
67.5120
20
-92.7250
0
SEQEND
0
POLYLINE
8
CUT
66
1
70
1
0
VERTEX
8
CUT
10
86.5620
20
-78.7250
0
VERTEX
8
CUT
10
100.5620
20
-78.7250
0
VERTEX
8
CUT
10
100.5620
20
-92.7250
0
VERTEX
8
CUT
10
86.5620
20
-92.7250
0
SEQEND
0
POLYLINE
8
CUT
66
1
70
1
0
VERTEX
8
CUT
10
105.6120
20
-78.7250
0
VERTEX
8
CUT
10
119.6120
20
-78.7250
0
VERTEX
8
CUT
10
119.6120
20
-92.7250
0
VERTEX
8
CUT
10
105.6120
20
-92.7250
0
SEQEND
0
POLYLINE
8
CUT
66
1
70
1
0
VERTEX
8
CUT
10
124.6620
20
-78.7250
0
VERTEX
8
CUT
10
138.6620
20
-78.7250
0
VERTEX
8
CUT
10
138.6620
20
-92.7250
0
VERTEX
8
CUT
10
124.6620
20
-92.7250
0
SEQEND
0
POLYLINE
8
CUT
66
1
70
1
0
VERTEX
8
CUT
10
158.0000
20
-78.7250
0
VERTEX
8
CUT
10
172.0000
20
-78.7250
0
VERTEX
8
CUT
10
172.0000
20
-92.7250
0
VERTEX
8
CUT
10
158.0000
20
-92.7250
0
SEQEND
0
POLYLINE
8
CUT
66
1
70
1
0
VERTEX
8
CUT
10
177.0500
20
-78.7250
0
VERTEX
8
CUT
10
191.0500
20
-78.7250
0
VERTEX
8
CUT
10
191.0500
20
-92.7250
0
VERTEX
8
CUT
10
177.0500
20
-92.7250
0
SEQEND
0
POLYLINE
8
CUT
66
1
70
1
0
VERTEX
8
CUT
10
29.4120
20
-97.7750
0
VERTEX
8
CUT
10
43.4120
20
-97.7750
0
VERTEX
8
CUT
10
43.4120
20
-111.7750
0
VERTEX
8
CUT
10
29.4120
20
-111.7750
0
SEQEND
0
POLYLINE
8
CUT
66
1
70
1
0
VERTEX
8
CUT
10
48.4630
20
-97.7750
0
VERTEX
8
CUT
10
62.4630
20
-97.7750
0
VERTEX
8
CUT
10
62.4630
20
-111.7750
0
VERTEX
8
CUT
10
48.4630
20
-111.7750
0
SEQEND
0
POLYLINE
8
CUT
66
1
70
1
0
VERTEX
8
CUT
10
67.5120
20
-97.7750
0
VERTEX
8
CUT
10
81.5120
20
-97.7750
0
VERTEX
8
CUT
10
81.5120
20
-111.7750
0
VERTEX
8
CUT
10
67.5120
20
-111.7750
0
SEQEND
0
POLYLINE
8
CUT
66
1
70
1
0
VERTEX
8
CUT
10
88.9440
20
-97.7750
0
VERTEX
8
CUT
10
102.9440
20
-97.7750
0
VERTEX
8
CUT
10
102.9440
20
-111.7750
0
VERTEX
8
CUT
10
88.9440
20
-111.7750
0
SEQEND
0
POLYLINE
8
CUT
66
1
70
1
0
VERTEX
8
CUT
10
112.7560
20
-97.7750
0
VERTEX
8
CUT
10
126.7560
20
-97.7750
0
VERTEX
8
CUT
10
126.7560
20
-111.7750
0
VERTEX
8
CUT
10
112.7560
20
-111.7750
0
SEQEND
0
POLYLINE
8
CUT
66
1
70
1
0
VERTEX
8
CUT
10
138.9500
20
-97.7750
0
VERTEX
8
CUT
10
152.9500
20
-97.7750
0
VERTEX
8
CUT
10
152.9500
20
-111.7750
0
VERTEX
8
CUT
10
138.9500
20
-111.7750
0
SEQEND
0
POLYLINE
8
CUT
66
1
70
1
0
VERTEX
8
CUT
10
158.0000
20
-97.7750
0
VERTEX
8
CUT
10
172.0000
20
-97.7750
0
VERTEX
8
CUT
10
172.0000
20
-111.7750
0
VERTEX
8
CUT
10
158.0000
20
-111.7750
0
SEQEND
0
POLYLINE
8
CUT
66
1
70
1
0
VERTEX
8
CUT
10
177.0500
20
-97.7750
0
VERTEX
8
CUT
10
191.0500
20
-97.7750
0
VERTEX
8
CUT
10
191.0500
20
-111.7750
0
VERTEX
8
CUT
10
177.0500
20
-111.7750
0
SEQEND
0
POLYLINE
8
CUT
66
1
70
1
0
VERTEX
8
CUT
10
-5.0824
20
-120.4081
0
VERTEX
8
CUT
10
-5.1540
20
-120.4010
0
VERTEX
8
CUT
10
-5.2250
20
-120.3893
0
VERTEX
8
CUT
10
-5.2951
20
-120.3729
0
VERTEX
8
CUT
10
-5.3640
20
-120.3520
0
VERTEX
8
CUT
10
-5.4314
20
-120.3267
0
VERTEX
8
CUT
10
-5.4969
20
-120.2970
0
VERTEX
8
CUT
10
-5.5604
20
-120.2630
0
VERTEX
8
CUT
10
-5.6215
20
-120.2250
0
VERTEX
8
CUT
10
-5.6800
20
-120.1831
0
VERTEX
8
CUT
10
-5.7357
20
-120.1374
0
VERTEX
8
CUT
10
-5.7882
20
-120.0882
0
VERTEX
8
CUT
10
-5.8374
20
-120.0357
0
VERTEX
8
CUT
10
-5.8831
20
-119.9800
0
VERTEX
8
CUT
10
-5.9250
20
-119.9215
0
VERTEX
8
CUT
10
-5.9630
20
-119.8604
0
VERTEX
8
CUT
10
-5.9970
20
-119.7969
0
VERTEX
8
CUT
10
-6.0267
20
-119.7314
0
VERTEX
8
CUT
10
-6.0520
20
-119.6640
0
VERTEX
8
CUT
10
-6.0729
20
-119.5951
0
VERTEX
8
CUT
10
-6.0893
20
-119.5250
0
VERTEX
8
CUT
10
-6.1010
20
-119.4540
0
VERTEX
8
CUT
10
-6.1081
20
-119.3824
0
VERTEX
8
CUT
10
-6.1104
20
-119.3104
0
VERTEX
8
CUT
10
-6.1081
20
-119.2385
0
VERTEX
8
CUT
10
-6.1010
20
-119.1668
0
VERTEX
8
CUT
10
-6.0893
20
-119.0958
0
VERTEX
8
CUT
10
-6.0729
20
-119.0257
0
VERTEX
8
CUT
10
-6.0520
20
-118.9568
0
VERTEX
8
CUT
10
-6.0267
20
-118.8895
0
VERTEX
8
CUT
10
-5.9970
20
-118.8239
0
VERTEX
8
CUT
10
-5.9630
20
-118.7604
0
VERTEX
8
CUT
10
-5.9250
20
-118.6993
0
VERTEX
8
CUT
10
-5.8831
20
-118.6408
0
VERTEX
8
CUT
10
-5.8374
20
-118.5851
0
VERTEX
8
CUT
10
-5.7882
20
-118.5326
0
VERTEX
8
CUT
10
-5.7357
20
-118.4834
0
VERTEX
8
CUT
10
-5.6800
20
-118.4377
0
VERTEX
8
CUT
10
-5.6215
20
-118.3958
0
VERTEX
8
CUT
10
-5.5604
20
-118.3578
0
VERTEX
8
CUT
10
-5.4969
20
-118.3238
0
VERTEX
8
CUT
10
-5.4314
20
-118.2941
0
VERTEX
8
CUT
10
-5.3640
20
-118.2688
0
VERTEX
8
CUT
10
-5.2951
20
-118.2479
0
VERTEX
8
CUT
10
-5.2250
20
-118.2315
0
VERTEX
8
CUT
10
-5.1540
20
-118.2198
0
VERTEX
8
CUT
10
-5.0824
20
-118.2128
0
VERTEX
8
CUT
10
-5.0104
20
-118.2104
0
VERTEX
8
CUT
10
-4.9385
20
-118.2128
0
VERTEX
8
CUT
10
-4.8668
20
-118.2198
0
VERTEX
8
CUT
10
-4.7958
20
-118.2315
0
VERTEX
8
CUT
10
-4.7257
20
-118.2479
0
VERTEX
8
CUT
10
-4.6568
20
-118.2688
0
VERTEX
8
CUT
10
-4.5895
20
-118.2941
0
VERTEX
8
CUT
10
-4.5239
20
-118.3238
0
VERTEX
8
CUT
10
-4.4604
20
-118.3578
0
VERTEX
8
CUT
10
-4.3993
20
-118.3958
0
VERTEX
8
CUT
10
-4.3408
20
-118.4377
0
VERTEX
8
CUT
10
-4.2851
20
-118.4834
0
VERTEX
8
CUT
10
-4.2326
20
-118.5326
0
VERTEX
8
CUT
10
-4.1834
20
-118.5851
0
VERTEX
8
CUT
10
-4.1377
20
-118.6408
0
VERTEX
8
CUT
10
-4.0958
20
-118.6993
0
VERTEX
8
CUT
10
-4.0578
20
-118.7604
0
VERTEX
8
CUT
10
-4.0238
20
-118.8239
0
VERTEX
8
CUT
10
-3.9941
20
-118.8895
0
VERTEX
8
CUT
10
-3.9688
20
-118.9568
0
VERTEX
8
CUT
10
-3.9479
20
-119.0257
0
VERTEX
8
CUT
10
-3.9315
20
-119.0958
0
VERTEX
8
CUT
10
-3.9198
20
-119.1668
0
VERTEX
8
CUT
10
-3.9128
20
-119.2385
0
VERTEX
8
CUT
10
-3.9104
20
-119.3104
0
VERTEX
8
CUT
10
-3.9128
20
-119.3824
0
VERTEX
8
CUT
10
-3.9198
20
-119.4540
0
VERTEX
8
CUT
10
-3.9315
20
-119.5250
0
VERTEX
8
CUT
10
-3.9479
20
-119.5951
0
VERTEX
8
CUT
10
-3.9688
20
-119.6640
0
VERTEX
8
CUT
10
-3.9941
20
-119.7314
0
VERTEX
8
CUT
10
-4.0238
20
-119.7969
0
VERTEX
8
CUT
10
-4.0578
20
-119.8604
0
VERTEX
8
CUT
10
-4.0958
20
-119.9215
0
VERTEX
8
CUT
10
-4.1377
20
-119.9800
0
VERTEX
8
CUT
10
-4.1834
20
-120.0357
0
VERTEX
8
CUT
10
-4.2326
20
-120.0882
0
VERTEX
8
CUT
10
-4.2851
20
-120.1374
0
VERTEX
8
CUT
10
-4.3408
20
-120.1831
0
VERTEX
8
CUT
10
-4.3993
20
-120.2250
0
VERTEX
8
CUT
10
-4.4604
20
-120.2630
0
VERTEX
8
CUT
10
-4.5239
20
-120.2970
0
VERTEX
8
CUT
10
-4.5895
20
-120.3267
0
VERTEX
8
CUT
10
-4.6568
20
-120.3520
0
VERTEX
8
CUT
10
-4.7257
20
-120.3729
0
VERTEX
8
CUT
10
-4.7958
20
-120.3893
0
VERTEX
8
CUT
10
-4.8668
20
-120.4010
0
VERTEX
8
CUT
10
-4.9385
20
-120.4081
0
VERTEX
8
CUT
10
-5.0104
20
-120.4104
0
SEQEND
0
POLYLINE
8
CUT
66
1
70
1
0
VERTEX
8
CUT
10
198.5135
20
-120.4081
0
VERTEX
8
CUT
10
198.4418
20
-120.4010
0
VERTEX
8
CUT
10
198.3708
20
-120.3893
0
VERTEX
8
CUT
10
198.3007
20
-120.3729
0
VERTEX
8
CUT
10
198.2318
20
-120.3520
0
VERTEX
8
CUT
10
198.1645
20
-120.3267
0
VERTEX
8
CUT
10
198.0989
20
-120.2970
0
VERTEX
8
CUT
10
198.0354
20
-120.2630
0
VERTEX
8
CUT
10
197.9743
20
-120.2250
0
VERTEX
8
CUT
10
197.9158
20
-120.1831
0
VERTEX
8
CUT
10
197.8601
20
-120.1374
0
VERTEX
8
CUT
10
197.8076
20
-120.0882
0
VERTEX
8
CUT
10
197.7584
20
-120.0357
0
VERTEX
8
CUT
10
197.7127
20
-119.9800
0
VERTEX
8
CUT
10
197.6708
20
-119.9215
0
VERTEX
8
CUT
10
197.6328
20
-119.8604
0
VERTEX
8
CUT
10
197.5988
20
-119.7969
0
VERTEX
8
CUT
10
197.5691
20
-119.7314
0
VERTEX
8
CUT
10
197.5438
20
-119.6640
0
VERTEX
8
CUT
10
197.5229
20
-119.5951
0
VERTEX
8
CUT
10
197.5065
20
-119.5250
0
VERTEX
8
CUT
10
197.4948
20
-119.4540
0
VERTEX
8
CUT
10
197.4878
20
-119.3824
0
VERTEX
8
CUT
10
197.4854
20
-119.3104
0
VERTEX
8
CUT
10
197.4878
20
-119.2385
0
VERTEX
8
CUT
10
197.4948
20
-119.1668
0
VERTEX
8
CUT
10
197.5065
20
-119.0958
0
VERTEX
8
CUT
10
197.5229
20
-119.0257
0
VERTEX
8
CUT
10
197.5438
20
-118.9568
0
VERTEX
8
CUT
10
197.5691
20
-118.8895
0
VERTEX
8
CUT
10
197.5988
20
-118.8239
0
VERTEX
8
CUT
10
197.6328
20
-118.7604
0
VERTEX
8
CUT
10
197.6708
20
-118.6993
0
VERTEX
8
CUT
10
197.7127
20
-118.6408
0
VERTEX
8
CUT
10
197.7584
20
-118.5851
0
VERTEX
8
CUT
10
197.8076
20
-118.5326
0
VERTEX
8
CUT
10
197.8601
20
-118.4834
0
VERTEX
8
CUT
10
197.9158
20
-118.4377
0
VERTEX
8
CUT
10
197.9743
20
-118.3958
0
VERTEX
8
CUT
10
198.0354
20
-118.3578
0
VERTEX
8
CUT
10
198.0989
20
-118.3238
0
VERTEX
8
CUT
10
198.1645
20
-118.2941
0
VERTEX
8
CUT
10
198.2318
20
-118.2688
0
VERTEX
8
CUT
10
198.3007
20
-118.2479
0
VERTEX
8
CUT
10
198.3708
20
-118.2315
0
VERTEX
8
CUT
10
198.4418
20
-118.2198
0
VERTEX
8
CUT
10
198.5135
20
-118.2128
0
VERTEX
8
CUT
10
198.5854
20
-118.2104
0
VERTEX
8
CUT
10
198.6574
20
-118.2128
0
VERTEX
8
CUT
10
198.7290
20
-118.2198
0
VERTEX
8
CUT
10
198.8000
20
-118.2315
0
VERTEX
8
CUT
10
198.8701
20
-118.2479
0
VERTEX
8
CUT
10
198.9390
20
-118.2688
0
VERTEX
8
CUT
10
199.0064
20
-118.2941
0
VERTEX
8
CUT
10
199.0719
20
-118.3238
0
VERTEX
8
CUT
10
199.1354
20
-118.3578
0
VERTEX
8
CUT
10
199.1965
20
-118.3958
0
VERTEX
8
CUT
10
199.2550
20
-118.4377
0
VERTEX
8
CUT
10
199.3107
20
-118.4834
0
VERTEX
8
CUT
10
199.3632
20
-118.5326
0
VERTEX
8
CUT
10
199.4124
20
-118.5851
0
VERTEX
8
CUT
10
199.4581
20
-118.6408
0
VERTEX
8
CUT
10
199.5000
20
-118.6993
0
VERTEX
8
CUT
10
199.5380
20
-118.7604
0
VERTEX
8
CUT
10
199.5720
20
-118.8239
0
VERTEX
8
CUT
10
199.6017
20
-118.8895
0
VERTEX
8
CUT
10
199.6270
20
-118.9568
0
VERTEX
8
CUT
10
199.6479
20
-119.0257
0
VERTEX
8
CUT
10
199.6643
20
-119.0958
0
VERTEX
8
CUT
10
199.6760
20
-119.1668
0
VERTEX
8
CUT
10
199.6831
20
-119.2385
0
VERTEX
8
CUT
10
199.6854
20
-119.3104
0
VERTEX
8
CUT
10
199.6831
20
-119.3824
0
VERTEX
8
CUT
10
199.6760
20
-119.4540
0
VERTEX
8
CUT
10
199.6643
20
-119.5250
0
VERTEX
8
CUT
10
199.6479
20
-119.5951
0
VERTEX
8
CUT
10
199.6270
20
-119.6640
0
VERTEX
8
CUT
10
199.6017
20
-119.7314
0
VERTEX
8
CUT
10
199.5720
20
-119.7969
0
VERTEX
8
CUT
10
199.5380
20
-119.8604
0
VERTEX
8
CUT
10
199.5000
20
-119.9215
0
VERTEX
8
CUT
10
199.4581
20
-119.9800
0
VERTEX
8
CUT
10
199.4124
20
-120.0357
0
VERTEX
8
CUT
10
199.3632
20
-120.0882
0
VERTEX
8
CUT
10
199.3107
20
-120.1374
0
VERTEX
8
CUT
10
199.2550
20
-120.1831
0
VERTEX
8
CUT
10
199.1965
20
-120.2250
0
VERTEX
8
CUT
10
199.1354
20
-120.2630
0
VERTEX
8
CUT
10
199.0719
20
-120.2970
0
VERTEX
8
CUT
10
199.0064
20
-120.3267
0
VERTEX
8
CUT
10
198.9390
20
-120.3520
0
VERTEX
8
CUT
10
198.8701
20
-120.3729
0
VERTEX
8
CUT
10
198.8000
20
-120.3893
0
VERTEX
8
CUT
10
198.7290
20
-120.4010
0
VERTEX
8
CUT
10
198.6574
20
-120.4081
0
VERTEX
8
CUT
10
198.5854
20
-120.4104
0
SEQEND
0
POLYLINE
8
CUT
66
1
70
1
0
VERTEX
8
CUT
10
44.5718
20
-122.8976
0
VERTEX
8
CUT
10
44.5002
20
-122.8906
0
VERTEX
8
CUT
10
44.4292
20
-122.8789
0
VERTEX
8
CUT
10
44.3590
20
-122.8625
0
VERTEX
8
CUT
10
44.2902
20
-122.8416
0
VERTEX
8
CUT
10
44.2228
20
-122.8163
0
VERTEX
8
CUT
10
44.1572
20
-122.7866
0
VERTEX
8
CUT
10
44.0938
20
-122.7526
0
VERTEX
8
CUT
10
44.0326
20
-122.7146
0
VERTEX
8
CUT
10
43.9741
20
-122.6727
0
VERTEX
8
CUT
10
43.9185
20
-122.6270
0
VERTEX
8
CUT
10
43.8659
20
-122.5778
0
VERTEX
8
CUT
10
43.8167
20
-122.5253
0
VERTEX
8
CUT
10
43.7711
20
-122.4696
0
VERTEX
8
CUT
10
43.7291
20
-122.4111
0
VERTEX
8
CUT
10
43.6911
20
-122.3500
0
VERTEX
8
CUT
10
43.6572
20
-122.2865
0
VERTEX
8
CUT
10
43.6275
20
-122.2210
0
VERTEX
8
CUT
10
43.6021
20
-122.1536
0
VERTEX
8
CUT
10
43.5812
20
-122.0847
0
VERTEX
8
CUT
10
43.5649
20
-122.0146
0
VERTEX
8
CUT
10
43.5532
20
-121.9436
0
VERTEX
8
CUT
10
43.5461
20
-121.8719
0
VERTEX
8
CUT
10
43.5438
20
-121.8000
0
VERTEX
8
CUT
10
43.5461
20
-121.7281
0
VERTEX
8
CUT
10
43.5532
20
-121.6564
0
VERTEX
8
CUT
10
43.5649
20
-121.5854
0
VERTEX
8
CUT
10
43.5812
20
-121.5153
0
VERTEX
8
CUT
10
43.6021
20
-121.4464
0
VERTEX
8
CUT
10
43.6275
20
-121.3790
0
VERTEX
8
CUT
10
43.6572
20
-121.3135
0
VERTEX
8
CUT
10
43.6911
20
-121.2500
0
VERTEX
8
CUT
10
43.7291
20
-121.1889
0
VERTEX
8
CUT
10
43.7711
20
-121.1304
0
VERTEX
8
CUT
10
43.8167
20
-121.0747
0
VERTEX
8
CUT
10
43.8659
20
-121.0222
0
VERTEX
8
CUT
10
43.9185
20
-120.9730
0
VERTEX
8
CUT
10
43.9741
20
-120.9273
0
VERTEX
8
CUT
10
44.0326
20
-120.8854
0
VERTEX
8
CUT
10
44.0938
20
-120.8474
0
VERTEX
8
CUT
10
44.1572
20
-120.8134
0
VERTEX
8
CUT
10
44.2228
20
-120.7837
0
VERTEX
8
CUT
10
44.2902
20
-120.7584
0
VERTEX
8
CUT
10
44.3590
20
-120.7375
0
VERTEX
8
CUT
10
44.4292
20
-120.7211
0
VERTEX
8
CUT
10
44.5002
20
-120.7094
0
VERTEX
8
CUT
10
44.5718
20
-120.7024
0
VERTEX
8
CUT
10
44.6437
20
-120.7000
0
VERTEX
8
CUT
10
44.7157
20
-120.7024
0
VERTEX
8
CUT
10
44.7873
20
-120.7094
0
VERTEX
8
CUT
10
44.8583
20
-120.7211
0
VERTEX
8
CUT
10
44.9285
20
-120.7375
0
VERTEX
8
CUT
10
44.9973
20
-120.7584
0
VERTEX
8
CUT
10
45.0647
20
-120.7837
0
VERTEX
8
CUT
10
45.1303
20
-120.8134
0
VERTEX
8
CUT
10
45.1938
20
-120.8474
0
VERTEX
8
CUT
10
45.2549
20
-120.8854
0
VERTEX
8
CUT
10
45.3134
20
-120.9273
0
VERTEX
8
CUT
10
45.3690
20
-120.9730
0
VERTEX
8
CUT
10
45.4216
20
-121.0222
0
VERTEX
8
CUT
10
45.4708
20
-121.0747
0
VERTEX
8
CUT
10
45.5164
20
-121.1304
0
VERTEX
8
CUT
10
45.5584
20
-121.1889
0
VERTEX
8
CUT
10
45.5964
20
-121.2500
0
VERTEX
8
CUT
10
45.6303
20
-121.3135
0
VERTEX
8
CUT
10
45.6600
20
-121.3790
0
VERTEX
8
CUT
10
45.6854
20
-121.4464
0
VERTEX
8
CUT
10
45.7063
20
-121.5153
0
VERTEX
8
CUT
10
45.7226
20
-121.5854
0
VERTEX
8
CUT
10
45.7343
20
-121.6564
0
VERTEX
8
CUT
10
45.7414
20
-121.7281
0
VERTEX
8
CUT
10
45.7437
20
-121.8000
0
VERTEX
8
CUT
10
45.7414
20
-121.8719
0
VERTEX
8
CUT
10
45.7343
20
-121.9436
0
VERTEX
8
CUT
10
45.7226
20
-122.0146
0
VERTEX
8
CUT
10
45.7063
20
-122.0847
0
VERTEX
8
CUT
10
45.6854
20
-122.1536
0
VERTEX
8
CUT
10
45.6600
20
-122.2210
0
VERTEX
8
CUT
10
45.6303
20
-122.2865
0
VERTEX
8
CUT
10
45.5964
20
-122.3500
0
VERTEX
8
CUT
10
45.5584
20
-122.4111
0
VERTEX
8
CUT
10
45.5164
20
-122.4696
0
VERTEX
8
CUT
10
45.4708
20
-122.5253
0
VERTEX
8
CUT
10
45.4216
20
-122.5778
0
VERTEX
8
CUT
10
45.3690
20
-122.6270
0
VERTEX
8
CUT
10
45.3134
20
-122.6727
0
VERTEX
8
CUT
10
45.2549
20
-122.7146
0
VERTEX
8
CUT
10
45.1938
20
-122.7526
0
VERTEX
8
CUT
10
45.1303
20
-122.7866
0
VERTEX
8
CUT
10
45.0647
20
-122.8163
0
VERTEX
8
CUT
10
44.9973
20
-122.8416
0
VERTEX
8
CUT
10
44.9285
20
-122.8625
0
VERTEX
8
CUT
10
44.8583
20
-122.8789
0
VERTEX
8
CUT
10
44.7873
20
-122.8906
0
VERTEX
8
CUT
10
44.7157
20
-122.8976
0
VERTEX
8
CUT
10
44.6437
20
-122.9000
0
SEQEND
0
POLYLINE
8
CUT
66
1
70
1
0
VERTEX
8
CUT
10
96.7156
20
-122.8976
0
VERTEX
8
CUT
10
96.6439
20
-122.8906
0
VERTEX
8
CUT
10
96.5729
20
-122.8789
0
VERTEX
8
CUT
10
96.5028
20
-122.8625
0
VERTEX
8
CUT
10
96.4339
20
-122.8416
0
VERTEX
8
CUT
10
96.3665
20
-122.8163
0
VERTEX
8
CUT
10
96.3010
20
-122.7866
0
VERTEX
8
CUT
10
96.2375
20
-122.7526
0
VERTEX
8
CUT
10
96.1764
20
-122.7146
0
VERTEX
8
CUT
10
96.1179
20
-122.6727
0
VERTEX
8
CUT
10
96.0622
20
-122.6270
0
VERTEX
8
CUT
10
96.0097
20
-122.5778
0
VERTEX
8
CUT
10
95.9605
20
-122.5253
0
VERTEX
8
CUT
10
95.9148
20
-122.4696
0
VERTEX
8
CUT
10
95.8729
20
-122.4111
0
VERTEX
8
CUT
10
95.8349
20
-122.3500
0
VERTEX
8
CUT
10
95.8009
20
-122.2865
0
VERTEX
8
CUT
10
95.7712
20
-122.2210
0
VERTEX
8
CUT
10
95.7459
20
-122.1536
0
VERTEX
8
CUT
10
95.7250
20
-122.0847
0
VERTEX
8
CUT
10
95.7086
20
-122.0146
0
VERTEX
8
CUT
10
95.6969
20
-121.9436
0
VERTEX
8
CUT
10
95.6899
20
-121.8719
0
VERTEX
8
CUT
10
95.6875
20
-121.8000
0
VERTEX
8
CUT
10
95.6899
20
-121.7281
0
VERTEX
8
CUT
10
95.6969
20
-121.6564
0
VERTEX
8
CUT
10
95.7086
20
-121.5854
0
VERTEX
8
CUT
10
95.7250
20
-121.5153
0
VERTEX
8
CUT
10
95.7459
20
-121.4464
0
VERTEX
8
CUT
10
95.7712
20
-121.3790
0
VERTEX
8
CUT
10
95.8009
20
-121.3135
0
VERTEX
8
CUT
10
95.8349
20
-121.2500
0
VERTEX
8
CUT
10
95.8729
20
-121.1889
0
VERTEX
8
CUT
10
95.9148
20
-121.1304
0
VERTEX
8
CUT
10
95.9605
20
-121.0747
0
VERTEX
8
CUT
10
96.0097
20
-121.0222
0
VERTEX
8
CUT
10
96.0622
20
-120.9730
0
VERTEX
8
CUT
10
96.1179
20
-120.9273
0
VERTEX
8
CUT
10
96.1764
20
-120.8854
0
VERTEX
8
CUT
10
96.2375
20
-120.8474
0
VERTEX
8
CUT
10
96.3010
20
-120.8134
0
VERTEX
8
CUT
10
96.3665
20
-120.7837
0
VERTEX
8
CUT
10
96.4339
20
-120.7584
0
VERTEX
8
CUT
10
96.5028
20
-120.7375
0
VERTEX
8
CUT
10
96.5729
20
-120.7211
0
VERTEX
8
CUT
10
96.6439
20
-120.7094
0
VERTEX
8
CUT
10
96.7156
20
-120.7024
0
VERTEX
8
CUT
10
96.7875
20
-120.7000
0
VERTEX
8
CUT
10
96.8594
20
-120.7024
0
VERTEX
8
CUT
10
96.9311
20
-120.7094
0
VERTEX
8
CUT
10
97.0021
20
-120.7211
0
VERTEX
8
CUT
10
97.0722
20
-120.7375
0
VERTEX
8
CUT
10
97.1411
20
-120.7584
0
VERTEX
8
CUT
10
97.2085
20
-120.7837
0
VERTEX
8
CUT
10
97.2740
20
-120.8134
0
VERTEX
8
CUT
10
97.3375
20
-120.8474
0
VERTEX
8
CUT
10
97.3986
20
-120.8854
0
VERTEX
8
CUT
10
97.4571
20
-120.9273
0
VERTEX
8
CUT
10
97.5128
20
-120.9730
0
VERTEX
8
CUT
10
97.5653
20
-121.0222
0
VERTEX
8
CUT
10
97.6145
20
-121.0747
0
VERTEX
8
CUT
10
97.6602
20
-121.1304
0
VERTEX
8
CUT
10
97.7021
20
-121.1889
0
VERTEX
8
CUT
10
97.7401
20
-121.2500
0
VERTEX
8
CUT
10
97.7741
20
-121.3135
0
VERTEX
8
CUT
10
97.8038
20
-121.3790
0
VERTEX
8
CUT
10
97.8291
20
-121.4464
0
VERTEX
8
CUT
10
97.8500
20
-121.5153
0
VERTEX
8
CUT
10
97.8664
20
-121.5854
0
VERTEX
8
CUT
10
97.8781
20
-121.6564
0
VERTEX
8
CUT
10
97.8851
20
-121.7281
0
VERTEX
8
CUT
10
97.8875
20
-121.8000
0
VERTEX
8
CUT
10
97.8851
20
-121.8719
0
VERTEX
8
CUT
10
97.8781
20
-121.9436
0
VERTEX
8
CUT
10
97.8664
20
-122.0146
0
VERTEX
8
CUT
10
97.8500
20
-122.0847
0
VERTEX
8
CUT
10
97.8291
20
-122.1536
0
VERTEX
8
CUT
10
97.8038
20
-122.2210
0
VERTEX
8
CUT
10
97.7741
20
-122.2865
0
VERTEX
8
CUT
10
97.7401
20
-122.3500
0
VERTEX
8
CUT
10
97.7021
20
-122.4111
0
VERTEX
8
CUT
10
97.6602
20
-122.4696
0
VERTEX
8
CUT
10
97.6145
20
-122.5253
0
VERTEX
8
CUT
10
97.5653
20
-122.5778
0
VERTEX
8
CUT
10
97.5128
20
-122.6270
0
VERTEX
8
CUT
10
97.4571
20
-122.6727
0
VERTEX
8
CUT
10
97.3986
20
-122.7146
0
VERTEX
8
CUT
10
97.3375
20
-122.7526
0
VERTEX
8
CUT
10
97.2740
20
-122.7866
0
VERTEX
8
CUT
10
97.2085
20
-122.8163
0
VERTEX
8
CUT
10
97.1411
20
-122.8416
0
VERTEX
8
CUT
10
97.0722
20
-122.8625
0
VERTEX
8
CUT
10
97.0021
20
-122.8789
0
VERTEX
8
CUT
10
96.9311
20
-122.8906
0
VERTEX
8
CUT
10
96.8594
20
-122.8976
0
VERTEX
8
CUT
10
96.7875
20
-122.9000
0
SEQEND
0
POLYLINE
8
CUT
66
1
70
1
0
VERTEX
8
CUT
10
148.8593
20
-122.8976
0
VERTEX
8
CUT
10
148.7877
20
-122.8906
0
VERTEX
8
CUT
10
148.7167
20
-122.8789
0
VERTEX
8
CUT
10
148.6465
20
-122.8625
0
VERTEX
8
CUT
10
148.5777
20
-122.8416
0
VERTEX
8
CUT
10
148.5103
20
-122.8163
0
VERTEX
8
CUT
10
148.4447
20
-122.7866
0
VERTEX
8
CUT
10
148.3813
20
-122.7526
0
VERTEX
8
CUT
10
148.3201
20
-122.7146
0
VERTEX
8
CUT
10
148.2616
20
-122.6727
0
VERTEX
8
CUT
10
148.2060
20
-122.6270
0
VERTEX
8
CUT
10
148.1534
20
-122.5778
0
VERTEX
8
CUT
10
148.1042
20
-122.5253
0
VERTEX
8
CUT
10
148.0586
20
-122.4696
0
VERTEX
8
CUT
10
148.0166
20
-122.4111
0
VERTEX
8
CUT
10
147.9786
20
-122.3500
0
VERTEX
8
CUT
10
147.9447
20
-122.2865
0
VERTEX
8
CUT
10
147.9150
20
-122.2210
0
VERTEX
8
CUT
10
147.8896
20
-122.1536
0
VERTEX
8
CUT
10
147.8687
20
-122.0847
0
VERTEX
8
CUT
10
147.8524
20
-122.0146
0
VERTEX
8
CUT
10
147.8407
20
-121.9436
0
VERTEX
8
CUT
10
147.8336
20
-121.8719
0
VERTEX
8
CUT
10
147.8312
20
-121.8000
0
VERTEX
8
CUT
10
147.8336
20
-121.7281
0
VERTEX
8
CUT
10
147.8407
20
-121.6564
0
VERTEX
8
CUT
10
147.8524
20
-121.5854
0
VERTEX
8
CUT
10
147.8687
20
-121.5153
0
VERTEX
8
CUT
10
147.8896
20
-121.4464
0
VERTEX
8
CUT
10
147.9150
20
-121.3790
0
VERTEX
8
CUT
10
147.9447
20
-121.3135
0
VERTEX
8
CUT
10
147.9786
20
-121.2500
0
VERTEX
8
CUT
10
148.0166
20
-121.1889
0
VERTEX
8
CUT
10
148.0586
20
-121.1304
0
VERTEX
8
CUT
10
148.1042
20
-121.0747
0
VERTEX
8
CUT
10
148.1534
20
-121.0222
0
VERTEX
8
CUT
10
148.2060
20
-120.9730
0
VERTEX
8
CUT
10
148.2616
20
-120.9273
0
VERTEX
8
CUT
10
148.3201
20
-120.8854
0
VERTEX
8
CUT
10
148.3813
20
-120.8474
0
VERTEX
8
CUT
10
148.4447
20
-120.8134
0
VERTEX
8
CUT
10
148.5103
20
-120.7837
0
VERTEX
8
CUT
10
148.5777
20
-120.7584
0
VERTEX
8
CUT
10
148.6465
20
-120.7375
0
VERTEX
8
CUT
10
148.7167
20
-120.7211
0
VERTEX
8
CUT
10
148.7877
20
-120.7094
0
VERTEX
8
CUT
10
148.8593
20
-120.7024
0
VERTEX
8
CUT
10
148.9312
20
-120.7000
0
VERTEX
8
CUT
10
149.0032
20
-120.7024
0
VERTEX
8
CUT
10
149.0748
20
-120.7094
0
VERTEX
8
CUT
10
149.1458
20
-120.7211
0
VERTEX
8
CUT
10
149.2160
20
-120.7375
0
VERTEX
8
CUT
10
149.2848
20
-120.7584
0
VERTEX
8
CUT
10
149.3522
20
-120.7837
0
VERTEX
8
CUT
10
149.4178
20
-120.8134
0
VERTEX
8
CUT
10
149.4813
20
-120.8474
0
VERTEX
8
CUT
10
149.5424
20
-120.8854
0
VERTEX
8
CUT
10
149.6009
20
-120.9273
0
VERTEX
8
CUT
10
149.6565
20
-120.9730
0
VERTEX
8
CUT
10
149.7091
20
-121.0222
0
VERTEX
8
CUT
10
149.7583
20
-121.0747
0
VERTEX
8
CUT
10
149.8039
20
-121.1304
0
VERTEX
8
CUT
10
149.8459
20
-121.1889
0
VERTEX
8
CUT
10
149.8839
20
-121.2500
0
VERTEX
8
CUT
10
149.9178
20
-121.3135
0
VERTEX
8
CUT
10
149.9475
20
-121.3790
0
VERTEX
8
CUT
10
149.9729
20
-121.4464
0
VERTEX
8
CUT
10
149.9938
20
-121.5153
0
VERTEX
8
CUT
10
150.0101
20
-121.5854
0
VERTEX
8
CUT
10
150.0218
20
-121.6564
0
VERTEX
8
CUT
10
150.0289
20
-121.7281
0
VERTEX
8
CUT
10
150.0312
20
-121.8000
0
VERTEX
8
CUT
10
150.0289
20
-121.8719
0
VERTEX
8
CUT
10
150.0218
20
-121.9436
0
VERTEX
8
CUT
10
150.0101
20
-122.0146
0
VERTEX
8
CUT
10
149.9938
20
-122.0847
0
VERTEX
8
CUT
10
149.9729
20
-122.1536
0
VERTEX
8
CUT
10
149.9475
20
-122.2210
0
VERTEX
8
CUT
10
149.9178
20
-122.2865
0
VERTEX
8
CUT
10
149.8839
20
-122.3500
0
VERTEX
8
CUT
10
149.8459
20
-122.4111
0
VERTEX
8
CUT
10
149.8039
20
-122.4696
0
VERTEX
8
CUT
10
149.7583
20
-122.5253
0
VERTEX
8
CUT
10
149.7091
20
-122.5778
0
VERTEX
8
CUT
10
149.6565
20
-122.6270
0
VERTEX
8
CUT
10
149.6009
20
-122.6727
0
VERTEX
8
CUT
10
149.5424
20
-122.7146
0
VERTEX
8
CUT
10
149.4813
20
-122.7526
0
VERTEX
8
CUT
10
149.4178
20
-122.7866
0
VERTEX
8
CUT
10
149.3522
20
-122.8163
0
VERTEX
8
CUT
10
149.2848
20
-122.8416
0
VERTEX
8
CUT
10
149.2160
20
-122.8625
0
VERTEX
8
CUT
10
149.1458
20
-122.8789
0
VERTEX
8
CUT
10
149.0748
20
-122.8906
0
VERTEX
8
CUT
10
149.0032
20
-122.8976
0
VERTEX
8
CUT
10
148.9312
20
-122.9000
0
SEQEND
0
ENDSEC
0
EOF
