0
SECTION
2
HEADER
9
$INSUNITS
70
4
0
ENDSEC
0
SECTION
2
ENTITIES
0
POLYLINE
8
CUT
66
1
70
1
0
VERTEX
8
CUT
10
0.1904
20
-41.4929
0
VERTEX
8
CUT
10
0.2555
20
-41.4864
0
VERTEX
8
CUT
10
0.3201
20
-41.4758
0
VERTEX
8
CUT
10
0.3838
20
-41.4609
0
VERTEX
8
CUT
10
0.4464
20
-41.4419
0
VERTEX
8
CUT
10
0.5077
20
-41.4189
0
VERTEX
8
CUT
10
0.5673
20
-41.3919
0
VERTEX
8
CUT
10
0.6250
20
-41.3610
0
VERTEX
8
CUT
10
0.6806
20
-41.3265
0
VERTEX
8
CUT
10
0.7338
20
-41.2884
0
VERTEX
8
CUT
10
0.7843
20
-41.2468
0
VERTEX
8
CUT
10
0.8321
20
-41.2021
0
VERTEX
8
CUT
10
0.8768
20
-41.1543
0
VERTEX
8
CUT
10
0.9184
20
-41.1038
0
VERTEX
8
CUT
10
0.9565
20
-41.0506
0
VERTEX
8
CUT
10
0.9910
20
-40.9950
0
VERTEX
8
CUT
10
1.0219
20
-40.9373
0
VERTEX
8
CUT
10
1.0489
20
-40.8777
0
VERTEX
8
CUT
10
1.0719
20
-40.8164
0
VERTEX
8
CUT
10
1.0909
20
-40.7538
0
VERTEX
8
CUT
10
1.1058
20
-40.6901
0
VERTEX
8
CUT
10
1.1164
20
-40.6255
0
VERTEX
8
CUT
10
1.1229
20
-40.5604
0
VERTEX
8
CUT
10
1.1250
20
-40.4950
0
VERTEX
8
CUT
10
1.1250
20
-39.2414
0
VERTEX
8
CUT
10
1.1255
20
-39.2255
0
VERTEX
8
CUT
10
1.1414
20
-39.2250
0
VERTEX
8
CUT
10
11.7450
20
-39.2250
0
VERTEX
8
CUT
10
11.8104
20
-39.2229
0
VERTEX
8
CUT
10
11.8755
20
-39.2164
0
VERTEX
8
CUT
10
11.9401
20
-39.2058
0
VERTEX
8
CUT
10
12.0038
20
-39.1909
0
VERTEX
8
CUT
10
12.0664
20
-39.1719
0
VERTEX
8
CUT
10
12.1277
20
-39.1489
0
VERTEX
8
CUT
10
12.1873
20
-39.1219
0
VERTEX
8
CUT
10
12.2450
20
-39.0910
0
VERTEX
8
CUT
10
12.3006
20
-39.0565
0
VERTEX
8
CUT
10
12.3538
20
-39.0184
0
VERTEX
8
CUT
10
12.4043
20
-38.9768
0
VERTEX
8
CUT
10
12.4521
20
-38.9321
0
VERTEX
8
CUT
10
12.4968
20
-38.8843
0
VERTEX
8
CUT
10
12.5384
20
-38.8338
0
VERTEX
8
CUT
10
12.5765
20
-38.7806
0
VERTEX
8
CUT
10
12.6110
20
-38.7250
0
VERTEX
8
CUT
10
12.6419
20
-38.6673
0
VERTEX
8
CUT
10
12.6689
20
-38.6077
0
VERTEX
8
CUT
10
12.6919
20
-38.5464
0
VERTEX
8
CUT
10
12.7109
20
-38.4838
0
VERTEX
8
CUT
10
12.7258
20
-38.4201
0
VERTEX
8
CUT
10
12.7364
20
-38.3555
0
VERTEX
8
CUT
10
12.7429
20
-38.2904
0
VERTEX
8
CUT
10
12.7450
20
-38.2250
0
VERTEX
8
CUT
10
12.7450
20
-37.9750
0
VERTEX
8
CUT
10
12.7429
20
-37.9096
0
VERTEX
8
CUT
10
12.7364
20
-37.8445
0
VERTEX
8
CUT
10
12.7258
20
-37.7799
0
VERTEX
8
CUT
10
12.7109
20
-37.7162
0
VERTEX
8
CUT
10
12.6919
20
-37.6536
0
VERTEX
8
CUT
10
12.6689
20
-37.5923
0
VERTEX
8
CUT
10
12.6419
20
-37.5327
0
VERTEX
8
CUT
10
12.6110
20
-37.4750
0
VERTEX
8
CUT
10
12.5765
20
-37.4194
0
VERTEX
8
CUT
10
12.5384
20
-37.3662
0
VERTEX
8
CUT
10
12.4968
20
-37.3157
0
VERTEX
8
CUT
10
12.4521
20
-37.2679
0
VERTEX
8
CUT
10
12.4043
20
-37.2232
0
VERTEX
8
CUT
10
12.3538
20
-37.1816
0
VERTEX
8
CUT
10
12.3006
20
-37.1435
0
VERTEX
8
CUT
10
12.2450
20
-37.1090
0
VERTEX
8
CUT
10
12.1873
20
-37.0781
0
VERTEX
8
CUT
10
12.1277
20
-37.0511
0
VERTEX
8
CUT
10
12.0664
20
-37.0281
0
VERTEX
8
CUT
10
12.0038
20
-37.0091
0
VERTEX
8
CUT
10
11.9401
20
-36.9942
0
VERTEX
8
CUT
10
11.8755
20
-36.9836
0
VERTEX
8
CUT
10
11.8104
20
-36.9771
0
VERTEX
8
CUT
10
11.7450
20
-36.9750
0
VERTEX
8
CUT
10
10.6664
20
-36.9750
0
VERTEX
8
CUT
10
10.6505
20
-36.9745
0
VERTEX
8
CUT
10
10.6500
20
-36.9586
0
VERTEX
8
CUT
10
10.6500
20
-20.1914
0
VERTEX
8
CUT
10
10.6505
20
-20.1755
0
VERTEX
8
CUT
10
10.6664
20
-20.1750
0
VERTEX
8
CUT
10
11.7450
20
-20.1750
0
VERTEX
8
CUT
10
11.8104
20
-20.1729
0
VERTEX
8
CUT
10
11.8755
20
-20.1664
0
VERTEX
8
CUT
10
11.9401
20
-20.1558
0
VERTEX
8
CUT
10
12.0038
20
-20.1409
0
VERTEX
8
CUT
10
12.0664
20
-20.1219
0
VERTEX
8
CUT
10
12.1277
20
-20.0989
0
VERTEX
8
CUT
10
12.1873
20
-20.0719
0
VERTEX
8
CUT
10
12.2450
20
-20.0410
0
VERTEX
8
CUT
10
12.3006
20
-20.0065
0
VERTEX
8
CUT
10
12.3538
20
-19.9684
0
VERTEX
8
CUT
10
12.4043
20
-19.9268
0
VERTEX
8
CUT
10
12.4521
20
-19.8821
0
VERTEX
8
CUT
10
12.4968
20
-19.8343
0
VERTEX
8
CUT
10
12.5384
20
-19.7838
0
VERTEX
8
CUT
10
12.5765
20
-19.7306
0
VERTEX
8
CUT
10
12.6110
20
-19.6750
0
VERTEX
8
CUT
10
12.6419
20
-19.6173
0
VERTEX
8
CUT
10
12.6689
20
-19.5577
0
VERTEX
8
CUT
10
12.6919
20
-19.4964
0
VERTEX
8
CUT
10
12.7109
20
-19.4338
0
VERTEX
8
CUT
10
12.7258
20
-19.3701
0
VERTEX
8
CUT
10
12.7364
20
-19.3055
0
VERTEX
8
CUT
10
12.7429
20
-19.2404
0
VERTEX
8
CUT
10
12.7450
20
-19.1750
0
VERTEX
8
CUT
10
12.7450
20
-18.9250
0
VERTEX
8
CUT
10
12.7429
20
-18.8596
0
VERTEX
8
CUT
10
12.7364
20
-18.7945
0
VERTEX
8
CUT
10
12.7258
20
-18.7299
0
VERTEX
8
CUT
10
12.7109
20
-18.6662
0
VERTEX
8
CUT
10
12.6919
20
-18.6036
0
VERTEX
8
CUT
10
12.6689
20
-18.5423
0
VERTEX
8
CUT
10
12.6419
20
-18.4827
0
VERTEX
8
CUT
10
12.6110
20
-18.4250
0
VERTEX
8
CUT
10
12.5765
20
-18.3694
0
VERTEX
8
CUT
10
12.5384
20
-18.3162
0
VERTEX
8
CUT
10
12.4968
20
-18.2657
0
VERTEX
8
CUT
10
12.4521
20
-18.2179
0
VERTEX
8
CUT
10
12.4043
20
-18.1732
0
VERTEX
8
CUT
10
12.3538
20
-18.1316
0
VERTEX
8
CUT
10
12.3006
20
-18.0935
0
VERTEX
8
CUT
10
12.2450
20
-18.0590
0
VERTEX
8
CUT
10
12.1873
20
-18.0281
0
VERTEX
8
CUT
10
12.1277
20
-18.0011
0
VERTEX
8
CUT
10
12.0664
20
-17.9781
0
VERTEX
8
CUT
10
12.0038
20
-17.9591
0
VERTEX
8
CUT
10
11.9401
20
-17.9442
0
VERTEX
8
CUT
10
11.8755
20
-17.9336
0
VERTEX
8
CUT
10
11.8104
20
-17.9271
0
VERTEX
8
CUT
10
11.7450
20
-17.9250
0
VERTEX
8
CUT
10
10.6664
20
-17.9250
0
VERTEX
8
CUT
10
10.6505
20
-17.9245
0
VERTEX
8
CUT
10
10.6500
20
-17.9086
0
VERTEX
8
CUT
10
10.6500
20
-1.1414
0
VERTEX
8
CUT
10
10.6505
20
-1.1255
0
VERTEX
8
CUT
10
10.6664
20
-1.1250
0
VERTEX
8
CUT
10
11.7450
20
-1.1250
0
VERTEX
8
CUT
10
11.8104
20
-1.1229
0
VERTEX
8
CUT
10
11.8755
20
-1.1164
0
VERTEX
8
CUT
10
11.9401
20
-1.1058
0
VERTEX
8
CUT
10
12.0038
20
-1.0909
0
VERTEX
8
CUT
10
12.0664
20
-1.0719
0
VERTEX
8
CUT
10
12.1277
20
-1.0489
0
VERTEX
8
CUT
10
12.1873
20
-1.0219
0
VERTEX
8
CUT
10
12.2450
20
-0.9910
0
VERTEX
8
CUT
10
12.3006
20
-0.9565
0
VERTEX
8
CUT
10
12.3538
20
-0.9184
0
VERTEX
8
CUT
10
12.4043
20
-0.8768
0
VERTEX
8
CUT
10
12.4521
20
-0.8321
0
VERTEX
8
CUT
10
12.4968
20
-0.7843
0
VERTEX
8
CUT
10
12.5384
20
-0.7338
0
VERTEX
8
CUT
10
12.5765
20
-0.6806
0
VERTEX
8
CUT
10
12.6110
20
-0.6250
0
VERTEX
8
CUT
10
12.6419
20
-0.5673
0
VERTEX
8
CUT
10
12.6689
20
-0.5077
0
VERTEX
8
CUT
10
12.6919
20
-0.4464
0
VERTEX
8
CUT
10
12.7109
20
-0.3838
0
VERTEX
8
CUT
10
12.7258
20
-0.3201
0
VERTEX
8
CUT
10
12.7364
20
-0.2555
0
VERTEX
8
CUT
10
12.7429
20
-0.1904
0
VERTEX
8
CUT
10
12.7450
20
-0.1250
0
VERTEX
8
CUT
10
12.7450
20
2.3950
0
VERTEX
8
CUT
10
12.7429
20
2.4604
0
VERTEX
8
CUT
10
12.7364
20
2.5255
0
VERTEX
8
CUT
10
12.7258
20
2.5901
0
VERTEX
8
CUT
10
12.7109
20
2.6538
0
VERTEX
8
CUT
10
12.6919
20
2.7164
0
VERTEX
8
CUT
10
12.6689
20
2.7777
0
VERTEX
8
CUT
10
12.6419
20
2.8373
0
VERTEX
8
CUT
10
12.6110
20
2.8950
0
VERTEX
8
CUT
10
12.5765
20
2.9506
0
VERTEX
8
CUT
10
12.5384
20
3.0038
0
VERTEX
8
CUT
10
12.4968
20
3.0543
0
VERTEX
8
CUT
10
12.4521
20
3.1021
0
VERTEX
8
CUT
10
12.4043
20
3.1468
0
VERTEX
8
CUT
10
12.3538
20
3.1884
0
VERTEX
8
CUT
10
12.3006
20
3.2265
0
VERTEX
8
CUT
10
12.2450
20
3.2610
0
VERTEX
8
CUT
10
12.1873
20
3.2919
0
VERTEX
8
CUT
10
12.1277
20
3.3189
0
VERTEX
8
CUT
10
12.0664
20
3.3419
0
VERTEX
8
CUT
10
12.0038
20
3.3609
0
VERTEX
8
CUT
10
11.9401
20
3.3758
0
VERTEX
8
CUT
10
11.8755
20
3.3864
0
VERTEX
8
CUT
10
11.8104
20
3.3929
0
VERTEX
8
CUT
10
11.7450
20
3.3950
0
VERTEX
8
CUT
10
-8.9341
20
3.3950
0
VERTEX
8
CUT
10
-8.9995
20
3.3929
0
VERTEX
8
CUT
10
-9.0647
20
3.3864
0
VERTEX
8
CUT
10
-9.1292
20
3.3758
0
VERTEX
8
CUT
10
-9.1930
20
3.3609
0
VERTEX
8
CUT
10
-9.2556
20
3.3419
0
VERTEX
8
CUT
10
-9.3168
20
3.3189
0
VERTEX
8
CUT
10
-9.3764
20
3.2919
0
VERTEX
8
CUT
10
-9.4341
20
3.2610
0
VERTEX
8
CUT
10
-9.4897
20
3.2265
0
VERTEX
8
CUT
10
-9.5429
20
3.1884
0
VERTEX
8
CUT
10
-9.5935
20
3.1468
0
VERTEX
8
CUT
10
-9.6412
20
3.1021
0
VERTEX
8
CUT
10
-9.6860
20
3.0543
0
VERTEX
8
CUT
10
-9.7275
20
3.0038
0
VERTEX
8
CUT
10
-9.7656
20
2.9506
0
VERTEX
8
CUT
10
-9.8002
20
2.8950
0
VERTEX
8
CUT
10
-9.8310
20
2.8373
0
VERTEX
8
CUT
10
-9.8580
20
2.7777
0
VERTEX
8
CUT
10
-9.8700
20
2.7472
0
VERTEX
8
CUT
10
-9.8777
20
2.7270
0
VERTEX
8
CUT
10
-9.8987
20
2.6651
0
VERTEX
8
CUT
10
-10.0981
20
2.0076
0
VERTEX
8
CUT
10
-10.1151
20
1.9444
0
VERTEX
8
CUT
10
-10.2711
20
1.2753
0
VERTEX
8
CUT
10
-10.2838
20
1.2111
0
VERTEX
8
CUT
10
-10.3958
20
0.5333
0
VERTEX
8
CUT
10
-10.4043
20
0.4684
0
VERTEX
8
CUT
10
-10.4716
20
-0.2153
0
VERTEX
8
CUT
10
-10.4759
20
-0.2806
0
VERTEX
8
CUT
10
-10.4759
20
-0.2806
0
VERTEX
8
CUT
10
-10.4995
20
-1.0000
0
VERTEX
8
CUT
10
-10.5000
20
-1.0327
0
VERTEX
8
CUT
10
-10.5000
20
-40.4950
0
VERTEX
8
CUT
10
-10.4979
20
-40.5604
0
VERTEX
8
CUT
10
-10.4914
20
-40.6255
0
VERTEX
8
CUT
10
-10.4808
20
-40.6901
0
VERTEX
8
CUT
10
-10.4659
20
-40.7538
0
VERTEX
8
CUT
10
-10.4469
20
-40.8164
0
VERTEX
8
CUT
10
-10.4239
20
-40.8777
0
VERTEX
8
CUT
10
-10.3969
20
-40.9373
0
VERTEX
8
CUT
10
-10.3660
20
-40.9950
0
VERTEX
8
CUT
10
-10.3315
20
-41.0506
0
VERTEX
8
CUT
10
-10.2934
20
-41.1038
0
VERTEX
8
CUT
10
-10.2518
20
-41.1543
0
VERTEX
8
CUT
10
-10.2071
20
-41.2021
0
VERTEX
8
CUT
10
-10.1593
20
-41.2468
0
VERTEX
8
CUT
10
-10.1088
20
-41.2884
0
VERTEX
8
CUT
10
-10.0556
20
-41.3265
0
VERTEX
8
CUT
10
-10.0000
20
-41.3610
0
VERTEX
8
CUT
10
-9.9423
20
-41.3919
0
VERTEX
8
CUT
10
-9.8827
20
-41.4189
0
VERTEX
8
CUT
10
-9.8214
20
-41.4419
0
VERTEX
8
CUT
10
-9.7588
20
-41.4609
0
VERTEX
8
CUT
10
-9.6951
20
-41.4758
0
VERTEX
8
CUT
10
-9.6305
20
-41.4864
0
VERTEX
8
CUT
10
-9.5654
20
-41.4929
0
VERTEX
8
CUT
10
-9.5000
20
-41.4950
0
VERTEX
8
CUT
10
0.1250
20
-41.4950
0
SEQEND
0
POLYLINE
8
CUT
66
1
70
1
0
VERTEX
8
CUT
10
-7.5719
20
-3.7026
0
VERTEX
8
CUT
10
-7.6436
20
-3.6956
0
VERTEX
8
CUT
10
-7.7146
20
-3.6839
0
VERTEX
8
CUT
10
-7.7847
20
-3.6675
0
VERTEX
8
CUT
10
-7.8536
20
-3.6466
0
VERTEX
8
CUT
10
-7.9210
20
-3.6213
0
VERTEX
8
CUT
10
-7.9865
20
-3.5916
0
VERTEX
8
CUT
10
-8.0500
20
-3.5576
0
VERTEX
8
CUT
10
-8.1111
20
-3.5196
0
VERTEX
8
CUT
10
-8.1696
20
-3.4777
0
VERTEX
8
CUT
10
-8.2253
20
-3.4320
0
VERTEX
8
CUT
10
-8.2778
20
-3.3828
0
VERTEX
8
CUT
10
-8.3270
20
-3.3303
0
VERTEX
8
CUT
10
-8.3727
20
-3.2746
0
VERTEX
8
CUT
10
-8.4146
20
-3.2161
0
VERTEX
8
CUT
10
-8.4526
20
-3.1550
0
VERTEX
8
CUT
10
-8.4866
20
-3.0915
0
VERTEX
8
CUT
10
-8.5163
20
-3.0260
0
VERTEX
8
CUT
10
-8.5416
20
-2.9586
0
VERTEX
8
CUT
10
-8.5625
20
-2.8897
0
VERTEX
8
CUT
10
-8.5789
20
-2.8196
0
VERTEX
8
CUT
10
-8.5906
20
-2.7486
0
VERTEX
8
CUT
10
-8.5976
20
-2.6769
0
VERTEX
8
CUT
10
-8.6000
20
-2.6050
0
VERTEX
8
CUT
10
-8.5976
20
-2.5331
0
VERTEX
8
CUT
10
-8.5906
20
-2.4614
0
VERTEX
8
CUT
10
-8.5789
20
-2.3904
0
VERTEX
8
CUT
10
-8.5625
20
-2.3203
0
VERTEX
8
CUT
10
-8.5416
20
-2.2514
0
VERTEX
8
CUT
10
-8.5163
20
-2.1840
0
VERTEX
8
CUT
10
-8.4866
20
-2.1185
0
VERTEX
8
CUT
10
-8.4526
20
-2.0550
0
VERTEX
8
CUT
10
-8.4146
20
-1.9939
0
VERTEX
8
CUT
10
-8.3727
20
-1.9354
0
VERTEX
8
CUT
10
-8.3270
20
-1.8797
0
VERTEX
8
CUT
10
-8.2778
20
-1.8272
0
VERTEX
8
CUT
10
-8.2253
20
-1.7780
0
VERTEX
8
CUT
10
-8.1696
20
-1.7323
0
VERTEX
8
CUT
10
-8.1111
20
-1.6904
0
VERTEX
8
CUT
10
-8.0500
20
-1.6524
0
VERTEX
8
CUT
10
-7.9865
20
-1.6184
0
VERTEX
8
CUT
10
-7.9210
20
-1.5887
0
VERTEX
8
CUT
10
-7.8536
20
-1.5634
0
VERTEX
8
CUT
10
-7.7847
20
-1.5425
0
VERTEX
8
CUT
10
-7.7146
20
-1.5261
0
VERTEX
8
CUT
10
-7.6436
20
-1.5144
0
VERTEX
8
CUT
10
-7.5719
20
-1.5074
0
VERTEX
8
CUT
10
-7.5000
20
-1.5050
0
VERTEX
8
CUT
10
-7.4281
20
-1.5074
0
VERTEX
8
CUT
10
-7.3564
20
-1.5144
0
VERTEX
8
CUT
10
-7.2854
20
-1.5261
0
VERTEX
8
CUT
10
-7.2153
20
-1.5425
0
VERTEX
8
CUT
10
-7.1464
20
-1.5634
0
VERTEX
8
CUT
10
-7.0790
20
-1.5887
0
VERTEX
8
CUT
10
-7.0135
20
-1.6184
0
VERTEX
8
CUT
10
-6.9500
20
-1.6524
0
VERTEX
8
CUT
10
-6.8889
20
-1.6904
0
VERTEX
8
CUT
10
-6.8304
20
-1.7323
0
VERTEX
8
CUT
10
-6.7747
20
-1.7780
0
VERTEX
8
CUT
10
-6.7222
20
-1.8272
0
VERTEX
8
CUT
10
-6.6730
20
-1.8797
0
VERTEX
8
CUT
10
-6.6273
20
-1.9354
0
VERTEX
8
CUT
10
-6.5854
20
-1.9939
0
VERTEX
8
CUT
10
-6.5474
20
-2.0550
0
VERTEX
8
CUT
10
-6.5134
20
-2.1185
0
VERTEX
8
CUT
10
-6.4837
20
-2.1840
0
VERTEX
8
CUT
10
-6.4584
20
-2.2514
0
VERTEX
8
CUT
10
-6.4375
20
-2.3203
0
VERTEX
8
CUT
10
-6.4211
20
-2.3904
0
VERTEX
8
CUT
10
-6.4094
20
-2.4614
0
VERTEX
8
CUT
10
-6.4024
20
-2.5331
0
VERTEX
8
CUT
10
-6.4000
20
-2.6050
0
VERTEX
8
CUT
10
-6.4024
20
-2.6769
0
VERTEX
8
CUT
10
-6.4094
20
-2.7486
0
VERTEX
8
CUT
10
-6.4211
20
-2.8196
0
VERTEX
8
CUT
10
-6.4375
20
-2.8897
0
VERTEX
8
CUT
10
-6.4584
20
-2.9586
0
VERTEX
8
CUT
10
-6.4837
20
-3.0260
0
VERTEX
8
CUT
10
-6.5134
20
-3.0915
0
VERTEX
8
CUT
10
-6.5474
20
-3.1550
0
VERTEX
8
CUT
10
-6.5854
20
-3.2161
0
VERTEX
8
CUT
10
-6.6273
20
-3.2746
0
VERTEX
8
CUT
10
-6.6730
20
-3.3303
0
VERTEX
8
CUT
10
-6.7222
20
-3.3828
0
VERTEX
8
CUT
10
-6.7747
20
-3.4320
0
VERTEX
8
CUT
10
-6.8304
20
-3.4777
0
VERTEX
8
CUT
10
-6.8889
20
-3.5196
0
VERTEX
8
CUT
10
-6.9500
20
-3.5576
0
VERTEX
8
CUT
10
-7.0135
20
-3.5916
0
VERTEX
8
CUT
10
-7.0790
20
-3.6213
0
VERTEX
8
CUT
10
-7.1464
20
-3.6466
0
VERTEX
8
CUT
10
-7.2153
20
-3.6675
0
VERTEX
8
CUT
10
-7.2854
20
-3.6839
0
VERTEX
8
CUT
10
-7.3564
20
-3.6956
0
VERTEX
8
CUT
10
-7.4281
20
-3.7026
0
VERTEX
8
CUT
10
-7.5000
20
-3.7050
0
SEQEND
0
POLYLINE
8
CUT
66
1
70
1
0
VERTEX
8
CUT
10
-7.5719
20
-36.2026
0
VERTEX
8
CUT
10
-7.6436
20
-36.1956
0
VERTEX
8
CUT
10
-7.7146
20
-36.1839
0
VERTEX
8
CUT
10
-7.7847
20
-36.1675
0
VERTEX
8
CUT
10
-7.8536
20
-36.1466
0
VERTEX
8
CUT
10
-7.9210
20
-36.1213
0
VERTEX
8
CUT
10
-7.9865
20
-36.0916
0
VERTEX
8
CUT
10
-8.0500
20
-36.0576
0
VERTEX
8
CUT
10
-8.1111
20
-36.0196
0
VERTEX
8
CUT
10
-8.1696
20
-35.9777
0
VERTEX
8
CUT
10
-8.2253
20
-35.9320
0
VERTEX
8
CUT
10
-8.2778
20
-35.8828
0
VERTEX
8
CUT
10
-8.3270
20
-35.8303
0
VERTEX
8
CUT
10
-8.3727
20
-35.7746
0
VERTEX
8
CUT
10
-8.4146
20
-35.7161
0
VERTEX
8
CUT
10
-8.4526
20
-35.6550
0
VERTEX
8
CUT
10
-8.4866
20
-35.5915
0
VERTEX
8
CUT
10
-8.5163
20
-35.5260
0
VERTEX
8
CUT
10
-8.5416
20
-35.4586
0
VERTEX
8
CUT
10
-8.5625
20
-35.3897
0
VERTEX
8
CUT
10
-8.5789
20
-35.3196
0
VERTEX
8
CUT
10
-8.5906
20
-35.2486
0
VERTEX
8
CUT
10
-8.5976
20
-35.1769
0
VERTEX
8
CUT
10
-8.6000
20
-35.1050
0
VERTEX
8
CUT
10
-8.5976
20
-35.0331
0
VERTEX
8
CUT
10
-8.5906
20
-34.9614
0
VERTEX
8
CUT
10
-8.5789
20
-34.8904
0
VERTEX
8
CUT
10
-8.5625
20
-34.8203
0
VERTEX
8
CUT
10
-8.5416
20
-34.7514
0
VERTEX
8
CUT
10
-8.5163
20
-34.6840
0
VERTEX
8
CUT
10
-8.4866
20
-34.6185
0
VERTEX
8
CUT
10
-8.4526
20
-34.5550
0
VERTEX
8
CUT
10
-8.4146
20
-34.4939
0
VERTEX
8
CUT
10
-8.3727
20
-34.4354
0
VERTEX
8
CUT
10
-8.3270
20
-34.3797
0
VERTEX
8
CUT
10
-8.2778
20
-34.3272
0
VERTEX
8
CUT
10
-8.2253
20
-34.2780
0
VERTEX
8
CUT
10
-8.1696
20
-34.2323
0
VERTEX
8
CUT
10
-8.1111
20
-34.1904
0
VERTEX
8
CUT
10
-8.0500
20
-34.1524
0
VERTEX
8
CUT
10
-7.9865
20
-34.1184
0
VERTEX
8
CUT
10
-7.9210
20
-34.0887
0
VERTEX
8
CUT
10
-7.8536
20
-34.0634
0
VERTEX
8
CUT
10
-7.7847
20
-34.0425
0
VERTEX
8
CUT
10
-7.7146
20
-34.0261
0
VERTEX
8
CUT
10
-7.6436
20
-34.0144
0
VERTEX
8
CUT
10
-7.5719
20
-34.0074
0
VERTEX
8
CUT
10
-7.5000
20
-34.0050
0
VERTEX
8
CUT
10
-7.4281
20
-34.0074
0
VERTEX
8
CUT
10
-7.3564
20
-34.0144
0
VERTEX
8
CUT
10
-7.2854
20
-34.0261
0
VERTEX
8
CUT
10
-7.2153
20
-34.0425
0
VERTEX
8
CUT
10
-7.1464
20
-34.0634
0
VERTEX
8
CUT
10
-7.0790
20
-34.0887
0
VERTEX
8
CUT
10
-7.0135
20
-34.1184
0
VERTEX
8
CUT
10
-6.9500
20
-34.1524
0
VERTEX
8
CUT
10
-6.8889
20
-34.1904
0
VERTEX
8
CUT
10
-6.8304
20
-34.2323
0
VERTEX
8
CUT
10
-6.7747
20
-34.2780
0
VERTEX
8
CUT
10
-6.7222
20
-34.3272
0
VERTEX
8
CUT
10
-6.6730
20
-34.3797
0
VERTEX
8
CUT
10
-6.6273
20
-34.4354
0
VERTEX
8
CUT
10
-6.5854
20
-34.4939
0
VERTEX
8
CUT
10
-6.5474
20
-34.5550
0
VERTEX
8
CUT
10
-6.5134
20
-34.6185
0
VERTEX
8
CUT
10
-6.4837
20
-34.6840
0
VERTEX
8
CUT
10
-6.4584
20
-34.7514
0
VERTEX
8
CUT
10
-6.4375
20
-34.8203
0
VERTEX
8
CUT
10
-6.4211
20
-34.8904
0
VERTEX
8
CUT
10
-6.4094
20
-34.9614
0
VERTEX
8
CUT
10
-6.4024
20
-35.0331
0
VERTEX
8
CUT
10
-6.4000
20
-35.1050
0
VERTEX
8
CUT
10
-6.4024
20
-35.1769
0
VERTEX
8
CUT
10
-6.4094
20
-35.2486
0
VERTEX
8
CUT
10
-6.4211
20
-35.3196
0
VERTEX
8
CUT
10
-6.4375
20
-35.3897
0
VERTEX
8
CUT
10
-6.4584
20
-35.4586
0
VERTEX
8
CUT
10
-6.4837
20
-35.5260
0
VERTEX
8
CUT
10
-6.5134
20
-35.5915
0
VERTEX
8
CUT
10
-6.5474
20
-35.6550
0
VERTEX
8
CUT
10
-6.5854
20
-35.7161
0
VERTEX
8
CUT
10
-6.6273
20
-35.7746
0
VERTEX
8
CUT
10
-6.6730
20
-35.8303
0
VERTEX
8
CUT
10
-6.7222
20
-35.8828
0
VERTEX
8
CUT
10
-6.7747
20
-35.9320
0
VERTEX
8
CUT
10
-6.8304
20
-35.9777
0
VERTEX
8
CUT
10
-6.8889
20
-36.0196
0
VERTEX
8
CUT
10
-6.9500
20
-36.0576
0
VERTEX
8
CUT
10
-7.0135
20
-36.0916
0
VERTEX
8
CUT
10
-7.0790
20
-36.1213
0
VERTEX
8
CUT
10
-7.1464
20
-36.1466
0
VERTEX
8
CUT
10
-7.2153
20
-36.1675
0
VERTEX
8
CUT
10
-7.2854
20
-36.1839
0
VERTEX
8
CUT
10
-7.3564
20
-36.1956
0
VERTEX
8
CUT
10
-7.4281
20
-36.2026
0
VERTEX
8
CUT
10
-7.5000
20
-36.2050
0
SEQEND
0
ENDSEC
0
EOF
