0
SECTION
2
HEADER
9
$INSUNITS
70
4
0
ENDSEC
0
SECTION
2
ENTITIES
0
POLYLINE
8
CUT
66
1
70
1
0
VERTEX
8
CUT
10
193.3925
20
-125.7732
0
VERTEX
8
CUT
10
194.2066
20
-125.6931
0
VERTEX
8
CUT
10
195.0136
20
-125.5598
0
VERTEX
8
CUT
10
195.8102
20
-125.3741
0
VERTEX
8
CUT
10
196.5930
20
-125.1366
0
VERTEX
8
CUT
10
197.3585
20
-124.8485
0
VERTEX
8
CUT
10
198.1036
20
-124.5109
0
VERTEX
8
CUT
10
198.8250
20
-124.1253
0
VERTEX
8
CUT
10
199.5196
20
-123.6934
0
VERTEX
8
CUT
10
200.1845
20
-123.2169
0
VERTEX
8
CUT
10
200.8168
20
-122.6980
0
VERTEX
8
CUT
10
201.4138
20
-122.1388
0
VERTEX
8
CUT
10
201.9730
20
-121.5418
0
VERTEX
8
CUT
10
202.4919
20
-120.9095
0
VERTEX
8
CUT
10
202.9684
20
-120.2446
0
VERTEX
8
CUT
10
203.4003
20
-119.5500
0
VERTEX
8
CUT
10
203.7859
20
-118.8286
0
VERTEX
8
CUT
10
204.1235
20
-118.0835
0
VERTEX
8
CUT
10
204.4116
20
-117.3180
0
VERTEX
8
CUT
10
204.6491
20
-116.5352
0
VERTEX
8
CUT
10
204.8348
20
-115.7386
0
VERTEX
8
CUT
10
204.9681
20
-114.9316
0
VERTEX
8
CUT
10
205.0482
20
-114.1175
0
VERTEX
8
CUT
10
205.0750
20
-113.3000
0
VERTEX
8
CUT
10
205.0750
20
4.0000
0
VERTEX
8
CUT
10
205.0482
20
4.8175
0
VERTEX
8
CUT
10
204.9681
20
5.6316
0
VERTEX
8
CUT
10
204.8348
20
6.4386
0
VERTEX
8
CUT
10
204.6491
20
7.2352
0
VERTEX
8
CUT
10
204.4116
20
8.0180
0
VERTEX
8
CUT
10
204.1235
20
8.7835
0
VERTEX
8
CUT
10
203.7859
20
9.5286
0
VERTEX
8
CUT
10
203.4003
20
10.2500
0
VERTEX
8
CUT
10
202.9684
20
10.9446
0
VERTEX
8
CUT
10
202.4919
20
11.6095
0
VERTEX
8
CUT
10
201.9730
20
12.2418
0
VERTEX
8
CUT
10
201.4138
20
12.8388
0
VERTEX
8
CUT
10
200.8168
20
13.3980
0
VERTEX
8
CUT
10
200.1845
20
13.9169
0
VERTEX
8
CUT
10
199.5196
20
14.3934
0
VERTEX
8
CUT
10
198.8250
20
14.8253
0
VERTEX
8
CUT
10
198.1036
20
15.2109
0
VERTEX
8
CUT
10
197.3585
20
15.5485
0
VERTEX
8
CUT
10
196.5930
20
15.8366
0
VERTEX
8
CUT
10
195.8102
20
16.0741
0
VERTEX
8
CUT
10
195.0136
20
16.2598
0
VERTEX
8
CUT
10
194.2066
20
16.3931
0
VERTEX
8
CUT
10
193.3925
20
16.4732
0
VERTEX
8
CUT
10
192.5750
20
16.5000
0
VERTEX
8
CUT
10
1.0000
20
16.5000
0
VERTEX
8
CUT
10
0.1825
20
16.4732
0
VERTEX
8
CUT
10
-0.6316
20
16.3931
0
VERTEX
8
CUT
10
-1.4386
20
16.2598
0
VERTEX
8
CUT
10
-2.2352
20
16.0741
0
VERTEX
8
CUT
10
-3.0180
20
15.8366
0
VERTEX
8
CUT
10
-3.7835
20
15.5485
0
VERTEX
8
CUT
10
-4.5286
20
15.2109
0
VERTEX
8
CUT
10
-5.2500
20
14.8253
0
VERTEX
8
CUT
10
-5.9446
20
14.3934
0
VERTEX
8
CUT
10
-6.6095
20
13.9169
0
VERTEX
8
CUT
10
-7.2418
20
13.3980
0
VERTEX
8
CUT
10
-7.8388
20
12.8388
0
VERTEX
8
CUT
10
-8.3980
20
12.2418
0
VERTEX
8
CUT
10
-8.9169
20
11.6095
0
VERTEX
8
CUT
10
-9.3934
20
10.9446
0
VERTEX
8
CUT
10
-9.8253
20
10.2500
0
VERTEX
8
CUT
10
-10.2109
20
9.5286
0
VERTEX
8
CUT
10
-10.5485
20
8.7835
0
VERTEX
8
CUT
10
-10.8366
20
8.0180
0
VERTEX
8
CUT
10
-11.0741
20
7.2352
0
VERTEX
8
CUT
10
-11.2598
20
6.4386
0
VERTEX
8
CUT
10
-11.3931
20
5.6316
0
VERTEX
8
CUT
10
-11.4732
20
4.8175
0
VERTEX
8
CUT
10
-11.5000
20
4.0000
0
VERTEX
8
CUT
10
-11.5000
20
-113.3000
0
VERTEX
8
CUT
10
-11.4732
20
-114.1175
0
VERTEX
8
CUT
10
-11.3931
20
-114.9316
0
VERTEX
8
CUT
10
-11.2598
20
-115.7386
0
VERTEX
8
CUT
10
-11.0741
20
-116.5352
0
VERTEX
8
CUT
10
-10.8366
20
-117.3180
0
VERTEX
8
CUT
10
-10.5485
20
-118.0835
0
VERTEX
8
CUT
10
-10.2109
20
-118.8286
0
VERTEX
8
CUT
10
-9.8253
20
-119.5500
0
VERTEX
8
CUT
10
-9.3934
20
-120.2446
0
VERTEX
8
CUT
10
-8.9169
20
-120.9095
0
VERTEX
8
CUT
10
-8.3980
20
-121.5418
0
VERTEX
8
CUT
10
-7.8388
20
-122.1388
0
VERTEX
8
CUT
10
-7.2418
20
-122.6980
0
VERTEX
8
CUT
10
-6.6095
20
-123.2169
0
VERTEX
8
CUT
10
-5.9446
20
-123.6934
0
VERTEX
8
CUT
10
-5.2500
20
-124.1253
0
VERTEX
8
CUT
10
-4.5286
20
-124.5109
0
VERTEX
8
CUT
10
-3.7835
20
-124.8485
0
VERTEX
8
CUT
10
-3.0180
20
-125.1366
0
VERTEX
8
CUT
10
-2.2352
20
-125.3741
0
VERTEX
8
CUT
10
-1.4386
20
-125.5598
0
VERTEX
8
CUT
10
-0.6316
20
-125.6931
0
VERTEX
8
CUT
10
0.1825
20
-125.7732
0
VERTEX
8
CUT
10
1.0000
20
-125.8000
0
VERTEX
8
CUT
10
192.5750
20
-125.8000
0
SEQEND
0
POLYLINE
8
CUT
66
1
70
1
0
VERTEX
8
CUT
10
44.5718
20
11.4024
0
VERTEX
8
CUT
10
44.5002
20
11.4094
0
VERTEX
8
CUT
10
44.4292
20
11.4211
0
VERTEX
8
CUT
10
44.3590
20
11.4375
0
VERTEX
8
CUT
10
44.2902
20
11.4584
0
VERTEX
8
CUT
10
44.2228
20
11.4837
0
VERTEX
8
CUT
10
44.1572
20
11.5134
0
VERTEX
8
CUT
10
44.0938
20
11.5474
0
VERTEX
8
CUT
10
44.0326
20
11.5854
0
VERTEX
8
CUT
10
43.9741
20
11.6273
0
VERTEX
8
CUT
10
43.9185
20
11.6730
0
VERTEX
8
CUT
10
43.8659
20
11.7222
0
VERTEX
8
CUT
10
43.8167
20
11.7747
0
VERTEX
8
CUT
10
43.7711
20
11.8304
0
VERTEX
8
CUT
10
43.7291
20
11.8889
0
VERTEX
8
CUT
10
43.6911
20
11.9500
0
VERTEX
8
CUT
10
43.6572
20
12.0135
0
VERTEX
8
CUT
10
43.6275
20
12.0790
0
VERTEX
8
CUT
10
43.6021
20
12.1464
0
VERTEX
8
CUT
10
43.5812
20
12.2153
0
VERTEX
8
CUT
10
43.5649
20
12.2854
0
VERTEX
8
CUT
10
43.5532
20
12.3564
0
VERTEX
8
CUT
10
43.5461
20
12.4281
0
VERTEX
8
CUT
10
43.5438
20
12.5000
0
VERTEX
8
CUT
10
43.5461
20
12.5719
0
VERTEX
8
CUT
10
43.5532
20
12.6436
0
VERTEX
8
CUT
10
43.5649
20
12.7146
0
VERTEX
8
CUT
10
43.5812
20
12.7847
0
VERTEX
8
CUT
10
43.6021
20
12.8536
0
VERTEX
8
CUT
10
43.6275
20
12.9210
0
VERTEX
8
CUT
10
43.6572
20
12.9865
0
VERTEX
8
CUT
10
43.6911
20
13.0500
0
VERTEX
8
CUT
10
43.7291
20
13.1111
0
VERTEX
8
CUT
10
43.7711
20
13.1696
0
VERTEX
8
CUT
10
43.8167
20
13.2253
0
VERTEX
8
CUT
10
43.8659
20
13.2778
0
VERTEX
8
CUT
10
43.9185
20
13.3270
0
VERTEX
8
CUT
10
43.9741
20
13.3727
0
VERTEX
8
CUT
10
44.0326
20
13.4146
0
VERTEX
8
CUT
10
44.0938
20
13.4526
0
VERTEX
8
CUT
10
44.1572
20
13.4866
0
VERTEX
8
CUT
10
44.2228
20
13.5163
0
VERTEX
8
CUT
10
44.2902
20
13.5416
0
VERTEX
8
CUT
10
44.3590
20
13.5625
0
VERTEX
8
CUT
10
44.4292
20
13.5789
0
VERTEX
8
CUT
10
44.5002
20
13.5906
0
VERTEX
8
CUT
10
44.5718
20
13.5976
0
VERTEX
8
CUT
10
44.6437
20
13.6000
0
VERTEX
8
CUT
10
44.7157
20
13.5976
0
VERTEX
8
CUT
10
44.7873
20
13.5906
0
VERTEX
8
CUT
10
44.8583
20
13.5789
0
VERTEX
8
CUT
10
44.9285
20
13.5625
0
VERTEX
8
CUT
10
44.9973
20
13.5416
0
VERTEX
8
CUT
10
45.0647
20
13.5163
0
VERTEX
8
CUT
10
45.1303
20
13.4866
0
VERTEX
8
CUT
10
45.1938
20
13.4526
0
VERTEX
8
CUT
10
45.2549
20
13.4146
0
VERTEX
8
CUT
10
45.3134
20
13.3727
0
VERTEX
8
CUT
10
45.3690
20
13.3270
0
VERTEX
8
CUT
10
45.4216
20
13.2778
0
VERTEX
8
CUT
10
45.4708
20
13.2253
0
VERTEX
8
CUT
10
45.5164
20
13.1696
0
VERTEX
8
CUT
10
45.5584
20
13.1111
0
VERTEX
8
CUT
10
45.5964
20
13.0500
0
VERTEX
8
CUT
10
45.6303
20
12.9865
0
VERTEX
8
CUT
10
45.6600
20
12.9210
0
VERTEX
8
CUT
10
45.6854
20
12.8536
0
VERTEX
8
CUT
10
45.7063
20
12.7847
0
VERTEX
8
CUT
10
45.7226
20
12.7146
0
VERTEX
8
CUT
10
45.7343
20
12.6436
0
VERTEX
8
CUT
10
45.7414
20
12.5719
0
VERTEX
8
CUT
10
45.7437
20
12.5000
0
VERTEX
8
CUT
10
45.7414
20
12.4281
0
VERTEX
8
CUT
10
45.7343
20
12.3564
0
VERTEX
8
CUT
10
45.7226
20
12.2854
0
VERTEX
8
CUT
10
45.7063
20
12.2153
0
VERTEX
8
CUT
10
45.6854
20
12.1464
0
VERTEX
8
CUT
10
45.6600
20
12.0790
0
VERTEX
8
CUT
10
45.6303
20
12.0135
0
VERTEX
8
CUT
10
45.5964
20
11.9500
0
VERTEX
8
CUT
10
45.5584
20
11.8889
0
VERTEX
8
CUT
10
45.5164
20
11.8304
0
VERTEX
8
CUT
10
45.4708
20
11.7747
0
VERTEX
8
CUT
10
45.4216
20
11.7222
0
VERTEX
8
CUT
10
45.3690
20
11.6730
0
VERTEX
8
CUT
10
45.3134
20
11.6273
0
VERTEX
8
CUT
10
45.2549
20
11.5854
0
VERTEX
8
CUT
10
45.1938
20
11.5474
0
VERTEX
8
CUT
10
45.1303
20
11.5134
0
VERTEX
8
CUT
10
45.0647
20
11.4837
0
VERTEX
8
CUT
10
44.9973
20
11.4584
0
VERTEX
8
CUT
10
44.9285
20
11.4375
0
VERTEX
8
CUT
10
44.8583
20
11.4211
0
VERTEX
8
CUT
10
44.7873
20
11.4094
0
VERTEX
8
CUT
10
44.7157
20
11.4024
0
VERTEX
8
CUT
10
44.6437
20
11.4000
0
SEQEND
0
POLYLINE
8
CUT
66
1
70
1
0
VERTEX
8
CUT
10
96.7156
20
11.4024
0
VERTEX
8
CUT
10
96.6439
20
11.4094
0
VERTEX
8
CUT
10
96.5729
20
11.4211
0
VERTEX
8
CUT
10
96.5028
20
11.4375
0
VERTEX
8
CUT
10
96.4339
20
11.4584
0
VERTEX
8
CUT
10
96.3665
20
11.4837
0
VERTEX
8
CUT
10
96.3010
20
11.5134
0
VERTEX
8
CUT
10
96.2375
20
11.5474
0
VERTEX
8
CUT
10
96.1764
20
11.5854
0
VERTEX
8
CUT
10
96.1179
20
11.6273
0
VERTEX
8
CUT
10
96.0622
20
11.6730
0
VERTEX
8
CUT
10
96.0097
20
11.7222
0
VERTEX
8
CUT
10
95.9605
20
11.7747
0
VERTEX
8
CUT
10
95.9148
20
11.8304
0
VERTEX
8
CUT
10
95.8729
20
11.8889
0
VERTEX
8
CUT
10
95.8349
20
11.9500
0
VERTEX
8
CUT
10
95.8009
20
12.0135
0
VERTEX
8
CUT
10
95.7712
20
12.0790
0
VERTEX
8
CUT
10
95.7459
20
12.1464
0
VERTEX
8
CUT
10
95.7250
20
12.2153
0
VERTEX
8
CUT
10
95.7086
20
12.2854
0
VERTEX
8
CUT
10
95.6969
20
12.3564
0
VERTEX
8
CUT
10
95.6899
20
12.4281
0
VERTEX
8
CUT
10
95.6875
20
12.5000
0
VERTEX
8
CUT
10
95.6899
20
12.5719
0
VERTEX
8
CUT
10
95.6969
20
12.6436
0
VERTEX
8
CUT
10
95.7086
20
12.7146
0
VERTEX
8
CUT
10
95.7250
20
12.7847
0
VERTEX
8
CUT
10
95.7459
20
12.8536
0
VERTEX
8
CUT
10
95.7712
20
12.9210
0
VERTEX
8
CUT
10
95.8009
20
12.9865
0
VERTEX
8
CUT
10
95.8349
20
13.0500
0
VERTEX
8
CUT
10
95.8729
20
13.1111
0
VERTEX
8
CUT
10
95.9148
20
13.1696
0
VERTEX
8
CUT
10
95.9605
20
13.2253
0
VERTEX
8
CUT
10
96.0097
20
13.2778
0
VERTEX
8
CUT
10
96.0622
20
13.3270
0
VERTEX
8
CUT
10
96.1179
20
13.3727
0
VERTEX
8
CUT
10
96.1764
20
13.4146
0
VERTEX
8
CUT
10
96.2375
20
13.4526
0
VERTEX
8
CUT
10
96.3010
20
13.4866
0
VERTEX
8
CUT
10
96.3665
20
13.5163
0
VERTEX
8
CUT
10
96.4339
20
13.5416
0
VERTEX
8
CUT
10
96.5028
20
13.5625
0
VERTEX
8
CUT
10
96.5729
20
13.5789
0
VERTEX
8
CUT
10
96.6439
20
13.5906
0
VERTEX
8
CUT
10
96.7156
20
13.5976
0
VERTEX
8
CUT
10
96.7875
20
13.6000
0
VERTEX
8
CUT
10
96.8594
20
13.5976
0
VERTEX
8
CUT
10
96.9311
20
13.5906
0
VERTEX
8
CUT
10
97.0021
20
13.5789
0
VERTEX
8
CUT
10
97.0722
20
13.5625
0
VERTEX
8
CUT
10
97.1411
20
13.5416
0
VERTEX
8
CUT
10
97.2085
20
13.5163
0
VERTEX
8
CUT
10
97.2740
20
13.4866
0
VERTEX
8
CUT
10
97.3375
20
13.4526
0
VERTEX
8
CUT
10
97.3986
20
13.4146
0
VERTEX
8
CUT
10
97.4571
20
13.3727
0
VERTEX
8
CUT
10
97.5128
20
13.3270
0
VERTEX
8
CUT
10
97.5653
20
13.2778
0
VERTEX
8
CUT
10
97.6145
20
13.2253
0
VERTEX
8
CUT
10
97.6602
20
13.1696
0
VERTEX
8
CUT
10
97.7021
20
13.1111
0
VERTEX
8
CUT
10
97.7401
20
13.0500
0
VERTEX
8
CUT
10
97.7741
20
12.9865
0
VERTEX
8
CUT
10
97.8038
20
12.9210
0
VERTEX
8
CUT
10
97.8291
20
12.8536
0
VERTEX
8
CUT
10
97.8500
20
12.7847
0
VERTEX
8
CUT
10
97.8664
20
12.7146
0
VERTEX
8
CUT
10
97.8781
20
12.6436
0
VERTEX
8
CUT
10
97.8851
20
12.5719
0
VERTEX
8
CUT
10
97.8875
20
12.5000
0
VERTEX
8
CUT
10
97.8851
20
12.4281
0
VERTEX
8
CUT
10
97.8781
20
12.3564
0
VERTEX
8
CUT
10
97.8664
20
12.2854
0
VERTEX
8
CUT
10
97.8500
20
12.2153
0
VERTEX
8
CUT
10
97.8291
20
12.1464
0
VERTEX
8
CUT
10
97.8038
20
12.0790
0
VERTEX
8
CUT
10
97.7741
20
12.0135
0
VERTEX
8
CUT
10
97.7401
20
11.9500
0
VERTEX
8
CUT
10
97.7021
20
11.8889
0
VERTEX
8
CUT
10
97.6602
20
11.8304
0
VERTEX
8
CUT
10
97.6145
20
11.7747
0
VERTEX
8
CUT
10
97.5653
20
11.7222
0
VERTEX
8
CUT
10
97.5128
20
11.6730
0
VERTEX
8
CUT
10
97.4571
20
11.6273
0
VERTEX
8
CUT
10
97.3986
20
11.5854
0
VERTEX
8
CUT
10
97.3375
20
11.5474
0
VERTEX
8
CUT
10
97.2740
20
11.5134
0
VERTEX
8
CUT
10
97.2085
20
11.4837
0
VERTEX
8
CUT
10
97.1411
20
11.4584
0
VERTEX
8
CUT
10
97.0722
20
11.4375
0
VERTEX
8
CUT
10
97.0021
20
11.4211
0
VERTEX
8
CUT
10
96.9311
20
11.4094
0
VERTEX
8
CUT
10
96.8594
20
11.4024
0
VERTEX
8
CUT
10
96.7875
20
11.4000
0
SEQEND
0
POLYLINE
8
CUT
66
1
70
1
0
VERTEX
8
CUT
10
148.8593
20
11.4024
0
VERTEX
8
CUT
10
148.7877
20
11.4094
0
VERTEX
8
CUT
10
148.7167
20
11.4211
0
VERTEX
8
CUT
10
148.6465
20
11.4375
0
VERTEX
8
CUT
10
148.5777
20
11.4584
0
VERTEX
8
CUT
10
148.5103
20
11.4837
0
VERTEX
8
CUT
10
148.4447
20
11.5134
0
VERTEX
8
CUT
10
148.3813
20
11.5474
0
VERTEX
8
CUT
10
148.3201
20
11.5854
0
VERTEX
8
CUT
10
148.2616
20
11.6273
0
VERTEX
8
CUT
10
148.2060
20
11.6730
0
VERTEX
8
CUT
10
148.1534
20
11.7222
0
VERTEX
8
CUT
10
148.1042
20
11.7747
0
VERTEX
8
CUT
10
148.0586
20
11.8304
0
VERTEX
8
CUT
10
148.0166
20
11.8889
0
VERTEX
8
CUT
10
147.9786
20
11.9500
0
VERTEX
8
CUT
10
147.9447
20
12.0135
0
VERTEX
8
CUT
10
147.9150
20
12.0790
0
VERTEX
8
CUT
10
147.8896
20
12.1464
0
VERTEX
8
CUT
10
147.8687
20
12.2153
0
VERTEX
8
CUT
10
147.8524
20
12.2854
0
VERTEX
8
CUT
10
147.8407
20
12.3564
0
VERTEX
8
CUT
10
147.8336
20
12.4281
0
VERTEX
8
CUT
10
147.8312
20
12.5000
0
VERTEX
8
CUT
10
147.8336
20
12.5719
0
VERTEX
8
CUT
10
147.8407
20
12.6436
0
VERTEX
8
CUT
10
147.8524
20
12.7146
0
VERTEX
8
CUT
10
147.8687
20
12.7847
0
VERTEX
8
CUT
10
147.8896
20
12.8536
0
VERTEX
8
CUT
10
147.9150
20
12.9210
0
VERTEX
8
CUT
10
147.9447
20
12.9865
0
VERTEX
8
CUT
10
147.9786
20
13.0500
0
VERTEX
8
CUT
10
148.0166
20
13.1111
0
VERTEX
8
CUT
10
148.0586
20
13.1696
0
VERTEX
8
CUT
10
148.1042
20
13.2253
0
VERTEX
8
CUT
10
148.1534
20
13.2778
0
VERTEX
8
CUT
10
148.2060
20
13.3270
0
VERTEX
8
CUT
10
148.2616
20
13.3727
0
VERTEX
8
CUT
10
148.3201
20
13.4146
0
VERTEX
8
CUT
10
148.3813
20
13.4526
0
VERTEX
8
CUT
10
148.4447
20
13.4866
0
VERTEX
8
CUT
10
148.5103
20
13.5163
0
VERTEX
8
CUT
10
148.5777
20
13.5416
0
VERTEX
8
CUT
10
148.6465
20
13.5625
0
VERTEX
8
CUT
10
148.7167
20
13.5789
0
VERTEX
8
CUT
10
148.7877
20
13.5906
0
VERTEX
8
CUT
10
148.8593
20
13.5976
0
VERTEX
8
CUT
10
148.9312
20
13.6000
0
VERTEX
8
CUT
10
149.0032
20
13.5976
0
VERTEX
8
CUT
10
149.0748
20
13.5906
0
VERTEX
8
CUT
10
149.1458
20
13.5789
0
VERTEX
8
CUT
10
149.2160
20
13.5625
0
VERTEX
8
CUT
10
149.2848
20
13.5416
0
VERTEX
8
CUT
10
149.3522
20
13.5163
0
VERTEX
8
CUT
10
149.4178
20
13.4866
0
VERTEX
8
CUT
10
149.4813
20
13.4526
0
VERTEX
8
CUT
10
149.5424
20
13.4146
0
VERTEX
8
CUT
10
149.6009
20
13.3727
0
VERTEX
8
CUT
10
149.6565
20
13.3270
0
VERTEX
8
CUT
10
149.7091
20
13.2778
0
VERTEX
8
CUT
10
149.7583
20
13.2253
0
VERTEX
8
CUT
10
149.8039
20
13.1696
0
VERTEX
8
CUT
10
149.8459
20
13.1111
0
VERTEX
8
CUT
10
149.8839
20
13.0500
0
VERTEX
8
CUT
10
149.9178
20
12.9865
0
VERTEX
8
CUT
10
149.9475
20
12.9210
0
VERTEX
8
CUT
10
149.9729
20
12.8536
0
VERTEX
8
CUT
10
149.9938
20
12.7847
0
VERTEX
8
CUT
10
150.0101
20
12.7146
0
VERTEX
8
CUT
10
150.0218
20
12.6436
0
VERTEX
8
CUT
10
150.0289
20
12.5719
0
VERTEX
8
CUT
10
150.0312
20
12.5000
0
VERTEX
8
CUT
10
150.0289
20
12.4281
0
VERTEX
8
CUT
10
150.0218
20
12.3564
0
VERTEX
8
CUT
10
150.0101
20
12.2854
0
VERTEX
8
CUT
10
149.9938
20
12.2153
0
VERTEX
8
CUT
10
149.9729
20
12.1464
0
VERTEX
8
CUT
10
149.9475
20
12.0790
0
VERTEX
8
CUT
10
149.9178
20
12.0135
0
VERTEX
8
CUT
10
149.8839
20
11.9500
0
VERTEX
8
CUT
10
149.8459
20
11.8889
0
VERTEX
8
CUT
10
149.8039
20
11.8304
0
VERTEX
8
CUT
10
149.7583
20
11.7747
0
VERTEX
8
CUT
10
149.7091
20
11.7222
0
VERTEX
8
CUT
10
149.6565
20
11.6730
0
VERTEX
8
CUT
10
149.6009
20
11.6273
0
VERTEX
8
CUT
10
149.5424
20
11.5854
0
VERTEX
8
CUT
10
149.4813
20
11.5474
0
VERTEX
8
CUT
10
149.4178
20
11.5134
0
VERTEX
8
CUT
10
149.3522
20
11.4837
0
VERTEX
8
CUT
10
149.2848
20
11.4584
0
VERTEX
8
CUT
10
149.2160
20
11.4375
0
VERTEX
8
CUT
10
149.1458
20
11.4211
0
VERTEX
8
CUT
10
149.0748
20
11.4094
0
VERTEX
8
CUT
10
149.0032
20
11.4024
0
VERTEX
8
CUT
10
148.9312
20
11.4000
0
SEQEND
0
POLYLINE
8
CUT
66
1
70
1
0
VERTEX
8
CUT
10
174.3593
20
11.4024
0
VERTEX
8
CUT
10
174.2876
20
11.4094
0
VERTEX
8
CUT
10
174.2166
20
11.4211
0
VERTEX
8
CUT
10
174.1465
20
11.4375
0
VERTEX
8
CUT
10
174.0776
20
11.4584
0
VERTEX
8
CUT
10
174.0102
20
11.4837
0
VERTEX
8
CUT
10
173.9447
20
11.5134
0
VERTEX
8
CUT
10
173.8812
20
11.5474
0
VERTEX
8
CUT
10
173.8201
20
11.5854
0
VERTEX
8
CUT
10
173.7616
20
11.6273
0
VERTEX
8
CUT
10
173.7059
20
11.6730
0
VERTEX
8
CUT
10
173.6534
20
11.7222
0
VERTEX
8
CUT
10
173.6042
20
11.7747
0
VERTEX
8
CUT
10
173.5585
20
11.8304
0
VERTEX
8
CUT
10
173.5166
20
11.8889
0
VERTEX
8
CUT
10
173.4786
20
11.9500
0
VERTEX
8
CUT
10
173.4446
20
12.0135
0
VERTEX
8
CUT
10
173.4149
20
12.0790
0
VERTEX
8
CUT
10
173.3896
20
12.1464
0
VERTEX
8
CUT
10
173.3687
20
12.2153
0
VERTEX
8
CUT
10
173.3523
20
12.2854
0
VERTEX
8
CUT
10
173.3406
20
12.3564
0
VERTEX
8
CUT
10
173.3336
20
12.4281
0
VERTEX
8
CUT
10
173.3312
20
12.5000
0
VERTEX
8
CUT
10
173.3336
20
12.5719
0
VERTEX
8
CUT
10
173.3406
20
12.6436
0
VERTEX
8
CUT
10
173.3523
20
12.7146
0
VERTEX
8
CUT
10
173.3687
20
12.7847
0
VERTEX
8
CUT
10
173.3896
20
12.8536
0
VERTEX
8
CUT
10
173.4149
20
12.9210
0
VERTEX
8
CUT
10
173.4446
20
12.9865
0
VERTEX
8
CUT
10
173.4786
20
13.0500
0
VERTEX
8
CUT
10
173.5166
20
13.1111
0
VERTEX
8
CUT
10
173.5585
20
13.1696
0
VERTEX
8
CUT
10
173.6042
20
13.2253
0
VERTEX
8
CUT
10
173.6534
20
13.2778
0
VERTEX
8
CUT
10
173.7059
20
13.3270
0
VERTEX
8
CUT
10
173.7616
20
13.3727
0
VERTEX
8
CUT
10
173.8201
20
13.4146
0
VERTEX
8
CUT
10
173.8812
20
13.4526
0
VERTEX
8
CUT
10
173.9447
20
13.4866
0
VERTEX
8
CUT
10
174.0102
20
13.5163
0
VERTEX
8
CUT
10
174.0776
20
13.5416
0
VERTEX
8
CUT
10
174.1465
20
13.5625
0
VERTEX
8
CUT
10
174.2166
20
13.5789
0
VERTEX
8
CUT
10
174.2876
20
13.5906
0
VERTEX
8
CUT
10
174.3593
20
13.5976
0
VERTEX
8
CUT
10
174.4312
20
13.6000
0
VERTEX
8
CUT
10
174.5031
20
13.5976
0
VERTEX
8
CUT
10
174.5748
20
13.5906
0
VERTEX
8
CUT
10
174.6458
20
13.5789
0
VERTEX
8
CUT
10
174.7159
20
13.5625
0
VERTEX
8
CUT
10
174.7848
20
13.5416
0
VERTEX
8
CUT
10
174.8521
20
13.5163
0
VERTEX
8
CUT
10
174.9177
20
13.4866
0
VERTEX
8
CUT
10
174.9812
20
13.4526
0
VERTEX
8
CUT
10
175.0423
20
13.4146
0
VERTEX
8
CUT
10
175.1008
20
13.3727
0
VERTEX
8
CUT
10
175.1565
20
13.3270
0
VERTEX
8
CUT
10
175.2090
20
13.2778
0
VERTEX
8
CUT
10
175.2582
20
13.2253
0
VERTEX
8
CUT
10
175.3039
20
13.1696
0
VERTEX
8
CUT
10
175.3458
20
13.1111
0
VERTEX
8
CUT
10
175.3838
20
13.0500
0
VERTEX
8
CUT
10
175.4178
20
12.9865
0
VERTEX
8
CUT
10
175.4475
20
12.9210
0
VERTEX
8
CUT
10
175.4728
20
12.8536
0
VERTEX
8
CUT
10
175.4937
20
12.7847
0
VERTEX
8
CUT
10
175.5101
20
12.7146
0
VERTEX
8
CUT
10
175.5218
20
12.6436
0
VERTEX
8
CUT
10
175.5288
20
12.5719
0
VERTEX
8
CUT
10
175.5312
20
12.5000
0
VERTEX
8
CUT
10
175.5288
20
12.4281
0
VERTEX
8
CUT
10
175.5218
20
12.3564
0
VERTEX
8
CUT
10
175.5101
20
12.2854
0
VERTEX
8
CUT
10
175.4937
20
12.2153
0
VERTEX
8
CUT
10
175.4728
20
12.1464
0
VERTEX
8
CUT
10
175.4475
20
12.0790
0
VERTEX
8
CUT
10
175.4178
20
12.0135
0
VERTEX
8
CUT
10
175.3838
20
11.9500
0
VERTEX
8
CUT
10
175.3458
20
11.8889
0
VERTEX
8
CUT
10
175.3039
20
11.8304
0
VERTEX
8
CUT
10
175.2582
20
11.7747
0
VERTEX
8
CUT
10
175.2090
20
11.7222
0
VERTEX
8
CUT
10
175.1565
20
11.6730
0
VERTEX
8
CUT
10
175.1008
20
11.6273
0
VERTEX
8
CUT
10
175.0423
20
11.5854
0
VERTEX
8
CUT
10
174.9812
20
11.5474
0
VERTEX
8
CUT
10
174.9177
20
11.5134
0
VERTEX
8
CUT
10
174.8521
20
11.4837
0
VERTEX
8
CUT
10
174.7848
20
11.4584
0
VERTEX
8
CUT
10
174.7159
20
11.4375
0
VERTEX
8
CUT
10
174.6458
20
11.4211
0
VERTEX
8
CUT
10
174.5748
20
11.4094
0
VERTEX
8
CUT
10
174.5031
20
11.4024
0
VERTEX
8
CUT
10
174.4312
20
11.4000
0
SEQEND
0
POLYLINE
8
CUT
66
1
70
1
0
VERTEX
8
CUT
10
191.4704
20
1.4034
0
VERTEX
8
CUT
10
191.3662
20
1.4137
0
VERTEX
8
CUT
10
191.2629
20
1.4307
0
VERTEX
8
CUT
10
191.1609
20
1.4545
0
VERTEX
8
CUT
10
191.0607
20
1.4849
0
VERTEX
8
CUT
10
190.9627
20
1.5218
0
VERTEX
8
CUT
10
190.8673
20
1.5650
0
VERTEX
8
CUT
10
190.7750
20
1.6144
0
VERTEX
8
CUT
10
190.6861
20
1.6696
0
VERTEX
8
CUT
10
190.6010
20
1.7306
0
VERTEX
8
CUT
10
190.5200
20
1.7971
0
VERTEX
8
CUT
10
190.4436
20
1.8686
0
VERTEX
8
CUT
10
190.3721
20
1.9450
0
VERTEX
8
CUT
10
190.3056
20
2.0260
0
VERTEX
8
CUT
10
190.2446
20
2.1111
0
VERTEX
8
CUT
10
190.1894
20
2.2000
0
VERTEX
8
CUT
10
190.1400
20
2.2923
0
VERTEX
8
CUT
10
190.0968
20
2.3877
0
VERTEX
8
CUT
10
190.0599
20
2.4857
0
VERTEX
8
CUT
10
190.0295
20
2.5859
0
VERTEX
8
CUT
10
190.0057
20
2.6879
0
VERTEX
8
CUT
10
189.9887
20
2.7912
0
VERTEX
8
CUT
10
189.9784
20
2.8954
0
VERTEX
8
CUT
10
189.9750
20
3.0000
0
VERTEX
8
CUT
10
189.9784
20
3.1046
0
VERTEX
8
CUT
10
189.9887
20
3.2088
0
VERTEX
8
CUT
10
190.0057
20
3.3121
0
VERTEX
8
CUT
10
190.0295
20
3.4141
0
VERTEX
8
CUT
10
190.0599
20
3.5143
0
VERTEX
8
CUT
10
190.0968
20
3.6123
0
VERTEX
8
CUT
10
190.1400
20
3.7077
0
VERTEX
8
CUT
10
190.1894
20
3.8000
0
VERTEX
8
CUT
10
190.2446
20
3.8889
0
VERTEX
8
CUT
10
190.3056
20
3.9740
0
VERTEX
8
CUT
10
190.3721
20
4.0550
0
VERTEX
8
CUT
10
190.4436
20
4.1314
0
VERTEX
8
CUT
10
190.5200
20
4.2029
0
VERTEX
8
CUT
10
190.6010
20
4.2694
0
VERTEX
8
CUT
10
190.6861
20
4.3304
0
VERTEX
8
CUT
10
190.7750
20
4.3856
0
VERTEX
8
CUT
10
190.8673
20
4.4350
0
VERTEX
8
CUT
10
190.9627
20
4.4782
0
VERTEX
8
CUT
10
191.0607
20
4.5151
0
VERTEX
8
CUT
10
191.1609
20
4.5455
0
VERTEX
8
CUT
10
191.2629
20
4.5693
0
VERTEX
8
CUT
10
191.3662
20
4.5863
0
VERTEX
8
CUT
10
191.4704
20
4.5966
0
VERTEX
8
CUT
10
191.5750
20
4.6000
0
VERTEX
8
CUT
10
191.6796
20
4.5966
0
VERTEX
8
CUT
10
191.7838
20
4.5863
0
VERTEX
8
CUT
10
191.8871
20
4.5693
0
VERTEX
8
CUT
10
191.9891
20
4.5455
0
VERTEX
8
CUT
10
192.0893
20
4.5151
0
VERTEX
8
CUT
10
192.1873
20
4.4782
0
VERTEX
8
CUT
10
192.2827
20
4.4350
0
VERTEX
8
CUT
10
192.3750
20
4.3856
0
VERTEX
8
CUT
10
192.4639
20
4.3304
0
VERTEX
8
CUT
10
192.5490
20
4.2694
0
VERTEX
8
CUT
10
192.6300
20
4.2029
0
VERTEX
8
CUT
10
192.7064
20
4.1314
0
VERTEX
8
CUT
10
192.7779
20
4.0550
0
VERTEX
8
CUT
10
192.8444
20
3.9740
0
VERTEX
8
CUT
10
192.9054
20
3.8889
0
VERTEX
8
CUT
10
192.9606
20
3.8000
0
VERTEX
8
CUT
10
193.0100
20
3.7077
0
VERTEX
8
CUT
10
193.0532
20
3.6123
0
VERTEX
8
CUT
10
193.0901
20
3.5143
0
VERTEX
8
CUT
10
193.1205
20
3.4141
0
VERTEX
8
CUT
10
193.1443
20
3.3121
0
VERTEX
8
CUT
10
193.1613
20
3.2088
0
VERTEX
8
CUT
10
193.1716
20
3.1046
0
VERTEX
8
CUT
10
193.1750
20
3.0000
0
VERTEX
8
CUT
10
193.1716
20
2.8954
0
VERTEX
8
CUT
10
193.1613
20
2.7912
0
VERTEX
8
CUT
10
193.1443
20
2.6879
0
VERTEX
8
CUT
10
193.1205
20
2.5859
0
VERTEX
8
CUT
10
193.0901
20
2.4857
0
VERTEX
8
CUT
10
193.0532
20
2.3877
0
VERTEX
8
CUT
10
193.0100
20
2.2923
0
VERTEX
8
CUT
10
192.9606
20
2.2000
0
VERTEX
8
CUT
10
192.9054
20
2.1111
0
VERTEX
8
CUT
10
192.8444
20
2.0260
0
VERTEX
8
CUT
10
192.7779
20
1.9450
0
VERTEX
8
CUT
10
192.7064
20
1.8686
0
VERTEX
8
CUT
10
192.6300
20
1.7971
0
VERTEX
8
CUT
10
192.5490
20
1.7306
0
VERTEX
8
CUT
10
192.4639
20
1.6696
0
VERTEX
8
CUT
10
192.3750
20
1.6144
0
VERTEX
8
CUT
10
192.2827
20
1.5650
0
VERTEX
8
CUT
10
192.1873
20
1.5218
0
VERTEX
8
CUT
10
192.0893
20
1.4849
0
VERTEX
8
CUT
10
191.9891
20
1.4545
0
VERTEX
8
CUT
10
191.8871
20
1.4307
0
VERTEX
8
CUT
10
191.7838
20
1.4137
0
VERTEX
8
CUT
10
191.6796
20
1.4034
0
VERTEX
8
CUT
10
191.5750
20
1.4000
0
SEQEND
0
POLYLINE
8
CUT
66
1
70
1
0
VERTEX
8
CUT
10
173.5434
20
-6.0947
0
VERTEX
8
CUT
10
173.4718
20
-6.0876
0
VERTEX
8
CUT
10
173.4008
20
-6.0759
0
VERTEX
8
CUT
10
173.3307
20
-6.0595
0
VERTEX
8
CUT
10
173.2618
20
-6.0386
0
VERTEX
8
CUT
10
173.1944
20
-6.0133
0
VERTEX
8
CUT
10
173.1289
20
-5.9836
0
VERTEX
8
CUT
10
173.0654
20
-5.9496
0
VERTEX
8
CUT
10
173.0043
20
-5.9116
0
VERTEX
8
CUT
10
172.9457
20
-5.8697
0
VERTEX
8
CUT
10
172.8901
20
-5.8240
0
VERTEX
8
CUT
10
172.8376
20
-5.7748
0
VERTEX
8
CUT
10
172.7884
20
-5.7223
0
VERTEX
8
CUT
10
172.7427
20
-5.6666
0
VERTEX
8
CUT
10
172.7008
20
-5.6081
0
VERTEX
8
CUT
10
172.6628
20
-5.5470
0
VERTEX
8
CUT
10
172.6288
20
-5.4835
0
VERTEX
8
CUT
10
172.5991
20
-5.4180
0
VERTEX
8
CUT
10
172.5738
20
-5.3506
0
VERTEX
8
CUT
10
172.5529
20
-5.2817
0
VERTEX
8
CUT
10
172.5365
20
-5.2116
0
VERTEX
8
CUT
10
172.5248
20
-5.1406
0
VERTEX
8
CUT
10
172.5177
20
-5.0689
0
VERTEX
8
CUT
10
172.5154
20
-4.9970
0
VERTEX
8
CUT
10
172.5177
20
-4.9251
0
VERTEX
8
CUT
10
172.5248
20
-4.8534
0
VERTEX
8
CUT
10
172.5365
20
-4.7824
0
VERTEX
8
CUT
10
172.5529
20
-4.7123
0
VERTEX
8
CUT
10
172.5738
20
-4.6434
0
VERTEX
8
CUT
10
172.5991
20
-4.5761
0
VERTEX
8
CUT
10
172.6288
20
-4.5105
0
VERTEX
8
CUT
10
172.6628
20
-4.4470
0
VERTEX
8
CUT
10
172.7008
20
-4.3859
0
VERTEX
8
CUT
10
172.7427
20
-4.3274
0
VERTEX
8
CUT
10
172.7884
20
-4.2717
0
VERTEX
8
CUT
10
172.8376
20
-4.2192
0
VERTEX
8
CUT
10
172.8901
20
-4.1700
0
VERTEX
8
CUT
10
172.9457
20
-4.1243
0
VERTEX
8
CUT
10
173.0043
20
-4.0824
0
VERTEX
8
CUT
10
173.0654
20
-4.0444
0
VERTEX
8
CUT
10
173.1289
20
-4.0104
0
VERTEX
8
CUT
10
173.1944
20
-3.9807
0
VERTEX
8
CUT
10
173.2618
20
-3.9554
0
VERTEX
8
CUT
10
173.3307
20
-3.9345
0
VERTEX
8
CUT
10
173.4008
20
-3.9181
0
VERTEX
8
CUT
10
173.4718
20
-3.9064
0
VERTEX
8
CUT
10
173.5434
20
-3.8994
0
VERTEX
8
CUT
10
173.6154
20
-3.8970
0
VERTEX
8
CUT
10
173.6873
20
-3.8994
0
VERTEX
8
CUT
10
173.7590
20
-3.9064
0
VERTEX
8
CUT
10
173.8300
20
-3.9181
0
VERTEX
8
CUT
10
173.9001
20
-3.9345
0
VERTEX
8
CUT
10
173.9690
20
-3.9554
0
VERTEX
8
CUT
10
174.0363
20
-3.9807
0
VERTEX
8
CUT
10
174.1019
20
-4.0104
0
VERTEX
8
CUT
10
174.1654
20
-4.0444
0
VERTEX
8
CUT
10
174.2265
20
-4.0824
0
VERTEX
8
CUT
10
174.2850
20
-4.1243
0
VERTEX
8
CUT
10
174.3407
20
-4.1700
0
VERTEX
8
CUT
10
174.3932
20
-4.2192
0
VERTEX
8
CUT
10
174.4424
20
-4.2717
0
VERTEX
8
CUT
10
174.4881
20
-4.3274
0
VERTEX
8
CUT
10
174.5300
20
-4.3859
0
VERTEX
8
CUT
10
174.5680
20
-4.4470
0
VERTEX
8
CUT
10
174.6019
20
-4.5105
0
VERTEX
8
CUT
10
174.6316
20
-4.5761
0
VERTEX
8
CUT
10
174.6570
20
-4.6434
0
VERTEX
8
CUT
10
174.6779
20
-4.7123
0
VERTEX
8
CUT
10
174.6942
20
-4.7824
0
VERTEX
8
CUT
10
174.7060
20
-4.8534
0
VERTEX
8
CUT
10
174.7130
20
-4.9251
0
VERTEX
8
CUT
10
174.7154
20
-4.9970
0
VERTEX
8
CUT
10
174.7130
20
-5.0689
0
VERTEX
8
CUT
10
174.7060
20
-5.1406
0
VERTEX
8
CUT
10
174.6942
20
-5.2116
0
VERTEX
8
CUT
10
174.6779
20
-5.2817
0
VERTEX
8
CUT
10
174.6570
20
-5.3506
0
VERTEX
8
CUT
10
174.6316
20
-5.4180
0
VERTEX
8
CUT
10
174.6019
20
-5.4835
0
VERTEX
8
CUT
10
174.5680
20
-5.5470
0
VERTEX
8
CUT
10
174.5300
20
-5.6081
0
VERTEX
8
CUT
10
174.4881
20
-5.6666
0
VERTEX
8
CUT
10
174.4424
20
-5.7223
0
VERTEX
8
CUT
10
174.3932
20
-5.7748
0
VERTEX
8
CUT
10
174.3407
20
-5.8240
0
VERTEX
8
CUT
10
174.2850
20
-5.8697
0
VERTEX
8
CUT
10
174.2265
20
-5.9116
0
VERTEX
8
CUT
10
174.1654
20
-5.9496
0
VERTEX
8
CUT
10
174.1019
20
-5.9836
0
VERTEX
8
CUT
10
174.0363
20
-6.0133
0
VERTEX
8
CUT
10
173.9690
20
-6.0386
0
VERTEX
8
CUT
10
173.9001
20
-6.0595
0
VERTEX
8
CUT
10
173.8300
20
-6.0759
0
VERTEX
8
CUT
10
173.7590
20
-6.0876
0
VERTEX
8
CUT
10
173.6873
20
-6.0947
0
VERTEX
8
CUT
10
173.6154
20
-6.0970
0
SEQEND
0
POLYLINE
8
CUT
66
1
70
1
0
VERTEX
8
CUT
10
176.1416
20
-10.3666
0
VERTEX
8
CUT
10
176.0700
20
-10.3595
0
VERTEX
8
CUT
10
175.9990
20
-10.3478
0
VERTEX
8
CUT
10
175.9289
20
-10.3315
0
VERTEX
8
CUT
10
175.8600
20
-10.3106
0
VERTEX
8
CUT
10
175.7926
20
-10.2852
0
VERTEX
8
CUT
10
175.7271
20
-10.2555
0
VERTEX
8
CUT
10
175.6636
20
-10.2216
0
VERTEX
8
CUT
10
175.6025
20
-10.1836
0
VERTEX
8
CUT
10
175.5439
20
-10.1416
0
VERTEX
8
CUT
10
175.4883
20
-10.0960
0
VERTEX
8
CUT
10
175.4358
20
-10.0468
0
VERTEX
8
CUT
10
175.3866
20
-9.9942
0
VERTEX
8
CUT
10
175.3409
20
-9.9386
0
VERTEX
8
CUT
10
175.2990
20
-9.8801
0
VERTEX
8
CUT
10
175.2610
20
-9.8189
0
VERTEX
8
CUT
10
175.2270
20
-9.7555
0
VERTEX
8
CUT
10
175.1973
20
-9.6899
0
VERTEX
8
CUT
10
175.1720
20
-9.6225
0
VERTEX
8
CUT
10
175.1511
20
-9.5536
0
VERTEX
8
CUT
10
175.1347
20
-9.4835
0
VERTEX
8
CUT
10
175.1230
20
-9.4125
0
VERTEX
8
CUT
10
175.1159
20
-9.3409
0
VERTEX
8
CUT
10
175.1136
20
-9.2689
0
VERTEX
8
CUT
10
175.1159
20
-9.1970
0
VERTEX
8
CUT
10
175.1230
20
-9.1254
0
VERTEX
8
CUT
10
175.1347
20
-9.0543
0
VERTEX
8
CUT
10
175.1511
20
-8.9842
0
VERTEX
8
CUT
10
175.1720
20
-8.9154
0
VERTEX
8
CUT
10
175.1973
20
-8.8480
0
VERTEX
8
CUT
10
175.2270
20
-8.7824
0
VERTEX
8
CUT
10
175.2610
20
-8.7189
0
VERTEX
8
CUT
10
175.2990
20
-8.6578
0
VERTEX
8
CUT
10
175.3409
20
-8.5993
0
VERTEX
8
CUT
10
175.3866
20
-8.5437
0
VERTEX
8
CUT
10
175.4358
20
-8.4911
0
VERTEX
8
CUT
10
175.4883
20
-8.4419
0
VERTEX
8
CUT
10
175.5439
20
-8.3962
0
VERTEX
8
CUT
10
175.6025
20
-8.3543
0
VERTEX
8
CUT
10
175.6636
20
-8.3163
0
VERTEX
8
CUT
10
175.7271
20
-8.2824
0
VERTEX
8
CUT
10
175.7926
20
-8.2527
0
VERTEX
8
CUT
10
175.8600
20
-8.2273
0
VERTEX
8
CUT
10
175.9289
20
-8.2064
0
VERTEX
8
CUT
10
175.9990
20
-8.1901
0
VERTEX
8
CUT
10
176.0700
20
-8.1783
0
VERTEX
8
CUT
10
176.1416
20
-8.1713
0
VERTEX
8
CUT
10
176.2136
20
-8.1689
0
VERTEX
8
CUT
10
176.2855
20
-8.1713
0
VERTEX
8
CUT
10
176.3572
20
-8.1783
0
VERTEX
8
CUT
10
176.4282
20
-8.1901
0
VERTEX
8
CUT
10
176.4983
20
-8.2064
0
VERTEX
8
CUT
10
176.5672
20
-8.2273
0
VERTEX
8
CUT
10
176.6345
20
-8.2527
0
VERTEX
8
CUT
10
176.7001
20
-8.2824
0
VERTEX
8
CUT
10
176.7636
20
-8.3163
0
VERTEX
8
CUT
10
176.8247
20
-8.3543
0
VERTEX
8
CUT
10
176.8832
20
-8.3962
0
VERTEX
8
CUT
10
176.9389
20
-8.4419
0
VERTEX
8
CUT
10
176.9914
20
-8.4911
0
VERTEX
8
CUT
10
177.0406
20
-8.5437
0
VERTEX
8
CUT
10
177.0863
20
-8.5993
0
VERTEX
8
CUT
10
177.1282
20
-8.6578
0
VERTEX
8
CUT
10
177.1662
20
-8.7189
0
VERTEX
8
CUT
10
177.2001
20
-8.7824
0
VERTEX
8
CUT
10
177.2298
20
-8.8480
0
VERTEX
8
CUT
10
177.2552
20
-8.9154
0
VERTEX
8
CUT
10
177.2761
20
-8.9842
0
VERTEX
8
CUT
10
177.2924
20
-9.0543
0
VERTEX
8
CUT
10
177.3042
20
-9.1254
0
VERTEX
8
CUT
10
177.3112
20
-9.1970
0
VERTEX
8
CUT
10
177.3136
20
-9.2689
0
VERTEX
8
CUT
10
177.3112
20
-9.3409
0
VERTEX
8
CUT
10
177.3042
20
-9.4125
0
VERTEX
8
CUT
10
177.2924
20
-9.4835
0
VERTEX
8
CUT
10
177.2761
20
-9.5536
0
VERTEX
8
CUT
10
177.2552
20
-9.6225
0
VERTEX
8
CUT
10
177.2298
20
-9.6899
0
VERTEX
8
CUT
10
177.2001
20
-9.7555
0
VERTEX
8
CUT
10
177.1662
20
-9.8189
0
VERTEX
8
CUT
10
177.1282
20
-9.8801
0
VERTEX
8
CUT
10
177.0863
20
-9.9386
0
VERTEX
8
CUT
10
177.0406
20
-9.9942
0
VERTEX
8
CUT
10
176.9914
20
-10.0468
0
VERTEX
8
CUT
10
176.9389
20
-10.0960
0
VERTEX
8
CUT
10
176.8832
20
-10.1416
0
VERTEX
8
CUT
10
176.8247
20
-10.1836
0
VERTEX
8
CUT
10
176.7636
20
-10.2216
0
VERTEX
8
CUT
10
176.7001
20
-10.2555
0
VERTEX
8
CUT
10
176.6345
20
-10.2852
0
VERTEX
8
CUT
10
176.5672
20
-10.3106
0
VERTEX
8
CUT
10
176.4983
20
-10.3315
0
VERTEX
8
CUT
10
176.4282
20
-10.3478
0
VERTEX
8
CUT
10
176.3572
20
-10.3595
0
VERTEX
8
CUT
10
176.2855
20
-10.3666
0
VERTEX
8
CUT
10
176.2136
20
-10.3689
0
SEQEND
0
POLYLINE
8
CUT
66
1
70
1
0
VERTEX
8
CUT
10
201.0031
20
-15.2414
0
VERTEX
8
CUT
10
200.9314
20
-15.2344
0
VERTEX
8
CUT
10
200.8604
20
-15.2227
0
VERTEX
8
CUT
10
200.7903
20
-15.2063
0
VERTEX
8
CUT
10
200.7214
20
-15.1854
0
VERTEX
8
CUT
10
200.6540
20
-15.1601
0
VERTEX
8
CUT
10
200.5885
20
-15.1304
0
VERTEX
8
CUT
10
200.5250
20
-15.0964
0
VERTEX
8
CUT
10
200.4639
20
-15.0584
0
VERTEX
8
CUT
10
200.4054
20
-15.0165
0
VERTEX
8
CUT
10
200.3497
20
-14.9708
0
VERTEX
8
CUT
10
200.2972
20
-14.9216
0
VERTEX
8
CUT
10
200.2480
20
-14.8691
0
VERTEX
8
CUT
10
200.2023
20
-14.8134
0
VERTEX
8
CUT
10
200.1604
20
-14.7549
0
VERTEX
8
CUT
10
200.1224
20
-14.6938
0
VERTEX
8
CUT
10
200.0884
20
-14.6303
0
VERTEX
8
CUT
10
200.0587
20
-14.5648
0
VERTEX
8
CUT
10
200.0334
20
-14.4974
0
VERTEX
8
CUT
10
200.0125
20
-14.4285
0
VERTEX
8
CUT
10
199.9961
20
-14.3584
0
VERTEX
8
CUT
10
199.9844
20
-14.2874
0
VERTEX
8
CUT
10
199.9774
20
-14.2157
0
VERTEX
8
CUT
10
199.9750
20
-14.1438
0
VERTEX
8
CUT
10
199.9774
20
-14.0719
0
VERTEX
8
CUT
10
199.9844
20
-14.0002
0
VERTEX
8
CUT
10
199.9961
20
-13.9292
0
VERTEX
8
CUT
10
200.0125
20
-13.8591
0
VERTEX
8
CUT
10
200.0334
20
-13.7902
0
VERTEX
8
CUT
10
200.0587
20
-13.7229
0
VERTEX
8
CUT
10
200.0884
20
-13.6573
0
VERTEX
8
CUT
10
200.1224
20
-13.5938
0
VERTEX
8
CUT
10
200.1604
20
-13.5327
0
VERTEX
8
CUT
10
200.2023
20
-13.4742
0
VERTEX
8
CUT
10
200.2480
20
-13.4185
0
VERTEX
8
CUT
10
200.2972
20
-13.3660
0
VERTEX
8
CUT
10
200.3497
20
-13.3168
0
VERTEX
8
CUT
10
200.4054
20
-13.2711
0
VERTEX
8
CUT
10
200.4639
20
-13.2292
0
VERTEX
8
CUT
10
200.5250
20
-13.1912
0
VERTEX
8
CUT
10
200.5885
20
-13.1572
0
VERTEX
8
CUT
10
200.6540
20
-13.1275
0
VERTEX
8
CUT
10
200.7214
20
-13.1022
0
VERTEX
8
CUT
10
200.7903
20
-13.0813
0
VERTEX
8
CUT
10
200.8604
20
-13.0649
0
VERTEX
8
CUT
10
200.9314
20
-13.0532
0
VERTEX
8
CUT
10
201.0031
20
-13.0462
0
VERTEX
8
CUT
10
201.0750
20
-13.0438
0
VERTEX
8
CUT
10
201.1469
20
-13.0462
0
VERTEX
8
CUT
10
201.2186
20
-13.0532
0
VERTEX
8
CUT
10
201.2896
20
-13.0649
0
VERTEX
8
CUT
10
201.3597
20
-13.0813
0
VERTEX
8
CUT
10
201.4286
20
-13.1022
0
VERTEX
8
CUT
10
201.4960
20
-13.1275
0
VERTEX
8
CUT
10
201.5615
20
-13.1572
0
VERTEX
8
CUT
10
201.6250
20
-13.1912
0
VERTEX
8
CUT
10
201.6861
20
-13.2292
0
VERTEX
8
CUT
10
201.7446
20
-13.2711
0
VERTEX
8
CUT
10
201.8003
20
-13.3168
0
VERTEX
8
CUT
10
201.8528
20
-13.3660
0
VERTEX
8
CUT
10
201.9020
20
-13.4185
0
VERTEX
8
CUT
10
201.9477
20
-13.4742
0
VERTEX
8
CUT
10
201.9896
20
-13.5327
0
VERTEX
8
CUT
10
202.0276
20
-13.5938
0
VERTEX
8
CUT
10
202.0616
20
-13.6573
0
VERTEX
8
CUT
10
202.0913
20
-13.7229
0
VERTEX
8
CUT
10
202.1166
20
-13.7902
0
VERTEX
8
CUT
10
202.1375
20
-13.8591
0
VERTEX
8
CUT
10
202.1539
20
-13.9292
0
VERTEX
8
CUT
10
202.1656
20
-14.0002
0
VERTEX
8
CUT
10
202.1726
20
-14.0719
0
VERTEX
8
CUT
10
202.1750
20
-14.1438
0
VERTEX
8
CUT
10
202.1726
20
-14.2157
0
VERTEX
8
CUT
10
202.1656
20
-14.2874
0
VERTEX
8
CUT
10
202.1539
20
-14.3584
0
VERTEX
8
CUT
10
202.1375
20
-14.4285
0
VERTEX
8
CUT
10
202.1166
20
-14.4974
0
VERTEX
8
CUT
10
202.0913
20
-14.5648
0
VERTEX
8
CUT
10
202.0616
20
-14.6303
0
VERTEX
8
CUT
10
202.0276
20
-14.6938
0
VERTEX
8
CUT
10
201.9896
20
-14.7549
0
VERTEX
8
CUT
10
201.9477
20
-14.8134
0
VERTEX
8
CUT
10
201.9020
20
-14.8691
0
VERTEX
8
CUT
10
201.8528
20
-14.9216
0
VERTEX
8
CUT
10
201.8003
20
-14.9708
0
VERTEX
8
CUT
10
201.7446
20
-15.0165
0
VERTEX
8
CUT
10
201.6861
20
-15.0584
0
VERTEX
8
CUT
10
201.6250
20
-15.0964
0
VERTEX
8
CUT
10
201.5615
20
-15.1304
0
VERTEX
8
CUT
10
201.4960
20
-15.1601
0
VERTEX
8
CUT
10
201.4286
20
-15.1854
0
VERTEX
8
CUT
10
201.3597
20
-15.2063
0
VERTEX
8
CUT
10
201.2896
20
-15.2227
0
VERTEX
8
CUT
10
201.2186
20
-15.2344
0
VERTEX
8
CUT
10
201.1469
20
-15.2414
0
VERTEX
8
CUT
10
201.0750
20
-15.2438
0
SEQEND
0
POLYLINE
8
CUT
66
1
70
1
0
VERTEX
8
CUT
10
19.4281
20
-20.1476
0
VERTEX
8
CUT
10
19.3564
20
-20.1406
0
VERTEX
8
CUT
10
19.2854
20
-20.1289
0
VERTEX
8
CUT
10
19.2153
20
-20.1125
0
VERTEX
8
CUT
10
19.1464
20
-20.0916
0
VERTEX
8
CUT
10
19.0790
20
-20.0663
0
VERTEX
8
CUT
10
19.0135
20
-20.0366
0
VERTEX
8
CUT
10
18.9500
20
-20.0026
0
VERTEX
8
CUT
10
18.8889
20
-19.9646
0
VERTEX
8
CUT
10
18.8304
20
-19.9227
0
VERTEX
8
CUT
10
18.7747
20
-19.8770
0
VERTEX
8
CUT
10
18.7222
20
-19.8278
0
VERTEX
8
CUT
10
18.6730
20
-19.7753
0
VERTEX
8
CUT
10
18.6273
20
-19.7196
0
VERTEX
8
CUT
10
18.5854
20
-19.6611
0
VERTEX
8
CUT
10
18.5474
20
-19.6000
0
VERTEX
8
CUT
10
18.5134
20
-19.5365
0
VERTEX
8
CUT
10
18.4837
20
-19.4710
0
VERTEX
8
CUT
10
18.4584
20
-19.4036
0
VERTEX
8
CUT
10
18.4375
20
-19.3347
0
VERTEX
8
CUT
10
18.4211
20
-19.2646
0
VERTEX
8
CUT
10
18.4094
20
-19.1936
0
VERTEX
8
CUT
10
18.4024
20
-19.1219
0
VERTEX
8
CUT
10
18.4000
20
-19.0500
0
VERTEX
8
CUT
10
18.4024
20
-18.9781
0
VERTEX
8
CUT
10
18.4094
20
-18.9064
0
VERTEX
8
CUT
10
18.4211
20
-18.8354
0
VERTEX
8
CUT
10
18.4375
20
-18.7653
0
VERTEX
8
CUT
10
18.4584
20
-18.6964
0
VERTEX
8
CUT
10
18.4837
20
-18.6290
0
VERTEX
8
CUT
10
18.5134
20
-18.5635
0
VERTEX
8
CUT
10
18.5474
20
-18.5000
0
VERTEX
8
CUT
10
18.5854
20
-18.4389
0
VERTEX
8
CUT
10
18.6273
20
-18.3804
0
VERTEX
8
CUT
10
18.6730
20
-18.3247
0
VERTEX
8
CUT
10
18.7222
20
-18.2722
0
VERTEX
8
CUT
10
18.7747
20
-18.2230
0
VERTEX
8
CUT
10
18.8304
20
-18.1773
0
VERTEX
8
CUT
10
18.8889
20
-18.1354
0
VERTEX
8
CUT
10
18.9500
20
-18.0974
0
VERTEX
8
CUT
10
19.0135
20
-18.0634
0
VERTEX
8
CUT
10
19.0790
20
-18.0337
0
VERTEX
8
CUT
10
19.1464
20
-18.0084
0
VERTEX
8
CUT
10
19.2153
20
-17.9875
0
VERTEX
8
CUT
10
19.2854
20
-17.9711
0
VERTEX
8
CUT
10
19.3564
20
-17.9594
0
VERTEX
8
CUT
10
19.4281
20
-17.9524
0
VERTEX
8
CUT
10
19.5000
20
-17.9500
0
VERTEX
8
CUT
10
19.5719
20
-17.9524
0
VERTEX
8
CUT
10
19.6436
20
-17.9594
0
VERTEX
8
CUT
10
19.7146
20
-17.9711
0
VERTEX
8
CUT
10
19.7847
20
-17.9875
0
VERTEX
8
CUT
10
19.8536
20
-18.0084
0
VERTEX
8
CUT
10
19.9210
20
-18.0337
0
VERTEX
8
CUT
10
19.9865
20
-18.0634
0
VERTEX
8
CUT
10
20.0500
20
-18.0974
0
VERTEX
8
CUT
10
20.1111
20
-18.1354
0
VERTEX
8
CUT
10
20.1696
20
-18.1773
0
VERTEX
8
CUT
10
20.2253
20
-18.2230
0
VERTEX
8
CUT
10
20.2778
20
-18.2722
0
VERTEX
8
CUT
10
20.3270
20
-18.3247
0
VERTEX
8
CUT
10
20.3727
20
-18.3804
0
VERTEX
8
CUT
10
20.4146
20
-18.4389
0
VERTEX
8
CUT
10
20.4526
20
-18.5000
0
VERTEX
8
CUT
10
20.4866
20
-18.5635
0
VERTEX
8
CUT
10
20.5163
20
-18.6290
0
VERTEX
8
CUT
10
20.5416
20
-18.6964
0
VERTEX
8
CUT
10
20.5625
20
-18.7653
0
VERTEX
8
CUT
10
20.5789
20
-18.8354
0
VERTEX
8
CUT
10
20.5906
20
-18.9064
0
VERTEX
8
CUT
10
20.5976
20
-18.9781
0
VERTEX
8
CUT
10
20.6000
20
-19.0500
0
VERTEX
8
CUT
10
20.5976
20
-19.1219
0
VERTEX
8
CUT
10
20.5906
20
-19.1936
0
VERTEX
8
CUT
10
20.5789
20
-19.2646
0
VERTEX
8
CUT
10
20.5625
20
-19.3347
0
VERTEX
8
CUT
10
20.5416
20
-19.4036
0
VERTEX
8
CUT
10
20.5163
20
-19.4710
0
VERTEX
8
CUT
10
20.4866
20
-19.5365
0
VERTEX
8
CUT
10
20.4526
20
-19.6000
0
VERTEX
8
CUT
10
20.4146
20
-19.6611
0
VERTEX
8
CUT
10
20.3727
20
-19.7196
0
VERTEX
8
CUT
10
20.3270
20
-19.7753
0
VERTEX
8
CUT
10
20.2778
20
-19.8278
0
VERTEX
8
CUT
10
20.2253
20
-19.8770
0
VERTEX
8
CUT
10
20.1696
20
-19.9227
0
VERTEX
8
CUT
10
20.1111
20
-19.9646
0
VERTEX
8
CUT
10
20.0500
20
-20.0026
0
VERTEX
8
CUT
10
19.9865
20
-20.0366
0
VERTEX
8
CUT
10
19.9210
20
-20.0663
0
VERTEX
8
CUT
10
19.8536
20
-20.0916
0
VERTEX
8
CUT
10
19.7847
20
-20.1125
0
VERTEX
8
CUT
10
19.7146
20
-20.1289
0
VERTEX
8
CUT
10
19.6436
20
-20.1406
0
VERTEX
8
CUT
10
19.5719
20
-20.1476
0
VERTEX
8
CUT
10
19.5000
20
-20.1500
0
SEQEND
0
POLYLINE
8
CUT
66
1
70
1
0
VERTEX
8
CUT
10
72.4281
20
-20.1476
0
VERTEX
8
CUT
10
72.3564
20
-20.1406
0
VERTEX
8
CUT
10
72.2854
20
-20.1289
0
VERTEX
8
CUT
10
72.2153
20
-20.1125
0
VERTEX
8
CUT
10
72.1464
20
-20.0916
0
VERTEX
8
CUT
10
72.0790
20
-20.0663
0
VERTEX
8
CUT
10
72.0135
20
-20.0366
0
VERTEX
8
CUT
10
71.9500
20
-20.0026
0
VERTEX
8
CUT
10
71.8889
20
-19.9646
0
VERTEX
8
CUT
10
71.8304
20
-19.9227
0
VERTEX
8
CUT
10
71.7747
20
-19.8770
0
VERTEX
8
CUT
10
71.7222
20
-19.8278
0
VERTEX
8
CUT
10
71.6730
20
-19.7753
0
VERTEX
8
CUT
10
71.6273
20
-19.7196
0
VERTEX
8
CUT
10
71.5854
20
-19.6611
0
VERTEX
8
CUT
10
71.5474
20
-19.6000
0
VERTEX
8
CUT
10
71.5134
20
-19.5365
0
VERTEX
8
CUT
10
71.4837
20
-19.4710
0
VERTEX
8
CUT
10
71.4584
20
-19.4036
0
VERTEX
8
CUT
10
71.4375
20
-19.3347
0
VERTEX
8
CUT
10
71.4211
20
-19.2646
0
VERTEX
8
CUT
10
71.4094
20
-19.1936
0
VERTEX
8
CUT
10
71.4024
20
-19.1219
0
VERTEX
8
CUT
10
71.4000
20
-19.0500
0
VERTEX
8
CUT
10
71.4024
20
-18.9781
0
VERTEX
8
CUT
10
71.4094
20
-18.9064
0
VERTEX
8
CUT
10
71.4211
20
-18.8354
0
VERTEX
8
CUT
10
71.4375
20
-18.7653
0
VERTEX
8
CUT
10
71.4584
20
-18.6964
0
VERTEX
8
CUT
10
71.4837
20
-18.6290
0
VERTEX
8
CUT
10
71.5134
20
-18.5635
0
VERTEX
8
CUT
10
71.5474
20
-18.5000
0
VERTEX
8
CUT
10
71.5854
20
-18.4389
0
VERTEX
8
CUT
10
71.6273
20
-18.3804
0
VERTEX
8
CUT
10
71.6730
20
-18.3247
0
VERTEX
8
CUT
10
71.7222
20
-18.2722
0
VERTEX
8
CUT
10
71.7747
20
-18.2230
0
VERTEX
8
CUT
10
71.8304
20
-18.1773
0
VERTEX
8
CUT
10
71.8889
20
-18.1354
0
VERTEX
8
CUT
10
71.9500
20
-18.0974
0
VERTEX
8
CUT
10
72.0135
20
-18.0634
0
VERTEX
8
CUT
10
72.0790
20
-18.0337
0
VERTEX
8
CUT
10
72.1464
20
-18.0084
0
VERTEX
8
CUT
10
72.2153
20
-17.9875
0
VERTEX
8
CUT
10
72.2854
20
-17.9711
0
VERTEX
8
CUT
10
72.3564
20
-17.9594
0
VERTEX
8
CUT
10
72.4281
20
-17.9524
0
VERTEX
8
CUT
10
72.5000
20
-17.9500
0
VERTEX
8
CUT
10
72.5719
20
-17.9524
0
VERTEX
8
CUT
10
72.6436
20
-17.9594
0
VERTEX
8
CUT
10
72.7146
20
-17.9711
0
VERTEX
8
CUT
10
72.7847
20
-17.9875
0
VERTEX
8
CUT
10
72.8536
20
-18.0084
0
VERTEX
8
CUT
10
72.9210
20
-18.0337
0
VERTEX
8
CUT
10
72.9865
20
-18.0634
0
VERTEX
8
CUT
10
73.0500
20
-18.0974
0
VERTEX
8
CUT
10
73.1111
20
-18.1354
0
VERTEX
8
CUT
10
73.1696
20
-18.1773
0
VERTEX
8
CUT
10
73.2253
20
-18.2230
0
VERTEX
8
CUT
10
73.2778
20
-18.2722
0
VERTEX
8
CUT
10
73.3270
20
-18.3247
0
VERTEX
8
CUT
10
73.3727
20
-18.3804
0
VERTEX
8
CUT
10
73.4146
20
-18.4389
0
VERTEX
8
CUT
10
73.4526
20
-18.5000
0
VERTEX
8
CUT
10
73.4866
20
-18.5635
0
VERTEX
8
CUT
10
73.5163
20
-18.6290
0
VERTEX
8
CUT
10
73.5416
20
-18.6964
0
VERTEX
8
CUT
10
73.5625
20
-18.7653
0
VERTEX
8
CUT
10
73.5789
20
-18.8354
0
VERTEX
8
CUT
10
73.5906
20
-18.9064
0
VERTEX
8
CUT
10
73.5976
20
-18.9781
0
VERTEX
8
CUT
10
73.6000
20
-19.0500
0
VERTEX
8
CUT
10
73.5976
20
-19.1219
0
VERTEX
8
CUT
10
73.5906
20
-19.1936
0
VERTEX
8
CUT
10
73.5789
20
-19.2646
0
VERTEX
8
CUT
10
73.5625
20
-19.3347
0
VERTEX
8
CUT
10
73.5416
20
-19.4036
0
VERTEX
8
CUT
10
73.5163
20
-19.4710
0
VERTEX
8
CUT
10
73.4866
20
-19.5365
0
VERTEX
8
CUT
10
73.4526
20
-19.6000
0
VERTEX
8
CUT
10
73.4146
20
-19.6611
0
VERTEX
8
CUT
10
73.3727
20
-19.7196
0
VERTEX
8
CUT
10
73.3270
20
-19.7753
0
VERTEX
8
CUT
10
73.2778
20
-19.8278
0
VERTEX
8
CUT
10
73.2253
20
-19.8770
0
VERTEX
8
CUT
10
73.1696
20
-19.9227
0
VERTEX
8
CUT
10
73.1111
20
-19.9646
0
VERTEX
8
CUT
10
73.0500
20
-20.0026
0
VERTEX
8
CUT
10
72.9865
20
-20.0366
0
VERTEX
8
CUT
10
72.9210
20
-20.0663
0
VERTEX
8
CUT
10
72.8536
20
-20.0916
0
VERTEX
8
CUT
10
72.7847
20
-20.1125
0
VERTEX
8
CUT
10
72.7146
20
-20.1289
0
VERTEX
8
CUT
10
72.6436
20
-20.1406
0
VERTEX
8
CUT
10
72.5719
20
-20.1476
0
VERTEX
8
CUT
10
72.5000
20
-20.1500
0
SEQEND
0
POLYLINE
8
CUT
66
1
70
1
0
VERTEX
8
CUT
10
123.9281
20
-20.1476
0
VERTEX
8
CUT
10
123.8564
20
-20.1406
0
VERTEX
8
CUT
10
123.7854
20
-20.1289
0
VERTEX
8
CUT
10
123.7153
20
-20.1125
0
VERTEX
8
CUT
10
123.6464
20
-20.0916
0
VERTEX
8
CUT
10
123.5790
20
-20.0663
0
VERTEX
8
CUT
10
123.5135
20
-20.0366
0
VERTEX
8
CUT
10
123.4500
20
-20.0026
0
VERTEX
8
CUT
10
123.3889
20
-19.9646
0
VERTEX
8
CUT
10
123.3304
20
-19.9227
0
VERTEX
8
CUT
10
123.2747
20
-19.8770
0
VERTEX
8
CUT
10
123.2222
20
-19.8278
0
VERTEX
8
CUT
10
123.1730
20
-19.7753
0
VERTEX
8
CUT
10
123.1273
20
-19.7196
0
VERTEX
8
CUT
10
123.0854
20
-19.6611
0
VERTEX
8
CUT
10
123.0474
20
-19.6000
0
VERTEX
8
CUT
10
123.0134
20
-19.5365
0
VERTEX
8
CUT
10
122.9837
20
-19.4710
0
VERTEX
8
CUT
10
122.9584
20
-19.4036
0
VERTEX
8
CUT
10
122.9375
20
-19.3347
0
VERTEX
8
CUT
10
122.9211
20
-19.2646
0
VERTEX
8
CUT
10
122.9094
20
-19.1936
0
VERTEX
8
CUT
10
122.9024
20
-19.1219
0
VERTEX
8
CUT
10
122.9000
20
-19.0500
0
VERTEX
8
CUT
10
122.9024
20
-18.9781
0
VERTEX
8
CUT
10
122.9094
20
-18.9064
0
VERTEX
8
CUT
10
122.9211
20
-18.8354
0
VERTEX
8
CUT
10
122.9375
20
-18.7653
0
VERTEX
8
CUT
10
122.9584
20
-18.6964
0
VERTEX
8
CUT
10
122.9837
20
-18.6290
0
VERTEX
8
CUT
10
123.0134
20
-18.5635
0
VERTEX
8
CUT
10
123.0474
20
-18.5000
0
VERTEX
8
CUT
10
123.0854
20
-18.4389
0
VERTEX
8
CUT
10
123.1273
20
-18.3804
0
VERTEX
8
CUT
10
123.1730
20
-18.3247
0
VERTEX
8
CUT
10
123.2222
20
-18.2722
0
VERTEX
8
CUT
10
123.2747
20
-18.2230
0
VERTEX
8
CUT
10
123.3304
20
-18.1773
0
VERTEX
8
CUT
10
123.3889
20
-18.1354
0
VERTEX
8
CUT
10
123.4500
20
-18.0974
0
VERTEX
8
CUT
10
123.5135
20
-18.0634
0
VERTEX
8
CUT
10
123.5790
20
-18.0337
0
VERTEX
8
CUT
10
123.6464
20
-18.0084
0
VERTEX
8
CUT
10
123.7153
20
-17.9875
0
VERTEX
8
CUT
10
123.7854
20
-17.9711
0
VERTEX
8
CUT
10
123.8564
20
-17.9594
0
VERTEX
8
CUT
10
123.9281
20
-17.9524
0
VERTEX
8
CUT
10
124.0000
20
-17.9500
0
VERTEX
8
CUT
10
124.0719
20
-17.9524
0
VERTEX
8
CUT
10
124.1436
20
-17.9594
0
VERTEX
8
CUT
10
124.2146
20
-17.9711
0
VERTEX
8
CUT
10
124.2847
20
-17.9875
0
VERTEX
8
CUT
10
124.3536
20
-18.0084
0
VERTEX
8
CUT
10
124.4210
20
-18.0337
0
VERTEX
8
CUT
10
124.4865
20
-18.0634
0
VERTEX
8
CUT
10
124.5500
20
-18.0974
0
VERTEX
8
CUT
10
124.6111
20
-18.1354
0
VERTEX
8
CUT
10
124.6696
20
-18.1773
0
VERTEX
8
CUT
10
124.7253
20
-18.2230
0
VERTEX
8
CUT
10
124.7778
20
-18.2722
0
VERTEX
8
CUT
10
124.8270
20
-18.3247
0
VERTEX
8
CUT
10
124.8727
20
-18.3804
0
VERTEX
8
CUT
10
124.9146
20
-18.4389
0
VERTEX
8
CUT
10
124.9526
20
-18.5000
0
VERTEX
8
CUT
10
124.9866
20
-18.5635
0
VERTEX
8
CUT
10
125.0163
20
-18.6290
0
VERTEX
8
CUT
10
125.0416
20
-18.6964
0
VERTEX
8
CUT
10
125.0625
20
-18.7653
0
VERTEX
8
CUT
10
125.0789
20
-18.8354
0
VERTEX
8
CUT
10
125.0906
20
-18.9064
0
VERTEX
8
CUT
10
125.0976
20
-18.9781
0
VERTEX
8
CUT
10
125.1000
20
-19.0500
0
VERTEX
8
CUT
10
125.0976
20
-19.1219
0
VERTEX
8
CUT
10
125.0906
20
-19.1936
0
VERTEX
8
CUT
10
125.0789
20
-19.2646
0
VERTEX
8
CUT
10
125.0625
20
-19.3347
0
VERTEX
8
CUT
10
125.0416
20
-19.4036
0
VERTEX
8
CUT
10
125.0163
20
-19.4710
0
VERTEX
8
CUT
10
124.9866
20
-19.5365
0
VERTEX
8
CUT
10
124.9526
20
-19.6000
0
VERTEX
8
CUT
10
124.9146
20
-19.6611
0
VERTEX
8
CUT
10
124.8727
20
-19.7196
0
VERTEX
8
CUT
10
124.8270
20
-19.7753
0
VERTEX
8
CUT
10
124.7778
20
-19.8278
0
VERTEX
8
CUT
10
124.7253
20
-19.8770
0
VERTEX
8
CUT
10
124.6696
20
-19.9227
0
VERTEX
8
CUT
10
124.6111
20
-19.9646
0
VERTEX
8
CUT
10
124.5500
20
-20.0026
0
VERTEX
8
CUT
10
124.4865
20
-20.0366
0
VERTEX
8
CUT
10
124.4210
20
-20.0663
0
VERTEX
8
CUT
10
124.3536
20
-20.0916
0
VERTEX
8
CUT
10
124.2847
20
-20.1125
0
VERTEX
8
CUT
10
124.2146
20
-20.1289
0
VERTEX
8
CUT
10
124.1436
20
-20.1406
0
VERTEX
8
CUT
10
124.0719
20
-20.1476
0
VERTEX
8
CUT
10
124.0000
20
-20.1500
0
SEQEND
0
POLYLINE
8
CUT
66
1
70
1
0
VERTEX
8
CUT
10
176.9281
20
-20.1476
0
VERTEX
8
CUT
10
176.8564
20
-20.1406
0
VERTEX
8
CUT
10
176.7854
20
-20.1289
0
VERTEX
8
CUT
10
176.7153
20
-20.1125
0
VERTEX
8
CUT
10
176.6464
20
-20.0916
0
VERTEX
8
CUT
10
176.5790
20
-20.0663
0
VERTEX
8
CUT
10
176.5135
20
-20.0366
0
VERTEX
8
CUT
10
176.4500
20
-20.0026
0
VERTEX
8
CUT
10
176.3889
20
-19.9646
0
VERTEX
8
CUT
10
176.3304
20
-19.9227
0
VERTEX
8
CUT
10
176.2747
20
-19.8770
0
VERTEX
8
CUT
10
176.2222
20
-19.8278
0
VERTEX
8
CUT
10
176.1730
20
-19.7753
0
VERTEX
8
CUT
10
176.1273
20
-19.7196
0
VERTEX
8
CUT
10
176.0854
20
-19.6611
0
VERTEX
8
CUT
10
176.0474
20
-19.6000
0
VERTEX
8
CUT
10
176.0134
20
-19.5365
0
VERTEX
8
CUT
10
175.9837
20
-19.4710
0
VERTEX
8
CUT
10
175.9584
20
-19.4036
0
VERTEX
8
CUT
10
175.9375
20
-19.3347
0
VERTEX
8
CUT
10
175.9211
20
-19.2646
0
VERTEX
8
CUT
10
175.9094
20
-19.1936
0
VERTEX
8
CUT
10
175.9024
20
-19.1219
0
VERTEX
8
CUT
10
175.9000
20
-19.0500
0
VERTEX
8
CUT
10
175.9024
20
-18.9781
0
VERTEX
8
CUT
10
175.9094
20
-18.9064
0
VERTEX
8
CUT
10
175.9211
20
-18.8354
0
VERTEX
8
CUT
10
175.9375
20
-18.7653
0
VERTEX
8
CUT
10
175.9584
20
-18.6964
0
VERTEX
8
CUT
10
175.9837
20
-18.6290
0
VERTEX
8
CUT
10
176.0134
20
-18.5635
0
VERTEX
8
CUT
10
176.0474
20
-18.5000
0
VERTEX
8
CUT
10
176.0854
20
-18.4389
0
VERTEX
8
CUT
10
176.1273
20
-18.3804
0
VERTEX
8
CUT
10
176.1730
20
-18.3247
0
VERTEX
8
CUT
10
176.2222
20
-18.2722
0
VERTEX
8
CUT
10
176.2747
20
-18.2230
0
VERTEX
8
CUT
10
176.3304
20
-18.1773
0
VERTEX
8
CUT
10
176.3889
20
-18.1354
0
VERTEX
8
CUT
10
176.4500
20
-18.0974
0
VERTEX
8
CUT
10
176.5135
20
-18.0634
0
VERTEX
8
CUT
10
176.5790
20
-18.0337
0
VERTEX
8
CUT
10
176.6464
20
-18.0084
0
VERTEX
8
CUT
10
176.7153
20
-17.9875
0
VERTEX
8
CUT
10
176.7854
20
-17.9711
0
VERTEX
8
CUT
10
176.8564
20
-17.9594
0
VERTEX
8
CUT
10
176.9281
20
-17.9524
0
VERTEX
8
CUT
10
177.0000
20
-17.9500
0
VERTEX
8
CUT
10
177.0719
20
-17.9524
0
VERTEX
8
CUT
10
177.1436
20
-17.9594
0
VERTEX
8
CUT
10
177.2146
20
-17.9711
0
VERTEX
8
CUT
10
177.2847
20
-17.9875
0
VERTEX
8
CUT
10
177.3536
20
-18.0084
0
VERTEX
8
CUT
10
177.4210
20
-18.0337
0
VERTEX
8
CUT
10
177.4865
20
-18.0634
0
VERTEX
8
CUT
10
177.5500
20
-18.0974
0
VERTEX
8
CUT
10
177.6111
20
-18.1354
0
VERTEX
8
CUT
10
177.6696
20
-18.1773
0
VERTEX
8
CUT
10
177.7253
20
-18.2230
0
VERTEX
8
CUT
10
177.7778
20
-18.2722
0
VERTEX
8
CUT
10
177.8270
20
-18.3247
0
VERTEX
8
CUT
10
177.8727
20
-18.3804
0
VERTEX
8
CUT
10
177.9146
20
-18.4389
0
VERTEX
8
CUT
10
177.9526
20
-18.5000
0
VERTEX
8
CUT
10
177.9866
20
-18.5635
0
VERTEX
8
CUT
10
178.0163
20
-18.6290
0
VERTEX
8
CUT
10
178.0416
20
-18.6964
0
VERTEX
8
CUT
10
178.0625
20
-18.7653
0
VERTEX
8
CUT
10
178.0789
20
-18.8354
0
VERTEX
8
CUT
10
178.0906
20
-18.9064
0
VERTEX
8
CUT
10
178.0976
20
-18.9781
0
VERTEX
8
CUT
10
178.1000
20
-19.0500
0
VERTEX
8
CUT
10
178.0976
20
-19.1219
0
VERTEX
8
CUT
10
178.0906
20
-19.1936
0
VERTEX
8
CUT
10
178.0789
20
-19.2646
0
VERTEX
8
CUT
10
178.0625
20
-19.3347
0
VERTEX
8
CUT
10
178.0416
20
-19.4036
0
VERTEX
8
CUT
10
178.0163
20
-19.4710
0
VERTEX
8
CUT
10
177.9866
20
-19.5365
0
VERTEX
8
CUT
10
177.9526
20
-19.6000
0
VERTEX
8
CUT
10
177.9146
20
-19.6611
0
VERTEX
8
CUT
10
177.8727
20
-19.7196
0
VERTEX
8
CUT
10
177.8270
20
-19.7753
0
VERTEX
8
CUT
10
177.7778
20
-19.8278
0
VERTEX
8
CUT
10
177.7253
20
-19.8770
0
VERTEX
8
CUT
10
177.6696
20
-19.9227
0
VERTEX
8
CUT
10
177.6111
20
-19.9646
0
VERTEX
8
CUT
10
177.5500
20
-20.0026
0
VERTEX
8
CUT
10
177.4865
20
-20.0366
0
VERTEX
8
CUT
10
177.4210
20
-20.0663
0
VERTEX
8
CUT
10
177.3536
20
-20.0916
0
VERTEX
8
CUT
10
177.2847
20
-20.1125
0
VERTEX
8
CUT
10
177.2146
20
-20.1289
0
VERTEX
8
CUT
10
177.1436
20
-20.1406
0
VERTEX
8
CUT
10
177.0719
20
-20.1476
0
VERTEX
8
CUT
10
177.0000
20
-20.1500
0
SEQEND
0
POLYLINE
8
CUT
66
1
70
1
0
VERTEX
8
CUT
10
201.0031
20
-55.7476
0
VERTEX
8
CUT
10
200.9314
20
-55.7406
0
VERTEX
8
CUT
10
200.8604
20
-55.7289
0
VERTEX
8
CUT
10
200.7903
20
-55.7125
0
VERTEX
8
CUT
10
200.7214
20
-55.6916
0
VERTEX
8
CUT
10
200.6540
20
-55.6663
0
VERTEX
8
CUT
10
200.5885
20
-55.6366
0
VERTEX
8
CUT
10
200.5250
20
-55.6026
0
VERTEX
8
CUT
10
200.4639
20
-55.5646
0
VERTEX
8
CUT
10
200.4054
20
-55.5227
0
VERTEX
8
CUT
10
200.3497
20
-55.4770
0
VERTEX
8
CUT
10
200.2972
20
-55.4278
0
VERTEX
8
CUT
10
200.2480
20
-55.3753
0
VERTEX
8
CUT
10
200.2023
20
-55.3196
0
VERTEX
8
CUT
10
200.1604
20
-55.2611
0
VERTEX
8
CUT
10
200.1224
20
-55.2000
0
VERTEX
8
CUT
10
200.0884
20
-55.1365
0
VERTEX
8
CUT
10
200.0587
20
-55.0710
0
VERTEX
8
CUT
10
200.0334
20
-55.0036
0
VERTEX
8
CUT
10
200.0125
20
-54.9347
0
VERTEX
8
CUT
10
199.9961
20
-54.8646
0
VERTEX
8
CUT
10
199.9844
20
-54.7936
0
VERTEX
8
CUT
10
199.9774
20
-54.7219
0
VERTEX
8
CUT
10
199.9750
20
-54.6500
0
VERTEX
8
CUT
10
199.9774
20
-54.5781
0
VERTEX
8
CUT
10
199.9844
20
-54.5064
0
VERTEX
8
CUT
10
199.9961
20
-54.4354
0
VERTEX
8
CUT
10
200.0125
20
-54.3653
0
VERTEX
8
CUT
10
200.0334
20
-54.2964
0
VERTEX
8
CUT
10
200.0587
20
-54.2290
0
VERTEX
8
CUT
10
200.0884
20
-54.1635
0
VERTEX
8
CUT
10
200.1224
20
-54.1000
0
VERTEX
8
CUT
10
200.1604
20
-54.0389
0
VERTEX
8
CUT
10
200.2023
20
-53.9804
0
VERTEX
8
CUT
10
200.2480
20
-53.9247
0
VERTEX
8
CUT
10
200.2972
20
-53.8722
0
VERTEX
8
CUT
10
200.3497
20
-53.8230
0
VERTEX
8
CUT
10
200.4054
20
-53.7773
0
VERTEX
8
CUT
10
200.4639
20
-53.7354
0
VERTEX
8
CUT
10
200.5250
20
-53.6974
0
VERTEX
8
CUT
10
200.5885
20
-53.6634
0
VERTEX
8
CUT
10
200.6540
20
-53.6337
0
VERTEX
8
CUT
10
200.7214
20
-53.6084
0
VERTEX
8
CUT
10
200.7903
20
-53.5875
0
VERTEX
8
CUT
10
200.8604
20
-53.5711
0
VERTEX
8
CUT
10
200.9314
20
-53.5594
0
VERTEX
8
CUT
10
201.0031
20
-53.5524
0
VERTEX
8
CUT
10
201.0750
20
-53.5500
0
VERTEX
8
CUT
10
201.1469
20
-53.5524
0
VERTEX
8
CUT
10
201.2186
20
-53.5594
0
VERTEX
8
CUT
10
201.2896
20
-53.5711
0
VERTEX
8
CUT
10
201.3597
20
-53.5875
0
VERTEX
8
CUT
10
201.4286
20
-53.6084
0
VERTEX
8
CUT
10
201.4960
20
-53.6337
0
VERTEX
8
CUT
10
201.5615
20
-53.6634
0
VERTEX
8
CUT
10
201.6250
20
-53.6974
0
VERTEX
8
CUT
10
201.6861
20
-53.7354
0
VERTEX
8
CUT
10
201.7446
20
-53.7773
0
VERTEX
8
CUT
10
201.8003
20
-53.8230
0
VERTEX
8
CUT
10
201.8528
20
-53.8722
0
VERTEX
8
CUT
10
201.9020
20
-53.9247
0
VERTEX
8
CUT
10
201.9477
20
-53.9804
0
VERTEX
8
CUT
10
201.9896
20
-54.0389
0
VERTEX
8
CUT
10
202.0276
20
-54.1000
0
VERTEX
8
CUT
10
202.0616
20
-54.1635
0
VERTEX
8
CUT
10
202.0913
20
-54.2290
0
VERTEX
8
CUT
10
202.1166
20
-54.2964
0
VERTEX
8
CUT
10
202.1375
20
-54.3653
0
VERTEX
8
CUT
10
202.1539
20
-54.4354
0
VERTEX
8
CUT
10
202.1656
20
-54.5064
0
VERTEX
8
CUT
10
202.1726
20
-54.5781
0
VERTEX
8
CUT
10
202.1750
20
-54.6500
0
VERTEX
8
CUT
10
202.1726
20
-54.7219
0
VERTEX
8
CUT
10
202.1656
20
-54.7936
0
VERTEX
8
CUT
10
202.1539
20
-54.8646
0
VERTEX
8
CUT
10
202.1375
20
-54.9347
0
VERTEX
8
CUT
10
202.1166
20
-55.0036
0
VERTEX
8
CUT
10
202.0913
20
-55.0710
0
VERTEX
8
CUT
10
202.0616
20
-55.1365
0
VERTEX
8
CUT
10
202.0276
20
-55.2000
0
VERTEX
8
CUT
10
201.9896
20
-55.2611
0
VERTEX
8
CUT
10
201.9477
20
-55.3196
0
VERTEX
8
CUT
10
201.9020
20
-55.3753
0
VERTEX
8
CUT
10
201.8528
20
-55.4278
0
VERTEX
8
CUT
10
201.8003
20
-55.4770
0
VERTEX
8
CUT
10
201.7446
20
-55.5227
0
VERTEX
8
CUT
10
201.6861
20
-55.5646
0
VERTEX
8
CUT
10
201.6250
20
-55.6026
0
VERTEX
8
CUT
10
201.5615
20
-55.6366
0
VERTEX
8
CUT
10
201.4960
20
-55.6663
0
VERTEX
8
CUT
10
201.4286
20
-55.6916
0
VERTEX
8
CUT
10
201.3597
20
-55.7125
0
VERTEX
8
CUT
10
201.2896
20
-55.7289
0
VERTEX
8
CUT
10
201.2186
20
-55.7406
0
VERTEX
8
CUT
10
201.1469
20
-55.7476
0
VERTEX
8
CUT
10
201.0750
20
-55.7500
0
SEQEND
0
POLYLINE
8
CUT
66
1
70
1
0
VERTEX
8
CUT
10
12.8519
20
-61.4343
0
VERTEX
8
CUT
10
12.7542
20
-61.4247
0
VERTEX
8
CUT
10
12.6574
20
-61.4087
0
VERTEX
8
CUT
10
12.5618
20
-61.3864
0
VERTEX
8
CUT
10
12.4678
20
-61.3579
0
VERTEX
8
CUT
10
12.3760
20
-61.3233
0
VERTEX
8
CUT
10
12.2866
20
-61.2828
0
VERTEX
8
CUT
10
12.2000
20
-61.2365
0
VERTEX
8
CUT
10
12.1166
20
-61.1847
0
VERTEX
8
CUT
10
12.0369
20
-61.1275
0
VERTEX
8
CUT
10
11.9610
20
-61.0653
0
VERTEX
8
CUT
10
11.8893
20
-60.9982
0
VERTEX
8
CUT
10
11.8222
20
-60.9265
0
VERTEX
8
CUT
10
11.7600
20
-60.8506
0
VERTEX
8
CUT
10
11.7028
20
-60.7709
0
VERTEX
8
CUT
10
11.6510
20
-60.6875
0
VERTEX
8
CUT
10
11.6047
20
-60.6009
0
VERTEX
8
CUT
10
11.5642
20
-60.5115
0
VERTEX
8
CUT
10
11.5296
20
-60.4197
0
VERTEX
8
CUT
10
11.5011
20
-60.3257
0
VERTEX
8
CUT
10
11.4788
20
-60.2301
0
VERTEX
8
CUT
10
11.4628
20
-60.1333
0
VERTEX
8
CUT
10
11.4532
20
-60.0356
0
VERTEX
8
CUT
10
11.4500
20
-59.9375
0
VERTEX
8
CUT
10
11.4532
20
-59.8394
0
VERTEX
8
CUT
10
11.4628
20
-59.7417
0
VERTEX
8
CUT
10
11.4788
20
-59.6449
0
VERTEX
8
CUT
10
11.5011
20
-59.5493
0
VERTEX
8
CUT
10
11.5296
20
-59.4553
0
VERTEX
8
CUT
10
11.5642
20
-59.3635
0
VERTEX
8
CUT
10
11.6047
20
-59.2741
0
VERTEX
8
CUT
10
11.6510
20
-59.1875
0
VERTEX
8
CUT
10
11.7028
20
-59.1041
0
VERTEX
8
CUT
10
11.7600
20
-59.0244
0
VERTEX
8
CUT
10
11.8222
20
-58.9485
0
VERTEX
8
CUT
10
11.8893
20
-58.8768
0
VERTEX
8
CUT
10
11.9610
20
-58.8097
0
VERTEX
8
CUT
10
12.0369
20
-58.7475
0
VERTEX
8
CUT
10
12.1166
20
-58.6903
0
VERTEX
8
CUT
10
12.2000
20
-58.6385
0
VERTEX
8
CUT
10
12.2866
20
-58.5922
0
VERTEX
8
CUT
10
12.3760
20
-58.5517
0
VERTEX
8
CUT
10
12.4678
20
-58.5171
0
VERTEX
8
CUT
10
12.5618
20
-58.4886
0
VERTEX
8
CUT
10
12.6574
20
-58.4663
0
VERTEX
8
CUT
10
12.7542
20
-58.4503
0
VERTEX
8
CUT
10
12.8519
20
-58.4407
0
VERTEX
8
CUT
10
12.9500
20
-58.4375
0
VERTEX
8
CUT
10
13.0481
20
-58.4407
0
VERTEX
8
CUT
10
13.1458
20
-58.4503
0
VERTEX
8
CUT
10
13.2426
20
-58.4663
0
VERTEX
8
CUT
10
13.3382
20
-58.4886
0
VERTEX
8
CUT
10
13.4322
20
-58.5171
0
VERTEX
8
CUT
10
13.5240
20
-58.5517
0
VERTEX
8
CUT
10
13.6134
20
-58.5922
0
VERTEX
8
CUT
10
13.7000
20
-58.6385
0
VERTEX
8
CUT
10
13.7834
20
-58.6903
0
VERTEX
8
CUT
10
13.8631
20
-58.7475
0
VERTEX
8
CUT
10
13.9390
20
-58.8097
0
VERTEX
8
CUT
10
14.0107
20
-58.8768
0
VERTEX
8
CUT
10
14.0778
20
-58.9485
0
VERTEX
8
CUT
10
14.1400
20
-59.0244
0
VERTEX
8
CUT
10
14.1972
20
-59.1041
0
VERTEX
8
CUT
10
14.2490
20
-59.1875
0
VERTEX
8
CUT
10
14.2953
20
-59.2741
0
VERTEX
8
CUT
10
14.3358
20
-59.3635
0
VERTEX
8
CUT
10
14.3704
20
-59.4553
0
VERTEX
8
CUT
10
14.3989
20
-59.5493
0
VERTEX
8
CUT
10
14.4212
20
-59.6449
0
VERTEX
8
CUT
10
14.4372
20
-59.7417
0
VERTEX
8
CUT
10
14.4468
20
-59.8394
0
VERTEX
8
CUT
10
14.4500
20
-59.9375
0
VERTEX
8
CUT
10
14.4468
20
-60.0356
0
VERTEX
8
CUT
10
14.4372
20
-60.1333
0
VERTEX
8
CUT
10
14.4212
20
-60.2301
0
VERTEX
8
CUT
10
14.3989
20
-60.3257
0
VERTEX
8
CUT
10
14.3704
20
-60.4197
0
VERTEX
8
CUT
10
14.3358
20
-60.5115
0
VERTEX
8
CUT
10
14.2953
20
-60.6009
0
VERTEX
8
CUT
10
14.2490
20
-60.6875
0
VERTEX
8
CUT
10
14.1972
20
-60.7709
0
VERTEX
8
CUT
10
14.1400
20
-60.8506
0
VERTEX
8
CUT
10
14.0778
20
-60.9265
0
VERTEX
8
CUT
10
14.0107
20
-60.9982
0
VERTEX
8
CUT
10
13.9390
20
-61.0653
0
VERTEX
8
CUT
10
13.8631
20
-61.1275
0
VERTEX
8
CUT
10
13.7834
20
-61.1847
0
VERTEX
8
CUT
10
13.7000
20
-61.2365
0
VERTEX
8
CUT
10
13.6134
20
-61.2828
0
VERTEX
8
CUT
10
13.5240
20
-61.3233
0
VERTEX
8
CUT
10
13.4322
20
-61.3579
0
VERTEX
8
CUT
10
13.3382
20
-61.3864
0
VERTEX
8
CUT
10
13.2426
20
-61.4087
0
VERTEX
8
CUT
10
13.1458
20
-61.4247
0
VERTEX
8
CUT
10
13.0481
20
-61.4343
0
VERTEX
8
CUT
10
12.9500
20
-61.4375
0
SEQEND
0
POLYLINE
8
CUT
66
1
70
1
0
VERTEX
8
CUT
10
-7.5719
20
-67.5451
0
VERTEX
8
CUT
10
-7.6436
20
-67.5381
0
VERTEX
8
CUT
10
-7.7146
20
-67.5264
0
VERTEX
8
CUT
10
-7.7847
20
-67.5100
0
VERTEX
8
CUT
10
-7.8536
20
-67.4891
0
VERTEX
8
CUT
10
-7.9210
20
-67.4638
0
VERTEX
8
CUT
10
-7.9865
20
-67.4341
0
VERTEX
8
CUT
10
-8.0500
20
-67.4001
0
VERTEX
8
CUT
10
-8.1111
20
-67.3621
0
VERTEX
8
CUT
10
-8.1696
20
-67.3202
0
VERTEX
8
CUT
10
-8.2253
20
-67.2745
0
VERTEX
8
CUT
10
-8.2778
20
-67.2253
0
VERTEX
8
CUT
10
-8.3270
20
-67.1728
0
VERTEX
8
CUT
10
-8.3727
20
-67.1171
0
VERTEX
8
CUT
10
-8.4146
20
-67.0586
0
VERTEX
8
CUT
10
-8.4526
20
-66.9975
0
VERTEX
8
CUT
10
-8.4866
20
-66.9340
0
VERTEX
8
CUT
10
-8.5163
20
-66.8685
0
VERTEX
8
CUT
10
-8.5416
20
-66.8011
0
VERTEX
8
CUT
10
-8.5625
20
-66.7322
0
VERTEX
8
CUT
10
-8.5789
20
-66.6621
0
VERTEX
8
CUT
10
-8.5906
20
-66.5911
0
VERTEX
8
CUT
10
-8.5976
20
-66.5194
0
VERTEX
8
CUT
10
-8.6000
20
-66.4475
0
VERTEX
8
CUT
10
-8.5976
20
-66.3756
0
VERTEX
8
CUT
10
-8.5906
20
-66.3039
0
VERTEX
8
CUT
10
-8.5789
20
-66.2329
0
VERTEX
8
CUT
10
-8.5625
20
-66.1628
0
VERTEX
8
CUT
10
-8.5416
20
-66.0939
0
VERTEX
8
CUT
10
-8.5163
20
-66.0265
0
VERTEX
8
CUT
10
-8.4866
20
-65.9610
0
VERTEX
8
CUT
10
-8.4526
20
-65.8975
0
VERTEX
8
CUT
10
-8.4146
20
-65.8364
0
VERTEX
8
CUT
10
-8.3727
20
-65.7779
0
VERTEX
8
CUT
10
-8.3270
20
-65.7222
0
VERTEX
8
CUT
10
-8.2778
20
-65.6697
0
VERTEX
8
CUT
10
-8.2253
20
-65.6205
0
VERTEX
8
CUT
10
-8.1696
20
-65.5748
0
VERTEX
8
CUT
10
-8.1111
20
-65.5329
0
VERTEX
8
CUT
10
-8.0500
20
-65.4949
0
VERTEX
8
CUT
10
-7.9865
20
-65.4609
0
VERTEX
8
CUT
10
-7.9210
20
-65.4312
0
VERTEX
8
CUT
10
-7.8536
20
-65.4059
0
VERTEX
8
CUT
10
-7.7847
20
-65.3850
0
VERTEX
8
CUT
10
-7.7146
20
-65.3686
0
VERTEX
8
CUT
10
-7.6436
20
-65.3569
0
VERTEX
8
CUT
10
-7.5719
20
-65.3499
0
VERTEX
8
CUT
10
-7.5000
20
-65.3475
0
VERTEX
8
CUT
10
-7.4281
20
-65.3499
0
VERTEX
8
CUT
10
-7.3564
20
-65.3569
0
VERTEX
8
CUT
10
-7.2854
20
-65.3686
0
VERTEX
8
CUT
10
-7.2153
20
-65.3850
0
VERTEX
8
CUT
10
-7.1464
20
-65.4059
0
VERTEX
8
CUT
10
-7.0790
20
-65.4312
0
VERTEX
8
CUT
10
-7.0135
20
-65.4609
0
VERTEX
8
CUT
10
-6.9500
20
-65.4949
0
VERTEX
8
CUT
10
-6.8889
20
-65.5329
0
VERTEX
8
CUT
10
-6.8304
20
-65.5748
0
VERTEX
8
CUT
10
-6.7747
20
-65.6205
0
VERTEX
8
CUT
10
-6.7222
20
-65.6697
0
VERTEX
8
CUT
10
-6.6730
20
-65.7222
0
VERTEX
8
CUT
10
-6.6273
20
-65.7779
0
VERTEX
8
CUT
10
-6.5854
20
-65.8364
0
VERTEX
8
CUT
10
-6.5474
20
-65.8975
0
VERTEX
8
CUT
10
-6.5134
20
-65.9610
0
VERTEX
8
CUT
10
-6.4837
20
-66.0265
0
VERTEX
8
CUT
10
-6.4584
20
-66.0939
0
VERTEX
8
CUT
10
-6.4375
20
-66.1628
0
VERTEX
8
CUT
10
-6.4211
20
-66.2329
0
VERTEX
8
CUT
10
-6.4094
20
-66.3039
0
VERTEX
8
CUT
10
-6.4024
20
-66.3756
0
VERTEX
8
CUT
10
-6.4000
20
-66.4475
0
VERTEX
8
CUT
10
-6.4024
20
-66.5194
0
VERTEX
8
CUT
10
-6.4094
20
-66.5911
0
VERTEX
8
CUT
10
-6.4211
20
-66.6621
0
VERTEX
8
CUT
10
-6.4375
20
-66.7322
0
VERTEX
8
CUT
10
-6.4584
20
-66.8011
0
VERTEX
8
CUT
10
-6.4837
20
-66.8685
0
VERTEX
8
CUT
10
-6.5134
20
-66.9340
0
VERTEX
8
CUT
10
-6.5474
20
-66.9975
0
VERTEX
8
CUT
10
-6.5854
20
-67.0586
0
VERTEX
8
CUT
10
-6.6273
20
-67.1171
0
VERTEX
8
CUT
10
-6.6730
20
-67.1728
0
VERTEX
8
CUT
10
-6.7222
20
-67.2253
0
VERTEX
8
CUT
10
-6.7747
20
-67.2745
0
VERTEX
8
CUT
10
-6.8304
20
-67.3202
0
VERTEX
8
CUT
10
-6.8889
20
-67.3621
0
VERTEX
8
CUT
10
-6.9500
20
-67.4001
0
VERTEX
8
CUT
10
-7.0135
20
-67.4341
0
VERTEX
8
CUT
10
-7.0790
20
-67.4638
0
VERTEX
8
CUT
10
-7.1464
20
-67.4891
0
VERTEX
8
CUT
10
-7.2153
20
-67.5100
0
VERTEX
8
CUT
10
-7.2854
20
-67.5264
0
VERTEX
8
CUT
10
-7.3564
20
-67.5381
0
VERTEX
8
CUT
10
-7.4281
20
-67.5451
0
VERTEX
8
CUT
10
-7.5000
20
-67.5475
0
SEQEND
0
POLYLINE
8
CUT
66
1
70
1
0
VERTEX
8
CUT
10
19.4281
20
-96.3476
0
VERTEX
8
CUT
10
19.3564
20
-96.3406
0
VERTEX
8
CUT
10
19.2854
20
-96.3289
0
VERTEX
8
CUT
10
19.2153
20
-96.3125
0
VERTEX
8
CUT
10
19.1464
20
-96.2916
0
VERTEX
8
CUT
10
19.0790
20
-96.2663
0
VERTEX
8
CUT
10
19.0135
20
-96.2366
0
VERTEX
8
CUT
10
18.9500
20
-96.2026
0
VERTEX
8
CUT
10
18.8889
20
-96.1646
0
VERTEX
8
CUT
10
18.8304
20
-96.1227
0
VERTEX
8
CUT
10
18.7747
20
-96.0770
0
VERTEX
8
CUT
10
18.7222
20
-96.0278
0
VERTEX
8
CUT
10
18.6730
20
-95.9753
0
VERTEX
8
CUT
10
18.6273
20
-95.9196
0
VERTEX
8
CUT
10
18.5854
20
-95.8611
0
VERTEX
8
CUT
10
18.5474
20
-95.8000
0
VERTEX
8
CUT
10
18.5134
20
-95.7365
0
VERTEX
8
CUT
10
18.4837
20
-95.6710
0
VERTEX
8
CUT
10
18.4584
20
-95.6036
0
VERTEX
8
CUT
10
18.4375
20
-95.5347
0
VERTEX
8
CUT
10
18.4211
20
-95.4646
0
VERTEX
8
CUT
10
18.4094
20
-95.3936
0
VERTEX
8
CUT
10
18.4024
20
-95.3219
0
VERTEX
8
CUT
10
18.4000
20
-95.2500
0
VERTEX
8
CUT
10
18.4024
20
-95.1781
0
VERTEX
8
CUT
10
18.4094
20
-95.1064
0
VERTEX
8
CUT
10
18.4211
20
-95.0354
0
VERTEX
8
CUT
10
18.4375
20
-94.9653
0
VERTEX
8
CUT
10
18.4584
20
-94.8964
0
VERTEX
8
CUT
10
18.4837
20
-94.8290
0
VERTEX
8
CUT
10
18.5134
20
-94.7635
0
VERTEX
8
CUT
10
18.5474
20
-94.7000
0
VERTEX
8
CUT
10
18.5854
20
-94.6389
0
VERTEX
8
CUT
10
18.6273
20
-94.5804
0
VERTEX
8
CUT
10
18.6730
20
-94.5247
0
VERTEX
8
CUT
10
18.7222
20
-94.4722
0
VERTEX
8
CUT
10
18.7747
20
-94.4230
0
VERTEX
8
CUT
10
18.8304
20
-94.3773
0
VERTEX
8
CUT
10
18.8889
20
-94.3354
0
VERTEX
8
CUT
10
18.9500
20
-94.2974
0
VERTEX
8
CUT
10
19.0135
20
-94.2634
0
VERTEX
8
CUT
10
19.0790
20
-94.2337
0
VERTEX
8
CUT
10
19.1464
20
-94.2084
0
VERTEX
8
CUT
10
19.2153
20
-94.1875
0
VERTEX
8
CUT
10
19.2854
20
-94.1711
0
VERTEX
8
CUT
10
19.3564
20
-94.1594
0
VERTEX
8
CUT
10
19.4281
20
-94.1524
0
VERTEX
8
CUT
10
19.5000
20
-94.1500
0
VERTEX
8
CUT
10
19.5719
20
-94.1524
0
VERTEX
8
CUT
10
19.6436
20
-94.1594
0
VERTEX
8
CUT
10
19.7146
20
-94.1711
0
VERTEX
8
CUT
10
19.7847
20
-94.1875
0
VERTEX
8
CUT
10
19.8536
20
-94.2084
0
VERTEX
8
CUT
10
19.9210
20
-94.2337
0
VERTEX
8
CUT
10
19.9865
20
-94.2634
0
VERTEX
8
CUT
10
20.0500
20
-94.2974
0
VERTEX
8
CUT
10
20.1111
20
-94.3354
0
VERTEX
8
CUT
10
20.1696
20
-94.3773
0
VERTEX
8
CUT
10
20.2253
20
-94.4230
0
VERTEX
8
CUT
10
20.2778
20
-94.4722
0
VERTEX
8
CUT
10
20.3270
20
-94.5247
0
VERTEX
8
CUT
10
20.3727
20
-94.5804
0
VERTEX
8
CUT
10
20.4146
20
-94.6389
0
VERTEX
8
CUT
10
20.4526
20
-94.7000
0
VERTEX
8
CUT
10
20.4866
20
-94.7635
0
VERTEX
8
CUT
10
20.5163
20
-94.8290
0
VERTEX
8
CUT
10
20.5416
20
-94.8964
0
VERTEX
8
CUT
10
20.5625
20
-94.9653
0
VERTEX
8
CUT
10
20.5789
20
-95.0354
0
VERTEX
8
CUT
10
20.5906
20
-95.1064
0
VERTEX
8
CUT
10
20.5976
20
-95.1781
0
VERTEX
8
CUT
10
20.6000
20
-95.2500
0
VERTEX
8
CUT
10
20.5976
20
-95.3219
0
VERTEX
8
CUT
10
20.5906
20
-95.3936
0
VERTEX
8
CUT
10
20.5789
20
-95.4646
0
VERTEX
8
CUT
10
20.5625
20
-95.5347
0
VERTEX
8
CUT
10
20.5416
20
-95.6036
0
VERTEX
8
CUT
10
20.5163
20
-95.6710
0
VERTEX
8
CUT
10
20.4866
20
-95.7365
0
VERTEX
8
CUT
10
20.4526
20
-95.8000
0
VERTEX
8
CUT
10
20.4146
20
-95.8611
0
VERTEX
8
CUT
10
20.3727
20
-95.9196
0
VERTEX
8
CUT
10
20.3270
20
-95.9753
0
VERTEX
8
CUT
10
20.2778
20
-96.0278
0
VERTEX
8
CUT
10
20.2253
20
-96.0770
0
VERTEX
8
CUT
10
20.1696
20
-96.1227
0
VERTEX
8
CUT
10
20.1111
20
-96.1646
0
VERTEX
8
CUT
10
20.0500
20
-96.2026
0
VERTEX
8
CUT
10
19.9865
20
-96.2366
0
VERTEX
8
CUT
10
19.9210
20
-96.2663
0
VERTEX
8
CUT
10
19.8536
20
-96.2916
0
VERTEX
8
CUT
10
19.7847
20
-96.3125
0
VERTEX
8
CUT
10
19.7146
20
-96.3289
0
VERTEX
8
CUT
10
19.6436
20
-96.3406
0
VERTEX
8
CUT
10
19.5719
20
-96.3476
0
VERTEX
8
CUT
10
19.5000
20
-96.3500
0
SEQEND
0
POLYLINE
8
CUT
66
1
70
1
0
VERTEX
8
CUT
10
72.4281
20
-96.3476
0
VERTEX
8
CUT
10
72.3564
20
-96.3406
0
VERTEX
8
CUT
10
72.2854
20
-96.3289
0
VERTEX
8
CUT
10
72.2153
20
-96.3125
0
VERTEX
8
CUT
10
72.1464
20
-96.2916
0
VERTEX
8
CUT
10
72.0790
20
-96.2663
0
VERTEX
8
CUT
10
72.0135
20
-96.2366
0
VERTEX
8
CUT
10
71.9500
20
-96.2026
0
VERTEX
8
CUT
10
71.8889
20
-96.1646
0
VERTEX
8
CUT
10
71.8304
20
-96.1227
0
VERTEX
8
CUT
10
71.7747
20
-96.0770
0
VERTEX
8
CUT
10
71.7222
20
-96.0278
0
VERTEX
8
CUT
10
71.6730
20
-95.9753
0
VERTEX
8
CUT
10
71.6273
20
-95.9196
0
VERTEX
8
CUT
10
71.5854
20
-95.8611
0
VERTEX
8
CUT
10
71.5474
20
-95.8000
0
VERTEX
8
CUT
10
71.5134
20
-95.7365
0
VERTEX
8
CUT
10
71.4837
20
-95.6710
0
VERTEX
8
CUT
10
71.4584
20
-95.6036
0
VERTEX
8
CUT
10
71.4375
20
-95.5347
0
VERTEX
8
CUT
10
71.4211
20
-95.4646
0
VERTEX
8
CUT
10
71.4094
20
-95.3936
0
VERTEX
8
CUT
10
71.4024
20
-95.3219
0
VERTEX
8
CUT
10
71.4000
20
-95.2500
0
VERTEX
8
CUT
10
71.4024
20
-95.1781
0
VERTEX
8
CUT
10
71.4094
20
-95.1064
0
VERTEX
8
CUT
10
71.4211
20
-95.0354
0
VERTEX
8
CUT
10
71.4375
20
-94.9653
0
VERTEX
8
CUT
10
71.4584
20
-94.8964
0
VERTEX
8
CUT
10
71.4837
20
-94.8290
0
VERTEX
8
CUT
10
71.5134
20
-94.7635
0
VERTEX
8
CUT
10
71.5474
20
-94.7000
0
VERTEX
8
CUT
10
71.5854
20
-94.6389
0
VERTEX
8
CUT
10
71.6273
20
-94.5804
0
VERTEX
8
CUT
10
71.6730
20
-94.5247
0
VERTEX
8
CUT
10
71.7222
20
-94.4722
0
VERTEX
8
CUT
10
71.7747
20
-94.4230
0
VERTEX
8
CUT
10
71.8304
20
-94.3773
0
VERTEX
8
CUT
10
71.8889
20
-94.3354
0
VERTEX
8
CUT
10
71.9500
20
-94.2974
0
VERTEX
8
CUT
10
72.0135
20
-94.2634
0
VERTEX
8
CUT
10
72.0790
20
-94.2337
0
VERTEX
8
CUT
10
72.1464
20
-94.2084
0
VERTEX
8
CUT
10
72.2153
20
-94.1875
0
VERTEX
8
CUT
10
72.2854
20
-94.1711
0
VERTEX
8
CUT
10
72.3564
20
-94.1594
0
VERTEX
8
CUT
10
72.4281
20
-94.1524
0
VERTEX
8
CUT
10
72.5000
20
-94.1500
0
VERTEX
8
CUT
10
72.5719
20
-94.1524
0
VERTEX
8
CUT
10
72.6436
20
-94.1594
0
VERTEX
8
CUT
10
72.7146
20
-94.1711
0
VERTEX
8
CUT
10
72.7847
20
-94.1875
0
VERTEX
8
CUT
10
72.8536
20
-94.2084
0
VERTEX
8
CUT
10
72.9210
20
-94.2337
0
VERTEX
8
CUT
10
72.9865
20
-94.2634
0
VERTEX
8
CUT
10
73.0500
20
-94.2974
0
VERTEX
8
CUT
10
73.1111
20
-94.3354
0
VERTEX
8
CUT
10
73.1696
20
-94.3773
0
VERTEX
8
CUT
10
73.2253
20
-94.4230
0
VERTEX
8
CUT
10
73.2778
20
-94.4722
0
VERTEX
8
CUT
10
73.3270
20
-94.5247
0
VERTEX
8
CUT
10
73.3727
20
-94.5804
0
VERTEX
8
CUT
10
73.4146
20
-94.6389
0
VERTEX
8
CUT
10
73.4526
20
-94.7000
0
VERTEX
8
CUT
10
73.4866
20
-94.7635
0
VERTEX
8
CUT
10
73.5163
20
-94.8290
0
VERTEX
8
CUT
10
73.5416
20
-94.8964
0
VERTEX
8
CUT
10
73.5625
20
-94.9653
0
VERTEX
8
CUT
10
73.5789
20
-95.0354
0
VERTEX
8
CUT
10
73.5906
20
-95.1064
0
VERTEX
8
CUT
10
73.5976
20
-95.1781
0
VERTEX
8
CUT
10
73.6000
20
-95.2500
0
VERTEX
8
CUT
10
73.5976
20
-95.3219
0
VERTEX
8
CUT
10
73.5906
20
-95.3936
0
VERTEX
8
CUT
10
73.5789
20
-95.4646
0
VERTEX
8
CUT
10
73.5625
20
-95.5347
0
VERTEX
8
CUT
10
73.5416
20
-95.6036
0
VERTEX
8
CUT
10
73.5163
20
-95.6710
0
VERTEX
8
CUT
10
73.4866
20
-95.7365
0
VERTEX
8
CUT
10
73.4526
20
-95.8000
0
VERTEX
8
CUT
10
73.4146
20
-95.8611
0
VERTEX
8
CUT
10
73.3727
20
-95.9196
0
VERTEX
8
CUT
10
73.3270
20
-95.9753
0
VERTEX
8
CUT
10
73.2778
20
-96.0278
0
VERTEX
8
CUT
10
73.2253
20
-96.0770
0
VERTEX
8
CUT
10
73.1696
20
-96.1227
0
VERTEX
8
CUT
10
73.1111
20
-96.1646
0
VERTEX
8
CUT
10
73.0500
20
-96.2026
0
VERTEX
8
CUT
10
72.9865
20
-96.2366
0
VERTEX
8
CUT
10
72.9210
20
-96.2663
0
VERTEX
8
CUT
10
72.8536
20
-96.2916
0
VERTEX
8
CUT
10
72.7847
20
-96.3125
0
VERTEX
8
CUT
10
72.7146
20
-96.3289
0
VERTEX
8
CUT
10
72.6436
20
-96.3406
0
VERTEX
8
CUT
10
72.5719
20
-96.3476
0
VERTEX
8
CUT
10
72.5000
20
-96.3500
0
SEQEND
0
POLYLINE
8
CUT
66
1
70
1
0
VERTEX
8
CUT
10
121.4281
20
-96.3476
0
VERTEX
8
CUT
10
121.3564
20
-96.3406
0
VERTEX
8
CUT
10
121.2854
20
-96.3289
0
VERTEX
8
CUT
10
121.2153
20
-96.3125
0
VERTEX
8
CUT
10
121.1464
20
-96.2916
0
VERTEX
8
CUT
10
121.0790
20
-96.2663
0
VERTEX
8
CUT
10
121.0135
20
-96.2366
0
VERTEX
8
CUT
10
120.9500
20
-96.2026
0
VERTEX
8
CUT
10
120.8889
20
-96.1646
0
VERTEX
8
CUT
10
120.8304
20
-96.1227
0
VERTEX
8
CUT
10
120.7747
20
-96.0770
0
VERTEX
8
CUT
10
120.7222
20
-96.0278
0
VERTEX
8
CUT
10
120.6730
20
-95.9753
0
VERTEX
8
CUT
10
120.6273
20
-95.9196
0
VERTEX
8
CUT
10
120.5854
20
-95.8611
0
VERTEX
8
CUT
10
120.5474
20
-95.8000
0
VERTEX
8
CUT
10
120.5134
20
-95.7365
0
VERTEX
8
CUT
10
120.4837
20
-95.6710
0
VERTEX
8
CUT
10
120.4584
20
-95.6036
0
VERTEX
8
CUT
10
120.4375
20
-95.5347
0
VERTEX
8
CUT
10
120.4211
20
-95.4646
0
VERTEX
8
CUT
10
120.4094
20
-95.3936
0
VERTEX
8
CUT
10
120.4024
20
-95.3219
0
VERTEX
8
CUT
10
120.4000
20
-95.2500
0
VERTEX
8
CUT
10
120.4024
20
-95.1781
0
VERTEX
8
CUT
10
120.4094
20
-95.1064
0
VERTEX
8
CUT
10
120.4211
20
-95.0354
0
VERTEX
8
CUT
10
120.4375
20
-94.9653
0
VERTEX
8
CUT
10
120.4584
20
-94.8964
0
VERTEX
8
CUT
10
120.4837
20
-94.8290
0
VERTEX
8
CUT
10
120.5134
20
-94.7635
0
VERTEX
8
CUT
10
120.5474
20
-94.7000
0
VERTEX
8
CUT
10
120.5854
20
-94.6389
0
VERTEX
8
CUT
10
120.6273
20
-94.5804
0
VERTEX
8
CUT
10
120.6730
20
-94.5247
0
VERTEX
8
CUT
10
120.7222
20
-94.4722
0
VERTEX
8
CUT
10
120.7747
20
-94.4230
0
VERTEX
8
CUT
10
120.8304
20
-94.3773
0
VERTEX
8
CUT
10
120.8889
20
-94.3354
0
VERTEX
8
CUT
10
120.9500
20
-94.2974
0
VERTEX
8
CUT
10
121.0135
20
-94.2634
0
VERTEX
8
CUT
10
121.0790
20
-94.2337
0
VERTEX
8
CUT
10
121.1464
20
-94.2084
0
VERTEX
8
CUT
10
121.2153
20
-94.1875
0
VERTEX
8
CUT
10
121.2854
20
-94.1711
0
VERTEX
8
CUT
10
121.3564
20
-94.1594
0
VERTEX
8
CUT
10
121.4281
20
-94.1524
0
VERTEX
8
CUT
10
121.5000
20
-94.1500
0
VERTEX
8
CUT
10
121.5719
20
-94.1524
0
VERTEX
8
CUT
10
121.6436
20
-94.1594
0
VERTEX
8
CUT
10
121.7146
20
-94.1711
0
VERTEX
8
CUT
10
121.7847
20
-94.1875
0
VERTEX
8
CUT
10
121.8536
20
-94.2084
0
VERTEX
8
CUT
10
121.9210
20
-94.2337
0
VERTEX
8
CUT
10
121.9865
20
-94.2634
0
VERTEX
8
CUT
10
122.0500
20
-94.2974
0
VERTEX
8
CUT
10
122.1111
20
-94.3354
0
VERTEX
8
CUT
10
122.1696
20
-94.3773
0
VERTEX
8
CUT
10
122.2253
20
-94.4230
0
VERTEX
8
CUT
10
122.2778
20
-94.4722
0
VERTEX
8
CUT
10
122.3270
20
-94.5247
0
VERTEX
8
CUT
10
122.3727
20
-94.5804
0
VERTEX
8
CUT
10
122.4146
20
-94.6389
0
VERTEX
8
CUT
10
122.4526
20
-94.7000
0
VERTEX
8
CUT
10
122.4866
20
-94.7635
0
VERTEX
8
CUT
10
122.5163
20
-94.8290
0
VERTEX
8
CUT
10
122.5416
20
-94.8964
0
VERTEX
8
CUT
10
122.5625
20
-94.9653
0
VERTEX
8
CUT
10
122.5789
20
-95.0354
0
VERTEX
8
CUT
10
122.5906
20
-95.1064
0
VERTEX
8
CUT
10
122.5976
20
-95.1781
0
VERTEX
8
CUT
10
122.6000
20
-95.2500
0
VERTEX
8
CUT
10
122.5976
20
-95.3219
0
VERTEX
8
CUT
10
122.5906
20
-95.3936
0
VERTEX
8
CUT
10
122.5789
20
-95.4646
0
VERTEX
8
CUT
10
122.5625
20
-95.5347
0
VERTEX
8
CUT
10
122.5416
20
-95.6036
0
VERTEX
8
CUT
10
122.5163
20
-95.6710
0
VERTEX
8
CUT
10
122.4866
20
-95.7365
0
VERTEX
8
CUT
10
122.4526
20
-95.8000
0
VERTEX
8
CUT
10
122.4146
20
-95.8611
0
VERTEX
8
CUT
10
122.3727
20
-95.9196
0
VERTEX
8
CUT
10
122.3270
20
-95.9753
0
VERTEX
8
CUT
10
122.2778
20
-96.0278
0
VERTEX
8
CUT
10
122.2253
20
-96.0770
0
VERTEX
8
CUT
10
122.1696
20
-96.1227
0
VERTEX
8
CUT
10
122.1111
20
-96.1646
0
VERTEX
8
CUT
10
122.0500
20
-96.2026
0
VERTEX
8
CUT
10
121.9865
20
-96.2366
0
VERTEX
8
CUT
10
121.9210
20
-96.2663
0
VERTEX
8
CUT
10
121.8536
20
-96.2916
0
VERTEX
8
CUT
10
121.7847
20
-96.3125
0
VERTEX
8
CUT
10
121.7146
20
-96.3289
0
VERTEX
8
CUT
10
121.6436
20
-96.3406
0
VERTEX
8
CUT
10
121.5719
20
-96.3476
0
VERTEX
8
CUT
10
121.5000
20
-96.3500
0
SEQEND
0
POLYLINE
8
CUT
66
1
70
1
0
VERTEX
8
CUT
10
179.4281
20
-96.3476
0
VERTEX
8
CUT
10
179.3564
20
-96.3406
0
VERTEX
8
CUT
10
179.2854
20
-96.3289
0
VERTEX
8
CUT
10
179.2153
20
-96.3125
0
VERTEX
8
CUT
10
179.1464
20
-96.2916
0
VERTEX
8
CUT
10
179.0790
20
-96.2663
0
VERTEX
8
CUT
10
179.0135
20
-96.2366
0
VERTEX
8
CUT
10
178.9500
20
-96.2026
0
VERTEX
8
CUT
10
178.8889
20
-96.1646
0
VERTEX
8
CUT
10
178.8304
20
-96.1227
0
VERTEX
8
CUT
10
178.7747
20
-96.0770
0
VERTEX
8
CUT
10
178.7222
20
-96.0278
0
VERTEX
8
CUT
10
178.6730
20
-95.9753
0
VERTEX
8
CUT
10
178.6273
20
-95.9196
0
VERTEX
8
CUT
10
178.5854
20
-95.8611
0
VERTEX
8
CUT
10
178.5474
20
-95.8000
0
VERTEX
8
CUT
10
178.5134
20
-95.7365
0
VERTEX
8
CUT
10
178.4837
20
-95.6710
0
VERTEX
8
CUT
10
178.4584
20
-95.6036
0
VERTEX
8
CUT
10
178.4375
20
-95.5347
0
VERTEX
8
CUT
10
178.4211
20
-95.4646
0
VERTEX
8
CUT
10
178.4094
20
-95.3936
0
VERTEX
8
CUT
10
178.4024
20
-95.3219
0
VERTEX
8
CUT
10
178.4000
20
-95.2500
0
VERTEX
8
CUT
10
178.4024
20
-95.1781
0
VERTEX
8
CUT
10
178.4094
20
-95.1064
0
VERTEX
8
CUT
10
178.4211
20
-95.0354
0
VERTEX
8
CUT
10
178.4375
20
-94.9653
0
VERTEX
8
CUT
10
178.4584
20
-94.8964
0
VERTEX
8
CUT
10
178.4837
20
-94.8290
0
VERTEX
8
CUT
10
178.5134
20
-94.7635
0
VERTEX
8
CUT
10
178.5474
20
-94.7000
0
VERTEX
8
CUT
10
178.5854
20
-94.6389
0
VERTEX
8
CUT
10
178.6273
20
-94.5804
0
VERTEX
8
CUT
10
178.6730
20
-94.5247
0
VERTEX
8
CUT
10
178.7222
20
-94.4722
0
VERTEX
8
CUT
10
178.7747
20
-94.4230
0
VERTEX
8
CUT
10
178.8304
20
-94.3773
0
VERTEX
8
CUT
10
178.8889
20
-94.3354
0
VERTEX
8
CUT
10
178.9500
20
-94.2974
0
VERTEX
8
CUT
10
179.0135
20
-94.2634
0
VERTEX
8
CUT
10
179.0790
20
-94.2337
0
VERTEX
8
CUT
10
179.1464
20
-94.2084
0
VERTEX
8
CUT
10
179.2153
20
-94.1875
0
VERTEX
8
CUT
10
179.2854
20
-94.1711
0
VERTEX
8
CUT
10
179.3564
20
-94.1594
0
VERTEX
8
CUT
10
179.4281
20
-94.1524
0
VERTEX
8
CUT
10
179.5000
20
-94.1500
0
VERTEX
8
CUT
10
179.5719
20
-94.1524
0
VERTEX
8
CUT
10
179.6436
20
-94.1594
0
VERTEX
8
CUT
10
179.7146
20
-94.1711
0
VERTEX
8
CUT
10
179.7847
20
-94.1875
0
VERTEX
8
CUT
10
179.8536
20
-94.2084
0
VERTEX
8
CUT
10
179.9210
20
-94.2337
0
VERTEX
8
CUT
10
179.9865
20
-94.2634
0
VERTEX
8
CUT
10
180.0500
20
-94.2974
0
VERTEX
8
CUT
10
180.1111
20
-94.3354
0
VERTEX
8
CUT
10
180.1696
20
-94.3773
0
VERTEX
8
CUT
10
180.2253
20
-94.4230
0
VERTEX
8
CUT
10
180.2778
20
-94.4722
0
VERTEX
8
CUT
10
180.3270
20
-94.5247
0
VERTEX
8
CUT
10
180.3727
20
-94.5804
0
VERTEX
8
CUT
10
180.4146
20
-94.6389
0
VERTEX
8
CUT
10
180.4526
20
-94.7000
0
VERTEX
8
CUT
10
180.4866
20
-94.7635
0
VERTEX
8
CUT
10
180.5163
20
-94.8290
0
VERTEX
8
CUT
10
180.5416
20
-94.8964
0
VERTEX
8
CUT
10
180.5625
20
-94.9653
0
VERTEX
8
CUT
10
180.5789
20
-95.0354
0
VERTEX
8
CUT
10
180.5906
20
-95.1064
0
VERTEX
8
CUT
10
180.5976
20
-95.1781
0
VERTEX
8
CUT
10
180.6000
20
-95.2500
0
VERTEX
8
CUT
10
180.5976
20
-95.3219
0
VERTEX
8
CUT
10
180.5906
20
-95.3936
0
VERTEX
8
CUT
10
180.5789
20
-95.4646
0
VERTEX
8
CUT
10
180.5625
20
-95.5347
0
VERTEX
8
CUT
10
180.5416
20
-95.6036
0
VERTEX
8
CUT
10
180.5163
20
-95.6710
0
VERTEX
8
CUT
10
180.4866
20
-95.7365
0
VERTEX
8
CUT
10
180.4526
20
-95.8000
0
VERTEX
8
CUT
10
180.4146
20
-95.8611
0
VERTEX
8
CUT
10
180.3727
20
-95.9196
0
VERTEX
8
CUT
10
180.3270
20
-95.9753
0
VERTEX
8
CUT
10
180.2778
20
-96.0278
0
VERTEX
8
CUT
10
180.2253
20
-96.0770
0
VERTEX
8
CUT
10
180.1696
20
-96.1227
0
VERTEX
8
CUT
10
180.1111
20
-96.1646
0
VERTEX
8
CUT
10
180.0500
20
-96.2026
0
VERTEX
8
CUT
10
179.9865
20
-96.2366
0
VERTEX
8
CUT
10
179.9210
20
-96.2663
0
VERTEX
8
CUT
10
179.8536
20
-96.2916
0
VERTEX
8
CUT
10
179.7847
20
-96.3125
0
VERTEX
8
CUT
10
179.7146
20
-96.3289
0
VERTEX
8
CUT
10
179.6436
20
-96.3406
0
VERTEX
8
CUT
10
179.5719
20
-96.3476
0
VERTEX
8
CUT
10
179.5000
20
-96.3500
0
SEQEND
0
POLYLINE
8
CUT
66
1
70
1
0
VERTEX
8
CUT
10
-5.0824
20
-120.4081
0
VERTEX
8
CUT
10
-5.1540
20
-120.4010
0
VERTEX
8
CUT
10
-5.2250
20
-120.3893
0
VERTEX
8
CUT
10
-5.2951
20
-120.3729
0
VERTEX
8
CUT
10
-5.3640
20
-120.3520
0
VERTEX
8
CUT
10
-5.4314
20
-120.3267
0
VERTEX
8
CUT
10
-5.4969
20
-120.2970
0
VERTEX
8
CUT
10
-5.5604
20
-120.2630
0
VERTEX
8
CUT
10
-5.6215
20
-120.2250
0
VERTEX
8
CUT
10
-5.6800
20
-120.1831
0
VERTEX
8
CUT
10
-5.7357
20
-120.1374
0
VERTEX
8
CUT
10
-5.7882
20
-120.0882
0
VERTEX
8
CUT
10
-5.8374
20
-120.0357
0
VERTEX
8
CUT
10
-5.8831
20
-119.9800
0
VERTEX
8
CUT
10
-5.9250
20
-119.9215
0
VERTEX
8
CUT
10
-5.9630
20
-119.8604
0
VERTEX
8
CUT
10
-5.9970
20
-119.7969
0
VERTEX
8
CUT
10
-6.0267
20
-119.7314
0
VERTEX
8
CUT
10
-6.0520
20
-119.6640
0
VERTEX
8
CUT
10
-6.0729
20
-119.5951
0
VERTEX
8
CUT
10
-6.0893
20
-119.5250
0
VERTEX
8
CUT
10
-6.1010
20
-119.4540
0
VERTEX
8
CUT
10
-6.1081
20
-119.3824
0
VERTEX
8
CUT
10
-6.1104
20
-119.3104
0
VERTEX
8
CUT
10
-6.1081
20
-119.2385
0
VERTEX
8
CUT
10
-6.1010
20
-119.1668
0
VERTEX
8
CUT
10
-6.0893
20
-119.0958
0
VERTEX
8
CUT
10
-6.0729
20
-119.0257
0
VERTEX
8
CUT
10
-6.0520
20
-118.9568
0
VERTEX
8
CUT
10
-6.0267
20
-118.8895
0
VERTEX
8
CUT
10
-5.9970
20
-118.8239
0
VERTEX
8
CUT
10
-5.9630
20
-118.7604
0
VERTEX
8
CUT
10
-5.9250
20
-118.6993
0
VERTEX
8
CUT
10
-5.8831
20
-118.6408
0
VERTEX
8
CUT
10
-5.8374
20
-118.5851
0
VERTEX
8
CUT
10
-5.7882
20
-118.5326
0
VERTEX
8
CUT
10
-5.7357
20
-118.4834
0
VERTEX
8
CUT
10
-5.6800
20
-118.4377
0
VERTEX
8
CUT
10
-5.6215
20
-118.3958
0
VERTEX
8
CUT
10
-5.5604
20
-118.3578
0
VERTEX
8
CUT
10
-5.4969
20
-118.3238
0
VERTEX
8
CUT
10
-5.4314
20
-118.2941
0
VERTEX
8
CUT
10
-5.3640
20
-118.2688
0
VERTEX
8
CUT
10
-5.2951
20
-118.2479
0
VERTEX
8
CUT
10
-5.2250
20
-118.2315
0
VERTEX
8
CUT
10
-5.1540
20
-118.2198
0
VERTEX
8
CUT
10
-5.0824
20
-118.2128
0
VERTEX
8
CUT
10
-5.0104
20
-118.2104
0
VERTEX
8
CUT
10
-4.9385
20
-118.2128
0
VERTEX
8
CUT
10
-4.8668
20
-118.2198
0
VERTEX
8
CUT
10
-4.7958
20
-118.2315
0
VERTEX
8
CUT
10
-4.7257
20
-118.2479
0
VERTEX
8
CUT
10
-4.6568
20
-118.2688
0
VERTEX
8
CUT
10
-4.5895
20
-118.2941
0
VERTEX
8
CUT
10
-4.5239
20
-118.3238
0
VERTEX
8
CUT
10
-4.4604
20
-118.3578
0
VERTEX
8
CUT
10
-4.3993
20
-118.3958
0
VERTEX
8
CUT
10
-4.3408
20
-118.4377
0
VERTEX
8
CUT
10
-4.2851
20
-118.4834
0
VERTEX
8
CUT
10
-4.2326
20
-118.5326
0
VERTEX
8
CUT
10
-4.1834
20
-118.5851
0
VERTEX
8
CUT
10
-4.1377
20
-118.6408
0
VERTEX
8
CUT
10
-4.0958
20
-118.6993
0
VERTEX
8
CUT
10
-4.0578
20
-118.7604
0
VERTEX
8
CUT
10
-4.0238
20
-118.8239
0
VERTEX
8
CUT
10
-3.9941
20
-118.8895
0
VERTEX
8
CUT
10
-3.9688
20
-118.9568
0
VERTEX
8
CUT
10
-3.9479
20
-119.0257
0
VERTEX
8
CUT
10
-3.9315
20
-119.0958
0
VERTEX
8
CUT
10
-3.9198
20
-119.1668
0
VERTEX
8
CUT
10
-3.9128
20
-119.2385
0
VERTEX
8
CUT
10
-3.9104
20
-119.3104
0
VERTEX
8
CUT
10
-3.9128
20
-119.3824
0
VERTEX
8
CUT
10
-3.9198
20
-119.4540
0
VERTEX
8
CUT
10
-3.9315
20
-119.5250
0
VERTEX
8
CUT
10
-3.9479
20
-119.5951
0
VERTEX
8
CUT
10
-3.9688
20
-119.6640
0
VERTEX
8
CUT
10
-3.9941
20
-119.7314
0
VERTEX
8
CUT
10
-4.0238
20
-119.7969
0
VERTEX
8
CUT
10
-4.0578
20
-119.8604
0
VERTEX
8
CUT
10
-4.0958
20
-119.9215
0
VERTEX
8
CUT
10
-4.1377
20
-119.9800
0
VERTEX
8
CUT
10
-4.1834
20
-120.0357
0
VERTEX
8
CUT
10
-4.2326
20
-120.0882
0
VERTEX
8
CUT
10
-4.2851
20
-120.1374
0
VERTEX
8
CUT
10
-4.3408
20
-120.1831
0
VERTEX
8
CUT
10
-4.3993
20
-120.2250
0
VERTEX
8
CUT
10
-4.4604
20
-120.2630
0
VERTEX
8
CUT
10
-4.5239
20
-120.2970
0
VERTEX
8
CUT
10
-4.5895
20
-120.3267
0
VERTEX
8
CUT
10
-4.6568
20
-120.3520
0
VERTEX
8
CUT
10
-4.7257
20
-120.3729
0
VERTEX
8
CUT
10
-4.7958
20
-120.3893
0
VERTEX
8
CUT
10
-4.8668
20
-120.4010
0
VERTEX
8
CUT
10
-4.9385
20
-120.4081
0
VERTEX
8
CUT
10
-5.0104
20
-120.4104
0
SEQEND
0
POLYLINE
8
CUT
66
1
70
1
0
VERTEX
8
CUT
10
198.5135
20
-120.4081
0
VERTEX
8
CUT
10
198.4418
20
-120.4010
0
VERTEX
8
CUT
10
198.3708
20
-120.3893
0
VERTEX
8
CUT
10
198.3007
20
-120.3729
0
VERTEX
8
CUT
10
198.2318
20
-120.3520
0
VERTEX
8
CUT
10
198.1645
20
-120.3267
0
VERTEX
8
CUT
10
198.0989
20
-120.2970
0
VERTEX
8
CUT
10
198.0354
20
-120.2630
0
VERTEX
8
CUT
10
197.9743
20
-120.2250
0
VERTEX
8
CUT
10
197.9158
20
-120.1831
0
VERTEX
8
CUT
10
197.8601
20
-120.1374
0
VERTEX
8
CUT
10
197.8076
20
-120.0882
0
VERTEX
8
CUT
10
197.7584
20
-120.0357
0
VERTEX
8
CUT
10
197.7127
20
-119.9800
0
VERTEX
8
CUT
10
197.6708
20
-119.9215
0
VERTEX
8
CUT
10
197.6328
20
-119.8604
0
VERTEX
8
CUT
10
197.5988
20
-119.7969
0
VERTEX
8
CUT
10
197.5691
20
-119.7314
0
VERTEX
8
CUT
10
197.5438
20
-119.6640
0
VERTEX
8
CUT
10
197.5229
20
-119.5951
0
VERTEX
8
CUT
10
197.5065
20
-119.5250
0
VERTEX
8
CUT
10
197.4948
20
-119.4540
0
VERTEX
8
CUT
10
197.4878
20
-119.3824
0
VERTEX
8
CUT
10
197.4854
20
-119.3104
0
VERTEX
8
CUT
10
197.4878
20
-119.2385
0
VERTEX
8
CUT
10
197.4948
20
-119.1668
0
VERTEX
8
CUT
10
197.5065
20
-119.0958
0
VERTEX
8
CUT
10
197.5229
20
-119.0257
0
VERTEX
8
CUT
10
197.5438
20
-118.9568
0
VERTEX
8
CUT
10
197.5691
20
-118.8895
0
VERTEX
8
CUT
10
197.5988
20
-118.8239
0
VERTEX
8
CUT
10
197.6328
20
-118.7604
0
VERTEX
8
CUT
10
197.6708
20
-118.6993
0
VERTEX
8
CUT
10
197.7127
20
-118.6408
0
VERTEX
8
CUT
10
197.7584
20
-118.5851
0
VERTEX
8
CUT
10
197.8076
20
-118.5326
0
VERTEX
8
CUT
10
197.8601
20
-118.4834
0
VERTEX
8
CUT
10
197.9158
20
-118.4377
0
VERTEX
8
CUT
10
197.9743
20
-118.3958
0
VERTEX
8
CUT
10
198.0354
20
-118.3578
0
VERTEX
8
CUT
10
198.0989
20
-118.3238
0
VERTEX
8
CUT
10
198.1645
20
-118.2941
0
VERTEX
8
CUT
10
198.2318
20
-118.2688
0
VERTEX
8
CUT
10
198.3007
20
-118.2479
0
VERTEX
8
CUT
10
198.3708
20
-118.2315
0
VERTEX
8
CUT
10
198.4418
20
-118.2198
0
VERTEX
8
CUT
10
198.5135
20
-118.2128
0
VERTEX
8
CUT
10
198.5854
20
-118.2104
0
VERTEX
8
CUT
10
198.6574
20
-118.2128
0
VERTEX
8
CUT
10
198.7290
20
-118.2198
0
VERTEX
8
CUT
10
198.8000
20
-118.2315
0
VERTEX
8
CUT
10
198.8701
20
-118.2479
0
VERTEX
8
CUT
10
198.9390
20
-118.2688
0
VERTEX
8
CUT
10
199.0064
20
-118.2941
0
VERTEX
8
CUT
10
199.0719
20
-118.3238
0
VERTEX
8
CUT
10
199.1354
20
-118.3578
0
VERTEX
8
CUT
10
199.1965
20
-118.3958
0
VERTEX
8
CUT
10
199.2550
20
-118.4377
0
VERTEX
8
CUT
10
199.3107
20
-118.4834
0
VERTEX
8
CUT
10
199.3632
20
-118.5326
0
VERTEX
8
CUT
10
199.4124
20
-118.5851
0
VERTEX
8
CUT
10
199.4581
20
-118.6408
0
VERTEX
8
CUT
10
199.5000
20
-118.6993
0
VERTEX
8
CUT
10
199.5380
20
-118.7604
0
VERTEX
8
CUT
10
199.5720
20
-118.8239
0
VERTEX
8
CUT
10
199.6017
20
-118.8895
0
VERTEX
8
CUT
10
199.6270
20
-118.9568
0
VERTEX
8
CUT
10
199.6479
20
-119.0257
0
VERTEX
8
CUT
10
199.6643
20
-119.0958
0
VERTEX
8
CUT
10
199.6760
20
-119.1668
0
VERTEX
8
CUT
10
199.6831
20
-119.2385
0
VERTEX
8
CUT
10
199.6854
20
-119.3104
0
VERTEX
8
CUT
10
199.6831
20
-119.3824
0
VERTEX
8
CUT
10
199.6760
20
-119.4540
0
VERTEX
8
CUT
10
199.6643
20
-119.5250
0
VERTEX
8
CUT
10
199.6479
20
-119.5951
0
VERTEX
8
CUT
10
199.6270
20
-119.6640
0
VERTEX
8
CUT
10
199.6017
20
-119.7314
0
VERTEX
8
CUT
10
199.5720
20
-119.7969
0
VERTEX
8
CUT
10
199.5380
20
-119.8604
0
VERTEX
8
CUT
10
199.5000
20
-119.9215
0
VERTEX
8
CUT
10
199.4581
20
-119.9800
0
VERTEX
8
CUT
10
199.4124
20
-120.0357
0
VERTEX
8
CUT
10
199.3632
20
-120.0882
0
VERTEX
8
CUT
10
199.3107
20
-120.1374
0
VERTEX
8
CUT
10
199.2550
20
-120.1831
0
VERTEX
8
CUT
10
199.1965
20
-120.2250
0
VERTEX
8
CUT
10
199.1354
20
-120.2630
0
VERTEX
8
CUT
10
199.0719
20
-120.2970
0
VERTEX
8
CUT
10
199.0064
20
-120.3267
0
VERTEX
8
CUT
10
198.9390
20
-120.3520
0
VERTEX
8
CUT
10
198.8701
20
-120.3729
0
VERTEX
8
CUT
10
198.8000
20
-120.3893
0
VERTEX
8
CUT
10
198.7290
20
-120.4010
0
VERTEX
8
CUT
10
198.6574
20
-120.4081
0
VERTEX
8
CUT
10
198.5854
20
-120.4104
0
SEQEND
0
POLYLINE
8
CUT
66
1
70
1
0
VERTEX
8
CUT
10
44.5718
20
-122.8976
0
VERTEX
8
CUT
10
44.5002
20
-122.8906
0
VERTEX
8
CUT
10
44.4292
20
-122.8789
0
VERTEX
8
CUT
10
44.3590
20
-122.8625
0
VERTEX
8
CUT
10
44.2902
20
-122.8416
0
VERTEX
8
CUT
10
44.2228
20
-122.8163
0
VERTEX
8
CUT
10
44.1572
20
-122.7866
0
VERTEX
8
CUT
10
44.0938
20
-122.7526
0
VERTEX
8
CUT
10
44.0326
20
-122.7146
0
VERTEX
8
CUT
10
43.9741
20
-122.6727
0
VERTEX
8
CUT
10
43.9185
20
-122.6270
0
VERTEX
8
CUT
10
43.8659
20
-122.5778
0
VERTEX
8
CUT
10
43.8167
20
-122.5253
0
VERTEX
8
CUT
10
43.7711
20
-122.4696
0
VERTEX
8
CUT
10
43.7291
20
-122.4111
0
VERTEX
8
CUT
10
43.6911
20
-122.3500
0
VERTEX
8
CUT
10
43.6572
20
-122.2865
0
VERTEX
8
CUT
10
43.6275
20
-122.2210
0
VERTEX
8
CUT
10
43.6021
20
-122.1536
0
VERTEX
8
CUT
10
43.5812
20
-122.0847
0
VERTEX
8
CUT
10
43.5649
20
-122.0146
0
VERTEX
8
CUT
10
43.5532
20
-121.9436
0
VERTEX
8
CUT
10
43.5461
20
-121.8719
0
VERTEX
8
CUT
10
43.5438
20
-121.8000
0
VERTEX
8
CUT
10
43.5461
20
-121.7281
0
VERTEX
8
CUT
10
43.5532
20
-121.6564
0
VERTEX
8
CUT
10
43.5649
20
-121.5854
0
VERTEX
8
CUT
10
43.5812
20
-121.5153
0
VERTEX
8
CUT
10
43.6021
20
-121.4464
0
VERTEX
8
CUT
10
43.6275
20
-121.3790
0
VERTEX
8
CUT
10
43.6572
20
-121.3135
0
VERTEX
8
CUT
10
43.6911
20
-121.2500
0
VERTEX
8
CUT
10
43.7291
20
-121.1889
0
VERTEX
8
CUT
10
43.7711
20
-121.1304
0
VERTEX
8
CUT
10
43.8167
20
-121.0747
0
VERTEX
8
CUT
10
43.8659
20
-121.0222
0
VERTEX
8
CUT
10
43.9185
20
-120.9730
0
VERTEX
8
CUT
10
43.9741
20
-120.9273
0
VERTEX
8
CUT
10
44.0326
20
-120.8854
0
VERTEX
8
CUT
10
44.0938
20
-120.8474
0
VERTEX
8
CUT
10
44.1572
20
-120.8134
0
VERTEX
8
CUT
10
44.2228
20
-120.7837
0
VERTEX
8
CUT
10
44.2902
20
-120.7584
0
VERTEX
8
CUT
10
44.3590
20
-120.7375
0
VERTEX
8
CUT
10
44.4292
20
-120.7211
0
VERTEX
8
CUT
10
44.5002
20
-120.7094
0
VERTEX
8
CUT
10
44.5718
20
-120.7024
0
VERTEX
8
CUT
10
44.6437
20
-120.7000
0
VERTEX
8
CUT
10
44.7157
20
-120.7024
0
VERTEX
8
CUT
10
44.7873
20
-120.7094
0
VERTEX
8
CUT
10
44.8583
20
-120.7211
0
VERTEX
8
CUT
10
44.9285
20
-120.7375
0
VERTEX
8
CUT
10
44.9973
20
-120.7584
0
VERTEX
8
CUT
10
45.0647
20
-120.7837
0
VERTEX
8
CUT
10
45.1303
20
-120.8134
0
VERTEX
8
CUT
10
45.1938
20
-120.8474
0
VERTEX
8
CUT
10
45.2549
20
-120.8854
0
VERTEX
8
CUT
10
45.3134
20
-120.9273
0
VERTEX
8
CUT
10
45.3690
20
-120.9730
0
VERTEX
8
CUT
10
45.4216
20
-121.0222
0
VERTEX
8
CUT
10
45.4708
20
-121.0747
0
VERTEX
8
CUT
10
45.5164
20
-121.1304
0
VERTEX
8
CUT
10
45.5584
20
-121.1889
0
VERTEX
8
CUT
10
45.5964
20
-121.2500
0
VERTEX
8
CUT
10
45.6303
20
-121.3135
0
VERTEX
8
CUT
10
45.6600
20
-121.3790
0
VERTEX
8
CUT
10
45.6854
20
-121.4464
0
VERTEX
8
CUT
10
45.7063
20
-121.5153
0
VERTEX
8
CUT
10
45.7226
20
-121.5854
0
VERTEX
8
CUT
10
45.7343
20
-121.6564
0
VERTEX
8
CUT
10
45.7414
20
-121.7281
0
VERTEX
8
CUT
10
45.7437
20
-121.8000
0
VERTEX
8
CUT
10
45.7414
20
-121.8719
0
VERTEX
8
CUT
10
45.7343
20
-121.9436
0
VERTEX
8
CUT
10
45.7226
20
-122.0146
0
VERTEX
8
CUT
10
45.7063
20
-122.0847
0
VERTEX
8
CUT
10
45.6854
20
-122.1536
0
VERTEX
8
CUT
10
45.6600
20
-122.2210
0
VERTEX
8
CUT
10
45.6303
20
-122.2865
0
VERTEX
8
CUT
10
45.5964
20
-122.3500
0
VERTEX
8
CUT
10
45.5584
20
-122.4111
0
VERTEX
8
CUT
10
45.5164
20
-122.4696
0
VERTEX
8
CUT
10
45.4708
20
-122.5253
0
VERTEX
8
CUT
10
45.4216
20
-122.5778
0
VERTEX
8
CUT
10
45.3690
20
-122.6270
0
VERTEX
8
CUT
10
45.3134
20
-122.6727
0
VERTEX
8
CUT
10
45.2549
20
-122.7146
0
VERTEX
8
CUT
10
45.1938
20
-122.7526
0
VERTEX
8
CUT
10
45.1303
20
-122.7866
0
VERTEX
8
CUT
10
45.0647
20
-122.8163
0
VERTEX
8
CUT
10
44.9973
20
-122.8416
0
VERTEX
8
CUT
10
44.9285
20
-122.8625
0
VERTEX
8
CUT
10
44.8583
20
-122.8789
0
VERTEX
8
CUT
10
44.7873
20
-122.8906
0
VERTEX
8
CUT
10
44.7157
20
-122.8976
0
VERTEX
8
CUT
10
44.6437
20
-122.9000
0
SEQEND
0
POLYLINE
8
CUT
66
1
70
1
0
VERTEX
8
CUT
10
96.7156
20
-122.8976
0
VERTEX
8
CUT
10
96.6439
20
-122.8906
0
VERTEX
8
CUT
10
96.5729
20
-122.8789
0
VERTEX
8
CUT
10
96.5028
20
-122.8625
0
VERTEX
8
CUT
10
96.4339
20
-122.8416
0
VERTEX
8
CUT
10
96.3665
20
-122.8163
0
VERTEX
8
CUT
10
96.3010
20
-122.7866
0
VERTEX
8
CUT
10
96.2375
20
-122.7526
0
VERTEX
8
CUT
10
96.1764
20
-122.7146
0
VERTEX
8
CUT
10
96.1179
20
-122.6727
0
VERTEX
8
CUT
10
96.0622
20
-122.6270
0
VERTEX
8
CUT
10
96.0097
20
-122.5778
0
VERTEX
8
CUT
10
95.9605
20
-122.5253
0
VERTEX
8
CUT
10
95.9148
20
-122.4696
0
VERTEX
8
CUT
10
95.8729
20
-122.4111
0
VERTEX
8
CUT
10
95.8349
20
-122.3500
0
VERTEX
8
CUT
10
95.8009
20
-122.2865
0
VERTEX
8
CUT
10
95.7712
20
-122.2210
0
VERTEX
8
CUT
10
95.7459
20
-122.1536
0
VERTEX
8
CUT
10
95.7250
20
-122.0847
0
VERTEX
8
CUT
10
95.7086
20
-122.0146
0
VERTEX
8
CUT
10
95.6969
20
-121.9436
0
VERTEX
8
CUT
10
95.6899
20
-121.8719
0
VERTEX
8
CUT
10
95.6875
20
-121.8000
0
VERTEX
8
CUT
10
95.6899
20
-121.7281
0
VERTEX
8
CUT
10
95.6969
20
-121.6564
0
VERTEX
8
CUT
10
95.7086
20
-121.5854
0
VERTEX
8
CUT
10
95.7250
20
-121.5153
0
VERTEX
8
CUT
10
95.7459
20
-121.4464
0
VERTEX
8
CUT
10
95.7712
20
-121.3790
0
VERTEX
8
CUT
10
95.8009
20
-121.3135
0
VERTEX
8
CUT
10
95.8349
20
-121.2500
0
VERTEX
8
CUT
10
95.8729
20
-121.1889
0
VERTEX
8
CUT
10
95.9148
20
-121.1304
0
VERTEX
8
CUT
10
95.9605
20
-121.0747
0
VERTEX
8
CUT
10
96.0097
20
-121.0222
0
VERTEX
8
CUT
10
96.0622
20
-120.9730
0
VERTEX
8
CUT
10
96.1179
20
-120.9273
0
VERTEX
8
CUT
10
96.1764
20
-120.8854
0
VERTEX
8
CUT
10
96.2375
20
-120.8474
0
VERTEX
8
CUT
10
96.3010
20
-120.8134
0
VERTEX
8
CUT
10
96.3665
20
-120.7837
0
VERTEX
8
CUT
10
96.4339
20
-120.7584
0
VERTEX
8
CUT
10
96.5028
20
-120.7375
0
VERTEX
8
CUT
10
96.5729
20
-120.7211
0
VERTEX
8
CUT
10
96.6439
20
-120.7094
0
VERTEX
8
CUT
10
96.7156
20
-120.7024
0
VERTEX
8
CUT
10
96.7875
20
-120.7000
0
VERTEX
8
CUT
10
96.8594
20
-120.7024
0
VERTEX
8
CUT
10
96.9311
20
-120.7094
0
VERTEX
8
CUT
10
97.0021
20
-120.7211
0
VERTEX
8
CUT
10
97.0722
20
-120.7375
0
VERTEX
8
CUT
10
97.1411
20
-120.7584
0
VERTEX
8
CUT
10
97.2085
20
-120.7837
0
VERTEX
8
CUT
10
97.2740
20
-120.8134
0
VERTEX
8
CUT
10
97.3375
20
-120.8474
0
VERTEX
8
CUT
10
97.3986
20
-120.8854
0
VERTEX
8
CUT
10
97.4571
20
-120.9273
0
VERTEX
8
CUT
10
97.5128
20
-120.9730
0
VERTEX
8
CUT
10
97.5653
20
-121.0222
0
VERTEX
8
CUT
10
97.6145
20
-121.0747
0
VERTEX
8
CUT
10
97.6602
20
-121.1304
0
VERTEX
8
CUT
10
97.7021
20
-121.1889
0
VERTEX
8
CUT
10
97.7401
20
-121.2500
0
VERTEX
8
CUT
10
97.7741
20
-121.3135
0
VERTEX
8
CUT
10
97.8038
20
-121.3790
0
VERTEX
8
CUT
10
97.8291
20
-121.4464
0
VERTEX
8
CUT
10
97.8500
20
-121.5153
0
VERTEX
8
CUT
10
97.8664
20
-121.5854
0
VERTEX
8
CUT
10
97.8781
20
-121.6564
0
VERTEX
8
CUT
10
97.8851
20
-121.7281
0
VERTEX
8
CUT
10
97.8875
20
-121.8000
0
VERTEX
8
CUT
10
97.8851
20
-121.8719
0
VERTEX
8
CUT
10
97.8781
20
-121.9436
0
VERTEX
8
CUT
10
97.8664
20
-122.0146
0
VERTEX
8
CUT
10
97.8500
20
-122.0847
0
VERTEX
8
CUT
10
97.8291
20
-122.1536
0
VERTEX
8
CUT
10
97.8038
20
-122.2210
0
VERTEX
8
CUT
10
97.7741
20
-122.2865
0
VERTEX
8
CUT
10
97.7401
20
-122.3500
0
VERTEX
8
CUT
10
97.7021
20
-122.4111
0
VERTEX
8
CUT
10
97.6602
20
-122.4696
0
VERTEX
8
CUT
10
97.6145
20
-122.5253
0
VERTEX
8
CUT
10
97.5653
20
-122.5778
0
VERTEX
8
CUT
10
97.5128
20
-122.6270
0
VERTEX
8
CUT
10
97.4571
20
-122.6727
0
VERTEX
8
CUT
10
97.3986
20
-122.7146
0
VERTEX
8
CUT
10
97.3375
20
-122.7526
0
VERTEX
8
CUT
10
97.2740
20
-122.7866
0
VERTEX
8
CUT
10
97.2085
20
-122.8163
0
VERTEX
8
CUT
10
97.1411
20
-122.8416
0
VERTEX
8
CUT
10
97.0722
20
-122.8625
0
VERTEX
8
CUT
10
97.0021
20
-122.8789
0
VERTEX
8
CUT
10
96.9311
20
-122.8906
0
VERTEX
8
CUT
10
96.8594
20
-122.8976
0
VERTEX
8
CUT
10
96.7875
20
-122.9000
0
SEQEND
0
POLYLINE
8
CUT
66
1
70
1
0
VERTEX
8
CUT
10
148.8593
20
-122.8976
0
VERTEX
8
CUT
10
148.7877
20
-122.8906
0
VERTEX
8
CUT
10
148.7167
20
-122.8789
0
VERTEX
8
CUT
10
148.6465
20
-122.8625
0
VERTEX
8
CUT
10
148.5777
20
-122.8416
0
VERTEX
8
CUT
10
148.5103
20
-122.8163
0
VERTEX
8
CUT
10
148.4447
20
-122.7866
0
VERTEX
8
CUT
10
148.3813
20
-122.7526
0
VERTEX
8
CUT
10
148.3201
20
-122.7146
0
VERTEX
8
CUT
10
148.2616
20
-122.6727
0
VERTEX
8
CUT
10
148.2060
20
-122.6270
0
VERTEX
8
CUT
10
148.1534
20
-122.5778
0
VERTEX
8
CUT
10
148.1042
20
-122.5253
0
VERTEX
8
CUT
10
148.0586
20
-122.4696
0
VERTEX
8
CUT
10
148.0166
20
-122.4111
0
VERTEX
8
CUT
10
147.9786
20
-122.3500
0
VERTEX
8
CUT
10
147.9447
20
-122.2865
0
VERTEX
8
CUT
10
147.9150
20
-122.2210
0
VERTEX
8
CUT
10
147.8896
20
-122.1536
0
VERTEX
8
CUT
10
147.8687
20
-122.0847
0
VERTEX
8
CUT
10
147.8524
20
-122.0146
0
VERTEX
8
CUT
10
147.8407
20
-121.9436
0
VERTEX
8
CUT
10
147.8336
20
-121.8719
0
VERTEX
8
CUT
10
147.8312
20
-121.8000
0
VERTEX
8
CUT
10
147.8336
20
-121.7281
0
VERTEX
8
CUT
10
147.8407
20
-121.6564
0
VERTEX
8
CUT
10
147.8524
20
-121.5854
0
VERTEX
8
CUT
10
147.8687
20
-121.5153
0
VERTEX
8
CUT
10
147.8896
20
-121.4464
0
VERTEX
8
CUT
10
147.9150
20
-121.3790
0
VERTEX
8
CUT
10
147.9447
20
-121.3135
0
VERTEX
8
CUT
10
147.9786
20
-121.2500
0
VERTEX
8
CUT
10
148.0166
20
-121.1889
0
VERTEX
8
CUT
10
148.0586
20
-121.1304
0
VERTEX
8
CUT
10
148.1042
20
-121.0747
0
VERTEX
8
CUT
10
148.1534
20
-121.0222
0
VERTEX
8
CUT
10
148.2060
20
-120.9730
0
VERTEX
8
CUT
10
148.2616
20
-120.9273
0
VERTEX
8
CUT
10
148.3201
20
-120.8854
0
VERTEX
8
CUT
10
148.3813
20
-120.8474
0
VERTEX
8
CUT
10
148.4447
20
-120.8134
0
VERTEX
8
CUT
10
148.5103
20
-120.7837
0
VERTEX
8
CUT
10
148.5777
20
-120.7584
0
VERTEX
8
CUT
10
148.6465
20
-120.7375
0
VERTEX
8
CUT
10
148.7167
20
-120.7211
0
VERTEX
8
CUT
10
148.7877
20
-120.7094
0
VERTEX
8
CUT
10
148.8593
20
-120.7024
0
VERTEX
8
CUT
10
148.9312
20
-120.7000
0
VERTEX
8
CUT
10
149.0032
20
-120.7024
0
VERTEX
8
CUT
10
149.0748
20
-120.7094
0
VERTEX
8
CUT
10
149.1458
20
-120.7211
0
VERTEX
8
CUT
10
149.2160
20
-120.7375
0
VERTEX
8
CUT
10
149.2848
20
-120.7584
0
VERTEX
8
CUT
10
149.3522
20
-120.7837
0
VERTEX
8
CUT
10
149.4178
20
-120.8134
0
VERTEX
8
CUT
10
149.4813
20
-120.8474
0
VERTEX
8
CUT
10
149.5424
20
-120.8854
0
VERTEX
8
CUT
10
149.6009
20
-120.9273
0
VERTEX
8
CUT
10
149.6565
20
-120.9730
0
VERTEX
8
CUT
10
149.7091
20
-121.0222
0
VERTEX
8
CUT
10
149.7583
20
-121.0747
0
VERTEX
8
CUT
10
149.8039
20
-121.1304
0
VERTEX
8
CUT
10
149.8459
20
-121.1889
0
VERTEX
8
CUT
10
149.8839
20
-121.2500
0
VERTEX
8
CUT
10
149.9178
20
-121.3135
0
VERTEX
8
CUT
10
149.9475
20
-121.3790
0
VERTEX
8
CUT
10
149.9729
20
-121.4464
0
VERTEX
8
CUT
10
149.9938
20
-121.5153
0
VERTEX
8
CUT
10
150.0101
20
-121.5854
0
VERTEX
8
CUT
10
150.0218
20
-121.6564
0
VERTEX
8
CUT
10
150.0289
20
-121.7281
0
VERTEX
8
CUT
10
150.0312
20
-121.8000
0
VERTEX
8
CUT
10
150.0289
20
-121.8719
0
VERTEX
8
CUT
10
150.0218
20
-121.9436
0
VERTEX
8
CUT
10
150.0101
20
-122.0146
0
VERTEX
8
CUT
10
149.9938
20
-122.0847
0
VERTEX
8
CUT
10
149.9729
20
-122.1536
0
VERTEX
8
CUT
10
149.9475
20
-122.2210
0
VERTEX
8
CUT
10
149.9178
20
-122.2865
0
VERTEX
8
CUT
10
149.8839
20
-122.3500
0
VERTEX
8
CUT
10
149.8459
20
-122.4111
0
VERTEX
8
CUT
10
149.8039
20
-122.4696
0
VERTEX
8
CUT
10
149.7583
20
-122.5253
0
VERTEX
8
CUT
10
149.7091
20
-122.5778
0
VERTEX
8
CUT
10
149.6565
20
-122.6270
0
VERTEX
8
CUT
10
149.6009
20
-122.6727
0
VERTEX
8
CUT
10
149.5424
20
-122.7146
0
VERTEX
8
CUT
10
149.4813
20
-122.7526
0
VERTEX
8
CUT
10
149.4178
20
-122.7866
0
VERTEX
8
CUT
10
149.3522
20
-122.8163
0
VERTEX
8
CUT
10
149.2848
20
-122.8416
0
VERTEX
8
CUT
10
149.2160
20
-122.8625
0
VERTEX
8
CUT
10
149.1458
20
-122.8789
0
VERTEX
8
CUT
10
149.0748
20
-122.8906
0
VERTEX
8
CUT
10
149.0032
20
-122.8976
0
VERTEX
8
CUT
10
148.9312
20
-122.9000
0
SEQEND
0
ENDSEC
0
EOF
