0
SECTION
2
HEADER
9
$INSUNITS
70
4
0
ENDSEC
0
SECTION
2
ENTITIES
0
POLYLINE
8
CUT
66
1
70
1
0
VERTEX
8
CUT
10
193.3925
20
-125.7732
0
VERTEX
8
CUT
10
194.2066
20
-125.6931
0
VERTEX
8
CUT
10
195.0136
20
-125.5598
0
VERTEX
8
CUT
10
195.8102
20
-125.3741
0
VERTEX
8
CUT
10
196.5930
20
-125.1366
0
VERTEX
8
CUT
10
197.3585
20
-124.8485
0
VERTEX
8
CUT
10
198.1036
20
-124.5109
0
VERTEX
8
CUT
10
198.8250
20
-124.1253
0
VERTEX
8
CUT
10
199.5196
20
-123.6934
0
VERTEX
8
CUT
10
200.1845
20
-123.2169
0
VERTEX
8
CUT
10
200.8168
20
-122.6980
0
VERTEX
8
CUT
10
201.4138
20
-122.1388
0
VERTEX
8
CUT
10
201.9730
20
-121.5418
0
VERTEX
8
CUT
10
202.4919
20
-120.9095
0
VERTEX
8
CUT
10
202.9684
20
-120.2446
0
VERTEX
8
CUT
10
203.4003
20
-119.5500
0
VERTEX
8
CUT
10
203.7859
20
-118.8286
0
VERTEX
8
CUT
10
204.1235
20
-118.0835
0
VERTEX
8
CUT
10
204.4116
20
-117.3180
0
VERTEX
8
CUT
10
204.6491
20
-116.5352
0
VERTEX
8
CUT
10
204.8348
20
-115.7386
0
VERTEX
8
CUT
10
204.9681
20
-114.9316
0
VERTEX
8
CUT
10
205.0482
20
-114.1175
0
VERTEX
8
CUT
10
205.0750
20
-113.3000
0
VERTEX
8
CUT
10
205.0750
20
5.0000
0
VERTEX
8
CUT
10
205.0482
20
5.8175
0
VERTEX
8
CUT
10
204.9681
20
6.6316
0
VERTEX
8
CUT
10
204.8348
20
7.4386
0
VERTEX
8
CUT
10
204.6491
20
8.2352
0
VERTEX
8
CUT
10
204.4116
20
9.0180
0
VERTEX
8
CUT
10
204.1235
20
9.7835
0
VERTEX
8
CUT
10
203.7859
20
10.5286
0
VERTEX
8
CUT
10
203.4003
20
11.2500
0
VERTEX
8
CUT
10
202.9684
20
11.9446
0
VERTEX
8
CUT
10
202.4919
20
12.6095
0
VERTEX
8
CUT
10
201.9730
20
13.2418
0
VERTEX
8
CUT
10
201.4138
20
13.8388
0
VERTEX
8
CUT
10
200.8168
20
14.3980
0
VERTEX
8
CUT
10
200.1845
20
14.9169
0
VERTEX
8
CUT
10
199.5196
20
15.3934
0
VERTEX
8
CUT
10
198.8250
20
15.8253
0
VERTEX
8
CUT
10
198.1036
20
16.2109
0
VERTEX
8
CUT
10
197.3585
20
16.5485
0
VERTEX
8
CUT
10
196.5930
20
16.8366
0
VERTEX
8
CUT
10
195.8102
20
17.0741
0
VERTEX
8
CUT
10
195.0136
20
17.2598
0
VERTEX
8
CUT
10
194.2066
20
17.3931
0
VERTEX
8
CUT
10
193.3925
20
17.4732
0
VERTEX
8
CUT
10
192.5750
20
17.5000
0
VERTEX
8
CUT
10
1.0000
20
17.5000
0
VERTEX
8
CUT
10
0.1825
20
17.4732
0
VERTEX
8
CUT
10
-0.6316
20
17.3931
0
VERTEX
8
CUT
10
-1.4386
20
17.2598
0
VERTEX
8
CUT
10
-2.2352
20
17.0741
0
VERTEX
8
CUT
10
-3.0180
20
16.8366
0
VERTEX
8
CUT
10
-3.7835
20
16.5485
0
VERTEX
8
CUT
10
-4.5286
20
16.2109
0
VERTEX
8
CUT
10
-5.2500
20
15.8253
0
VERTEX
8
CUT
10
-5.9446
20
15.3934
0
VERTEX
8
CUT
10
-6.6095
20
14.9169
0
VERTEX
8
CUT
10
-7.2418
20
14.3980
0
VERTEX
8
CUT
10
-7.8388
20
13.8388
0
VERTEX
8
CUT
10
-8.3980
20
13.2418
0
VERTEX
8
CUT
10
-8.9169
20
12.6095
0
VERTEX
8
CUT
10
-9.3934
20
11.9446
0
VERTEX
8
CUT
10
-9.8253
20
11.2500
0
VERTEX
8
CUT
10
-10.2109
20
10.5286
0
VERTEX
8
CUT
10
-10.5485
20
9.7835
0
VERTEX
8
CUT
10
-10.8366
20
9.0180
0
VERTEX
8
CUT
10
-11.0741
20
8.2352
0
VERTEX
8
CUT
10
-11.2598
20
7.4386
0
VERTEX
8
CUT
10
-11.3931
20
6.6316
0
VERTEX
8
CUT
10
-11.4732
20
5.8175
0
VERTEX
8
CUT
10
-11.5000
20
5.0000
0
VERTEX
8
CUT
10
-11.5000
20
-113.3000
0
VERTEX
8
CUT
10
-11.4732
20
-114.1175
0
VERTEX
8
CUT
10
-11.3931
20
-114.9316
0
VERTEX
8
CUT
10
-11.2598
20
-115.7386
0
VERTEX
8
CUT
10
-11.0741
20
-116.5352
0
VERTEX
8
CUT
10
-10.8366
20
-117.3180
0
VERTEX
8
CUT
10
-10.5485
20
-118.0835
0
VERTEX
8
CUT
10
-10.2109
20
-118.8286
0
VERTEX
8
CUT
10
-9.8253
20
-119.5500
0
VERTEX
8
CUT
10
-9.3934
20
-120.2446
0
VERTEX
8
CUT
10
-8.9169
20
-120.9095
0
VERTEX
8
CUT
10
-8.3980
20
-121.5418
0
VERTEX
8
CUT
10
-7.8388
20
-122.1388
0
VERTEX
8
CUT
10
-7.2418
20
-122.6980
0
VERTEX
8
CUT
10
-6.6095
20
-123.2169
0
VERTEX
8
CUT
10
-5.9446
20
-123.6934
0
VERTEX
8
CUT
10
-5.2500
20
-124.1253
0
VERTEX
8
CUT
10
-4.5286
20
-124.5109
0
VERTEX
8
CUT
10
-3.7835
20
-124.8485
0
VERTEX
8
CUT
10
-3.0180
20
-125.1366
0
VERTEX
8
CUT
10
-2.2352
20
-125.3741
0
VERTEX
8
CUT
10
-1.4386
20
-125.5598
0
VERTEX
8
CUT
10
-0.6316
20
-125.6931
0
VERTEX
8
CUT
10
0.1825
20
-125.7732
0
VERTEX
8
CUT
10
1.0000
20
-125.8000
0
VERTEX
8
CUT
10
192.5750
20
-125.8000
0
SEQEND
0
POLYLINE
8
CUT
66
1
70
1
0
VERTEX
8
CUT
10
96.7156
20
12.4024
0
VERTEX
8
CUT
10
96.6439
20
12.4094
0
VERTEX
8
CUT
10
96.5729
20
12.4211
0
VERTEX
8
CUT
10
96.5028
20
12.4375
0
VERTEX
8
CUT
10
96.4339
20
12.4584
0
VERTEX
8
CUT
10
96.3665
20
12.4837
0
VERTEX
8
CUT
10
96.3010
20
12.5134
0
VERTEX
8
CUT
10
96.2375
20
12.5474
0
VERTEX
8
CUT
10
96.1764
20
12.5854
0
VERTEX
8
CUT
10
96.1179
20
12.6273
0
VERTEX
8
CUT
10
96.0622
20
12.6730
0
VERTEX
8
CUT
10
96.0097
20
12.7222
0
VERTEX
8
CUT
10
95.9605
20
12.7747
0
VERTEX
8
CUT
10
95.9148
20
12.8304
0
VERTEX
8
CUT
10
95.8729
20
12.8889
0
VERTEX
8
CUT
10
95.8349
20
12.9500
0
VERTEX
8
CUT
10
95.8009
20
13.0135
0
VERTEX
8
CUT
10
95.7712
20
13.0790
0
VERTEX
8
CUT
10
95.7459
20
13.1464
0
VERTEX
8
CUT
10
95.7250
20
13.2153
0
VERTEX
8
CUT
10
95.7086
20
13.2854
0
VERTEX
8
CUT
10
95.6969
20
13.3564
0
VERTEX
8
CUT
10
95.6899
20
13.4281
0
VERTEX
8
CUT
10
95.6875
20
13.5000
0
VERTEX
8
CUT
10
95.6899
20
13.5719
0
VERTEX
8
CUT
10
95.6969
20
13.6436
0
VERTEX
8
CUT
10
95.7086
20
13.7146
0
VERTEX
8
CUT
10
95.7250
20
13.7847
0
VERTEX
8
CUT
10
95.7459
20
13.8536
0
VERTEX
8
CUT
10
95.7712
20
13.9210
0
VERTEX
8
CUT
10
95.8009
20
13.9865
0
VERTEX
8
CUT
10
95.8349
20
14.0500
0
VERTEX
8
CUT
10
95.8729
20
14.1111
0
VERTEX
8
CUT
10
95.9148
20
14.1696
0
VERTEX
8
CUT
10
95.9605
20
14.2253
0
VERTEX
8
CUT
10
96.0097
20
14.2778
0
VERTEX
8
CUT
10
96.0622
20
14.3270
0
VERTEX
8
CUT
10
96.1179
20
14.3727
0
VERTEX
8
CUT
10
96.1764
20
14.4146
0
VERTEX
8
CUT
10
96.2375
20
14.4526
0
VERTEX
8
CUT
10
96.3010
20
14.4866
0
VERTEX
8
CUT
10
96.3665
20
14.5163
0
VERTEX
8
CUT
10
96.4339
20
14.5416
0
VERTEX
8
CUT
10
96.5028
20
14.5625
0
VERTEX
8
CUT
10
96.5729
20
14.5789
0
VERTEX
8
CUT
10
96.6439
20
14.5906
0
VERTEX
8
CUT
10
96.7156
20
14.5976
0
VERTEX
8
CUT
10
96.7875
20
14.6000
0
VERTEX
8
CUT
10
96.8594
20
14.5976
0
VERTEX
8
CUT
10
96.9311
20
14.5906
0
VERTEX
8
CUT
10
97.0021
20
14.5789
0
VERTEX
8
CUT
10
97.0722
20
14.5625
0
VERTEX
8
CUT
10
97.1411
20
14.5416
0
VERTEX
8
CUT
10
97.2085
20
14.5163
0
VERTEX
8
CUT
10
97.2740
20
14.4866
0
VERTEX
8
CUT
10
97.3375
20
14.4526
0
VERTEX
8
CUT
10
97.3986
20
14.4146
0
VERTEX
8
CUT
10
97.4571
20
14.3727
0
VERTEX
8
CUT
10
97.5128
20
14.3270
0
VERTEX
8
CUT
10
97.5653
20
14.2778
0
VERTEX
8
CUT
10
97.6145
20
14.2253
0
VERTEX
8
CUT
10
97.6602
20
14.1696
0
VERTEX
8
CUT
10
97.7021
20
14.1111
0
VERTEX
8
CUT
10
97.7401
20
14.0500
0
VERTEX
8
CUT
10
97.7741
20
13.9865
0
VERTEX
8
CUT
10
97.8038
20
13.9210
0
VERTEX
8
CUT
10
97.8291
20
13.8536
0
VERTEX
8
CUT
10
97.8500
20
13.7847
0
VERTEX
8
CUT
10
97.8664
20
13.7146
0
VERTEX
8
CUT
10
97.8781
20
13.6436
0
VERTEX
8
CUT
10
97.8851
20
13.5719
0
VERTEX
8
CUT
10
97.8875
20
13.5000
0
VERTEX
8
CUT
10
97.8851
20
13.4281
0
VERTEX
8
CUT
10
97.8781
20
13.3564
0
VERTEX
8
CUT
10
97.8664
20
13.2854
0
VERTEX
8
CUT
10
97.8500
20
13.2153
0
VERTEX
8
CUT
10
97.8291
20
13.1464
0
VERTEX
8
CUT
10
97.8038
20
13.0790
0
VERTEX
8
CUT
10
97.7741
20
13.0135
0
VERTEX
8
CUT
10
97.7401
20
12.9500
0
VERTEX
8
CUT
10
97.7021
20
12.8889
0
VERTEX
8
CUT
10
97.6602
20
12.8304
0
VERTEX
8
CUT
10
97.6145
20
12.7747
0
VERTEX
8
CUT
10
97.5653
20
12.7222
0
VERTEX
8
CUT
10
97.5128
20
12.6730
0
VERTEX
8
CUT
10
97.4571
20
12.6273
0
VERTEX
8
CUT
10
97.3986
20
12.5854
0
VERTEX
8
CUT
10
97.3375
20
12.5474
0
VERTEX
8
CUT
10
97.2740
20
12.5134
0
VERTEX
8
CUT
10
97.2085
20
12.4837
0
VERTEX
8
CUT
10
97.1411
20
12.4584
0
VERTEX
8
CUT
10
97.0722
20
12.4375
0
VERTEX
8
CUT
10
97.0021
20
12.4211
0
VERTEX
8
CUT
10
96.9311
20
12.4094
0
VERTEX
8
CUT
10
96.8594
20
12.4024
0
VERTEX
8
CUT
10
96.7875
20
12.4000
0
SEQEND
0
POLYLINE
8
CUT
66
1
70
1
0
VERTEX
8
CUT
10
148.8593
20
12.4024
0
VERTEX
8
CUT
10
148.7877
20
12.4094
0
VERTEX
8
CUT
10
148.7167
20
12.4211
0
VERTEX
8
CUT
10
148.6465
20
12.4375
0
VERTEX
8
CUT
10
148.5777
20
12.4584
0
VERTEX
8
CUT
10
148.5103
20
12.4837
0
VERTEX
8
CUT
10
148.4447
20
12.5134
0
VERTEX
8
CUT
10
148.3813
20
12.5474
0
VERTEX
8
CUT
10
148.3201
20
12.5854
0
VERTEX
8
CUT
10
148.2616
20
12.6273
0
VERTEX
8
CUT
10
148.2060
20
12.6730
0
VERTEX
8
CUT
10
148.1534
20
12.7222
0
VERTEX
8
CUT
10
148.1042
20
12.7747
0
VERTEX
8
CUT
10
148.0586
20
12.8304
0
VERTEX
8
CUT
10
148.0166
20
12.8889
0
VERTEX
8
CUT
10
147.9786
20
12.9500
0
VERTEX
8
CUT
10
147.9447
20
13.0135
0
VERTEX
8
CUT
10
147.9150
20
13.0790
0
VERTEX
8
CUT
10
147.8896
20
13.1464
0
VERTEX
8
CUT
10
147.8687
20
13.2153
0
VERTEX
8
CUT
10
147.8524
20
13.2854
0
VERTEX
8
CUT
10
147.8407
20
13.3564
0
VERTEX
8
CUT
10
147.8336
20
13.4281
0
VERTEX
8
CUT
10
147.8312
20
13.5000
0
VERTEX
8
CUT
10
147.8336
20
13.5719
0
VERTEX
8
CUT
10
147.8407
20
13.6436
0
VERTEX
8
CUT
10
147.8524
20
13.7146
0
VERTEX
8
CUT
10
147.8687
20
13.7847
0
VERTEX
8
CUT
10
147.8896
20
13.8536
0
VERTEX
8
CUT
10
147.9150
20
13.9210
0
VERTEX
8
CUT
10
147.9447
20
13.9865
0
VERTEX
8
CUT
10
147.9786
20
14.0500
0
VERTEX
8
CUT
10
148.0166
20
14.1111
0
VERTEX
8
CUT
10
148.0586
20
14.1696
0
VERTEX
8
CUT
10
148.1042
20
14.2253
0
VERTEX
8
CUT
10
148.1534
20
14.2778
0
VERTEX
8
CUT
10
148.2060
20
14.3270
0
VERTEX
8
CUT
10
148.2616
20
14.3727
0
VERTEX
8
CUT
10
148.3201
20
14.4146
0
VERTEX
8
CUT
10
148.3813
20
14.4526
0
VERTEX
8
CUT
10
148.4447
20
14.4866
0
VERTEX
8
CUT
10
148.5103
20
14.5163
0
VERTEX
8
CUT
10
148.5777
20
14.5416
0
VERTEX
8
CUT
10
148.6465
20
14.5625
0
VERTEX
8
CUT
10
148.7167
20
14.5789
0
VERTEX
8
CUT
10
148.7877
20
14.5906
0
VERTEX
8
CUT
10
148.8593
20
14.5976
0
VERTEX
8
CUT
10
148.9312
20
14.6000
0
VERTEX
8
CUT
10
149.0032
20
14.5976
0
VERTEX
8
CUT
10
149.0748
20
14.5906
0
VERTEX
8
CUT
10
149.1458
20
14.5789
0
VERTEX
8
CUT
10
149.2160
20
14.5625
0
VERTEX
8
CUT
10
149.2848
20
14.5416
0
VERTEX
8
CUT
10
149.3522
20
14.5163
0
VERTEX
8
CUT
10
149.4178
20
14.4866
0
VERTEX
8
CUT
10
149.4813
20
14.4526
0
VERTEX
8
CUT
10
149.5424
20
14.4146
0
VERTEX
8
CUT
10
149.6009
20
14.3727
0
VERTEX
8
CUT
10
149.6565
20
14.3270
0
VERTEX
8
CUT
10
149.7091
20
14.2778
0
VERTEX
8
CUT
10
149.7583
20
14.2253
0
VERTEX
8
CUT
10
149.8039
20
14.1696
0
VERTEX
8
CUT
10
149.8459
20
14.1111
0
VERTEX
8
CUT
10
149.8839
20
14.0500
0
VERTEX
8
CUT
10
149.9178
20
13.9865
0
VERTEX
8
CUT
10
149.9475
20
13.9210
0
VERTEX
8
CUT
10
149.9729
20
13.8536
0
VERTEX
8
CUT
10
149.9938
20
13.7847
0
VERTEX
8
CUT
10
150.0101
20
13.7146
0
VERTEX
8
CUT
10
150.0218
20
13.6436
0
VERTEX
8
CUT
10
150.0289
20
13.5719
0
VERTEX
8
CUT
10
150.0312
20
13.5000
0
VERTEX
8
CUT
10
150.0289
20
13.4281
0
VERTEX
8
CUT
10
150.0218
20
13.3564
0
VERTEX
8
CUT
10
150.0101
20
13.2854
0
VERTEX
8
CUT
10
149.9938
20
13.2153
0
VERTEX
8
CUT
10
149.9729
20
13.1464
0
VERTEX
8
CUT
10
149.9475
20
13.0790
0
VERTEX
8
CUT
10
149.9178
20
13.0135
0
VERTEX
8
CUT
10
149.8839
20
12.9500
0
VERTEX
8
CUT
10
149.8459
20
12.8889
0
VERTEX
8
CUT
10
149.8039
20
12.8304
0
VERTEX
8
CUT
10
149.7583
20
12.7747
0
VERTEX
8
CUT
10
149.7091
20
12.7222
0
VERTEX
8
CUT
10
149.6565
20
12.6730
0
VERTEX
8
CUT
10
149.6009
20
12.6273
0
VERTEX
8
CUT
10
149.5424
20
12.5854
0
VERTEX
8
CUT
10
149.4813
20
12.5474
0
VERTEX
8
CUT
10
149.4178
20
12.5134
0
VERTEX
8
CUT
10
149.3522
20
12.4837
0
VERTEX
8
CUT
10
149.2848
20
12.4584
0
VERTEX
8
CUT
10
149.2160
20
12.4375
0
VERTEX
8
CUT
10
149.1458
20
12.4211
0
VERTEX
8
CUT
10
149.0748
20
12.4094
0
VERTEX
8
CUT
10
149.0032
20
12.4024
0
VERTEX
8
CUT
10
148.9312
20
12.4000
0
SEQEND
0
POLYLINE
8
CUT
66
1
70
1
0
VERTEX
8
CUT
10
174.3593
20
12.4024
0
VERTEX
8
CUT
10
174.2876
20
12.4094
0
VERTEX
8
CUT
10
174.2166
20
12.4211
0
VERTEX
8
CUT
10
174.1465
20
12.4375
0
VERTEX
8
CUT
10
174.0776
20
12.4584
0
VERTEX
8
CUT
10
174.0102
20
12.4837
0
VERTEX
8
CUT
10
173.9447
20
12.5134
0
VERTEX
8
CUT
10
173.8812
20
12.5474
0
VERTEX
8
CUT
10
173.8201
20
12.5854
0
VERTEX
8
CUT
10
173.7616
20
12.6273
0
VERTEX
8
CUT
10
173.7059
20
12.6730
0
VERTEX
8
CUT
10
173.6534
20
12.7222
0
VERTEX
8
CUT
10
173.6042
20
12.7747
0
VERTEX
8
CUT
10
173.5585
20
12.8304
0
VERTEX
8
CUT
10
173.5166
20
12.8889
0
VERTEX
8
CUT
10
173.4786
20
12.9500
0
VERTEX
8
CUT
10
173.4446
20
13.0135
0
VERTEX
8
CUT
10
173.4149
20
13.0790
0
VERTEX
8
CUT
10
173.3896
20
13.1464
0
VERTEX
8
CUT
10
173.3687
20
13.2153
0
VERTEX
8
CUT
10
173.3523
20
13.2854
0
VERTEX
8
CUT
10
173.3406
20
13.3564
0
VERTEX
8
CUT
10
173.3336
20
13.4281
0
VERTEX
8
CUT
10
173.3312
20
13.5000
0
VERTEX
8
CUT
10
173.3336
20
13.5719
0
VERTEX
8
CUT
10
173.3406
20
13.6436
0
VERTEX
8
CUT
10
173.3523
20
13.7146
0
VERTEX
8
CUT
10
173.3687
20
13.7847
0
VERTEX
8
CUT
10
173.3896
20
13.8536
0
VERTEX
8
CUT
10
173.4149
20
13.9210
0
VERTEX
8
CUT
10
173.4446
20
13.9865
0
VERTEX
8
CUT
10
173.4786
20
14.0500
0
VERTEX
8
CUT
10
173.5166
20
14.1111
0
VERTEX
8
CUT
10
173.5585
20
14.1696
0
VERTEX
8
CUT
10
173.6042
20
14.2253
0
VERTEX
8
CUT
10
173.6534
20
14.2778
0
VERTEX
8
CUT
10
173.7059
20
14.3270
0
VERTEX
8
CUT
10
173.7616
20
14.3727
0
VERTEX
8
CUT
10
173.8201
20
14.4146
0
VERTEX
8
CUT
10
173.8812
20
14.4526
0
VERTEX
8
CUT
10
173.9447
20
14.4866
0
VERTEX
8
CUT
10
174.0102
20
14.5163
0
VERTEX
8
CUT
10
174.0776
20
14.5416
0
VERTEX
8
CUT
10
174.1465
20
14.5625
0
VERTEX
8
CUT
10
174.2166
20
14.5789
0
VERTEX
8
CUT
10
174.2876
20
14.5906
0
VERTEX
8
CUT
10
174.3593
20
14.5976
0
VERTEX
8
CUT
10
174.4312
20
14.6000
0
VERTEX
8
CUT
10
174.5031
20
14.5976
0
VERTEX
8
CUT
10
174.5748
20
14.5906
0
VERTEX
8
CUT
10
174.6458
20
14.5789
0
VERTEX
8
CUT
10
174.7159
20
14.5625
0
VERTEX
8
CUT
10
174.7848
20
14.5416
0
VERTEX
8
CUT
10
174.8521
20
14.5163
0
VERTEX
8
CUT
10
174.9177
20
14.4866
0
VERTEX
8
CUT
10
174.9812
20
14.4526
0
VERTEX
8
CUT
10
175.0423
20
14.4146
0
VERTEX
8
CUT
10
175.1008
20
14.3727
0
VERTEX
8
CUT
10
175.1565
20
14.3270
0
VERTEX
8
CUT
10
175.2090
20
14.2778
0
VERTEX
8
CUT
10
175.2582
20
14.2253
0
VERTEX
8
CUT
10
175.3039
20
14.1696
0
VERTEX
8
CUT
10
175.3458
20
14.1111
0
VERTEX
8
CUT
10
175.3838
20
14.0500
0
VERTEX
8
CUT
10
175.4178
20
13.9865
0
VERTEX
8
CUT
10
175.4475
20
13.9210
0
VERTEX
8
CUT
10
175.4728
20
13.8536
0
VERTEX
8
CUT
10
175.4937
20
13.7847
0
VERTEX
8
CUT
10
175.5101
20
13.7146
0
VERTEX
8
CUT
10
175.5218
20
13.6436
0
VERTEX
8
CUT
10
175.5288
20
13.5719
0
VERTEX
8
CUT
10
175.5312
20
13.5000
0
VERTEX
8
CUT
10
175.5288
20
13.4281
0
VERTEX
8
CUT
10
175.5218
20
13.3564
0
VERTEX
8
CUT
10
175.5101
20
13.2854
0
VERTEX
8
CUT
10
175.4937
20
13.2153
0
VERTEX
8
CUT
10
175.4728
20
13.1464
0
VERTEX
8
CUT
10
175.4475
20
13.0790
0
VERTEX
8
CUT
10
175.4178
20
13.0135
0
VERTEX
8
CUT
10
175.3838
20
12.9500
0
VERTEX
8
CUT
10
175.3458
20
12.8889
0
VERTEX
8
CUT
10
175.3039
20
12.8304
0
VERTEX
8
CUT
10
175.2582
20
12.7747
0
VERTEX
8
CUT
10
175.2090
20
12.7222
0
VERTEX
8
CUT
10
175.1565
20
12.6730
0
VERTEX
8
CUT
10
175.1008
20
12.6273
0
VERTEX
8
CUT
10
175.0423
20
12.5854
0
VERTEX
8
CUT
10
174.9812
20
12.5474
0
VERTEX
8
CUT
10
174.9177
20
12.5134
0
VERTEX
8
CUT
10
174.8521
20
12.4837
0
VERTEX
8
CUT
10
174.7848
20
12.4584
0
VERTEX
8
CUT
10
174.7159
20
12.4375
0
VERTEX
8
CUT
10
174.6458
20
12.4211
0
VERTEX
8
CUT
10
174.5748
20
12.4094
0
VERTEX
8
CUT
10
174.5031
20
12.4024
0
VERTEX
8
CUT
10
174.4312
20
12.4000
0
SEQEND
0
POLYLINE
8
CUT
66
1
70
1
0
VERTEX
8
CUT
10
191.4704
20
2.4034
0
VERTEX
8
CUT
10
191.3662
20
2.4137
0
VERTEX
8
CUT
10
191.2629
20
2.4307
0
VERTEX
8
CUT
10
191.1609
20
2.4545
0
VERTEX
8
CUT
10
191.0607
20
2.4849
0
VERTEX
8
CUT
10
190.9627
20
2.5218
0
VERTEX
8
CUT
10
190.8673
20
2.5650
0
VERTEX
8
CUT
10
190.7750
20
2.6144
0
VERTEX
8
CUT
10
190.6861
20
2.6696
0
VERTEX
8
CUT
10
190.6010
20
2.7306
0
VERTEX
8
CUT
10
190.5200
20
2.7971
0
VERTEX
8
CUT
10
190.4436
20
2.8686
0
VERTEX
8
CUT
10
190.3721
20
2.9450
0
VERTEX
8
CUT
10
190.3056
20
3.0260
0
VERTEX
8
CUT
10
190.2446
20
3.1111
0
VERTEX
8
CUT
10
190.1894
20
3.2000
0
VERTEX
8
CUT
10
190.1400
20
3.2923
0
VERTEX
8
CUT
10
190.0968
20
3.3877
0
VERTEX
8
CUT
10
190.0599
20
3.4857
0
VERTEX
8
CUT
10
190.0295
20
3.5859
0
VERTEX
8
CUT
10
190.0057
20
3.6879
0
VERTEX
8
CUT
10
189.9887
20
3.7912
0
VERTEX
8
CUT
10
189.9784
20
3.8954
0
VERTEX
8
CUT
10
189.9750
20
4.0000
0
VERTEX
8
CUT
10
189.9784
20
4.1046
0
VERTEX
8
CUT
10
189.9887
20
4.2088
0
VERTEX
8
CUT
10
190.0057
20
4.3121
0
VERTEX
8
CUT
10
190.0295
20
4.4141
0
VERTEX
8
CUT
10
190.0599
20
4.5143
0
VERTEX
8
CUT
10
190.0968
20
4.6123
0
VERTEX
8
CUT
10
190.1400
20
4.7077
0
VERTEX
8
CUT
10
190.1894
20
4.8000
0
VERTEX
8
CUT
10
190.2446
20
4.8889
0
VERTEX
8
CUT
10
190.3056
20
4.9740
0
VERTEX
8
CUT
10
190.3721
20
5.0550
0
VERTEX
8
CUT
10
190.4436
20
5.1314
0
VERTEX
8
CUT
10
190.5200
20
5.2029
0
VERTEX
8
CUT
10
190.6010
20
5.2694
0
VERTEX
8
CUT
10
190.6861
20
5.3304
0
VERTEX
8
CUT
10
190.7750
20
5.3856
0
VERTEX
8
CUT
10
190.8673
20
5.4350
0
VERTEX
8
CUT
10
190.9627
20
5.4782
0
VERTEX
8
CUT
10
191.0607
20
5.5151
0
VERTEX
8
CUT
10
191.1609
20
5.5455
0
VERTEX
8
CUT
10
191.2629
20
5.5693
0
VERTEX
8
CUT
10
191.3662
20
5.5863
0
VERTEX
8
CUT
10
191.4704
20
5.5966
0
VERTEX
8
CUT
10
191.5750
20
5.6000
0
VERTEX
8
CUT
10
191.6796
20
5.5966
0
VERTEX
8
CUT
10
191.7838
20
5.5863
0
VERTEX
8
CUT
10
191.8871
20
5.5693
0
VERTEX
8
CUT
10
191.9891
20
5.5455
0
VERTEX
8
CUT
10
192.0893
20
5.5151
0
VERTEX
8
CUT
10
192.1873
20
5.4782
0
VERTEX
8
CUT
10
192.2827
20
5.4350
0
VERTEX
8
CUT
10
192.3750
20
5.3856
0
VERTEX
8
CUT
10
192.4639
20
5.3304
0
VERTEX
8
CUT
10
192.5490
20
5.2694
0
VERTEX
8
CUT
10
192.6300
20
5.2029
0
VERTEX
8
CUT
10
192.7064
20
5.1314
0
VERTEX
8
CUT
10
192.7779
20
5.0550
0
VERTEX
8
CUT
10
192.8444
20
4.9740
0
VERTEX
8
CUT
10
192.9054
20
4.8889
0
VERTEX
8
CUT
10
192.9606
20
4.8000
0
VERTEX
8
CUT
10
193.0100
20
4.7077
0
VERTEX
8
CUT
10
193.0532
20
4.6123
0
VERTEX
8
CUT
10
193.0901
20
4.5143
0
VERTEX
8
CUT
10
193.1205
20
4.4141
0
VERTEX
8
CUT
10
193.1443
20
4.3121
0
VERTEX
8
CUT
10
193.1613
20
4.2088
0
VERTEX
8
CUT
10
193.1716
20
4.1046
0
VERTEX
8
CUT
10
193.1750
20
4.0000
0
VERTEX
8
CUT
10
193.1716
20
3.8954
0
VERTEX
8
CUT
10
193.1613
20
3.7912
0
VERTEX
8
CUT
10
193.1443
20
3.6879
0
VERTEX
8
CUT
10
193.1205
20
3.5859
0
VERTEX
8
CUT
10
193.0901
20
3.4857
0
VERTEX
8
CUT
10
193.0532
20
3.3877
0
VERTEX
8
CUT
10
193.0100
20
3.2923
0
VERTEX
8
CUT
10
192.9606
20
3.2000
0
VERTEX
8
CUT
10
192.9054
20
3.1111
0
VERTEX
8
CUT
10
192.8444
20
3.0260
0
VERTEX
8
CUT
10
192.7779
20
2.9450
0
VERTEX
8
CUT
10
192.7064
20
2.8686
0
VERTEX
8
CUT
10
192.6300
20
2.7971
0
VERTEX
8
CUT
10
192.5490
20
2.7306
0
VERTEX
8
CUT
10
192.4639
20
2.6696
0
VERTEX
8
CUT
10
192.3750
20
2.6144
0
VERTEX
8
CUT
10
192.2827
20
2.5650
0
VERTEX
8
CUT
10
192.1873
20
2.5218
0
VERTEX
8
CUT
10
192.0893
20
2.4849
0
VERTEX
8
CUT
10
191.9891
20
2.4545
0
VERTEX
8
CUT
10
191.8871
20
2.4307
0
VERTEX
8
CUT
10
191.7838
20
2.4137
0
VERTEX
8
CUT
10
191.6796
20
2.4034
0
VERTEX
8
CUT
10
191.5750
20
2.4000
0
SEQEND
0
POLYLINE
8
CUT
66
1
70
1
0
VERTEX
8
CUT
10
201.0031
20
-14.2414
0
VERTEX
8
CUT
10
200.9314
20
-14.2344
0
VERTEX
8
CUT
10
200.8604
20
-14.2227
0
VERTEX
8
CUT
10
200.7903
20
-14.2063
0
VERTEX
8
CUT
10
200.7214
20
-14.1854
0
VERTEX
8
CUT
10
200.6540
20
-14.1601
0
VERTEX
8
CUT
10
200.5885
20
-14.1304
0
VERTEX
8
CUT
10
200.5250
20
-14.0964
0
VERTEX
8
CUT
10
200.4639
20
-14.0584
0
VERTEX
8
CUT
10
200.4054
20
-14.0165
0
VERTEX
8
CUT
10
200.3497
20
-13.9708
0
VERTEX
8
CUT
10
200.2972
20
-13.9216
0
VERTEX
8
CUT
10
200.2480
20
-13.8691
0
VERTEX
8
CUT
10
200.2023
20
-13.8134
0
VERTEX
8
CUT
10
200.1604
20
-13.7549
0
VERTEX
8
CUT
10
200.1224
20
-13.6938
0
VERTEX
8
CUT
10
200.0884
20
-13.6303
0
VERTEX
8
CUT
10
200.0587
20
-13.5648
0
VERTEX
8
CUT
10
200.0334
20
-13.4974
0
VERTEX
8
CUT
10
200.0125
20
-13.4285
0
VERTEX
8
CUT
10
199.9961
20
-13.3584
0
VERTEX
8
CUT
10
199.9844
20
-13.2874
0
VERTEX
8
CUT
10
199.9774
20
-13.2157
0
VERTEX
8
CUT
10
199.9750
20
-13.1438
0
VERTEX
8
CUT
10
199.9774
20
-13.0719
0
VERTEX
8
CUT
10
199.9844
20
-13.0002
0
VERTEX
8
CUT
10
199.9961
20
-12.9292
0
VERTEX
8
CUT
10
200.0125
20
-12.8591
0
VERTEX
8
CUT
10
200.0334
20
-12.7902
0
VERTEX
8
CUT
10
200.0587
20
-12.7229
0
VERTEX
8
CUT
10
200.0884
20
-12.6573
0
VERTEX
8
CUT
10
200.1224
20
-12.5938
0
VERTEX
8
CUT
10
200.1604
20
-12.5327
0
VERTEX
8
CUT
10
200.2023
20
-12.4742
0
VERTEX
8
CUT
10
200.2480
20
-12.4185
0
VERTEX
8
CUT
10
200.2972
20
-12.3660
0
VERTEX
8
CUT
10
200.3497
20
-12.3168
0
VERTEX
8
CUT
10
200.4054
20
-12.2711
0
VERTEX
8
CUT
10
200.4639
20
-12.2292
0
VERTEX
8
CUT
10
200.5250
20
-12.1912
0
VERTEX
8
CUT
10
200.5885
20
-12.1572
0
VERTEX
8
CUT
10
200.6540
20
-12.1275
0
VERTEX
8
CUT
10
200.7214
20
-12.1022
0
VERTEX
8
CUT
10
200.7903
20
-12.0813
0
VERTEX
8
CUT
10
200.8604
20
-12.0649
0
VERTEX
8
CUT
10
200.9314
20
-12.0532
0
VERTEX
8
CUT
10
201.0031
20
-12.0462
0
VERTEX
8
CUT
10
201.0750
20
-12.0438
0
VERTEX
8
CUT
10
201.1469
20
-12.0462
0
VERTEX
8
CUT
10
201.2186
20
-12.0532
0
VERTEX
8
CUT
10
201.2896
20
-12.0649
0
VERTEX
8
CUT
10
201.3597
20
-12.0813
0
VERTEX
8
CUT
10
201.4286
20
-12.1022
0
VERTEX
8
CUT
10
201.4960
20
-12.1275
0
VERTEX
8
CUT
10
201.5615
20
-12.1572
0
VERTEX
8
CUT
10
201.6250
20
-12.1912
0
VERTEX
8
CUT
10
201.6861
20
-12.2292
0
VERTEX
8
CUT
10
201.7446
20
-12.2711
0
VERTEX
8
CUT
10
201.8003
20
-12.3168
0
VERTEX
8
CUT
10
201.8528
20
-12.3660
0
VERTEX
8
CUT
10
201.9020
20
-12.4185
0
VERTEX
8
CUT
10
201.9477
20
-12.4742
0
VERTEX
8
CUT
10
201.9896
20
-12.5327
0
VERTEX
8
CUT
10
202.0276
20
-12.5938
0
VERTEX
8
CUT
10
202.0616
20
-12.6573
0
VERTEX
8
CUT
10
202.0913
20
-12.7229
0
VERTEX
8
CUT
10
202.1166
20
-12.7902
0
VERTEX
8
CUT
10
202.1375
20
-12.8591
0
VERTEX
8
CUT
10
202.1539
20
-12.9292
0
VERTEX
8
CUT
10
202.1656
20
-13.0002
0
VERTEX
8
CUT
10
202.1726
20
-13.0719
0
VERTEX
8
CUT
10
202.1750
20
-13.1438
0
VERTEX
8
CUT
10
202.1726
20
-13.2157
0
VERTEX
8
CUT
10
202.1656
20
-13.2874
0
VERTEX
8
CUT
10
202.1539
20
-13.3584
0
VERTEX
8
CUT
10
202.1375
20
-13.4285
0
VERTEX
8
CUT
10
202.1166
20
-13.4974
0
VERTEX
8
CUT
10
202.0913
20
-13.5648
0
VERTEX
8
CUT
10
202.0616
20
-13.6303
0
VERTEX
8
CUT
10
202.0276
20
-13.6938
0
VERTEX
8
CUT
10
201.9896
20
-13.7549
0
VERTEX
8
CUT
10
201.9477
20
-13.8134
0
VERTEX
8
CUT
10
201.9020
20
-13.8691
0
VERTEX
8
CUT
10
201.8528
20
-13.9216
0
VERTEX
8
CUT
10
201.8003
20
-13.9708
0
VERTEX
8
CUT
10
201.7446
20
-14.0165
0
VERTEX
8
CUT
10
201.6861
20
-14.0584
0
VERTEX
8
CUT
10
201.6250
20
-14.0964
0
VERTEX
8
CUT
10
201.5615
20
-14.1304
0
VERTEX
8
CUT
10
201.4960
20
-14.1601
0
VERTEX
8
CUT
10
201.4286
20
-14.1854
0
VERTEX
8
CUT
10
201.3597
20
-14.2063
0
VERTEX
8
CUT
10
201.2896
20
-14.2227
0
VERTEX
8
CUT
10
201.2186
20
-14.2344
0
VERTEX
8
CUT
10
201.1469
20
-14.2414
0
VERTEX
8
CUT
10
201.0750
20
-14.2438
0
SEQEND
0
POLYLINE
8
CUT
66
1
70
1
0
VERTEX
8
CUT
10
21.4281
20
-20.1476
0
VERTEX
8
CUT
10
21.3564
20
-20.1406
0
VERTEX
8
CUT
10
21.2854
20
-20.1289
0
VERTEX
8
CUT
10
21.2153
20
-20.1125
0
VERTEX
8
CUT
10
21.1464
20
-20.0916
0
VERTEX
8
CUT
10
21.0790
20
-20.0663
0
VERTEX
8
CUT
10
21.0135
20
-20.0366
0
VERTEX
8
CUT
10
20.9500
20
-20.0026
0
VERTEX
8
CUT
10
20.8889
20
-19.9646
0
VERTEX
8
CUT
10
20.8304
20
-19.9227
0
VERTEX
8
CUT
10
20.7747
20
-19.8770
0
VERTEX
8
CUT
10
20.7222
20
-19.8278
0
VERTEX
8
CUT
10
20.6730
20
-19.7753
0
VERTEX
8
CUT
10
20.6273
20
-19.7196
0
VERTEX
8
CUT
10
20.5854
20
-19.6611
0
VERTEX
8
CUT
10
20.5474
20
-19.6000
0
VERTEX
8
CUT
10
20.5134
20
-19.5365
0
VERTEX
8
CUT
10
20.4837
20
-19.4710
0
VERTEX
8
CUT
10
20.4584
20
-19.4036
0
VERTEX
8
CUT
10
20.4375
20
-19.3347
0
VERTEX
8
CUT
10
20.4211
20
-19.2646
0
VERTEX
8
CUT
10
20.4094
20
-19.1936
0
VERTEX
8
CUT
10
20.4024
20
-19.1219
0
VERTEX
8
CUT
10
20.4000
20
-19.0500
0
VERTEX
8
CUT
10
20.4024
20
-18.9781
0
VERTEX
8
CUT
10
20.4094
20
-18.9064
0
VERTEX
8
CUT
10
20.4211
20
-18.8354
0
VERTEX
8
CUT
10
20.4375
20
-18.7653
0
VERTEX
8
CUT
10
20.4584
20
-18.6964
0
VERTEX
8
CUT
10
20.4837
20
-18.6290
0
VERTEX
8
CUT
10
20.5134
20
-18.5635
0
VERTEX
8
CUT
10
20.5474
20
-18.5000
0
VERTEX
8
CUT
10
20.5854
20
-18.4389
0
VERTEX
8
CUT
10
20.6273
20
-18.3804
0
VERTEX
8
CUT
10
20.6730
20
-18.3247
0
VERTEX
8
CUT
10
20.7222
20
-18.2722
0
VERTEX
8
CUT
10
20.7747
20
-18.2230
0
VERTEX
8
CUT
10
20.8304
20
-18.1773
0
VERTEX
8
CUT
10
20.8889
20
-18.1354
0
VERTEX
8
CUT
10
20.9500
20
-18.0974
0
VERTEX
8
CUT
10
21.0135
20
-18.0634
0
VERTEX
8
CUT
10
21.0790
20
-18.0337
0
VERTEX
8
CUT
10
21.1464
20
-18.0084
0
VERTEX
8
CUT
10
21.2153
20
-17.9875
0
VERTEX
8
CUT
10
21.2854
20
-17.9711
0
VERTEX
8
CUT
10
21.3564
20
-17.9594
0
VERTEX
8
CUT
10
21.4281
20
-17.9524
0
VERTEX
8
CUT
10
21.5000
20
-17.9500
0
VERTEX
8
CUT
10
21.5719
20
-17.9524
0
VERTEX
8
CUT
10
21.6436
20
-17.9594
0
VERTEX
8
CUT
10
21.7146
20
-17.9711
0
VERTEX
8
CUT
10
21.7847
20
-17.9875
0
VERTEX
8
CUT
10
21.8536
20
-18.0084
0
VERTEX
8
CUT
10
21.9210
20
-18.0337
0
VERTEX
8
CUT
10
21.9865
20
-18.0634
0
VERTEX
8
CUT
10
22.0500
20
-18.0974
0
VERTEX
8
CUT
10
22.1111
20
-18.1354
0
VERTEX
8
CUT
10
22.1696
20
-18.1773
0
VERTEX
8
CUT
10
22.2253
20
-18.2230
0
VERTEX
8
CUT
10
22.2778
20
-18.2722
0
VERTEX
8
CUT
10
22.3270
20
-18.3247
0
VERTEX
8
CUT
10
22.3727
20
-18.3804
0
VERTEX
8
CUT
10
22.4146
20
-18.4389
0
VERTEX
8
CUT
10
22.4526
20
-18.5000
0
VERTEX
8
CUT
10
22.4866
20
-18.5635
0
VERTEX
8
CUT
10
22.5163
20
-18.6290
0
VERTEX
8
CUT
10
22.5416
20
-18.6964
0
VERTEX
8
CUT
10
22.5625
20
-18.7653
0
VERTEX
8
CUT
10
22.5789
20
-18.8354
0
VERTEX
8
CUT
10
22.5906
20
-18.9064
0
VERTEX
8
CUT
10
22.5976
20
-18.9781
0
VERTEX
8
CUT
10
22.6000
20
-19.0500
0
VERTEX
8
CUT
10
22.5976
20
-19.1219
0
VERTEX
8
CUT
10
22.5906
20
-19.1936
0
VERTEX
8
CUT
10
22.5789
20
-19.2646
0
VERTEX
8
CUT
10
22.5625
20
-19.3347
0
VERTEX
8
CUT
10
22.5416
20
-19.4036
0
VERTEX
8
CUT
10
22.5163
20
-19.4710
0
VERTEX
8
CUT
10
22.4866
20
-19.5365
0
VERTEX
8
CUT
10
22.4526
20
-19.6000
0
VERTEX
8
CUT
10
22.4146
20
-19.6611
0
VERTEX
8
CUT
10
22.3727
20
-19.7196
0
VERTEX
8
CUT
10
22.3270
20
-19.7753
0
VERTEX
8
CUT
10
22.2778
20
-19.8278
0
VERTEX
8
CUT
10
22.2253
20
-19.8770
0
VERTEX
8
CUT
10
22.1696
20
-19.9227
0
VERTEX
8
CUT
10
22.1111
20
-19.9646
0
VERTEX
8
CUT
10
22.0500
20
-20.0026
0
VERTEX
8
CUT
10
21.9865
20
-20.0366
0
VERTEX
8
CUT
10
21.9210
20
-20.0663
0
VERTEX
8
CUT
10
21.8536
20
-20.0916
0
VERTEX
8
CUT
10
21.7847
20
-20.1125
0
VERTEX
8
CUT
10
21.7146
20
-20.1289
0
VERTEX
8
CUT
10
21.6436
20
-20.1406
0
VERTEX
8
CUT
10
21.5719
20
-20.1476
0
VERTEX
8
CUT
10
21.5000
20
-20.1500
0
SEQEND
0
POLYLINE
8
CUT
66
1
70
1
0
VERTEX
8
CUT
10
72.4281
20
-20.1476
0
VERTEX
8
CUT
10
72.3564
20
-20.1406
0
VERTEX
8
CUT
10
72.2854
20
-20.1289
0
VERTEX
8
CUT
10
72.2153
20
-20.1125
0
VERTEX
8
CUT
10
72.1464
20
-20.0916
0
VERTEX
8
CUT
10
72.0790
20
-20.0663
0
VERTEX
8
CUT
10
72.0135
20
-20.0366
0
VERTEX
8
CUT
10
71.9500
20
-20.0026
0
VERTEX
8
CUT
10
71.8889
20
-19.9646
0
VERTEX
8
CUT
10
71.8304
20
-19.9227
0
VERTEX
8
CUT
10
71.7747
20
-19.8770
0
VERTEX
8
CUT
10
71.7222
20
-19.8278
0
VERTEX
8
CUT
10
71.6730
20
-19.7753
0
VERTEX
8
CUT
10
71.6273
20
-19.7196
0
VERTEX
8
CUT
10
71.5854
20
-19.6611
0
VERTEX
8
CUT
10
71.5474
20
-19.6000
0
VERTEX
8
CUT
10
71.5134
20
-19.5365
0
VERTEX
8
CUT
10
71.4837
20
-19.4710
0
VERTEX
8
CUT
10
71.4584
20
-19.4036
0
VERTEX
8
CUT
10
71.4375
20
-19.3347
0
VERTEX
8
CUT
10
71.4211
20
-19.2646
0
VERTEX
8
CUT
10
71.4094
20
-19.1936
0
VERTEX
8
CUT
10
71.4024
20
-19.1219
0
VERTEX
8
CUT
10
71.4000
20
-19.0500
0
VERTEX
8
CUT
10
71.4024
20
-18.9781
0
VERTEX
8
CUT
10
71.4094
20
-18.9064
0
VERTEX
8
CUT
10
71.4211
20
-18.8354
0
VERTEX
8
CUT
10
71.4375
20
-18.7653
0
VERTEX
8
CUT
10
71.4584
20
-18.6964
0
VERTEX
8
CUT
10
71.4837
20
-18.6290
0
VERTEX
8
CUT
10
71.5134
20
-18.5635
0
VERTEX
8
CUT
10
71.5474
20
-18.5000
0
VERTEX
8
CUT
10
71.5854
20
-18.4389
0
VERTEX
8
CUT
10
71.6273
20
-18.3804
0
VERTEX
8
CUT
10
71.6730
20
-18.3247
0
VERTEX
8
CUT
10
71.7222
20
-18.2722
0
VERTEX
8
CUT
10
71.7747
20
-18.2230
0
VERTEX
8
CUT
10
71.8304
20
-18.1773
0
VERTEX
8
CUT
10
71.8889
20
-18.1354
0
VERTEX
8
CUT
10
71.9500
20
-18.0974
0
VERTEX
8
CUT
10
72.0135
20
-18.0634
0
VERTEX
8
CUT
10
72.0790
20
-18.0337
0
VERTEX
8
CUT
10
72.1464
20
-18.0084
0
VERTEX
8
CUT
10
72.2153
20
-17.9875
0
VERTEX
8
CUT
10
72.2854
20
-17.9711
0
VERTEX
8
CUT
10
72.3564
20
-17.9594
0
VERTEX
8
CUT
10
72.4281
20
-17.9524
0
VERTEX
8
CUT
10
72.5000
20
-17.9500
0
VERTEX
8
CUT
10
72.5719
20
-17.9524
0
VERTEX
8
CUT
10
72.6436
20
-17.9594
0
VERTEX
8
CUT
10
72.7146
20
-17.9711
0
VERTEX
8
CUT
10
72.7847
20
-17.9875
0
VERTEX
8
CUT
10
72.8536
20
-18.0084
0
VERTEX
8
CUT
10
72.9210
20
-18.0337
0
VERTEX
8
CUT
10
72.9865
20
-18.0634
0
VERTEX
8
CUT
10
73.0500
20
-18.0974
0
VERTEX
8
CUT
10
73.1111
20
-18.1354
0
VERTEX
8
CUT
10
73.1696
20
-18.1773
0
VERTEX
8
CUT
10
73.2253
20
-18.2230
0
VERTEX
8
CUT
10
73.2778
20
-18.2722
0
VERTEX
8
CUT
10
73.3270
20
-18.3247
0
VERTEX
8
CUT
10
73.3727
20
-18.3804
0
VERTEX
8
CUT
10
73.4146
20
-18.4389
0
VERTEX
8
CUT
10
73.4526
20
-18.5000
0
VERTEX
8
CUT
10
73.4866
20
-18.5635
0
VERTEX
8
CUT
10
73.5163
20
-18.6290
0
VERTEX
8
CUT
10
73.5416
20
-18.6964
0
VERTEX
8
CUT
10
73.5625
20
-18.7653
0
VERTEX
8
CUT
10
73.5789
20
-18.8354
0
VERTEX
8
CUT
10
73.5906
20
-18.9064
0
VERTEX
8
CUT
10
73.5976
20
-18.9781
0
VERTEX
8
CUT
10
73.6000
20
-19.0500
0
VERTEX
8
CUT
10
73.5976
20
-19.1219
0
VERTEX
8
CUT
10
73.5906
20
-19.1936
0
VERTEX
8
CUT
10
73.5789
20
-19.2646
0
VERTEX
8
CUT
10
73.5625
20
-19.3347
0
VERTEX
8
CUT
10
73.5416
20
-19.4036
0
VERTEX
8
CUT
10
73.5163
20
-19.4710
0
VERTEX
8
CUT
10
73.4866
20
-19.5365
0
VERTEX
8
CUT
10
73.4526
20
-19.6000
0
VERTEX
8
CUT
10
73.4146
20
-19.6611
0
VERTEX
8
CUT
10
73.3727
20
-19.7196
0
VERTEX
8
CUT
10
73.3270
20
-19.7753
0
VERTEX
8
CUT
10
73.2778
20
-19.8278
0
VERTEX
8
CUT
10
73.2253
20
-19.8770
0
VERTEX
8
CUT
10
73.1696
20
-19.9227
0
VERTEX
8
CUT
10
73.1111
20
-19.9646
0
VERTEX
8
CUT
10
73.0500
20
-20.0026
0
VERTEX
8
CUT
10
72.9865
20
-20.0366
0
VERTEX
8
CUT
10
72.9210
20
-20.0663
0
VERTEX
8
CUT
10
72.8536
20
-20.0916
0
VERTEX
8
CUT
10
72.7847
20
-20.1125
0
VERTEX
8
CUT
10
72.7146
20
-20.1289
0
VERTEX
8
CUT
10
72.6436
20
-20.1406
0
VERTEX
8
CUT
10
72.5719
20
-20.1476
0
VERTEX
8
CUT
10
72.5000
20
-20.1500
0
SEQEND
0
POLYLINE
8
CUT
66
1
70
1
0
VERTEX
8
CUT
10
123.9281
20
-20.1476
0
VERTEX
8
CUT
10
123.8564
20
-20.1406
0
VERTEX
8
CUT
10
123.7854
20
-20.1289
0
VERTEX
8
CUT
10
123.7153
20
-20.1125
0
VERTEX
8
CUT
10
123.6464
20
-20.0916
0
VERTEX
8
CUT
10
123.5790
20
-20.0663
0
VERTEX
8
CUT
10
123.5135
20
-20.0366
0
VERTEX
8
CUT
10
123.4500
20
-20.0026
0
VERTEX
8
CUT
10
123.3889
20
-19.9646
0
VERTEX
8
CUT
10
123.3304
20
-19.9227
0
VERTEX
8
CUT
10
123.2747
20
-19.8770
0
VERTEX
8
CUT
10
123.2222
20
-19.8278
0
VERTEX
8
CUT
10
123.1730
20
-19.7753
0
VERTEX
8
CUT
10
123.1273
20
-19.7196
0
VERTEX
8
CUT
10
123.0854
20
-19.6611
0
VERTEX
8
CUT
10
123.0474
20
-19.6000
0
VERTEX
8
CUT
10
123.0134
20
-19.5365
0
VERTEX
8
CUT
10
122.9837
20
-19.4710
0
VERTEX
8
CUT
10
122.9584
20
-19.4036
0
VERTEX
8
CUT
10
122.9375
20
-19.3347
0
VERTEX
8
CUT
10
122.9211
20
-19.2646
0
VERTEX
8
CUT
10
122.9094
20
-19.1936
0
VERTEX
8
CUT
10
122.9024
20
-19.1219
0
VERTEX
8
CUT
10
122.9000
20
-19.0500
0
VERTEX
8
CUT
10
122.9024
20
-18.9781
0
VERTEX
8
CUT
10
122.9094
20
-18.9064
0
VERTEX
8
CUT
10
122.9211
20
-18.8354
0
VERTEX
8
CUT
10
122.9375
20
-18.7653
0
VERTEX
8
CUT
10
122.9584
20
-18.6964
0
VERTEX
8
CUT
10
122.9837
20
-18.6290
0
VERTEX
8
CUT
10
123.0134
20
-18.5635
0
VERTEX
8
CUT
10
123.0474
20
-18.5000
0
VERTEX
8
CUT
10
123.0854
20
-18.4389
0
VERTEX
8
CUT
10
123.1273
20
-18.3804
0
VERTEX
8
CUT
10
123.1730
20
-18.3247
0
VERTEX
8
CUT
10
123.2222
20
-18.2722
0
VERTEX
8
CUT
10
123.2747
20
-18.2230
0
VERTEX
8
CUT
10
123.3304
20
-18.1773
0
VERTEX
8
CUT
10
123.3889
20
-18.1354
0
VERTEX
8
CUT
10
123.4500
20
-18.0974
0
VERTEX
8
CUT
10
123.5135
20
-18.0634
0
VERTEX
8
CUT
10
123.5790
20
-18.0337
0
VERTEX
8
CUT
10
123.6464
20
-18.0084
0
VERTEX
8
CUT
10
123.7153
20
-17.9875
0
VERTEX
8
CUT
10
123.7854
20
-17.9711
0
VERTEX
8
CUT
10
123.8564
20
-17.9594
0
VERTEX
8
CUT
10
123.9281
20
-17.9524
0
VERTEX
8
CUT
10
124.0000
20
-17.9500
0
VERTEX
8
CUT
10
124.0719
20
-17.9524
0
VERTEX
8
CUT
10
124.1436
20
-17.9594
0
VERTEX
8
CUT
10
124.2146
20
-17.9711
0
VERTEX
8
CUT
10
124.2847
20
-17.9875
0
VERTEX
8
CUT
10
124.3536
20
-18.0084
0
VERTEX
8
CUT
10
124.4210
20
-18.0337
0
VERTEX
8
CUT
10
124.4865
20
-18.0634
0
VERTEX
8
CUT
10
124.5500
20
-18.0974
0
VERTEX
8
CUT
10
124.6111
20
-18.1354
0
VERTEX
8
CUT
10
124.6696
20
-18.1773
0
VERTEX
8
CUT
10
124.7253
20
-18.2230
0
VERTEX
8
CUT
10
124.7778
20
-18.2722
0
VERTEX
8
CUT
10
124.8270
20
-18.3247
0
VERTEX
8
CUT
10
124.8727
20
-18.3804
0
VERTEX
8
CUT
10
124.9146
20
-18.4389
0
VERTEX
8
CUT
10
124.9526
20
-18.5000
0
VERTEX
8
CUT
10
124.9866
20
-18.5635
0
VERTEX
8
CUT
10
125.0163
20
-18.6290
0
VERTEX
8
CUT
10
125.0416
20
-18.6964
0
VERTEX
8
CUT
10
125.0625
20
-18.7653
0
VERTEX
8
CUT
10
125.0789
20
-18.8354
0
VERTEX
8
CUT
10
125.0906
20
-18.9064
0
VERTEX
8
CUT
10
125.0976
20
-18.9781
0
VERTEX
8
CUT
10
125.1000
20
-19.0500
0
VERTEX
8
CUT
10
125.0976
20
-19.1219
0
VERTEX
8
CUT
10
125.0906
20
-19.1936
0
VERTEX
8
CUT
10
125.0789
20
-19.2646
0
VERTEX
8
CUT
10
125.0625
20
-19.3347
0
VERTEX
8
CUT
10
125.0416
20
-19.4036
0
VERTEX
8
CUT
10
125.0163
20
-19.4710
0
VERTEX
8
CUT
10
124.9866
20
-19.5365
0
VERTEX
8
CUT
10
124.9526
20
-19.6000
0
VERTEX
8
CUT
10
124.9146
20
-19.6611
0
VERTEX
8
CUT
10
124.8727
20
-19.7196
0
VERTEX
8
CUT
10
124.8270
20
-19.7753
0
VERTEX
8
CUT
10
124.7778
20
-19.8278
0
VERTEX
8
CUT
10
124.7253
20
-19.8770
0
VERTEX
8
CUT
10
124.6696
20
-19.9227
0
VERTEX
8
CUT
10
124.6111
20
-19.9646
0
VERTEX
8
CUT
10
124.5500
20
-20.0026
0
VERTEX
8
CUT
10
124.4865
20
-20.0366
0
VERTEX
8
CUT
10
124.4210
20
-20.0663
0
VERTEX
8
CUT
10
124.3536
20
-20.0916
0
VERTEX
8
CUT
10
124.2847
20
-20.1125
0
VERTEX
8
CUT
10
124.2146
20
-20.1289
0
VERTEX
8
CUT
10
124.1436
20
-20.1406
0
VERTEX
8
CUT
10
124.0719
20
-20.1476
0
VERTEX
8
CUT
10
124.0000
20
-20.1500
0
SEQEND
0
POLYLINE
8
CUT
66
1
70
1
0
VERTEX
8
CUT
10
176.9281
20
-20.1476
0
VERTEX
8
CUT
10
176.8564
20
-20.1406
0
VERTEX
8
CUT
10
176.7854
20
-20.1289
0
VERTEX
8
CUT
10
176.7153
20
-20.1125
0
VERTEX
8
CUT
10
176.6464
20
-20.0916
0
VERTEX
8
CUT
10
176.5790
20
-20.0663
0
VERTEX
8
CUT
10
176.5135
20
-20.0366
0
VERTEX
8
CUT
10
176.4500
20
-20.0026
0
VERTEX
8
CUT
10
176.3889
20
-19.9646
0
VERTEX
8
CUT
10
176.3304
20
-19.9227
0
VERTEX
8
CUT
10
176.2747
20
-19.8770
0
VERTEX
8
CUT
10
176.2222
20
-19.8278
0
VERTEX
8
CUT
10
176.1730
20
-19.7753
0
VERTEX
8
CUT
10
176.1273
20
-19.7196
0
VERTEX
8
CUT
10
176.0854
20
-19.6611
0
VERTEX
8
CUT
10
176.0474
20
-19.6000
0
VERTEX
8
CUT
10
176.0134
20
-19.5365
0
VERTEX
8
CUT
10
175.9837
20
-19.4710
0
VERTEX
8
CUT
10
175.9584
20
-19.4036
0
VERTEX
8
CUT
10
175.9375
20
-19.3347
0
VERTEX
8
CUT
10
175.9211
20
-19.2646
0
VERTEX
8
CUT
10
175.9094
20
-19.1936
0
VERTEX
8
CUT
10
175.9024
20
-19.1219
0
VERTEX
8
CUT
10
175.9000
20
-19.0500
0
VERTEX
8
CUT
10
175.9024
20
-18.9781
0
VERTEX
8
CUT
10
175.9094
20
-18.9064
0
VERTEX
8
CUT
10
175.9211
20
-18.8354
0
VERTEX
8
CUT
10
175.9375
20
-18.7653
0
VERTEX
8
CUT
10
175.9584
20
-18.6964
0
VERTEX
8
CUT
10
175.9837
20
-18.6290
0
VERTEX
8
CUT
10
176.0134
20
-18.5635
0
VERTEX
8
CUT
10
176.0474
20
-18.5000
0
VERTEX
8
CUT
10
176.0854
20
-18.4389
0
VERTEX
8
CUT
10
176.1273
20
-18.3804
0
VERTEX
8
CUT
10
176.1730
20
-18.3247
0
VERTEX
8
CUT
10
176.2222
20
-18.2722
0
VERTEX
8
CUT
10
176.2747
20
-18.2230
0
VERTEX
8
CUT
10
176.3304
20
-18.1773
0
VERTEX
8
CUT
10
176.3889
20
-18.1354
0
VERTEX
8
CUT
10
176.4500
20
-18.0974
0
VERTEX
8
CUT
10
176.5135
20
-18.0634
0
VERTEX
8
CUT
10
176.5790
20
-18.0337
0
VERTEX
8
CUT
10
176.6464
20
-18.0084
0
VERTEX
8
CUT
10
176.7153
20
-17.9875
0
VERTEX
8
CUT
10
176.7854
20
-17.9711
0
VERTEX
8
CUT
10
176.8564
20
-17.9594
0
VERTEX
8
CUT
10
176.9281
20
-17.9524
0
VERTEX
8
CUT
10
177.0000
20
-17.9500
0
VERTEX
8
CUT
10
177.0719
20
-17.9524
0
VERTEX
8
CUT
10
177.1436
20
-17.9594
0
VERTEX
8
CUT
10
177.2146
20
-17.9711
0
VERTEX
8
CUT
10
177.2847
20
-17.9875
0
VERTEX
8
CUT
10
177.3536
20
-18.0084
0
VERTEX
8
CUT
10
177.4210
20
-18.0337
0
VERTEX
8
CUT
10
177.4865
20
-18.0634
0
VERTEX
8
CUT
10
177.5500
20
-18.0974
0
VERTEX
8
CUT
10
177.6111
20
-18.1354
0
VERTEX
8
CUT
10
177.6696
20
-18.1773
0
VERTEX
8
CUT
10
177.7253
20
-18.2230
0
VERTEX
8
CUT
10
177.7778
20
-18.2722
0
VERTEX
8
CUT
10
177.8270
20
-18.3247
0
VERTEX
8
CUT
10
177.8727
20
-18.3804
0
VERTEX
8
CUT
10
177.9146
20
-18.4389
0
VERTEX
8
CUT
10
177.9526
20
-18.5000
0
VERTEX
8
CUT
10
177.9866
20
-18.5635
0
VERTEX
8
CUT
10
178.0163
20
-18.6290
0
VERTEX
8
CUT
10
178.0416
20
-18.6964
0
VERTEX
8
CUT
10
178.0625
20
-18.7653
0
VERTEX
8
CUT
10
178.0789
20
-18.8354
0
VERTEX
8
CUT
10
178.0906
20
-18.9064
0
VERTEX
8
CUT
10
178.0976
20
-18.9781
0
VERTEX
8
CUT
10
178.1000
20
-19.0500
0
VERTEX
8
CUT
10
178.0976
20
-19.1219
0
VERTEX
8
CUT
10
178.0906
20
-19.1936
0
VERTEX
8
CUT
10
178.0789
20
-19.2646
0
VERTEX
8
CUT
10
178.0625
20
-19.3347
0
VERTEX
8
CUT
10
178.0416
20
-19.4036
0
VERTEX
8
CUT
10
178.0163
20
-19.4710
0
VERTEX
8
CUT
10
177.9866
20
-19.5365
0
VERTEX
8
CUT
10
177.9526
20
-19.6000
0
VERTEX
8
CUT
10
177.9146
20
-19.6611
0
VERTEX
8
CUT
10
177.8727
20
-19.7196
0
VERTEX
8
CUT
10
177.8270
20
-19.7753
0
VERTEX
8
CUT
10
177.7778
20
-19.8278
0
VERTEX
8
CUT
10
177.7253
20
-19.8770
0
VERTEX
8
CUT
10
177.6696
20
-19.9227
0
VERTEX
8
CUT
10
177.6111
20
-19.9646
0
VERTEX
8
CUT
10
177.5500
20
-20.0026
0
VERTEX
8
CUT
10
177.4865
20
-20.0366
0
VERTEX
8
CUT
10
177.4210
20
-20.0663
0
VERTEX
8
CUT
10
177.3536
20
-20.0916
0
VERTEX
8
CUT
10
177.2847
20
-20.1125
0
VERTEX
8
CUT
10
177.2146
20
-20.1289
0
VERTEX
8
CUT
10
177.1436
20
-20.1406
0
VERTEX
8
CUT
10
177.0719
20
-20.1476
0
VERTEX
8
CUT
10
177.0000
20
-20.1500
0
SEQEND
0
POLYLINE
8
CUT
66
1
70
1
0
VERTEX
8
CUT
10
-7.5719
20
-55.2476
0
VERTEX
8
CUT
10
-7.6436
20
-55.2406
0
VERTEX
8
CUT
10
-7.7146
20
-55.2289
0
VERTEX
8
CUT
10
-7.7847
20
-55.2125
0
VERTEX
8
CUT
10
-7.8536
20
-55.1916
0
VERTEX
8
CUT
10
-7.9210
20
-55.1663
0
VERTEX
8
CUT
10
-7.9865
20
-55.1366
0
VERTEX
8
CUT
10
-8.0500
20
-55.1026
0
VERTEX
8
CUT
10
-8.1111
20
-55.0646
0
VERTEX
8
CUT
10
-8.1696
20
-55.0227
0
VERTEX
8
CUT
10
-8.2253
20
-54.9770
0
VERTEX
8
CUT
10
-8.2778
20
-54.9278
0
VERTEX
8
CUT
10
-8.3270
20
-54.8753
0
VERTEX
8
CUT
10
-8.3727
20
-54.8196
0
VERTEX
8
CUT
10
-8.4146
20
-54.7611
0
VERTEX
8
CUT
10
-8.4526
20
-54.7000
0
VERTEX
8
CUT
10
-8.4866
20
-54.6365
0
VERTEX
8
CUT
10
-8.5163
20
-54.5710
0
VERTEX
8
CUT
10
-8.5416
20
-54.5036
0
VERTEX
8
CUT
10
-8.5625
20
-54.4347
0
VERTEX
8
CUT
10
-8.5789
20
-54.3646
0
VERTEX
8
CUT
10
-8.5906
20
-54.2936
0
VERTEX
8
CUT
10
-8.5976
20
-54.2219
0
VERTEX
8
CUT
10
-8.6000
20
-54.1500
0
VERTEX
8
CUT
10
-8.5976
20
-54.0781
0
VERTEX
8
CUT
10
-8.5906
20
-54.0064
0
VERTEX
8
CUT
10
-8.5789
20
-53.9354
0
VERTEX
8
CUT
10
-8.5625
20
-53.8653
0
VERTEX
8
CUT
10
-8.5416
20
-53.7964
0
VERTEX
8
CUT
10
-8.5163
20
-53.7290
0
VERTEX
8
CUT
10
-8.4866
20
-53.6635
0
VERTEX
8
CUT
10
-8.4526
20
-53.6000
0
VERTEX
8
CUT
10
-8.4146
20
-53.5389
0
VERTEX
8
CUT
10
-8.3727
20
-53.4804
0
VERTEX
8
CUT
10
-8.3270
20
-53.4247
0
VERTEX
8
CUT
10
-8.2778
20
-53.3722
0
VERTEX
8
CUT
10
-8.2253
20
-53.3230
0
VERTEX
8
CUT
10
-8.1696
20
-53.2773
0
VERTEX
8
CUT
10
-8.1111
20
-53.2354
0
VERTEX
8
CUT
10
-8.0500
20
-53.1974
0
VERTEX
8
CUT
10
-7.9865
20
-53.1634
0
VERTEX
8
CUT
10
-7.9210
20
-53.1337
0
VERTEX
8
CUT
10
-7.8536
20
-53.1084
0
VERTEX
8
CUT
10
-7.7847
20
-53.0875
0
VERTEX
8
CUT
10
-7.7146
20
-53.0711
0
VERTEX
8
CUT
10
-7.6436
20
-53.0594
0
VERTEX
8
CUT
10
-7.5719
20
-53.0524
0
VERTEX
8
CUT
10
-7.5000
20
-53.0500
0
VERTEX
8
CUT
10
-7.4281
20
-53.0524
0
VERTEX
8
CUT
10
-7.3564
20
-53.0594
0
VERTEX
8
CUT
10
-7.2854
20
-53.0711
0
VERTEX
8
CUT
10
-7.2153
20
-53.0875
0
VERTEX
8
CUT
10
-7.1464
20
-53.1084
0
VERTEX
8
CUT
10
-7.0790
20
-53.1337
0
VERTEX
8
CUT
10
-7.0135
20
-53.1634
0
VERTEX
8
CUT
10
-6.9500
20
-53.1974
0
VERTEX
8
CUT
10
-6.8889
20
-53.2354
0
VERTEX
8
CUT
10
-6.8304
20
-53.2773
0
VERTEX
8
CUT
10
-6.7747
20
-53.3230
0
VERTEX
8
CUT
10
-6.7222
20
-53.3722
0
VERTEX
8
CUT
10
-6.6730
20
-53.4247
0
VERTEX
8
CUT
10
-6.6273
20
-53.4804
0
VERTEX
8
CUT
10
-6.5854
20
-53.5389
0
VERTEX
8
CUT
10
-6.5474
20
-53.6000
0
VERTEX
8
CUT
10
-6.5134
20
-53.6635
0
VERTEX
8
CUT
10
-6.4837
20
-53.7290
0
VERTEX
8
CUT
10
-6.4584
20
-53.7964
0
VERTEX
8
CUT
10
-6.4375
20
-53.8653
0
VERTEX
8
CUT
10
-6.4211
20
-53.9354
0
VERTEX
8
CUT
10
-6.4094
20
-54.0064
0
VERTEX
8
CUT
10
-6.4024
20
-54.0781
0
VERTEX
8
CUT
10
-6.4000
20
-54.1500
0
VERTEX
8
CUT
10
-6.4024
20
-54.2219
0
VERTEX
8
CUT
10
-6.4094
20
-54.2936
0
VERTEX
8
CUT
10
-6.4211
20
-54.3646
0
VERTEX
8
CUT
10
-6.4375
20
-54.4347
0
VERTEX
8
CUT
10
-6.4584
20
-54.5036
0
VERTEX
8
CUT
10
-6.4837
20
-54.5710
0
VERTEX
8
CUT
10
-6.5134
20
-54.6365
0
VERTEX
8
CUT
10
-6.5474
20
-54.7000
0
VERTEX
8
CUT
10
-6.5854
20
-54.7611
0
VERTEX
8
CUT
10
-6.6273
20
-54.8196
0
VERTEX
8
CUT
10
-6.6730
20
-54.8753
0
VERTEX
8
CUT
10
-6.7222
20
-54.9278
0
VERTEX
8
CUT
10
-6.7747
20
-54.9770
0
VERTEX
8
CUT
10
-6.8304
20
-55.0227
0
VERTEX
8
CUT
10
-6.8889
20
-55.0646
0
VERTEX
8
CUT
10
-6.9500
20
-55.1026
0
VERTEX
8
CUT
10
-7.0135
20
-55.1366
0
VERTEX
8
CUT
10
-7.0790
20
-55.1663
0
VERTEX
8
CUT
10
-7.1464
20
-55.1916
0
VERTEX
8
CUT
10
-7.2153
20
-55.2125
0
VERTEX
8
CUT
10
-7.2854
20
-55.2289
0
VERTEX
8
CUT
10
-7.3564
20
-55.2406
0
VERTEX
8
CUT
10
-7.4281
20
-55.2476
0
VERTEX
8
CUT
10
-7.5000
20
-55.2500
0
SEQEND
0
POLYLINE
8
CUT
66
1
70
1
0
VERTEX
8
CUT
10
201.0031
20
-55.2476
0
VERTEX
8
CUT
10
200.9314
20
-55.2406
0
VERTEX
8
CUT
10
200.8604
20
-55.2289
0
VERTEX
8
CUT
10
200.7903
20
-55.2125
0
VERTEX
8
CUT
10
200.7214
20
-55.1916
0
VERTEX
8
CUT
10
200.6540
20
-55.1663
0
VERTEX
8
CUT
10
200.5885
20
-55.1366
0
VERTEX
8
CUT
10
200.5250
20
-55.1026
0
VERTEX
8
CUT
10
200.4639
20
-55.0646
0
VERTEX
8
CUT
10
200.4054
20
-55.0227
0
VERTEX
8
CUT
10
200.3497
20
-54.9770
0
VERTEX
8
CUT
10
200.2972
20
-54.9278
0
VERTEX
8
CUT
10
200.2480
20
-54.8753
0
VERTEX
8
CUT
10
200.2023
20
-54.8196
0
VERTEX
8
CUT
10
200.1604
20
-54.7611
0
VERTEX
8
CUT
10
200.1224
20
-54.7000
0
VERTEX
8
CUT
10
200.0884
20
-54.6365
0
VERTEX
8
CUT
10
200.0587
20
-54.5710
0
VERTEX
8
CUT
10
200.0334
20
-54.5036
0
VERTEX
8
CUT
10
200.0125
20
-54.4347
0
VERTEX
8
CUT
10
199.9961
20
-54.3646
0
VERTEX
8
CUT
10
199.9844
20
-54.2936
0
VERTEX
8
CUT
10
199.9774
20
-54.2219
0
VERTEX
8
CUT
10
199.9750
20
-54.1500
0
VERTEX
8
CUT
10
199.9774
20
-54.0781
0
VERTEX
8
CUT
10
199.9844
20
-54.0064
0
VERTEX
8
CUT
10
199.9961
20
-53.9354
0
VERTEX
8
CUT
10
200.0125
20
-53.8653
0
VERTEX
8
CUT
10
200.0334
20
-53.7964
0
VERTEX
8
CUT
10
200.0587
20
-53.7290
0
VERTEX
8
CUT
10
200.0884
20
-53.6635
0
VERTEX
8
CUT
10
200.1224
20
-53.6000
0
VERTEX
8
CUT
10
200.1604
20
-53.5389
0
VERTEX
8
CUT
10
200.2023
20
-53.4804
0
VERTEX
8
CUT
10
200.2480
20
-53.4247
0
VERTEX
8
CUT
10
200.2972
20
-53.3722
0
VERTEX
8
CUT
10
200.3497
20
-53.3230
0
VERTEX
8
CUT
10
200.4054
20
-53.2773
0
VERTEX
8
CUT
10
200.4639
20
-53.2354
0
VERTEX
8
CUT
10
200.5250
20
-53.1974
0
VERTEX
8
CUT
10
200.5885
20
-53.1634
0
VERTEX
8
CUT
10
200.6540
20
-53.1337
0
VERTEX
8
CUT
10
200.7214
20
-53.1084
0
VERTEX
8
CUT
10
200.7903
20
-53.0875
0
VERTEX
8
CUT
10
200.8604
20
-53.0711
0
VERTEX
8
CUT
10
200.9314
20
-53.0594
0
VERTEX
8
CUT
10
201.0031
20
-53.0524
0
VERTEX
8
CUT
10
201.0750
20
-53.0500
0
VERTEX
8
CUT
10
201.1469
20
-53.0524
0
VERTEX
8
CUT
10
201.2186
20
-53.0594
0
VERTEX
8
CUT
10
201.2896
20
-53.0711
0
VERTEX
8
CUT
10
201.3597
20
-53.0875
0
VERTEX
8
CUT
10
201.4286
20
-53.1084
0
VERTEX
8
CUT
10
201.4960
20
-53.1337
0
VERTEX
8
CUT
10
201.5615
20
-53.1634
0
VERTEX
8
CUT
10
201.6250
20
-53.1974
0
VERTEX
8
CUT
10
201.6861
20
-53.2354
0
VERTEX
8
CUT
10
201.7446
20
-53.2773
0
VERTEX
8
CUT
10
201.8003
20
-53.3230
0
VERTEX
8
CUT
10
201.8528
20
-53.3722
0
VERTEX
8
CUT
10
201.9020
20
-53.4247
0
VERTEX
8
CUT
10
201.9477
20
-53.4804
0
VERTEX
8
CUT
10
201.9896
20
-53.5389
0
VERTEX
8
CUT
10
202.0276
20
-53.6000
0
VERTEX
8
CUT
10
202.0616
20
-53.6635
0
VERTEX
8
CUT
10
202.0913
20
-53.7290
0
VERTEX
8
CUT
10
202.1166
20
-53.7964
0
VERTEX
8
CUT
10
202.1375
20
-53.8653
0
VERTEX
8
CUT
10
202.1539
20
-53.9354
0
VERTEX
8
CUT
10
202.1656
20
-54.0064
0
VERTEX
8
CUT
10
202.1726
20
-54.0781
0
VERTEX
8
CUT
10
202.1750
20
-54.1500
0
VERTEX
8
CUT
10
202.1726
20
-54.2219
0
VERTEX
8
CUT
10
202.1656
20
-54.2936
0
VERTEX
8
CUT
10
202.1539
20
-54.3646
0
VERTEX
8
CUT
10
202.1375
20
-54.4347
0
VERTEX
8
CUT
10
202.1166
20
-54.5036
0
VERTEX
8
CUT
10
202.0913
20
-54.5710
0
VERTEX
8
CUT
10
202.0616
20
-54.6365
0
VERTEX
8
CUT
10
202.0276
20
-54.7000
0
VERTEX
8
CUT
10
201.9896
20
-54.7611
0
VERTEX
8
CUT
10
201.9477
20
-54.8196
0
VERTEX
8
CUT
10
201.9020
20
-54.8753
0
VERTEX
8
CUT
10
201.8528
20
-54.9278
0
VERTEX
8
CUT
10
201.8003
20
-54.9770
0
VERTEX
8
CUT
10
201.7446
20
-55.0227
0
VERTEX
8
CUT
10
201.6861
20
-55.0646
0
VERTEX
8
CUT
10
201.6250
20
-55.1026
0
VERTEX
8
CUT
10
201.5615
20
-55.1366
0
VERTEX
8
CUT
10
201.4960
20
-55.1663
0
VERTEX
8
CUT
10
201.4286
20
-55.1916
0
VERTEX
8
CUT
10
201.3597
20
-55.2125
0
VERTEX
8
CUT
10
201.2896
20
-55.2289
0
VERTEX
8
CUT
10
201.2186
20
-55.2406
0
VERTEX
8
CUT
10
201.1469
20
-55.2476
0
VERTEX
8
CUT
10
201.0750
20
-55.2500
0
SEQEND
0
POLYLINE
8
CUT
66
1
70
1
0
VERTEX
8
CUT
10
9.1019
20
-61.4343
0
VERTEX
8
CUT
10
9.0042
20
-61.4247
0
VERTEX
8
CUT
10
8.9074
20
-61.4087
0
VERTEX
8
CUT
10
8.8118
20
-61.3864
0
VERTEX
8
CUT
10
8.7178
20
-61.3579
0
VERTEX
8
CUT
10
8.6260
20
-61.3233
0
VERTEX
8
CUT
10
8.5366
20
-61.2828
0
VERTEX
8
CUT
10
8.4500
20
-61.2365
0
VERTEX
8
CUT
10
8.3666
20
-61.1847
0
VERTEX
8
CUT
10
8.2869
20
-61.1275
0
VERTEX
8
CUT
10
8.2110
20
-61.0653
0
VERTEX
8
CUT
10
8.1393
20
-60.9982
0
VERTEX
8
CUT
10
8.0722
20
-60.9265
0
VERTEX
8
CUT
10
8.0100
20
-60.8506
0
VERTEX
8
CUT
10
7.9528
20
-60.7709
0
VERTEX
8
CUT
10
7.9010
20
-60.6875
0
VERTEX
8
CUT
10
7.8547
20
-60.6009
0
VERTEX
8
CUT
10
7.8142
20
-60.5115
0
VERTEX
8
CUT
10
7.7796
20
-60.4197
0
VERTEX
8
CUT
10
7.7511
20
-60.3257
0
VERTEX
8
CUT
10
7.7288
20
-60.2301
0
VERTEX
8
CUT
10
7.7128
20
-60.1333
0
VERTEX
8
CUT
10
7.7032
20
-60.0356
0
VERTEX
8
CUT
10
7.7000
20
-59.9375
0
VERTEX
8
CUT
10
7.7032
20
-59.8394
0
VERTEX
8
CUT
10
7.7128
20
-59.7417
0
VERTEX
8
CUT
10
7.7288
20
-59.6449
0
VERTEX
8
CUT
10
7.7511
20
-59.5493
0
VERTEX
8
CUT
10
7.7796
20
-59.4553
0
VERTEX
8
CUT
10
7.8142
20
-59.3635
0
VERTEX
8
CUT
10
7.8547
20
-59.2741
0
VERTEX
8
CUT
10
7.9010
20
-59.1875
0
VERTEX
8
CUT
10
7.9528
20
-59.1041
0
VERTEX
8
CUT
10
8.0100
20
-59.0244
0
VERTEX
8
CUT
10
8.0722
20
-58.9485
0
VERTEX
8
CUT
10
8.1393
20
-58.8768
0
VERTEX
8
CUT
10
8.2110
20
-58.8097
0
VERTEX
8
CUT
10
8.2869
20
-58.7475
0
VERTEX
8
CUT
10
8.3666
20
-58.6903
0
VERTEX
8
CUT
10
8.4500
20
-58.6385
0
VERTEX
8
CUT
10
8.5366
20
-58.5922
0
VERTEX
8
CUT
10
8.6260
20
-58.5517
0
VERTEX
8
CUT
10
8.7178
20
-58.5171
0
VERTEX
8
CUT
10
8.8118
20
-58.4886
0
VERTEX
8
CUT
10
8.9074
20
-58.4663
0
VERTEX
8
CUT
10
9.0042
20
-58.4503
0
VERTEX
8
CUT
10
9.1019
20
-58.4407
0
VERTEX
8
CUT
10
9.2000
20
-58.4375
0
VERTEX
8
CUT
10
9.2981
20
-58.4407
0
VERTEX
8
CUT
10
9.3958
20
-58.4503
0
VERTEX
8
CUT
10
9.4926
20
-58.4663
0
VERTEX
8
CUT
10
9.5882
20
-58.4886
0
VERTEX
8
CUT
10
9.6822
20
-58.5171
0
VERTEX
8
CUT
10
9.7740
20
-58.5517
0
VERTEX
8
CUT
10
9.8634
20
-58.5922
0
VERTEX
8
CUT
10
9.9500
20
-58.6385
0
VERTEX
8
CUT
10
10.0334
20
-58.6903
0
VERTEX
8
CUT
10
10.1131
20
-58.7475
0
VERTEX
8
CUT
10
10.1890
20
-58.8097
0
VERTEX
8
CUT
10
10.2607
20
-58.8768
0
VERTEX
8
CUT
10
10.3278
20
-58.9485
0
VERTEX
8
CUT
10
10.3900
20
-59.0244
0
VERTEX
8
CUT
10
10.4472
20
-59.1041
0
VERTEX
8
CUT
10
10.4990
20
-59.1875
0
VERTEX
8
CUT
10
10.5453
20
-59.2741
0
VERTEX
8
CUT
10
10.5858
20
-59.3635
0
VERTEX
8
CUT
10
10.6204
20
-59.4553
0
VERTEX
8
CUT
10
10.6489
20
-59.5493
0
VERTEX
8
CUT
10
10.6712
20
-59.6449
0
VERTEX
8
CUT
10
10.6872
20
-59.7417
0
VERTEX
8
CUT
10
10.6968
20
-59.8394
0
VERTEX
8
CUT
10
10.7000
20
-59.9375
0
VERTEX
8
CUT
10
10.6968
20
-60.0356
0
VERTEX
8
CUT
10
10.6872
20
-60.1333
0
VERTEX
8
CUT
10
10.6712
20
-60.2301
0
VERTEX
8
CUT
10
10.6489
20
-60.3257
0
VERTEX
8
CUT
10
10.6204
20
-60.4197
0
VERTEX
8
CUT
10
10.5858
20
-60.5115
0
VERTEX
8
CUT
10
10.5453
20
-60.6009
0
VERTEX
8
CUT
10
10.4990
20
-60.6875
0
VERTEX
8
CUT
10
10.4472
20
-60.7709
0
VERTEX
8
CUT
10
10.3900
20
-60.8506
0
VERTEX
8
CUT
10
10.3278
20
-60.9265
0
VERTEX
8
CUT
10
10.2607
20
-60.9982
0
VERTEX
8
CUT
10
10.1890
20
-61.0653
0
VERTEX
8
CUT
10
10.1131
20
-61.1275
0
VERTEX
8
CUT
10
10.0334
20
-61.1847
0
VERTEX
8
CUT
10
9.9500
20
-61.2365
0
VERTEX
8
CUT
10
9.8634
20
-61.2828
0
VERTEX
8
CUT
10
9.7740
20
-61.3233
0
VERTEX
8
CUT
10
9.6822
20
-61.3579
0
VERTEX
8
CUT
10
9.5882
20
-61.3864
0
VERTEX
8
CUT
10
9.4926
20
-61.4087
0
VERTEX
8
CUT
10
9.3958
20
-61.4247
0
VERTEX
8
CUT
10
9.2981
20
-61.4343
0
VERTEX
8
CUT
10
9.2000
20
-61.4375
0
SEQEND
0
POLYLINE
8
CUT
66
1
70
1
0
VERTEX
8
CUT
10
19.4281
20
-96.3476
0
VERTEX
8
CUT
10
19.3564
20
-96.3406
0
VERTEX
8
CUT
10
19.2854
20
-96.3289
0
VERTEX
8
CUT
10
19.2153
20
-96.3125
0
VERTEX
8
CUT
10
19.1464
20
-96.2916
0
VERTEX
8
CUT
10
19.0790
20
-96.2663
0
VERTEX
8
CUT
10
19.0135
20
-96.2366
0
VERTEX
8
CUT
10
18.9500
20
-96.2026
0
VERTEX
8
CUT
10
18.8889
20
-96.1646
0
VERTEX
8
CUT
10
18.8304
20
-96.1227
0
VERTEX
8
CUT
10
18.7747
20
-96.0770
0
VERTEX
8
CUT
10
18.7222
20
-96.0278
0
VERTEX
8
CUT
10
18.6730
20
-95.9753
0
VERTEX
8
CUT
10
18.6273
20
-95.9196
0
VERTEX
8
CUT
10
18.5854
20
-95.8611
0
VERTEX
8
CUT
10
18.5474
20
-95.8000
0
VERTEX
8
CUT
10
18.5134
20
-95.7365
0
VERTEX
8
CUT
10
18.4837
20
-95.6710
0
VERTEX
8
CUT
10
18.4584
20
-95.6036
0
VERTEX
8
CUT
10
18.4375
20
-95.5347
0
VERTEX
8
CUT
10
18.4211
20
-95.4646
0
VERTEX
8
CUT
10
18.4094
20
-95.3936
0
VERTEX
8
CUT
10
18.4024
20
-95.3219
0
VERTEX
8
CUT
10
18.4000
20
-95.2500
0
VERTEX
8
CUT
10
18.4024
20
-95.1781
0
VERTEX
8
CUT
10
18.4094
20
-95.1064
0
VERTEX
8
CUT
10
18.4211
20
-95.0354
0
VERTEX
8
CUT
10
18.4375
20
-94.9653
0
VERTEX
8
CUT
10
18.4584
20
-94.8964
0
VERTEX
8
CUT
10
18.4837
20
-94.8290
0
VERTEX
8
CUT
10
18.5134
20
-94.7635
0
VERTEX
8
CUT
10
18.5474
20
-94.7000
0
VERTEX
8
CUT
10
18.5854
20
-94.6389
0
VERTEX
8
CUT
10
18.6273
20
-94.5804
0
VERTEX
8
CUT
10
18.6730
20
-94.5247
0
VERTEX
8
CUT
10
18.7222
20
-94.4722
0
VERTEX
8
CUT
10
18.7747
20
-94.4230
0
VERTEX
8
CUT
10
18.8304
20
-94.3773
0
VERTEX
8
CUT
10
18.8889
20
-94.3354
0
VERTEX
8
CUT
10
18.9500
20
-94.2974
0
VERTEX
8
CUT
10
19.0135
20
-94.2634
0
VERTEX
8
CUT
10
19.0790
20
-94.2337
0
VERTEX
8
CUT
10
19.1464
20
-94.2084
0
VERTEX
8
CUT
10
19.2153
20
-94.1875
0
VERTEX
8
CUT
10
19.2854
20
-94.1711
0
VERTEX
8
CUT
10
19.3564
20
-94.1594
0
VERTEX
8
CUT
10
19.4281
20
-94.1524
0
VERTEX
8
CUT
10
19.5000
20
-94.1500
0
VERTEX
8
CUT
10
19.5719
20
-94.1524
0
VERTEX
8
CUT
10
19.6436
20
-94.1594
0
VERTEX
8
CUT
10
19.7146
20
-94.1711
0
VERTEX
8
CUT
10
19.7847
20
-94.1875
0
VERTEX
8
CUT
10
19.8536
20
-94.2084
0
VERTEX
8
CUT
10
19.9210
20
-94.2337
0
VERTEX
8
CUT
10
19.9865
20
-94.2634
0
VERTEX
8
CUT
10
20.0500
20
-94.2974
0
VERTEX
8
CUT
10
20.1111
20
-94.3354
0
VERTEX
8
CUT
10
20.1696
20
-94.3773
0
VERTEX
8
CUT
10
20.2253
20
-94.4230
0
VERTEX
8
CUT
10
20.2778
20
-94.4722
0
VERTEX
8
CUT
10
20.3270
20
-94.5247
0
VERTEX
8
CUT
10
20.3727
20
-94.5804
0
VERTEX
8
CUT
10
20.4146
20
-94.6389
0
VERTEX
8
CUT
10
20.4526
20
-94.7000
0
VERTEX
8
CUT
10
20.4866
20
-94.7635
0
VERTEX
8
CUT
10
20.5163
20
-94.8290
0
VERTEX
8
CUT
10
20.5416
20
-94.8964
0
VERTEX
8
CUT
10
20.5625
20
-94.9653
0
VERTEX
8
CUT
10
20.5789
20
-95.0354
0
VERTEX
8
CUT
10
20.5906
20
-95.1064
0
VERTEX
8
CUT
10
20.5976
20
-95.1781
0
VERTEX
8
CUT
10
20.6000
20
-95.2500
0
VERTEX
8
CUT
10
20.5976
20
-95.3219
0
VERTEX
8
CUT
10
20.5906
20
-95.3936
0
VERTEX
8
CUT
10
20.5789
20
-95.4646
0
VERTEX
8
CUT
10
20.5625
20
-95.5347
0
VERTEX
8
CUT
10
20.5416
20
-95.6036
0
VERTEX
8
CUT
10
20.5163
20
-95.6710
0
VERTEX
8
CUT
10
20.4866
20
-95.7365
0
VERTEX
8
CUT
10
20.4526
20
-95.8000
0
VERTEX
8
CUT
10
20.4146
20
-95.8611
0
VERTEX
8
CUT
10
20.3727
20
-95.9196
0
VERTEX
8
CUT
10
20.3270
20
-95.9753
0
VERTEX
8
CUT
10
20.2778
20
-96.0278
0
VERTEX
8
CUT
10
20.2253
20
-96.0770
0
VERTEX
8
CUT
10
20.1696
20
-96.1227
0
VERTEX
8
CUT
10
20.1111
20
-96.1646
0
VERTEX
8
CUT
10
20.0500
20
-96.2026
0
VERTEX
8
CUT
10
19.9865
20
-96.2366
0
VERTEX
8
CUT
10
19.9210
20
-96.2663
0
VERTEX
8
CUT
10
19.8536
20
-96.2916
0
VERTEX
8
CUT
10
19.7847
20
-96.3125
0
VERTEX
8
CUT
10
19.7146
20
-96.3289
0
VERTEX
8
CUT
10
19.6436
20
-96.3406
0
VERTEX
8
CUT
10
19.5719
20
-96.3476
0
VERTEX
8
CUT
10
19.5000
20
-96.3500
0
SEQEND
0
POLYLINE
8
CUT
66
1
70
1
0
VERTEX
8
CUT
10
72.4281
20
-96.3476
0
VERTEX
8
CUT
10
72.3564
20
-96.3406
0
VERTEX
8
CUT
10
72.2854
20
-96.3289
0
VERTEX
8
CUT
10
72.2153
20
-96.3125
0
VERTEX
8
CUT
10
72.1464
20
-96.2916
0
VERTEX
8
CUT
10
72.0790
20
-96.2663
0
VERTEX
8
CUT
10
72.0135
20
-96.2366
0
VERTEX
8
CUT
10
71.9500
20
-96.2026
0
VERTEX
8
CUT
10
71.8889
20
-96.1646
0
VERTEX
8
CUT
10
71.8304
20
-96.1227
0
VERTEX
8
CUT
10
71.7747
20
-96.0770
0
VERTEX
8
CUT
10
71.7222
20
-96.0278
0
VERTEX
8
CUT
10
71.6730
20
-95.9753
0
VERTEX
8
CUT
10
71.6273
20
-95.9196
0
VERTEX
8
CUT
10
71.5854
20
-95.8611
0
VERTEX
8
CUT
10
71.5474
20
-95.8000
0
VERTEX
8
CUT
10
71.5134
20
-95.7365
0
VERTEX
8
CUT
10
71.4837
20
-95.6710
0
VERTEX
8
CUT
10
71.4584
20
-95.6036
0
VERTEX
8
CUT
10
71.4375
20
-95.5347
0
VERTEX
8
CUT
10
71.4211
20
-95.4646
0
VERTEX
8
CUT
10
71.4094
20
-95.3936
0
VERTEX
8
CUT
10
71.4024
20
-95.3219
0
VERTEX
8
CUT
10
71.4000
20
-95.2500
0
VERTEX
8
CUT
10
71.4024
20
-95.1781
0
VERTEX
8
CUT
10
71.4094
20
-95.1064
0
VERTEX
8
CUT
10
71.4211
20
-95.0354
0
VERTEX
8
CUT
10
71.4375
20
-94.9653
0
VERTEX
8
CUT
10
71.4584
20
-94.8964
0
VERTEX
8
CUT
10
71.4837
20
-94.8290
0
VERTEX
8
CUT
10
71.5134
20
-94.7635
0
VERTEX
8
CUT
10
71.5474
20
-94.7000
0
VERTEX
8
CUT
10
71.5854
20
-94.6389
0
VERTEX
8
CUT
10
71.6273
20
-94.5804
0
VERTEX
8
CUT
10
71.6730
20
-94.5247
0
VERTEX
8
CUT
10
71.7222
20
-94.4722
0
VERTEX
8
CUT
10
71.7747
20
-94.4230
0
VERTEX
8
CUT
10
71.8304
20
-94.3773
0
VERTEX
8
CUT
10
71.8889
20
-94.3354
0
VERTEX
8
CUT
10
71.9500
20
-94.2974
0
VERTEX
8
CUT
10
72.0135
20
-94.2634
0
VERTEX
8
CUT
10
72.0790
20
-94.2337
0
VERTEX
8
CUT
10
72.1464
20
-94.2084
0
VERTEX
8
CUT
10
72.2153
20
-94.1875
0
VERTEX
8
CUT
10
72.2854
20
-94.1711
0
VERTEX
8
CUT
10
72.3564
20
-94.1594
0
VERTEX
8
CUT
10
72.4281
20
-94.1524
0
VERTEX
8
CUT
10
72.5000
20
-94.1500
0
VERTEX
8
CUT
10
72.5719
20
-94.1524
0
VERTEX
8
CUT
10
72.6436
20
-94.1594
0
VERTEX
8
CUT
10
72.7146
20
-94.1711
0
VERTEX
8
CUT
10
72.7847
20
-94.1875
0
VERTEX
8
CUT
10
72.8536
20
-94.2084
0
VERTEX
8
CUT
10
72.9210
20
-94.2337
0
VERTEX
8
CUT
10
72.9865
20
-94.2634
0
VERTEX
8
CUT
10
73.0500
20
-94.2974
0
VERTEX
8
CUT
10
73.1111
20
-94.3354
0
VERTEX
8
CUT
10
73.1696
20
-94.3773
0
VERTEX
8
CUT
10
73.2253
20
-94.4230
0
VERTEX
8
CUT
10
73.2778
20
-94.4722
0
VERTEX
8
CUT
10
73.3270
20
-94.5247
0
VERTEX
8
CUT
10
73.3727
20
-94.5804
0
VERTEX
8
CUT
10
73.4146
20
-94.6389
0
VERTEX
8
CUT
10
73.4526
20
-94.7000
0
VERTEX
8
CUT
10
73.4866
20
-94.7635
0
VERTEX
8
CUT
10
73.5163
20
-94.8290
0
VERTEX
8
CUT
10
73.5416
20
-94.8964
0
VERTEX
8
CUT
10
73.5625
20
-94.9653
0
VERTEX
8
CUT
10
73.5789
20
-95.0354
0
VERTEX
8
CUT
10
73.5906
20
-95.1064
0
VERTEX
8
CUT
10
73.5976
20
-95.1781
0
VERTEX
8
CUT
10
73.6000
20
-95.2500
0
VERTEX
8
CUT
10
73.5976
20
-95.3219
0
VERTEX
8
CUT
10
73.5906
20
-95.3936
0
VERTEX
8
CUT
10
73.5789
20
-95.4646
0
VERTEX
8
CUT
10
73.5625
20
-95.5347
0
VERTEX
8
CUT
10
73.5416
20
-95.6036
0
VERTEX
8
CUT
10
73.5163
20
-95.6710
0
VERTEX
8
CUT
10
73.4866
20
-95.7365
0
VERTEX
8
CUT
10
73.4526
20
-95.8000
0
VERTEX
8
CUT
10
73.4146
20
-95.8611
0
VERTEX
8
CUT
10
73.3727
20
-95.9196
0
VERTEX
8
CUT
10
73.3270
20
-95.9753
0
VERTEX
8
CUT
10
73.2778
20
-96.0278
0
VERTEX
8
CUT
10
73.2253
20
-96.0770
0
VERTEX
8
CUT
10
73.1696
20
-96.1227
0
VERTEX
8
CUT
10
73.1111
20
-96.1646
0
VERTEX
8
CUT
10
73.0500
20
-96.2026
0
VERTEX
8
CUT
10
72.9865
20
-96.2366
0
VERTEX
8
CUT
10
72.9210
20
-96.2663
0
VERTEX
8
CUT
10
72.8536
20
-96.2916
0
VERTEX
8
CUT
10
72.7847
20
-96.3125
0
VERTEX
8
CUT
10
72.7146
20
-96.3289
0
VERTEX
8
CUT
10
72.6436
20
-96.3406
0
VERTEX
8
CUT
10
72.5719
20
-96.3476
0
VERTEX
8
CUT
10
72.5000
20
-96.3500
0
SEQEND
0
POLYLINE
8
CUT
66
1
70
1
0
VERTEX
8
CUT
10
121.4281
20
-96.3476
0
VERTEX
8
CUT
10
121.3564
20
-96.3406
0
VERTEX
8
CUT
10
121.2854
20
-96.3289
0
VERTEX
8
CUT
10
121.2153
20
-96.3125
0
VERTEX
8
CUT
10
121.1464
20
-96.2916
0
VERTEX
8
CUT
10
121.0790
20
-96.2663
0
VERTEX
8
CUT
10
121.0135
20
-96.2366
0
VERTEX
8
CUT
10
120.9500
20
-96.2026
0
VERTEX
8
CUT
10
120.8889
20
-96.1646
0
VERTEX
8
CUT
10
120.8304
20
-96.1227
0
VERTEX
8
CUT
10
120.7747
20
-96.0770
0
VERTEX
8
CUT
10
120.7222
20
-96.0278
0
VERTEX
8
CUT
10
120.6730
20
-95.9753
0
VERTEX
8
CUT
10
120.6273
20
-95.9196
0
VERTEX
8
CUT
10
120.5854
20
-95.8611
0
VERTEX
8
CUT
10
120.5474
20
-95.8000
0
VERTEX
8
CUT
10
120.5134
20
-95.7365
0
VERTEX
8
CUT
10
120.4837
20
-95.6710
0
VERTEX
8
CUT
10
120.4584
20
-95.6036
0
VERTEX
8
CUT
10
120.4375
20
-95.5347
0
VERTEX
8
CUT
10
120.4211
20
-95.4646
0
VERTEX
8
CUT
10
120.4094
20
-95.3936
0
VERTEX
8
CUT
10
120.4024
20
-95.3219
0
VERTEX
8
CUT
10
120.4000
20
-95.2500
0
VERTEX
8
CUT
10
120.4024
20
-95.1781
0
VERTEX
8
CUT
10
120.4094
20
-95.1064
0
VERTEX
8
CUT
10
120.4211
20
-95.0354
0
VERTEX
8
CUT
10
120.4375
20
-94.9653
0
VERTEX
8
CUT
10
120.4584
20
-94.8964
0
VERTEX
8
CUT
10
120.4837
20
-94.8290
0
VERTEX
8
CUT
10
120.5134
20
-94.7635
0
VERTEX
8
CUT
10
120.5474
20
-94.7000
0
VERTEX
8
CUT
10
120.5854
20
-94.6389
0
VERTEX
8
CUT
10
120.6273
20
-94.5804
0
VERTEX
8
CUT
10
120.6730
20
-94.5247
0
VERTEX
8
CUT
10
120.7222
20
-94.4722
0
VERTEX
8
CUT
10
120.7747
20
-94.4230
0
VERTEX
8
CUT
10
120.8304
20
-94.3773
0
VERTEX
8
CUT
10
120.8889
20
-94.3354
0
VERTEX
8
CUT
10
120.9500
20
-94.2974
0
VERTEX
8
CUT
10
121.0135
20
-94.2634
0
VERTEX
8
CUT
10
121.0790
20
-94.2337
0
VERTEX
8
CUT
10
121.1464
20
-94.2084
0
VERTEX
8
CUT
10
121.2153
20
-94.1875
0
VERTEX
8
CUT
10
121.2854
20
-94.1711
0
VERTEX
8
CUT
10
121.3564
20
-94.1594
0
VERTEX
8
CUT
10
121.4281
20
-94.1524
0
VERTEX
8
CUT
10
121.5000
20
-94.1500
0
VERTEX
8
CUT
10
121.5719
20
-94.1524
0
VERTEX
8
CUT
10
121.6436
20
-94.1594
0
VERTEX
8
CUT
10
121.7146
20
-94.1711
0
VERTEX
8
CUT
10
121.7847
20
-94.1875
0
VERTEX
8
CUT
10
121.8536
20
-94.2084
0
VERTEX
8
CUT
10
121.9210
20
-94.2337
0
VERTEX
8
CUT
10
121.9865
20
-94.2634
0
VERTEX
8
CUT
10
122.0500
20
-94.2974
0
VERTEX
8
CUT
10
122.1111
20
-94.3354
0
VERTEX
8
CUT
10
122.1696
20
-94.3773
0
VERTEX
8
CUT
10
122.2253
20
-94.4230
0
VERTEX
8
CUT
10
122.2778
20
-94.4722
0
VERTEX
8
CUT
10
122.3270
20
-94.5247
0
VERTEX
8
CUT
10
122.3727
20
-94.5804
0
VERTEX
8
CUT
10
122.4146
20
-94.6389
0
VERTEX
8
CUT
10
122.4526
20
-94.7000
0
VERTEX
8
CUT
10
122.4866
20
-94.7635
0
VERTEX
8
CUT
10
122.5163
20
-94.8290
0
VERTEX
8
CUT
10
122.5416
20
-94.8964
0
VERTEX
8
CUT
10
122.5625
20
-94.9653
0
VERTEX
8
CUT
10
122.5789
20
-95.0354
0
VERTEX
8
CUT
10
122.5906
20
-95.1064
0
VERTEX
8
CUT
10
122.5976
20
-95.1781
0
VERTEX
8
CUT
10
122.6000
20
-95.2500
0
VERTEX
8
CUT
10
122.5976
20
-95.3219
0
VERTEX
8
CUT
10
122.5906
20
-95.3936
0
VERTEX
8
CUT
10
122.5789
20
-95.4646
0
VERTEX
8
CUT
10
122.5625
20
-95.5347
0
VERTEX
8
CUT
10
122.5416
20
-95.6036
0
VERTEX
8
CUT
10
122.5163
20
-95.6710
0
VERTEX
8
CUT
10
122.4866
20
-95.7365
0
VERTEX
8
CUT
10
122.4526
20
-95.8000
0
VERTEX
8
CUT
10
122.4146
20
-95.8611
0
VERTEX
8
CUT
10
122.3727
20
-95.9196
0
VERTEX
8
CUT
10
122.3270
20
-95.9753
0
VERTEX
8
CUT
10
122.2778
20
-96.0278
0
VERTEX
8
CUT
10
122.2253
20
-96.0770
0
VERTEX
8
CUT
10
122.1696
20
-96.1227
0
VERTEX
8
CUT
10
122.1111
20
-96.1646
0
VERTEX
8
CUT
10
122.0500
20
-96.2026
0
VERTEX
8
CUT
10
121.9865
20
-96.2366
0
VERTEX
8
CUT
10
121.9210
20
-96.2663
0
VERTEX
8
CUT
10
121.8536
20
-96.2916
0
VERTEX
8
CUT
10
121.7847
20
-96.3125
0
VERTEX
8
CUT
10
121.7146
20
-96.3289
0
VERTEX
8
CUT
10
121.6436
20
-96.3406
0
VERTEX
8
CUT
10
121.5719
20
-96.3476
0
VERTEX
8
CUT
10
121.5000
20
-96.3500
0
SEQEND
0
POLYLINE
8
CUT
66
1
70
1
0
VERTEX
8
CUT
10
179.4281
20
-96.3476
0
VERTEX
8
CUT
10
179.3564
20
-96.3406
0
VERTEX
8
CUT
10
179.2854
20
-96.3289
0
VERTEX
8
CUT
10
179.2153
20
-96.3125
0
VERTEX
8
CUT
10
179.1464
20
-96.2916
0
VERTEX
8
CUT
10
179.0790
20
-96.2663
0
VERTEX
8
CUT
10
179.0135
20
-96.2366
0
VERTEX
8
CUT
10
178.9500
20
-96.2026
0
VERTEX
8
CUT
10
178.8889
20
-96.1646
0
VERTEX
8
CUT
10
178.8304
20
-96.1227
0
VERTEX
8
CUT
10
178.7747
20
-96.0770
0
VERTEX
8
CUT
10
178.7222
20
-96.0278
0
VERTEX
8
CUT
10
178.6730
20
-95.9753
0
VERTEX
8
CUT
10
178.6273
20
-95.9196
0
VERTEX
8
CUT
10
178.5854
20
-95.8611
0
VERTEX
8
CUT
10
178.5474
20
-95.8000
0
VERTEX
8
CUT
10
178.5134
20
-95.7365
0
VERTEX
8
CUT
10
178.4837
20
-95.6710
0
VERTEX
8
CUT
10
178.4584
20
-95.6036
0
VERTEX
8
CUT
10
178.4375
20
-95.5347
0
VERTEX
8
CUT
10
178.4211
20
-95.4646
0
VERTEX
8
CUT
10
178.4094
20
-95.3936
0
VERTEX
8
CUT
10
178.4024
20
-95.3219
0
VERTEX
8
CUT
10
178.4000
20
-95.2500
0
VERTEX
8
CUT
10
178.4024
20
-95.1781
0
VERTEX
8
CUT
10
178.4094
20
-95.1064
0
VERTEX
8
CUT
10
178.4211
20
-95.0354
0
VERTEX
8
CUT
10
178.4375
20
-94.9653
0
VERTEX
8
CUT
10
178.4584
20
-94.8964
0
VERTEX
8
CUT
10
178.4837
20
-94.8290
0
VERTEX
8
CUT
10
178.5134
20
-94.7635
0
VERTEX
8
CUT
10
178.5474
20
-94.7000
0
VERTEX
8
CUT
10
178.5854
20
-94.6389
0
VERTEX
8
CUT
10
178.6273
20
-94.5804
0
VERTEX
8
CUT
10
178.6730
20
-94.5247
0
VERTEX
8
CUT
10
178.7222
20
-94.4722
0
VERTEX
8
CUT
10
178.7747
20
-94.4230
0
VERTEX
8
CUT
10
178.8304
20
-94.3773
0
VERTEX
8
CUT
10
178.8889
20
-94.3354
0
VERTEX
8
CUT
10
178.9500
20
-94.2974
0
VERTEX
8
CUT
10
179.0135
20
-94.2634
0
VERTEX
8
CUT
10
179.0790
20
-94.2337
0
VERTEX
8
CUT
10
179.1464
20
-94.2084
0
VERTEX
8
CUT
10
179.2153
20
-94.1875
0
VERTEX
8
CUT
10
179.2854
20
-94.1711
0
VERTEX
8
CUT
10
179.3564
20
-94.1594
0
VERTEX
8
CUT
10
179.4281
20
-94.1524
0
VERTEX
8
CUT
10
179.5000
20
-94.1500
0
VERTEX
8
CUT
10
179.5719
20
-94.1524
0
VERTEX
8
CUT
10
179.6436
20
-94.1594
0
VERTEX
8
CUT
10
179.7146
20
-94.1711
0
VERTEX
8
CUT
10
179.7847
20
-94.1875
0
VERTEX
8
CUT
10
179.8536
20
-94.2084
0
VERTEX
8
CUT
10
179.9210
20
-94.2337
0
VERTEX
8
CUT
10
179.9865
20
-94.2634
0
VERTEX
8
CUT
10
180.0500
20
-94.2974
0
VERTEX
8
CUT
10
180.1111
20
-94.3354
0
VERTEX
8
CUT
10
180.1696
20
-94.3773
0
VERTEX
8
CUT
10
180.2253
20
-94.4230
0
VERTEX
8
CUT
10
180.2778
20
-94.4722
0
VERTEX
8
CUT
10
180.3270
20
-94.5247
0
VERTEX
8
CUT
10
180.3727
20
-94.5804
0
VERTEX
8
CUT
10
180.4146
20
-94.6389
0
VERTEX
8
CUT
10
180.4526
20
-94.7000
0
VERTEX
8
CUT
10
180.4866
20
-94.7635
0
VERTEX
8
CUT
10
180.5163
20
-94.8290
0
VERTEX
8
CUT
10
180.5416
20
-94.8964
0
VERTEX
8
CUT
10
180.5625
20
-94.9653
0
VERTEX
8
CUT
10
180.5789
20
-95.0354
0
VERTEX
8
CUT
10
180.5906
20
-95.1064
0
VERTEX
8
CUT
10
180.5976
20
-95.1781
0
VERTEX
8
CUT
10
180.6000
20
-95.2500
0
VERTEX
8
CUT
10
180.5976
20
-95.3219
0
VERTEX
8
CUT
10
180.5906
20
-95.3936
0
VERTEX
8
CUT
10
180.5789
20
-95.4646
0
VERTEX
8
CUT
10
180.5625
20
-95.5347
0
VERTEX
8
CUT
10
180.5416
20
-95.6036
0
VERTEX
8
CUT
10
180.5163
20
-95.6710
0
VERTEX
8
CUT
10
180.4866
20
-95.7365
0
VERTEX
8
CUT
10
180.4526
20
-95.8000
0
VERTEX
8
CUT
10
180.4146
20
-95.8611
0
VERTEX
8
CUT
10
180.3727
20
-95.9196
0
VERTEX
8
CUT
10
180.3270
20
-95.9753
0
VERTEX
8
CUT
10
180.2778
20
-96.0278
0
VERTEX
8
CUT
10
180.2253
20
-96.0770
0
VERTEX
8
CUT
10
180.1696
20
-96.1227
0
VERTEX
8
CUT
10
180.1111
20
-96.1646
0
VERTEX
8
CUT
10
180.0500
20
-96.2026
0
VERTEX
8
CUT
10
179.9865
20
-96.2366
0
VERTEX
8
CUT
10
179.9210
20
-96.2663
0
VERTEX
8
CUT
10
179.8536
20
-96.2916
0
VERTEX
8
CUT
10
179.7847
20
-96.3125
0
VERTEX
8
CUT
10
179.7146
20
-96.3289
0
VERTEX
8
CUT
10
179.6436
20
-96.3406
0
VERTEX
8
CUT
10
179.5719
20
-96.3476
0
VERTEX
8
CUT
10
179.5000
20
-96.3500
0
SEQEND
0
POLYLINE
8
CUT
66
1
70
1
0
VERTEX
8
CUT
10
-5.0824
20
-120.4081
0
VERTEX
8
CUT
10
-5.1540
20
-120.4010
0
VERTEX
8
CUT
10
-5.2250
20
-120.3893
0
VERTEX
8
CUT
10
-5.2951
20
-120.3729
0
VERTEX
8
CUT
10
-5.3640
20
-120.3520
0
VERTEX
8
CUT
10
-5.4314
20
-120.3267
0
VERTEX
8
CUT
10
-5.4969
20
-120.2970
0
VERTEX
8
CUT
10
-5.5604
20
-120.2630
0
VERTEX
8
CUT
10
-5.6215
20
-120.2250
0
VERTEX
8
CUT
10
-5.6800
20
-120.1831
0
VERTEX
8
CUT
10
-5.7357
20
-120.1374
0
VERTEX
8
CUT
10
-5.7882
20
-120.0882
0
VERTEX
8
CUT
10
-5.8374
20
-120.0357
0
VERTEX
8
CUT
10
-5.8831
20
-119.9800
0
VERTEX
8
CUT
10
-5.9250
20
-119.9215
0
VERTEX
8
CUT
10
-5.9630
20
-119.8604
0
VERTEX
8
CUT
10
-5.9970
20
-119.7969
0
VERTEX
8
CUT
10
-6.0267
20
-119.7314
0
VERTEX
8
CUT
10
-6.0520
20
-119.6640
0
VERTEX
8
CUT
10
-6.0729
20
-119.5951
0
VERTEX
8
CUT
10
-6.0893
20
-119.5250
0
VERTEX
8
CUT
10
-6.1010
20
-119.4540
0
VERTEX
8
CUT
10
-6.1081
20
-119.3824
0
VERTEX
8
CUT
10
-6.1104
20
-119.3104
0
VERTEX
8
CUT
10
-6.1081
20
-119.2385
0
VERTEX
8
CUT
10
-6.1010
20
-119.1668
0
VERTEX
8
CUT
10
-6.0893
20
-119.0958
0
VERTEX
8
CUT
10
-6.0729
20
-119.0257
0
VERTEX
8
CUT
10
-6.0520
20
-118.9568
0
VERTEX
8
CUT
10
-6.0267
20
-118.8895
0
VERTEX
8
CUT
10
-5.9970
20
-118.8239
0
VERTEX
8
CUT
10
-5.9630
20
-118.7604
0
VERTEX
8
CUT
10
-5.9250
20
-118.6993
0
VERTEX
8
CUT
10
-5.8831
20
-118.6408
0
VERTEX
8
CUT
10
-5.8374
20
-118.5851
0
VERTEX
8
CUT
10
-5.7882
20
-118.5326
0
VERTEX
8
CUT
10
-5.7357
20
-118.4834
0
VERTEX
8
CUT
10
-5.6800
20
-118.4377
0
VERTEX
8
CUT
10
-5.6215
20
-118.3958
0
VERTEX
8
CUT
10
-5.5604
20
-118.3578
0
VERTEX
8
CUT
10
-5.4969
20
-118.3238
0
VERTEX
8
CUT
10
-5.4314
20
-118.2941
0
VERTEX
8
CUT
10
-5.3640
20
-118.2688
0
VERTEX
8
CUT
10
-5.2951
20
-118.2479
0
VERTEX
8
CUT
10
-5.2250
20
-118.2315
0
VERTEX
8
CUT
10
-5.1540
20
-118.2198
0
VERTEX
8
CUT
10
-5.0824
20
-118.2128
0
VERTEX
8
CUT
10
-5.0104
20
-118.2104
0
VERTEX
8
CUT
10
-4.9385
20
-118.2128
0
VERTEX
8
CUT
10
-4.8668
20
-118.2198
0
VERTEX
8
CUT
10
-4.7958
20
-118.2315
0
VERTEX
8
CUT
10
-4.7257
20
-118.2479
0
VERTEX
8
CUT
10
-4.6568
20
-118.2688
0
VERTEX
8
CUT
10
-4.5895
20
-118.2941
0
VERTEX
8
CUT
10
-4.5239
20
-118.3238
0
VERTEX
8
CUT
10
-4.4604
20
-118.3578
0
VERTEX
8
CUT
10
-4.3993
20
-118.3958
0
VERTEX
8
CUT
10
-4.3408
20
-118.4377
0
VERTEX
8
CUT
10
-4.2851
20
-118.4834
0
VERTEX
8
CUT
10
-4.2326
20
-118.5326
0
VERTEX
8
CUT
10
-4.1834
20
-118.5851
0
VERTEX
8
CUT
10
-4.1377
20
-118.6408
0
VERTEX
8
CUT
10
-4.0958
20
-118.6993
0
VERTEX
8
CUT
10
-4.0578
20
-118.7604
0
VERTEX
8
CUT
10
-4.0238
20
-118.8239
0
VERTEX
8
CUT
10
-3.9941
20
-118.8895
0
VERTEX
8
CUT
10
-3.9688
20
-118.9568
0
VERTEX
8
CUT
10
-3.9479
20
-119.0257
0
VERTEX
8
CUT
10
-3.9315
20
-119.0958
0
VERTEX
8
CUT
10
-3.9198
20
-119.1668
0
VERTEX
8
CUT
10
-3.9128
20
-119.2385
0
VERTEX
8
CUT
10
-3.9104
20
-119.3104
0
VERTEX
8
CUT
10
-3.9128
20
-119.3824
0
VERTEX
8
CUT
10
-3.9198
20
-119.4540
0
VERTEX
8
CUT
10
-3.9315
20
-119.5250
0
VERTEX
8
CUT
10
-3.9479
20
-119.5951
0
VERTEX
8
CUT
10
-3.9688
20
-119.6640
0
VERTEX
8
CUT
10
-3.9941
20
-119.7314
0
VERTEX
8
CUT
10
-4.0238
20
-119.7969
0
VERTEX
8
CUT
10
-4.0578
20
-119.8604
0
VERTEX
8
CUT
10
-4.0958
20
-119.9215
0
VERTEX
8
CUT
10
-4.1377
20
-119.9800
0
VERTEX
8
CUT
10
-4.1834
20
-120.0357
0
VERTEX
8
CUT
10
-4.2326
20
-120.0882
0
VERTEX
8
CUT
10
-4.2851
20
-120.1374
0
VERTEX
8
CUT
10
-4.3408
20
-120.1831
0
VERTEX
8
CUT
10
-4.3993
20
-120.2250
0
VERTEX
8
CUT
10
-4.4604
20
-120.2630
0
VERTEX
8
CUT
10
-4.5239
20
-120.2970
0
VERTEX
8
CUT
10
-4.5895
20
-120.3267
0
VERTEX
8
CUT
10
-4.6568
20
-120.3520
0
VERTEX
8
CUT
10
-4.7257
20
-120.3729
0
VERTEX
8
CUT
10
-4.7958
20
-120.3893
0
VERTEX
8
CUT
10
-4.8668
20
-120.4010
0
VERTEX
8
CUT
10
-4.9385
20
-120.4081
0
VERTEX
8
CUT
10
-5.0104
20
-120.4104
0
SEQEND
0
POLYLINE
8
CUT
66
1
70
1
0
VERTEX
8
CUT
10
198.5135
20
-120.4081
0
VERTEX
8
CUT
10
198.4418
20
-120.4010
0
VERTEX
8
CUT
10
198.3708
20
-120.3893
0
VERTEX
8
CUT
10
198.3007
20
-120.3729
0
VERTEX
8
CUT
10
198.2318
20
-120.3520
0
VERTEX
8
CUT
10
198.1645
20
-120.3267
0
VERTEX
8
CUT
10
198.0989
20
-120.2970
0
VERTEX
8
CUT
10
198.0354
20
-120.2630
0
VERTEX
8
CUT
10
197.9743
20
-120.2250
0
VERTEX
8
CUT
10
197.9158
20
-120.1831
0
VERTEX
8
CUT
10
197.8601
20
-120.1374
0
VERTEX
8
CUT
10
197.8076
20
-120.0882
0
VERTEX
8
CUT
10
197.7584
20
-120.0357
0
VERTEX
8
CUT
10
197.7127
20
-119.9800
0
VERTEX
8
CUT
10
197.6708
20
-119.9215
0
VERTEX
8
CUT
10
197.6328
20
-119.8604
0
VERTEX
8
CUT
10
197.5988
20
-119.7969
0
VERTEX
8
CUT
10
197.5691
20
-119.7314
0
VERTEX
8
CUT
10
197.5438
20
-119.6640
0
VERTEX
8
CUT
10
197.5229
20
-119.5951
0
VERTEX
8
CUT
10
197.5065
20
-119.5250
0
VERTEX
8
CUT
10
197.4948
20
-119.4540
0
VERTEX
8
CUT
10
197.4878
20
-119.3824
0
VERTEX
8
CUT
10
197.4854
20
-119.3104
0
VERTEX
8
CUT
10
197.4878
20
-119.2385
0
VERTEX
8
CUT
10
197.4948
20
-119.1668
0
VERTEX
8
CUT
10
197.5065
20
-119.0958
0
VERTEX
8
CUT
10
197.5229
20
-119.0257
0
VERTEX
8
CUT
10
197.5438
20
-118.9568
0
VERTEX
8
CUT
10
197.5691
20
-118.8895
0
VERTEX
8
CUT
10
197.5988
20
-118.8239
0
VERTEX
8
CUT
10
197.6328
20
-118.7604
0
VERTEX
8
CUT
10
197.6708
20
-118.6993
0
VERTEX
8
CUT
10
197.7127
20
-118.6408
0
VERTEX
8
CUT
10
197.7584
20
-118.5851
0
VERTEX
8
CUT
10
197.8076
20
-118.5326
0
VERTEX
8
CUT
10
197.8601
20
-118.4834
0
VERTEX
8
CUT
10
197.9158
20
-118.4377
0
VERTEX
8
CUT
10
197.9743
20
-118.3958
0
VERTEX
8
CUT
10
198.0354
20
-118.3578
0
VERTEX
8
CUT
10
198.0989
20
-118.3238
0
VERTEX
8
CUT
10
198.1645
20
-118.2941
0
VERTEX
8
CUT
10
198.2318
20
-118.2688
0
VERTEX
8
CUT
10
198.3007
20
-118.2479
0
VERTEX
8
CUT
10
198.3708
20
-118.2315
0
VERTEX
8
CUT
10
198.4418
20
-118.2198
0
VERTEX
8
CUT
10
198.5135
20
-118.2128
0
VERTEX
8
CUT
10
198.5854
20
-118.2104
0
VERTEX
8
CUT
10
198.6574
20
-118.2128
0
VERTEX
8
CUT
10
198.7290
20
-118.2198
0
VERTEX
8
CUT
10
198.8000
20
-118.2315
0
VERTEX
8
CUT
10
198.8701
20
-118.2479
0
VERTEX
8
CUT
10
198.9390
20
-118.2688
0
VERTEX
8
CUT
10
199.0064
20
-118.2941
0
VERTEX
8
CUT
10
199.0719
20
-118.3238
0
VERTEX
8
CUT
10
199.1354
20
-118.3578
0
VERTEX
8
CUT
10
199.1965
20
-118.3958
0
VERTEX
8
CUT
10
199.2550
20
-118.4377
0
VERTEX
8
CUT
10
199.3107
20
-118.4834
0
VERTEX
8
CUT
10
199.3632
20
-118.5326
0
VERTEX
8
CUT
10
199.4124
20
-118.5851
0
VERTEX
8
CUT
10
199.4581
20
-118.6408
0
VERTEX
8
CUT
10
199.5000
20
-118.6993
0
VERTEX
8
CUT
10
199.5380
20
-118.7604
0
VERTEX
8
CUT
10
199.5720
20
-118.8239
0
VERTEX
8
CUT
10
199.6017
20
-118.8895
0
VERTEX
8
CUT
10
199.6270
20
-118.9568
0
VERTEX
8
CUT
10
199.6479
20
-119.0257
0
VERTEX
8
CUT
10
199.6643
20
-119.0958
0
VERTEX
8
CUT
10
199.6760
20
-119.1668
0
VERTEX
8
CUT
10
199.6831
20
-119.2385
0
VERTEX
8
CUT
10
199.6854
20
-119.3104
0
VERTEX
8
CUT
10
199.6831
20
-119.3824
0
VERTEX
8
CUT
10
199.6760
20
-119.4540
0
VERTEX
8
CUT
10
199.6643
20
-119.5250
0
VERTEX
8
CUT
10
199.6479
20
-119.5951
0
VERTEX
8
CUT
10
199.6270
20
-119.6640
0
VERTEX
8
CUT
10
199.6017
20
-119.7314
0
VERTEX
8
CUT
10
199.5720
20
-119.7969
0
VERTEX
8
CUT
10
199.5380
20
-119.8604
0
VERTEX
8
CUT
10
199.5000
20
-119.9215
0
VERTEX
8
CUT
10
199.4581
20
-119.9800
0
VERTEX
8
CUT
10
199.4124
20
-120.0357
0
VERTEX
8
CUT
10
199.3632
20
-120.0882
0
VERTEX
8
CUT
10
199.3107
20
-120.1374
0
VERTEX
8
CUT
10
199.2550
20
-120.1831
0
VERTEX
8
CUT
10
199.1965
20
-120.2250
0
VERTEX
8
CUT
10
199.1354
20
-120.2630
0
VERTEX
8
CUT
10
199.0719
20
-120.2970
0
VERTEX
8
CUT
10
199.0064
20
-120.3267
0
VERTEX
8
CUT
10
198.9390
20
-120.3520
0
VERTEX
8
CUT
10
198.8701
20
-120.3729
0
VERTEX
8
CUT
10
198.8000
20
-120.3893
0
VERTEX
8
CUT
10
198.7290
20
-120.4010
0
VERTEX
8
CUT
10
198.6574
20
-120.4081
0
VERTEX
8
CUT
10
198.5854
20
-120.4104
0
SEQEND
0
POLYLINE
8
CUT
66
1
70
1
0
VERTEX
8
CUT
10
44.5718
20
-122.8976
0
VERTEX
8
CUT
10
44.5002
20
-122.8906
0
VERTEX
8
CUT
10
44.4292
20
-122.8789
0
VERTEX
8
CUT
10
44.3590
20
-122.8625
0
VERTEX
8
CUT
10
44.2902
20
-122.8416
0
VERTEX
8
CUT
10
44.2228
20
-122.8163
0
VERTEX
8
CUT
10
44.1572
20
-122.7866
0
VERTEX
8
CUT
10
44.0938
20
-122.7526
0
VERTEX
8
CUT
10
44.0326
20
-122.7146
0
VERTEX
8
CUT
10
43.9741
20
-122.6727
0
VERTEX
8
CUT
10
43.9185
20
-122.6270
0
VERTEX
8
CUT
10
43.8659
20
-122.5778
0
VERTEX
8
CUT
10
43.8167
20
-122.5253
0
VERTEX
8
CUT
10
43.7711
20
-122.4696
0
VERTEX
8
CUT
10
43.7291
20
-122.4111
0
VERTEX
8
CUT
10
43.6911
20
-122.3500
0
VERTEX
8
CUT
10
43.6572
20
-122.2865
0
VERTEX
8
CUT
10
43.6275
20
-122.2210
0
VERTEX
8
CUT
10
43.6021
20
-122.1536
0
VERTEX
8
CUT
10
43.5812
20
-122.0847
0
VERTEX
8
CUT
10
43.5649
20
-122.0146
0
VERTEX
8
CUT
10
43.5532
20
-121.9436
0
VERTEX
8
CUT
10
43.5461
20
-121.8719
0
VERTEX
8
CUT
10
43.5438
20
-121.8000
0
VERTEX
8
CUT
10
43.5461
20
-121.7281
0
VERTEX
8
CUT
10
43.5532
20
-121.6564
0
VERTEX
8
CUT
10
43.5649
20
-121.5854
0
VERTEX
8
CUT
10
43.5812
20
-121.5153
0
VERTEX
8
CUT
10
43.6021
20
-121.4464
0
VERTEX
8
CUT
10
43.6275
20
-121.3790
0
VERTEX
8
CUT
10
43.6572
20
-121.3135
0
VERTEX
8
CUT
10
43.6911
20
-121.2500
0
VERTEX
8
CUT
10
43.7291
20
-121.1889
0
VERTEX
8
CUT
10
43.7711
20
-121.1304
0
VERTEX
8
CUT
10
43.8167
20
-121.0747
0
VERTEX
8
CUT
10
43.8659
20
-121.0222
0
VERTEX
8
CUT
10
43.9185
20
-120.9730
0
VERTEX
8
CUT
10
43.9741
20
-120.9273
0
VERTEX
8
CUT
10
44.0326
20
-120.8854
0
VERTEX
8
CUT
10
44.0938
20
-120.8474
0
VERTEX
8
CUT
10
44.1572
20
-120.8134
0
VERTEX
8
CUT
10
44.2228
20
-120.7837
0
VERTEX
8
CUT
10
44.2902
20
-120.7584
0
VERTEX
8
CUT
10
44.3590
20
-120.7375
0
VERTEX
8
CUT
10
44.4292
20
-120.7211
0
VERTEX
8
CUT
10
44.5002
20
-120.7094
0
VERTEX
8
CUT
10
44.5718
20
-120.7024
0
VERTEX
8
CUT
10
44.6437
20
-120.7000
0
VERTEX
8
CUT
10
44.7157
20
-120.7024
0
VERTEX
8
CUT
10
44.7873
20
-120.7094
0
VERTEX
8
CUT
10
44.8583
20
-120.7211
0
VERTEX
8
CUT
10
44.9285
20
-120.7375
0
VERTEX
8
CUT
10
44.9973
20
-120.7584
0
VERTEX
8
CUT
10
45.0647
20
-120.7837
0
VERTEX
8
CUT
10
45.1303
20
-120.8134
0
VERTEX
8
CUT
10
45.1938
20
-120.8474
0
VERTEX
8
CUT
10
45.2549
20
-120.8854
0
VERTEX
8
CUT
10
45.3134
20
-120.9273
0
VERTEX
8
CUT
10
45.3690
20
-120.9730
0
VERTEX
8
CUT
10
45.4216
20
-121.0222
0
VERTEX
8
CUT
10
45.4708
20
-121.0747
0
VERTEX
8
CUT
10
45.5164
20
-121.1304
0
VERTEX
8
CUT
10
45.5584
20
-121.1889
0
VERTEX
8
CUT
10
45.5964
20
-121.2500
0
VERTEX
8
CUT
10
45.6303
20
-121.3135
0
VERTEX
8
CUT
10
45.6600
20
-121.3790
0
VERTEX
8
CUT
10
45.6854
20
-121.4464
0
VERTEX
8
CUT
10
45.7063
20
-121.5153
0
VERTEX
8
CUT
10
45.7226
20
-121.5854
0
VERTEX
8
CUT
10
45.7343
20
-121.6564
0
VERTEX
8
CUT
10
45.7414
20
-121.7281
0
VERTEX
8
CUT
10
45.7437
20
-121.8000
0
VERTEX
8
CUT
10
45.7414
20
-121.8719
0
VERTEX
8
CUT
10
45.7343
20
-121.9436
0
VERTEX
8
CUT
10
45.7226
20
-122.0146
0
VERTEX
8
CUT
10
45.7063
20
-122.0847
0
VERTEX
8
CUT
10
45.6854
20
-122.1536
0
VERTEX
8
CUT
10
45.6600
20
-122.2210
0
VERTEX
8
CUT
10
45.6303
20
-122.2865
0
VERTEX
8
CUT
10
45.5964
20
-122.3500
0
VERTEX
8
CUT
10
45.5584
20
-122.4111
0
VERTEX
8
CUT
10
45.5164
20
-122.4696
0
VERTEX
8
CUT
10
45.4708
20
-122.5253
0
VERTEX
8
CUT
10
45.4216
20
-122.5778
0
VERTEX
8
CUT
10
45.3690
20
-122.6270
0
VERTEX
8
CUT
10
45.3134
20
-122.6727
0
VERTEX
8
CUT
10
45.2549
20
-122.7146
0
VERTEX
8
CUT
10
45.1938
20
-122.7526
0
VERTEX
8
CUT
10
45.1303
20
-122.7866
0
VERTEX
8
CUT
10
45.0647
20
-122.8163
0
VERTEX
8
CUT
10
44.9973
20
-122.8416
0
VERTEX
8
CUT
10
44.9285
20
-122.8625
0
VERTEX
8
CUT
10
44.8583
20
-122.8789
0
VERTEX
8
CUT
10
44.7873
20
-122.8906
0
VERTEX
8
CUT
10
44.7157
20
-122.8976
0
VERTEX
8
CUT
10
44.6437
20
-122.9000
0
SEQEND
0
POLYLINE
8
CUT
66
1
70
1
0
VERTEX
8
CUT
10
96.7156
20
-122.8976
0
VERTEX
8
CUT
10
96.6439
20
-122.8906
0
VERTEX
8
CUT
10
96.5729
20
-122.8789
0
VERTEX
8
CUT
10
96.5028
20
-122.8625
0
VERTEX
8
CUT
10
96.4339
20
-122.8416
0
VERTEX
8
CUT
10
96.3665
20
-122.8163
0
VERTEX
8
CUT
10
96.3010
20
-122.7866
0
VERTEX
8
CUT
10
96.2375
20
-122.7526
0
VERTEX
8
CUT
10
96.1764
20
-122.7146
0
VERTEX
8
CUT
10
96.1179
20
-122.6727
0
VERTEX
8
CUT
10
96.0622
20
-122.6270
0
VERTEX
8
CUT
10
96.0097
20
-122.5778
0
VERTEX
8
CUT
10
95.9605
20
-122.5253
0
VERTEX
8
CUT
10
95.9148
20
-122.4696
0
VERTEX
8
CUT
10
95.8729
20
-122.4111
0
VERTEX
8
CUT
10
95.8349
20
-122.3500
0
VERTEX
8
CUT
10
95.8009
20
-122.2865
0
VERTEX
8
CUT
10
95.7712
20
-122.2210
0
VERTEX
8
CUT
10
95.7459
20
-122.1536
0
VERTEX
8
CUT
10
95.7250
20
-122.0847
0
VERTEX
8
CUT
10
95.7086
20
-122.0146
0
VERTEX
8
CUT
10
95.6969
20
-121.9436
0
VERTEX
8
CUT
10
95.6899
20
-121.8719
0
VERTEX
8
CUT
10
95.6875
20
-121.8000
0
VERTEX
8
CUT
10
95.6899
20
-121.7281
0
VERTEX
8
CUT
10
95.6969
20
-121.6564
0
VERTEX
8
CUT
10
95.7086
20
-121.5854
0
VERTEX
8
CUT
10
95.7250
20
-121.5153
0
VERTEX
8
CUT
10
95.7459
20
-121.4464
0
VERTEX
8
CUT
10
95.7712
20
-121.3790
0
VERTEX
8
CUT
10
95.8009
20
-121.3135
0
VERTEX
8
CUT
10
95.8349
20
-121.2500
0
VERTEX
8
CUT
10
95.8729
20
-121.1889
0
VERTEX
8
CUT
10
95.9148
20
-121.1304
0
VERTEX
8
CUT
10
95.9605
20
-121.0747
0
VERTEX
8
CUT
10
96.0097
20
-121.0222
0
VERTEX
8
CUT
10
96.0622
20
-120.9730
0
VERTEX
8
CUT
10
96.1179
20
-120.9273
0
VERTEX
8
CUT
10
96.1764
20
-120.8854
0
VERTEX
8
CUT
10
96.2375
20
-120.8474
0
VERTEX
8
CUT
10
96.3010
20
-120.8134
0
VERTEX
8
CUT
10
96.3665
20
-120.7837
0
VERTEX
8
CUT
10
96.4339
20
-120.7584
0
VERTEX
8
CUT
10
96.5028
20
-120.7375
0
VERTEX
8
CUT
10
96.5729
20
-120.7211
0
VERTEX
8
CUT
10
96.6439
20
-120.7094
0
VERTEX
8
CUT
10
96.7156
20
-120.7024
0
VERTEX
8
CUT
10
96.7875
20
-120.7000
0
VERTEX
8
CUT
10
96.8594
20
-120.7024
0
VERTEX
8
CUT
10
96.9311
20
-120.7094
0
VERTEX
8
CUT
10
97.0021
20
-120.7211
0
VERTEX
8
CUT
10
97.0722
20
-120.7375
0
VERTEX
8
CUT
10
97.1411
20
-120.7584
0
VERTEX
8
CUT
10
97.2085
20
-120.7837
0
VERTEX
8
CUT
10
97.2740
20
-120.8134
0
VERTEX
8
CUT
10
97.3375
20
-120.8474
0
VERTEX
8
CUT
10
97.3986
20
-120.8854
0
VERTEX
8
CUT
10
97.4571
20
-120.9273
0
VERTEX
8
CUT
10
97.5128
20
-120.9730
0
VERTEX
8
CUT
10
97.5653
20
-121.0222
0
VERTEX
8
CUT
10
97.6145
20
-121.0747
0
VERTEX
8
CUT
10
97.6602
20
-121.1304
0
VERTEX
8
CUT
10
97.7021
20
-121.1889
0
VERTEX
8
CUT
10
97.7401
20
-121.2500
0
VERTEX
8
CUT
10
97.7741
20
-121.3135
0
VERTEX
8
CUT
10
97.8038
20
-121.3790
0
VERTEX
8
CUT
10
97.8291
20
-121.4464
0
VERTEX
8
CUT
10
97.8500
20
-121.5153
0
VERTEX
8
CUT
10
97.8664
20
-121.5854
0
VERTEX
8
CUT
10
97.8781
20
-121.6564
0
VERTEX
8
CUT
10
97.8851
20
-121.7281
0
VERTEX
8
CUT
10
97.8875
20
-121.8000
0
VERTEX
8
CUT
10
97.8851
20
-121.8719
0
VERTEX
8
CUT
10
97.8781
20
-121.9436
0
VERTEX
8
CUT
10
97.8664
20
-122.0146
0
VERTEX
8
CUT
10
97.8500
20
-122.0847
0
VERTEX
8
CUT
10
97.8291
20
-122.1536
0
VERTEX
8
CUT
10
97.8038
20
-122.2210
0
VERTEX
8
CUT
10
97.7741
20
-122.2865
0
VERTEX
8
CUT
10
97.7401
20
-122.3500
0
VERTEX
8
CUT
10
97.7021
20
-122.4111
0
VERTEX
8
CUT
10
97.6602
20
-122.4696
0
VERTEX
8
CUT
10
97.6145
20
-122.5253
0
VERTEX
8
CUT
10
97.5653
20
-122.5778
0
VERTEX
8
CUT
10
97.5128
20
-122.6270
0
VERTEX
8
CUT
10
97.4571
20
-122.6727
0
VERTEX
8
CUT
10
97.3986
20
-122.7146
0
VERTEX
8
CUT
10
97.3375
20
-122.7526
0
VERTEX
8
CUT
10
97.2740
20
-122.7866
0
VERTEX
8
CUT
10
97.2085
20
-122.8163
0
VERTEX
8
CUT
10
97.1411
20
-122.8416
0
VERTEX
8
CUT
10
97.0722
20
-122.8625
0
VERTEX
8
CUT
10
97.0021
20
-122.8789
0
VERTEX
8
CUT
10
96.9311
20
-122.8906
0
VERTEX
8
CUT
10
96.8594
20
-122.8976
0
VERTEX
8
CUT
10
96.7875
20
-122.9000
0
SEQEND
0
POLYLINE
8
CUT
66
1
70
1
0
VERTEX
8
CUT
10
148.8593
20
-122.8976
0
VERTEX
8
CUT
10
148.7877
20
-122.8906
0
VERTEX
8
CUT
10
148.7167
20
-122.8789
0
VERTEX
8
CUT
10
148.6465
20
-122.8625
0
VERTEX
8
CUT
10
148.5777
20
-122.8416
0
VERTEX
8
CUT
10
148.5103
20
-122.8163
0
VERTEX
8
CUT
10
148.4447
20
-122.7866
0
VERTEX
8
CUT
10
148.3813
20
-122.7526
0
VERTEX
8
CUT
10
148.3201
20
-122.7146
0
VERTEX
8
CUT
10
148.2616
20
-122.6727
0
VERTEX
8
CUT
10
148.2060
20
-122.6270
0
VERTEX
8
CUT
10
148.1534
20
-122.5778
0
VERTEX
8
CUT
10
148.1042
20
-122.5253
0
VERTEX
8
CUT
10
148.0586
20
-122.4696
0
VERTEX
8
CUT
10
148.0166
20
-122.4111
0
VERTEX
8
CUT
10
147.9786
20
-122.3500
0
VERTEX
8
CUT
10
147.9447
20
-122.2865
0
VERTEX
8
CUT
10
147.9150
20
-122.2210
0
VERTEX
8
CUT
10
147.8896
20
-122.1536
0
VERTEX
8
CUT
10
147.8687
20
-122.0847
0
VERTEX
8
CUT
10
147.8524
20
-122.0146
0
VERTEX
8
CUT
10
147.8407
20
-121.9436
0
VERTEX
8
CUT
10
147.8336
20
-121.8719
0
VERTEX
8
CUT
10
147.8312
20
-121.8000
0
VERTEX
8
CUT
10
147.8336
20
-121.7281
0
VERTEX
8
CUT
10
147.8407
20
-121.6564
0
VERTEX
8
CUT
10
147.8524
20
-121.5854
0
VERTEX
8
CUT
10
147.8687
20
-121.5153
0
VERTEX
8
CUT
10
147.8896
20
-121.4464
0
VERTEX
8
CUT
10
147.9150
20
-121.3790
0
VERTEX
8
CUT
10
147.9447
20
-121.3135
0
VERTEX
8
CUT
10
147.9786
20
-121.2500
0
VERTEX
8
CUT
10
148.0166
20
-121.1889
0
VERTEX
8
CUT
10
148.0586
20
-121.1304
0
VERTEX
8
CUT
10
148.1042
20
-121.0747
0
VERTEX
8
CUT
10
148.1534
20
-121.0222
0
VERTEX
8
CUT
10
148.2060
20
-120.9730
0
VERTEX
8
CUT
10
148.2616
20
-120.9273
0
VERTEX
8
CUT
10
148.3201
20
-120.8854
0
VERTEX
8
CUT
10
148.3813
20
-120.8474
0
VERTEX
8
CUT
10
148.4447
20
-120.8134
0
VERTEX
8
CUT
10
148.5103
20
-120.7837
0
VERTEX
8
CUT
10
148.5777
20
-120.7584
0
VERTEX
8
CUT
10
148.6465
20
-120.7375
0
VERTEX
8
CUT
10
148.7167
20
-120.7211
0
VERTEX
8
CUT
10
148.7877
20
-120.7094
0
VERTEX
8
CUT
10
148.8593
20
-120.7024
0
VERTEX
8
CUT
10
148.9312
20
-120.7000
0
VERTEX
8
CUT
10
149.0032
20
-120.7024
0
VERTEX
8
CUT
10
149.0748
20
-120.7094
0
VERTEX
8
CUT
10
149.1458
20
-120.7211
0
VERTEX
8
CUT
10
149.2160
20
-120.7375
0
VERTEX
8
CUT
10
149.2848
20
-120.7584
0
VERTEX
8
CUT
10
149.3522
20
-120.7837
0
VERTEX
8
CUT
10
149.4178
20
-120.8134
0
VERTEX
8
CUT
10
149.4813
20
-120.8474
0
VERTEX
8
CUT
10
149.5424
20
-120.8854
0
VERTEX
8
CUT
10
149.6009
20
-120.9273
0
VERTEX
8
CUT
10
149.6565
20
-120.9730
0
VERTEX
8
CUT
10
149.7091
20
-121.0222
0
VERTEX
8
CUT
10
149.7583
20
-121.0747
0
VERTEX
8
CUT
10
149.8039
20
-121.1304
0
VERTEX
8
CUT
10
149.8459
20
-121.1889
0
VERTEX
8
CUT
10
149.8839
20
-121.2500
0
VERTEX
8
CUT
10
149.9178
20
-121.3135
0
VERTEX
8
CUT
10
149.9475
20
-121.3790
0
VERTEX
8
CUT
10
149.9729
20
-121.4464
0
VERTEX
8
CUT
10
149.9938
20
-121.5153
0
VERTEX
8
CUT
10
150.0101
20
-121.5854
0
VERTEX
8
CUT
10
150.0218
20
-121.6564
0
VERTEX
8
CUT
10
150.0289
20
-121.7281
0
VERTEX
8
CUT
10
150.0312
20
-121.8000
0
VERTEX
8
CUT
10
150.0289
20
-121.8719
0
VERTEX
8
CUT
10
150.0218
20
-121.9436
0
VERTEX
8
CUT
10
150.0101
20
-122.0146
0
VERTEX
8
CUT
10
149.9938
20
-122.0847
0
VERTEX
8
CUT
10
149.9729
20
-122.1536
0
VERTEX
8
CUT
10
149.9475
20
-122.2210
0
VERTEX
8
CUT
10
149.9178
20
-122.2865
0
VERTEX
8
CUT
10
149.8839
20
-122.3500
0
VERTEX
8
CUT
10
149.8459
20
-122.4111
0
VERTEX
8
CUT
10
149.8039
20
-122.4696
0
VERTEX
8
CUT
10
149.7583
20
-122.5253
0
VERTEX
8
CUT
10
149.7091
20
-122.5778
0
VERTEX
8
CUT
10
149.6565
20
-122.6270
0
VERTEX
8
CUT
10
149.6009
20
-122.6727
0
VERTEX
8
CUT
10
149.5424
20
-122.7146
0
VERTEX
8
CUT
10
149.4813
20
-122.7526
0
VERTEX
8
CUT
10
149.4178
20
-122.7866
0
VERTEX
8
CUT
10
149.3522
20
-122.8163
0
VERTEX
8
CUT
10
149.2848
20
-122.8416
0
VERTEX
8
CUT
10
149.2160
20
-122.8625
0
VERTEX
8
CUT
10
149.1458
20
-122.8789
0
VERTEX
8
CUT
10
149.0748
20
-122.8906
0
VERTEX
8
CUT
10
149.0032
20
-122.8976
0
VERTEX
8
CUT
10
148.9312
20
-122.9000
0
SEQEND
0
ENDSEC
0
EOF
