0
SECTION
2
HEADER
9
$INSUNITS
70
4
0
ENDSEC
0
SECTION
2
ENTITIES
0
POLYLINE
8
CUT
66
1
70
1
0
VERTEX
8
CUT
10
193.3925
20
-125.7732
0
VERTEX
8
CUT
10
194.2066
20
-125.6931
0
VERTEX
8
CUT
10
195.0136
20
-125.5598
0
VERTEX
8
CUT
10
195.8102
20
-125.3741
0
VERTEX
8
CUT
10
196.5930
20
-125.1366
0
VERTEX
8
CUT
10
197.3585
20
-124.8485
0
VERTEX
8
CUT
10
198.1036
20
-124.5109
0
VERTEX
8
CUT
10
198.8250
20
-124.1253
0
VERTEX
8
CUT
10
199.5196
20
-123.6934
0
VERTEX
8
CUT
10
200.1845
20
-123.2169
0
VERTEX
8
CUT
10
200.8168
20
-122.6980
0
VERTEX
8
CUT
10
201.4138
20
-122.1388
0
VERTEX
8
CUT
10
201.9730
20
-121.5418
0
VERTEX
8
CUT
10
202.4919
20
-120.9095
0
VERTEX
8
CUT
10
202.9684
20
-120.2446
0
VERTEX
8
CUT
10
203.4003
20
-119.5500
0
VERTEX
8
CUT
10
203.7859
20
-118.8286
0
VERTEX
8
CUT
10
204.1235
20
-118.0835
0
VERTEX
8
CUT
10
204.4116
20
-117.3180
0
VERTEX
8
CUT
10
204.6491
20
-116.5352
0
VERTEX
8
CUT
10
204.8348
20
-115.7386
0
VERTEX
8
CUT
10
204.9681
20
-114.9316
0
VERTEX
8
CUT
10
205.0482
20
-114.1175
0
VERTEX
8
CUT
10
205.0750
20
-113.3000
0
VERTEX
8
CUT
10
205.0750
20
5.0000
0
VERTEX
8
CUT
10
205.0482
20
5.8175
0
VERTEX
8
CUT
10
204.9681
20
6.6316
0
VERTEX
8
CUT
10
204.8348
20
7.4386
0
VERTEX
8
CUT
10
204.6491
20
8.2352
0
VERTEX
8
CUT
10
204.4116
20
9.0180
0
VERTEX
8
CUT
10
204.1235
20
9.7835
0
VERTEX
8
CUT
10
203.7859
20
10.5286
0
VERTEX
8
CUT
10
203.4003
20
11.2500
0
VERTEX
8
CUT
10
202.9684
20
11.9446
0
VERTEX
8
CUT
10
202.4919
20
12.6095
0
VERTEX
8
CUT
10
201.9730
20
13.2418
0
VERTEX
8
CUT
10
201.4138
20
13.8388
0
VERTEX
8
CUT
10
200.8168
20
14.3980
0
VERTEX
8
CUT
10
200.1845
20
14.9169
0
VERTEX
8
CUT
10
199.5196
20
15.3934
0
VERTEX
8
CUT
10
198.8250
20
15.8253
0
VERTEX
8
CUT
10
198.1036
20
16.2109
0
VERTEX
8
CUT
10
197.3585
20
16.5485
0
VERTEX
8
CUT
10
196.5930
20
16.8366
0
VERTEX
8
CUT
10
195.8102
20
17.0741
0
VERTEX
8
CUT
10
195.0136
20
17.2598
0
VERTEX
8
CUT
10
194.2066
20
17.3931
0
VERTEX
8
CUT
10
193.3925
20
17.4732
0
VERTEX
8
CUT
10
192.5750
20
17.5000
0
VERTEX
8
CUT
10
1.0000
20
17.5000
0
VERTEX
8
CUT
10
0.1825
20
17.4732
0
VERTEX
8
CUT
10
-0.6316
20
17.3931
0
VERTEX
8
CUT
10
-1.4386
20
17.2598
0
VERTEX
8
CUT
10
-2.2352
20
17.0741
0
VERTEX
8
CUT
10
-3.0180
20
16.8366
0
VERTEX
8
CUT
10
-3.7835
20
16.5485
0
VERTEX
8
CUT
10
-4.5286
20
16.2109
0
VERTEX
8
CUT
10
-5.2500
20
15.8253
0
VERTEX
8
CUT
10
-5.9446
20
15.3934
0
VERTEX
8
CUT
10
-6.6095
20
14.9169
0
VERTEX
8
CUT
10
-7.2418
20
14.3980
0
VERTEX
8
CUT
10
-7.8388
20
13.8388
0
VERTEX
8
CUT
10
-8.3980
20
13.2418
0
VERTEX
8
CUT
10
-8.9169
20
12.6095
0
VERTEX
8
CUT
10
-9.3934
20
11.9446
0
VERTEX
8
CUT
10
-9.8253
20
11.2500
0
VERTEX
8
CUT
10
-10.2109
20
10.5286
0
VERTEX
8
CUT
10
-10.5485
20
9.7835
0
VERTEX
8
CUT
10
-10.8366
20
9.0180
0
VERTEX
8
CUT
10
-11.0741
20
8.2352
0
VERTEX
8
CUT
10
-11.2598
20
7.4386
0
VERTEX
8
CUT
10
-11.3931
20
6.6316
0
VERTEX
8
CUT
10
-11.4732
20
5.8175
0
VERTEX
8
CUT
10
-11.5000
20
5.0000
0
VERTEX
8
CUT
10
-11.5000
20
-113.3000
0
VERTEX
8
CUT
10
-11.4732
20
-114.1175
0
VERTEX
8
CUT
10
-11.3931
20
-114.9316
0
VERTEX
8
CUT
10
-11.2598
20
-115.7386
0
VERTEX
8
CUT
10
-11.0741
20
-116.5352
0
VERTEX
8
CUT
10
-10.8366
20
-117.3180
0
VERTEX
8
CUT
10
-10.5485
20
-118.0835
0
VERTEX
8
CUT
10
-10.2109
20
-118.8286
0
VERTEX
8
CUT
10
-9.8253
20
-119.5500
0
VERTEX
8
CUT
10
-9.3934
20
-120.2446
0
VERTEX
8
CUT
10
-8.9169
20
-120.9095
0
VERTEX
8
CUT
10
-8.3980
20
-121.5418
0
VERTEX
8
CUT
10
-7.8388
20
-122.1388
0
VERTEX
8
CUT
10
-7.2418
20
-122.6980
0
VERTEX
8
CUT
10
-6.6095
20
-123.2169
0
VERTEX
8
CUT
10
-5.9446
20
-123.6934
0
VERTEX
8
CUT
10
-5.2500
20
-124.1253
0
VERTEX
8
CUT
10
-4.5286
20
-124.5109
0
VERTEX
8
CUT
10
-3.7835
20
-124.8485
0
VERTEX
8
CUT
10
-3.0180
20
-125.1366
0
VERTEX
8
CUT
10
-2.2352
20
-125.3741
0
VERTEX
8
CUT
10
-1.4386
20
-125.5598
0
VERTEX
8
CUT
10
-0.6316
20
-125.6931
0
VERTEX
8
CUT
10
0.1825
20
-125.7732
0
VERTEX
8
CUT
10
1.0000
20
-125.8000
0
VERTEX
8
CUT
10
192.5750
20
-125.8000
0
SEQEND
0
POLYLINE
8
CUT
66
1
70
1
0
VERTEX
8
CUT
10
96.7156
20
12.4024
0
VERTEX
8
CUT
10
96.6439
20
12.4094
0
VERTEX
8
CUT
10
96.5729
20
12.4211
0
VERTEX
8
CUT
10
96.5028
20
12.4375
0
VERTEX
8
CUT
10
96.4339
20
12.4584
0
VERTEX
8
CUT
10
96.3665
20
12.4837
0
VERTEX
8
CUT
10
96.3010
20
12.5134
0
VERTEX
8
CUT
10
96.2375
20
12.5474
0
VERTEX
8
CUT
10
96.1764
20
12.5854
0
VERTEX
8
CUT
10
96.1179
20
12.6273
0
VERTEX
8
CUT
10
96.0622
20
12.6730
0
VERTEX
8
CUT
10
96.0097
20
12.7222
0
VERTEX
8
CUT
10
95.9605
20
12.7747
0
VERTEX
8
CUT
10
95.9148
20
12.8304
0
VERTEX
8
CUT
10
95.8729
20
12.8889
0
VERTEX
8
CUT
10
95.8349
20
12.9500
0
VERTEX
8
CUT
10
95.8009
20
13.0135
0
VERTEX
8
CUT
10
95.7712
20
13.0790
0
VERTEX
8
CUT
10
95.7459
20
13.1464
0
VERTEX
8
CUT
10
95.7250
20
13.2153
0
VERTEX
8
CUT
10
95.7086
20
13.2854
0
VERTEX
8
CUT
10
95.6969
20
13.3564
0
VERTEX
8
CUT
10
95.6899
20
13.4281
0
VERTEX
8
CUT
10
95.6875
20
13.5000
0
VERTEX
8
CUT
10
95.6899
20
13.5719
0
VERTEX
8
CUT
10
95.6969
20
13.6436
0
VERTEX
8
CUT
10
95.7086
20
13.7146
0
VERTEX
8
CUT
10
95.7250
20
13.7847
0
VERTEX
8
CUT
10
95.7459
20
13.8536
0
VERTEX
8
CUT
10
95.7712
20
13.9210
0
VERTEX
8
CUT
10
95.8009
20
13.9865
0
VERTEX
8
CUT
10
95.8349
20
14.0500
0
VERTEX
8
CUT
10
95.8729
20
14.1111
0
VERTEX
8
CUT
10
95.9148
20
14.1696
0
VERTEX
8
CUT
10
95.9605
20
14.2253
0
VERTEX
8
CUT
10
96.0097
20
14.2778
0
VERTEX
8
CUT
10
96.0622
20
14.3270
0
VERTEX
8
CUT
10
96.1179
20
14.3727
0
VERTEX
8
CUT
10
96.1764
20
14.4146
0
VERTEX
8
CUT
10
96.2375
20
14.4526
0
VERTEX
8
CUT
10
96.3010
20
14.4866
0
VERTEX
8
CUT
10
96.3665
20
14.5163
0
VERTEX
8
CUT
10
96.4339
20
14.5416
0
VERTEX
8
CUT
10
96.5028
20
14.5625
0
VERTEX
8
CUT
10
96.5729
20
14.5789
0
VERTEX
8
CUT
10
96.6439
20
14.5906
0
VERTEX
8
CUT
10
96.7156
20
14.5976
0
VERTEX
8
CUT
10
96.7875
20
14.6000
0
VERTEX
8
CUT
10
96.8594
20
14.5976
0
VERTEX
8
CUT
10
96.9311
20
14.5906
0
VERTEX
8
CUT
10
97.0021
20
14.5789
0
VERTEX
8
CUT
10
97.0722
20
14.5625
0
VERTEX
8
CUT
10
97.1411
20
14.5416
0
VERTEX
8
CUT
10
97.2085
20
14.5163
0
VERTEX
8
CUT
10
97.2740
20
14.4866
0
VERTEX
8
CUT
10
97.3375
20
14.4526
0
VERTEX
8
CUT
10
97.3986
20
14.4146
0
VERTEX
8
CUT
10
97.4571
20
14.3727
0
VERTEX
8
CUT
10
97.5128
20
14.3270
0
VERTEX
8
CUT
10
97.5653
20
14.2778
0
VERTEX
8
CUT
10
97.6145
20
14.2253
0
VERTEX
8
CUT
10
97.6602
20
14.1696
0
VERTEX
8
CUT
10
97.7021
20
14.1111
0
VERTEX
8
CUT
10
97.7401
20
14.0500
0
VERTEX
8
CUT
10
97.7741
20
13.9865
0
VERTEX
8
CUT
10
97.8038
20
13.9210
0
VERTEX
8
CUT
10
97.8291
20
13.8536
0
VERTEX
8
CUT
10
97.8500
20
13.7847
0
VERTEX
8
CUT
10
97.8664
20
13.7146
0
VERTEX
8
CUT
10
97.8781
20
13.6436
0
VERTEX
8
CUT
10
97.8851
20
13.5719
0
VERTEX
8
CUT
10
97.8875
20
13.5000
0
VERTEX
8
CUT
10
97.8851
20
13.4281
0
VERTEX
8
CUT
10
97.8781
20
13.3564
0
VERTEX
8
CUT
10
97.8664
20
13.2854
0
VERTEX
8
CUT
10
97.8500
20
13.2153
0
VERTEX
8
CUT
10
97.8291
20
13.1464
0
VERTEX
8
CUT
10
97.8038
20
13.0790
0
VERTEX
8
CUT
10
97.7741
20
13.0135
0
VERTEX
8
CUT
10
97.7401
20
12.9500
0
VERTEX
8
CUT
10
97.7021
20
12.8889
0
VERTEX
8
CUT
10
97.6602
20
12.8304
0
VERTEX
8
CUT
10
97.6145
20
12.7747
0
VERTEX
8
CUT
10
97.5653
20
12.7222
0
VERTEX
8
CUT
10
97.5128
20
12.6730
0
VERTEX
8
CUT
10
97.4571
20
12.6273
0
VERTEX
8
CUT
10
97.3986
20
12.5854
0
VERTEX
8
CUT
10
97.3375
20
12.5474
0
VERTEX
8
CUT
10
97.2740
20
12.5134
0
VERTEX
8
CUT
10
97.2085
20
12.4837
0
VERTEX
8
CUT
10
97.1411
20
12.4584
0
VERTEX
8
CUT
10
97.0722
20
12.4375
0
VERTEX
8
CUT
10
97.0021
20
12.4211
0
VERTEX
8
CUT
10
96.9311
20
12.4094
0
VERTEX
8
CUT
10
96.8594
20
12.4024
0
VERTEX
8
CUT
10
96.7875
20
12.4000
0
SEQEND
0
POLYLINE
8
CUT
66
1
70
1
0
VERTEX
8
CUT
10
148.8593
20
12.4024
0
VERTEX
8
CUT
10
148.7877
20
12.4094
0
VERTEX
8
CUT
10
148.7167
20
12.4211
0
VERTEX
8
CUT
10
148.6465
20
12.4375
0
VERTEX
8
CUT
10
148.5777
20
12.4584
0
VERTEX
8
CUT
10
148.5103
20
12.4837
0
VERTEX
8
CUT
10
148.4447
20
12.5134
0
VERTEX
8
CUT
10
148.3813
20
12.5474
0
VERTEX
8
CUT
10
148.3201
20
12.5854
0
VERTEX
8
CUT
10
148.2616
20
12.6273
0
VERTEX
8
CUT
10
148.2060
20
12.6730
0
VERTEX
8
CUT
10
148.1534
20
12.7222
0
VERTEX
8
CUT
10
148.1042
20
12.7747
0
VERTEX
8
CUT
10
148.0586
20
12.8304
0
VERTEX
8
CUT
10
148.0166
20
12.8889
0
VERTEX
8
CUT
10
147.9786
20
12.9500
0
VERTEX
8
CUT
10
147.9447
20
13.0135
0
VERTEX
8
CUT
10
147.9150
20
13.0790
0
VERTEX
8
CUT
10
147.8896
20
13.1464
0
VERTEX
8
CUT
10
147.8687
20
13.2153
0
VERTEX
8
CUT
10
147.8524
20
13.2854
0
VERTEX
8
CUT
10
147.8407
20
13.3564
0
VERTEX
8
CUT
10
147.8336
20
13.4281
0
VERTEX
8
CUT
10
147.8312
20
13.5000
0
VERTEX
8
CUT
10
147.8336
20
13.5719
0
VERTEX
8
CUT
10
147.8407
20
13.6436
0
VERTEX
8
CUT
10
147.8524
20
13.7146
0
VERTEX
8
CUT
10
147.8687
20
13.7847
0
VERTEX
8
CUT
10
147.8896
20
13.8536
0
VERTEX
8
CUT
10
147.9150
20
13.9210
0
VERTEX
8
CUT
10
147.9447
20
13.9865
0
VERTEX
8
CUT
10
147.9786
20
14.0500
0
VERTEX
8
CUT
10
148.0166
20
14.1111
0
VERTEX
8
CUT
10
148.0586
20
14.1696
0
VERTEX
8
CUT
10
148.1042
20
14.2253
0
VERTEX
8
CUT
10
148.1534
20
14.2778
0
VERTEX
8
CUT
10
148.2060
20
14.3270
0
VERTEX
8
CUT
10
148.2616
20
14.3727
0
VERTEX
8
CUT
10
148.3201
20
14.4146
0
VERTEX
8
CUT
10
148.3813
20
14.4526
0
VERTEX
8
CUT
10
148.4447
20
14.4866
0
VERTEX
8
CUT
10
148.5103
20
14.5163
0
VERTEX
8
CUT
10
148.5777
20
14.5416
0
VERTEX
8
CUT
10
148.6465
20
14.5625
0
VERTEX
8
CUT
10
148.7167
20
14.5789
0
VERTEX
8
CUT
10
148.7877
20
14.5906
0
VERTEX
8
CUT
10
148.8593
20
14.5976
0
VERTEX
8
CUT
10
148.9312
20
14.6000
0
VERTEX
8
CUT
10
149.0032
20
14.5976
0
VERTEX
8
CUT
10
149.0748
20
14.5906
0
VERTEX
8
CUT
10
149.1458
20
14.5789
0
VERTEX
8
CUT
10
149.2160
20
14.5625
0
VERTEX
8
CUT
10
149.2848
20
14.5416
0
VERTEX
8
CUT
10
149.3522
20
14.5163
0
VERTEX
8
CUT
10
149.4178
20
14.4866
0
VERTEX
8
CUT
10
149.4813
20
14.4526
0
VERTEX
8
CUT
10
149.5424
20
14.4146
0
VERTEX
8
CUT
10
149.6009
20
14.3727
0
VERTEX
8
CUT
10
149.6565
20
14.3270
0
VERTEX
8
CUT
10
149.7091
20
14.2778
0
VERTEX
8
CUT
10
149.7583
20
14.2253
0
VERTEX
8
CUT
10
149.8039
20
14.1696
0
VERTEX
8
CUT
10
149.8459
20
14.1111
0
VERTEX
8
CUT
10
149.8839
20
14.0500
0
VERTEX
8
CUT
10
149.9178
20
13.9865
0
VERTEX
8
CUT
10
149.9475
20
13.9210
0
VERTEX
8
CUT
10
149.9729
20
13.8536
0
VERTEX
8
CUT
10
149.9938
20
13.7847
0
VERTEX
8
CUT
10
150.0101
20
13.7146
0
VERTEX
8
CUT
10
150.0218
20
13.6436
0
VERTEX
8
CUT
10
150.0289
20
13.5719
0
VERTEX
8
CUT
10
150.0312
20
13.5000
0
VERTEX
8
CUT
10
150.0289
20
13.4281
0
VERTEX
8
CUT
10
150.0218
20
13.3564
0
VERTEX
8
CUT
10
150.0101
20
13.2854
0
VERTEX
8
CUT
10
149.9938
20
13.2153
0
VERTEX
8
CUT
10
149.9729
20
13.1464
0
VERTEX
8
CUT
10
149.9475
20
13.0790
0
VERTEX
8
CUT
10
149.9178
20
13.0135
0
VERTEX
8
CUT
10
149.8839
20
12.9500
0
VERTEX
8
CUT
10
149.8459
20
12.8889
0
VERTEX
8
CUT
10
149.8039
20
12.8304
0
VERTEX
8
CUT
10
149.7583
20
12.7747
0
VERTEX
8
CUT
10
149.7091
20
12.7222
0
VERTEX
8
CUT
10
149.6565
20
12.6730
0
VERTEX
8
CUT
10
149.6009
20
12.6273
0
VERTEX
8
CUT
10
149.5424
20
12.5854
0
VERTEX
8
CUT
10
149.4813
20
12.5474
0
VERTEX
8
CUT
10
149.4178
20
12.5134
0
VERTEX
8
CUT
10
149.3522
20
12.4837
0
VERTEX
8
CUT
10
149.2848
20
12.4584
0
VERTEX
8
CUT
10
149.2160
20
12.4375
0
VERTEX
8
CUT
10
149.1458
20
12.4211
0
VERTEX
8
CUT
10
149.0748
20
12.4094
0
VERTEX
8
CUT
10
149.0032
20
12.4024
0
VERTEX
8
CUT
10
148.9312
20
12.4000
0
SEQEND
0
POLYLINE
8
CUT
66
1
70
1
0
VERTEX
8
CUT
10
174.3593
20
12.4024
0
VERTEX
8
CUT
10
174.2876
20
12.4094
0
VERTEX
8
CUT
10
174.2166
20
12.4211
0
VERTEX
8
CUT
10
174.1465
20
12.4375
0
VERTEX
8
CUT
10
174.0776
20
12.4584
0
VERTEX
8
CUT
10
174.0102
20
12.4837
0
VERTEX
8
CUT
10
173.9447
20
12.5134
0
VERTEX
8
CUT
10
173.8812
20
12.5474
0
VERTEX
8
CUT
10
173.8201
20
12.5854
0
VERTEX
8
CUT
10
173.7616
20
12.6273
0
VERTEX
8
CUT
10
173.7059
20
12.6730
0
VERTEX
8
CUT
10
173.6534
20
12.7222
0
VERTEX
8
CUT
10
173.6042
20
12.7747
0
VERTEX
8
CUT
10
173.5585
20
12.8304
0
VERTEX
8
CUT
10
173.5166
20
12.8889
0
VERTEX
8
CUT
10
173.4786
20
12.9500
0
VERTEX
8
CUT
10
173.4446
20
13.0135
0
VERTEX
8
CUT
10
173.4149
20
13.0790
0
VERTEX
8
CUT
10
173.3896
20
13.1464
0
VERTEX
8
CUT
10
173.3687
20
13.2153
0
VERTEX
8
CUT
10
173.3523
20
13.2854
0
VERTEX
8
CUT
10
173.3406
20
13.3564
0
VERTEX
8
CUT
10
173.3336
20
13.4281
0
VERTEX
8
CUT
10
173.3312
20
13.5000
0
VERTEX
8
CUT
10
173.3336
20
13.5719
0
VERTEX
8
CUT
10
173.3406
20
13.6436
0
VERTEX
8
CUT
10
173.3523
20
13.7146
0
VERTEX
8
CUT
10
173.3687
20
13.7847
0
VERTEX
8
CUT
10
173.3896
20
13.8536
0
VERTEX
8
CUT
10
173.4149
20
13.9210
0
VERTEX
8
CUT
10
173.4446
20
13.9865
0
VERTEX
8
CUT
10
173.4786
20
14.0500
0
VERTEX
8
CUT
10
173.5166
20
14.1111
0
VERTEX
8
CUT
10
173.5585
20
14.1696
0
VERTEX
8
CUT
10
173.6042
20
14.2253
0
VERTEX
8
CUT
10
173.6534
20
14.2778
0
VERTEX
8
CUT
10
173.7059
20
14.3270
0
VERTEX
8
CUT
10
173.7616
20
14.3727
0
VERTEX
8
CUT
10
173.8201
20
14.4146
0
VERTEX
8
CUT
10
173.8812
20
14.4526
0
VERTEX
8
CUT
10
173.9447
20
14.4866
0
VERTEX
8
CUT
10
174.0102
20
14.5163
0
VERTEX
8
CUT
10
174.0776
20
14.5416
0
VERTEX
8
CUT
10
174.1465
20
14.5625
0
VERTEX
8
CUT
10
174.2166
20
14.5789
0
VERTEX
8
CUT
10
174.2876
20
14.5906
0
VERTEX
8
CUT
10
174.3593
20
14.5976
0
VERTEX
8
CUT
10
174.4312
20
14.6000
0
VERTEX
8
CUT
10
174.5031
20
14.5976
0
VERTEX
8
CUT
10
174.5748
20
14.5906
0
VERTEX
8
CUT
10
174.6458
20
14.5789
0
VERTEX
8
CUT
10
174.7159
20
14.5625
0
VERTEX
8
CUT
10
174.7848
20
14.5416
0
VERTEX
8
CUT
10
174.8521
20
14.5163
0
VERTEX
8
CUT
10
174.9177
20
14.4866
0
VERTEX
8
CUT
10
174.9812
20
14.4526
0
VERTEX
8
CUT
10
175.0423
20
14.4146
0
VERTEX
8
CUT
10
175.1008
20
14.3727
0
VERTEX
8
CUT
10
175.1565
20
14.3270
0
VERTEX
8
CUT
10
175.2090
20
14.2778
0
VERTEX
8
CUT
10
175.2582
20
14.2253
0
VERTEX
8
CUT
10
175.3039
20
14.1696
0
VERTEX
8
CUT
10
175.3458
20
14.1111
0
VERTEX
8
CUT
10
175.3838
20
14.0500
0
VERTEX
8
CUT
10
175.4178
20
13.9865
0
VERTEX
8
CUT
10
175.4475
20
13.9210
0
VERTEX
8
CUT
10
175.4728
20
13.8536
0
VERTEX
8
CUT
10
175.4937
20
13.7847
0
VERTEX
8
CUT
10
175.5101
20
13.7146
0
VERTEX
8
CUT
10
175.5218
20
13.6436
0
VERTEX
8
CUT
10
175.5288
20
13.5719
0
VERTEX
8
CUT
10
175.5312
20
13.5000
0
VERTEX
8
CUT
10
175.5288
20
13.4281
0
VERTEX
8
CUT
10
175.5218
20
13.3564
0
VERTEX
8
CUT
10
175.5101
20
13.2854
0
VERTEX
8
CUT
10
175.4937
20
13.2153
0
VERTEX
8
CUT
10
175.4728
20
13.1464
0
VERTEX
8
CUT
10
175.4475
20
13.0790
0
VERTEX
8
CUT
10
175.4178
20
13.0135
0
VERTEX
8
CUT
10
175.3838
20
12.9500
0
VERTEX
8
CUT
10
175.3458
20
12.8889
0
VERTEX
8
CUT
10
175.3039
20
12.8304
0
VERTEX
8
CUT
10
175.2582
20
12.7747
0
VERTEX
8
CUT
10
175.2090
20
12.7222
0
VERTEX
8
CUT
10
175.1565
20
12.6730
0
VERTEX
8
CUT
10
175.1008
20
12.6273
0
VERTEX
8
CUT
10
175.0423
20
12.5854
0
VERTEX
8
CUT
10
174.9812
20
12.5474
0
VERTEX
8
CUT
10
174.9177
20
12.5134
0
VERTEX
8
CUT
10
174.8521
20
12.4837
0
VERTEX
8
CUT
10
174.7848
20
12.4584
0
VERTEX
8
CUT
10
174.7159
20
12.4375
0
VERTEX
8
CUT
10
174.6458
20
12.4211
0
VERTEX
8
CUT
10
174.5748
20
12.4094
0
VERTEX
8
CUT
10
174.5031
20
12.4024
0
VERTEX
8
CUT
10
174.4312
20
12.4000
0
SEQEND
0
POLYLINE
8
CUT
66
1
70
1
0
VERTEX
8
CUT
10
-3.1483
20
-38.5949
0
VERTEX
8
CUT
10
-3.4753
20
-38.5842
0
VERTEX
8
CUT
10
-3.4818
20
-38.5838
0
VERTEX
8
CUT
10
-3.8074
20
-38.5517
0
VERTEX
8
CUT
10
-3.8074
20
-38.5517
0
VERTEX
8
CUT
10
-3.8139
20
-38.5509
0
VERTEX
8
CUT
10
-4.1367
20
-38.4976
0
VERTEX
8
CUT
10
-4.1432
20
-38.4963
0
VERTEX
8
CUT
10
-4.4618
20
-38.4220
0
VERTEX
8
CUT
10
-4.4681
20
-38.4203
0
VERTEX
8
CUT
10
-4.7812
20
-38.3253
0
VERTEX
8
CUT
10
-4.7874
20
-38.3232
0
VERTEX
8
CUT
10
-5.0936
20
-38.2080
0
VERTEX
8
CUT
10
-5.0997
20
-38.2055
0
VERTEX
8
CUT
10
-5.3977
20
-38.0705
0
VERTEX
8
CUT
10
-5.4036
20
-38.0676
0
VERTEX
8
CUT
10
-5.6921
20
-37.9133
0
VERTEX
8
CUT
10
-5.6978
20
-37.9100
0
VERTEX
8
CUT
10
-5.9757
20
-37.7373
0
VERTEX
8
CUT
10
-5.9757
20
-37.7373
0
VERTEX
8
CUT
10
-5.9811
20
-37.7336
0
VERTEX
8
CUT
10
-6.2471
20
-37.5431
0
VERTEX
8
CUT
10
-6.2522
20
-37.5391
0
VERTEX
8
CUT
10
-6.5052
20
-37.3315
0
VERTEX
8
CUT
10
-6.5101
20
-37.3272
0
VERTEX
8
CUT
10
-6.7489
20
-37.1035
0
VERTEX
8
CUT
10
-6.7535
20
-37.0989
0
VERTEX
8
CUT
10
-6.9772
20
-36.8601
0
VERTEX
8
CUT
10
-6.9815
20
-36.8552
0
VERTEX
8
CUT
10
-7.1891
20
-36.6022
0
VERTEX
8
CUT
10
-7.1931
20
-36.5971
0
VERTEX
8
CUT
10
-7.3836
20
-36.3311
0
VERTEX
8
CUT
10
-7.3873
20
-36.3257
0
VERTEX
8
CUT
10
-7.5600
20
-36.0478
0
VERTEX
8
CUT
10
-7.5633
20
-36.0421
0
VERTEX
8
CUT
10
-7.7176
20
-35.7536
0
VERTEX
8
CUT
10
-7.7205
20
-35.7477
0
VERTEX
8
CUT
10
-7.8555
20
-35.4497
0
VERTEX
8
CUT
10
-7.8580
20
-35.4436
0
VERTEX
8
CUT
10
-7.9732
20
-35.1374
0
VERTEX
8
CUT
10
-7.9732
20
-35.1374
0
VERTEX
8
CUT
10
-7.9753
20
-35.1312
0
VERTEX
8
CUT
10
-8.0703
20
-34.8181
0
VERTEX
8
CUT
10
-8.0720
20
-34.8118
0
VERTEX
8
CUT
10
-8.1463
20
-34.4932
0
VERTEX
8
CUT
10
-8.1476
20
-34.4867
0
VERTEX
8
CUT
10
-8.2009
20
-34.1639
0
VERTEX
8
CUT
10
-8.2017
20
-34.1574
0
VERTEX
8
CUT
10
-8.2338
20
-33.8318
0
VERTEX
8
CUT
10
-8.2342
20
-33.8253
0
VERTEX
8
CUT
10
-8.2449
20
-33.4983
0
VERTEX
8
CUT
10
-8.2450
20
-33.4950
0
VERTEX
8
CUT
10
-8.2450
20
5.3950
0
VERTEX
8
CUT
10
-8.2449
20
5.3983
0
VERTEX
8
CUT
10
-8.2342
20
5.7253
0
VERTEX
8
CUT
10
-8.2338
20
5.7318
0
VERTEX
8
CUT
10
-8.2017
20
6.0574
0
VERTEX
8
CUT
10
-8.2017
20
6.0574
0
VERTEX
8
CUT
10
-8.2009
20
6.0639
0
VERTEX
8
CUT
10
-8.1476
20
6.3867
0
VERTEX
8
CUT
10
-8.1463
20
6.3932
0
VERTEX
8
CUT
10
-8.0720
20
6.7118
0
VERTEX
8
CUT
10
-8.0703
20
6.7181
0
VERTEX
8
CUT
10
-7.9753
20
7.0312
0
VERTEX
8
CUT
10
-7.9732
20
7.0374
0
VERTEX
8
CUT
10
-7.8580
20
7.3436
0
VERTEX
8
CUT
10
-7.8555
20
7.3497
0
VERTEX
8
CUT
10
-7.7205
20
7.6477
0
VERTEX
8
CUT
10
-7.7176
20
7.6536
0
VERTEX
8
CUT
10
-7.5633
20
7.9421
0
VERTEX
8
CUT
10
-7.5600
20
7.9478
0
VERTEX
8
CUT
10
-7.3873
20
8.2257
0
VERTEX
8
CUT
10
-7.3873
20
8.2257
0
VERTEX
8
CUT
10
-7.3836
20
8.2311
0
VERTEX
8
CUT
10
-7.1931
20
8.4971
0
VERTEX
8
CUT
10
-7.1891
20
8.5022
0
VERTEX
8
CUT
10
-6.9815
20
8.7552
0
VERTEX
8
CUT
10
-6.9772
20
8.7601
0
VERTEX
8
CUT
10
-6.7535
20
8.9989
0
VERTEX
8
CUT
10
-6.7489
20
9.0035
0
VERTEX
8
CUT
10
-6.5101
20
9.2272
0
VERTEX
8
CUT
10
-6.5052
20
9.2315
0
VERTEX
8
CUT
10
-6.2522
20
9.4391
0
VERTEX
8
CUT
10
-6.2471
20
9.4431
0
VERTEX
8
CUT
10
-5.9811
20
9.6336
0
VERTEX
8
CUT
10
-5.9757
20
9.6373
0
VERTEX
8
CUT
10
-5.6978
20
9.8100
0
VERTEX
8
CUT
10
-5.6921
20
9.8133
0
VERTEX
8
CUT
10
-5.4036
20
9.9676
0
VERTEX
8
CUT
10
-5.3977
20
9.9705
0
VERTEX
8
CUT
10
-5.0997
20
10.1055
0
VERTEX
8
CUT
10
-5.0936
20
10.1080
0
VERTEX
8
CUT
10
-4.7874
20
10.2232
0
VERTEX
8
CUT
10
-4.7874
20
10.2232
0
VERTEX
8
CUT
10
-4.7812
20
10.2253
0
VERTEX
8
CUT
10
-4.4681
20
10.3203
0
VERTEX
8
CUT
10
-4.4618
20
10.3220
0
VERTEX
8
CUT
10
-4.1432
20
10.3963
0
VERTEX
8
CUT
10
-4.1367
20
10.3976
0
VERTEX
8
CUT
10
-3.8139
20
10.4509
0
VERTEX
8
CUT
10
-3.8074
20
10.4517
0
VERTEX
8
CUT
10
-3.4818
20
10.4838
0
VERTEX
8
CUT
10
-3.4753
20
10.4842
0
VERTEX
8
CUT
10
-3.1483
20
10.4949
0
VERTEX
8
CUT
10
-3.1450
20
10.4950
0
VERTEX
8
CUT
10
9.7450
20
10.4950
0
VERTEX
8
CUT
10
9.7483
20
10.4949
0
VERTEX
8
CUT
10
10.0753
20
10.4842
0
VERTEX
8
CUT
10
10.0818
20
10.4838
0
VERTEX
8
CUT
10
10.4074
20
10.4517
0
VERTEX
8
CUT
10
10.4074
20
10.4517
0
VERTEX
8
CUT
10
10.4139
20
10.4509
0
VERTEX
8
CUT
10
10.7367
20
10.3976
0
VERTEX
8
CUT
10
10.7432
20
10.3963
0
VERTEX
8
CUT
10
11.0618
20
10.3220
0
VERTEX
8
CUT
10
11.0681
20
10.3203
0
VERTEX
8
CUT
10
11.3812
20
10.2253
0
VERTEX
8
CUT
10
11.3874
20
10.2232
0
VERTEX
8
CUT
10
11.6936
20
10.1080
0
VERTEX
8
CUT
10
11.6997
20
10.1055
0
VERTEX
8
CUT
10
11.9977
20
9.9705
0
VERTEX
8
CUT
10
12.0036
20
9.9676
0
VERTEX
8
CUT
10
12.2921
20
9.8133
0
VERTEX
8
CUT
10
12.2978
20
9.8100
0
VERTEX
8
CUT
10
12.5757
20
9.6373
0
VERTEX
8
CUT
10
12.5757
20
9.6373
0
VERTEX
8
CUT
10
12.5811
20
9.6336
0
VERTEX
8
CUT
10
12.8471
20
9.4431
0
VERTEX
8
CUT
10
12.8522
20
9.4391
0
VERTEX
8
CUT
10
13.1052
20
9.2315
0
VERTEX
8
CUT
10
13.1101
20
9.2272
0
VERTEX
8
CUT
10
13.3489
20
9.0035
0
VERTEX
8
CUT
10
13.3535
20
8.9989
0
VERTEX
8
CUT
10
13.5772
20
8.7601
0
VERTEX
8
CUT
10
13.5815
20
8.7552
0
VERTEX
8
CUT
10
13.7891
20
8.5022
0
VERTEX
8
CUT
10
13.7931
20
8.4971
0
VERTEX
8
CUT
10
13.9836
20
8.2311
0
VERTEX
8
CUT
10
13.9873
20
8.2257
0
VERTEX
8
CUT
10
14.1600
20
7.9478
0
VERTEX
8
CUT
10
14.1633
20
7.9421
0
VERTEX
8
CUT
10
14.3176
20
7.6536
0
VERTEX
8
CUT
10
14.3204
20
7.6477
0
VERTEX
8
CUT
10
14.4555
20
7.3497
0
VERTEX
8
CUT
10
14.4580
20
7.3436
0
VERTEX
8
CUT
10
14.5732
20
7.0374
0
VERTEX
8
CUT
10
14.5732
20
7.0374
0
VERTEX
8
CUT
10
14.5753
20
7.0312
0
VERTEX
8
CUT
10
14.6703
20
6.7181
0
VERTEX
8
CUT
10
14.6720
20
6.7118
0
VERTEX
8
CUT
10
14.7463
20
6.3932
0
VERTEX
8
CUT
10
14.7476
20
6.3867
0
VERTEX
8
CUT
10
14.8009
20
6.0639
0
VERTEX
8
CUT
10
14.8017
20
6.0574
0
VERTEX
8
CUT
10
14.8338
20
5.7318
0
VERTEX
8
CUT
10
14.8342
20
5.7253
0
VERTEX
8
CUT
10
14.8449
20
5.3983
0
VERTEX
8
CUT
10
14.8450
20
5.3950
0
VERTEX
8
CUT
10
14.8450
20
-33.4950
0
VERTEX
8
CUT
10
14.8449
20
-33.4983
0
VERTEX
8
CUT
10
14.8342
20
-33.8253
0
VERTEX
8
CUT
10
14.8338
20
-33.8318
0
VERTEX
8
CUT
10
14.8017
20
-34.1574
0
VERTEX
8
CUT
10
14.8017
20
-34.1574
0
VERTEX
8
CUT
10
14.8009
20
-34.1639
0
VERTEX
8
CUT
10
14.7476
20
-34.4867
0
VERTEX
8
CUT
10
14.7463
20
-34.4932
0
VERTEX
8
CUT
10
14.6720
20
-34.8118
0
VERTEX
8
CUT
10
14.6703
20
-34.8181
0
VERTEX
8
CUT
10
14.5753
20
-35.1312
0
VERTEX
8
CUT
10
14.5732
20
-35.1374
0
VERTEX
8
CUT
10
14.4580
20
-35.4436
0
VERTEX
8
CUT
10
14.4555
20
-35.4497
0
VERTEX
8
CUT
10
14.3204
20
-35.7477
0
VERTEX
8
CUT
10
14.3176
20
-35.7536
0
VERTEX
8
CUT
10
14.1633
20
-36.0421
0
VERTEX
8
CUT
10
14.1600
20
-36.0478
0
VERTEX
8
CUT
10
13.9873
20
-36.3257
0
VERTEX
8
CUT
10
13.9873
20
-36.3257
0
VERTEX
8
CUT
10
13.9836
20
-36.3311
0
VERTEX
8
CUT
10
13.7931
20
-36.5971
0
VERTEX
8
CUT
10
13.7891
20
-36.6022
0
VERTEX
8
CUT
10
13.5815
20
-36.8552
0
VERTEX
8
CUT
10
13.5772
20
-36.8601
0
VERTEX
8
CUT
10
13.3535
20
-37.0989
0
VERTEX
8
CUT
10
13.3489
20
-37.1035
0
VERTEX
8
CUT
10
13.1101
20
-37.3272
0
VERTEX
8
CUT
10
13.1052
20
-37.3315
0
VERTEX
8
CUT
10
12.8522
20
-37.5391
0
VERTEX
8
CUT
10
12.8471
20
-37.5431
0
VERTEX
8
CUT
10
12.5811
20
-37.7336
0
VERTEX
8
CUT
10
12.5757
20
-37.7373
0
VERTEX
8
CUT
10
12.2978
20
-37.9100
0
VERTEX
8
CUT
10
12.2921
20
-37.9133
0
VERTEX
8
CUT
10
12.0036
20
-38.0676
0
VERTEX
8
CUT
10
11.9977
20
-38.0705
0
VERTEX
8
CUT
10
11.6997
20
-38.2055
0
VERTEX
8
CUT
10
11.6936
20
-38.2080
0
VERTEX
8
CUT
10
11.3874
20
-38.3232
0
VERTEX
8
CUT
10
11.3874
20
-38.3232
0
VERTEX
8
CUT
10
11.3812
20
-38.3253
0
VERTEX
8
CUT
10
11.0681
20
-38.4203
0
VERTEX
8
CUT
10
11.0618
20
-38.4220
0
VERTEX
8
CUT
10
10.7432
20
-38.4963
0
VERTEX
8
CUT
10
10.7367
20
-38.4976
0
VERTEX
8
CUT
10
10.4139
20
-38.5509
0
VERTEX
8
CUT
10
10.4074
20
-38.5517
0
VERTEX
8
CUT
10
10.0818
20
-38.5838
0
VERTEX
8
CUT
10
10.0753
20
-38.5842
0
VERTEX
8
CUT
10
9.7483
20
-38.5949
0
VERTEX
8
CUT
10
9.7450
20
-38.5950
0
VERTEX
8
CUT
10
-3.1450
20
-38.5950
0
SEQEND
0
POLYLINE
8
CUT
66
1
70
1
0
VERTEX
8
CUT
10
24.6500
20
-2.5250
0
VERTEX
8
CUT
10
38.6500
20
-2.5250
0
VERTEX
8
CUT
10
38.6500
20
-16.5250
0
VERTEX
8
CUT
10
24.6500
20
-16.5250
0
SEQEND
0
POLYLINE
8
CUT
66
1
70
1
0
VERTEX
8
CUT
10
43.7000
20
-2.5250
0
VERTEX
8
CUT
10
57.7000
20
-2.5250
0
VERTEX
8
CUT
10
57.7000
20
-16.5250
0
VERTEX
8
CUT
10
43.7000
20
-16.5250
0
SEQEND
0
POLYLINE
8
CUT
66
1
70
1
0
VERTEX
8
CUT
10
62.7500
20
-2.5250
0
VERTEX
8
CUT
10
76.7500
20
-2.5250
0
VERTEX
8
CUT
10
76.7500
20
-16.5250
0
VERTEX
8
CUT
10
62.7500
20
-16.5250
0
SEQEND
0
POLYLINE
8
CUT
66
1
70
1
0
VERTEX
8
CUT
10
81.8000
20
-2.5250
0
VERTEX
8
CUT
10
95.8000
20
-2.5250
0
VERTEX
8
CUT
10
95.8000
20
-16.5250
0
VERTEX
8
CUT
10
81.8000
20
-16.5250
0
SEQEND
0
POLYLINE
8
CUT
66
1
70
1
0
VERTEX
8
CUT
10
100.8500
20
-2.5250
0
VERTEX
8
CUT
10
114.8500
20
-2.5250
0
VERTEX
8
CUT
10
114.8500
20
-16.5250
0
VERTEX
8
CUT
10
100.8500
20
-16.5250
0
SEQEND
0
POLYLINE
8
CUT
66
1
70
1
0
VERTEX
8
CUT
10
119.9000
20
-2.5250
0
VERTEX
8
CUT
10
133.9000
20
-2.5250
0
VERTEX
8
CUT
10
133.9000
20
-16.5250
0
VERTEX
8
CUT
10
119.9000
20
-16.5250
0
SEQEND
0
POLYLINE
8
CUT
66
1
70
1
0
VERTEX
8
CUT
10
138.9500
20
-2.5250
0
VERTEX
8
CUT
10
152.9500
20
-2.5250
0
VERTEX
8
CUT
10
152.9500
20
-16.5250
0
VERTEX
8
CUT
10
138.9500
20
-16.5250
0
SEQEND
0
POLYLINE
8
CUT
66
1
70
1
0
VERTEX
8
CUT
10
201.0031
20
-14.2414
0
VERTEX
8
CUT
10
200.9314
20
-14.2344
0
VERTEX
8
CUT
10
200.8604
20
-14.2227
0
VERTEX
8
CUT
10
200.7903
20
-14.2063
0
VERTEX
8
CUT
10
200.7214
20
-14.1854
0
VERTEX
8
CUT
10
200.6540
20
-14.1601
0
VERTEX
8
CUT
10
200.5885
20
-14.1304
0
VERTEX
8
CUT
10
200.5250
20
-14.0964
0
VERTEX
8
CUT
10
200.4639
20
-14.0584
0
VERTEX
8
CUT
10
200.4054
20
-14.0165
0
VERTEX
8
CUT
10
200.3497
20
-13.9708
0
VERTEX
8
CUT
10
200.2972
20
-13.9216
0
VERTEX
8
CUT
10
200.2480
20
-13.8691
0
VERTEX
8
CUT
10
200.2023
20
-13.8134
0
VERTEX
8
CUT
10
200.1604
20
-13.7549
0
VERTEX
8
CUT
10
200.1224
20
-13.6938
0
VERTEX
8
CUT
10
200.0884
20
-13.6303
0
VERTEX
8
CUT
10
200.0587
20
-13.5648
0
VERTEX
8
CUT
10
200.0334
20
-13.4974
0
VERTEX
8
CUT
10
200.0125
20
-13.4285
0
VERTEX
8
CUT
10
199.9961
20
-13.3584
0
VERTEX
8
CUT
10
199.9844
20
-13.2874
0
VERTEX
8
CUT
10
199.9774
20
-13.2157
0
VERTEX
8
CUT
10
199.9750
20
-13.1438
0
VERTEX
8
CUT
10
199.9774
20
-13.0719
0
VERTEX
8
CUT
10
199.9844
20
-13.0002
0
VERTEX
8
CUT
10
199.9961
20
-12.9292
0
VERTEX
8
CUT
10
200.0125
20
-12.8591
0
VERTEX
8
CUT
10
200.0334
20
-12.7902
0
VERTEX
8
CUT
10
200.0587
20
-12.7229
0
VERTEX
8
CUT
10
200.0884
20
-12.6573
0
VERTEX
8
CUT
10
200.1224
20
-12.5938
0
VERTEX
8
CUT
10
200.1604
20
-12.5327
0
VERTEX
8
CUT
10
200.2023
20
-12.4742
0
VERTEX
8
CUT
10
200.2480
20
-12.4185
0
VERTEX
8
CUT
10
200.2972
20
-12.3660
0
VERTEX
8
CUT
10
200.3497
20
-12.3168
0
VERTEX
8
CUT
10
200.4054
20
-12.2711
0
VERTEX
8
CUT
10
200.4639
20
-12.2292
0
VERTEX
8
CUT
10
200.5250
20
-12.1912
0
VERTEX
8
CUT
10
200.5885
20
-12.1572
0
VERTEX
8
CUT
10
200.6540
20
-12.1275
0
VERTEX
8
CUT
10
200.7214
20
-12.1022
0
VERTEX
8
CUT
10
200.7903
20
-12.0813
0
VERTEX
8
CUT
10
200.8604
20
-12.0649
0
VERTEX
8
CUT
10
200.9314
20
-12.0532
0
VERTEX
8
CUT
10
201.0031
20
-12.0462
0
VERTEX
8
CUT
10
201.0750
20
-12.0438
0
VERTEX
8
CUT
10
201.1469
20
-12.0462
0
VERTEX
8
CUT
10
201.2186
20
-12.0532
0
VERTEX
8
CUT
10
201.2896
20
-12.0649
0
VERTEX
8
CUT
10
201.3597
20
-12.0813
0
VERTEX
8
CUT
10
201.4286
20
-12.1022
0
VERTEX
8
CUT
10
201.4960
20
-12.1275
0
VERTEX
8
CUT
10
201.5615
20
-12.1572
0
VERTEX
8
CUT
10
201.6250
20
-12.1912
0
VERTEX
8
CUT
10
201.6861
20
-12.2292
0
VERTEX
8
CUT
10
201.7446
20
-12.2711
0
VERTEX
8
CUT
10
201.8003
20
-12.3168
0
VERTEX
8
CUT
10
201.8528
20
-12.3660
0
VERTEX
8
CUT
10
201.9020
20
-12.4185
0
VERTEX
8
CUT
10
201.9477
20
-12.4742
0
VERTEX
8
CUT
10
201.9896
20
-12.5327
0
VERTEX
8
CUT
10
202.0276
20
-12.5938
0
VERTEX
8
CUT
10
202.0616
20
-12.6573
0
VERTEX
8
CUT
10
202.0913
20
-12.7229
0
VERTEX
8
CUT
10
202.1166
20
-12.7902
0
VERTEX
8
CUT
10
202.1375
20
-12.8591
0
VERTEX
8
CUT
10
202.1539
20
-12.9292
0
VERTEX
8
CUT
10
202.1656
20
-13.0002
0
VERTEX
8
CUT
10
202.1726
20
-13.0719
0
VERTEX
8
CUT
10
202.1750
20
-13.1438
0
VERTEX
8
CUT
10
202.1726
20
-13.2157
0
VERTEX
8
CUT
10
202.1656
20
-13.2874
0
VERTEX
8
CUT
10
202.1539
20
-13.3584
0
VERTEX
8
CUT
10
202.1375
20
-13.4285
0
VERTEX
8
CUT
10
202.1166
20
-13.4974
0
VERTEX
8
CUT
10
202.0913
20
-13.5648
0
VERTEX
8
CUT
10
202.0616
20
-13.6303
0
VERTEX
8
CUT
10
202.0276
20
-13.6938
0
VERTEX
8
CUT
10
201.9896
20
-13.7549
0
VERTEX
8
CUT
10
201.9477
20
-13.8134
0
VERTEX
8
CUT
10
201.9020
20
-13.8691
0
VERTEX
8
CUT
10
201.8528
20
-13.9216
0
VERTEX
8
CUT
10
201.8003
20
-13.9708
0
VERTEX
8
CUT
10
201.7446
20
-14.0165
0
VERTEX
8
CUT
10
201.6861
20
-14.0584
0
VERTEX
8
CUT
10
201.6250
20
-14.0964
0
VERTEX
8
CUT
10
201.5615
20
-14.1304
0
VERTEX
8
CUT
10
201.4960
20
-14.1601
0
VERTEX
8
CUT
10
201.4286
20
-14.1854
0
VERTEX
8
CUT
10
201.3597
20
-14.2063
0
VERTEX
8
CUT
10
201.2896
20
-14.2227
0
VERTEX
8
CUT
10
201.2186
20
-14.2344
0
VERTEX
8
CUT
10
201.1469
20
-14.2414
0
VERTEX
8
CUT
10
201.0750
20
-14.2438
0
SEQEND
0
POLYLINE
8
CUT
66
1
70
1
0
VERTEX
8
CUT
10
159.0870
20
-21.3750
0
VERTEX
8
CUT
10
166.0870
20
-21.3750
0
VERTEX
8
CUT
10
166.0870
20
-36.7750
0
VERTEX
8
CUT
10
159.0870
20
-36.7750
0
SEQEND
0
POLYLINE
8
CUT
66
1
70
1
0
VERTEX
8
CUT
10
182.9630
20
-21.3750
0
VERTEX
8
CUT
10
189.9630
20
-21.3750
0
VERTEX
8
CUT
10
189.9630
20
-36.7750
0
VERTEX
8
CUT
10
182.9630
20
-36.7750
0
SEQEND
0
POLYLINE
8
CUT
66
1
70
1
0
VERTEX
8
CUT
10
24.6500
20
-21.5750
0
VERTEX
8
CUT
10
38.6500
20
-21.5750
0
VERTEX
8
CUT
10
38.6500
20
-35.5750
0
VERTEX
8
CUT
10
24.6500
20
-35.5750
0
SEQEND
0
POLYLINE
8
CUT
66
1
70
1
0
VERTEX
8
CUT
10
43.7000
20
-21.5750
0
VERTEX
8
CUT
10
57.7000
20
-21.5750
0
VERTEX
8
CUT
10
57.7000
20
-35.5750
0
VERTEX
8
CUT
10
43.7000
20
-35.5750
0
SEQEND
0
POLYLINE
8
CUT
66
1
70
1
0
VERTEX
8
CUT
10
62.7500
20
-21.5750
0
VERTEX
8
CUT
10
76.7500
20
-21.5750
0
VERTEX
8
CUT
10
76.7500
20
-35.5750
0
VERTEX
8
CUT
10
62.7500
20
-35.5750
0
SEQEND
0
POLYLINE
8
CUT
66
1
70
1
0
VERTEX
8
CUT
10
81.8000
20
-21.5750
0
VERTEX
8
CUT
10
95.8000
20
-21.5750
0
VERTEX
8
CUT
10
95.8000
20
-35.5750
0
VERTEX
8
CUT
10
81.8000
20
-35.5750
0
SEQEND
0
POLYLINE
8
CUT
66
1
70
1
0
VERTEX
8
CUT
10
100.8500
20
-21.5750
0
VERTEX
8
CUT
10
114.8500
20
-21.5750
0
VERTEX
8
CUT
10
114.8500
20
-35.5750
0
VERTEX
8
CUT
10
100.8500
20
-35.5750
0
SEQEND
0
POLYLINE
8
CUT
66
1
70
1
0
VERTEX
8
CUT
10
119.9000
20
-21.5750
0
VERTEX
8
CUT
10
133.9000
20
-21.5750
0
VERTEX
8
CUT
10
133.9000
20
-35.5750
0
VERTEX
8
CUT
10
119.9000
20
-35.5750
0
SEQEND
0
POLYLINE
8
CUT
66
1
70
1
0
VERTEX
8
CUT
10
138.9500
20
-21.5750
0
VERTEX
8
CUT
10
152.9500
20
-21.5750
0
VERTEX
8
CUT
10
152.9500
20
-35.5750
0
VERTEX
8
CUT
10
138.9500
20
-35.5750
0
SEQEND
0
POLYLINE
8
CUT
66
1
70
1
0
VERTEX
8
CUT
10
167.5250
20
-21.5750
0
VERTEX
8
CUT
10
181.5250
20
-21.5750
0
VERTEX
8
CUT
10
181.5250
20
-35.5750
0
VERTEX
8
CUT
10
167.5250
20
-35.5750
0
SEQEND
0
POLYLINE
8
CUT
66
1
70
1
0
VERTEX
8
CUT
10
15.1250
20
-40.6250
0
VERTEX
8
CUT
10
29.1250
20
-40.6250
0
VERTEX
8
CUT
10
29.1250
20
-54.6250
0
VERTEX
8
CUT
10
15.1250
20
-54.6250
0
SEQEND
0
POLYLINE
8
CUT
66
1
70
1
0
VERTEX
8
CUT
10
34.1750
20
-40.6250
0
VERTEX
8
CUT
10
48.1750
20
-40.6250
0
VERTEX
8
CUT
10
48.1750
20
-54.6250
0
VERTEX
8
CUT
10
34.1750
20
-54.6250
0
SEQEND
0
POLYLINE
8
CUT
66
1
70
1
0
VERTEX
8
CUT
10
53.2250
20
-40.6250
0
VERTEX
8
CUT
10
67.2250
20
-40.6250
0
VERTEX
8
CUT
10
67.2250
20
-54.6250
0
VERTEX
8
CUT
10
53.2250
20
-54.6250
0
SEQEND
0
POLYLINE
8
CUT
66
1
70
1
0
VERTEX
8
CUT
10
72.2750
20
-40.6250
0
VERTEX
8
CUT
10
86.2750
20
-40.6250
0
VERTEX
8
CUT
10
86.2750
20
-54.6250
0
VERTEX
8
CUT
10
72.2750
20
-54.6250
0
SEQEND
0
POLYLINE
8
CUT
66
1
70
1
0
VERTEX
8
CUT
10
91.3250
20
-40.6250
0
VERTEX
8
CUT
10
105.3250
20
-40.6250
0
VERTEX
8
CUT
10
105.3250
20
-54.6250
0
VERTEX
8
CUT
10
91.3250
20
-54.6250
0
SEQEND
0
POLYLINE
8
CUT
66
1
70
1
0
VERTEX
8
CUT
10
110.3750
20
-40.6250
0
VERTEX
8
CUT
10
124.3750
20
-40.6250
0
VERTEX
8
CUT
10
124.3750
20
-54.6250
0
VERTEX
8
CUT
10
110.3750
20
-54.6250
0
SEQEND
0
POLYLINE
8
CUT
66
1
70
1
0
VERTEX
8
CUT
10
129.4250
20
-40.6250
0
VERTEX
8
CUT
10
143.4250
20
-40.6250
0
VERTEX
8
CUT
10
143.4250
20
-54.6250
0
VERTEX
8
CUT
10
129.4250
20
-54.6250
0
SEQEND
0
POLYLINE
8
CUT
66
1
70
1
0
VERTEX
8
CUT
10
148.4750
20
-40.6250
0
VERTEX
8
CUT
10
162.4750
20
-40.6250
0
VERTEX
8
CUT
10
162.4750
20
-54.6250
0
VERTEX
8
CUT
10
148.4750
20
-54.6250
0
SEQEND
0
POLYLINE
8
CUT
66
1
70
1
0
VERTEX
8
CUT
10
172.2870
20
-40.6250
0
VERTEX
8
CUT
10
186.2870
20
-40.6250
0
VERTEX
8
CUT
10
186.2870
20
-54.6250
0
VERTEX
8
CUT
10
172.2870
20
-54.6250
0
SEQEND
0
POLYLINE
8
CUT
66
1
70
1
0
VERTEX
8
CUT
10
-7.5719
20
-55.2476
0
VERTEX
8
CUT
10
-7.6436
20
-55.2406
0
VERTEX
8
CUT
10
-7.7146
20
-55.2289
0
VERTEX
8
CUT
10
-7.7847
20
-55.2125
0
VERTEX
8
CUT
10
-7.8536
20
-55.1916
0
VERTEX
8
CUT
10
-7.9210
20
-55.1663
0
VERTEX
8
CUT
10
-7.9865
20
-55.1366
0
VERTEX
8
CUT
10
-8.0500
20
-55.1026
0
VERTEX
8
CUT
10
-8.1111
20
-55.0646
0
VERTEX
8
CUT
10
-8.1696
20
-55.0227
0
VERTEX
8
CUT
10
-8.2253
20
-54.9770
0
VERTEX
8
CUT
10
-8.2778
20
-54.9278
0
VERTEX
8
CUT
10
-8.3270
20
-54.8753
0
VERTEX
8
CUT
10
-8.3727
20
-54.8196
0
VERTEX
8
CUT
10
-8.4146
20
-54.7611
0
VERTEX
8
CUT
10
-8.4526
20
-54.7000
0
VERTEX
8
CUT
10
-8.4866
20
-54.6365
0
VERTEX
8
CUT
10
-8.5163
20
-54.5710
0
VERTEX
8
CUT
10
-8.5416
20
-54.5036
0
VERTEX
8
CUT
10
-8.5625
20
-54.4347
0
VERTEX
8
CUT
10
-8.5789
20
-54.3646
0
VERTEX
8
CUT
10
-8.5906
20
-54.2936
0
VERTEX
8
CUT
10
-8.5976
20
-54.2219
0
VERTEX
8
CUT
10
-8.6000
20
-54.1500
0
VERTEX
8
CUT
10
-8.5976
20
-54.0781
0
VERTEX
8
CUT
10
-8.5906
20
-54.0064
0
VERTEX
8
CUT
10
-8.5789
20
-53.9354
0
VERTEX
8
CUT
10
-8.5625
20
-53.8653
0
VERTEX
8
CUT
10
-8.5416
20
-53.7964
0
VERTEX
8
CUT
10
-8.5163
20
-53.7290
0
VERTEX
8
CUT
10
-8.4866
20
-53.6635
0
VERTEX
8
CUT
10
-8.4526
20
-53.6000
0
VERTEX
8
CUT
10
-8.4146
20
-53.5389
0
VERTEX
8
CUT
10
-8.3727
20
-53.4804
0
VERTEX
8
CUT
10
-8.3270
20
-53.4247
0
VERTEX
8
CUT
10
-8.2778
20
-53.3722
0
VERTEX
8
CUT
10
-8.2253
20
-53.3230
0
VERTEX
8
CUT
10
-8.1696
20
-53.2773
0
VERTEX
8
CUT
10
-8.1111
20
-53.2354
0
VERTEX
8
CUT
10
-8.0500
20
-53.1974
0
VERTEX
8
CUT
10
-7.9865
20
-53.1634
0
VERTEX
8
CUT
10
-7.9210
20
-53.1337
0
VERTEX
8
CUT
10
-7.8536
20
-53.1084
0
VERTEX
8
CUT
10
-7.7847
20
-53.0875
0
VERTEX
8
CUT
10
-7.7146
20
-53.0711
0
VERTEX
8
CUT
10
-7.6436
20
-53.0594
0
VERTEX
8
CUT
10
-7.5719
20
-53.0524
0
VERTEX
8
CUT
10
-7.5000
20
-53.0500
0
VERTEX
8
CUT
10
-7.4281
20
-53.0524
0
VERTEX
8
CUT
10
-7.3564
20
-53.0594
0
VERTEX
8
CUT
10
-7.2854
20
-53.0711
0
VERTEX
8
CUT
10
-7.2153
20
-53.0875
0
VERTEX
8
CUT
10
-7.1464
20
-53.1084
0
VERTEX
8
CUT
10
-7.0790
20
-53.1337
0
VERTEX
8
CUT
10
-7.0135
20
-53.1634
0
VERTEX
8
CUT
10
-6.9500
20
-53.1974
0
VERTEX
8
CUT
10
-6.8889
20
-53.2354
0
VERTEX
8
CUT
10
-6.8304
20
-53.2773
0
VERTEX
8
CUT
10
-6.7747
20
-53.3230
0
VERTEX
8
CUT
10
-6.7222
20
-53.3722
0
VERTEX
8
CUT
10
-6.6730
20
-53.4247
0
VERTEX
8
CUT
10
-6.6273
20
-53.4804
0
VERTEX
8
CUT
10
-6.5854
20
-53.5389
0
VERTEX
8
CUT
10
-6.5474
20
-53.6000
0
VERTEX
8
CUT
10
-6.5134
20
-53.6635
0
VERTEX
8
CUT
10
-6.4837
20
-53.7290
0
VERTEX
8
CUT
10
-6.4584
20
-53.7964
0
VERTEX
8
CUT
10
-6.4375
20
-53.8653
0
VERTEX
8
CUT
10
-6.4211
20
-53.9354
0
VERTEX
8
CUT
10
-6.4094
20
-54.0064
0
VERTEX
8
CUT
10
-6.4024
20
-54.0781
0
VERTEX
8
CUT
10
-6.4000
20
-54.1500
0
VERTEX
8
CUT
10
-6.4024
20
-54.2219
0
VERTEX
8
CUT
10
-6.4094
20
-54.2936
0
VERTEX
8
CUT
10
-6.4211
20
-54.3646
0
VERTEX
8
CUT
10
-6.4375
20
-54.4347
0
VERTEX
8
CUT
10
-6.4584
20
-54.5036
0
VERTEX
8
CUT
10
-6.4837
20
-54.5710
0
VERTEX
8
CUT
10
-6.5134
20
-54.6365
0
VERTEX
8
CUT
10
-6.5474
20
-54.7000
0
VERTEX
8
CUT
10
-6.5854
20
-54.7611
0
VERTEX
8
CUT
10
-6.6273
20
-54.8196
0
VERTEX
8
CUT
10
-6.6730
20
-54.8753
0
VERTEX
8
CUT
10
-6.7222
20
-54.9278
0
VERTEX
8
CUT
10
-6.7747
20
-54.9770
0
VERTEX
8
CUT
10
-6.8304
20
-55.0227
0
VERTEX
8
CUT
10
-6.8889
20
-55.0646
0
VERTEX
8
CUT
10
-6.9500
20
-55.1026
0
VERTEX
8
CUT
10
-7.0135
20
-55.1366
0
VERTEX
8
CUT
10
-7.0790
20
-55.1663
0
VERTEX
8
CUT
10
-7.1464
20
-55.1916
0
VERTEX
8
CUT
10
-7.2153
20
-55.2125
0
VERTEX
8
CUT
10
-7.2854
20
-55.2289
0
VERTEX
8
CUT
10
-7.3564
20
-55.2406
0
VERTEX
8
CUT
10
-7.4281
20
-55.2476
0
VERTEX
8
CUT
10
-7.5000
20
-55.2500
0
SEQEND
0
POLYLINE
8
CUT
66
1
70
1
0
VERTEX
8
CUT
10
201.0031
20
-55.2476
0
VERTEX
8
CUT
10
200.9314
20
-55.2406
0
VERTEX
8
CUT
10
200.8604
20
-55.2289
0
VERTEX
8
CUT
10
200.7903
20
-55.2125
0
VERTEX
8
CUT
10
200.7214
20
-55.1916
0
VERTEX
8
CUT
10
200.6540
20
-55.1663
0
VERTEX
8
CUT
10
200.5885
20
-55.1366
0
VERTEX
8
CUT
10
200.5250
20
-55.1026
0
VERTEX
8
CUT
10
200.4639
20
-55.0646
0
VERTEX
8
CUT
10
200.4054
20
-55.0227
0
VERTEX
8
CUT
10
200.3497
20
-54.9770
0
VERTEX
8
CUT
10
200.2972
20
-54.9278
0
VERTEX
8
CUT
10
200.2480
20
-54.8753
0
VERTEX
8
CUT
10
200.2023
20
-54.8196
0
VERTEX
8
CUT
10
200.1604
20
-54.7611
0
VERTEX
8
CUT
10
200.1224
20
-54.7000
0
VERTEX
8
CUT
10
200.0884
20
-54.6365
0
VERTEX
8
CUT
10
200.0587
20
-54.5710
0
VERTEX
8
CUT
10
200.0334
20
-54.5036
0
VERTEX
8
CUT
10
200.0125
20
-54.4347
0
VERTEX
8
CUT
10
199.9961
20
-54.3646
0
VERTEX
8
CUT
10
199.9844
20
-54.2936
0
VERTEX
8
CUT
10
199.9774
20
-54.2219
0
VERTEX
8
CUT
10
199.9750
20
-54.1500
0
VERTEX
8
CUT
10
199.9774
20
-54.0781
0
VERTEX
8
CUT
10
199.9844
20
-54.0064
0
VERTEX
8
CUT
10
199.9961
20
-53.9354
0
VERTEX
8
CUT
10
200.0125
20
-53.8653
0
VERTEX
8
CUT
10
200.0334
20
-53.7964
0
VERTEX
8
CUT
10
200.0587
20
-53.7290
0
VERTEX
8
CUT
10
200.0884
20
-53.6635
0
VERTEX
8
CUT
10
200.1224
20
-53.6000
0
VERTEX
8
CUT
10
200.1604
20
-53.5389
0
VERTEX
8
CUT
10
200.2023
20
-53.4804
0
VERTEX
8
CUT
10
200.2480
20
-53.4247
0
VERTEX
8
CUT
10
200.2972
20
-53.3722
0
VERTEX
8
CUT
10
200.3497
20
-53.3230
0
VERTEX
8
CUT
10
200.4054
20
-53.2773
0
VERTEX
8
CUT
10
200.4639
20
-53.2354
0
VERTEX
8
CUT
10
200.5250
20
-53.1974
0
VERTEX
8
CUT
10
200.5885
20
-53.1634
0
VERTEX
8
CUT
10
200.6540
20
-53.1337
0
VERTEX
8
CUT
10
200.7214
20
-53.1084
0
VERTEX
8
CUT
10
200.7903
20
-53.0875
0
VERTEX
8
CUT
10
200.8604
20
-53.0711
0
VERTEX
8
CUT
10
200.9314
20
-53.0594
0
VERTEX
8
CUT
10
201.0031
20
-53.0524
0
VERTEX
8
CUT
10
201.0750
20
-53.0500
0
VERTEX
8
CUT
10
201.1469
20
-53.0524
0
VERTEX
8
CUT
10
201.2186
20
-53.0594
0
VERTEX
8
CUT
10
201.2896
20
-53.0711
0
VERTEX
8
CUT
10
201.3597
20
-53.0875
0
VERTEX
8
CUT
10
201.4286
20
-53.1084
0
VERTEX
8
CUT
10
201.4960
20
-53.1337
0
VERTEX
8
CUT
10
201.5615
20
-53.1634
0
VERTEX
8
CUT
10
201.6250
20
-53.1974
0
VERTEX
8
CUT
10
201.6861
20
-53.2354
0
VERTEX
8
CUT
10
201.7446
20
-53.2773
0
VERTEX
8
CUT
10
201.8003
20
-53.3230
0
VERTEX
8
CUT
10
201.8528
20
-53.3722
0
VERTEX
8
CUT
10
201.9020
20
-53.4247
0
VERTEX
8
CUT
10
201.9477
20
-53.4804
0
VERTEX
8
CUT
10
201.9896
20
-53.5389
0
VERTEX
8
CUT
10
202.0276
20
-53.6000
0
VERTEX
8
CUT
10
202.0616
20
-53.6635
0
VERTEX
8
CUT
10
202.0913
20
-53.7290
0
VERTEX
8
CUT
10
202.1166
20
-53.7964
0
VERTEX
8
CUT
10
202.1375
20
-53.8653
0
VERTEX
8
CUT
10
202.1539
20
-53.9354
0
VERTEX
8
CUT
10
202.1656
20
-54.0064
0
VERTEX
8
CUT
10
202.1726
20
-54.0781
0
VERTEX
8
CUT
10
202.1750
20
-54.1500
0
VERTEX
8
CUT
10
202.1726
20
-54.2219
0
VERTEX
8
CUT
10
202.1656
20
-54.2936
0
VERTEX
8
CUT
10
202.1539
20
-54.3646
0
VERTEX
8
CUT
10
202.1375
20
-54.4347
0
VERTEX
8
CUT
10
202.1166
20
-54.5036
0
VERTEX
8
CUT
10
202.0913
20
-54.5710
0
VERTEX
8
CUT
10
202.0616
20
-54.6365
0
VERTEX
8
CUT
10
202.0276
20
-54.7000
0
VERTEX
8
CUT
10
201.9896
20
-54.7611
0
VERTEX
8
CUT
10
201.9477
20
-54.8196
0
VERTEX
8
CUT
10
201.9020
20
-54.8753
0
VERTEX
8
CUT
10
201.8528
20
-54.9278
0
VERTEX
8
CUT
10
201.8003
20
-54.9770
0
VERTEX
8
CUT
10
201.7446
20
-55.0227
0
VERTEX
8
CUT
10
201.6861
20
-55.0646
0
VERTEX
8
CUT
10
201.6250
20
-55.1026
0
VERTEX
8
CUT
10
201.5615
20
-55.1366
0
VERTEX
8
CUT
10
201.4960
20
-55.1663
0
VERTEX
8
CUT
10
201.4286
20
-55.1916
0
VERTEX
8
CUT
10
201.3597
20
-55.2125
0
VERTEX
8
CUT
10
201.2896
20
-55.2289
0
VERTEX
8
CUT
10
201.2186
20
-55.2406
0
VERTEX
8
CUT
10
201.1469
20
-55.2476
0
VERTEX
8
CUT
10
201.0750
20
-55.2500
0
SEQEND
0
POLYLINE
8
CUT
66
1
70
1
0
VERTEX
8
CUT
10
156.7060
20
-59.4750
0
VERTEX
8
CUT
10
163.7060
20
-59.4750
0
VERTEX
8
CUT
10
163.7060
20
-74.8750
0
VERTEX
8
CUT
10
156.7060
20
-74.8750
0
SEQEND
0
POLYLINE
8
CUT
66
1
70
1
0
VERTEX
8
CUT
10
180.5820
20
-59.4750
0
VERTEX
8
CUT
10
187.5820
20
-59.4750
0
VERTEX
8
CUT
10
187.5820
20
-74.8750
0
VERTEX
8
CUT
10
180.5820
20
-74.8750
0
SEQEND
0
POLYLINE
8
CUT
66
1
70
1
0
VERTEX
8
CUT
10
19.8870
20
-59.6750
0
VERTEX
8
CUT
10
33.8870
20
-59.6750
0
VERTEX
8
CUT
10
33.8870
20
-73.6750
0
VERTEX
8
CUT
10
19.8870
20
-73.6750
0
SEQEND
0
POLYLINE
8
CUT
66
1
70
1
0
VERTEX
8
CUT
10
38.9380
20
-59.6750
0
VERTEX
8
CUT
10
52.9380
20
-59.6750
0
VERTEX
8
CUT
10
52.9380
20
-73.6750
0
VERTEX
8
CUT
10
38.9380
20
-73.6750
0
SEQEND
0
POLYLINE
8
CUT
66
1
70
1
0
VERTEX
8
CUT
10
57.9870
20
-59.6750
0
VERTEX
8
CUT
10
71.9870
20
-59.6750
0
VERTEX
8
CUT
10
71.9870
20
-73.6750
0
VERTEX
8
CUT
10
57.9870
20
-73.6750
0
SEQEND
0
POLYLINE
8
CUT
66
1
70
1
0
VERTEX
8
CUT
10
77.0370
20
-59.6750
0
VERTEX
8
CUT
10
91.0370
20
-59.6750
0
VERTEX
8
CUT
10
91.0370
20
-73.6750
0
VERTEX
8
CUT
10
77.0370
20
-73.6750
0
SEQEND
0
POLYLINE
8
CUT
66
1
70
1
0
VERTEX
8
CUT
10
96.0880
20
-59.6750
0
VERTEX
8
CUT
10
110.0880
20
-59.6750
0
VERTEX
8
CUT
10
110.0880
20
-73.6750
0
VERTEX
8
CUT
10
96.0880
20
-73.6750
0
SEQEND
0
POLYLINE
8
CUT
66
1
70
1
0
VERTEX
8
CUT
10
115.1380
20
-59.6750
0
VERTEX
8
CUT
10
129.1380
20
-59.6750
0
VERTEX
8
CUT
10
129.1380
20
-73.6750
0
VERTEX
8
CUT
10
115.1380
20
-73.6750
0
SEQEND
0
POLYLINE
8
CUT
66
1
70
1
0
VERTEX
8
CUT
10
134.1870
20
-59.6750
0
VERTEX
8
CUT
10
148.1870
20
-59.6750
0
VERTEX
8
CUT
10
148.1870
20
-73.6750
0
VERTEX
8
CUT
10
134.1870
20
-73.6750
0
SEQEND
0
POLYLINE
8
CUT
66
1
70
1
0
VERTEX
8
CUT
10
165.1440
20
-59.6750
0
VERTEX
8
CUT
10
179.1440
20
-59.6750
0
VERTEX
8
CUT
10
179.1440
20
-73.6750
0
VERTEX
8
CUT
10
165.1440
20
-73.6750
0
SEQEND
0
POLYLINE
8
CUT
66
1
70
1
0
VERTEX
8
CUT
10
29.4120
20
-78.7250
0
VERTEX
8
CUT
10
43.4120
20
-78.7250
0
VERTEX
8
CUT
10
43.4120
20
-92.7250
0
VERTEX
8
CUT
10
29.4120
20
-92.7250
0
SEQEND
0
POLYLINE
8
CUT
66
1
70
1
0
VERTEX
8
CUT
10
48.4630
20
-78.7250
0
VERTEX
8
CUT
10
62.4630
20
-78.7250
0
VERTEX
8
CUT
10
62.4630
20
-92.7250
0
VERTEX
8
CUT
10
48.4630
20
-92.7250
0
SEQEND
0
POLYLINE
8
CUT
66
1
70
1
0
VERTEX
8
CUT
10
67.5120
20
-78.7250
0
VERTEX
8
CUT
10
81.5120
20
-78.7250
0
VERTEX
8
CUT
10
81.5120
20
-92.7250
0
VERTEX
8
CUT
10
67.5120
20
-92.7250
0
SEQEND
0
POLYLINE
8
CUT
66
1
70
1
0
VERTEX
8
CUT
10
86.5620
20
-78.7250
0
VERTEX
8
CUT
10
100.5620
20
-78.7250
0
VERTEX
8
CUT
10
100.5620
20
-92.7250
0
VERTEX
8
CUT
10
86.5620
20
-92.7250
0
SEQEND
0
POLYLINE
8
CUT
66
1
70
1
0
VERTEX
8
CUT
10
105.6120
20
-78.7250
0
VERTEX
8
CUT
10
119.6120
20
-78.7250
0
VERTEX
8
CUT
10
119.6120
20
-92.7250
0
VERTEX
8
CUT
10
105.6120
20
-92.7250
0
SEQEND
0
POLYLINE
8
CUT
66
1
70
1
0
VERTEX
8
CUT
10
124.6620
20
-78.7250
0
VERTEX
8
CUT
10
138.6620
20
-78.7250
0
VERTEX
8
CUT
10
138.6620
20
-92.7250
0
VERTEX
8
CUT
10
124.6620
20
-92.7250
0
SEQEND
0
POLYLINE
8
CUT
66
1
70
1
0
VERTEX
8
CUT
10
158.0000
20
-78.7250
0
VERTEX
8
CUT
10
172.0000
20
-78.7250
0
VERTEX
8
CUT
10
172.0000
20
-92.7250
0
VERTEX
8
CUT
10
158.0000
20
-92.7250
0
SEQEND
0
POLYLINE
8
CUT
66
1
70
1
0
VERTEX
8
CUT
10
177.0500
20
-78.7250
0
VERTEX
8
CUT
10
191.0500
20
-78.7250
0
VERTEX
8
CUT
10
191.0500
20
-92.7250
0
VERTEX
8
CUT
10
177.0500
20
-92.7250
0
SEQEND
0
POLYLINE
8
CUT
66
1
70
1
0
VERTEX
8
CUT
10
29.4120
20
-97.7750
0
VERTEX
8
CUT
10
43.4120
20
-97.7750
0
VERTEX
8
CUT
10
43.4120
20
-111.7750
0
VERTEX
8
CUT
10
29.4120
20
-111.7750
0
SEQEND
0
POLYLINE
8
CUT
66
1
70
1
0
VERTEX
8
CUT
10
48.4630
20
-97.7750
0
VERTEX
8
CUT
10
62.4630
20
-97.7750
0
VERTEX
8
CUT
10
62.4630
20
-111.7750
0
VERTEX
8
CUT
10
48.4630
20
-111.7750
0
SEQEND
0
POLYLINE
8
CUT
66
1
70
1
0
VERTEX
8
CUT
10
67.5120
20
-97.7750
0
VERTEX
8
CUT
10
81.5120
20
-97.7750
0
VERTEX
8
CUT
10
81.5120
20
-111.7750
0
VERTEX
8
CUT
10
67.5120
20
-111.7750
0
SEQEND
0
POLYLINE
8
CUT
66
1
70
1
0
VERTEX
8
CUT
10
88.9440
20
-97.7750
0
VERTEX
8
CUT
10
102.9440
20
-97.7750
0
VERTEX
8
CUT
10
102.9440
20
-111.7750
0
VERTEX
8
CUT
10
88.9440
20
-111.7750
0
SEQEND
0
POLYLINE
8
CUT
66
1
70
1
0
VERTEX
8
CUT
10
112.7560
20
-97.7750
0
VERTEX
8
CUT
10
126.7560
20
-97.7750
0
VERTEX
8
CUT
10
126.7560
20
-111.7750
0
VERTEX
8
CUT
10
112.7560
20
-111.7750
0
SEQEND
0
POLYLINE
8
CUT
66
1
70
1
0
VERTEX
8
CUT
10
138.9500
20
-97.7750
0
VERTEX
8
CUT
10
152.9500
20
-97.7750
0
VERTEX
8
CUT
10
152.9500
20
-111.7750
0
VERTEX
8
CUT
10
138.9500
20
-111.7750
0
SEQEND
0
POLYLINE
8
CUT
66
1
70
1
0
VERTEX
8
CUT
10
158.0000
20
-97.7750
0
VERTEX
8
CUT
10
172.0000
20
-97.7750
0
VERTEX
8
CUT
10
172.0000
20
-111.7750
0
VERTEX
8
CUT
10
158.0000
20
-111.7750
0
SEQEND
0
POLYLINE
8
CUT
66
1
70
1
0
VERTEX
8
CUT
10
177.0500
20
-97.7750
0
VERTEX
8
CUT
10
191.0500
20
-97.7750
0
VERTEX
8
CUT
10
191.0500
20
-111.7750
0
VERTEX
8
CUT
10
177.0500
20
-111.7750
0
SEQEND
0
POLYLINE
8
CUT
66
1
70
1
0
VERTEX
8
CUT
10
-5.0824
20
-120.4081
0
VERTEX
8
CUT
10
-5.1540
20
-120.4010
0
VERTEX
8
CUT
10
-5.2250
20
-120.3893
0
VERTEX
8
CUT
10
-5.2951
20
-120.3729
0
VERTEX
8
CUT
10
-5.3640
20
-120.3520
0
VERTEX
8
CUT
10
-5.4314
20
-120.3267
0
VERTEX
8
CUT
10
-5.4969
20
-120.2970
0
VERTEX
8
CUT
10
-5.5604
20
-120.2630
0
VERTEX
8
CUT
10
-5.6215
20
-120.2250
0
VERTEX
8
CUT
10
-5.6800
20
-120.1831
0
VERTEX
8
CUT
10
-5.7357
20
-120.1374
0
VERTEX
8
CUT
10
-5.7882
20
-120.0882
0
VERTEX
8
CUT
10
-5.8374
20
-120.0357
0
VERTEX
8
CUT
10
-5.8831
20
-119.9800
0
VERTEX
8
CUT
10
-5.9250
20
-119.9215
0
VERTEX
8
CUT
10
-5.9630
20
-119.8604
0
VERTEX
8
CUT
10
-5.9970
20
-119.7969
0
VERTEX
8
CUT
10
-6.0267
20
-119.7314
0
VERTEX
8
CUT
10
-6.0520
20
-119.6640
0
VERTEX
8
CUT
10
-6.0729
20
-119.5951
0
VERTEX
8
CUT
10
-6.0893
20
-119.5250
0
VERTEX
8
CUT
10
-6.1010
20
-119.4540
0
VERTEX
8
CUT
10
-6.1081
20
-119.3824
0
VERTEX
8
CUT
10
-6.1104
20
-119.3104
0
VERTEX
8
CUT
10
-6.1081
20
-119.2385
0
VERTEX
8
CUT
10
-6.1010
20
-119.1668
0
VERTEX
8
CUT
10
-6.0893
20
-119.0958
0
VERTEX
8
CUT
10
-6.0729
20
-119.0257
0
VERTEX
8
CUT
10
-6.0520
20
-118.9568
0
VERTEX
8
CUT
10
-6.0267
20
-118.8895
0
VERTEX
8
CUT
10
-5.9970
20
-118.8239
0
VERTEX
8
CUT
10
-5.9630
20
-118.7604
0
VERTEX
8
CUT
10
-5.9250
20
-118.6993
0
VERTEX
8
CUT
10
-5.8831
20
-118.6408
0
VERTEX
8
CUT
10
-5.8374
20
-118.5851
0
VERTEX
8
CUT
10
-5.7882
20
-118.5326
0
VERTEX
8
CUT
10
-5.7357
20
-118.4834
0
VERTEX
8
CUT
10
-5.6800
20
-118.4377
0
VERTEX
8
CUT
10
-5.6215
20
-118.3958
0
VERTEX
8
CUT
10
-5.5604
20
-118.3578
0
VERTEX
8
CUT
10
-5.4969
20
-118.3238
0
VERTEX
8
CUT
10
-5.4314
20
-118.2941
0
VERTEX
8
CUT
10
-5.3640
20
-118.2688
0
VERTEX
8
CUT
10
-5.2951
20
-118.2479
0
VERTEX
8
CUT
10
-5.2250
20
-118.2315
0
VERTEX
8
CUT
10
-5.1540
20
-118.2198
0
VERTEX
8
CUT
10
-5.0824
20
-118.2128
0
VERTEX
8
CUT
10
-5.0104
20
-118.2104
0
VERTEX
8
CUT
10
-4.9385
20
-118.2128
0
VERTEX
8
CUT
10
-4.8668
20
-118.2198
0
VERTEX
8
CUT
10
-4.7958
20
-118.2315
0
VERTEX
8
CUT
10
-4.7257
20
-118.2479
0
VERTEX
8
CUT
10
-4.6568
20
-118.2688
0
VERTEX
8
CUT
10
-4.5895
20
-118.2941
0
VERTEX
8
CUT
10
-4.5239
20
-118.3238
0
VERTEX
8
CUT
10
-4.4604
20
-118.3578
0
VERTEX
8
CUT
10
-4.3993
20
-118.3958
0
VERTEX
8
CUT
10
-4.3408
20
-118.4377
0
VERTEX
8
CUT
10
-4.2851
20
-118.4834
0
VERTEX
8
CUT
10
-4.2326
20
-118.5326
0
VERTEX
8
CUT
10
-4.1834
20
-118.5851
0
VERTEX
8
CUT
10
-4.1377
20
-118.6408
0
VERTEX
8
CUT
10
-4.0958
20
-118.6993
0
VERTEX
8
CUT
10
-4.0578
20
-118.7604
0
VERTEX
8
CUT
10
-4.0238
20
-118.8239
0
VERTEX
8
CUT
10
-3.9941
20
-118.8895
0
VERTEX
8
CUT
10
-3.9688
20
-118.9568
0
VERTEX
8
CUT
10
-3.9479
20
-119.0257
0
VERTEX
8
CUT
10
-3.9315
20
-119.0958
0
VERTEX
8
CUT
10
-3.9198
20
-119.1668
0
VERTEX
8
CUT
10
-3.9128
20
-119.2385
0
VERTEX
8
CUT
10
-3.9104
20
-119.3104
0
VERTEX
8
CUT
10
-3.9128
20
-119.3824
0
VERTEX
8
CUT
10
-3.9198
20
-119.4540
0
VERTEX
8
CUT
10
-3.9315
20
-119.5250
0
VERTEX
8
CUT
10
-3.9479
20
-119.5951
0
VERTEX
8
CUT
10
-3.9688
20
-119.6640
0
VERTEX
8
CUT
10
-3.9941
20
-119.7314
0
VERTEX
8
CUT
10
-4.0238
20
-119.7969
0
VERTEX
8
CUT
10
-4.0578
20
-119.8604
0
VERTEX
8
CUT
10
-4.0958
20
-119.9215
0
VERTEX
8
CUT
10
-4.1377
20
-119.9800
0
VERTEX
8
CUT
10
-4.1834
20
-120.0357
0
VERTEX
8
CUT
10
-4.2326
20
-120.0882
0
VERTEX
8
CUT
10
-4.2851
20
-120.1374
0
VERTEX
8
CUT
10
-4.3408
20
-120.1831
0
VERTEX
8
CUT
10
-4.3993
20
-120.2250
0
VERTEX
8
CUT
10
-4.4604
20
-120.2630
0
VERTEX
8
CUT
10
-4.5239
20
-120.2970
0
VERTEX
8
CUT
10
-4.5895
20
-120.3267
0
VERTEX
8
CUT
10
-4.6568
20
-120.3520
0
VERTEX
8
CUT
10
-4.7257
20
-120.3729
0
VERTEX
8
CUT
10
-4.7958
20
-120.3893
0
VERTEX
8
CUT
10
-4.8668
20
-120.4010
0
VERTEX
8
CUT
10
-4.9385
20
-120.4081
0
VERTEX
8
CUT
10
-5.0104
20
-120.4104
0
SEQEND
0
POLYLINE
8
CUT
66
1
70
1
0
VERTEX
8
CUT
10
198.5135
20
-120.4081
0
VERTEX
8
CUT
10
198.4418
20
-120.4010
0
VERTEX
8
CUT
10
198.3708
20
-120.3893
0
VERTEX
8
CUT
10
198.3007
20
-120.3729
0
VERTEX
8
CUT
10
198.2318
20
-120.3520
0
VERTEX
8
CUT
10
198.1645
20
-120.3267
0
VERTEX
8
CUT
10
198.0989
20
-120.2970
0
VERTEX
8
CUT
10
198.0354
20
-120.2630
0
VERTEX
8
CUT
10
197.9743
20
-120.2250
0
VERTEX
8
CUT
10
197.9158
20
-120.1831
0
VERTEX
8
CUT
10
197.8601
20
-120.1374
0
VERTEX
8
CUT
10
197.8076
20
-120.0882
0
VERTEX
8
CUT
10
197.7584
20
-120.0357
0
VERTEX
8
CUT
10
197.7127
20
-119.9800
0
VERTEX
8
CUT
10
197.6708
20
-119.9215
0
VERTEX
8
CUT
10
197.6328
20
-119.8604
0
VERTEX
8
CUT
10
197.5988
20
-119.7969
0
VERTEX
8
CUT
10
197.5691
20
-119.7314
0
VERTEX
8
CUT
10
197.5438
20
-119.6640
0
VERTEX
8
CUT
10
197.5229
20
-119.5951
0
VERTEX
8
CUT
10
197.5065
20
-119.5250
0
VERTEX
8
CUT
10
197.4948
20
-119.4540
0
VERTEX
8
CUT
10
197.4878
20
-119.3824
0
VERTEX
8
CUT
10
197.4854
20
-119.3104
0
VERTEX
8
CUT
10
197.4878
20
-119.2385
0
VERTEX
8
CUT
10
197.4948
20
-119.1668
0
VERTEX
8
CUT
10
197.5065
20
-119.0958
0
VERTEX
8
CUT
10
197.5229
20
-119.0257
0
VERTEX
8
CUT
10
197.5438
20
-118.9568
0
VERTEX
8
CUT
10
197.5691
20
-118.8895
0
VERTEX
8
CUT
10
197.5988
20
-118.8239
0
VERTEX
8
CUT
10
197.6328
20
-118.7604
0
VERTEX
8
CUT
10
197.6708
20
-118.6993
0
VERTEX
8
CUT
10
197.7127
20
-118.6408
0
VERTEX
8
CUT
10
197.7584
20
-118.5851
0
VERTEX
8
CUT
10
197.8076
20
-118.5326
0
VERTEX
8
CUT
10
197.8601
20
-118.4834
0
VERTEX
8
CUT
10
197.9158
20
-118.4377
0
VERTEX
8
CUT
10
197.9743
20
-118.3958
0
VERTEX
8
CUT
10
198.0354
20
-118.3578
0
VERTEX
8
CUT
10
198.0989
20
-118.3238
0
VERTEX
8
CUT
10
198.1645
20
-118.2941
0
VERTEX
8
CUT
10
198.2318
20
-118.2688
0
VERTEX
8
CUT
10
198.3007
20
-118.2479
0
VERTEX
8
CUT
10
198.3708
20
-118.2315
0
VERTEX
8
CUT
10
198.4418
20
-118.2198
0
VERTEX
8
CUT
10
198.5135
20
-118.2128
0
VERTEX
8
CUT
10
198.5854
20
-118.2104
0
VERTEX
8
CUT
10
198.6574
20
-118.2128
0
VERTEX
8
CUT
10
198.7290
20
-118.2198
0
VERTEX
8
CUT
10
198.8000
20
-118.2315
0
VERTEX
8
CUT
10
198.8701
20
-118.2479
0
VERTEX
8
CUT
10
198.9390
20
-118.2688
0
VERTEX
8
CUT
10
199.0064
20
-118.2941
0
VERTEX
8
CUT
10
199.0719
20
-118.3238
0
VERTEX
8
CUT
10
199.1354
20
-118.3578
0
VERTEX
8
CUT
10
199.1965
20
-118.3958
0
VERTEX
8
CUT
10
199.2550
20
-118.4377
0
VERTEX
8
CUT
10
199.3107
20
-118.4834
0
VERTEX
8
CUT
10
199.3632
20
-118.5326
0
VERTEX
8
CUT
10
199.4124
20
-118.5851
0
VERTEX
8
CUT
10
199.4581
20
-118.6408
0
VERTEX
8
CUT
10
199.5000
20
-118.6993
0
VERTEX
8
CUT
10
199.5380
20
-118.7604
0
VERTEX
8
CUT
10
199.5720
20
-118.8239
0
VERTEX
8
CUT
10
199.6017
20
-118.8895
0
VERTEX
8
CUT
10
199.6270
20
-118.9568
0
VERTEX
8
CUT
10
199.6479
20
-119.0257
0
VERTEX
8
CUT
10
199.6643
20
-119.0958
0
VERTEX
8
CUT
10
199.6760
20
-119.1668
0
VERTEX
8
CUT
10
199.6831
20
-119.2385
0
VERTEX
8
CUT
10
199.6854
20
-119.3104
0
VERTEX
8
CUT
10
199.6831
20
-119.3824
0
VERTEX
8
CUT
10
199.6760
20
-119.4540
0
VERTEX
8
CUT
10
199.6643
20
-119.5250
0
VERTEX
8
CUT
10
199.6479
20
-119.5951
0
VERTEX
8
CUT
10
199.6270
20
-119.6640
0
VERTEX
8
CUT
10
199.6017
20
-119.7314
0
VERTEX
8
CUT
10
199.5720
20
-119.7969
0
VERTEX
8
CUT
10
199.5380
20
-119.8604
0
VERTEX
8
CUT
10
199.5000
20
-119.9215
0
VERTEX
8
CUT
10
199.4581
20
-119.9800
0
VERTEX
8
CUT
10
199.4124
20
-120.0357
0
VERTEX
8
CUT
10
199.3632
20
-120.0882
0
VERTEX
8
CUT
10
199.3107
20
-120.1374
0
VERTEX
8
CUT
10
199.2550
20
-120.1831
0
VERTEX
8
CUT
10
199.1965
20
-120.2250
0
VERTEX
8
CUT
10
199.1354
20
-120.2630
0
VERTEX
8
CUT
10
199.0719
20
-120.2970
0
VERTEX
8
CUT
10
199.0064
20
-120.3267
0
VERTEX
8
CUT
10
198.9390
20
-120.3520
0
VERTEX
8
CUT
10
198.8701
20
-120.3729
0
VERTEX
8
CUT
10
198.8000
20
-120.3893
0
VERTEX
8
CUT
10
198.7290
20
-120.4010
0
VERTEX
8
CUT
10
198.6574
20
-120.4081
0
VERTEX
8
CUT
10
198.5854
20
-120.4104
0
SEQEND
0
POLYLINE
8
CUT
66
1
70
1
0
VERTEX
8
CUT
10
44.5718
20
-122.8976
0
VERTEX
8
CUT
10
44.5002
20
-122.8906
0
VERTEX
8
CUT
10
44.4292
20
-122.8789
0
VERTEX
8
CUT
10
44.3590
20
-122.8625
0
VERTEX
8
CUT
10
44.2902
20
-122.8416
0
VERTEX
8
CUT
10
44.2228
20
-122.8163
0
VERTEX
8
CUT
10
44.1572
20
-122.7866
0
VERTEX
8
CUT
10
44.0938
20
-122.7526
0
VERTEX
8
CUT
10
44.0326
20
-122.7146
0
VERTEX
8
CUT
10
43.9741
20
-122.6727
0
VERTEX
8
CUT
10
43.9185
20
-122.6270
0
VERTEX
8
CUT
10
43.8659
20
-122.5778
0
VERTEX
8
CUT
10
43.8167
20
-122.5253
0
VERTEX
8
CUT
10
43.7711
20
-122.4696
0
VERTEX
8
CUT
10
43.7291
20
-122.4111
0
VERTEX
8
CUT
10
43.6911
20
-122.3500
0
VERTEX
8
CUT
10
43.6572
20
-122.2865
0
VERTEX
8
CUT
10
43.6275
20
-122.2210
0
VERTEX
8
CUT
10
43.6021
20
-122.1536
0
VERTEX
8
CUT
10
43.5812
20
-122.0847
0
VERTEX
8
CUT
10
43.5649
20
-122.0146
0
VERTEX
8
CUT
10
43.5532
20
-121.9436
0
VERTEX
8
CUT
10
43.5461
20
-121.8719
0
VERTEX
8
CUT
10
43.5438
20
-121.8000
0
VERTEX
8
CUT
10
43.5461
20
-121.7281
0
VERTEX
8
CUT
10
43.5532
20
-121.6564
0
VERTEX
8
CUT
10
43.5649
20
-121.5854
0
VERTEX
8
CUT
10
43.5812
20
-121.5153
0
VERTEX
8
CUT
10
43.6021
20
-121.4464
0
VERTEX
8
CUT
10
43.6275
20
-121.3790
0
VERTEX
8
CUT
10
43.6572
20
-121.3135
0
VERTEX
8
CUT
10
43.6911
20
-121.2500
0
VERTEX
8
CUT
10
43.7291
20
-121.1889
0
VERTEX
8
CUT
10
43.7711
20
-121.1304
0
VERTEX
8
CUT
10
43.8167
20
-121.0747
0
VERTEX
8
CUT
10
43.8659
20
-121.0222
0
VERTEX
8
CUT
10
43.9185
20
-120.9730
0
VERTEX
8
CUT
10
43.9741
20
-120.9273
0
VERTEX
8
CUT
10
44.0326
20
-120.8854
0
VERTEX
8
CUT
10
44.0938
20
-120.8474
0
VERTEX
8
CUT
10
44.1572
20
-120.8134
0
VERTEX
8
CUT
10
44.2228
20
-120.7837
0
VERTEX
8
CUT
10
44.2902
20
-120.7584
0
VERTEX
8
CUT
10
44.3590
20
-120.7375
0
VERTEX
8
CUT
10
44.4292
20
-120.7211
0
VERTEX
8
CUT
10
44.5002
20
-120.7094
0
VERTEX
8
CUT
10
44.5718
20
-120.7024
0
VERTEX
8
CUT
10
44.6437
20
-120.7000
0
VERTEX
8
CUT
10
44.7157
20
-120.7024
0
VERTEX
8
CUT
10
44.7873
20
-120.7094
0
VERTEX
8
CUT
10
44.8583
20
-120.7211
0
VERTEX
8
CUT
10
44.9285
20
-120.7375
0
VERTEX
8
CUT
10
44.9973
20
-120.7584
0
VERTEX
8
CUT
10
45.0647
20
-120.7837
0
VERTEX
8
CUT
10
45.1303
20
-120.8134
0
VERTEX
8
CUT
10
45.1938
20
-120.8474
0
VERTEX
8
CUT
10
45.2549
20
-120.8854
0
VERTEX
8
CUT
10
45.3134
20
-120.9273
0
VERTEX
8
CUT
10
45.3690
20
-120.9730
0
VERTEX
8
CUT
10
45.4216
20
-121.0222
0
VERTEX
8
CUT
10
45.4708
20
-121.0747
0
VERTEX
8
CUT
10
45.5164
20
-121.1304
0
VERTEX
8
CUT
10
45.5584
20
-121.1889
0
VERTEX
8
CUT
10
45.5964
20
-121.2500
0
VERTEX
8
CUT
10
45.6303
20
-121.3135
0
VERTEX
8
CUT
10
45.6600
20
-121.3790
0
VERTEX
8
CUT
10
45.6854
20
-121.4464
0
VERTEX
8
CUT
10
45.7063
20
-121.5153
0
VERTEX
8
CUT
10
45.7226
20
-121.5854
0
VERTEX
8
CUT
10
45.7343
20
-121.6564
0
VERTEX
8
CUT
10
45.7414
20
-121.7281
0
VERTEX
8
CUT
10
45.7437
20
-121.8000
0
VERTEX
8
CUT
10
45.7414
20
-121.8719
0
VERTEX
8
CUT
10
45.7343
20
-121.9436
0
VERTEX
8
CUT
10
45.7226
20
-122.0146
0
VERTEX
8
CUT
10
45.7063
20
-122.0847
0
VERTEX
8
CUT
10
45.6854
20
-122.1536
0
VERTEX
8
CUT
10
45.6600
20
-122.2210
0
VERTEX
8
CUT
10
45.6303
20
-122.2865
0
VERTEX
8
CUT
10
45.5964
20
-122.3500
0
VERTEX
8
CUT
10
45.5584
20
-122.4111
0
VERTEX
8
CUT
10
45.5164
20
-122.4696
0
VERTEX
8
CUT
10
45.4708
20
-122.5253
0
VERTEX
8
CUT
10
45.4216
20
-122.5778
0
VERTEX
8
CUT
10
45.3690
20
-122.6270
0
VERTEX
8
CUT
10
45.3134
20
-122.6727
0
VERTEX
8
CUT
10
45.2549
20
-122.7146
0
VERTEX
8
CUT
10
45.1938
20
-122.7526
0
VERTEX
8
CUT
10
45.1303
20
-122.7866
0
VERTEX
8
CUT
10
45.0647
20
-122.8163
0
VERTEX
8
CUT
10
44.9973
20
-122.8416
0
VERTEX
8
CUT
10
44.9285
20
-122.8625
0
VERTEX
8
CUT
10
44.8583
20
-122.8789
0
VERTEX
8
CUT
10
44.7873
20
-122.8906
0
VERTEX
8
CUT
10
44.7157
20
-122.8976
0
VERTEX
8
CUT
10
44.6437
20
-122.9000
0
SEQEND
0
POLYLINE
8
CUT
66
1
70
1
0
VERTEX
8
CUT
10
96.7156
20
-122.8976
0
VERTEX
8
CUT
10
96.6439
20
-122.8906
0
VERTEX
8
CUT
10
96.5729
20
-122.8789
0
VERTEX
8
CUT
10
96.5028
20
-122.8625
0
VERTEX
8
CUT
10
96.4339
20
-122.8416
0
VERTEX
8
CUT
10
96.3665
20
-122.8163
0
VERTEX
8
CUT
10
96.3010
20
-122.7866
0
VERTEX
8
CUT
10
96.2375
20
-122.7526
0
VERTEX
8
CUT
10
96.1764
20
-122.7146
0
VERTEX
8
CUT
10
96.1179
20
-122.6727
0
VERTEX
8
CUT
10
96.0622
20
-122.6270
0
VERTEX
8
CUT
10
96.0097
20
-122.5778
0
VERTEX
8
CUT
10
95.9605
20
-122.5253
0
VERTEX
8
CUT
10
95.9148
20
-122.4696
0
VERTEX
8
CUT
10
95.8729
20
-122.4111
0
VERTEX
8
CUT
10
95.8349
20
-122.3500
0
VERTEX
8
CUT
10
95.8009
20
-122.2865
0
VERTEX
8
CUT
10
95.7712
20
-122.2210
0
VERTEX
8
CUT
10
95.7459
20
-122.1536
0
VERTEX
8
CUT
10
95.7250
20
-122.0847
0
VERTEX
8
CUT
10
95.7086
20
-122.0146
0
VERTEX
8
CUT
10
95.6969
20
-121.9436
0
VERTEX
8
CUT
10
95.6899
20
-121.8719
0
VERTEX
8
CUT
10
95.6875
20
-121.8000
0
VERTEX
8
CUT
10
95.6899
20
-121.7281
0
VERTEX
8
CUT
10
95.6969
20
-121.6564
0
VERTEX
8
CUT
10
95.7086
20
-121.5854
0
VERTEX
8
CUT
10
95.7250
20
-121.5153
0
VERTEX
8
CUT
10
95.7459
20
-121.4464
0
VERTEX
8
CUT
10
95.7712
20
-121.3790
0
VERTEX
8
CUT
10
95.8009
20
-121.3135
0
VERTEX
8
CUT
10
95.8349
20
-121.2500
0
VERTEX
8
CUT
10
95.8729
20
-121.1889
0
VERTEX
8
CUT
10
95.9148
20
-121.1304
0
VERTEX
8
CUT
10
95.9605
20
-121.0747
0
VERTEX
8
CUT
10
96.0097
20
-121.0222
0
VERTEX
8
CUT
10
96.0622
20
-120.9730
0
VERTEX
8
CUT
10
96.1179
20
-120.9273
0
VERTEX
8
CUT
10
96.1764
20
-120.8854
0
VERTEX
8
CUT
10
96.2375
20
-120.8474
0
VERTEX
8
CUT
10
96.3010
20
-120.8134
0
VERTEX
8
CUT
10
96.3665
20
-120.7837
0
VERTEX
8
CUT
10
96.4339
20
-120.7584
0
VERTEX
8
CUT
10
96.5028
20
-120.7375
0
VERTEX
8
CUT
10
96.5729
20
-120.7211
0
VERTEX
8
CUT
10
96.6439
20
-120.7094
0
VERTEX
8
CUT
10
96.7156
20
-120.7024
0
VERTEX
8
CUT
10
96.7875
20
-120.7000
0
VERTEX
8
CUT
10
96.8594
20
-120.7024
0
VERTEX
8
CUT
10
96.9311
20
-120.7094
0
VERTEX
8
CUT
10
97.0021
20
-120.7211
0
VERTEX
8
CUT
10
97.0722
20
-120.7375
0
VERTEX
8
CUT
10
97.1411
20
-120.7584
0
VERTEX
8
CUT
10
97.2085
20
-120.7837
0
VERTEX
8
CUT
10
97.2740
20
-120.8134
0
VERTEX
8
CUT
10
97.3375
20
-120.8474
0
VERTEX
8
CUT
10
97.3986
20
-120.8854
0
VERTEX
8
CUT
10
97.4571
20
-120.9273
0
VERTEX
8
CUT
10
97.5128
20
-120.9730
0
VERTEX
8
CUT
10
97.5653
20
-121.0222
0
VERTEX
8
CUT
10
97.6145
20
-121.0747
0
VERTEX
8
CUT
10
97.6602
20
-121.1304
0
VERTEX
8
CUT
10
97.7021
20
-121.1889
0
VERTEX
8
CUT
10
97.7401
20
-121.2500
0
VERTEX
8
CUT
10
97.7741
20
-121.3135
0
VERTEX
8
CUT
10
97.8038
20
-121.3790
0
VERTEX
8
CUT
10
97.8291
20
-121.4464
0
VERTEX
8
CUT
10
97.8500
20
-121.5153
0
VERTEX
8
CUT
10
97.8664
20
-121.5854
0
VERTEX
8
CUT
10
97.8781
20
-121.6564
0
VERTEX
8
CUT
10
97.8851
20
-121.7281
0
VERTEX
8
CUT
10
97.8875
20
-121.8000
0
VERTEX
8
CUT
10
97.8851
20
-121.8719
0
VERTEX
8
CUT
10
97.8781
20
-121.9436
0
VERTEX
8
CUT
10
97.8664
20
-122.0146
0
VERTEX
8
CUT
10
97.8500
20
-122.0847
0
VERTEX
8
CUT
10
97.8291
20
-122.1536
0
VERTEX
8
CUT
10
97.8038
20
-122.2210
0
VERTEX
8
CUT
10
97.7741
20
-122.2865
0
VERTEX
8
CUT
10
97.7401
20
-122.3500
0
VERTEX
8
CUT
10
97.7021
20
-122.4111
0
VERTEX
8
CUT
10
97.6602
20
-122.4696
0
VERTEX
8
CUT
10
97.6145
20
-122.5253
0
VERTEX
8
CUT
10
97.5653
20
-122.5778
0
VERTEX
8
CUT
10
97.5128
20
-122.6270
0
VERTEX
8
CUT
10
97.4571
20
-122.6727
0
VERTEX
8
CUT
10
97.3986
20
-122.7146
0
VERTEX
8
CUT
10
97.3375
20
-122.7526
0
VERTEX
8
CUT
10
97.2740
20
-122.7866
0
VERTEX
8
CUT
10
97.2085
20
-122.8163
0
VERTEX
8
CUT
10
97.1411
20
-122.8416
0
VERTEX
8
CUT
10
97.0722
20
-122.8625
0
VERTEX
8
CUT
10
97.0021
20
-122.8789
0
VERTEX
8
CUT
10
96.9311
20
-122.8906
0
VERTEX
8
CUT
10
96.8594
20
-122.8976
0
VERTEX
8
CUT
10
96.7875
20
-122.9000
0
SEQEND
0
POLYLINE
8
CUT
66
1
70
1
0
VERTEX
8
CUT
10
148.8593
20
-122.8976
0
VERTEX
8
CUT
10
148.7877
20
-122.8906
0
VERTEX
8
CUT
10
148.7167
20
-122.8789
0
VERTEX
8
CUT
10
148.6465
20
-122.8625
0
VERTEX
8
CUT
10
148.5777
20
-122.8416
0
VERTEX
8
CUT
10
148.5103
20
-122.8163
0
VERTEX
8
CUT
10
148.4447
20
-122.7866
0
VERTEX
8
CUT
10
148.3813
20
-122.7526
0
VERTEX
8
CUT
10
148.3201
20
-122.7146
0
VERTEX
8
CUT
10
148.2616
20
-122.6727
0
VERTEX
8
CUT
10
148.2060
20
-122.6270
0
VERTEX
8
CUT
10
148.1534
20
-122.5778
0
VERTEX
8
CUT
10
148.1042
20
-122.5253
0
VERTEX
8
CUT
10
148.0586
20
-122.4696
0
VERTEX
8
CUT
10
148.0166
20
-122.4111
0
VERTEX
8
CUT
10
147.9786
20
-122.3500
0
VERTEX
8
CUT
10
147.9447
20
-122.2865
0
VERTEX
8
CUT
10
147.9150
20
-122.2210
0
VERTEX
8
CUT
10
147.8896
20
-122.1536
0
VERTEX
8
CUT
10
147.8687
20
-122.0847
0
VERTEX
8
CUT
10
147.8524
20
-122.0146
0
VERTEX
8
CUT
10
147.8407
20
-121.9436
0
VERTEX
8
CUT
10
147.8336
20
-121.8719
0
VERTEX
8
CUT
10
147.8312
20
-121.8000
0
VERTEX
8
CUT
10
147.8336
20
-121.7281
0
VERTEX
8
CUT
10
147.8407
20
-121.6564
0
VERTEX
8
CUT
10
147.8524
20
-121.5854
0
VERTEX
8
CUT
10
147.8687
20
-121.5153
0
VERTEX
8
CUT
10
147.8896
20
-121.4464
0
VERTEX
8
CUT
10
147.9150
20
-121.3790
0
VERTEX
8
CUT
10
147.9447
20
-121.3135
0
VERTEX
8
CUT
10
147.9786
20
-121.2500
0
VERTEX
8
CUT
10
148.0166
20
-121.1889
0
VERTEX
8
CUT
10
148.0586
20
-121.1304
0
VERTEX
8
CUT
10
148.1042
20
-121.0747
0
VERTEX
8
CUT
10
148.1534
20
-121.0222
0
VERTEX
8
CUT
10
148.2060
20
-120.9730
0
VERTEX
8
CUT
10
148.2616
20
-120.9273
0
VERTEX
8
CUT
10
148.3201
20
-120.8854
0
VERTEX
8
CUT
10
148.3813
20
-120.8474
0
VERTEX
8
CUT
10
148.4447
20
-120.8134
0
VERTEX
8
CUT
10
148.5103
20
-120.7837
0
VERTEX
8
CUT
10
148.5777
20
-120.7584
0
VERTEX
8
CUT
10
148.6465
20
-120.7375
0
VERTEX
8
CUT
10
148.7167
20
-120.7211
0
VERTEX
8
CUT
10
148.7877
20
-120.7094
0
VERTEX
8
CUT
10
148.8593
20
-120.7024
0
VERTEX
8
CUT
10
148.9312
20
-120.7000
0
VERTEX
8
CUT
10
149.0032
20
-120.7024
0
VERTEX
8
CUT
10
149.0748
20
-120.7094
0
VERTEX
8
CUT
10
149.1458
20
-120.7211
0
VERTEX
8
CUT
10
149.2160
20
-120.7375
0
VERTEX
8
CUT
10
149.2848
20
-120.7584
0
VERTEX
8
CUT
10
149.3522
20
-120.7837
0
VERTEX
8
CUT
10
149.4178
20
-120.8134
0
VERTEX
8
CUT
10
149.4813
20
-120.8474
0
VERTEX
8
CUT
10
149.5424
20
-120.8854
0
VERTEX
8
CUT
10
149.6009
20
-120.9273
0
VERTEX
8
CUT
10
149.6565
20
-120.9730
0
VERTEX
8
CUT
10
149.7091
20
-121.0222
0
VERTEX
8
CUT
10
149.7583
20
-121.0747
0
VERTEX
8
CUT
10
149.8039
20
-121.1304
0
VERTEX
8
CUT
10
149.8459
20
-121.1889
0
VERTEX
8
CUT
10
149.8839
20
-121.2500
0
VERTEX
8
CUT
10
149.9178
20
-121.3135
0
VERTEX
8
CUT
10
149.9475
20
-121.3790
0
VERTEX
8
CUT
10
149.9729
20
-121.4464
0
VERTEX
8
CUT
10
149.9938
20
-121.5153
0
VERTEX
8
CUT
10
150.0101
20
-121.5854
0
VERTEX
8
CUT
10
150.0218
20
-121.6564
0
VERTEX
8
CUT
10
150.0289
20
-121.7281
0
VERTEX
8
CUT
10
150.0312
20
-121.8000
0
VERTEX
8
CUT
10
150.0289
20
-121.8719
0
VERTEX
8
CUT
10
150.0218
20
-121.9436
0
VERTEX
8
CUT
10
150.0101
20
-122.0146
0
VERTEX
8
CUT
10
149.9938
20
-122.0847
0
VERTEX
8
CUT
10
149.9729
20
-122.1536
0
VERTEX
8
CUT
10
149.9475
20
-122.2210
0
VERTEX
8
CUT
10
149.9178
20
-122.2865
0
VERTEX
8
CUT
10
149.8839
20
-122.3500
0
VERTEX
8
CUT
10
149.8459
20
-122.4111
0
VERTEX
8
CUT
10
149.8039
20
-122.4696
0
VERTEX
8
CUT
10
149.7583
20
-122.5253
0
VERTEX
8
CUT
10
149.7091
20
-122.5778
0
VERTEX
8
CUT
10
149.6565
20
-122.6270
0
VERTEX
8
CUT
10
149.6009
20
-122.6727
0
VERTEX
8
CUT
10
149.5424
20
-122.7146
0
VERTEX
8
CUT
10
149.4813
20
-122.7526
0
VERTEX
8
CUT
10
149.4178
20
-122.7866
0
VERTEX
8
CUT
10
149.3522
20
-122.8163
0
VERTEX
8
CUT
10
149.2848
20
-122.8416
0
VERTEX
8
CUT
10
149.2160
20
-122.8625
0
VERTEX
8
CUT
10
149.1458
20
-122.8789
0
VERTEX
8
CUT
10
149.0748
20
-122.8906
0
VERTEX
8
CUT
10
149.0032
20
-122.8976
0
VERTEX
8
CUT
10
148.9312
20
-122.9000
0
SEQEND
0
ENDSEC
0
EOF
